%TF.GenerationSoftware,KiCad,Pcbnew,(7.0.0)*%
%TF.CreationDate,2023-09-14T17:34:22-04:00*%
%TF.ProjectId,headstage-neuropix2e,68656164-7374-4616-9765-2d6e6575726f,B (Beta)*%
%TF.SameCoordinates,Original*%
%TF.FileFunction,Copper,L4,Bot*%
%TF.FilePolarity,Positive*%
%FSLAX46Y46*%
G04 Gerber Fmt 4.6, Leading zero omitted, Abs format (unit mm)*
G04 Created by KiCad (PCBNEW (7.0.0)) date 2023-09-14 17:34:22*
%MOMM*%
%LPD*%
G01*
G04 APERTURE LIST*
G04 Aperture macros list*
%AMRoundRect*
0 Rectangle with rounded corners*
0 $1 Rounding radius*
0 $2 $3 $4 $5 $6 $7 $8 $9 X,Y pos of 4 corners*
0 Add a 4 corners polygon primitive as box body*
4,1,4,$2,$3,$4,$5,$6,$7,$8,$9,$2,$3,0*
0 Add four circle primitives for the rounded corners*
1,1,$1+$1,$2,$3*
1,1,$1+$1,$4,$5*
1,1,$1+$1,$6,$7*
1,1,$1+$1,$8,$9*
0 Add four rect primitives between the rounded corners*
20,1,$1+$1,$2,$3,$4,$5,0*
20,1,$1+$1,$4,$5,$6,$7,0*
20,1,$1+$1,$6,$7,$8,$9,0*
20,1,$1+$1,$8,$9,$2,$3,0*%
%AMOutline5P*
0 Free polygon, 5 corners , with rotation*
0 The origin of the aperture is its center*
0 number of corners: always 5*
0 $1 to $10 corner X, Y*
0 $11 Rotation angle, in degrees counterclockwise*
0 create outline with 5 corners*
4,1,5,$1,$2,$3,$4,$5,$6,$7,$8,$9,$10,$1,$2,$11*%
%AMOutline6P*
0 Free polygon, 6 corners , with rotation*
0 The origin of the aperture is its center*
0 number of corners: always 6*
0 $1 to $12 corner X, Y*
0 $13 Rotation angle, in degrees counterclockwise*
0 create outline with 6 corners*
4,1,6,$1,$2,$3,$4,$5,$6,$7,$8,$9,$10,$11,$12,$1,$2,$13*%
%AMOutline7P*
0 Free polygon, 7 corners , with rotation*
0 The origin of the aperture is its center*
0 number of corners: always 7*
0 $1 to $14 corner X, Y*
0 $15 Rotation angle, in degrees counterclockwise*
0 create outline with 7 corners*
4,1,7,$1,$2,$3,$4,$5,$6,$7,$8,$9,$10,$11,$12,$13,$14,$1,$2,$15*%
%AMOutline8P*
0 Free polygon, 8 corners , with rotation*
0 The origin of the aperture is its center*
0 number of corners: always 8*
0 $1 to $16 corner X, Y*
0 $17 Rotation angle, in degrees counterclockwise*
0 create outline with 8 corners*
4,1,8,$1,$2,$3,$4,$5,$6,$7,$8,$9,$10,$11,$12,$13,$14,$15,$16,$1,$2,$17*%
G04 Aperture macros list end*
%TA.AperFunction,ComponentPad*%
%ADD10O,1.400000X2.600000*%
%TD*%
%TA.AperFunction,ComponentPad*%
%ADD11RoundRect,0.250000X-0.600000X0.600000X-0.600000X-0.600000X0.600000X-0.600000X0.600000X0.600000X0*%
%TD*%
%TA.AperFunction,ComponentPad*%
%ADD12C,1.700000*%
%TD*%
%TA.AperFunction,SMDPad,CuDef*%
%ADD13RoundRect,0.218750X0.218750X0.381250X-0.218750X0.381250X-0.218750X-0.381250X0.218750X-0.381250X0*%
%TD*%
%TA.AperFunction,SMDPad,CuDef*%
%ADD14RoundRect,0.015000X-0.135000X-0.385000X0.135000X-0.385000X0.135000X0.385000X-0.135000X0.385000X0*%
%TD*%
%TA.AperFunction,SMDPad,CuDef*%
%ADD15RoundRect,0.020000X-0.180000X-0.455000X0.180000X-0.455000X0.180000X0.455000X-0.180000X0.455000X0*%
%TD*%
%TA.AperFunction,SMDPad,CuDef*%
%ADD16C,0.216000*%
%TD*%
%TA.AperFunction,SMDPad,CuDef*%
%ADD17RoundRect,0.100000X-0.100000X0.130000X-0.100000X-0.130000X0.100000X-0.130000X0.100000X0.130000X0*%
%TD*%
%TA.AperFunction,SMDPad,CuDef*%
%ADD18C,0.200000*%
%TD*%
%TA.AperFunction,SMDPad,CuDef*%
%ADD19RoundRect,0.100000X-0.130000X-0.100000X0.130000X-0.100000X0.130000X0.100000X-0.130000X0.100000X0*%
%TD*%
%TA.AperFunction,SMDPad,CuDef*%
%ADD20RoundRect,0.100000X0.130000X0.100000X-0.130000X0.100000X-0.130000X-0.100000X0.130000X-0.100000X0*%
%TD*%
%TA.AperFunction,SMDPad,CuDef*%
%ADD21RoundRect,0.140000X0.170000X-0.140000X0.170000X0.140000X-0.170000X0.140000X-0.170000X-0.140000X0*%
%TD*%
%TA.AperFunction,SMDPad,CuDef*%
%ADD22RoundRect,0.100000X0.100000X-0.130000X0.100000X0.130000X-0.100000X0.130000X-0.100000X-0.130000X0*%
%TD*%
%TA.AperFunction,SMDPad,CuDef*%
%ADD23Outline5P,-0.387500X0.337500X0.387500X0.337500X0.387500X-0.202500X0.252500X-0.337500X-0.387500X-0.337500X0.000000*%
%TD*%
%TA.AperFunction,SMDPad,CuDef*%
%ADD24RoundRect,0.020250X-0.367250X-0.317250X0.367250X-0.317250X0.367250X0.317250X-0.367250X0.317250X0*%
%TD*%
%TA.AperFunction,SMDPad,CuDef*%
%ADD25RoundRect,0.036000X-0.264000X0.084000X-0.264000X-0.084000X0.264000X-0.084000X0.264000X0.084000X0*%
%TD*%
%TA.AperFunction,SMDPad,CuDef*%
%ADD26RoundRect,0.036000X0.084000X0.264000X-0.084000X0.264000X-0.084000X-0.264000X0.084000X-0.264000X0*%
%TD*%
%TA.AperFunction,SMDPad,CuDef*%
%ADD27RoundRect,0.036000X-0.084000X-0.264000X0.084000X-0.264000X0.084000X0.264000X-0.084000X0.264000X0*%
%TD*%
%TA.AperFunction,SMDPad,CuDef*%
%ADD28RoundRect,0.062000X-1.488000X-1.488000X1.488000X-1.488000X1.488000X1.488000X-1.488000X1.488000X0*%
%TD*%
%TA.AperFunction,SMDPad,CuDef*%
%ADD29RoundRect,0.250000X1.075000X-0.375000X1.075000X0.375000X-1.075000X0.375000X-1.075000X-0.375000X0*%
%TD*%
%TA.AperFunction,ViaPad*%
%ADD30C,0.250000*%
%TD*%
%TA.AperFunction,ViaPad*%
%ADD31C,0.300000*%
%TD*%
%TA.AperFunction,Conductor*%
%ADD32C,0.200000*%
%TD*%
%TA.AperFunction,Conductor*%
%ADD33C,0.150000*%
%TD*%
%TA.AperFunction,Conductor*%
%ADD34C,0.100000*%
%TD*%
%TA.AperFunction,Conductor*%
%ADD35C,0.172000*%
%TD*%
%TA.AperFunction,Conductor*%
%ADD36C,0.300000*%
%TD*%
G04 APERTURE END LIST*
D10*
%TO.P,TP2,1,1*%
%TO.N,/Neuropixels 2.0/NP_{TP0}*%
X146634999Y-83419999D03*
%TD*%
%TO.P,TP1,1,1*%
%TO.N,GND*%
X144954999Y-83419999D03*
%TD*%
D11*
%TO.P,J4,1,Pin_1*%
%TO.N,+4V*%
X123080000Y-76447500D03*
D12*
%TO.P,J4,2,Pin_2*%
X123080000Y-78987500D03*
%TO.P,J4,3,Pin_3*%
%TO.N,/Neuropixels 2.0/SCL*%
X120540000Y-76447500D03*
%TO.P,J4,4,Pin_4*%
X120540000Y-78987500D03*
%TO.P,J4,5,Pin_5*%
%TO.N,/Neuropixels 2.0/SDA*%
X118000000Y-76447500D03*
%TO.P,J4,6,Pin_6*%
X118000000Y-78987500D03*
%TO.P,J4,7,Pin_7*%
%TO.N,GND*%
X115460000Y-76447500D03*
%TO.P,J4,8,Pin_8*%
X115460000Y-78987500D03*
%TO.P,J4,9,Pin_9*%
X112920000Y-76447500D03*
%TO.P,J4,10,Pin_10*%
X112920000Y-78987500D03*
%TD*%
D13*
%TO.P,L2,1,1*%
%TO.N,/DC Tap & Regulation/RF+DC*%
X143450000Y-82900000D03*
%TO.P,L2,2,2*%
%TO.N,Net-(L1-Pad2)*%
X141325000Y-82900000D03*
%TD*%
D14*
%TO.P,J3,1,Pin_1*%
%TO.N,GND*%
X146325000Y-95625000D03*
%TO.P,J3,2,Pin_2*%
%TO.N,/Neuropixels 2.0/SDA_{B}*%
X146025000Y-93155000D03*
%TO.P,J3,3,Pin_3*%
%TO.N,/Neuropixels 2.0/NP_{~{RST}}*%
X145725000Y-95625000D03*
%TO.P,J3,4,Pin_4*%
%TO.N,/Neuropixels 2.0/SCL*%
X145425000Y-93155000D03*
%TO.P,J3,5,Pin_5*%
%TO.N,/Neuropixels 2.0/NP_{~{MUXRST}}*%
X145125000Y-95625000D03*
%TO.P,J3,6,Pin_6*%
%TO.N,/Neuropixels 2.0/D0*%
X144825000Y-93155000D03*
%TO.P,J3,7,Pin_7*%
%TO.N,GND*%
X144525000Y-95625000D03*
%TO.P,J3,8,Pin_8*%
%TO.N,/Neuropixels 2.0/D1*%
X144225000Y-93155000D03*
%TO.P,J3,9,Pin_9*%
%TO.N,GND*%
X143925000Y-95625000D03*
%TO.P,J3,10,Pin_10*%
%TO.N,/Neuropixels 2.0/D2*%
X143625000Y-93155000D03*
%TO.P,J3,11,Pin_11*%
%TO.N,+1.8VA*%
X143325000Y-95625000D03*
%TO.P,J3,12,Pin_12*%
%TO.N,/Neuropixels 2.0/D3*%
X143025000Y-93155000D03*
%TO.P,J3,13,Pin_13*%
%TO.N,GND*%
X142725000Y-95625000D03*
%TO.P,J3,14,Pin_14*%
%TO.N,/Neuropixels 2.0/PCLK*%
X142425000Y-93155000D03*
%TO.P,J3,15,Pin_15*%
%TO.N,GND*%
X142125000Y-95625000D03*
%TO.P,J3,16,Pin_16*%
%TO.N,/Neuropixels 2.0/D4*%
X141825000Y-93155000D03*
%TO.P,J3,17,Pin_17*%
%TO.N,+1.8VA*%
X141525000Y-95625000D03*
%TO.P,J3,18,Pin_18*%
%TO.N,/Neuropixels 2.0/D5*%
X141225000Y-93155000D03*
%TO.P,J3,19,Pin_19*%
%TO.N,GND*%
X140925000Y-95625000D03*
%TO.P,J3,20,Pin_20*%
%TO.N,/Neuropixels 2.0/D6*%
X140625000Y-93155000D03*
%TO.P,J3,21,Pin_21*%
%TO.N,GND*%
X140325000Y-95625000D03*
%TO.P,J3,22,Pin_22*%
%TO.N,/Neuropixels 2.0/D7*%
X140025000Y-93155000D03*
%TO.P,J3,23,Pin_23*%
%TO.N,/Neuropixels 2.0/NP_{~{MUXRST}}*%
X139725000Y-95625000D03*
%TO.P,J3,24,Pin_24*%
%TO.N,/Neuropixels 2.0/NP_{TP1}*%
X139425000Y-93155000D03*
%TO.P,J3,25,Pin_25*%
%TO.N,/Neuropixels 2.0/NP_{~{RST}}*%
X139125000Y-95625000D03*
%TO.P,J3,26,Pin_26*%
%TO.N,GND*%
X138825000Y-93155000D03*
%TO.P,J3,27,Pin_27*%
%TO.N,/Neuropixels 2.0/NP_{TP0}*%
X138525000Y-95625000D03*
D15*
%TO.P,J3,MP,MountPin*%
%TO.N,GND*%
X147060000Y-95580000D03*
X137790000Y-95580000D03*
%TD*%
D16*
%TO.P,U6,A1,VCC*%
%TO.N,+1V8*%
X145503000Y-85377500D03*
%TO.P,U6,A3,VSS*%
%TO.N,GND*%
X145103000Y-85377500D03*
%TO.P,U6,B2,SDA*%
%TO.N,/Neuropixels 2.0/SDA*%
X145303000Y-85724000D03*
%TO.P,U6,C1,~{WC}*%
%TO.N,GND*%
X145503000Y-86070500D03*
%TO.P,U6,C3,SCL*%
%TO.N,/Neuropixels 2.0/SCL*%
X145103000Y-86070500D03*
%TD*%
D17*
%TO.P,C25,2*%
%TO.N,+1V8*%
X146340000Y-86120000D03*
%TO.P,C25,1*%
%TO.N,GND*%
X146340000Y-85480000D03*
%TD*%
D18*
%TO.P,U2,A1,VIN*%
%TO.N,+2V5*%
X138570000Y-91025000D03*
%TO.P,U2,A2,VOUT*%
%TO.N,+1.8VA*%
X138570000Y-91375000D03*
%TO.P,U2,B1,EN*%
%TO.N,+1V8*%
X138920000Y-91025000D03*
%TO.P,U2,B2,GND*%
%TO.N,GND*%
X138920000Y-91375000D03*
%TD*%
D19*
%TO.P,R5,1*%
%TO.N,+1V8*%
X138055000Y-86900000D03*
%TO.P,R5,2*%
%TO.N,Net-(U3-PDB)*%
X138695000Y-86900000D03*
%TD*%
D20*
%TO.P,C28,1*%
%TO.N,GND*%
X140065000Y-92300000D03*
%TO.P,C28,2*%
%TO.N,Net-(U7-CAP)*%
X139425000Y-92300000D03*
%TD*%
D21*
%TO.P,C12,1*%
%TO.N,Net-(#FLG03-pwr)*%
X141925000Y-85980000D03*
%TO.P,C12,2*%
%TO.N,GND*%
X141925000Y-85020000D03*
%TD*%
D22*
%TO.P,C11,1*%
%TO.N,Net-(#FLG03-pwr)*%
X143475000Y-86040000D03*
%TO.P,C11,2*%
%TO.N,GND*%
X143475000Y-85400000D03*
%TD*%
%TO.P,R11,1*%
%TO.N,+1.8VA*%
X140165000Y-91570000D03*
%TO.P,R11,2*%
%TO.N,/Neuropixels 2.0/SCL*%
X140165000Y-90930000D03*
%TD*%
D17*
%TO.P,L3,1,1*%
%TO.N,Net-(#FLG03-pwr)*%
X141055000Y-85460000D03*
%TO.P,L3,2,2*%
%TO.N,+1V8*%
X141055000Y-86100000D03*
%TD*%
D22*
%TO.P,C4,1*%
%TO.N,+1.8VA*%
X139445000Y-91570000D03*
%TO.P,C4,2*%
%TO.N,GND*%
X139445000Y-90930000D03*
%TD*%
D20*
%TO.P,R12,1*%
%TO.N,Net-(U5-OUT)*%
X140545000Y-89500000D03*
%TO.P,R12,2*%
%TO.N,/Neuropixels 2.0/PCLK*%
X139905000Y-89500000D03*
%TD*%
D19*
%TO.P,C21,1*%
%TO.N,Net-(U3-PDB)*%
X139615000Y-86860000D03*
%TO.P,C21,2*%
%TO.N,GND*%
X140255000Y-86860000D03*
%TD*%
D23*
%TO.P,U5,1,EN*%
%TO.N,+1V8*%
X139187499Y-87712499D03*
D24*
%TO.P,U5,2,GND*%
%TO.N,GND*%
X140462500Y-87712500D03*
%TO.P,U5,3,OUT*%
%TO.N,Net-(U5-OUT)*%
X140462500Y-88687500D03*
%TO.P,U5,4,VCC*%
%TO.N,+1V8*%
X139187500Y-88687500D03*
%TD*%
D22*
%TO.P,C27,1*%
%TO.N,GND*%
X139055000Y-90160000D03*
%TO.P,C27,2*%
%TO.N,+1V8*%
X139055000Y-89520000D03*
%TD*%
D20*
%TO.P,C24,1*%
%TO.N,/Neuropixels 2.0/PCLK*%
X140545000Y-90200000D03*
%TO.P,C24,2*%
%TO.N,GND*%
X139905000Y-90200000D03*
%TD*%
D19*
%TO.P,R2,1*%
%TO.N,Net-(L1-Pad2)*%
X142005000Y-84100000D03*
%TO.P,R2,2*%
%TO.N,/DC Tap & Regulation/RF+DC*%
X142645000Y-84100000D03*
%TD*%
D17*
%TO.P,C5,1*%
%TO.N,+2V5*%
X138045000Y-90880000D03*
%TO.P,C5,2*%
%TO.N,GND*%
X138045000Y-91520000D03*
%TD*%
%TO.P,C26,1*%
%TO.N,GND*%
X138125000Y-89300000D03*
%TO.P,C26,2*%
%TO.N,+2V5*%
X138125000Y-89940000D03*
%TD*%
D22*
%TO.P,C10,1*%
%TO.N,Net-(#FLG03-pwr)*%
X142775000Y-86020000D03*
%TO.P,C10,2*%
%TO.N,GND*%
X142775000Y-85380000D03*
%TD*%
D25*
%TO.P,U3,1,HSYNC*%
%TO.N,unconnected-(U3-HSYNC-Pad1)*%
X141625000Y-91150000D03*
%TO.P,U3,2,VSYNC*%
%TO.N,unconnected-(U3-VSYNC-Pad2)*%
X141625000Y-90650000D03*
%TO.P,U3,3,PCLK*%
%TO.N,/Neuropixels 2.0/PCLK*%
X141625000Y-90150000D03*
%TO.P,U3,4,SCL*%
%TO.N,/Neuropixels 2.0/SCL*%
X141625000Y-89650000D03*
%TO.P,U3,5,SDA*%
%TO.N,/Neuropixels 2.0/SDA*%
X141625000Y-89150000D03*
%TO.P,U3,6,ID[X]*%
%TO.N,GND*%
X141625000Y-88650000D03*
%TO.P,U3,7,RES*%
X141625000Y-88150000D03*
%TO.P,U3,8,MODE*%
%TO.N,Net-(U3-MODE)*%
X141625000Y-87650000D03*
D26*
%TO.P,U3,9,PDB*%
%TO.N,Net-(U3-PDB)*%
X142275000Y-87000000D03*
%TO.P,U3,10,VDDPLL*%
%TO.N,Net-(#FLG03-pwr)*%
X142775000Y-87000000D03*
%TO.P,U3,11,VDDT*%
%TO.N,+1V8*%
X143275000Y-87000000D03*
%TO.P,U3,12,DOUTN*%
%TO.N,Net-(U3-DOUTN)*%
X143775000Y-87000000D03*
%TO.P,U3,13,DOUTP*%
%TO.N,Net-(U3-DOUTP)*%
X144275000Y-87000000D03*
%TO.P,U3,14,VDDCML*%
%TO.N,Net-(#FLG04-pwr)*%
X144775000Y-87000000D03*
D27*
%TO.P,U3,15,GPIO0*%
%TO.N,/Neuropixels 2.0/NP_{~{RST}}*%
X145275000Y-87000000D03*
D26*
%TO.P,U3,16,GPIO1*%
%TO.N,/Neuropixels 2.0/NP_{~{MUXRST}}*%
X145775000Y-87000000D03*
D25*
%TO.P,U3,17,GPIO2/CLK0*%
%TO.N,/Neuropixels 2.0/NP_{Select}*%
X146425000Y-87650000D03*
%TO.P,U3,18,GPIO3/CLKIN*%
%TO.N,Net-(U3-GPIO3{slash}CLKIN)*%
X146425000Y-88150000D03*
%TO.P,U3,19,DIN_0*%
%TO.N,/Neuropixels 2.0/D0*%
X146425000Y-88650000D03*
%TO.P,U3,20,DIN_1*%
%TO.N,/Neuropixels 2.0/D1*%
X146425000Y-89150000D03*
%TO.P,U3,21,DIN_2*%
%TO.N,/Neuropixels 2.0/D2*%
X146425000Y-89650000D03*
%TO.P,U3,22,DIN_3*%
%TO.N,/Neuropixels 2.0/D3*%
X146425000Y-90150001D03*
%TO.P,U3,23,DIN_4*%
%TO.N,/Neuropixels 2.0/D4*%
X146425000Y-90650000D03*
%TO.P,U3,24,DIN_5*%
%TO.N,/Neuropixels 2.0/D5*%
X146425000Y-91150000D03*
D26*
%TO.P,U3,25,VDDIO*%
%TO.N,+1V8*%
X145775000Y-91800000D03*
%TO.P,U3,26,DIN_6*%
%TO.N,/Neuropixels 2.0/D6*%
X145275000Y-91800000D03*
%TO.P,U3,27,DIN_7*%
%TO.N,/Neuropixels 2.0/D7*%
X144775000Y-91800000D03*
%TO.P,U3,28,VDDD*%
%TO.N,+1V8*%
X144275000Y-91800000D03*
%TO.P,U3,29,DIN_8*%
%TO.N,unconnected-(U3-DIN_8-Pad29)*%
X143775000Y-91800000D03*
%TO.P,U3,30,DIN_9*%
%TO.N,unconnected-(U3-DIN_9-Pad30)*%
X143275000Y-91800000D03*
%TO.P,U3,31,DIN_10*%
%TO.N,unconnected-(U3-DIN_10-Pad31)*%
X142775000Y-91800000D03*
%TO.P,U3,32,DIN_11*%
%TO.N,unconnected-(U3-DIN_11-Pad32)*%
X142275000Y-91800000D03*
D28*
%TO.P,U3,33,GND(DAP)*%
%TO.N,GND*%
X144025000Y-89400000D03*
%TD*%
D29*
%TO.P,L1,1,1*%
%TO.N,+4V*%
X139025000Y-85600000D03*
%TO.P,L1,2,2*%
%TO.N,Net-(L1-Pad2)*%
X139025000Y-82800000D03*
%TD*%
D22*
%TO.P,C23,1*%
%TO.N,+1V8*%
X138145000Y-88490000D03*
%TO.P,C23,2*%
%TO.N,GND*%
X138145000Y-87850000D03*
%TD*%
%TO.P,C20,1*%
%TO.N,Net-(U3-DOUTN)*%
X144325000Y-86020000D03*
%TO.P,C20,2*%
%TO.N,/Serializer/Dout-*%
X144325000Y-85380000D03*
%TD*%
D30*
%TO.N,GND*%
X143636000Y-83830000D03*
X147064500Y-85492000D03*
%TO.N,Net-(U3-DOUTP)*%
X144610474Y-86416271D03*
%TO.N,GND*%
X142238584Y-85504971D03*
X140869000Y-90928000D03*
X145953000Y-93861000D03*
%TO.N,/Neuropixels 2.0/SDA*%
X145162623Y-91188377D03*
%TO.N,/Neuropixels 2.0/SDA_{B}*%
X146544000Y-93341000D03*
%TO.N,/Neuropixels 2.0/NP_{TP1}*%
X145417601Y-93890601D03*
%TO.N,/Neuropixels 2.0/SCL*%
X141846000Y-89545500D03*
%TO.N,GND*%
X139395000Y-83656000D03*
X138859000Y-83670000D03*
X146329500Y-85430109D03*
X137890500Y-88930000D03*
X142125000Y-95650000D03*
X142725000Y-94725500D03*
D31*
X156300000Y-121900000D03*
D30*
X142040000Y-94725500D03*
X139816562Y-87440904D03*
X139800000Y-88025498D03*
X145475000Y-87550000D03*
X143970000Y-94720000D03*
X139445000Y-90900000D03*
D31*
X139900000Y-106500000D03*
D30*
X143960000Y-88180000D03*
X142525000Y-82475000D03*
X137915500Y-87943311D03*
X139470000Y-89250000D03*
D31*
X135640000Y-73600000D03*
D30*
X144458000Y-90722000D03*
X143050000Y-84559500D03*
X137790000Y-95590000D03*
X147060000Y-95590000D03*
X141530000Y-93780000D03*
X140033000Y-83672000D03*
X144880000Y-94720000D03*
X145765000Y-84891000D03*
X143152225Y-85674051D03*
X144755000Y-88270000D03*
X138360000Y-91900000D03*
X139025000Y-90250000D03*
X141610000Y-88040000D03*
X144465000Y-89370000D03*
X144525000Y-95650000D03*
X143025000Y-90500000D03*
X143925000Y-95650000D03*
X139620000Y-94750000D03*
X139150000Y-86900000D03*
X140925000Y-95650000D03*
X140111601Y-92511601D03*
X142019000Y-82599300D03*
X143845000Y-93830000D03*
X140310000Y-93780000D03*
X137880000Y-89500000D03*
X137810700Y-83680000D03*
X139925000Y-90200000D03*
X144755000Y-88610000D03*
X140325000Y-95650000D03*
X138525000Y-94750000D03*
D31*
X126680000Y-71747500D03*
X156700000Y-69100000D03*
X155800000Y-87500000D03*
D30*
X141313000Y-84798000D03*
X143725000Y-87600000D03*
X144565000Y-93780000D03*
X144815000Y-90110000D03*
X142775000Y-85400000D03*
X141395000Y-84090000D03*
X140450500Y-87830000D03*
X147070000Y-94510000D03*
X143285000Y-88250000D03*
X144385000Y-87530000D03*
X147067500Y-86488000D03*
D31*
X107600000Y-104500000D03*
X103100000Y-122100000D03*
D30*
X142264000Y-93877000D03*
X139463000Y-89867000D03*
X143000000Y-91244500D03*
X140880000Y-94720000D03*
X143385000Y-88770000D03*
X144909000Y-84978000D03*
X139020000Y-94380000D03*
D31*
X105450000Y-70470000D03*
D30*
X142725000Y-95650000D03*
X137955000Y-94170000D03*
X142355000Y-91170000D03*
D31*
X145200000Y-72300000D03*
D30*
X137975000Y-87440000D03*
D31*
X154200000Y-101500000D03*
D30*
X141625000Y-87249500D03*
D31*
X103900000Y-84800000D03*
X130200000Y-99700000D03*
D30*
X141925000Y-85020000D03*
X137764181Y-91279454D03*
X137947000Y-93305000D03*
X139859264Y-86450000D03*
%TO.N,+1V8*%
X139435000Y-84730000D03*
X139025000Y-89250000D03*
X146390891Y-86253101D03*
X138636680Y-88080474D03*
X144248000Y-91774000D03*
X143157963Y-86612963D03*
X140775000Y-86900000D03*
X146425000Y-86940000D03*
X145957485Y-89396611D03*
X139017000Y-90668000D03*
%TO.N,/Neuropixels 2.0/PCLK*%
X141580000Y-90270000D03*
X142425000Y-93150000D03*
%TO.N,/Neuropixels 2.0/SDA_{A}*%
X138980000Y-92530000D03*
X141070000Y-89460000D03*
%TO.N,+4V*%
X138640419Y-85475200D03*
X138124999Y-85890001D03*
D31*
X120200000Y-94945000D03*
D30*
X138355000Y-84600000D03*
D31*
%TO.N,/Neuropixels 2.0/SCL*%
X118000000Y-97340000D03*
D30*
X140165000Y-90820000D03*
X145087061Y-86139374D03*
X138735000Y-84740000D03*
X139642609Y-93772609D03*
X140890500Y-89857389D03*
%TO.N,/Neuropixels 2.0/D7*%
X144039000Y-91196000D03*
X140025000Y-93150000D03*
%TO.N,Net-(L1-Pad2)*%
X137921788Y-84655700D03*
%TO.N,/Neuropixels 2.0/D6*%
X144657623Y-91183377D03*
X140625000Y-93150000D03*
%TO.N,/Neuropixels 2.0/D5*%
X141225000Y-93150000D03*
X145581000Y-91166314D03*
%TO.N,/Neuropixels 2.0/D4*%
X141825000Y-93150000D03*
X145855500Y-90672278D03*
%TO.N,/Neuropixels 2.0/D3*%
X143025000Y-93150000D03*
X145945500Y-89880356D03*
%TO.N,/Neuropixels 2.0/D2*%
X146316587Y-89669500D03*
X143625000Y-93150000D03*
%TO.N,/Neuropixels 2.0/D1*%
X146450500Y-89020000D03*
X144225000Y-93150000D03*
%TO.N,/Neuropixels 2.0/D0*%
X146558524Y-88558259D03*
X144834000Y-93406000D03*
%TO.N,/DC Tap & Regulation/RF+DC*%
X142525000Y-84475000D03*
%TO.N,/Neuropixels 2.0/NP_{TP0}*%
X138875000Y-94980000D03*
X146460000Y-95000000D03*
%TO.N,/Neuropixels 2.0/SDA*%
X142220000Y-90550000D03*
X143175250Y-87580000D03*
X142169964Y-88035277D03*
X139085000Y-84730000D03*
D31*
X123200000Y-92000000D03*
D30*
X145033000Y-85713000D03*
D31*
X125255000Y-96035000D03*
D30*
%TO.N,Net-(#FLG04-pwr)*%
X144809500Y-87580498D03*
%TO.N,/Neuropixels 2.0/NP_{Select}*%
X145801000Y-89004500D03*
X146074000Y-87516000D03*
%TO.N,+2V5*%
X140375000Y-86400000D03*
X140893349Y-84655502D03*
X140610000Y-82204300D03*
X138215000Y-89990000D03*
%TO.N,Net-(U7-CAP)*%
X139440000Y-92527000D03*
%TO.N,Net-(U3-GPIO3{slash}CLKIN)*%
X145893368Y-86146332D03*
X145799500Y-87935500D03*
%TO.N,Net-(U3-MODE)*%
X141477000Y-87650000D03*
%TO.N,+1.8VA*%
X141525000Y-95650000D03*
X138573327Y-91366735D03*
X143325000Y-95650000D03*
%TO.N,/Serializer/Dout-*%
X144025000Y-85380000D03*
%TO.N,/Neuropixels 2.0/NP_{~{RST}}*%
X145725000Y-95650000D03*
X139125000Y-95650000D03*
X145675000Y-95046446D03*
%TO.N,/Neuropixels 2.0/NP_{~{MUXRST}}*%
X139725000Y-95650000D03*
X145125000Y-95650000D03*
%TD*%
D32*
%TO.N,+1V8*%
X145774999Y-92170001D02*
X145774999Y-91800000D01*
X145623000Y-92322000D02*
X145774999Y-92170001D01*
X144397000Y-92322000D02*
X145623000Y-92322000D01*
X144275000Y-92200000D02*
X144397000Y-92322000D01*
X144275000Y-91800000D02*
X144275000Y-92200000D01*
X145777500Y-85377500D02*
X145503000Y-85377500D01*
X146105000Y-85050000D02*
X145777500Y-85377500D01*
X146740000Y-85734264D02*
X146740000Y-85183000D01*
X146740000Y-85183000D02*
X146607000Y-85050000D01*
X146390891Y-86083373D02*
X146740000Y-85734264D01*
X146607000Y-85050000D02*
X146105000Y-85050000D01*
X146390891Y-86253101D02*
X146390891Y-86083373D01*
D33*
%TO.N,GND*%
X146211891Y-85430109D02*
X145972500Y-85669500D01*
X146329500Y-85430109D02*
X146211891Y-85430109D01*
D32*
%TO.N,+1V8*%
X146434268Y-86209724D02*
X146434268Y-86129268D01*
X146390891Y-86253101D02*
X146434268Y-86209724D01*
D34*
%TO.N,/Neuropixels 2.0/SDA*%
X145292000Y-85713000D02*
X145303000Y-85724000D01*
X145033000Y-85713000D02*
X145292000Y-85713000D01*
%TO.N,/Neuropixels 2.0/NP_{~{RST}}*%
X145275000Y-86700000D02*
X145275000Y-87000000D01*
X147138000Y-87193000D02*
X146495000Y-86550000D01*
X146495000Y-86550000D02*
X145425000Y-86550000D01*
X147138000Y-87365157D02*
X147138000Y-87193000D01*
X145425000Y-86550000D02*
X145275000Y-86700000D01*
X147144000Y-87371157D02*
X147138000Y-87365157D01*
X146003554Y-95046446D02*
X147144000Y-93906000D01*
X147144000Y-93906000D02*
X147144000Y-87371157D01*
X145675000Y-95046446D02*
X146003554Y-95046446D01*
%TO.N,/Neuropixels 2.0/NP_{~{MUXRST}}*%
X145960000Y-87000000D02*
X145775000Y-87000000D01*
X146172410Y-87212410D02*
X145960000Y-87000000D01*
X146238532Y-87212410D02*
X146172410Y-87212410D01*
X146256122Y-87230000D02*
X146238532Y-87212410D01*
X146944000Y-87454000D02*
X146720000Y-87230000D01*
X146720000Y-87230000D02*
X146256122Y-87230000D01*
X145970000Y-94720000D02*
X146944000Y-93746000D01*
X146944000Y-93746000D02*
X146944000Y-87454000D01*
X145480000Y-94720000D02*
X145970000Y-94720000D01*
X145125000Y-95075000D02*
X145480000Y-94720000D01*
X145125000Y-95100000D02*
X145125000Y-95075000D01*
D35*
%TO.N,Net-(U3-DOUTN)*%
X144150000Y-86020000D02*
X144325000Y-86020000D01*
X143775000Y-86395000D02*
X144150000Y-86020000D01*
X143775000Y-87000000D02*
X143775000Y-86395000D01*
D32*
%TO.N,Net-(#FLG04-pwr)*%
X144774998Y-87545996D02*
X144774998Y-87000000D01*
X144809500Y-87580498D02*
X144774998Y-87545996D01*
D35*
%TO.N,Net-(U3-DOUTP)*%
X144610474Y-86416271D02*
X144275000Y-86751745D01*
X144275000Y-86751745D02*
X144275000Y-87000000D01*
D34*
%TO.N,GND*%
X137512157Y-86977157D02*
X137975000Y-87440000D01*
X137512157Y-85255157D02*
X137512157Y-86977157D01*
X137364132Y-85107132D02*
X137512157Y-85255157D01*
X137251898Y-85184601D02*
X137364132Y-85107132D01*
X137081865Y-85205246D02*
X137251898Y-85184601D01*
X135267859Y-85087303D02*
X136871034Y-85087303D01*
X136921713Y-85144509D02*
X137081865Y-85205246D01*
X135126898Y-85184601D02*
X135267859Y-85087303D01*
X134890806Y-85180194D02*
X134956865Y-85205246D01*
X134600000Y-85471000D02*
X134890806Y-85180194D01*
X134956865Y-85205246D02*
X135126898Y-85184601D01*
X134600000Y-85750000D02*
X134600000Y-85471000D01*
X136871034Y-85087303D02*
X136921713Y-85144509D01*
D32*
X134077000Y-85750000D02*
X133438000Y-86389000D01*
X134362843Y-85750000D02*
X134077000Y-85750000D01*
D34*
%TO.N,/Neuropixels 2.0/D7*%
X144774998Y-91688954D02*
X144774998Y-91800000D01*
X144436044Y-91350000D02*
X144774998Y-91688954D01*
X144193000Y-91350000D02*
X144436044Y-91350000D01*
X144039000Y-91196000D02*
X144193000Y-91350000D01*
%TO.N,/Neuropixels 2.0/D6*%
X145275000Y-91688956D02*
X145275000Y-91800000D01*
X144936044Y-91350000D02*
X145275000Y-91688956D01*
X144825000Y-91350000D02*
X144936044Y-91350000D01*
X144658377Y-91183377D02*
X144825000Y-91350000D01*
X144657623Y-91183377D02*
X144658377Y-91183377D01*
%TO.N,/Neuropixels 2.0/D5*%
X146213000Y-91150000D02*
X146425000Y-91150000D01*
X146050000Y-90987000D02*
X146213000Y-91150000D01*
X145581000Y-91163000D02*
X145757000Y-90987000D01*
X145757000Y-90987000D02*
X146050000Y-90987000D01*
X145581000Y-91166314D02*
X145581000Y-91163000D01*
%TO.N,/Neuropixels 2.0/SDA_{B}*%
X146544000Y-93341000D02*
X146358000Y-93155000D01*
X146358000Y-93155000D02*
X146025000Y-93155000D01*
D32*
%TO.N,+1.8VA*%
X139335000Y-91680000D02*
X139445000Y-91570000D01*
X138733579Y-91680000D02*
X139335000Y-91680000D01*
X138573327Y-91366735D02*
X138573327Y-91519748D01*
X138573327Y-91519748D02*
X138733579Y-91680000D01*
D34*
%TO.N,+1V8*%
X139017000Y-90928000D02*
X138920000Y-91025000D01*
X139017000Y-90668000D02*
X139017000Y-90928000D01*
%TO.N,/Neuropixels 2.0/D3*%
X146215145Y-90150001D02*
X146425000Y-90150001D01*
X145945500Y-89880356D02*
X146215145Y-90150001D01*
%TO.N,/Neuropixels 2.0/D4*%
X145877778Y-90650000D02*
X146425000Y-90650000D01*
X145855500Y-90672278D02*
X145877778Y-90650000D01*
%TO.N,/Neuropixels 2.0/NP_{TP1}*%
X139300000Y-93280000D02*
X139425000Y-93155000D01*
X139300000Y-94105000D02*
X139300000Y-93280000D01*
X139630000Y-94435000D02*
X139300000Y-94105000D01*
X145417601Y-93890601D02*
X144873202Y-94435000D01*
X144873202Y-94435000D02*
X139630000Y-94435000D01*
%TO.N,/Neuropixels 2.0/SCL*%
X145425000Y-93495000D02*
X145425000Y-93150000D01*
X144740000Y-94180000D02*
X145425000Y-93495000D01*
X140050000Y-94180000D02*
X144740000Y-94180000D01*
X139642609Y-93772609D02*
X140050000Y-94180000D01*
%TO.N,/Neuropixels 2.0/NP_{Select}*%
X146074000Y-87516000D02*
X146208000Y-87650000D01*
X146208000Y-87650000D02*
X146425000Y-87650000D01*
%TO.N,Net-(U3-GPIO3{slash}CLKIN)*%
X146014000Y-88150000D02*
X146425000Y-88150000D01*
X145799500Y-87935500D02*
X146014000Y-88150000D01*
%TO.N,/Neuropixels 2.0/SCL*%
X141741500Y-89650000D02*
X141625000Y-89650000D01*
X141846000Y-89545500D02*
X141741500Y-89650000D01*
D33*
%TO.N,GND*%
X139014485Y-91375000D02*
X138920000Y-91375000D01*
X139020000Y-94380000D02*
X138825000Y-94185000D01*
X139445000Y-90930000D02*
X139445000Y-90944485D01*
X139445000Y-90944485D02*
X139014485Y-91375000D01*
D32*
X134362843Y-85750000D02*
X134600000Y-85750000D01*
D33*
X138825000Y-94185000D02*
X138825000Y-93150000D01*
D32*
X139859264Y-86450000D02*
X140255000Y-86845736D01*
X140255000Y-86845736D02*
X140255000Y-86860000D01*
D34*
%TO.N,+1V8*%
X138375000Y-87403554D02*
X138375000Y-87220000D01*
D32*
X139025000Y-89580000D02*
X139025000Y-89250000D01*
X141055000Y-86620000D02*
X140775000Y-86900000D01*
X138615000Y-88102154D02*
X138615000Y-88490000D01*
X138145000Y-88490000D02*
X138615000Y-88490000D01*
D34*
X139100000Y-87725000D02*
X139100000Y-88625000D01*
D32*
X138800000Y-88675000D02*
X139050000Y-88675000D01*
D34*
X139100000Y-87725000D02*
X138696446Y-87725000D01*
D32*
X143274999Y-87000000D02*
X143274999Y-86729999D01*
D34*
X139100000Y-88625000D02*
X139050000Y-88675000D01*
X138375000Y-87220000D02*
X138055000Y-86900000D01*
D32*
X141055000Y-86100000D02*
X141055000Y-86620000D01*
X143274999Y-86729999D02*
X143157963Y-86612963D01*
X138636680Y-88080474D02*
X138615000Y-88102154D01*
X138615000Y-88490000D02*
X138800000Y-88675000D01*
D34*
X138696446Y-87725000D02*
X138375000Y-87403554D01*
%TO.N,/Neuropixels 2.0/PCLK*%
X139905000Y-89500000D02*
X139905000Y-89560000D01*
X139905000Y-89560000D02*
X140545000Y-90200000D01*
X141510000Y-90200000D02*
X140545000Y-90200000D01*
X141580000Y-90270000D02*
X141510000Y-90200000D01*
D32*
%TO.N,+4V*%
X138355000Y-85189781D02*
X138640419Y-85475200D01*
D36*
X123080000Y-76447500D02*
X123080000Y-78987500D01*
X128396250Y-84303750D02*
X128492500Y-84400000D01*
X128396250Y-84303750D02*
X123080000Y-78987500D01*
D34*
X136746095Y-84700000D02*
X135450000Y-84700000D01*
X136921848Y-84524247D02*
X136746095Y-84700000D01*
X138640419Y-85475200D02*
X138279105Y-85475200D01*
X137125000Y-84488443D02*
X136968126Y-84524247D01*
X135450000Y-84700000D02*
X135150000Y-84400000D01*
D36*
X120200000Y-94945000D02*
X121900000Y-94945000D01*
X121900000Y-94945000D02*
X128954058Y-87890942D01*
D34*
X137292348Y-84488443D02*
X137125000Y-84488443D01*
D32*
X138355000Y-84600000D02*
X138355000Y-85189781D01*
D34*
X138279105Y-85475200D02*
X137292348Y-84488443D01*
X136968126Y-84524247D02*
X136921848Y-84524247D01*
D36*
X128492500Y-84400000D02*
X134500000Y-84400000D01*
X128954058Y-87890942D02*
X128954058Y-84557808D01*
D34*
X135150000Y-84400000D02*
X134500000Y-84400000D01*
%TO.N,/Neuropixels 2.0/SCL*%
X141082611Y-89857389D02*
X141290000Y-89650000D01*
X140165000Y-90820000D02*
X140145000Y-90840000D01*
X141290000Y-89650000D02*
X141625000Y-89650000D01*
X140145000Y-90840000D02*
X140145000Y-90930000D01*
X140890500Y-89857389D02*
X141082611Y-89857389D01*
D32*
%TO.N,Net-(#FLG03-pwr)*%
X142775000Y-86020000D02*
X141965000Y-86020000D01*
X141405000Y-85460000D02*
X141925000Y-85980000D01*
X142775000Y-87000000D02*
X142775000Y-86020000D01*
X143475000Y-86040000D02*
X142795000Y-86040000D01*
X141965000Y-86020000D02*
X141925000Y-85980000D01*
X142795000Y-86040000D02*
X142775000Y-86020000D01*
X141055000Y-85460000D02*
X141405000Y-85460000D01*
D34*
%TO.N,Net-(L1-Pad2)*%
X142005000Y-84100000D02*
X142005000Y-84000000D01*
X138125000Y-84345000D02*
X138125000Y-82790000D01*
X137921788Y-84655700D02*
X137921788Y-84548212D01*
X141325000Y-83320000D02*
X141325000Y-82800000D01*
X142005000Y-84000000D02*
X141325000Y-83320000D01*
X138125000Y-82790000D02*
X138355000Y-82560000D01*
D32*
X141325000Y-82800000D02*
X139025000Y-82800000D01*
D34*
X137921788Y-84548212D02*
X138125000Y-84345000D01*
D32*
%TO.N,/DC Tap & Regulation/RF+DC*%
X143450000Y-82800000D02*
X143450000Y-83295000D01*
X143450000Y-83295000D02*
X142645000Y-84100000D01*
X142525000Y-84475000D02*
X142525000Y-84220000D01*
X142525000Y-84220000D02*
X142645000Y-84100000D01*
D34*
%TO.N,/Neuropixels 2.0/NP_{TP0}*%
X138775000Y-95080000D02*
X138670000Y-95080000D01*
X138525000Y-95225000D02*
X138525000Y-95625000D01*
X138875000Y-94980000D02*
X138775000Y-95080000D01*
X138670000Y-95080000D02*
X138525000Y-95225000D01*
%TO.N,/Neuropixels 2.0/SDA*%
X142220000Y-89450000D02*
X142220000Y-90550000D01*
X141920000Y-89150000D02*
X142220000Y-89450000D01*
X142169964Y-88035277D02*
X142169964Y-88900036D01*
X141920000Y-89150000D02*
X141625000Y-89150000D01*
X142169964Y-88900036D02*
X141920000Y-89150000D01*
D32*
%TO.N,+2V5*%
X138045000Y-90880000D02*
X138215000Y-90710000D01*
X138425000Y-90880000D02*
X138570000Y-91025000D01*
X138215000Y-90710000D02*
X138215000Y-89990000D01*
X138045000Y-90880000D02*
X138425000Y-90880000D01*
D34*
%TO.N,Net-(U3-PDB)*%
X139965000Y-87210000D02*
X141005000Y-87210000D01*
X139380000Y-86625000D02*
X138970000Y-86625000D01*
X139615000Y-86860000D02*
X139965000Y-87210000D01*
X141255000Y-86960000D02*
X142235001Y-86960000D01*
X142235001Y-86960000D02*
X142275001Y-87000000D01*
X139615000Y-86860000D02*
X139380000Y-86625000D01*
X141005000Y-87210000D02*
X141255000Y-86960000D01*
X138970000Y-86625000D02*
X138695000Y-86900000D01*
%TO.N,Net-(U5-OUT)*%
X140545000Y-88770000D02*
X140462500Y-88687500D01*
X140545000Y-89500000D02*
X140545000Y-88770000D01*
%TO.N,+1.8VA*%
X139445000Y-91570000D02*
X140145000Y-91570000D01*
D35*
%TO.N,/Serializer/Dout-*%
X144325000Y-85380000D02*
X144025000Y-85380000D01*
D34*
%TO.N,/Neuropixels 2.0/NP_{~{MUXRST}}*%
X145025000Y-95000000D02*
X145125000Y-95100000D01*
X139725000Y-95650000D02*
X139725000Y-95195000D01*
X139920000Y-95000000D02*
X145025000Y-95000000D01*
X145125000Y-95100000D02*
X145125000Y-95650000D01*
X139725000Y-95195000D02*
X139920000Y-95000000D01*
%TD*%
%TA.AperFunction,Conductor*%
%TO.N,GND*%
G36*
X147394652Y-84440574D02*
G01*
X147404500Y-84470039D01*
X147404500Y-89887082D01*
X147404497Y-89887108D01*
X147404493Y-89887108D01*
X147404493Y-89887133D01*
X147404493Y-89887134D01*
X147404493Y-89982996D01*
X147404493Y-89983007D01*
X147404494Y-89985139D01*
X147404831Y-89987051D01*
X147405000Y-89990925D01*
X147405000Y-92603353D01*
X147404832Y-92607186D01*
X147404499Y-92609076D01*
X147404499Y-92671725D01*
X147404500Y-92671725D01*
X147404500Y-92671727D01*
X147404500Y-94974865D01*
X147392340Y-95007173D01*
X147361897Y-95023446D01*
X147328278Y-95015608D01*
X147298637Y-94995804D01*
X147289890Y-94992181D01*
X147256154Y-94985470D01*
X147251379Y-94985000D01*
X147144747Y-94985000D01*
X147137854Y-94987854D01*
X147135000Y-94994747D01*
X147135000Y-95606000D01*
X147120648Y-95640648D01*
X147086000Y-95655000D01*
X146749748Y-95655000D01*
X146742855Y-95657854D01*
X146740001Y-95664747D01*
X146740001Y-96030500D01*
X146725649Y-96065148D01*
X146691001Y-96079500D01*
X146643290Y-96079500D01*
X146617414Y-96072110D01*
X146599342Y-96052170D01*
X146594526Y-96025693D01*
X146595000Y-96020884D01*
X146595000Y-95709747D01*
X146592145Y-95702854D01*
X146585253Y-95700000D01*
X146299000Y-95700000D01*
X146264352Y-95685648D01*
X146250000Y-95651000D01*
X146250000Y-95599000D01*
X146264352Y-95564352D01*
X146299000Y-95550000D01*
X146585252Y-95550000D01*
X146592144Y-95547145D01*
X146594999Y-95540253D01*
X146594999Y-95229107D01*
X146594530Y-95224344D01*
X146593363Y-95218478D01*
X146596151Y-95190165D01*
X146614197Y-95168175D01*
X146622577Y-95162577D01*
X146650258Y-95121148D01*
X146674492Y-95102236D01*
X146705224Y-95101482D01*
X146730357Y-95119183D01*
X146740000Y-95148372D01*
X146740000Y-95495253D01*
X146742854Y-95502145D01*
X146749747Y-95505000D01*
X146975253Y-95505000D01*
X146982145Y-95502145D01*
X146985000Y-95495253D01*
X146985000Y-94994748D01*
X146982145Y-94987855D01*
X146975253Y-94985001D01*
X146868616Y-94985001D01*
X146863855Y-94985469D01*
X146830108Y-94992181D01*
X146821362Y-94995804D01*
X146783075Y-95021385D01*
X146772970Y-95031491D01*
X146771610Y-95030131D01*
X146754474Y-95043498D01*
X146723746Y-95044247D01*
X146698618Y-95026545D01*
X146689892Y-95000129D01*
X146689918Y-95000000D01*
X146672417Y-94912014D01*
X146622577Y-94837423D01*
X146554029Y-94791620D01*
X146535983Y-94769632D01*
X146533195Y-94741321D01*
X146546603Y-94716234D01*
X147264430Y-93998409D01*
X147278935Y-93983904D01*
X147282573Y-93970321D01*
X147287467Y-93958505D01*
X147294500Y-93946327D01*
X147294500Y-93865674D01*
X147294500Y-87351343D01*
X147294500Y-87330830D01*
X147291275Y-87325244D01*
X147290170Y-87321120D01*
X147288500Y-87308438D01*
X147288500Y-87159124D01*
X147288500Y-87152673D01*
X147281469Y-87140497D01*
X147276573Y-87128676D01*
X147272935Y-87115096D01*
X147268376Y-87110537D01*
X147268375Y-87110535D01*
X147215905Y-87058065D01*
X147215903Y-87058064D01*
X146600105Y-86442266D01*
X146585989Y-86412420D01*
X146594010Y-86380396D01*
X146628867Y-86328231D01*
X146640500Y-86269748D01*
X146640500Y-86137609D01*
X146654852Y-86102961D01*
X146751329Y-86006484D01*
X146851802Y-85906010D01*
X146858965Y-85900929D01*
X146858933Y-85900889D01*
X146863246Y-85897448D01*
X146868224Y-85895052D01*
X146888029Y-85870215D01*
X146891667Y-85866146D01*
X146897749Y-85860065D01*
X146902316Y-85852795D01*
X146905489Y-85848323D01*
X146925290Y-85823495D01*
X146926519Y-85818108D01*
X146928914Y-85813136D01*
X146928961Y-85813158D01*
X146929402Y-85812093D01*
X146929354Y-85812076D01*
X146931178Y-85806862D01*
X146934116Y-85802188D01*
X146937672Y-85770620D01*
X146938588Y-85765225D01*
X146940500Y-85756854D01*
X146940500Y-85748277D01*
X146940808Y-85742791D01*
X146943745Y-85716724D01*
X146943744Y-85716723D01*
X146944363Y-85711238D01*
X146942539Y-85706025D01*
X146941921Y-85700542D01*
X146941971Y-85700536D01*
X146940500Y-85691874D01*
X146940500Y-85225388D01*
X146941971Y-85216728D01*
X146941920Y-85216723D01*
X146942537Y-85211239D01*
X146944362Y-85206026D01*
X146940807Y-85174481D01*
X146940500Y-85168996D01*
X146940500Y-85163165D01*
X146940500Y-85160410D01*
X146938588Y-85152038D01*
X146937669Y-85146624D01*
X146937353Y-85143815D01*
X146934115Y-85115076D01*
X146931174Y-85110397D01*
X146929353Y-85105191D01*
X146929402Y-85105173D01*
X146928960Y-85104105D01*
X146928914Y-85104128D01*
X146926518Y-85099153D01*
X146925290Y-85093769D01*
X146905489Y-85068941D01*
X146902309Y-85064458D01*
X146901905Y-85063815D01*
X146897748Y-85057198D01*
X146891680Y-85051130D01*
X146888019Y-85047034D01*
X146883863Y-85041823D01*
X146868224Y-85022212D01*
X146863250Y-85019816D01*
X146858935Y-85016375D01*
X146858966Y-85016335D01*
X146851800Y-85011250D01*
X146778749Y-84938200D01*
X146773666Y-84931035D01*
X146773626Y-84931068D01*
X146770184Y-84926751D01*
X146767788Y-84921776D01*
X146763470Y-84918332D01*
X146763469Y-84918331D01*
X146742964Y-84901979D01*
X146738867Y-84898318D01*
X146734911Y-84894362D01*
X146720593Y-84861546D01*
X146732418Y-84827752D01*
X146764072Y-84811022D01*
X146814255Y-84805368D01*
X146984522Y-84745789D01*
X147137262Y-84649816D01*
X147264816Y-84522262D01*
X147299074Y-84467741D01*
X147314011Y-84443969D01*
X147338026Y-84424261D01*
X147369065Y-84422954D01*
X147394652Y-84440574D01*
G37*
%TD.AperFunction*%
%TA.AperFunction,Conductor*%
G36*
X137528648Y-84937582D02*
G01*
X137619246Y-85028180D01*
X137632930Y-85054763D01*
X137628619Y-85084348D01*
X137616711Y-85108708D01*
X137609427Y-85123607D01*
X137608878Y-85127368D01*
X137608877Y-85127375D01*
X137599756Y-85189982D01*
X137599500Y-85191740D01*
X137599500Y-86008260D01*
X137599756Y-86010017D01*
X137606797Y-86058346D01*
X137609427Y-86076393D01*
X137611097Y-86079809D01*
X137611098Y-86079812D01*
X137622415Y-86102961D01*
X137660802Y-86181483D01*
X137743517Y-86264198D01*
X137848607Y-86315573D01*
X137916740Y-86325500D01*
X137918516Y-86325500D01*
X140100194Y-86325500D01*
X140127417Y-86333758D01*
X140145464Y-86355749D01*
X140148252Y-86384060D01*
X140146023Y-86395265D01*
X140146023Y-86395269D01*
X140145082Y-86400000D01*
X140146023Y-86404731D01*
X140161281Y-86481441D01*
X140158493Y-86509750D01*
X140140448Y-86531740D01*
X140113227Y-86540000D01*
X140105739Y-86540000D01*
X140100978Y-86540469D01*
X140043892Y-86551823D01*
X140035147Y-86555446D01*
X139970400Y-86598708D01*
X139963710Y-86605398D01*
X139962619Y-86607032D01*
X139940628Y-86625078D01*
X139912317Y-86627866D01*
X139889811Y-86615836D01*
X139889552Y-86615448D01*
X139883094Y-86611133D01*
X139827245Y-86573815D01*
X139827244Y-86573814D01*
X139823231Y-86571133D01*
X139818497Y-86570191D01*
X139818494Y-86570190D01*
X139767114Y-86559970D01*
X139767107Y-86559969D01*
X139764748Y-86559500D01*
X139762338Y-86559500D01*
X139547635Y-86559500D01*
X139512987Y-86545148D01*
X139462465Y-86494626D01*
X139462465Y-86494625D01*
X139457904Y-86490065D01*
X139451672Y-86488395D01*
X139444323Y-86486426D01*
X139432506Y-86481531D01*
X139425914Y-86477725D01*
X139425911Y-86477724D01*
X139420327Y-86474500D01*
X139413879Y-86474499D01*
X139413876Y-86474499D01*
X139339679Y-86474499D01*
X139339678Y-86474499D01*
X139339674Y-86474499D01*
X139339672Y-86474499D01*
X139339671Y-86474500D01*
X139010327Y-86474500D01*
X138929673Y-86474500D01*
X138924088Y-86477723D01*
X138924085Y-86477725D01*
X138917492Y-86481532D01*
X138905680Y-86486425D01*
X138902002Y-86487410D01*
X138892096Y-86490065D01*
X138887538Y-86494622D01*
X138887536Y-86494624D01*
X138861195Y-86520965D01*
X138835065Y-86547095D01*
X138835064Y-86547096D01*
X138811028Y-86571133D01*
X138797013Y-86585148D01*
X138781116Y-86595770D01*
X138762364Y-86599500D01*
X138545252Y-86599500D01*
X138542893Y-86599969D01*
X138542885Y-86599970D01*
X138491505Y-86610190D01*
X138491500Y-86610191D01*
X138486769Y-86611133D01*
X138482757Y-86613813D01*
X138482754Y-86613815D01*
X138424459Y-86652767D01*
X138424456Y-86652769D01*
X138420448Y-86655448D01*
X138417769Y-86659456D01*
X138417766Y-86659460D01*
X138415740Y-86662493D01*
X138390749Y-86681667D01*
X138359251Y-86681667D01*
X138334260Y-86662493D01*
X138332233Y-86659460D01*
X138332232Y-86659459D01*
X138329552Y-86655448D01*
X138314324Y-86645273D01*
X138267245Y-86613815D01*
X138267244Y-86613814D01*
X138263231Y-86611133D01*
X138258497Y-86610191D01*
X138258494Y-86610190D01*
X138207114Y-86599970D01*
X138207107Y-86599969D01*
X138204748Y-86599500D01*
X137905252Y-86599500D01*
X137902893Y-86599969D01*
X137902885Y-86599970D01*
X137851505Y-86610190D01*
X137851500Y-86610191D01*
X137846769Y-86611133D01*
X137842757Y-86613813D01*
X137842754Y-86613815D01*
X137784459Y-86652767D01*
X137784456Y-86652769D01*
X137780448Y-86655448D01*
X137777769Y-86659456D01*
X137777767Y-86659459D01*
X137738815Y-86717754D01*
X137738813Y-86717757D01*
X137736133Y-86721769D01*
X137735191Y-86726500D01*
X137735190Y-86726505D01*
X137724970Y-86777885D01*
X137724969Y-86777893D01*
X137724500Y-86780252D01*
X137724500Y-87019748D01*
X137724969Y-87022107D01*
X137724970Y-87022114D01*
X137735190Y-87073494D01*
X137735191Y-87073497D01*
X137736133Y-87078231D01*
X137738814Y-87082244D01*
X137738815Y-87082245D01*
X137774004Y-87134909D01*
X137780448Y-87144552D01*
X137846769Y-87188867D01*
X137905252Y-87200500D01*
X138122365Y-87200500D01*
X138157013Y-87214852D01*
X138210148Y-87267987D01*
X138224500Y-87302635D01*
X138224500Y-87363227D01*
X138224500Y-87443881D01*
X138227724Y-87449465D01*
X138229395Y-87455700D01*
X138228702Y-87455885D01*
X138232143Y-87467226D01*
X138228518Y-87489183D01*
X138220000Y-87509747D01*
X138220000Y-87765253D01*
X138222854Y-87772145D01*
X138229747Y-87775000D01*
X138455252Y-87775000D01*
X138480409Y-87764579D01*
X138508720Y-87761790D01*
X138533809Y-87775201D01*
X138553215Y-87794607D01*
X138566625Y-87819695D01*
X138563837Y-87848006D01*
X138545790Y-87869997D01*
X138514444Y-87890942D01*
X138477519Y-87915615D01*
X138475832Y-87916742D01*
X138448609Y-87925000D01*
X137834748Y-87925000D01*
X137827855Y-87927854D01*
X137825001Y-87934747D01*
X137825001Y-87999263D01*
X137825469Y-88004020D01*
X137836823Y-88061107D01*
X137840446Y-88069852D01*
X137883708Y-88134599D01*
X137890398Y-88141289D01*
X137892029Y-88142379D01*
X137910076Y-88164367D01*
X137912867Y-88192675D01*
X137900838Y-88215187D01*
X137900448Y-88215448D01*
X137897771Y-88219453D01*
X137897770Y-88219455D01*
X137858815Y-88277754D01*
X137858813Y-88277757D01*
X137856133Y-88281769D01*
X137855191Y-88286500D01*
X137855190Y-88286505D01*
X137844970Y-88337885D01*
X137844969Y-88337893D01*
X137844500Y-88340252D01*
X137844500Y-88639748D01*
X137844969Y-88642107D01*
X137844970Y-88642114D01*
X137855190Y-88693494D01*
X137855191Y-88693497D01*
X137856133Y-88698231D01*
X137858814Y-88702244D01*
X137858815Y-88702245D01*
X137890589Y-88749798D01*
X137900448Y-88764552D01*
X137966769Y-88808867D01*
X138025252Y-88820500D01*
X138262338Y-88820500D01*
X138264748Y-88820500D01*
X138323231Y-88808867D01*
X138389552Y-88764552D01*
X138424481Y-88712277D01*
X138442126Y-88696286D01*
X138465224Y-88690500D01*
X138511655Y-88690500D01*
X138530407Y-88694230D01*
X138546302Y-88704851D01*
X138588411Y-88746961D01*
X138628250Y-88786800D01*
X138633335Y-88793966D01*
X138633375Y-88793935D01*
X138636816Y-88798250D01*
X138639212Y-88803224D01*
X138660284Y-88820029D01*
X138664034Y-88823019D01*
X138668131Y-88826681D01*
X138674199Y-88832749D01*
X138676523Y-88834209D01*
X138676529Y-88834214D01*
X138676577Y-88834244D01*
X138676607Y-88834276D01*
X138678682Y-88835931D01*
X138678448Y-88836223D01*
X138693388Y-88852030D01*
X138699500Y-88875729D01*
X138699500Y-89016644D01*
X138699969Y-89019004D01*
X138699970Y-89019009D01*
X138705564Y-89047131D01*
X138705564Y-89047133D01*
X138706506Y-89051864D01*
X138733194Y-89091806D01*
X138773136Y-89118494D01*
X138777872Y-89119436D01*
X138780610Y-89120570D01*
X138805074Y-89142741D01*
X138809920Y-89175400D01*
X138800055Y-89225000D01*
X138795082Y-89250000D01*
X138795715Y-89253185D01*
X138787765Y-89279395D01*
X138768815Y-89307754D01*
X138768813Y-89307756D01*
X138766133Y-89311769D01*
X138765191Y-89316500D01*
X138765190Y-89316505D01*
X138754970Y-89367885D01*
X138754969Y-89367893D01*
X138754500Y-89370252D01*
X138754500Y-89669748D01*
X138754969Y-89672107D01*
X138754970Y-89672114D01*
X138765190Y-89723494D01*
X138765191Y-89723497D01*
X138766133Y-89728231D01*
X138768814Y-89732244D01*
X138768815Y-89732245D01*
X138805575Y-89787260D01*
X138810448Y-89794552D01*
X138810836Y-89794811D01*
X138822866Y-89817317D01*
X138820078Y-89845628D01*
X138802032Y-89867619D01*
X138800398Y-89868710D01*
X138793708Y-89875400D01*
X138750445Y-89940148D01*
X138746823Y-89948892D01*
X138735470Y-90005967D01*
X138735000Y-90010743D01*
X138735000Y-90075253D01*
X138737854Y-90082145D01*
X138744747Y-90085000D01*
X139365252Y-90085000D01*
X139372144Y-90082145D01*
X139374999Y-90075253D01*
X139374999Y-90010737D01*
X139374530Y-90005979D01*
X139363176Y-89948892D01*
X139359553Y-89940147D01*
X139316291Y-89875400D01*
X139309600Y-89868709D01*
X139307971Y-89867621D01*
X139289921Y-89845629D01*
X139287133Y-89817315D01*
X139299163Y-89794811D01*
X139299552Y-89794552D01*
X139343867Y-89728231D01*
X139355500Y-89669748D01*
X139355500Y-89370252D01*
X139343867Y-89311769D01*
X139299552Y-89245448D01*
X139263906Y-89221629D01*
X139250387Y-89208109D01*
X139243072Y-89190443D01*
X139241802Y-89184055D01*
X139244592Y-89155746D01*
X139262639Y-89133757D01*
X139289861Y-89125500D01*
X139564234Y-89125500D01*
X139566644Y-89125500D01*
X139601864Y-89118494D01*
X139641806Y-89091806D01*
X139668494Y-89051864D01*
X139675500Y-89016644D01*
X139675500Y-88358356D01*
X139668494Y-88323136D01*
X139641806Y-88283194D01*
X139633664Y-88277754D01*
X139605875Y-88259186D01*
X139605874Y-88259185D01*
X139601864Y-88256506D01*
X139597133Y-88255564D01*
X139597131Y-88255564D01*
X139569009Y-88249970D01*
X139569004Y-88249969D01*
X139566644Y-88249500D01*
X139564234Y-88249500D01*
X139299500Y-88249500D01*
X139264852Y-88235148D01*
X139250500Y-88200500D01*
X139250500Y-88199500D01*
X139264852Y-88164852D01*
X139299500Y-88150500D01*
X139447489Y-88150500D01*
X139449898Y-88150500D01*
X139479213Y-88144668D01*
X139504066Y-88128062D01*
X139653064Y-87979063D01*
X139669669Y-87954213D01*
X139675500Y-87924899D01*
X139675499Y-87365102D01*
X139669669Y-87335787D01*
X139647457Y-87302543D01*
X139614213Y-87280331D01*
X139609478Y-87279389D01*
X139587264Y-87274970D01*
X139587259Y-87274969D01*
X139584899Y-87274500D01*
X139582489Y-87274500D01*
X138936602Y-87274500D01*
X138907413Y-87264857D01*
X138889712Y-87239724D01*
X138890466Y-87208992D01*
X138909377Y-87184760D01*
X138969552Y-87144552D01*
X139013867Y-87078231D01*
X139025500Y-87019748D01*
X139025500Y-86824500D01*
X139039852Y-86789852D01*
X139074500Y-86775500D01*
X139235500Y-86775500D01*
X139270148Y-86789852D01*
X139284500Y-86824500D01*
X139284500Y-86979748D01*
X139284969Y-86982107D01*
X139284970Y-86982114D01*
X139295190Y-87033494D01*
X139295191Y-87033497D01*
X139296133Y-87038231D01*
X139298814Y-87042244D01*
X139298815Y-87042245D01*
X139323708Y-87079500D01*
X139340448Y-87104552D01*
X139406769Y-87148867D01*
X139465252Y-87160500D01*
X139682365Y-87160500D01*
X139717013Y-87174852D01*
X139830065Y-87287903D01*
X139830065Y-87287904D01*
X139887096Y-87344935D01*
X139900677Y-87348573D01*
X139912498Y-87353470D01*
X139924673Y-87360500D01*
X139924394Y-87360982D01*
X139944875Y-87374667D01*
X139955000Y-87404496D01*
X139955000Y-88041160D01*
X139955469Y-88045920D01*
X139962195Y-88079739D01*
X139965818Y-88088485D01*
X139967639Y-88091211D01*
X139971926Y-88094729D01*
X139976818Y-88092114D01*
X140427851Y-87641081D01*
X140449817Y-87628399D01*
X140475181Y-87628399D01*
X140497147Y-87641081D01*
X140948180Y-88092114D01*
X140953072Y-88094729D01*
X140957360Y-88091210D01*
X140959181Y-88088485D01*
X140962804Y-88079740D01*
X140969531Y-88045919D01*
X140969999Y-88041162D01*
X140969999Y-87409500D01*
X140976564Y-87385000D01*
X140994499Y-87367065D01*
X141018999Y-87360500D01*
X141038876Y-87360500D01*
X141045327Y-87360500D01*
X141057505Y-87353467D01*
X141069321Y-87348573D01*
X141082904Y-87344935D01*
X141139935Y-87287905D01*
X141139935Y-87287903D01*
X141302986Y-87124852D01*
X141337635Y-87110500D01*
X142005501Y-87110500D01*
X142040149Y-87124852D01*
X142054501Y-87159500D01*
X142054501Y-87277442D01*
X142054968Y-87279792D01*
X142054969Y-87279798D01*
X142057061Y-87290314D01*
X142062420Y-87317260D01*
X142065099Y-87321270D01*
X142065100Y-87321271D01*
X142089156Y-87357274D01*
X142092589Y-87362411D01*
X142137740Y-87392580D01*
X142177557Y-87400500D01*
X142372442Y-87400499D01*
X142412260Y-87392580D01*
X142457411Y-87362411D01*
X142484258Y-87322230D01*
X142509249Y-87303054D01*
X142540751Y-87303054D01*
X142565741Y-87322230D01*
X142575797Y-87337280D01*
X142589156Y-87357274D01*
X142592589Y-87362411D01*
X142637740Y-87392580D01*
X142677557Y-87400500D01*
X142872442Y-87400499D01*
X142912260Y-87392580D01*
X142918824Y-87388193D01*
X142950849Y-87380170D01*
X142980696Y-87394284D01*
X142994813Y-87424130D01*
X142986791Y-87456156D01*
X142965515Y-87487998D01*
X142965512Y-87488003D01*
X142962833Y-87492014D01*
X142961892Y-87496742D01*
X142961891Y-87496746D01*
X142947602Y-87568586D01*
X142945332Y-87580000D01*
X142946273Y-87584731D01*
X142962833Y-87667986D01*
X142961864Y-87668178D01*
X142963535Y-87693683D01*
X142946034Y-87719875D01*
X142916205Y-87730000D01*
X142521475Y-87730000D01*
X142516717Y-87730468D01*
X142470719Y-87739617D01*
X142461974Y-87743240D01*
X142409796Y-87778104D01*
X142403104Y-87784796D01*
X142367941Y-87837421D01*
X142336758Y-87858256D01*
X142299977Y-87850940D01*
X142261965Y-87825542D01*
X142261962Y-87825540D01*
X142257950Y-87822860D01*
X142253219Y-87821919D01*
X142253217Y-87821918D01*
X142174695Y-87806300D01*
X142169964Y-87805359D01*
X142165233Y-87806300D01*
X142081978Y-87822860D01*
X142081683Y-87821381D01*
X142054046Y-87822282D01*
X142027366Y-87800381D01*
X142021745Y-87766324D01*
X142025030Y-87749804D01*
X142025500Y-87747443D01*
X142025499Y-87552558D01*
X142017580Y-87512740D01*
X141987411Y-87467589D01*
X141974643Y-87459058D01*
X141964835Y-87452504D01*
X141942260Y-87437420D01*
X141937529Y-87436479D01*
X141937527Y-87436478D01*
X141904797Y-87429968D01*
X141904794Y-87429967D01*
X141902443Y-87429500D01*
X141900040Y-87429500D01*
X141529180Y-87429500D01*
X141519621Y-87428559D01*
X141481731Y-87421023D01*
X141477000Y-87420082D01*
X141472269Y-87421023D01*
X141434377Y-87428559D01*
X141424820Y-87429500D01*
X141349961Y-87429500D01*
X141349951Y-87429500D01*
X141347558Y-87429501D01*
X141345208Y-87429968D01*
X141345201Y-87429969D01*
X141312471Y-87436479D01*
X141307740Y-87437420D01*
X141303730Y-87440098D01*
X141303728Y-87440100D01*
X141266600Y-87464908D01*
X141266597Y-87464910D01*
X141262589Y-87467589D01*
X141259910Y-87471597D01*
X141259908Y-87471600D01*
X141235101Y-87508727D01*
X141232420Y-87512740D01*
X141231479Y-87517468D01*
X141231478Y-87517472D01*
X141224968Y-87550202D01*
X141224500Y-87552557D01*
X141224500Y-87554958D01*
X141224500Y-87554959D01*
X141224500Y-87745037D01*
X141224500Y-87745047D01*
X141224501Y-87747442D01*
X141224968Y-87749792D01*
X141224969Y-87749798D01*
X141227909Y-87764579D01*
X141232420Y-87787260D01*
X141235099Y-87791270D01*
X141235100Y-87791271D01*
X141247559Y-87809918D01*
X141262589Y-87832411D01*
X141285192Y-87847514D01*
X141285218Y-87847531D01*
X141304394Y-87872522D01*
X141304395Y-87904023D01*
X141285219Y-87929015D01*
X141252539Y-87950851D01*
X141245849Y-87957541D01*
X141216732Y-88001119D01*
X141213109Y-88009864D01*
X141205468Y-88048281D01*
X141205000Y-88053039D01*
X141205000Y-88065253D01*
X141207854Y-88072145D01*
X141214747Y-88075000D01*
X141651000Y-88075000D01*
X141685648Y-88089352D01*
X141700000Y-88124000D01*
X141700000Y-88380254D01*
X141700412Y-88381249D01*
X141700412Y-88418751D01*
X141700000Y-88419746D01*
X141700000Y-88676000D01*
X141685648Y-88710648D01*
X141651000Y-88725000D01*
X141214747Y-88725000D01*
X141207854Y-88727854D01*
X141205000Y-88734747D01*
X141205000Y-88746961D01*
X141205468Y-88751718D01*
X141213109Y-88790135D01*
X141216732Y-88798880D01*
X141245849Y-88842458D01*
X141252541Y-88849150D01*
X141285218Y-88870984D01*
X141304394Y-88895975D01*
X141304395Y-88927476D01*
X141285219Y-88952467D01*
X141266601Y-88964907D01*
X141266597Y-88964910D01*
X141262589Y-88967589D01*
X141259910Y-88971597D01*
X141259908Y-88971600D01*
X141235114Y-89008708D01*
X141232420Y-89012740D01*
X141231479Y-89017468D01*
X141231478Y-89017472D01*
X141225777Y-89046135D01*
X141224500Y-89052557D01*
X141224500Y-89054959D01*
X141224500Y-89054960D01*
X141224500Y-89202819D01*
X141214374Y-89232648D01*
X141188182Y-89250149D01*
X141158960Y-89248233D01*
X141157986Y-89247583D01*
X141070000Y-89230082D01*
X141065269Y-89231023D01*
X140986746Y-89246641D01*
X140986742Y-89246642D01*
X140982014Y-89247583D01*
X140978002Y-89250263D01*
X140978001Y-89250264D01*
X140907423Y-89297423D01*
X140906502Y-89296045D01*
X140889195Y-89305279D01*
X140860900Y-89302479D01*
X140838923Y-89284438D01*
X140822232Y-89259459D01*
X140819552Y-89255448D01*
X140814649Y-89252172D01*
X140769711Y-89222145D01*
X140759379Y-89215241D01*
X140740467Y-89191007D01*
X140739713Y-89160276D01*
X140757414Y-89135143D01*
X140786603Y-89125500D01*
X140839234Y-89125500D01*
X140841644Y-89125500D01*
X140876864Y-89118494D01*
X140916806Y-89091806D01*
X140943494Y-89051864D01*
X140950500Y-89016644D01*
X140950500Y-88565253D01*
X141205000Y-88565253D01*
X141207854Y-88572145D01*
X141214747Y-88575000D01*
X141540253Y-88575000D01*
X141547145Y-88572145D01*
X141550000Y-88565253D01*
X141550000Y-88419747D01*
X141549588Y-88418752D01*
X141545857Y-88399997D01*
X141549589Y-88381243D01*
X141550000Y-88380251D01*
X141550000Y-88234747D01*
X141547145Y-88227854D01*
X141540253Y-88225000D01*
X141214747Y-88225000D01*
X141207854Y-88227854D01*
X141205000Y-88234747D01*
X141205000Y-88246961D01*
X141205468Y-88251718D01*
X141213109Y-88290135D01*
X141216732Y-88298880D01*
X141245849Y-88342458D01*
X141252539Y-88349148D01*
X141267669Y-88359258D01*
X141286845Y-88384250D01*
X141286845Y-88415750D01*
X141267669Y-88440742D01*
X141252539Y-88450851D01*
X141245849Y-88457541D01*
X141216732Y-88501119D01*
X141213109Y-88509864D01*
X141205468Y-88548281D01*
X141205000Y-88553039D01*
X141205000Y-88565253D01*
X140950500Y-88565253D01*
X140950500Y-88358356D01*
X140943494Y-88323136D01*
X140916806Y-88283194D01*
X140908664Y-88277754D01*
X140880875Y-88259186D01*
X140880874Y-88259185D01*
X140876864Y-88256506D01*
X140872133Y-88255564D01*
X140872131Y-88255564D01*
X140841644Y-88249500D01*
X140841815Y-88248639D01*
X140817643Y-88238152D01*
X140802238Y-88212440D01*
X140804689Y-88182566D01*
X140809895Y-88169998D01*
X140807040Y-88163106D01*
X140469392Y-87825458D01*
X140462500Y-87822603D01*
X140455607Y-87825458D01*
X140116205Y-88164859D01*
X140113591Y-88169749D01*
X140113908Y-88170135D01*
X140125005Y-88202817D01*
X140111803Y-88234708D01*
X140083219Y-88248814D01*
X140083356Y-88249500D01*
X140052868Y-88255564D01*
X140052864Y-88255565D01*
X140048136Y-88256506D01*
X140044126Y-88259184D01*
X140044124Y-88259186D01*
X140012205Y-88280513D01*
X140012202Y-88280515D01*
X140008194Y-88283194D01*
X140005515Y-88287202D01*
X140005513Y-88287205D01*
X139984186Y-88319124D01*
X139984184Y-88319126D01*
X139981506Y-88323136D01*
X139980565Y-88327864D01*
X139980564Y-88327868D01*
X139974970Y-88355990D01*
X139974969Y-88355996D01*
X139974500Y-88358356D01*
X139974500Y-89016644D01*
X139974969Y-89019004D01*
X139974970Y-89019009D01*
X139980564Y-89047131D01*
X139980564Y-89047133D01*
X139981506Y-89051864D01*
X140008194Y-89091806D01*
X140012205Y-89094486D01*
X140035061Y-89109758D01*
X140053974Y-89133992D01*
X140054728Y-89164724D01*
X140037027Y-89189857D01*
X140007838Y-89199500D01*
X139755252Y-89199500D01*
X139752893Y-89199969D01*
X139752885Y-89199970D01*
X139701505Y-89210190D01*
X139701500Y-89210191D01*
X139696769Y-89211133D01*
X139692757Y-89213813D01*
X139692754Y-89213815D01*
X139634459Y-89252767D01*
X139634456Y-89252769D01*
X139630448Y-89255448D01*
X139627769Y-89259456D01*
X139627767Y-89259459D01*
X139588815Y-89317754D01*
X139588813Y-89317757D01*
X139586133Y-89321769D01*
X139585191Y-89326500D01*
X139585190Y-89326505D01*
X139574970Y-89377885D01*
X139574969Y-89377893D01*
X139574500Y-89380252D01*
X139574500Y-89619748D01*
X139574969Y-89622107D01*
X139574970Y-89622114D01*
X139585190Y-89673494D01*
X139585191Y-89673497D01*
X139586133Y-89678231D01*
X139588814Y-89682244D01*
X139588815Y-89682245D01*
X139622224Y-89732245D01*
X139630448Y-89744552D01*
X139696769Y-89788867D01*
X139712525Y-89792001D01*
X139740841Y-89808971D01*
X139751965Y-89840056D01*
X139740844Y-89871142D01*
X139712526Y-89888116D01*
X139693896Y-89891822D01*
X139685147Y-89895446D01*
X139620400Y-89938708D01*
X139613708Y-89945400D01*
X139570445Y-90010148D01*
X139566823Y-90018892D01*
X139555470Y-90075967D01*
X139555000Y-90080743D01*
X139555000Y-90115253D01*
X139557854Y-90122145D01*
X139564747Y-90125000D01*
X139931000Y-90125000D01*
X139965648Y-90139352D01*
X139980000Y-90174000D01*
X139980000Y-90510252D01*
X139982855Y-90517144D01*
X139990205Y-90520189D01*
X140016723Y-90546708D01*
X140016723Y-90584211D01*
X139990552Y-90610380D01*
X139986769Y-90611133D01*
X139982760Y-90613811D01*
X139982757Y-90613813D01*
X139924459Y-90652767D01*
X139924456Y-90652769D01*
X139920448Y-90655448D01*
X139917769Y-90659456D01*
X139917767Y-90659459D01*
X139878815Y-90717754D01*
X139878813Y-90717757D01*
X139876133Y-90721769D01*
X139875191Y-90726500D01*
X139875190Y-90726505D01*
X139864970Y-90777885D01*
X139864969Y-90777893D01*
X139864500Y-90780252D01*
X139864500Y-91079748D01*
X139864969Y-91082107D01*
X139864970Y-91082114D01*
X139875190Y-91133494D01*
X139875191Y-91133497D01*
X139876133Y-91138231D01*
X139878814Y-91142244D01*
X139878815Y-91142245D01*
X139917071Y-91199499D01*
X139920448Y-91204552D01*
X139927490Y-91209257D01*
X139946665Y-91234245D01*
X139946668Y-91265744D01*
X139927497Y-91290737D01*
X139924460Y-91292766D01*
X139924456Y-91292769D01*
X139920448Y-91295448D01*
X139917769Y-91299456D01*
X139917767Y-91299459D01*
X139878814Y-91357756D01*
X139876133Y-91361769D01*
X139875192Y-91366497D01*
X139875191Y-91366501D01*
X139872495Y-91380059D01*
X139855521Y-91408377D01*
X139824436Y-91419500D01*
X139785564Y-91419500D01*
X139754479Y-91408377D01*
X139737505Y-91380059D01*
X139735652Y-91370743D01*
X139733867Y-91361769D01*
X139689552Y-91295448D01*
X139689163Y-91295188D01*
X139677132Y-91272678D01*
X139679923Y-91244365D01*
X139697976Y-91222375D01*
X139699602Y-91221288D01*
X139706291Y-91214599D01*
X139749554Y-91149851D01*
X139753176Y-91141107D01*
X139764529Y-91084032D01*
X139765000Y-91079257D01*
X139765000Y-91014747D01*
X139762145Y-91007854D01*
X139755253Y-91005000D01*
X139419000Y-91005000D01*
X139384352Y-90990648D01*
X139370000Y-90956000D01*
X139370000Y-90845253D01*
X139520000Y-90845253D01*
X139522854Y-90852145D01*
X139529747Y-90855000D01*
X139755252Y-90855000D01*
X139762144Y-90852145D01*
X139764999Y-90845253D01*
X139764999Y-90780737D01*
X139764530Y-90775979D01*
X139753176Y-90718892D01*
X139749553Y-90710147D01*
X139706291Y-90645400D01*
X139699599Y-90638708D01*
X139634851Y-90595445D01*
X139626107Y-90591823D01*
X139569032Y-90580470D01*
X139564257Y-90580000D01*
X139529747Y-90580000D01*
X139522854Y-90582854D01*
X139520000Y-90589747D01*
X139520000Y-90845253D01*
X139370000Y-90845253D01*
X139370000Y-90589748D01*
X139367145Y-90582855D01*
X139360253Y-90580001D01*
X139325737Y-90580001D01*
X139320977Y-90580469D01*
X139272536Y-90590104D01*
X139244226Y-90587315D01*
X139222237Y-90569269D01*
X139221208Y-90567728D01*
X139212951Y-90540507D01*
X139221211Y-90513283D01*
X139243204Y-90495236D01*
X139244854Y-90494552D01*
X139309599Y-90451291D01*
X139316291Y-90444599D01*
X139359554Y-90379851D01*
X139363176Y-90371107D01*
X139373488Y-90319263D01*
X139555001Y-90319263D01*
X139555469Y-90324020D01*
X139566823Y-90381107D01*
X139570446Y-90389852D01*
X139613708Y-90454599D01*
X139620400Y-90461291D01*
X139685148Y-90504554D01*
X139693892Y-90508176D01*
X139750967Y-90519529D01*
X139755743Y-90520000D01*
X139820253Y-90520000D01*
X139827145Y-90517145D01*
X139830000Y-90510253D01*
X139830000Y-90284747D01*
X139827145Y-90277854D01*
X139820253Y-90275000D01*
X139564748Y-90275000D01*
X139557855Y-90277854D01*
X139555001Y-90284747D01*
X139555001Y-90319263D01*
X139373488Y-90319263D01*
X139374529Y-90314032D01*
X139375000Y-90309257D01*
X139375000Y-90244747D01*
X139372145Y-90237854D01*
X139365253Y-90235000D01*
X138744748Y-90235000D01*
X138737855Y-90237854D01*
X138735001Y-90244747D01*
X138735001Y-90309263D01*
X138735469Y-90314020D01*
X138746823Y-90371107D01*
X138750446Y-90379852D01*
X138793708Y-90444599D01*
X138800398Y-90451289D01*
X138822011Y-90465730D01*
X138838735Y-90484800D01*
X138843684Y-90509677D01*
X138835531Y-90533696D01*
X138807264Y-90576000D01*
X138807262Y-90576004D01*
X138804583Y-90580014D01*
X138803642Y-90584742D01*
X138803641Y-90584746D01*
X138794024Y-90633099D01*
X138787082Y-90668000D01*
X138788023Y-90672731D01*
X138803641Y-90751253D01*
X138803642Y-90751255D01*
X138804583Y-90755986D01*
X138807263Y-90759997D01*
X138807264Y-90759999D01*
X138825860Y-90787830D01*
X138833177Y-90824612D01*
X138812342Y-90855794D01*
X138775449Y-90880447D01*
X138774859Y-90879564D01*
X138744996Y-90891930D01*
X138715142Y-90879562D01*
X138714552Y-90880447D01*
X138701818Y-90871938D01*
X138694394Y-90865845D01*
X138596749Y-90768200D01*
X138591666Y-90761035D01*
X138591626Y-90761068D01*
X138588184Y-90756751D01*
X138585788Y-90751776D01*
X138581470Y-90748332D01*
X138581469Y-90748331D01*
X138560964Y-90731979D01*
X138556867Y-90728318D01*
X138552748Y-90724199D01*
X138550801Y-90722252D01*
X138548469Y-90720786D01*
X138548466Y-90720784D01*
X138543534Y-90717684D01*
X138539056Y-90714507D01*
X138536636Y-90712577D01*
X138514231Y-90694710D01*
X138508850Y-90693481D01*
X138503876Y-90691086D01*
X138503897Y-90691041D01*
X138502826Y-90690597D01*
X138502810Y-90690644D01*
X138497596Y-90688819D01*
X138492924Y-90685884D01*
X138487440Y-90685266D01*
X138461371Y-90682329D01*
X138455953Y-90681408D01*
X138453596Y-90680870D01*
X138426190Y-90663650D01*
X138415500Y-90633099D01*
X138415500Y-90144844D01*
X138416442Y-90135284D01*
X138418488Y-90125000D01*
X138425500Y-90089748D01*
X138425500Y-90087335D01*
X138425716Y-90085144D01*
X138427505Y-90078003D01*
X138427417Y-90077986D01*
X138443977Y-89994731D01*
X138444918Y-89990000D01*
X138434459Y-89937420D01*
X138427417Y-89902014D01*
X138427853Y-89901927D01*
X138425500Y-89890099D01*
X138425500Y-89792662D01*
X138425500Y-89790252D01*
X138413867Y-89731769D01*
X138369552Y-89665448D01*
X138369163Y-89665188D01*
X138357132Y-89642678D01*
X138359923Y-89614365D01*
X138377976Y-89592375D01*
X138379602Y-89591288D01*
X138386291Y-89584599D01*
X138429554Y-89519851D01*
X138433176Y-89511107D01*
X138444529Y-89454032D01*
X138445000Y-89449257D01*
X138445000Y-89384747D01*
X138442145Y-89377854D01*
X138435253Y-89375000D01*
X137814748Y-89375000D01*
X137807855Y-89377854D01*
X137805001Y-89384747D01*
X137805001Y-89449263D01*
X137805469Y-89454020D01*
X137816823Y-89511107D01*
X137820446Y-89519852D01*
X137863708Y-89584599D01*
X137870398Y-89591289D01*
X137872029Y-89592379D01*
X137890076Y-89614367D01*
X137892867Y-89642675D01*
X137880838Y-89665187D01*
X137880448Y-89665448D01*
X137877771Y-89669453D01*
X137877770Y-89669455D01*
X137838815Y-89727754D01*
X137838813Y-89727757D01*
X137836133Y-89731769D01*
X137835191Y-89736500D01*
X137835190Y-89736505D01*
X137824970Y-89787885D01*
X137824969Y-89787893D01*
X137824500Y-89790252D01*
X137824500Y-90089748D01*
X137824969Y-90092107D01*
X137824970Y-90092114D01*
X137835190Y-90143494D01*
X137835191Y-90143497D01*
X137836133Y-90148231D01*
X137838814Y-90152244D01*
X137838815Y-90152245D01*
X137853351Y-90174000D01*
X137880448Y-90214552D01*
X137946769Y-90258867D01*
X137975062Y-90264494D01*
X138003377Y-90281467D01*
X138014500Y-90312552D01*
X138014500Y-90500500D01*
X138000148Y-90535148D01*
X137965500Y-90549500D01*
X137925252Y-90549500D01*
X137922893Y-90549969D01*
X137922885Y-90549970D01*
X137871505Y-90560190D01*
X137871500Y-90560191D01*
X137866769Y-90561133D01*
X137862757Y-90563813D01*
X137862754Y-90563815D01*
X137804459Y-90602767D01*
X137804456Y-90602769D01*
X137800448Y-90605448D01*
X137797769Y-90609456D01*
X137797767Y-90609459D01*
X137758815Y-90667754D01*
X137758813Y-90667757D01*
X137756133Y-90671769D01*
X137755191Y-90676500D01*
X137755190Y-90676505D01*
X137744970Y-90727885D01*
X137744969Y-90727893D01*
X137744500Y-90730252D01*
X137744500Y-91029748D01*
X137744969Y-91032107D01*
X137744970Y-91032114D01*
X137755190Y-91083494D01*
X137755191Y-91083497D01*
X137756133Y-91088231D01*
X137758814Y-91092244D01*
X137758815Y-91092245D01*
X137792224Y-91142245D01*
X137800448Y-91154552D01*
X137800836Y-91154811D01*
X137812866Y-91177317D01*
X137810078Y-91205628D01*
X137792032Y-91227619D01*
X137790398Y-91228710D01*
X137783708Y-91235400D01*
X137740445Y-91300148D01*
X137736823Y-91308892D01*
X137725470Y-91365967D01*
X137725000Y-91370743D01*
X137725000Y-91435253D01*
X137727854Y-91442145D01*
X137734747Y-91445000D01*
X138071000Y-91445000D01*
X138105648Y-91459352D01*
X138120000Y-91494000D01*
X138120000Y-91860252D01*
X138122854Y-91867144D01*
X138129747Y-91869999D01*
X138164263Y-91869999D01*
X138169020Y-91869530D01*
X138226107Y-91858176D01*
X138234852Y-91854553D01*
X138299599Y-91811291D01*
X138306291Y-91804599D01*
X138349554Y-91739851D01*
X138353175Y-91731110D01*
X138359014Y-91701752D01*
X138375810Y-91673579D01*
X138406614Y-91662312D01*
X138437623Y-91673000D01*
X138441661Y-91676220D01*
X138445103Y-91680536D01*
X138450076Y-91682930D01*
X138454394Y-91686374D01*
X138454362Y-91686413D01*
X138461527Y-91691497D01*
X138561829Y-91791800D01*
X138566914Y-91798966D01*
X138566954Y-91798935D01*
X138570395Y-91803250D01*
X138572791Y-91808224D01*
X138591833Y-91823410D01*
X138597613Y-91828019D01*
X138601710Y-91831680D01*
X138607778Y-91837749D01*
X138610101Y-91839209D01*
X138610104Y-91839211D01*
X138615043Y-91842314D01*
X138619520Y-91845491D01*
X138644348Y-91865290D01*
X138649729Y-91866518D01*
X138654705Y-91868914D01*
X138654682Y-91868960D01*
X138655752Y-91869403D01*
X138655769Y-91869355D01*
X138660980Y-91871178D01*
X138665655Y-91874116D01*
X138671139Y-91874733D01*
X138671140Y-91874734D01*
X138676852Y-91875377D01*
X138697215Y-91877671D01*
X138702622Y-91878590D01*
X138710989Y-91880500D01*
X138719567Y-91880500D01*
X138725052Y-91880807D01*
X138756606Y-91884363D01*
X138761820Y-91882538D01*
X138767302Y-91881921D01*
X138767307Y-91881971D01*
X138775970Y-91880500D01*
X139239383Y-91880500D01*
X139257595Y-91886028D01*
X139258296Y-91884338D01*
X139262754Y-91886184D01*
X139266769Y-91888867D01*
X139325252Y-91900500D01*
X139562338Y-91900500D01*
X139564748Y-91900500D01*
X139623231Y-91888867D01*
X139689552Y-91844552D01*
X139733867Y-91778231D01*
X139737504Y-91759941D01*
X139754479Y-91731623D01*
X139785564Y-91720500D01*
X139824436Y-91720500D01*
X139855521Y-91731623D01*
X139872495Y-91759941D01*
X139875191Y-91773498D01*
X139875192Y-91773500D01*
X139876133Y-91778231D01*
X139878814Y-91782243D01*
X139914602Y-91835804D01*
X139920448Y-91844552D01*
X139951484Y-91865290D01*
X139986769Y-91888867D01*
X139986145Y-91889800D01*
X140006117Y-91907895D01*
X140010965Y-91940554D01*
X139993994Y-91968876D01*
X139962907Y-91980000D01*
X139915737Y-91980000D01*
X139910979Y-91980469D01*
X139853892Y-91991823D01*
X139845147Y-91995446D01*
X139780400Y-92038708D01*
X139773710Y-92045398D01*
X139772619Y-92047032D01*
X139750628Y-92065078D01*
X139722317Y-92067866D01*
X139699811Y-92055836D01*
X139699552Y-92055448D01*
X139684514Y-92045400D01*
X139637245Y-92013815D01*
X139637244Y-92013814D01*
X139633231Y-92011133D01*
X139628497Y-92010191D01*
X139628494Y-92010190D01*
X139577114Y-91999970D01*
X139577107Y-91999969D01*
X139574748Y-91999500D01*
X139275252Y-91999500D01*
X139272893Y-91999969D01*
X139272885Y-91999970D01*
X139221505Y-92010190D01*
X139221500Y-92010191D01*
X139216769Y-92011133D01*
X139212757Y-92013813D01*
X139212754Y-92013815D01*
X139154459Y-92052767D01*
X139154456Y-92052769D01*
X139150448Y-92055448D01*
X139147769Y-92059456D01*
X139147767Y-92059459D01*
X139108815Y-92117754D01*
X139108813Y-92117757D01*
X139106133Y-92121769D01*
X139105191Y-92126500D01*
X139105190Y-92126505D01*
X139094970Y-92177885D01*
X139094969Y-92177893D01*
X139094500Y-92180252D01*
X139094500Y-92182662D01*
X139094500Y-92263150D01*
X139086242Y-92290373D01*
X139064252Y-92308420D01*
X139035941Y-92311209D01*
X138984731Y-92301023D01*
X138980000Y-92300082D01*
X138975269Y-92301023D01*
X138896746Y-92316641D01*
X138896742Y-92316642D01*
X138892014Y-92317583D01*
X138888002Y-92320263D01*
X138888001Y-92320264D01*
X138821434Y-92364742D01*
X138821431Y-92364744D01*
X138817423Y-92367423D01*
X138814744Y-92371431D01*
X138814742Y-92371434D01*
X138770264Y-92438001D01*
X138767583Y-92442014D01*
X138766642Y-92446742D01*
X138766641Y-92446746D01*
X138751291Y-92523920D01*
X138750082Y-92530000D01*
X138751023Y-92534731D01*
X138759319Y-92576441D01*
X138756530Y-92604751D01*
X138738484Y-92626742D01*
X138711261Y-92635000D01*
X138679107Y-92635000D01*
X138674349Y-92635469D01*
X138642055Y-92641892D01*
X138633316Y-92645512D01*
X138596680Y-92669990D01*
X138589990Y-92676680D01*
X138565514Y-92713313D01*
X138561891Y-92722061D01*
X138555470Y-92754337D01*
X138555000Y-92759113D01*
X138555000Y-93070253D01*
X138557854Y-93077145D01*
X138564747Y-93080000D01*
X138851000Y-93080000D01*
X138885648Y-93094352D01*
X138900000Y-93129000D01*
X138900000Y-93665252D01*
X138902854Y-93672144D01*
X138909747Y-93674999D01*
X138970893Y-93674999D01*
X138975650Y-93674530D01*
X139007944Y-93668107D01*
X139016683Y-93664487D01*
X139053319Y-93640009D01*
X139063425Y-93629904D01*
X139063948Y-93630427D01*
X139083994Y-93614784D01*
X139114725Y-93614030D01*
X139139857Y-93631731D01*
X139149500Y-93660920D01*
X139149500Y-94064673D01*
X139149500Y-94145327D01*
X139152724Y-94150911D01*
X139152725Y-94150914D01*
X139156531Y-94157506D01*
X139161426Y-94169323D01*
X139163395Y-94176674D01*
X139163396Y-94176676D01*
X139165065Y-94182904D01*
X139169624Y-94187463D01*
X139222094Y-94239934D01*
X139222100Y-94239939D01*
X139495065Y-94512903D01*
X139495065Y-94512904D01*
X139552096Y-94569935D01*
X139565677Y-94573573D01*
X139577497Y-94578469D01*
X139589673Y-94585500D01*
X139610186Y-94585500D01*
X139670326Y-94585500D01*
X144832875Y-94585500D01*
X144893016Y-94585500D01*
X144907078Y-94585500D01*
X144913529Y-94585500D01*
X144925707Y-94578467D01*
X144937523Y-94573573D01*
X144951106Y-94569935D01*
X145008137Y-94512905D01*
X145008137Y-94512903D01*
X145387113Y-94133926D01*
X145403011Y-94123305D01*
X145417314Y-94120461D01*
X145417601Y-94120519D01*
X145505587Y-94103018D01*
X145580178Y-94053178D01*
X145630018Y-93978587D01*
X145647519Y-93890601D01*
X145630018Y-93802615D01*
X145580178Y-93728024D01*
X145580241Y-93727981D01*
X145567706Y-93702563D01*
X145573853Y-93671666D01*
X145597539Y-93650897D01*
X145600330Y-93649740D01*
X145605066Y-93648799D01*
X145643271Y-93623271D01*
X145668799Y-93585066D01*
X145675500Y-93551377D01*
X145675499Y-92758624D01*
X145668799Y-92724934D01*
X145643271Y-92686729D01*
X145605066Y-92661201D01*
X145600335Y-92660260D01*
X145600333Y-92660259D01*
X145573731Y-92654968D01*
X145573728Y-92654967D01*
X145571377Y-92654500D01*
X145568974Y-92654500D01*
X145281027Y-92654500D01*
X145281016Y-92654500D01*
X145278624Y-92654501D01*
X145276274Y-92654968D01*
X145276267Y-92654969D01*
X145249665Y-92660260D01*
X145249664Y-92660260D01*
X145244934Y-92661201D01*
X145240924Y-92663879D01*
X145240922Y-92663881D01*
X145210740Y-92684048D01*
X145210737Y-92684050D01*
X145206729Y-92686729D01*
X145204050Y-92690737D01*
X145204048Y-92690740D01*
X145183882Y-92720921D01*
X145181201Y-92724934D01*
X145180260Y-92729662D01*
X145180259Y-92729666D01*
X145174968Y-92756268D01*
X145174500Y-92758623D01*
X145174500Y-92761025D01*
X145174500Y-92761026D01*
X145174500Y-93512364D01*
X145170765Y-93531127D01*
X145160132Y-93547027D01*
X145159160Y-93547999D01*
X145159130Y-93548030D01*
X145124483Y-93562364D01*
X145089845Y-93548006D01*
X145075499Y-93513366D01*
X145075499Y-92758624D01*
X145068799Y-92724934D01*
X145043271Y-92686729D01*
X145005066Y-92661201D01*
X145000335Y-92660260D01*
X145000333Y-92660259D01*
X144973731Y-92654968D01*
X144973728Y-92654967D01*
X144971377Y-92654500D01*
X144968974Y-92654500D01*
X144681027Y-92654500D01*
X144681016Y-92654500D01*
X144678624Y-92654501D01*
X144676274Y-92654968D01*
X144676267Y-92654969D01*
X144649665Y-92660260D01*
X144649664Y-92660260D01*
X144644934Y-92661201D01*
X144640924Y-92663879D01*
X144640922Y-92663881D01*
X144610740Y-92684048D01*
X144610737Y-92684050D01*
X144606729Y-92686729D01*
X144604050Y-92690737D01*
X144604048Y-92690740D01*
X144583882Y-92720921D01*
X144581201Y-92724934D01*
X144580260Y-92729662D01*
X144580259Y-92729666D01*
X144574968Y-92756268D01*
X144574500Y-92758623D01*
X144574500Y-92761024D01*
X144574500Y-92761025D01*
X144574500Y-93548972D01*
X144574500Y-93548982D01*
X144574501Y-93551376D01*
X144574968Y-93553726D01*
X144574969Y-93553732D01*
X144576254Y-93560192D01*
X144581201Y-93585066D01*
X144606729Y-93623271D01*
X144644934Y-93648799D01*
X144678623Y-93655500D01*
X144933365Y-93655499D01*
X144960588Y-93663757D01*
X144978635Y-93685747D01*
X144981424Y-93714058D01*
X144968013Y-93739147D01*
X144692013Y-94015148D01*
X144676117Y-94025770D01*
X144657365Y-94029500D01*
X140132635Y-94029500D01*
X140097987Y-94015148D01*
X139885937Y-93803098D01*
X139875313Y-93787197D01*
X139872470Y-93772894D01*
X139872527Y-93772609D01*
X139871585Y-93767873D01*
X139871585Y-93767869D01*
X139860881Y-93714059D01*
X139863669Y-93685748D01*
X139881716Y-93663757D01*
X139908936Y-93655499D01*
X140171376Y-93655499D01*
X140205066Y-93648799D01*
X140243271Y-93623271D01*
X140268799Y-93585066D01*
X140275500Y-93551377D01*
X140275500Y-93548982D01*
X140374500Y-93548982D01*
X140374501Y-93551376D01*
X140374968Y-93553726D01*
X140374969Y-93553732D01*
X140376254Y-93560192D01*
X140381201Y-93585066D01*
X140406729Y-93623271D01*
X140444934Y-93648799D01*
X140478623Y-93655500D01*
X140771376Y-93655499D01*
X140805066Y-93648799D01*
X140843271Y-93623271D01*
X140868799Y-93585066D01*
X140875500Y-93551377D01*
X140875500Y-93548982D01*
X140974500Y-93548982D01*
X140974501Y-93551376D01*
X140974968Y-93553726D01*
X140974969Y-93553732D01*
X140976254Y-93560192D01*
X140981201Y-93585066D01*
X141006729Y-93623271D01*
X141044934Y-93648799D01*
X141078623Y-93655500D01*
X141371376Y-93655499D01*
X141405066Y-93648799D01*
X141443271Y-93623271D01*
X141468799Y-93585066D01*
X141475500Y-93551377D01*
X141475500Y-93548982D01*
X141574500Y-93548982D01*
X141574501Y-93551376D01*
X141574968Y-93553726D01*
X141574969Y-93553732D01*
X141576254Y-93560192D01*
X141581201Y-93585066D01*
X141606729Y-93623271D01*
X141644934Y-93648799D01*
X141678623Y-93655500D01*
X141971376Y-93655499D01*
X142005066Y-93648799D01*
X142043271Y-93623271D01*
X142068799Y-93585066D01*
X142075500Y-93551377D01*
X142075500Y-93548982D01*
X142174500Y-93548982D01*
X142174501Y-93551376D01*
X142174968Y-93553726D01*
X142174969Y-93553732D01*
X142176254Y-93560192D01*
X142181201Y-93585066D01*
X142206729Y-93623271D01*
X142244934Y-93648799D01*
X142278623Y-93655500D01*
X142571376Y-93655499D01*
X142605066Y-93648799D01*
X142643271Y-93623271D01*
X142668799Y-93585066D01*
X142675500Y-93551377D01*
X142675500Y-93548982D01*
X142774500Y-93548982D01*
X142774501Y-93551376D01*
X142774968Y-93553726D01*
X142774969Y-93553732D01*
X142776254Y-93560192D01*
X142781201Y-93585066D01*
X142806729Y-93623271D01*
X142844934Y-93648799D01*
X142878623Y-93655500D01*
X143171376Y-93655499D01*
X143205066Y-93648799D01*
X143243271Y-93623271D01*
X143268799Y-93585066D01*
X143275500Y-93551377D01*
X143275500Y-93548982D01*
X143374500Y-93548982D01*
X143374501Y-93551376D01*
X143374968Y-93553726D01*
X143374969Y-93553732D01*
X143376254Y-93560192D01*
X143381201Y-93585066D01*
X143406729Y-93623271D01*
X143444934Y-93648799D01*
X143478623Y-93655500D01*
X143771376Y-93655499D01*
X143805066Y-93648799D01*
X143843271Y-93623271D01*
X143868799Y-93585066D01*
X143875500Y-93551377D01*
X143875500Y-93548982D01*
X143974500Y-93548982D01*
X143974501Y-93551376D01*
X143974968Y-93553726D01*
X143974969Y-93553732D01*
X143976254Y-93560192D01*
X143981201Y-93585066D01*
X144006729Y-93623271D01*
X144044934Y-93648799D01*
X144078623Y-93655500D01*
X144371376Y-93655499D01*
X144405066Y-93648799D01*
X144443271Y-93623271D01*
X144468799Y-93585066D01*
X144475500Y-93551377D01*
X144475499Y-92758624D01*
X144468799Y-92724934D01*
X144443271Y-92686729D01*
X144405066Y-92661201D01*
X144400335Y-92660260D01*
X144400333Y-92660259D01*
X144373731Y-92654968D01*
X144373728Y-92654967D01*
X144371377Y-92654500D01*
X144368974Y-92654500D01*
X144081027Y-92654500D01*
X144081016Y-92654500D01*
X144078624Y-92654501D01*
X144076274Y-92654968D01*
X144076267Y-92654969D01*
X144049665Y-92660260D01*
X144049664Y-92660260D01*
X144044934Y-92661201D01*
X144040924Y-92663879D01*
X144040922Y-92663881D01*
X144010740Y-92684048D01*
X144010737Y-92684050D01*
X144006729Y-92686729D01*
X144004050Y-92690737D01*
X144004048Y-92690740D01*
X143983882Y-92720921D01*
X143981201Y-92724934D01*
X143980260Y-92729662D01*
X143980259Y-92729666D01*
X143974968Y-92756268D01*
X143974500Y-92758623D01*
X143974500Y-92761024D01*
X143974500Y-92761025D01*
X143974500Y-93548972D01*
X143974500Y-93548982D01*
X143875500Y-93548982D01*
X143875499Y-92758624D01*
X143868799Y-92724934D01*
X143843271Y-92686729D01*
X143805066Y-92661201D01*
X143800335Y-92660260D01*
X143800333Y-92660259D01*
X143773731Y-92654968D01*
X143773728Y-92654967D01*
X143771377Y-92654500D01*
X143768974Y-92654500D01*
X143481027Y-92654500D01*
X143481016Y-92654500D01*
X143478624Y-92654501D01*
X143476274Y-92654968D01*
X143476267Y-92654969D01*
X143449665Y-92660260D01*
X143449664Y-92660260D01*
X143444934Y-92661201D01*
X143440924Y-92663879D01*
X143440922Y-92663881D01*
X143410740Y-92684048D01*
X143410737Y-92684050D01*
X143406729Y-92686729D01*
X143404050Y-92690737D01*
X143404048Y-92690740D01*
X143383882Y-92720921D01*
X143381201Y-92724934D01*
X143380260Y-92729662D01*
X143380259Y-92729666D01*
X143374968Y-92756268D01*
X143374500Y-92758623D01*
X143374500Y-92761024D01*
X143374500Y-92761025D01*
X143374500Y-93548972D01*
X143374500Y-93548982D01*
X143275500Y-93548982D01*
X143275499Y-92758624D01*
X143268799Y-92724934D01*
X143243271Y-92686729D01*
X143205066Y-92661201D01*
X143200335Y-92660260D01*
X143200333Y-92660259D01*
X143173731Y-92654968D01*
X143173728Y-92654967D01*
X143171377Y-92654500D01*
X143168974Y-92654500D01*
X142881027Y-92654500D01*
X142881016Y-92654500D01*
X142878624Y-92654501D01*
X142876274Y-92654968D01*
X142876267Y-92654969D01*
X142849665Y-92660260D01*
X142849664Y-92660260D01*
X142844934Y-92661201D01*
X142840924Y-92663879D01*
X142840922Y-92663881D01*
X142810740Y-92684048D01*
X142810737Y-92684050D01*
X142806729Y-92686729D01*
X142804050Y-92690737D01*
X142804048Y-92690740D01*
X142783882Y-92720921D01*
X142781201Y-92724934D01*
X142780260Y-92729662D01*
X142780259Y-92729666D01*
X142774968Y-92756268D01*
X142774500Y-92758623D01*
X142774500Y-92761024D01*
X142774500Y-92761025D01*
X142774500Y-93548972D01*
X142774500Y-93548982D01*
X142675500Y-93548982D01*
X142675499Y-92758624D01*
X142668799Y-92724934D01*
X142643271Y-92686729D01*
X142605066Y-92661201D01*
X142600335Y-92660260D01*
X142600333Y-92660259D01*
X142573731Y-92654968D01*
X142573728Y-92654967D01*
X142571377Y-92654500D01*
X142568974Y-92654500D01*
X142281027Y-92654500D01*
X142281016Y-92654500D01*
X142278624Y-92654501D01*
X142276274Y-92654968D01*
X142276267Y-92654969D01*
X142249665Y-92660260D01*
X142249664Y-92660260D01*
X142244934Y-92661201D01*
X142240924Y-92663879D01*
X142240922Y-92663881D01*
X142210740Y-92684048D01*
X142210737Y-92684050D01*
X142206729Y-92686729D01*
X142204050Y-92690737D01*
X142204048Y-92690740D01*
X142183882Y-92720921D01*
X142181201Y-92724934D01*
X142180260Y-92729662D01*
X142180259Y-92729666D01*
X142174968Y-92756268D01*
X142174500Y-92758623D01*
X142174500Y-92761024D01*
X142174500Y-92761025D01*
X142174500Y-93548972D01*
X142174500Y-93548982D01*
X142075500Y-93548982D01*
X142075499Y-92758624D01*
X142068799Y-92724934D01*
X142043271Y-92686729D01*
X142005066Y-92661201D01*
X142000335Y-92660260D01*
X142000333Y-92660259D01*
X141973731Y-92654968D01*
X141973728Y-92654967D01*
X141971377Y-92654500D01*
X141968974Y-92654500D01*
X141681027Y-92654500D01*
X141681016Y-92654500D01*
X141678624Y-92654501D01*
X141676274Y-92654968D01*
X141676267Y-92654969D01*
X141649665Y-92660260D01*
X141649664Y-92660260D01*
X141644934Y-92661201D01*
X141640924Y-92663879D01*
X141640922Y-92663881D01*
X141610740Y-92684048D01*
X141610737Y-92684050D01*
X141606729Y-92686729D01*
X141604050Y-92690737D01*
X141604048Y-92690740D01*
X141583882Y-92720921D01*
X141581201Y-92724934D01*
X141580260Y-92729662D01*
X141580259Y-92729666D01*
X141574968Y-92756268D01*
X141574500Y-92758623D01*
X141574500Y-92761024D01*
X141574500Y-92761025D01*
X141574500Y-93548972D01*
X141574500Y-93548982D01*
X141475500Y-93548982D01*
X141475499Y-92758624D01*
X141468799Y-92724934D01*
X141443271Y-92686729D01*
X141405066Y-92661201D01*
X141400335Y-92660260D01*
X141400333Y-92660259D01*
X141373731Y-92654968D01*
X141373728Y-92654967D01*
X141371377Y-92654500D01*
X141368974Y-92654500D01*
X141081027Y-92654500D01*
X141081016Y-92654500D01*
X141078624Y-92654501D01*
X141076274Y-92654968D01*
X141076267Y-92654969D01*
X141049665Y-92660260D01*
X141049664Y-92660260D01*
X141044934Y-92661201D01*
X141040924Y-92663879D01*
X141040922Y-92663881D01*
X141010740Y-92684048D01*
X141010737Y-92684050D01*
X141006729Y-92686729D01*
X141004050Y-92690737D01*
X141004048Y-92690740D01*
X140983882Y-92720921D01*
X140981201Y-92724934D01*
X140980260Y-92729662D01*
X140980259Y-92729666D01*
X140974968Y-92756268D01*
X140974500Y-92758623D01*
X140974500Y-92761024D01*
X140974500Y-92761025D01*
X140974500Y-93548972D01*
X140974500Y-93548982D01*
X140875500Y-93548982D01*
X140875499Y-92758624D01*
X140868799Y-92724934D01*
X140843271Y-92686729D01*
X140805066Y-92661201D01*
X140800335Y-92660260D01*
X140800333Y-92660259D01*
X140773731Y-92654968D01*
X140773728Y-92654967D01*
X140771377Y-92654500D01*
X140768974Y-92654500D01*
X140481027Y-92654500D01*
X140481016Y-92654500D01*
X140478624Y-92654501D01*
X140476274Y-92654968D01*
X140476267Y-92654969D01*
X140449665Y-92660260D01*
X140449664Y-92660260D01*
X140444934Y-92661201D01*
X140440924Y-92663879D01*
X140440922Y-92663881D01*
X140410740Y-92684048D01*
X140410737Y-92684050D01*
X140406729Y-92686729D01*
X140404050Y-92690737D01*
X140404048Y-92690740D01*
X140383882Y-92720921D01*
X140381201Y-92724934D01*
X140380260Y-92729662D01*
X140380259Y-92729666D01*
X140374968Y-92756268D01*
X140374500Y-92758623D01*
X140374500Y-92761024D01*
X140374500Y-92761025D01*
X140374500Y-93548972D01*
X140374500Y-93548982D01*
X140275500Y-93548982D01*
X140275499Y-92758624D01*
X140268799Y-92724934D01*
X140243271Y-92686729D01*
X140244336Y-92686017D01*
X140232664Y-92660256D01*
X140242686Y-92627222D01*
X140272002Y-92608993D01*
X140276106Y-92608176D01*
X140284852Y-92604553D01*
X140349599Y-92561291D01*
X140356291Y-92554599D01*
X140399554Y-92489851D01*
X140403176Y-92481107D01*
X140414529Y-92424032D01*
X140415000Y-92419257D01*
X140415000Y-92384747D01*
X140412145Y-92377854D01*
X140405253Y-92375000D01*
X140039000Y-92375000D01*
X140004352Y-92360648D01*
X139990000Y-92326000D01*
X139990000Y-92274000D01*
X140004352Y-92239352D01*
X140039000Y-92225000D01*
X140405252Y-92225000D01*
X140412144Y-92222145D01*
X140414999Y-92215253D01*
X140414999Y-92180737D01*
X140414530Y-92175979D01*
X140403176Y-92118892D01*
X140399553Y-92110147D01*
X140356291Y-92045400D01*
X140349599Y-92038708D01*
X140284852Y-91995446D01*
X140279196Y-91993103D01*
X140255919Y-91973023D01*
X140249184Y-91943029D01*
X140261642Y-91914926D01*
X140288384Y-91899776D01*
X140343231Y-91888867D01*
X140409552Y-91844552D01*
X140453867Y-91778231D01*
X140465500Y-91719748D01*
X140465500Y-91420252D01*
X140453867Y-91361769D01*
X140409552Y-91295448D01*
X140405540Y-91292767D01*
X140405538Y-91292765D01*
X140402505Y-91290738D01*
X140383331Y-91265745D01*
X140383334Y-91234244D01*
X140402510Y-91209256D01*
X140409552Y-91204552D01*
X140453867Y-91138231D01*
X140465500Y-91079748D01*
X140465500Y-90780252D01*
X140453867Y-90721769D01*
X140409552Y-90655448D01*
X140394514Y-90645400D01*
X140347245Y-90613815D01*
X140347244Y-90613814D01*
X140343231Y-90611133D01*
X140338497Y-90610191D01*
X140338494Y-90610190D01*
X140287114Y-90599970D01*
X140287107Y-90599969D01*
X140284748Y-90599500D01*
X140282338Y-90599500D01*
X140217177Y-90599500D01*
X140207618Y-90598559D01*
X140169731Y-90591023D01*
X140165000Y-90590082D01*
X140160269Y-90591023D01*
X140156974Y-90591023D01*
X140127785Y-90581380D01*
X140110084Y-90556247D01*
X140110838Y-90525515D01*
X140129751Y-90501281D01*
X140189599Y-90461291D01*
X140196288Y-90454602D01*
X140197375Y-90452976D01*
X140219365Y-90434923D01*
X140247678Y-90432132D01*
X140270188Y-90444163D01*
X140270448Y-90444552D01*
X140336769Y-90488867D01*
X140395252Y-90500500D01*
X140692338Y-90500500D01*
X140694748Y-90500500D01*
X140753231Y-90488867D01*
X140819552Y-90444552D01*
X140863867Y-90378231D01*
X140863869Y-90378232D01*
X140879851Y-90358758D01*
X140907075Y-90350500D01*
X141274797Y-90350500D01*
X141302027Y-90358762D01*
X141302776Y-90359263D01*
X141321947Y-90384255D01*
X141321944Y-90415753D01*
X141302768Y-90440742D01*
X141266600Y-90464908D01*
X141266597Y-90464910D01*
X141262589Y-90467589D01*
X141259910Y-90471597D01*
X141259908Y-90471600D01*
X141235101Y-90508727D01*
X141232420Y-90512740D01*
X141231479Y-90517468D01*
X141231478Y-90517472D01*
X141224968Y-90550202D01*
X141224500Y-90552557D01*
X141224500Y-90554958D01*
X141224500Y-90554959D01*
X141224500Y-90745037D01*
X141224500Y-90745047D01*
X141224501Y-90747442D01*
X141224968Y-90749792D01*
X141224969Y-90749798D01*
X141228629Y-90768200D01*
X141232420Y-90787260D01*
X141235099Y-90791270D01*
X141235100Y-90791271D01*
X141249466Y-90812772D01*
X141262589Y-90832411D01*
X141266600Y-90835091D01*
X141302768Y-90859258D01*
X141321945Y-90884250D01*
X141321945Y-90915750D01*
X141302768Y-90940742D01*
X141266600Y-90964908D01*
X141266597Y-90964910D01*
X141262589Y-90967589D01*
X141259910Y-90971597D01*
X141259908Y-90971600D01*
X141235101Y-91008727D01*
X141232420Y-91012740D01*
X141231479Y-91017468D01*
X141231478Y-91017472D01*
X141224968Y-91050202D01*
X141224500Y-91052557D01*
X141224500Y-91054958D01*
X141224500Y-91054959D01*
X141224500Y-91245037D01*
X141224500Y-91245047D01*
X141224501Y-91247442D01*
X141224968Y-91249792D01*
X141224969Y-91249798D01*
X141228141Y-91265744D01*
X141232420Y-91287260D01*
X141235099Y-91291270D01*
X141235100Y-91291271D01*
X141241031Y-91300148D01*
X141262589Y-91332411D01*
X141307740Y-91362580D01*
X141347557Y-91370500D01*
X141902442Y-91370499D01*
X141942260Y-91362580D01*
X141987411Y-91332411D01*
X142017580Y-91287260D01*
X142025500Y-91247443D01*
X142025499Y-91052558D01*
X142017580Y-91012740D01*
X141987411Y-90967589D01*
X141947230Y-90940741D01*
X141928054Y-90915751D01*
X141928054Y-90884249D01*
X141947230Y-90859258D01*
X141987411Y-90832411D01*
X142017580Y-90787260D01*
X142021059Y-90769765D01*
X142036808Y-90742484D01*
X142065912Y-90730428D01*
X142096340Y-90738580D01*
X142132014Y-90762417D01*
X142220000Y-90779918D01*
X142224731Y-90778977D01*
X142224736Y-90778977D01*
X142296441Y-90764714D01*
X142324752Y-90767502D01*
X142346742Y-90785549D01*
X142355000Y-90812772D01*
X142355000Y-90903525D01*
X142355468Y-90908282D01*
X142364617Y-90954280D01*
X142368240Y-90963025D01*
X142403104Y-91015203D01*
X142409796Y-91021895D01*
X142461974Y-91056759D01*
X142470719Y-91060382D01*
X142516717Y-91069531D01*
X142521475Y-91070000D01*
X143774437Y-91070000D01*
X143801660Y-91078258D01*
X143819707Y-91100248D01*
X143822496Y-91128559D01*
X143812798Y-91177317D01*
X143809082Y-91196000D01*
X143810023Y-91200731D01*
X143825641Y-91279253D01*
X143825642Y-91279255D01*
X143826583Y-91283986D01*
X143832449Y-91292765D01*
X143852836Y-91323277D01*
X143860675Y-91356896D01*
X143844402Y-91387340D01*
X143812094Y-91399500D01*
X143679962Y-91399500D01*
X143679951Y-91399500D01*
X143677558Y-91399501D01*
X143675208Y-91399968D01*
X143675201Y-91399969D01*
X143642471Y-91406479D01*
X143637740Y-91407420D01*
X143633730Y-91410098D01*
X143633728Y-91410100D01*
X143596600Y-91434908D01*
X143596597Y-91434910D01*
X143592589Y-91437589D01*
X143589910Y-91441597D01*
X143589908Y-91441600D01*
X143565742Y-91477768D01*
X143540750Y-91496945D01*
X143509250Y-91496945D01*
X143484258Y-91477768D01*
X143460091Y-91441600D01*
X143457411Y-91437589D01*
X143442916Y-91427904D01*
X143416272Y-91410101D01*
X143416273Y-91410101D01*
X143412260Y-91407420D01*
X143407529Y-91406479D01*
X143407527Y-91406478D01*
X143374797Y-91399968D01*
X143374794Y-91399967D01*
X143372443Y-91399500D01*
X143370040Y-91399500D01*
X143179962Y-91399500D01*
X143179951Y-91399500D01*
X143177558Y-91399501D01*
X143175208Y-91399968D01*
X143175201Y-91399969D01*
X143142471Y-91406479D01*
X143137740Y-91407420D01*
X143133730Y-91410098D01*
X143133728Y-91410100D01*
X143096600Y-91434908D01*
X143096597Y-91434910D01*
X143092589Y-91437589D01*
X143089910Y-91441597D01*
X143089908Y-91441600D01*
X143065742Y-91477768D01*
X143040750Y-91496945D01*
X143009250Y-91496945D01*
X142984258Y-91477768D01*
X142960091Y-91441600D01*
X142957411Y-91437589D01*
X142942916Y-91427904D01*
X142916272Y-91410101D01*
X142916273Y-91410101D01*
X142912260Y-91407420D01*
X142907529Y-91406479D01*
X142907527Y-91406478D01*
X142874797Y-91399968D01*
X142874794Y-91399967D01*
X142872443Y-91399500D01*
X142870040Y-91399500D01*
X142679962Y-91399500D01*
X142679951Y-91399500D01*
X142677558Y-91399501D01*
X142675208Y-91399968D01*
X142675201Y-91399969D01*
X142642471Y-91406479D01*
X142637740Y-91407420D01*
X142633730Y-91410098D01*
X142633728Y-91410100D01*
X142596600Y-91434908D01*
X142596597Y-91434910D01*
X142592589Y-91437589D01*
X142589910Y-91441597D01*
X142589908Y-91441600D01*
X142565742Y-91477768D01*
X142540750Y-91496945D01*
X142509250Y-91496945D01*
X142484258Y-91477768D01*
X142460091Y-91441600D01*
X142457411Y-91437589D01*
X142442916Y-91427904D01*
X142416272Y-91410101D01*
X142416273Y-91410101D01*
X142412260Y-91407420D01*
X142407529Y-91406479D01*
X142407527Y-91406478D01*
X142374797Y-91399968D01*
X142374794Y-91399967D01*
X142372443Y-91399500D01*
X142370040Y-91399500D01*
X142179962Y-91399500D01*
X142179951Y-91399500D01*
X142177558Y-91399501D01*
X142175208Y-91399968D01*
X142175201Y-91399969D01*
X142142471Y-91406479D01*
X142137740Y-91407420D01*
X142133730Y-91410098D01*
X142133728Y-91410100D01*
X142096600Y-91434908D01*
X142096597Y-91434910D01*
X142092589Y-91437589D01*
X142089910Y-91441597D01*
X142089908Y-91441600D01*
X142065742Y-91477768D01*
X142062420Y-91482740D01*
X142061479Y-91487468D01*
X142061478Y-91487472D01*
X142054968Y-91520202D01*
X142054500Y-91522557D01*
X142054500Y-91524958D01*
X142054500Y-91524959D01*
X142054500Y-92075038D01*
X142054500Y-92075048D01*
X142054501Y-92077442D01*
X142054968Y-92079792D01*
X142054969Y-92079798D01*
X142059396Y-92102054D01*
X142062420Y-92117260D01*
X142065099Y-92121270D01*
X142065100Y-92121271D01*
X142084132Y-92149755D01*
X142092589Y-92162411D01*
X142137740Y-92192580D01*
X142177557Y-92200500D01*
X142372442Y-92200499D01*
X142412260Y-92192580D01*
X142457411Y-92162411D01*
X142484258Y-92122230D01*
X142509249Y-92103054D01*
X142540751Y-92103054D01*
X142565741Y-92122230D01*
X142575780Y-92137255D01*
X142584132Y-92149755D01*
X142592589Y-92162411D01*
X142637740Y-92192580D01*
X142677557Y-92200500D01*
X142872442Y-92200499D01*
X142912260Y-92192580D01*
X142957411Y-92162411D01*
X142984258Y-92122230D01*
X143009249Y-92103054D01*
X143040751Y-92103054D01*
X143065741Y-92122230D01*
X143075780Y-92137255D01*
X143084132Y-92149755D01*
X143092589Y-92162411D01*
X143137740Y-92192580D01*
X143177557Y-92200500D01*
X143372442Y-92200499D01*
X143412260Y-92192580D01*
X143457411Y-92162411D01*
X143484258Y-92122230D01*
X143509249Y-92103054D01*
X143540751Y-92103054D01*
X143565741Y-92122230D01*
X143575780Y-92137255D01*
X143584132Y-92149755D01*
X143592589Y-92162411D01*
X143637740Y-92192580D01*
X143677557Y-92200500D01*
X143872442Y-92200499D01*
X143912260Y-92192580D01*
X143957411Y-92162411D01*
X143984259Y-92122229D01*
X144009240Y-92103057D01*
X144040734Y-92103049D01*
X144065728Y-92122211D01*
X144066229Y-92122960D01*
X144074500Y-92150203D01*
X144074500Y-92157612D01*
X144073028Y-92166271D01*
X144073080Y-92166277D01*
X144072461Y-92171762D01*
X144070638Y-92176974D01*
X144071255Y-92182459D01*
X144071256Y-92182459D01*
X144074192Y-92208522D01*
X144074500Y-92214007D01*
X144074500Y-92222590D01*
X144075110Y-92225264D01*
X144075111Y-92225270D01*
X144076409Y-92230955D01*
X144077329Y-92236371D01*
X144080884Y-92267924D01*
X144083819Y-92272596D01*
X144085644Y-92277810D01*
X144085597Y-92277826D01*
X144086041Y-92278897D01*
X144086086Y-92278876D01*
X144088481Y-92283850D01*
X144089710Y-92289231D01*
X144099114Y-92301023D01*
X144109507Y-92314056D01*
X144112684Y-92318534D01*
X144115784Y-92323466D01*
X144115786Y-92323469D01*
X144117252Y-92325801D01*
X144119199Y-92327748D01*
X144123318Y-92331867D01*
X144126979Y-92335964D01*
X144143331Y-92356469D01*
X144143332Y-92356470D01*
X144146776Y-92360788D01*
X144151751Y-92363184D01*
X144156068Y-92366626D01*
X144156035Y-92366666D01*
X144163200Y-92371749D01*
X144225249Y-92433798D01*
X144230334Y-92440964D01*
X144230374Y-92440933D01*
X144233816Y-92445249D01*
X144236212Y-92450224D01*
X144261045Y-92470028D01*
X144265132Y-92473681D01*
X144271199Y-92479748D01*
X144278468Y-92484316D01*
X144282935Y-92487486D01*
X144282943Y-92487492D01*
X144307769Y-92507290D01*
X144313150Y-92508518D01*
X144318126Y-92510914D01*
X144318103Y-92510960D01*
X144319173Y-92511403D01*
X144319190Y-92511355D01*
X144324401Y-92513178D01*
X144329076Y-92516116D01*
X144360637Y-92519671D01*
X144366033Y-92520587D01*
X144374410Y-92522500D01*
X144382993Y-92522500D01*
X144388478Y-92522808D01*
X144420026Y-92526362D01*
X144425239Y-92524537D01*
X144430723Y-92523920D01*
X144430728Y-92523971D01*
X144439388Y-92522500D01*
X145580612Y-92522500D01*
X145589271Y-92523971D01*
X145589277Y-92523920D01*
X145594760Y-92524537D01*
X145599974Y-92526362D01*
X145631521Y-92522808D01*
X145637007Y-92522500D01*
X145642836Y-92522500D01*
X145645590Y-92522500D01*
X145653960Y-92520589D01*
X145659367Y-92519670D01*
X145690924Y-92516116D01*
X145695598Y-92513178D01*
X145700812Y-92511354D01*
X145700829Y-92511402D01*
X145701894Y-92510961D01*
X145701872Y-92510914D01*
X145706844Y-92508519D01*
X145712231Y-92507290D01*
X145737064Y-92487485D01*
X145741537Y-92484312D01*
X145748801Y-92479748D01*
X145754877Y-92473671D01*
X145758946Y-92470033D01*
X145783788Y-92450224D01*
X145786183Y-92445249D01*
X145789626Y-92440932D01*
X145789665Y-92440963D01*
X145794747Y-92433800D01*
X145886799Y-92341748D01*
X145893962Y-92336666D01*
X145893931Y-92336627D01*
X145898248Y-92333184D01*
X145903223Y-92330789D01*
X145923032Y-92305947D01*
X145926670Y-92301878D01*
X145932747Y-92295802D01*
X145937311Y-92288538D01*
X145940484Y-92284065D01*
X145960289Y-92259232D01*
X145961518Y-92253845D01*
X145963913Y-92248873D01*
X145963960Y-92248895D01*
X145964401Y-92247830D01*
X145964353Y-92247813D01*
X145966177Y-92242599D01*
X145969115Y-92237925D01*
X145972669Y-92206368D01*
X145973588Y-92200961D01*
X145975499Y-92192591D01*
X145975499Y-92184008D01*
X145975807Y-92178523D01*
X145978743Y-92152460D01*
X145979361Y-92146975D01*
X145979714Y-92147014D01*
X145984722Y-92126423D01*
X145983052Y-92125731D01*
X145984898Y-92121273D01*
X145987580Y-92117260D01*
X145995500Y-92077443D01*
X145995499Y-91522558D01*
X145987580Y-91482740D01*
X145957411Y-91437589D01*
X145942916Y-91427904D01*
X145916272Y-91410101D01*
X145916273Y-91410101D01*
X145912260Y-91407420D01*
X145907529Y-91406479D01*
X145907527Y-91406478D01*
X145874797Y-91399968D01*
X145874794Y-91399967D01*
X145872443Y-91399500D01*
X145870040Y-91399500D01*
X145788069Y-91399500D01*
X145755761Y-91387340D01*
X145739488Y-91356895D01*
X145747326Y-91323279D01*
X145793417Y-91254300D01*
X145808804Y-91176940D01*
X145825778Y-91148623D01*
X145856863Y-91137500D01*
X145967365Y-91137500D01*
X146002013Y-91151852D01*
X146010148Y-91159987D01*
X146024500Y-91194634D01*
X146024500Y-91245038D01*
X146024500Y-91245047D01*
X146024501Y-91247442D01*
X146024968Y-91249792D01*
X146024969Y-91249798D01*
X146028141Y-91265744D01*
X146032420Y-91287260D01*
X146035099Y-91291270D01*
X146035100Y-91291271D01*
X146041031Y-91300148D01*
X146062589Y-91332411D01*
X146107740Y-91362580D01*
X146147557Y-91370500D01*
X146702442Y-91370499D01*
X146734943Y-91364035D01*
X146763252Y-91366824D01*
X146785242Y-91384871D01*
X146793500Y-91412094D01*
X146793500Y-93148381D01*
X146779148Y-93183029D01*
X146744500Y-93197381D01*
X146709852Y-93183029D01*
X146709257Y-93182434D01*
X146706577Y-93178423D01*
X146631986Y-93128583D01*
X146627255Y-93127642D01*
X146627253Y-93127641D01*
X146548731Y-93112023D01*
X146547630Y-93111804D01*
X146547628Y-93111803D01*
X146544000Y-93111082D01*
X146544143Y-93110360D01*
X146513510Y-93097671D01*
X146450409Y-93034570D01*
X146450409Y-93034569D01*
X146435904Y-93020065D01*
X146422323Y-93016426D01*
X146410506Y-93011531D01*
X146403914Y-93007725D01*
X146403911Y-93007724D01*
X146398327Y-93004500D01*
X146391879Y-93004499D01*
X146391876Y-93004499D01*
X146324498Y-93004499D01*
X146289851Y-92990147D01*
X146275499Y-92955499D01*
X146275499Y-92761028D01*
X146275499Y-92761025D01*
X146275499Y-92758624D01*
X146268799Y-92724934D01*
X146243271Y-92686729D01*
X146205066Y-92661201D01*
X146200335Y-92660260D01*
X146200333Y-92660259D01*
X146173731Y-92654968D01*
X146173728Y-92654967D01*
X146171377Y-92654500D01*
X146168974Y-92654500D01*
X145881027Y-92654500D01*
X145881016Y-92654500D01*
X145878624Y-92654501D01*
X145876274Y-92654968D01*
X145876267Y-92654969D01*
X145849665Y-92660260D01*
X145849664Y-92660260D01*
X145844934Y-92661201D01*
X145840924Y-92663879D01*
X145840922Y-92663881D01*
X145810740Y-92684048D01*
X145810737Y-92684050D01*
X145806729Y-92686729D01*
X145804050Y-92690737D01*
X145804048Y-92690740D01*
X145783882Y-92720921D01*
X145781201Y-92724934D01*
X145780260Y-92729662D01*
X145780259Y-92729666D01*
X145774968Y-92756268D01*
X145774500Y-92758623D01*
X145774500Y-92761024D01*
X145774500Y-92761025D01*
X145774500Y-93548972D01*
X145774500Y-93548982D01*
X145774501Y-93551376D01*
X145774968Y-93553726D01*
X145774969Y-93553732D01*
X145776254Y-93560192D01*
X145781201Y-93585066D01*
X145806729Y-93623271D01*
X145844934Y-93648799D01*
X145878623Y-93655500D01*
X146171376Y-93655499D01*
X146205066Y-93648799D01*
X146243271Y-93623271D01*
X146268799Y-93585066D01*
X146275500Y-93551377D01*
X146275500Y-93506583D01*
X146285143Y-93477394D01*
X146310276Y-93459693D01*
X146341008Y-93460447D01*
X146365241Y-93479359D01*
X146381423Y-93503577D01*
X146456014Y-93553417D01*
X146544000Y-93570918D01*
X146631986Y-93553417D01*
X146706577Y-93503577D01*
X146709257Y-93499565D01*
X146709852Y-93498971D01*
X146744500Y-93484619D01*
X146779148Y-93498971D01*
X146793500Y-93533619D01*
X146793500Y-93663365D01*
X146779148Y-93698013D01*
X145922013Y-94555148D01*
X145887365Y-94569500D01*
X145520327Y-94569500D01*
X145439673Y-94569500D01*
X145434088Y-94572723D01*
X145434085Y-94572725D01*
X145427492Y-94576532D01*
X145415679Y-94581425D01*
X145402096Y-94585065D01*
X145397538Y-94589622D01*
X145397536Y-94589624D01*
X145138044Y-94849116D01*
X145116085Y-94861796D01*
X145090728Y-94861802D01*
X145089338Y-94861430D01*
X145077506Y-94856531D01*
X145070914Y-94852725D01*
X145070911Y-94852724D01*
X145065327Y-94849500D01*
X145058879Y-94849499D01*
X145058876Y-94849499D01*
X144984679Y-94849499D01*
X144984678Y-94849499D01*
X144984674Y-94849499D01*
X144984672Y-94849499D01*
X144984671Y-94849500D01*
X139960327Y-94849500D01*
X139879673Y-94849500D01*
X139874088Y-94852723D01*
X139874085Y-94852725D01*
X139867492Y-94856532D01*
X139855680Y-94861425D01*
X139854296Y-94861796D01*
X139842096Y-94865065D01*
X139837538Y-94869622D01*
X139837536Y-94869624D01*
X139811214Y-94895946D01*
X139785065Y-94922095D01*
X139785064Y-94922096D01*
X139647096Y-95060065D01*
X139619175Y-95087986D01*
X139594173Y-95112988D01*
X139569083Y-95126398D01*
X139549665Y-95130259D01*
X139549659Y-95130261D01*
X139544934Y-95131201D01*
X139540924Y-95133879D01*
X139540922Y-95133881D01*
X139510740Y-95154048D01*
X139510737Y-95154050D01*
X139506729Y-95156729D01*
X139504050Y-95160737D01*
X139504048Y-95160740D01*
X139483882Y-95190921D01*
X139481201Y-95194934D01*
X139480260Y-95199662D01*
X139480259Y-95199666D01*
X139474968Y-95226268D01*
X139474500Y-95228623D01*
X139474500Y-95231024D01*
X139474500Y-95231025D01*
X139474500Y-96018974D01*
X139474500Y-96018984D01*
X139474501Y-96021376D01*
X139474968Y-96023725D01*
X139475163Y-96025701D01*
X139470345Y-96052174D01*
X139452273Y-96072112D01*
X139426399Y-96079500D01*
X139423602Y-96079500D01*
X139397727Y-96072111D01*
X139379656Y-96052174D01*
X139374838Y-96025700D01*
X139375031Y-96023733D01*
X139375500Y-96021377D01*
X139375499Y-95228624D01*
X139368799Y-95194934D01*
X139343271Y-95156729D01*
X139339113Y-95153951D01*
X139309078Y-95133882D01*
X139305066Y-95131201D01*
X139300335Y-95130260D01*
X139300333Y-95130259D01*
X139273731Y-95124968D01*
X139273728Y-95124967D01*
X139271377Y-95124500D01*
X139268974Y-95124500D01*
X139135883Y-95124500D01*
X139108660Y-95116242D01*
X139090613Y-95094252D01*
X139087824Y-95065941D01*
X139103977Y-94984731D01*
X139104918Y-94980000D01*
X139087417Y-94892014D01*
X139037577Y-94817423D01*
X138962986Y-94767583D01*
X138958255Y-94766642D01*
X138958253Y-94766641D01*
X138879731Y-94751023D01*
X138875000Y-94750082D01*
X138870269Y-94751023D01*
X138791746Y-94766641D01*
X138791742Y-94766642D01*
X138787014Y-94767583D01*
X138783002Y-94770263D01*
X138783001Y-94770264D01*
X138716434Y-94814742D01*
X138716431Y-94814744D01*
X138712423Y-94817423D01*
X138709744Y-94821431D01*
X138709742Y-94821434D01*
X138665811Y-94887183D01*
X138662583Y-94892014D01*
X138661641Y-94896745D01*
X138659794Y-94901207D01*
X138658779Y-94900786D01*
X138649839Y-94918179D01*
X138630950Y-94929500D01*
X138629673Y-94929500D01*
X138624088Y-94932724D01*
X138624086Y-94932725D01*
X138617492Y-94936532D01*
X138605679Y-94941425D01*
X138592096Y-94945065D01*
X138587538Y-94949622D01*
X138587536Y-94949624D01*
X138535064Y-95002096D01*
X138447096Y-95090065D01*
X138447094Y-95090065D01*
X138447095Y-95090066D01*
X138427009Y-95110150D01*
X138392366Y-95124500D01*
X138381028Y-95124500D01*
X138381018Y-95124500D01*
X138378624Y-95124501D01*
X138376274Y-95124968D01*
X138376267Y-95124969D01*
X138349665Y-95130260D01*
X138349664Y-95130260D01*
X138344934Y-95131201D01*
X138340924Y-95133879D01*
X138340922Y-95133881D01*
X138310740Y-95154048D01*
X138310737Y-95154050D01*
X138306729Y-95156729D01*
X138304050Y-95160737D01*
X138304048Y-95160740D01*
X138283882Y-95190921D01*
X138281201Y-95194934D01*
X138280260Y-95199662D01*
X138280259Y-95199666D01*
X138274968Y-95226268D01*
X138274500Y-95228623D01*
X138274500Y-95231024D01*
X138274500Y-95231025D01*
X138274500Y-96018974D01*
X138274500Y-96018984D01*
X138274501Y-96021376D01*
X138274968Y-96023725D01*
X138275163Y-96025701D01*
X138270345Y-96052174D01*
X138252273Y-96072112D01*
X138226399Y-96079500D01*
X138159000Y-96079500D01*
X138124352Y-96065148D01*
X138110000Y-96030500D01*
X138110000Y-95664747D01*
X138107145Y-95657854D01*
X138100253Y-95655000D01*
X137764000Y-95655000D01*
X137729352Y-95640648D01*
X137715000Y-95606000D01*
X137715000Y-95495253D01*
X137865000Y-95495253D01*
X137867854Y-95502145D01*
X137874747Y-95505000D01*
X138100252Y-95505000D01*
X138107144Y-95502145D01*
X138109999Y-95495253D01*
X138109999Y-95113616D01*
X138109530Y-95108855D01*
X138102818Y-95075108D01*
X138099195Y-95066362D01*
X138073614Y-95028075D01*
X138066924Y-95021385D01*
X138028637Y-94995804D01*
X138019890Y-94992181D01*
X137986154Y-94985470D01*
X137981379Y-94985000D01*
X137874747Y-94985000D01*
X137867854Y-94987854D01*
X137865000Y-94994747D01*
X137865000Y-95495253D01*
X137715000Y-95495253D01*
X137715000Y-94994748D01*
X137712145Y-94987855D01*
X137705253Y-94985001D01*
X137598616Y-94985001D01*
X137593855Y-94985469D01*
X137560108Y-94992181D01*
X137551362Y-94995804D01*
X137521722Y-95015608D01*
X137488103Y-95023446D01*
X137457660Y-95007173D01*
X137445500Y-94974865D01*
X137445500Y-93550893D01*
X138555001Y-93550893D01*
X138555469Y-93555650D01*
X138561892Y-93587944D01*
X138565512Y-93596683D01*
X138589990Y-93633319D01*
X138596680Y-93640009D01*
X138633313Y-93664485D01*
X138642061Y-93668108D01*
X138674337Y-93674529D01*
X138679113Y-93675000D01*
X138740253Y-93675000D01*
X138747145Y-93672145D01*
X138750000Y-93665253D01*
X138750000Y-93239747D01*
X138747145Y-93232854D01*
X138740253Y-93230000D01*
X138564748Y-93230000D01*
X138557855Y-93232854D01*
X138555001Y-93239747D01*
X138555001Y-93550893D01*
X137445500Y-93550893D01*
X137445500Y-91669263D01*
X137725001Y-91669263D01*
X137725469Y-91674020D01*
X137736823Y-91731107D01*
X137740446Y-91739852D01*
X137783708Y-91804599D01*
X137790400Y-91811291D01*
X137855148Y-91854554D01*
X137863892Y-91858176D01*
X137920967Y-91869529D01*
X137925743Y-91870000D01*
X137960253Y-91870000D01*
X137967145Y-91867145D01*
X137970000Y-91860253D01*
X137970000Y-91604747D01*
X137967145Y-91597854D01*
X137960253Y-91595000D01*
X137734748Y-91595000D01*
X137727855Y-91597854D01*
X137725001Y-91604747D01*
X137725001Y-91669263D01*
X137445500Y-91669263D01*
X137445500Y-89215253D01*
X137805000Y-89215253D01*
X137807854Y-89222145D01*
X137814747Y-89225000D01*
X138040253Y-89225000D01*
X138047145Y-89222145D01*
X138050000Y-89215253D01*
X138200000Y-89215253D01*
X138202854Y-89222145D01*
X138209747Y-89225000D01*
X138435252Y-89225000D01*
X138442144Y-89222145D01*
X138444999Y-89215253D01*
X138444999Y-89150737D01*
X138444530Y-89145979D01*
X138433176Y-89088892D01*
X138429553Y-89080147D01*
X138386291Y-89015400D01*
X138379599Y-89008708D01*
X138314851Y-88965445D01*
X138306107Y-88961823D01*
X138249032Y-88950470D01*
X138244257Y-88950000D01*
X138209747Y-88950000D01*
X138202854Y-88952854D01*
X138200000Y-88959747D01*
X138200000Y-89215253D01*
X138050000Y-89215253D01*
X138050000Y-88959748D01*
X138047145Y-88952855D01*
X138040253Y-88950001D01*
X138005737Y-88950001D01*
X138000979Y-88950469D01*
X137943892Y-88961823D01*
X137935147Y-88965446D01*
X137870400Y-89008708D01*
X137863708Y-89015400D01*
X137820445Y-89080148D01*
X137816823Y-89088892D01*
X137805470Y-89145967D01*
X137805000Y-89150743D01*
X137805000Y-89215253D01*
X137445500Y-89215253D01*
X137445500Y-87765253D01*
X137825000Y-87765253D01*
X137827854Y-87772145D01*
X137834747Y-87775000D01*
X138060253Y-87775000D01*
X138067145Y-87772145D01*
X138070000Y-87765253D01*
X138070000Y-87509748D01*
X138067145Y-87502855D01*
X138060253Y-87500001D01*
X138025737Y-87500001D01*
X138020979Y-87500469D01*
X137963892Y-87511823D01*
X137955147Y-87515446D01*
X137890400Y-87558708D01*
X137883708Y-87565400D01*
X137840445Y-87630148D01*
X137836823Y-87638892D01*
X137825470Y-87695967D01*
X137825000Y-87700743D01*
X137825000Y-87765253D01*
X137445500Y-87765253D01*
X137445500Y-86204110D01*
X137445500Y-86201969D01*
X137445166Y-86200079D01*
X137445000Y-86196251D01*
X137445000Y-84972230D01*
X137459352Y-84937582D01*
X137494000Y-84923230D01*
X137528648Y-84937582D01*
G37*
%TD.AperFunction*%
%TA.AperFunction,Conductor*%
G36*
X144243751Y-95541303D02*
G01*
X144264747Y-95550000D01*
X144551000Y-95550000D01*
X144585648Y-95564352D01*
X144600000Y-95599000D01*
X144600000Y-95651000D01*
X144585648Y-95685648D01*
X144551000Y-95700000D01*
X144264748Y-95700000D01*
X144243750Y-95708697D01*
X144206249Y-95708696D01*
X144185254Y-95700000D01*
X143899000Y-95700000D01*
X143864352Y-95685648D01*
X143850000Y-95651000D01*
X143850000Y-95599000D01*
X143864352Y-95564352D01*
X143899000Y-95550000D01*
X144185252Y-95550000D01*
X144206247Y-95541303D01*
X144224999Y-95537573D01*
X144243751Y-95541303D01*
G37*
%TD.AperFunction*%
%TA.AperFunction,Conductor*%
G36*
X142443751Y-95541303D02*
G01*
X142464747Y-95550000D01*
X142751000Y-95550000D01*
X142785648Y-95564352D01*
X142800000Y-95599000D01*
X142800000Y-95651000D01*
X142785648Y-95685648D01*
X142751000Y-95700000D01*
X142464748Y-95700000D01*
X142443750Y-95708697D01*
X142406249Y-95708696D01*
X142385254Y-95700000D01*
X142099000Y-95700000D01*
X142064352Y-95685648D01*
X142050000Y-95651000D01*
X142050000Y-95599000D01*
X142064352Y-95564352D01*
X142099000Y-95550000D01*
X142385252Y-95550000D01*
X142406247Y-95541303D01*
X142424999Y-95537573D01*
X142443751Y-95541303D01*
G37*
%TD.AperFunction*%
%TA.AperFunction,Conductor*%
G36*
X140643751Y-95541303D02*
G01*
X140664747Y-95550000D01*
X140951000Y-95550000D01*
X140985648Y-95564352D01*
X141000000Y-95599000D01*
X141000000Y-95651000D01*
X140985648Y-95685648D01*
X140951000Y-95700000D01*
X140664748Y-95700000D01*
X140643750Y-95708697D01*
X140606249Y-95708696D01*
X140585254Y-95700000D01*
X140299000Y-95700000D01*
X140264352Y-95685648D01*
X140250000Y-95651000D01*
X140250000Y-95599000D01*
X140264352Y-95564352D01*
X140299000Y-95550000D01*
X140585252Y-95550000D01*
X140606247Y-95541303D01*
X140624999Y-95537573D01*
X140643751Y-95541303D01*
G37*
%TD.AperFunction*%
%TA.AperFunction,Conductor*%
G36*
X144565727Y-87322211D02*
G01*
X144566226Y-87322957D01*
X144574498Y-87350200D01*
X144574498Y-87503608D01*
X144573026Y-87512267D01*
X144573078Y-87512273D01*
X144572459Y-87517758D01*
X144570636Y-87522970D01*
X144571253Y-87528455D01*
X144571254Y-87528455D01*
X144574190Y-87554518D01*
X144574498Y-87560003D01*
X144574498Y-87568586D01*
X144575108Y-87571260D01*
X144575109Y-87571266D01*
X144576407Y-87576951D01*
X144577327Y-87582367D01*
X144579229Y-87599253D01*
X144580882Y-87613920D01*
X144583817Y-87618592D01*
X144585642Y-87623806D01*
X144585595Y-87623822D01*
X144586043Y-87624903D01*
X144586089Y-87624882D01*
X144587349Y-87627500D01*
X144588306Y-87630366D01*
X144588955Y-87631931D01*
X144589225Y-87633116D01*
X144589228Y-87633126D01*
X144589708Y-87635227D01*
X144590091Y-87635707D01*
X144591255Y-87639189D01*
X144597083Y-87668483D01*
X144595943Y-87668709D01*
X144597578Y-87693686D01*
X144580077Y-87719876D01*
X144550249Y-87730000D01*
X144109747Y-87730000D01*
X144102854Y-87732854D01*
X144100000Y-87739747D01*
X144100000Y-89426000D01*
X144085648Y-89460648D01*
X144051000Y-89475000D01*
X143999000Y-89475000D01*
X143964352Y-89460648D01*
X143950000Y-89426000D01*
X143950000Y-87739747D01*
X143947145Y-87732854D01*
X143940253Y-87730000D01*
X143434295Y-87730000D01*
X143404466Y-87719875D01*
X143386965Y-87693683D01*
X143388635Y-87668178D01*
X143387667Y-87667986D01*
X143404227Y-87584731D01*
X143405168Y-87580000D01*
X143387667Y-87492014D01*
X143372648Y-87469536D01*
X143364496Y-87439106D01*
X143376554Y-87410002D01*
X143403835Y-87394255D01*
X143412260Y-87392580D01*
X143457411Y-87362411D01*
X143484258Y-87322230D01*
X143509249Y-87303054D01*
X143540751Y-87303054D01*
X143565741Y-87322230D01*
X143575797Y-87337280D01*
X143589156Y-87357274D01*
X143592589Y-87362411D01*
X143637740Y-87392580D01*
X143677557Y-87400500D01*
X143872442Y-87400499D01*
X143912260Y-87392580D01*
X143957411Y-87362411D01*
X143984258Y-87322230D01*
X144009249Y-87303054D01*
X144040751Y-87303054D01*
X144065741Y-87322230D01*
X144075797Y-87337280D01*
X144089156Y-87357274D01*
X144092589Y-87362411D01*
X144137740Y-87392580D01*
X144177557Y-87400500D01*
X144372442Y-87400499D01*
X144412260Y-87392580D01*
X144457411Y-87362411D01*
X144484259Y-87322229D01*
X144509240Y-87303057D01*
X144540734Y-87303049D01*
X144565727Y-87322211D01*
G37*
%TD.AperFunction*%
%TA.AperFunction,Conductor*%
G36*
X145065741Y-87322230D02*
G01*
X145075797Y-87337280D01*
X145089156Y-87357274D01*
X145092589Y-87362411D01*
X145137740Y-87392580D01*
X145177557Y-87400500D01*
X145372442Y-87400499D01*
X145412260Y-87392580D01*
X145457411Y-87362411D01*
X145484258Y-87322230D01*
X145509249Y-87303054D01*
X145540751Y-87303054D01*
X145565741Y-87322230D01*
X145575797Y-87337280D01*
X145589156Y-87357274D01*
X145592589Y-87362411D01*
X145637740Y-87392580D01*
X145677557Y-87400500D01*
X145807350Y-87400499D01*
X145834572Y-87408757D01*
X145852619Y-87430747D01*
X145855408Y-87459058D01*
X145853783Y-87467226D01*
X145844082Y-87516000D01*
X145845023Y-87520731D01*
X145860641Y-87599253D01*
X145860642Y-87599255D01*
X145861583Y-87603986D01*
X145868221Y-87613920D01*
X145883666Y-87637036D01*
X145890982Y-87673819D01*
X145870147Y-87705001D01*
X145833365Y-87712318D01*
X145804231Y-87706523D01*
X145799500Y-87705582D01*
X145794769Y-87706523D01*
X145716246Y-87722141D01*
X145716242Y-87722142D01*
X145711514Y-87723083D01*
X145707503Y-87725762D01*
X145707498Y-87725765D01*
X145661908Y-87756227D01*
X145634686Y-87764485D01*
X145607464Y-87756228D01*
X145588025Y-87743239D01*
X145579280Y-87739617D01*
X145533282Y-87730468D01*
X145528525Y-87730000D01*
X145068751Y-87730000D01*
X145038921Y-87719874D01*
X145021420Y-87693681D01*
X145023057Y-87668710D01*
X145021917Y-87668484D01*
X145038477Y-87585229D01*
X145039418Y-87580498D01*
X145021917Y-87492512D01*
X144983755Y-87435399D01*
X144975498Y-87408177D01*
X144975498Y-87350206D01*
X144983744Y-87323001D01*
X144984246Y-87322249D01*
X145009236Y-87303059D01*
X145040744Y-87303052D01*
X145065741Y-87322230D01*
G37*
%TD.AperFunction*%
%TA.AperFunction,Conductor*%
G36*
X142915386Y-81914352D02*
G01*
X142947508Y-81946474D01*
X143031992Y-81995251D01*
X143126223Y-82020500D01*
X143139618Y-82020500D01*
X143175000Y-82020500D01*
X143207288Y-82020500D01*
X146232706Y-82020500D01*
X146262171Y-82030348D01*
X146279791Y-82055935D01*
X146278484Y-82086974D01*
X146258776Y-82110989D01*
X146135069Y-82188718D01*
X146135061Y-82188724D01*
X146132738Y-82190184D01*
X146130794Y-82192127D01*
X146130790Y-82192131D01*
X146007131Y-82315790D01*
X146007127Y-82315794D01*
X146005184Y-82317738D01*
X146003724Y-82320061D01*
X146003718Y-82320069D01*
X145910675Y-82468147D01*
X145910672Y-82468151D01*
X145909211Y-82470478D01*
X145908302Y-82473072D01*
X145908302Y-82473075D01*
X145850540Y-82638147D01*
X145850537Y-82638155D01*
X145849632Y-82640745D01*
X145849324Y-82643477D01*
X145849324Y-82643478D01*
X145834653Y-82773679D01*
X145834651Y-82773696D01*
X145834500Y-82775046D01*
X145834500Y-84064954D01*
X145834652Y-84066303D01*
X145834653Y-84066320D01*
X145848556Y-84189701D01*
X145849632Y-84199255D01*
X145850538Y-84201846D01*
X145850540Y-84201852D01*
X145894048Y-84326188D01*
X145909211Y-84369522D01*
X145910674Y-84371851D01*
X145910675Y-84371852D01*
X146003718Y-84519930D01*
X146003721Y-84519934D01*
X146005184Y-84522262D01*
X146132738Y-84649816D01*
X146135067Y-84651279D01*
X146135069Y-84651281D01*
X146194077Y-84688358D01*
X146285478Y-84745789D01*
X146308220Y-84753746D01*
X146309658Y-84754250D01*
X146335678Y-84775604D01*
X146341782Y-84808708D01*
X146325087Y-84837938D01*
X146293474Y-84849500D01*
X146147388Y-84849500D01*
X146138728Y-84848028D01*
X146138723Y-84848080D01*
X146133238Y-84847461D01*
X146128026Y-84845638D01*
X146122539Y-84846256D01*
X146096478Y-84849192D01*
X146090993Y-84849500D01*
X146082410Y-84849500D01*
X146079734Y-84850110D01*
X146079721Y-84850112D01*
X146074038Y-84851409D01*
X146068631Y-84852328D01*
X146042561Y-84855265D01*
X146042556Y-84855266D01*
X146037076Y-84855884D01*
X146032402Y-84858820D01*
X146027191Y-84860644D01*
X146027174Y-84860597D01*
X146026103Y-84861041D01*
X146026125Y-84861086D01*
X146021151Y-84863481D01*
X146015769Y-84864710D01*
X146011452Y-84868152D01*
X146011451Y-84868153D01*
X145990936Y-84884512D01*
X145986465Y-84887685D01*
X145981531Y-84890786D01*
X145981529Y-84890787D01*
X145979199Y-84892252D01*
X145977256Y-84894194D01*
X145977253Y-84894197D01*
X145973131Y-84898319D01*
X145969041Y-84901973D01*
X145948526Y-84918334D01*
X145948522Y-84918338D01*
X145944212Y-84921776D01*
X145941818Y-84926745D01*
X145938375Y-84931064D01*
X145938336Y-84931033D01*
X145933250Y-84938199D01*
X145708803Y-85162648D01*
X145692907Y-85173270D01*
X145674155Y-85177000D01*
X145568579Y-85177000D01*
X145559020Y-85176058D01*
X145507736Y-85165857D01*
X145503000Y-85164915D01*
X145498264Y-85165857D01*
X145426383Y-85180154D01*
X145426378Y-85180155D01*
X145421647Y-85181097D01*
X145417635Y-85183777D01*
X145417632Y-85183779D01*
X145356693Y-85224498D01*
X145356691Y-85224499D01*
X145352680Y-85227180D01*
X145350001Y-85231188D01*
X145349995Y-85231195D01*
X145329323Y-85262133D01*
X145311681Y-85278123D01*
X145304722Y-85281842D01*
X145137647Y-85448917D01*
X145102999Y-85463269D01*
X145068351Y-85448917D01*
X144901276Y-85281842D01*
X144896385Y-85279228D01*
X144892097Y-85282747D01*
X144890907Y-85284528D01*
X144887287Y-85293268D01*
X144871474Y-85372769D01*
X144871474Y-85382231D01*
X144887286Y-85461728D01*
X144890909Y-85470474D01*
X144894293Y-85475538D01*
X144901611Y-85512319D01*
X144880779Y-85543502D01*
X144874436Y-85547740D01*
X144874431Y-85547744D01*
X144870423Y-85550423D01*
X144867742Y-85554434D01*
X144867741Y-85554436D01*
X144824032Y-85619852D01*
X144820583Y-85625014D01*
X144819642Y-85629742D01*
X144819641Y-85629746D01*
X144806788Y-85694367D01*
X144803082Y-85713000D01*
X144804023Y-85717731D01*
X144819641Y-85796253D01*
X144819642Y-85796255D01*
X144820583Y-85800986D01*
X144842451Y-85833714D01*
X144866849Y-85870229D01*
X144870423Y-85875577D01*
X144874434Y-85878257D01*
X144907151Y-85900118D01*
X144927986Y-85931299D01*
X144920671Y-85968081D01*
X144909280Y-85985130D01*
X144909278Y-85985134D01*
X144906597Y-85989147D01*
X144905655Y-85993880D01*
X144905655Y-85993881D01*
X144904413Y-86000124D01*
X144897099Y-86017780D01*
X144874644Y-86051388D01*
X144873703Y-86056117D01*
X144873703Y-86056118D01*
X144868991Y-86079808D01*
X144857143Y-86139374D01*
X144858084Y-86144105D01*
X144873702Y-86222627D01*
X144873703Y-86222629D01*
X144874644Y-86227360D01*
X144891184Y-86252114D01*
X144916083Y-86289379D01*
X144924484Y-86301951D01*
X144999075Y-86351791D01*
X145087061Y-86369292D01*
X145175047Y-86351791D01*
X145249638Y-86301951D01*
X145266234Y-86277114D01*
X145404727Y-86277114D01*
X145408246Y-86281401D01*
X145410026Y-86282591D01*
X145418769Y-86286212D01*
X145500356Y-86302441D01*
X145503000Y-86304115D01*
X145505644Y-86302441D01*
X145587230Y-86286212D01*
X145595972Y-86282591D01*
X145597752Y-86281401D01*
X145601759Y-86276519D01*
X145602112Y-86272929D01*
X145596576Y-86270142D01*
X145509892Y-86183458D01*
X145502999Y-86180603D01*
X145496107Y-86183458D01*
X145407341Y-86272223D01*
X145404727Y-86277114D01*
X145266234Y-86277114D01*
X145299478Y-86227360D01*
X145311328Y-86167780D01*
X145324738Y-86142694D01*
X145503000Y-85964434D01*
X145598656Y-85868776D01*
X145601271Y-85863884D01*
X145597754Y-85859598D01*
X145595971Y-85858407D01*
X145587231Y-85854787D01*
X145541345Y-85845660D01*
X145518596Y-85834441D01*
X145504504Y-85813351D01*
X145502846Y-85788043D01*
X145515585Y-85724000D01*
X145513668Y-85714365D01*
X145499403Y-85642647D01*
X145500711Y-85642386D01*
X145498678Y-85621794D01*
X145512087Y-85596699D01*
X145537176Y-85583286D01*
X145559029Y-85578940D01*
X145568579Y-85578000D01*
X145735112Y-85578000D01*
X145743771Y-85579471D01*
X145743777Y-85579420D01*
X145749260Y-85580037D01*
X145754474Y-85581862D01*
X145786021Y-85578308D01*
X145791507Y-85578000D01*
X145797336Y-85578000D01*
X145800090Y-85578000D01*
X145808460Y-85576089D01*
X145813867Y-85575170D01*
X145845424Y-85571616D01*
X145850098Y-85568678D01*
X145855312Y-85566854D01*
X145855329Y-85566902D01*
X145856394Y-85566461D01*
X145856372Y-85566414D01*
X145861344Y-85564019D01*
X145866731Y-85562790D01*
X145891564Y-85542985D01*
X145896037Y-85539812D01*
X145903301Y-85535248D01*
X145909377Y-85529171D01*
X145913446Y-85525533D01*
X145938288Y-85505724D01*
X145938288Y-85505723D01*
X145938970Y-85506577D01*
X145957427Y-85494240D01*
X145987178Y-85495071D01*
X146010961Y-85512966D01*
X146020000Y-85541322D01*
X146020000Y-85629263D01*
X146020469Y-85634020D01*
X146031823Y-85691107D01*
X146035446Y-85699852D01*
X146078708Y-85764599D01*
X146085398Y-85771289D01*
X146087029Y-85772379D01*
X146105076Y-85794367D01*
X146107867Y-85822675D01*
X146095838Y-85845187D01*
X146095448Y-85845448D01*
X146092771Y-85849453D01*
X146092770Y-85849455D01*
X146053815Y-85907754D01*
X146053813Y-85907757D01*
X146051133Y-85911769D01*
X146050833Y-85913273D01*
X146036903Y-85931426D01*
X146013470Y-85941132D01*
X145988322Y-85937821D01*
X145985368Y-85936597D01*
X145981354Y-85933915D01*
X145976619Y-85932973D01*
X145898099Y-85917355D01*
X145893368Y-85916414D01*
X145888637Y-85917355D01*
X145810114Y-85932973D01*
X145810110Y-85932974D01*
X145805382Y-85933915D01*
X145801370Y-85936595D01*
X145801369Y-85936596D01*
X145757077Y-85966191D01*
X145727447Y-85974390D01*
X145723832Y-85972995D01*
X145723813Y-85973196D01*
X145710293Y-85971864D01*
X145704723Y-85974841D01*
X145615958Y-86063607D01*
X145613103Y-86070500D01*
X145615958Y-86077392D01*
X145650039Y-86111473D01*
X145663783Y-86144654D01*
X145663450Y-86146332D01*
X145664391Y-86151063D01*
X145679283Y-86225935D01*
X145677656Y-86239122D01*
X145691638Y-86250313D01*
X145728110Y-86304897D01*
X145730791Y-86308909D01*
X145734802Y-86311589D01*
X145738216Y-86315003D01*
X145737057Y-86316161D01*
X145750973Y-86333988D01*
X145751730Y-86364721D01*
X145734030Y-86389856D01*
X145704839Y-86399500D01*
X145515203Y-86399500D01*
X145503000Y-86394792D01*
X145490797Y-86399500D01*
X145465327Y-86399500D01*
X145384673Y-86399500D01*
X145379088Y-86402723D01*
X145379085Y-86402725D01*
X145372492Y-86406532D01*
X145360679Y-86411425D01*
X145347096Y-86415065D01*
X145342538Y-86419622D01*
X145342536Y-86419624D01*
X145290064Y-86472096D01*
X145197096Y-86565065D01*
X145197093Y-86565066D01*
X145169470Y-86592688D01*
X145144388Y-86606096D01*
X145142479Y-86606475D01*
X145142467Y-86606479D01*
X145137740Y-86607420D01*
X145133728Y-86610100D01*
X145133727Y-86610101D01*
X145096600Y-86634908D01*
X145096597Y-86634910D01*
X145092589Y-86637589D01*
X145089910Y-86641597D01*
X145089908Y-86641600D01*
X145065742Y-86677768D01*
X145040750Y-86696945D01*
X145009250Y-86696945D01*
X144984258Y-86677768D01*
X144960091Y-86641600D01*
X144957411Y-86637589D01*
X144952050Y-86634007D01*
X144931087Y-86620000D01*
X144912260Y-86607420D01*
X144907529Y-86606479D01*
X144907527Y-86606478D01*
X144874797Y-86599968D01*
X144874794Y-86599967D01*
X144872443Y-86599500D01*
X144870040Y-86599500D01*
X144850924Y-86599500D01*
X144818616Y-86587340D01*
X144802343Y-86556895D01*
X144810182Y-86523277D01*
X144811727Y-86520965D01*
X144822891Y-86504257D01*
X144840392Y-86416271D01*
X144822891Y-86328285D01*
X144773051Y-86253694D01*
X144767145Y-86249748D01*
X144726554Y-86222626D01*
X144698460Y-86203854D01*
X144693729Y-86202913D01*
X144693727Y-86202912D01*
X144664941Y-86197187D01*
X144636623Y-86180213D01*
X144625500Y-86149128D01*
X144625500Y-85872662D01*
X144625500Y-85870252D01*
X144613867Y-85811769D01*
X144569552Y-85745448D01*
X144565538Y-85742766D01*
X144562509Y-85740742D01*
X144543332Y-85715751D01*
X144543332Y-85684249D01*
X144562509Y-85659258D01*
X144569552Y-85654552D01*
X144613867Y-85588231D01*
X144625500Y-85529748D01*
X144625500Y-85230252D01*
X144613867Y-85171769D01*
X144613276Y-85170885D01*
X145004728Y-85170885D01*
X145007342Y-85175776D01*
X145098438Y-85266872D01*
X145103000Y-85269505D01*
X145107561Y-85266872D01*
X145198656Y-85175776D01*
X145201271Y-85170884D01*
X145197754Y-85166598D01*
X145195971Y-85165407D01*
X145187231Y-85161787D01*
X145107731Y-85145974D01*
X145098269Y-85145974D01*
X145018768Y-85161787D01*
X145010028Y-85165407D01*
X145008247Y-85166597D01*
X145004728Y-85170885D01*
X144613276Y-85170885D01*
X144569552Y-85105448D01*
X144554514Y-85095400D01*
X144507245Y-85063815D01*
X144507244Y-85063814D01*
X144503231Y-85061133D01*
X144498497Y-85060191D01*
X144498494Y-85060190D01*
X144447114Y-85049970D01*
X144447107Y-85049969D01*
X144444748Y-85049500D01*
X144205252Y-85049500D01*
X144202893Y-85049969D01*
X144202885Y-85049970D01*
X144151505Y-85060190D01*
X144151500Y-85060191D01*
X144146769Y-85061133D01*
X144142757Y-85063813D01*
X144142754Y-85063815D01*
X144084459Y-85102767D01*
X144084456Y-85102769D01*
X144080448Y-85105448D01*
X144077769Y-85109456D01*
X144077767Y-85109459D01*
X144064545Y-85129247D01*
X144046902Y-85145237D01*
X144026427Y-85150365D01*
X144025000Y-85150082D01*
X144020269Y-85151023D01*
X143941746Y-85166641D01*
X143941742Y-85166642D01*
X143937014Y-85167583D01*
X143933002Y-85170263D01*
X143933001Y-85170264D01*
X143866434Y-85214742D01*
X143866431Y-85214744D01*
X143865576Y-85215315D01*
X143865574Y-85215317D01*
X143862423Y-85217423D01*
X143862075Y-85216902D01*
X143834650Y-85229324D01*
X143801616Y-85219297D01*
X143785394Y-85193199D01*
X143785024Y-85193353D01*
X143784094Y-85191109D01*
X143783392Y-85189979D01*
X143783175Y-85188891D01*
X143779553Y-85180147D01*
X143736291Y-85115400D01*
X143729599Y-85108708D01*
X143664851Y-85065445D01*
X143656107Y-85061823D01*
X143599032Y-85050470D01*
X143594257Y-85050000D01*
X143559747Y-85050000D01*
X143552854Y-85052854D01*
X143550000Y-85059747D01*
X143550000Y-85426000D01*
X143535648Y-85460648D01*
X143501000Y-85475000D01*
X143164747Y-85475000D01*
X143154107Y-85479407D01*
X143116604Y-85479405D01*
X143097112Y-85459912D01*
X143085253Y-85455000D01*
X142464748Y-85455000D01*
X142457855Y-85457854D01*
X142455001Y-85464747D01*
X142455001Y-85529263D01*
X142455469Y-85534020D01*
X142466823Y-85591107D01*
X142470446Y-85599852D01*
X142513708Y-85664599D01*
X142520398Y-85671289D01*
X142522029Y-85672379D01*
X142540076Y-85694367D01*
X142542867Y-85722675D01*
X142530838Y-85745187D01*
X142530448Y-85745448D01*
X142527771Y-85749453D01*
X142527770Y-85749455D01*
X142495518Y-85797723D01*
X142477874Y-85813714D01*
X142454776Y-85819500D01*
X142376347Y-85819500D01*
X142345262Y-85808378D01*
X142328289Y-85780060D01*
X142326179Y-85769455D01*
X142321546Y-85746161D01*
X142268391Y-85666609D01*
X142257392Y-85659260D01*
X142192853Y-85616136D01*
X142192852Y-85616135D01*
X142188839Y-85613454D01*
X142184105Y-85612512D01*
X142184102Y-85612511D01*
X142121054Y-85599970D01*
X142121047Y-85599969D01*
X142118688Y-85599500D01*
X142116278Y-85599500D01*
X141848345Y-85599500D01*
X141813697Y-85585148D01*
X141732197Y-85503648D01*
X141717845Y-85469000D01*
X141732197Y-85434352D01*
X141766845Y-85420000D01*
X141840253Y-85420000D01*
X141847145Y-85417145D01*
X141850000Y-85410253D01*
X141850000Y-85410252D01*
X142000000Y-85410252D01*
X142002854Y-85417144D01*
X142009747Y-85419999D01*
X142118205Y-85419999D01*
X142122962Y-85419530D01*
X142191714Y-85405856D01*
X142200459Y-85402233D01*
X142278438Y-85350130D01*
X142285130Y-85343438D01*
X142317326Y-85295253D01*
X142455000Y-85295253D01*
X142457854Y-85302145D01*
X142464747Y-85305000D01*
X142690253Y-85305000D01*
X142697145Y-85302145D01*
X142700000Y-85295253D01*
X142850000Y-85295253D01*
X142852854Y-85302145D01*
X142859747Y-85305000D01*
X143085250Y-85305000D01*
X143095889Y-85300593D01*
X143121037Y-85297282D01*
X143144471Y-85306988D01*
X143155284Y-85321080D01*
X143164747Y-85325000D01*
X143390253Y-85325000D01*
X143397145Y-85322145D01*
X143400000Y-85315253D01*
X143400000Y-85059748D01*
X143397145Y-85052855D01*
X143390253Y-85050001D01*
X143355737Y-85050001D01*
X143350979Y-85050469D01*
X143293892Y-85061823D01*
X143285147Y-85065446D01*
X143220400Y-85108708D01*
X143213708Y-85115400D01*
X143170381Y-85180244D01*
X143142321Y-85200351D01*
X143107966Y-85196968D01*
X143084369Y-85171772D01*
X143079554Y-85160148D01*
X143036291Y-85095400D01*
X143029599Y-85088708D01*
X142964851Y-85045445D01*
X142956107Y-85041823D01*
X142899032Y-85030470D01*
X142894257Y-85030000D01*
X142859747Y-85030000D01*
X142852854Y-85032854D01*
X142850000Y-85039747D01*
X142850000Y-85295253D01*
X142700000Y-85295253D01*
X142700000Y-85039748D01*
X142697145Y-85032855D01*
X142690253Y-85030001D01*
X142655737Y-85030001D01*
X142650979Y-85030469D01*
X142593892Y-85041823D01*
X142585147Y-85045446D01*
X142520400Y-85088708D01*
X142513708Y-85095400D01*
X142470445Y-85160148D01*
X142466823Y-85168892D01*
X142455470Y-85225967D01*
X142455000Y-85230743D01*
X142455000Y-85295253D01*
X142317326Y-85295253D01*
X142337232Y-85265461D01*
X142340857Y-85256710D01*
X142354529Y-85187975D01*
X142355000Y-85183199D01*
X142355000Y-85104747D01*
X142352145Y-85097854D01*
X142345253Y-85095000D01*
X142009747Y-85095000D01*
X142002854Y-85097854D01*
X142000000Y-85104747D01*
X142000000Y-85410252D01*
X141850000Y-85410252D01*
X141850000Y-85104747D01*
X141847145Y-85097854D01*
X141840253Y-85095000D01*
X141504748Y-85095000D01*
X141497855Y-85097854D01*
X141495001Y-85104747D01*
X141495001Y-85183205D01*
X141495469Y-85187967D01*
X141498760Y-85204513D01*
X141495238Y-85234502D01*
X141474803Y-85256732D01*
X141445216Y-85262762D01*
X141441372Y-85262329D01*
X141435955Y-85261409D01*
X141430270Y-85260111D01*
X141430264Y-85260110D01*
X141427590Y-85259500D01*
X141424839Y-85259500D01*
X141419007Y-85259500D01*
X141413522Y-85259192D01*
X141395564Y-85257169D01*
X141381974Y-85255638D01*
X141378156Y-85256973D01*
X141353232Y-85252918D01*
X141333131Y-85235701D01*
X141299552Y-85185448D01*
X141293040Y-85181097D01*
X141237245Y-85143815D01*
X141237244Y-85143814D01*
X141233231Y-85141133D01*
X141228497Y-85140191D01*
X141228494Y-85140190D01*
X141177114Y-85129970D01*
X141177107Y-85129969D01*
X141174748Y-85129500D01*
X140935252Y-85129500D01*
X140932893Y-85129969D01*
X140932885Y-85129970D01*
X140881505Y-85140190D01*
X140881500Y-85140191D01*
X140876769Y-85141133D01*
X140872757Y-85143813D01*
X140872754Y-85143815D01*
X140814459Y-85182767D01*
X140814456Y-85182769D01*
X140810448Y-85185448D01*
X140807769Y-85189456D01*
X140807767Y-85189459D01*
X140768815Y-85247754D01*
X140768813Y-85247757D01*
X140766133Y-85251769D01*
X140765191Y-85256500D01*
X140765190Y-85256505D01*
X140754970Y-85307885D01*
X140754969Y-85307893D01*
X140754500Y-85310252D01*
X140754500Y-85609748D01*
X140754969Y-85612107D01*
X140754970Y-85612114D01*
X140765190Y-85663494D01*
X140765191Y-85663497D01*
X140766133Y-85668231D01*
X140768814Y-85672244D01*
X140768815Y-85672245D01*
X140801481Y-85721133D01*
X140810448Y-85734552D01*
X140814459Y-85737232D01*
X140814460Y-85737233D01*
X140817493Y-85739260D01*
X140836667Y-85764251D01*
X140836667Y-85795749D01*
X140817493Y-85820740D01*
X140814460Y-85822766D01*
X140814456Y-85822769D01*
X140810448Y-85825448D01*
X140807769Y-85829456D01*
X140807767Y-85829459D01*
X140768815Y-85887754D01*
X140768813Y-85887757D01*
X140766133Y-85891769D01*
X140765191Y-85896500D01*
X140765190Y-85896505D01*
X140754970Y-85947885D01*
X140754969Y-85947893D01*
X140754500Y-85950252D01*
X140754500Y-86249748D01*
X140754969Y-86252107D01*
X140754970Y-86252114D01*
X140765190Y-86303494D01*
X140765191Y-86303497D01*
X140766133Y-86308231D01*
X140768814Y-86312244D01*
X140768815Y-86312245D01*
X140806304Y-86368351D01*
X140810448Y-86374552D01*
X140814459Y-86377232D01*
X140832723Y-86389436D01*
X140848714Y-86407080D01*
X140854500Y-86430178D01*
X140854500Y-86516654D01*
X140850770Y-86535406D01*
X140840148Y-86551302D01*
X140718562Y-86672887D01*
X140693481Y-86686296D01*
X140691748Y-86686640D01*
X140691742Y-86686642D01*
X140687014Y-86687583D01*
X140683004Y-86690261D01*
X140683002Y-86690263D01*
X140665980Y-86701637D01*
X140638757Y-86709894D01*
X140611534Y-86701636D01*
X140593488Y-86679645D01*
X140589554Y-86670148D01*
X140545817Y-86604690D01*
X140537559Y-86577467D01*
X140545816Y-86550245D01*
X140587417Y-86487986D01*
X140604918Y-86400000D01*
X140587417Y-86312014D01*
X140537577Y-86237423D01*
X140520909Y-86226286D01*
X140500281Y-86212502D01*
X140462986Y-86187583D01*
X140458254Y-86186641D01*
X140458250Y-86186640D01*
X140455424Y-86186078D01*
X140429628Y-86171943D01*
X140416573Y-86145583D01*
X140420964Y-86116503D01*
X140440573Y-86076393D01*
X140450500Y-86008260D01*
X140450500Y-85191740D01*
X140440573Y-85123607D01*
X140389198Y-85018517D01*
X140306483Y-84935802D01*
X140305360Y-84935253D01*
X141495000Y-84935253D01*
X141497854Y-84942145D01*
X141504747Y-84945000D01*
X141840253Y-84945000D01*
X141847145Y-84942145D01*
X141850000Y-84935253D01*
X142000000Y-84935253D01*
X142002854Y-84942145D01*
X142009747Y-84945000D01*
X142345252Y-84945000D01*
X142352144Y-84942145D01*
X142354999Y-84935253D01*
X142354999Y-84856795D01*
X142354530Y-84852037D01*
X142340856Y-84783285D01*
X142337233Y-84774540D01*
X142285088Y-84696498D01*
X142285051Y-84696482D01*
X142278438Y-84689869D01*
X142200461Y-84637767D01*
X142191710Y-84634142D01*
X142122975Y-84620470D01*
X142118199Y-84620000D01*
X142009747Y-84620000D01*
X142002854Y-84622854D01*
X142000000Y-84629747D01*
X142000000Y-84935253D01*
X141850000Y-84935253D01*
X141850000Y-84629748D01*
X141847145Y-84622855D01*
X141840253Y-84620001D01*
X141731795Y-84620001D01*
X141727037Y-84620469D01*
X141658285Y-84634143D01*
X141649540Y-84637766D01*
X141571561Y-84689869D01*
X141564869Y-84696561D01*
X141512767Y-84774538D01*
X141509142Y-84783289D01*
X141495470Y-84852024D01*
X141495000Y-84856801D01*
X141495000Y-84935253D01*
X140305360Y-84935253D01*
X140258228Y-84912212D01*
X140204812Y-84886098D01*
X140204809Y-84886097D01*
X140201393Y-84884427D01*
X140197628Y-84883878D01*
X140197627Y-84883878D01*
X140135017Y-84874756D01*
X140133260Y-84874500D01*
X140131484Y-84874500D01*
X139695883Y-84874500D01*
X139668660Y-84866242D01*
X139650613Y-84844252D01*
X139647824Y-84815941D01*
X139663977Y-84734731D01*
X139664918Y-84730000D01*
X139650100Y-84655502D01*
X140663431Y-84655502D01*
X140664372Y-84660233D01*
X140679990Y-84738755D01*
X140679991Y-84738757D01*
X140680932Y-84743488D01*
X140683613Y-84747500D01*
X140726056Y-84811022D01*
X140730772Y-84818079D01*
X140805363Y-84867919D01*
X140893349Y-84885420D01*
X140981335Y-84867919D01*
X141055926Y-84818079D01*
X141105766Y-84743488D01*
X141123267Y-84655502D01*
X141105766Y-84567516D01*
X141055926Y-84492925D01*
X140981335Y-84443085D01*
X140976604Y-84442144D01*
X140976602Y-84442143D01*
X140898080Y-84426525D01*
X140893349Y-84425584D01*
X140888618Y-84426525D01*
X140810095Y-84442143D01*
X140810091Y-84442144D01*
X140805363Y-84443085D01*
X140801351Y-84445765D01*
X140801350Y-84445766D01*
X140734783Y-84490244D01*
X140734780Y-84490246D01*
X140730772Y-84492925D01*
X140728093Y-84496933D01*
X140728091Y-84496936D01*
X140683613Y-84563503D01*
X140680932Y-84567516D01*
X140679991Y-84572244D01*
X140679990Y-84572248D01*
X140666912Y-84638001D01*
X140663431Y-84655502D01*
X139650100Y-84655502D01*
X139647417Y-84642014D01*
X139597577Y-84567423D01*
X139591710Y-84563503D01*
X139541966Y-84530265D01*
X139522986Y-84517583D01*
X139518255Y-84516642D01*
X139518253Y-84516641D01*
X139439731Y-84501023D01*
X139435000Y-84500082D01*
X139430269Y-84501023D01*
X139351746Y-84516641D01*
X139351742Y-84516642D01*
X139347014Y-84517583D01*
X139343003Y-84520262D01*
X139342998Y-84520265D01*
X139287222Y-84557533D01*
X139260000Y-84565791D01*
X139232778Y-84557533D01*
X139177001Y-84520265D01*
X139176998Y-84520263D01*
X139172986Y-84517583D01*
X139168255Y-84516642D01*
X139168253Y-84516641D01*
X139089731Y-84501023D01*
X139085000Y-84500082D01*
X139080269Y-84501023D01*
X139001746Y-84516641D01*
X139001742Y-84516642D01*
X138997014Y-84517583D01*
X138993003Y-84520262D01*
X138992998Y-84520265D01*
X138929738Y-84562533D01*
X138902516Y-84570791D01*
X138875293Y-84562533D01*
X138831428Y-84533224D01*
X138822986Y-84527583D01*
X138818255Y-84526642D01*
X138818253Y-84526641D01*
X138739731Y-84511023D01*
X138735000Y-84510082D01*
X138730269Y-84511023D01*
X138651746Y-84526641D01*
X138651742Y-84526642D01*
X138647014Y-84527583D01*
X138643005Y-84530261D01*
X138642997Y-84530265D01*
X138638563Y-84533228D01*
X138611341Y-84541483D01*
X138584120Y-84533224D01*
X138567641Y-84513143D01*
X138567417Y-84512014D01*
X138517577Y-84437423D01*
X138504390Y-84428612D01*
X138480281Y-84412502D01*
X138442986Y-84387583D01*
X138438255Y-84386642D01*
X138438253Y-84386641D01*
X138359731Y-84371023D01*
X138355000Y-84370082D01*
X138350269Y-84371023D01*
X138350268Y-84371023D01*
X138334058Y-84374247D01*
X138305748Y-84371458D01*
X138283758Y-84353411D01*
X138275500Y-84326188D01*
X138275500Y-83574500D01*
X138289852Y-83539852D01*
X138324500Y-83525500D01*
X140131484Y-83525500D01*
X140133260Y-83525500D01*
X140201393Y-83515573D01*
X140306483Y-83464198D01*
X140389198Y-83381483D01*
X140440573Y-83276393D01*
X140450500Y-83208260D01*
X140450500Y-83049500D01*
X140464852Y-83014852D01*
X140499500Y-83000500D01*
X140738001Y-83000500D01*
X140772649Y-83014852D01*
X140787001Y-83049500D01*
X140787001Y-83318658D01*
X140787208Y-83320231D01*
X140787209Y-83320245D01*
X140791126Y-83350000D01*
X140793121Y-83365153D01*
X140794703Y-83368545D01*
X140794704Y-83368549D01*
X140838889Y-83463305D01*
X140838891Y-83463308D01*
X140840701Y-83467189D01*
X140920311Y-83546799D01*
X140924192Y-83548609D01*
X140924194Y-83548610D01*
X140948775Y-83560072D01*
X141022347Y-83594379D01*
X141068841Y-83600500D01*
X141372364Y-83600499D01*
X141391115Y-83604229D01*
X141407012Y-83614851D01*
X141672225Y-83880064D01*
X141684467Y-83900488D01*
X141685635Y-83924268D01*
X141674500Y-83980252D01*
X141674500Y-84219748D01*
X141674969Y-84222107D01*
X141674970Y-84222114D01*
X141685190Y-84273494D01*
X141685191Y-84273497D01*
X141686133Y-84278231D01*
X141730448Y-84344552D01*
X141796769Y-84388867D01*
X141855252Y-84400500D01*
X142152338Y-84400500D01*
X142154748Y-84400500D01*
X142213231Y-84388867D01*
X142229027Y-84378311D01*
X142256247Y-84370054D01*
X142283471Y-84378311D01*
X142301519Y-84400301D01*
X142304308Y-84428612D01*
X142298349Y-84458573D01*
X142295082Y-84475000D01*
X142296023Y-84479731D01*
X142311641Y-84558253D01*
X142311642Y-84558255D01*
X142312583Y-84562986D01*
X142324353Y-84580601D01*
X142359783Y-84633627D01*
X142362423Y-84637577D01*
X142437014Y-84687417D01*
X142525000Y-84704918D01*
X142612986Y-84687417D01*
X142687577Y-84637577D01*
X142737417Y-84562986D01*
X142754918Y-84475000D01*
X142751649Y-84458567D01*
X142753847Y-84431752D01*
X142769877Y-84410137D01*
X142794265Y-84400500D01*
X142794748Y-84400500D01*
X142853231Y-84388867D01*
X142919552Y-84344552D01*
X142963867Y-84278231D01*
X142975500Y-84219748D01*
X142975500Y-84073345D01*
X142989852Y-84038697D01*
X143413698Y-83614851D01*
X143448346Y-83600499D01*
X143704557Y-83600499D01*
X143706158Y-83600499D01*
X143752653Y-83594379D01*
X143854689Y-83546799D01*
X143934299Y-83467189D01*
X143981879Y-83365153D01*
X143988000Y-83318659D01*
X143987999Y-82481342D01*
X143981879Y-82434847D01*
X143980295Y-82431450D01*
X143936110Y-82336694D01*
X143936109Y-82336692D01*
X143934299Y-82332811D01*
X143854689Y-82253201D01*
X143850808Y-82251391D01*
X143850805Y-82251389D01*
X143756050Y-82207205D01*
X143756049Y-82207204D01*
X143752653Y-82205621D01*
X143748941Y-82205132D01*
X143748937Y-82205131D01*
X143707743Y-82199708D01*
X143707734Y-82199707D01*
X143706159Y-82199500D01*
X143704558Y-82199500D01*
X143195443Y-82199500D01*
X143195427Y-82199500D01*
X143193842Y-82199501D01*
X143192269Y-82199707D01*
X143192254Y-82199709D01*
X143151061Y-82205132D01*
X143151060Y-82205132D01*
X143147347Y-82205621D01*
X143143955Y-82207202D01*
X143143950Y-82207204D01*
X143049194Y-82251389D01*
X143049188Y-82251392D01*
X143045311Y-82253201D01*
X143042283Y-82256228D01*
X143042280Y-82256231D01*
X142968731Y-82329780D01*
X142968728Y-82329783D01*
X142965701Y-82332811D01*
X142963892Y-82336688D01*
X142963889Y-82336694D01*
X142919705Y-82431449D01*
X142919705Y-82431450D01*
X142918121Y-82434847D01*
X142917632Y-82438556D01*
X142917631Y-82438562D01*
X142912208Y-82479756D01*
X142912207Y-82479766D01*
X142912000Y-82481341D01*
X142912000Y-82482940D01*
X142912000Y-82482941D01*
X142912000Y-83317056D01*
X142912000Y-83317071D01*
X142912001Y-83318658D01*
X142912208Y-83320231D01*
X142912209Y-83320245D01*
X142916126Y-83350000D01*
X142918121Y-83365153D01*
X142919703Y-83368545D01*
X142919704Y-83368549D01*
X142960283Y-83455571D01*
X142964130Y-83484788D01*
X142950522Y-83510927D01*
X142676303Y-83785148D01*
X142660407Y-83795770D01*
X142641655Y-83799500D01*
X142495252Y-83799500D01*
X142492893Y-83799969D01*
X142492885Y-83799970D01*
X142441505Y-83810190D01*
X142441500Y-83810191D01*
X142436769Y-83811133D01*
X142432757Y-83813813D01*
X142432754Y-83813815D01*
X142374459Y-83852767D01*
X142374456Y-83852769D01*
X142370448Y-83855448D01*
X142367769Y-83859456D01*
X142367766Y-83859460D01*
X142365740Y-83862493D01*
X142340749Y-83881667D01*
X142309251Y-83881667D01*
X142284260Y-83862493D01*
X142282233Y-83859460D01*
X142282232Y-83859459D01*
X142279552Y-83855448D01*
X142213231Y-83811133D01*
X142208497Y-83810191D01*
X142208494Y-83810190D01*
X142157114Y-83799970D01*
X142157107Y-83799969D01*
X142154748Y-83799500D01*
X142152338Y-83799500D01*
X142037635Y-83799500D01*
X142002987Y-83785148D01*
X141781811Y-83563972D01*
X141769128Y-83542006D01*
X141769129Y-83516641D01*
X141781811Y-83494676D01*
X141809299Y-83467189D01*
X141856879Y-83365153D01*
X141863000Y-83318659D01*
X141862999Y-82481342D01*
X141856879Y-82434847D01*
X141855295Y-82431450D01*
X141811110Y-82336694D01*
X141811109Y-82336692D01*
X141809299Y-82332811D01*
X141729689Y-82253201D01*
X141725808Y-82251391D01*
X141725805Y-82251389D01*
X141631050Y-82207205D01*
X141631049Y-82207204D01*
X141627653Y-82205621D01*
X141623941Y-82205132D01*
X141623937Y-82205131D01*
X141582743Y-82199708D01*
X141582734Y-82199707D01*
X141581159Y-82199500D01*
X141579558Y-82199500D01*
X141070443Y-82199500D01*
X141070427Y-82199500D01*
X141068842Y-82199501D01*
X141067269Y-82199707D01*
X141067254Y-82199709D01*
X141026061Y-82205132D01*
X141026060Y-82205132D01*
X141022347Y-82205621D01*
X141018955Y-82207202D01*
X141018950Y-82207204D01*
X140924195Y-82251389D01*
X140924191Y-82251391D01*
X140920311Y-82253201D01*
X140917281Y-82256230D01*
X140915370Y-82257569D01*
X140888065Y-82266423D01*
X140860485Y-82258464D01*
X140842096Y-82236422D01*
X140839815Y-82213859D01*
X140838977Y-82213859D01*
X140838977Y-82209031D01*
X140839918Y-82204300D01*
X140822417Y-82116314D01*
X140809327Y-82096723D01*
X140801488Y-82063104D01*
X140817761Y-82032660D01*
X140850069Y-82020500D01*
X141920562Y-82020500D01*
X141923777Y-82020500D01*
X142018008Y-81995251D01*
X142102492Y-81946474D01*
X142134614Y-81914352D01*
X142169262Y-81900000D01*
X142880738Y-81900000D01*
X142915386Y-81914352D01*
G37*
%TD.AperFunction*%
%TA.AperFunction,Conductor*%
G36*
X143142031Y-85583031D02*
G01*
X143165630Y-85608226D01*
X143170446Y-85619852D01*
X143213708Y-85684599D01*
X143220398Y-85691289D01*
X143222029Y-85692379D01*
X143240076Y-85714367D01*
X143242867Y-85742675D01*
X143230838Y-85765187D01*
X143230448Y-85765448D01*
X143227771Y-85769453D01*
X143227770Y-85769455D01*
X143195518Y-85817723D01*
X143177874Y-85833714D01*
X143154776Y-85839500D01*
X143107075Y-85839500D01*
X143079851Y-85831242D01*
X143063869Y-85811767D01*
X143063867Y-85811769D01*
X143019552Y-85745448D01*
X143019163Y-85745188D01*
X143007132Y-85722678D01*
X143009923Y-85694365D01*
X143027976Y-85672375D01*
X143029602Y-85671288D01*
X143036293Y-85664597D01*
X143079618Y-85599756D01*
X143107677Y-85579648D01*
X143142031Y-85583031D01*
G37*
%TD.AperFunction*%
%TA.AperFunction,Conductor*%
G36*
X137589130Y-82452082D02*
G01*
X137599500Y-82482227D01*
X137599500Y-83208260D01*
X137609427Y-83276393D01*
X137660802Y-83381483D01*
X137743517Y-83464198D01*
X137848607Y-83515573D01*
X137916740Y-83525500D01*
X137925500Y-83525500D01*
X137960148Y-83539852D01*
X137974500Y-83574500D01*
X137974500Y-84262365D01*
X137960148Y-84297013D01*
X137789419Y-84467741D01*
X137789404Y-84467756D01*
X137786853Y-84470308D01*
X137786788Y-84470549D01*
X137776411Y-84481628D01*
X137763223Y-84490441D01*
X137763219Y-84490444D01*
X137759211Y-84493123D01*
X137756532Y-84497131D01*
X137756530Y-84497134D01*
X137712059Y-84563691D01*
X137709371Y-84567714D01*
X137708430Y-84572440D01*
X137708427Y-84572450D01*
X137706530Y-84581992D01*
X137688301Y-84611306D01*
X137655267Y-84621327D01*
X137623824Y-84607080D01*
X137459352Y-84442608D01*
X137445000Y-84407960D01*
X137445000Y-83453749D01*
X137445166Y-83449920D01*
X137445500Y-83448031D01*
X137445500Y-83350000D01*
X137445500Y-83317712D01*
X137445500Y-82752407D01*
X137445736Y-82747605D01*
X137448985Y-82714618D01*
X137459044Y-82612475D01*
X137460914Y-82603074D01*
X137499631Y-82475443D01*
X137503302Y-82466580D01*
X137507288Y-82459123D01*
X137530647Y-82437429D01*
X137562408Y-82434696D01*
X137589130Y-82452082D01*
G37*
%TD.AperFunction*%
%TA.AperFunction,Conductor*%
G36*
X159865148Y-65134852D02*
G01*
X159879500Y-65169500D01*
X159879500Y-124830500D01*
X159865148Y-124865148D01*
X159830500Y-124879500D01*
X100169500Y-124879500D01*
X100134852Y-124865148D01*
X100120500Y-124830500D01*
X100120500Y-98496945D01*
X115387018Y-98496945D01*
X115387312Y-98499122D01*
X115387313Y-98499124D01*
X115417268Y-98720263D01*
X115417269Y-98720268D01*
X115417563Y-98722437D01*
X115418238Y-98724514D01*
X115418240Y-98724523D01*
X115453891Y-98834243D01*
X115487880Y-98938851D01*
X115488917Y-98940779D01*
X115488921Y-98940787D01*
X115594670Y-99137301D01*
X115594674Y-99137308D01*
X115595710Y-99139232D01*
X115737585Y-99317138D01*
X115908948Y-99466853D01*
X116104289Y-99583564D01*
X116317330Y-99663520D01*
X116541224Y-99704150D01*
X116710671Y-99704150D01*
X116711775Y-99704150D01*
X116881635Y-99688862D01*
X117100986Y-99628325D01*
X117306003Y-99529595D01*
X117490095Y-99395843D01*
X117647347Y-99231371D01*
X117772705Y-99041463D01*
X117862138Y-98832223D01*
X117912773Y-98610377D01*
X117917867Y-98496945D01*
X118562018Y-98496945D01*
X118562312Y-98499122D01*
X118562313Y-98499124D01*
X118592268Y-98720263D01*
X118592269Y-98720268D01*
X118592563Y-98722437D01*
X118593238Y-98724514D01*
X118593240Y-98724523D01*
X118628891Y-98834243D01*
X118662880Y-98938851D01*
X118663917Y-98940779D01*
X118663921Y-98940787D01*
X118769670Y-99137301D01*
X118769674Y-99137308D01*
X118770710Y-99139232D01*
X118912585Y-99317138D01*
X119083948Y-99466853D01*
X119279289Y-99583564D01*
X119492330Y-99663520D01*
X119716224Y-99704150D01*
X119885671Y-99704150D01*
X119886775Y-99704150D01*
X120056635Y-99688862D01*
X120275986Y-99628325D01*
X120481003Y-99529595D01*
X120665095Y-99395843D01*
X120822347Y-99231371D01*
X120947705Y-99041463D01*
X121037138Y-98832223D01*
X121087773Y-98610377D01*
X121097982Y-98383055D01*
X121067437Y-98157563D01*
X120997120Y-97941149D01*
X120996078Y-97939212D01*
X120890329Y-97742698D01*
X120890326Y-97742694D01*
X120889290Y-97740768D01*
X120747415Y-97562862D01*
X120576052Y-97413147D01*
X120469443Y-97349451D01*
X120382601Y-97297565D01*
X120382599Y-97297564D01*
X120380711Y-97296436D01*
X120372811Y-97293471D01*
X120169736Y-97217255D01*
X120169732Y-97217253D01*
X120167670Y-97216480D01*
X120165510Y-97216088D01*
X120165503Y-97216086D01*
X119945938Y-97176242D01*
X119945934Y-97176241D01*
X119943776Y-97175850D01*
X119773225Y-97175850D01*
X119772144Y-97175947D01*
X119772128Y-97175948D01*
X119605552Y-97190941D01*
X119605550Y-97190941D01*
X119603365Y-97191138D01*
X119601256Y-97191719D01*
X119601245Y-97191722D01*
X119386131Y-97251090D01*
X119386123Y-97251092D01*
X119384014Y-97251675D01*
X119382046Y-97252622D01*
X119382037Y-97252626D01*
X119180976Y-97349451D01*
X119180967Y-97349456D01*
X119178997Y-97350405D01*
X119177228Y-97351690D01*
X119177220Y-97351695D01*
X118996683Y-97482864D01*
X118996674Y-97482871D01*
X118994905Y-97484157D01*
X118993388Y-97485743D01*
X118993383Y-97485748D01*
X118839175Y-97647036D01*
X118839169Y-97647042D01*
X118837653Y-97648629D01*
X118836443Y-97650461D01*
X118836439Y-97650467D01*
X118713507Y-97836699D01*
X118713501Y-97836709D01*
X118712295Y-97838537D01*
X118711435Y-97840547D01*
X118711429Y-97840560D01*
X118623725Y-98045756D01*
X118623722Y-98045763D01*
X118622862Y-98047777D01*
X118622374Y-98049910D01*
X118622372Y-98049920D01*
X118572717Y-98267475D01*
X118572227Y-98269623D01*
X118572128Y-98271814D01*
X118572128Y-98271819D01*
X118562116Y-98494747D01*
X118562116Y-98494754D01*
X118562018Y-98496945D01*
X117917867Y-98496945D01*
X117922982Y-98383055D01*
X117892437Y-98157563D01*
X117822120Y-97941149D01*
X117821078Y-97939212D01*
X117715329Y-97742698D01*
X117715326Y-97742694D01*
X117714290Y-97740768D01*
X117572415Y-97562862D01*
X117401052Y-97413147D01*
X117294443Y-97349451D01*
X117278625Y-97340000D01*
X117744592Y-97340000D01*
X117745534Y-97344736D01*
X117763092Y-97433007D01*
X117763093Y-97433009D01*
X117764034Y-97437740D01*
X117766713Y-97441750D01*
X117766714Y-97441751D01*
X117788058Y-97473696D01*
X117819399Y-97520601D01*
X117902260Y-97575966D01*
X118000000Y-97595408D01*
X118097740Y-97575966D01*
X118180601Y-97520601D01*
X118235966Y-97437740D01*
X118255408Y-97340000D01*
X118235966Y-97242260D01*
X118180601Y-97159399D01*
X118097740Y-97104034D01*
X118093009Y-97103093D01*
X118093007Y-97103092D01*
X118004736Y-97085534D01*
X118000000Y-97084592D01*
X117995264Y-97085534D01*
X117906992Y-97103092D01*
X117906988Y-97103093D01*
X117902260Y-97104034D01*
X117898250Y-97106712D01*
X117898248Y-97106714D01*
X117823410Y-97156718D01*
X117823407Y-97156720D01*
X117819399Y-97159399D01*
X117816720Y-97163407D01*
X117816718Y-97163410D01*
X117766714Y-97238248D01*
X117766712Y-97238250D01*
X117764034Y-97242260D01*
X117763093Y-97246988D01*
X117763092Y-97246992D01*
X117747395Y-97325910D01*
X117744592Y-97340000D01*
X117278625Y-97340000D01*
X117207601Y-97297565D01*
X117207599Y-97297564D01*
X117205711Y-97296436D01*
X117197811Y-97293471D01*
X116994736Y-97217255D01*
X116994732Y-97217253D01*
X116992670Y-97216480D01*
X116990510Y-97216088D01*
X116990503Y-97216086D01*
X116770938Y-97176242D01*
X116770934Y-97176241D01*
X116768776Y-97175850D01*
X116598225Y-97175850D01*
X116597144Y-97175947D01*
X116597128Y-97175948D01*
X116430552Y-97190941D01*
X116430550Y-97190941D01*
X116428365Y-97191138D01*
X116426256Y-97191719D01*
X116426245Y-97191722D01*
X116211131Y-97251090D01*
X116211123Y-97251092D01*
X116209014Y-97251675D01*
X116207046Y-97252622D01*
X116207037Y-97252626D01*
X116005976Y-97349451D01*
X116005967Y-97349456D01*
X116003997Y-97350405D01*
X116002228Y-97351690D01*
X116002220Y-97351695D01*
X115821683Y-97482864D01*
X115821674Y-97482871D01*
X115819905Y-97484157D01*
X115818388Y-97485743D01*
X115818383Y-97485748D01*
X115664175Y-97647036D01*
X115664169Y-97647042D01*
X115662653Y-97648629D01*
X115661443Y-97650461D01*
X115661439Y-97650467D01*
X115538507Y-97836699D01*
X115538501Y-97836709D01*
X115537295Y-97838537D01*
X115536435Y-97840547D01*
X115536429Y-97840560D01*
X115448725Y-98045756D01*
X115448722Y-98045763D01*
X115447862Y-98047777D01*
X115447374Y-98049910D01*
X115447372Y-98049920D01*
X115397717Y-98267475D01*
X115397227Y-98269623D01*
X115397128Y-98271814D01*
X115397128Y-98271819D01*
X115387116Y-98494747D01*
X115387116Y-98494754D01*
X115387018Y-98496945D01*
X100120500Y-98496945D01*
X100120500Y-96916000D01*
X114173064Y-96916000D01*
X114173483Y-96919183D01*
X114192303Y-97062137D01*
X114192304Y-97062141D01*
X114192723Y-97065322D01*
X114193951Y-97068287D01*
X114193952Y-97068290D01*
X114245079Y-97191722D01*
X114250359Y-97204468D01*
X114252311Y-97207012D01*
X114252314Y-97207017D01*
X114286133Y-97251090D01*
X114342045Y-97323955D01*
X114344593Y-97325910D01*
X114458982Y-97413685D01*
X114458985Y-97413687D01*
X114461532Y-97415641D01*
X114600678Y-97473277D01*
X114712508Y-97488000D01*
X114785892Y-97488000D01*
X114787492Y-97488000D01*
X114899322Y-97473277D01*
X115038468Y-97415641D01*
X115157955Y-97323955D01*
X115249641Y-97204468D01*
X115307277Y-97065322D01*
X115326936Y-96916000D01*
X115307277Y-96766678D01*
X115249641Y-96627532D01*
X115247687Y-96624985D01*
X115247685Y-96624982D01*
X115159910Y-96510593D01*
X115157955Y-96508045D01*
X115155406Y-96506089D01*
X115041017Y-96418314D01*
X115041012Y-96418311D01*
X115038468Y-96416359D01*
X115035499Y-96415129D01*
X114902290Y-96359952D01*
X114902287Y-96359951D01*
X114899322Y-96358723D01*
X114896141Y-96358304D01*
X114896137Y-96358303D01*
X114789076Y-96344208D01*
X114789067Y-96344207D01*
X114787492Y-96344000D01*
X114712508Y-96344000D01*
X114710933Y-96344207D01*
X114710923Y-96344208D01*
X114603862Y-96358303D01*
X114603856Y-96358304D01*
X114600678Y-96358723D01*
X114597714Y-96359950D01*
X114597709Y-96359952D01*
X114464500Y-96415129D01*
X114464496Y-96415131D01*
X114461532Y-96416359D01*
X114458990Y-96418308D01*
X114458982Y-96418314D01*
X114344593Y-96506089D01*
X114344589Y-96506092D01*
X114342045Y-96508045D01*
X114340092Y-96510589D01*
X114340089Y-96510593D01*
X114252314Y-96624982D01*
X114252308Y-96624990D01*
X114250359Y-96627532D01*
X114249131Y-96630496D01*
X114249129Y-96630500D01*
X114193952Y-96763709D01*
X114193950Y-96763714D01*
X114192723Y-96766678D01*
X114192304Y-96769856D01*
X114192303Y-96769862D01*
X114173483Y-96912817D01*
X114173064Y-96916000D01*
X100120500Y-96916000D01*
X100120500Y-95900000D01*
X119253064Y-95900000D01*
X119253483Y-95903183D01*
X119272303Y-96046137D01*
X119272304Y-96046141D01*
X119272723Y-96049322D01*
X119273951Y-96052287D01*
X119273952Y-96052290D01*
X119308937Y-96136751D01*
X119330359Y-96188468D01*
X119332311Y-96191012D01*
X119332314Y-96191017D01*
X119412037Y-96294912D01*
X119422045Y-96307955D01*
X119424593Y-96309910D01*
X119538982Y-96397685D01*
X119538985Y-96397687D01*
X119541532Y-96399641D01*
X119680678Y-96457277D01*
X119792508Y-96472000D01*
X119865892Y-96472000D01*
X119867492Y-96472000D01*
X119979322Y-96457277D01*
X120118468Y-96399641D01*
X120237955Y-96307955D01*
X120329641Y-96188468D01*
X120387277Y-96049322D01*
X120389163Y-96035000D01*
X124999592Y-96035000D01*
X125000534Y-96039736D01*
X125018092Y-96128007D01*
X125018093Y-96128009D01*
X125019034Y-96132740D01*
X125021713Y-96136750D01*
X125021714Y-96136751D01*
X125056269Y-96188468D01*
X125074399Y-96215601D01*
X125157260Y-96270966D01*
X125255000Y-96290408D01*
X125352740Y-96270966D01*
X125435601Y-96215601D01*
X125490966Y-96132740D01*
X125510408Y-96035000D01*
X125490966Y-95937260D01*
X125435601Y-95854399D01*
X125352740Y-95799034D01*
X125348009Y-95798093D01*
X125348007Y-95798092D01*
X125259736Y-95780534D01*
X125255000Y-95779592D01*
X125250264Y-95780534D01*
X125161992Y-95798092D01*
X125161988Y-95798093D01*
X125157260Y-95799034D01*
X125153250Y-95801712D01*
X125153248Y-95801714D01*
X125078410Y-95851718D01*
X125078407Y-95851720D01*
X125074399Y-95854399D01*
X125071720Y-95858407D01*
X125071718Y-95858410D01*
X125021714Y-95933248D01*
X125021712Y-95933250D01*
X125019034Y-95937260D01*
X125018093Y-95941988D01*
X125018092Y-95941992D01*
X125002780Y-96018974D01*
X124999592Y-96035000D01*
X120389163Y-96035000D01*
X120406936Y-95900000D01*
X120387277Y-95750678D01*
X120329641Y-95611532D01*
X120327687Y-95608985D01*
X120327685Y-95608982D01*
X120245705Y-95502145D01*
X120237955Y-95492045D01*
X120235406Y-95490089D01*
X120121017Y-95402314D01*
X120121012Y-95402311D01*
X120118468Y-95400359D01*
X120115499Y-95399129D01*
X119982290Y-95343952D01*
X119982287Y-95343951D01*
X119979322Y-95342723D01*
X119976141Y-95342304D01*
X119976137Y-95342303D01*
X119869076Y-95328208D01*
X119869067Y-95328207D01*
X119867492Y-95328000D01*
X119792508Y-95328000D01*
X119790933Y-95328207D01*
X119790923Y-95328208D01*
X119683862Y-95342303D01*
X119683856Y-95342304D01*
X119680678Y-95342723D01*
X119677714Y-95343950D01*
X119677709Y-95343952D01*
X119544500Y-95399129D01*
X119544496Y-95399131D01*
X119541532Y-95400359D01*
X119538990Y-95402308D01*
X119538982Y-95402314D01*
X119424593Y-95490089D01*
X119424589Y-95490092D01*
X119422045Y-95492045D01*
X119420092Y-95494589D01*
X119420089Y-95494593D01*
X119332314Y-95608982D01*
X119332308Y-95608990D01*
X119330359Y-95611532D01*
X119329131Y-95614496D01*
X119329129Y-95614500D01*
X119273952Y-95747709D01*
X119273950Y-95747714D01*
X119272723Y-95750678D01*
X119272304Y-95753856D01*
X119272303Y-95753862D01*
X119253483Y-95896817D01*
X119253064Y-95900000D01*
X100120500Y-95900000D01*
X100120500Y-94884000D01*
X114173064Y-94884000D01*
X114173483Y-94887183D01*
X114192303Y-95030137D01*
X114192304Y-95030141D01*
X114192723Y-95033322D01*
X114193951Y-95036287D01*
X114193952Y-95036290D01*
X114244600Y-95158565D01*
X114250359Y-95172468D01*
X114252311Y-95175012D01*
X114252314Y-95175017D01*
X114308822Y-95248658D01*
X114342045Y-95291955D01*
X114344593Y-95293910D01*
X114458982Y-95381685D01*
X114458985Y-95381687D01*
X114461532Y-95383641D01*
X114600678Y-95441277D01*
X114712508Y-95456000D01*
X114785892Y-95456000D01*
X114787492Y-95456000D01*
X114899322Y-95441277D01*
X115038468Y-95383641D01*
X115157955Y-95291955D01*
X115249641Y-95172468D01*
X115307277Y-95033322D01*
X115318905Y-94945000D01*
X119944592Y-94945000D01*
X119945534Y-94949736D01*
X119963092Y-95038007D01*
X119963093Y-95038009D01*
X119964034Y-95042740D01*
X119966713Y-95046750D01*
X119966714Y-95046751D01*
X120015110Y-95119183D01*
X120019399Y-95125601D01*
X120102260Y-95180966D01*
X120133528Y-95187185D01*
X120133529Y-95187186D01*
X120172480Y-95194934D01*
X120200000Y-95200408D01*
X120219939Y-95196441D01*
X120229497Y-95195500D01*
X121870503Y-95195500D01*
X121880060Y-95196441D01*
X121900000Y-95200408D01*
X121997741Y-95180966D01*
X122043336Y-95150500D01*
X122080601Y-95125601D01*
X122091900Y-95108689D01*
X122097989Y-95101269D01*
X129110327Y-88088931D01*
X129117747Y-88082842D01*
X129134659Y-88071543D01*
X129190024Y-87988682D01*
X129204558Y-87915616D01*
X129204558Y-87915615D01*
X129209466Y-87890942D01*
X129205499Y-87871004D01*
X129204558Y-87861445D01*
X129204558Y-84699500D01*
X129218910Y-84664852D01*
X129253558Y-84650500D01*
X134522264Y-84650500D01*
X134524674Y-84650500D01*
X134597740Y-84635966D01*
X134607048Y-84629747D01*
X134648778Y-84601865D01*
X134682396Y-84594026D01*
X134712840Y-84610299D01*
X134725000Y-84642607D01*
X134725000Y-84722185D01*
X134720439Y-84739195D01*
X134721646Y-84739635D01*
X134720179Y-84743662D01*
X134718037Y-84747374D01*
X134717293Y-84751592D01*
X134717293Y-84751593D01*
X134713247Y-84774538D01*
X134699941Y-84850000D01*
X134718037Y-84952626D01*
X134720180Y-84956338D01*
X134721646Y-84960365D01*
X134720439Y-84960804D01*
X134725000Y-84977815D01*
X134725000Y-86081419D01*
X134724256Y-86089928D01*
X134707037Y-86187583D01*
X134704500Y-86201969D01*
X134704500Y-86264618D01*
X134704500Y-97667712D01*
X134704500Y-97700000D01*
X134704500Y-97798031D01*
X134704870Y-97800134D01*
X134704871Y-97800136D01*
X134738174Y-97989009D01*
X134738176Y-97989018D01*
X134738546Y-97991114D01*
X134739275Y-97993118D01*
X134739277Y-97993124D01*
X134759169Y-98047777D01*
X134805603Y-98175353D01*
X134903634Y-98345147D01*
X134905011Y-98346789D01*
X134905016Y-98346795D01*
X134975906Y-98431278D01*
X135029660Y-98495340D01*
X135031300Y-98496716D01*
X135178204Y-98619983D01*
X135178208Y-98619986D01*
X135179853Y-98621366D01*
X135349647Y-98719397D01*
X135533886Y-98786454D01*
X135726969Y-98820500D01*
X135789618Y-98820500D01*
X135825000Y-98820500D01*
X135857288Y-98820500D01*
X141297712Y-98820500D01*
X141347325Y-98820500D01*
X141425890Y-98820500D01*
X141428031Y-98820500D01*
X141540071Y-98800744D01*
X141548581Y-98800000D01*
X143931419Y-98800000D01*
X143939928Y-98800744D01*
X144051969Y-98820500D01*
X144114618Y-98820500D01*
X144150000Y-98820500D01*
X144182288Y-98820500D01*
X148992712Y-98820500D01*
X149042325Y-98820500D01*
X149120890Y-98820500D01*
X149123031Y-98820500D01*
X149316114Y-98786454D01*
X149500353Y-98719397D01*
X149670147Y-98621366D01*
X149820340Y-98495340D01*
X149946366Y-98345147D01*
X150044397Y-98175353D01*
X150111454Y-97991114D01*
X150145500Y-97798031D01*
X150145500Y-97700000D01*
X150145500Y-97667712D01*
X150145500Y-92689782D01*
X150145495Y-92689766D01*
X150145493Y-92689732D01*
X150145493Y-92654500D01*
X150145494Y-92609077D01*
X150115743Y-92440352D01*
X150115000Y-92431844D01*
X150115000Y-91668444D01*
X150115744Y-91659935D01*
X150124315Y-91611326D01*
X150125059Y-91607107D01*
X150115744Y-91554279D01*
X150115000Y-91545770D01*
X150115000Y-91048444D01*
X150115744Y-91039935D01*
X150124315Y-90991326D01*
X150125059Y-90987107D01*
X150115744Y-90934279D01*
X150115000Y-90925770D01*
X150115000Y-90162390D01*
X150115744Y-90153881D01*
X150126519Y-90092773D01*
X150145499Y-89985138D01*
X150145500Y-89887108D01*
X150145500Y-89854820D01*
X150145500Y-80057675D01*
X150145500Y-79976969D01*
X150111454Y-79783886D01*
X150044397Y-79599647D01*
X149946366Y-79429853D01*
X149944986Y-79428208D01*
X149944983Y-79428204D01*
X149821716Y-79281300D01*
X149820340Y-79279660D01*
X149818699Y-79278283D01*
X149671795Y-79155016D01*
X149671789Y-79155011D01*
X149670147Y-79153634D01*
X149500353Y-79055603D01*
X149498345Y-79054872D01*
X149318124Y-78989277D01*
X149318118Y-78989275D01*
X149316114Y-78988546D01*
X149314018Y-78988176D01*
X149314009Y-78988174D01*
X149125136Y-78954871D01*
X149125134Y-78954870D01*
X149123031Y-78954500D01*
X149120890Y-78954500D01*
X142992161Y-78954500D01*
X142982338Y-78953505D01*
X142973847Y-78951767D01*
X142973844Y-78951767D01*
X142967525Y-78950474D01*
X142961405Y-78952514D01*
X142939838Y-78959703D01*
X142938150Y-78960232D01*
X142911825Y-78967962D01*
X142911822Y-78967963D01*
X142907103Y-78969349D01*
X142905823Y-78970825D01*
X142904993Y-78971221D01*
X142884645Y-78977943D01*
X142851598Y-78977116D01*
X142826596Y-78955489D01*
X142821020Y-78922905D01*
X142824315Y-78904222D01*
X142824315Y-78904219D01*
X142825059Y-78900000D01*
X142806963Y-78797374D01*
X142754859Y-78707126D01*
X142751575Y-78704370D01*
X142751574Y-78704369D01*
X142678312Y-78642895D01*
X142675030Y-78640141D01*
X142671004Y-78638675D01*
X142671003Y-78638675D01*
X142598731Y-78612371D01*
X142577105Y-78604500D01*
X142472895Y-78604500D01*
X142468864Y-78605966D01*
X142468864Y-78605967D01*
X142378997Y-78638675D01*
X142378993Y-78638676D01*
X142374971Y-78640141D01*
X142371690Y-78642893D01*
X142371688Y-78642895D01*
X142298425Y-78704369D01*
X142298421Y-78704373D01*
X142295141Y-78707126D01*
X142292998Y-78710837D01*
X142292996Y-78710840D01*
X142245180Y-78793661D01*
X142245178Y-78793664D01*
X142243037Y-78797374D01*
X142224941Y-78900000D01*
X142225685Y-78904219D01*
X142225685Y-78904221D01*
X142228980Y-78922910D01*
X142223402Y-78955493D01*
X142198399Y-78977119D01*
X142165352Y-78977944D01*
X142133196Y-78967320D01*
X142122079Y-78962017D01*
X142116309Y-78958309D01*
X142116306Y-78958308D01*
X142110382Y-78954501D01*
X142103336Y-78954500D01*
X142103335Y-78954500D01*
X142102500Y-78954500D01*
X142091232Y-78952671D01*
X142088591Y-78952512D01*
X142082475Y-78950474D01*
X142076158Y-78951766D01*
X142076156Y-78951766D01*
X142067654Y-78953506D01*
X142057833Y-78954500D01*
X135857288Y-78954500D01*
X135825000Y-78954500D01*
X135726969Y-78954500D01*
X135724866Y-78954870D01*
X135724863Y-78954871D01*
X135535990Y-78988174D01*
X135535979Y-78988176D01*
X135533886Y-78988546D01*
X135531884Y-78989274D01*
X135531875Y-78989277D01*
X135351654Y-79054872D01*
X135351648Y-79054874D01*
X135349647Y-79055603D01*
X135347797Y-79056670D01*
X135347795Y-79056672D01*
X135181714Y-79152559D01*
X135181709Y-79152562D01*
X135179853Y-79153634D01*
X135178215Y-79155007D01*
X135178204Y-79155016D01*
X135031300Y-79278283D01*
X135031294Y-79278288D01*
X135029660Y-79279660D01*
X135028288Y-79281294D01*
X135028283Y-79281300D01*
X134905016Y-79428204D01*
X134905007Y-79428215D01*
X134903634Y-79429853D01*
X134902562Y-79431709D01*
X134902559Y-79431714D01*
X134845312Y-79530869D01*
X134805603Y-79599647D01*
X134804874Y-79601648D01*
X134804872Y-79601654D01*
X134739277Y-79781875D01*
X134739274Y-79781884D01*
X134738546Y-79783886D01*
X134738176Y-79785979D01*
X134738174Y-79785990D01*
X134710366Y-79943700D01*
X134704500Y-79976969D01*
X134704500Y-80039618D01*
X134704500Y-83317712D01*
X134704500Y-83350000D01*
X134704500Y-83448031D01*
X134704870Y-83450134D01*
X134704871Y-83450136D01*
X134724256Y-83560072D01*
X134725000Y-83568581D01*
X134725000Y-84157393D01*
X134712840Y-84189701D01*
X134682396Y-84205974D01*
X134648778Y-84198135D01*
X134601754Y-84166715D01*
X134601749Y-84166713D01*
X134597740Y-84164034D01*
X134593009Y-84163093D01*
X134593007Y-84163092D01*
X134527039Y-84149970D01*
X134527034Y-84149969D01*
X134524674Y-84149500D01*
X134522264Y-84149500D01*
X128616557Y-84149500D01*
X128581909Y-84135148D01*
X126313830Y-81867069D01*
X123931441Y-79484681D01*
X123917620Y-79457224D01*
X123922875Y-79426939D01*
X123962396Y-79353001D01*
X124016747Y-79173831D01*
X124035099Y-78987500D01*
X124016747Y-78801169D01*
X123962396Y-78621999D01*
X123874136Y-78456875D01*
X123755357Y-78312143D01*
X123610625Y-78193364D01*
X123583003Y-78178600D01*
X123447630Y-78106242D01*
X123445501Y-78105104D01*
X123443193Y-78104404D01*
X123443191Y-78104403D01*
X123365276Y-78080768D01*
X123340143Y-78063067D01*
X123330500Y-78033878D01*
X123330500Y-77447000D01*
X123344852Y-77412352D01*
X123379500Y-77398000D01*
X123711484Y-77398000D01*
X123713260Y-77398000D01*
X123781393Y-77388073D01*
X123886483Y-77336698D01*
X123969198Y-77253983D01*
X124020573Y-77148893D01*
X124030500Y-77080760D01*
X124030500Y-75814240D01*
X124020573Y-75746107D01*
X123969198Y-75641017D01*
X123886483Y-75558302D01*
X123838228Y-75534712D01*
X123784812Y-75508598D01*
X123784809Y-75508597D01*
X123781393Y-75506927D01*
X123777628Y-75506378D01*
X123777627Y-75506378D01*
X123715017Y-75497256D01*
X123713260Y-75497000D01*
X122446740Y-75497000D01*
X122444983Y-75497255D01*
X122444982Y-75497256D01*
X122382372Y-75506378D01*
X122382369Y-75506378D01*
X122378607Y-75506927D01*
X122375192Y-75508596D01*
X122375187Y-75508598D01*
X122277166Y-75556518D01*
X122273517Y-75558302D01*
X122270646Y-75561172D01*
X122270643Y-75561175D01*
X122193675Y-75638143D01*
X122193672Y-75638146D01*
X122190802Y-75641017D01*
X122189018Y-75644665D01*
X122189018Y-75644666D01*
X122141098Y-75742687D01*
X122141096Y-75742692D01*
X122139427Y-75746107D01*
X122138878Y-75749869D01*
X122138878Y-75749872D01*
X122135362Y-75774005D01*
X122129500Y-75814240D01*
X122129500Y-77080760D01*
X122129756Y-77082517D01*
X122135633Y-77122857D01*
X122139427Y-77148893D01*
X122141097Y-77152309D01*
X122141098Y-77152312D01*
X122156791Y-77184412D01*
X122190802Y-77253983D01*
X122273517Y-77336698D01*
X122378607Y-77388073D01*
X122446740Y-77398000D01*
X122780500Y-77398000D01*
X122815148Y-77412352D01*
X122829500Y-77447000D01*
X122829500Y-78033878D01*
X122819857Y-78063067D01*
X122794724Y-78080768D01*
X122716808Y-78104403D01*
X122716802Y-78104405D01*
X122714499Y-78105104D01*
X122712373Y-78106240D01*
X122712369Y-78106242D01*
X122551499Y-78192228D01*
X122551493Y-78192231D01*
X122549375Y-78193364D01*
X122547518Y-78194887D01*
X122547512Y-78194892D01*
X122406505Y-78310614D01*
X122406500Y-78310618D01*
X122404643Y-78312143D01*
X122403118Y-78314000D01*
X122403114Y-78314005D01*
X122287392Y-78455012D01*
X122287387Y-78455018D01*
X122285864Y-78456875D01*
X122284731Y-78458993D01*
X122284728Y-78458999D01*
X122198742Y-78619869D01*
X122198740Y-78619873D01*
X122197604Y-78621999D01*
X122196905Y-78624302D01*
X122196903Y-78624308D01*
X122143950Y-78798868D01*
X122143948Y-78798877D01*
X122143253Y-78801169D01*
X122143017Y-78803556D01*
X122143017Y-78803561D01*
X122129723Y-78938537D01*
X122124901Y-78987500D01*
X122125137Y-78989896D01*
X122141263Y-79153634D01*
X122143253Y-79173831D01*
X122143948Y-79176124D01*
X122143950Y-79176131D01*
X122194789Y-79343722D01*
X122197604Y-79353001D01*
X122285864Y-79518125D01*
X122404643Y-79662857D01*
X122549375Y-79781636D01*
X122714499Y-79869896D01*
X122893669Y-79924247D01*
X123080000Y-79942599D01*
X123266331Y-79924247D01*
X123445501Y-79869896D01*
X123519439Y-79830375D01*
X123549724Y-79825120D01*
X123577181Y-79838941D01*
X128236567Y-84498328D01*
X128236569Y-84498329D01*
X128236572Y-84498332D01*
X128294506Y-84556266D01*
X128300600Y-84563691D01*
X128306452Y-84572450D01*
X128311899Y-84580601D01*
X128364489Y-84615740D01*
X128394759Y-84635966D01*
X128492500Y-84655408D01*
X128512439Y-84651441D01*
X128521997Y-84650500D01*
X128654558Y-84650500D01*
X128689206Y-84664852D01*
X128703558Y-84699500D01*
X128703558Y-87766886D01*
X128689206Y-87801534D01*
X121810592Y-94680148D01*
X121775944Y-94694500D01*
X120229497Y-94694500D01*
X120219939Y-94693558D01*
X120200000Y-94689592D01*
X120195264Y-94690534D01*
X120175326Y-94694500D01*
X120106992Y-94708092D01*
X120106988Y-94708093D01*
X120102260Y-94709034D01*
X120098250Y-94711712D01*
X120098248Y-94711714D01*
X120023410Y-94761718D01*
X120023407Y-94761720D01*
X120019399Y-94764399D01*
X120016720Y-94768407D01*
X120016718Y-94768410D01*
X119966714Y-94843248D01*
X119966712Y-94843250D01*
X119964034Y-94847260D01*
X119963093Y-94851988D01*
X119963092Y-94851992D01*
X119951153Y-94912014D01*
X119944592Y-94945000D01*
X115318905Y-94945000D01*
X115326936Y-94884000D01*
X115325706Y-94874661D01*
X115314242Y-94787583D01*
X115307277Y-94734678D01*
X115249641Y-94595532D01*
X115247687Y-94592985D01*
X115247685Y-94592982D01*
X115159910Y-94478593D01*
X115157955Y-94476045D01*
X115123485Y-94449595D01*
X115041017Y-94386314D01*
X115041012Y-94386311D01*
X115038468Y-94384359D01*
X115035499Y-94383129D01*
X114902290Y-94327952D01*
X114902287Y-94327951D01*
X114899322Y-94326723D01*
X114896141Y-94326304D01*
X114896137Y-94326303D01*
X114789076Y-94312208D01*
X114789067Y-94312207D01*
X114787492Y-94312000D01*
X114712508Y-94312000D01*
X114710933Y-94312207D01*
X114710923Y-94312208D01*
X114603862Y-94326303D01*
X114603856Y-94326304D01*
X114600678Y-94326723D01*
X114597714Y-94327950D01*
X114597709Y-94327952D01*
X114464500Y-94383129D01*
X114464496Y-94383131D01*
X114461532Y-94384359D01*
X114458990Y-94386308D01*
X114458982Y-94386314D01*
X114344593Y-94474089D01*
X114344589Y-94474092D01*
X114342045Y-94476045D01*
X114340092Y-94478589D01*
X114340089Y-94478593D01*
X114252314Y-94592982D01*
X114252308Y-94592990D01*
X114250359Y-94595532D01*
X114249131Y-94598496D01*
X114249129Y-94598500D01*
X114193952Y-94731709D01*
X114193950Y-94731714D01*
X114192723Y-94734678D01*
X114192304Y-94737856D01*
X114192303Y-94737862D01*
X114173483Y-94880817D01*
X114173064Y-94884000D01*
X100120500Y-94884000D01*
X100120500Y-93416945D01*
X115387018Y-93416945D01*
X115387312Y-93419122D01*
X115387313Y-93419124D01*
X115417268Y-93640263D01*
X115417269Y-93640268D01*
X115417563Y-93642437D01*
X115418238Y-93644514D01*
X115418240Y-93644523D01*
X115453891Y-93754243D01*
X115487880Y-93858851D01*
X115488917Y-93860779D01*
X115488921Y-93860787D01*
X115594670Y-94057301D01*
X115594674Y-94057308D01*
X115595710Y-94059232D01*
X115597075Y-94060944D01*
X115597076Y-94060945D01*
X115697970Y-94187463D01*
X115737585Y-94237138D01*
X115908948Y-94386853D01*
X116104289Y-94503564D01*
X116317330Y-94583520D01*
X116541224Y-94624150D01*
X116710671Y-94624150D01*
X116711775Y-94624150D01*
X116881635Y-94608862D01*
X117100986Y-94548325D01*
X117306003Y-94449595D01*
X117490095Y-94315843D01*
X117647347Y-94151371D01*
X117772705Y-93961463D01*
X117862138Y-93752223D01*
X117912773Y-93530377D01*
X117917867Y-93416945D01*
X118562018Y-93416945D01*
X118562312Y-93419122D01*
X118562313Y-93419124D01*
X118592268Y-93640263D01*
X118592269Y-93640268D01*
X118592563Y-93642437D01*
X118593238Y-93644514D01*
X118593240Y-93644523D01*
X118628891Y-93754243D01*
X118662880Y-93858851D01*
X118663917Y-93860779D01*
X118663921Y-93860787D01*
X118769670Y-94057301D01*
X118769674Y-94057308D01*
X118770710Y-94059232D01*
X118772075Y-94060944D01*
X118772076Y-94060945D01*
X118872970Y-94187463D01*
X118912585Y-94237138D01*
X119083948Y-94386853D01*
X119279289Y-94503564D01*
X119492330Y-94583520D01*
X119716224Y-94624150D01*
X119885671Y-94624150D01*
X119886775Y-94624150D01*
X120056635Y-94608862D01*
X120275986Y-94548325D01*
X120481003Y-94449595D01*
X120665095Y-94315843D01*
X120822347Y-94151371D01*
X120947705Y-93961463D01*
X121037138Y-93752223D01*
X121087773Y-93530377D01*
X121097982Y-93303055D01*
X121067437Y-93077563D01*
X120997120Y-92861149D01*
X120996078Y-92859212D01*
X120890329Y-92662698D01*
X120890326Y-92662694D01*
X120889290Y-92660768D01*
X120747415Y-92482862D01*
X120745526Y-92481212D01*
X120577707Y-92334593D01*
X120576052Y-92333147D01*
X120466887Y-92267924D01*
X120382601Y-92217565D01*
X120382599Y-92217564D01*
X120380711Y-92216436D01*
X120336998Y-92200030D01*
X120169736Y-92137255D01*
X120169732Y-92137253D01*
X120167670Y-92136480D01*
X120165510Y-92136088D01*
X120165503Y-92136086D01*
X119945938Y-92096242D01*
X119945934Y-92096241D01*
X119943776Y-92095850D01*
X119773225Y-92095850D01*
X119772144Y-92095947D01*
X119772128Y-92095948D01*
X119605552Y-92110941D01*
X119605550Y-92110941D01*
X119603365Y-92111138D01*
X119601256Y-92111719D01*
X119601245Y-92111722D01*
X119386131Y-92171090D01*
X119386123Y-92171092D01*
X119384014Y-92171675D01*
X119382046Y-92172622D01*
X119382037Y-92172626D01*
X119180976Y-92269451D01*
X119180967Y-92269456D01*
X119178997Y-92270405D01*
X119177228Y-92271690D01*
X119177220Y-92271695D01*
X118996683Y-92402864D01*
X118996674Y-92402871D01*
X118994905Y-92404157D01*
X118993388Y-92405743D01*
X118993383Y-92405748D01*
X118839175Y-92567036D01*
X118839169Y-92567042D01*
X118837653Y-92568629D01*
X118836443Y-92570461D01*
X118836439Y-92570467D01*
X118713507Y-92756699D01*
X118713501Y-92756709D01*
X118712295Y-92758537D01*
X118711435Y-92760547D01*
X118711429Y-92760560D01*
X118623725Y-92965756D01*
X118623722Y-92965763D01*
X118622862Y-92967777D01*
X118622374Y-92969910D01*
X118622372Y-92969920D01*
X118585547Y-93131264D01*
X118572227Y-93189623D01*
X118572128Y-93191814D01*
X118572128Y-93191819D01*
X118562116Y-93414747D01*
X118562116Y-93414754D01*
X118562018Y-93416945D01*
X117917867Y-93416945D01*
X117922982Y-93303055D01*
X117892437Y-93077563D01*
X117822120Y-92861149D01*
X117821078Y-92859212D01*
X117715329Y-92662698D01*
X117715326Y-92662694D01*
X117714290Y-92660768D01*
X117572415Y-92482862D01*
X117570526Y-92481212D01*
X117402707Y-92334593D01*
X117401052Y-92333147D01*
X117291887Y-92267924D01*
X117207601Y-92217565D01*
X117207599Y-92217564D01*
X117205711Y-92216436D01*
X117161998Y-92200030D01*
X116994736Y-92137255D01*
X116994732Y-92137253D01*
X116992670Y-92136480D01*
X116990510Y-92136088D01*
X116990503Y-92136086D01*
X116770938Y-92096242D01*
X116770934Y-92096241D01*
X116768776Y-92095850D01*
X116598225Y-92095850D01*
X116597144Y-92095947D01*
X116597128Y-92095948D01*
X116430552Y-92110941D01*
X116430550Y-92110941D01*
X116428365Y-92111138D01*
X116426256Y-92111719D01*
X116426245Y-92111722D01*
X116211131Y-92171090D01*
X116211123Y-92171092D01*
X116209014Y-92171675D01*
X116207046Y-92172622D01*
X116207037Y-92172626D01*
X116005976Y-92269451D01*
X116005967Y-92269456D01*
X116003997Y-92270405D01*
X116002228Y-92271690D01*
X116002220Y-92271695D01*
X115821683Y-92402864D01*
X115821674Y-92402871D01*
X115819905Y-92404157D01*
X115818388Y-92405743D01*
X115818383Y-92405748D01*
X115664175Y-92567036D01*
X115664169Y-92567042D01*
X115662653Y-92568629D01*
X115661443Y-92570461D01*
X115661439Y-92570467D01*
X115538507Y-92756699D01*
X115538501Y-92756709D01*
X115537295Y-92758537D01*
X115536435Y-92760547D01*
X115536429Y-92760560D01*
X115448725Y-92965756D01*
X115448722Y-92965763D01*
X115447862Y-92967777D01*
X115447374Y-92969910D01*
X115447372Y-92969920D01*
X115410547Y-93131264D01*
X115397227Y-93189623D01*
X115397128Y-93191814D01*
X115397128Y-93191819D01*
X115387116Y-93414747D01*
X115387116Y-93414754D01*
X115387018Y-93416945D01*
X100120500Y-93416945D01*
X100120500Y-92000000D01*
X122944592Y-92000000D01*
X122945534Y-92004736D01*
X122963092Y-92093007D01*
X122963093Y-92093009D01*
X122964034Y-92097740D01*
X122966713Y-92101750D01*
X122966714Y-92101751D01*
X123016310Y-92175979D01*
X123019399Y-92180601D01*
X123102260Y-92235966D01*
X123200000Y-92255408D01*
X123297740Y-92235966D01*
X123380601Y-92180601D01*
X123435966Y-92097740D01*
X123455408Y-92000000D01*
X123453781Y-91991823D01*
X123449217Y-91968876D01*
X123435966Y-91902260D01*
X123380601Y-91819399D01*
X123368466Y-91811291D01*
X123301751Y-91766714D01*
X123301750Y-91766713D01*
X123297740Y-91764034D01*
X123293009Y-91763093D01*
X123293007Y-91763092D01*
X123204736Y-91745534D01*
X123200000Y-91744592D01*
X123195264Y-91745534D01*
X123106992Y-91763092D01*
X123106988Y-91763093D01*
X123102260Y-91764034D01*
X123098250Y-91766712D01*
X123098248Y-91766714D01*
X123023410Y-91816718D01*
X123023407Y-91816720D01*
X123019399Y-91819399D01*
X123016720Y-91823407D01*
X123016718Y-91823410D01*
X122966714Y-91898248D01*
X122966712Y-91898250D01*
X122964034Y-91902260D01*
X122963093Y-91906988D01*
X122963092Y-91906992D01*
X122945964Y-91993103D01*
X122944592Y-92000000D01*
X100120500Y-92000000D01*
X100120500Y-79724411D01*
X112291259Y-79724411D01*
X112294348Y-79728874D01*
X112376627Y-79796399D01*
X112380614Y-79799063D01*
X112544871Y-79886860D01*
X112549310Y-79888699D01*
X112727546Y-79942767D01*
X112732239Y-79943700D01*
X112917604Y-79961957D01*
X112922396Y-79961957D01*
X113107760Y-79943700D01*
X113112453Y-79942767D01*
X113290689Y-79888699D01*
X113295128Y-79886860D01*
X113459386Y-79799062D01*
X113463369Y-79796401D01*
X113545653Y-79728871D01*
X113548739Y-79724412D01*
X113548738Y-79724411D01*
X114831259Y-79724411D01*
X114834348Y-79728874D01*
X114916627Y-79796399D01*
X114920614Y-79799063D01*
X115084871Y-79886860D01*
X115089310Y-79888699D01*
X115267546Y-79942767D01*
X115272239Y-79943700D01*
X115457604Y-79961957D01*
X115462396Y-79961957D01*
X115647760Y-79943700D01*
X115652453Y-79942767D01*
X115830689Y-79888699D01*
X115835128Y-79886860D01*
X115999386Y-79799062D01*
X116003369Y-79796401D01*
X116085653Y-79728871D01*
X116088739Y-79724412D01*
X116086104Y-79719670D01*
X115466892Y-79100458D01*
X115460000Y-79097603D01*
X115453107Y-79100458D01*
X114833894Y-79719670D01*
X114831259Y-79724411D01*
X113548738Y-79724411D01*
X113546104Y-79719670D01*
X112926892Y-79100458D01*
X112920000Y-79097603D01*
X112913107Y-79100458D01*
X112293894Y-79719670D01*
X112291259Y-79724411D01*
X100120500Y-79724411D01*
X100120500Y-78989896D01*
X111945543Y-78989896D01*
X111963799Y-79175260D01*
X111964732Y-79179953D01*
X112018800Y-79358189D01*
X112020639Y-79362628D01*
X112108436Y-79526885D01*
X112111100Y-79530872D01*
X112178624Y-79613150D01*
X112183087Y-79616239D01*
X112187828Y-79613604D01*
X112809372Y-78992061D01*
X112812005Y-78987500D01*
X112812004Y-78987499D01*
X113030103Y-78987499D01*
X113032958Y-78994392D01*
X113652170Y-79613604D01*
X113656912Y-79616239D01*
X113661371Y-79613153D01*
X113728901Y-79530869D01*
X113731562Y-79526886D01*
X113819360Y-79362628D01*
X113821199Y-79358189D01*
X113875267Y-79179953D01*
X113876200Y-79175260D01*
X113894457Y-78989896D01*
X114485543Y-78989896D01*
X114503799Y-79175260D01*
X114504732Y-79179953D01*
X114558800Y-79358189D01*
X114560639Y-79362628D01*
X114648436Y-79526885D01*
X114651100Y-79530872D01*
X114718624Y-79613150D01*
X114723087Y-79616239D01*
X114727828Y-79613604D01*
X115349372Y-78992061D01*
X115352005Y-78987500D01*
X115352004Y-78987499D01*
X115570103Y-78987499D01*
X115572958Y-78994392D01*
X116192170Y-79613604D01*
X116196912Y-79616239D01*
X116201371Y-79613153D01*
X116268901Y-79530869D01*
X116271562Y-79526886D01*
X116359360Y-79362628D01*
X116361199Y-79358189D01*
X116415267Y-79179953D01*
X116416200Y-79175260D01*
X116434457Y-78989896D01*
X116434457Y-78987500D01*
X117044901Y-78987500D01*
X117045137Y-78989896D01*
X117061263Y-79153634D01*
X117063253Y-79173831D01*
X117063948Y-79176124D01*
X117063950Y-79176131D01*
X117114789Y-79343722D01*
X117117604Y-79353001D01*
X117205864Y-79518125D01*
X117324643Y-79662857D01*
X117469375Y-79781636D01*
X117634499Y-79869896D01*
X117813669Y-79924247D01*
X118000000Y-79942599D01*
X118186331Y-79924247D01*
X118365501Y-79869896D01*
X118530625Y-79781636D01*
X118675357Y-79662857D01*
X118794136Y-79518125D01*
X118882396Y-79353001D01*
X118936747Y-79173831D01*
X118955099Y-78987500D01*
X119584901Y-78987500D01*
X119585137Y-78989896D01*
X119601263Y-79153634D01*
X119603253Y-79173831D01*
X119603948Y-79176124D01*
X119603950Y-79176131D01*
X119654789Y-79343722D01*
X119657604Y-79353001D01*
X119745864Y-79518125D01*
X119864643Y-79662857D01*
X120009375Y-79781636D01*
X120174499Y-79869896D01*
X120353669Y-79924247D01*
X120540000Y-79942599D01*
X120726331Y-79924247D01*
X120905501Y-79869896D01*
X121070625Y-79781636D01*
X121215357Y-79662857D01*
X121334136Y-79518125D01*
X121422396Y-79353001D01*
X121476747Y-79173831D01*
X121495099Y-78987500D01*
X121476747Y-78801169D01*
X121422396Y-78621999D01*
X121334136Y-78456875D01*
X121215357Y-78312143D01*
X121070625Y-78193364D01*
X121043003Y-78178600D01*
X120907630Y-78106242D01*
X120905501Y-78105104D01*
X120903193Y-78104403D01*
X120903191Y-78104403D01*
X120728631Y-78051450D01*
X120728624Y-78051448D01*
X120726331Y-78050753D01*
X120723941Y-78050517D01*
X120723938Y-78050517D01*
X120542396Y-78032637D01*
X120540000Y-78032401D01*
X120537604Y-78032637D01*
X120356061Y-78050517D01*
X120356056Y-78050517D01*
X120353669Y-78050753D01*
X120351377Y-78051448D01*
X120351368Y-78051450D01*
X120176808Y-78104403D01*
X120176802Y-78104405D01*
X120174499Y-78105104D01*
X120172373Y-78106240D01*
X120172369Y-78106242D01*
X120011499Y-78192228D01*
X120011493Y-78192231D01*
X120009375Y-78193364D01*
X120007518Y-78194887D01*
X120007512Y-78194892D01*
X119866505Y-78310614D01*
X119866500Y-78310618D01*
X119864643Y-78312143D01*
X119863118Y-78314000D01*
X119863114Y-78314005D01*
X119747392Y-78455012D01*
X119747387Y-78455018D01*
X119745864Y-78456875D01*
X119744731Y-78458993D01*
X119744728Y-78458999D01*
X119658742Y-78619869D01*
X119658740Y-78619873D01*
X119657604Y-78621999D01*
X119656905Y-78624302D01*
X119656903Y-78624308D01*
X119603950Y-78798868D01*
X119603948Y-78798877D01*
X119603253Y-78801169D01*
X119603017Y-78803556D01*
X119603017Y-78803561D01*
X119589723Y-78938537D01*
X119584901Y-78987500D01*
X118955099Y-78987500D01*
X118936747Y-78801169D01*
X118882396Y-78621999D01*
X118794136Y-78456875D01*
X118675357Y-78312143D01*
X118530625Y-78193364D01*
X118503003Y-78178600D01*
X118367630Y-78106242D01*
X118365501Y-78105104D01*
X118363193Y-78104403D01*
X118363191Y-78104403D01*
X118188631Y-78051450D01*
X118188624Y-78051448D01*
X118186331Y-78050753D01*
X118183941Y-78050517D01*
X118183938Y-78050517D01*
X118002396Y-78032637D01*
X118000000Y-78032401D01*
X117997604Y-78032637D01*
X117816061Y-78050517D01*
X117816056Y-78050517D01*
X117813669Y-78050753D01*
X117811377Y-78051448D01*
X117811368Y-78051450D01*
X117636808Y-78104403D01*
X117636802Y-78104405D01*
X117634499Y-78105104D01*
X117632373Y-78106240D01*
X117632369Y-78106242D01*
X117471499Y-78192228D01*
X117471493Y-78192231D01*
X117469375Y-78193364D01*
X117467518Y-78194887D01*
X117467512Y-78194892D01*
X117326505Y-78310614D01*
X117326500Y-78310618D01*
X117324643Y-78312143D01*
X117323118Y-78314000D01*
X117323114Y-78314005D01*
X117207392Y-78455012D01*
X117207387Y-78455018D01*
X117205864Y-78456875D01*
X117204731Y-78458993D01*
X117204728Y-78458999D01*
X117118742Y-78619869D01*
X117118740Y-78619873D01*
X117117604Y-78621999D01*
X117116905Y-78624302D01*
X117116903Y-78624308D01*
X117063950Y-78798868D01*
X117063948Y-78798877D01*
X117063253Y-78801169D01*
X117063017Y-78803556D01*
X117063017Y-78803561D01*
X117049723Y-78938537D01*
X117044901Y-78987500D01*
X116434457Y-78987500D01*
X116434457Y-78985104D01*
X116416200Y-78799739D01*
X116415267Y-78795046D01*
X116361199Y-78616810D01*
X116359360Y-78612371D01*
X116271563Y-78448114D01*
X116268899Y-78444127D01*
X116201374Y-78361848D01*
X116196911Y-78358759D01*
X116192170Y-78361394D01*
X115572958Y-78980607D01*
X115570103Y-78987499D01*
X115352004Y-78987499D01*
X115349372Y-78982938D01*
X114727828Y-78361394D01*
X114723087Y-78358759D01*
X114718625Y-78361847D01*
X114651098Y-78444129D01*
X114648436Y-78448115D01*
X114560639Y-78612371D01*
X114558800Y-78616810D01*
X114504732Y-78795046D01*
X114503799Y-78799739D01*
X114485543Y-78985104D01*
X114485543Y-78989896D01*
X113894457Y-78989896D01*
X113894457Y-78985104D01*
X113876200Y-78799739D01*
X113875267Y-78795046D01*
X113821199Y-78616810D01*
X113819360Y-78612371D01*
X113731563Y-78448114D01*
X113728899Y-78444127D01*
X113661374Y-78361848D01*
X113656911Y-78358759D01*
X113652170Y-78361394D01*
X113032958Y-78980607D01*
X113030103Y-78987499D01*
X112812004Y-78987499D01*
X112809372Y-78982938D01*
X112187828Y-78361394D01*
X112183087Y-78358759D01*
X112178625Y-78361847D01*
X112111098Y-78444129D01*
X112108436Y-78448115D01*
X112020639Y-78612371D01*
X112018800Y-78616810D01*
X111964732Y-78795046D01*
X111963799Y-78799739D01*
X111945543Y-78985104D01*
X111945543Y-78989896D01*
X100120500Y-78989896D01*
X100120500Y-78250587D01*
X112291259Y-78250587D01*
X112293894Y-78255328D01*
X112915438Y-78876872D01*
X112920000Y-78879505D01*
X112924561Y-78876872D01*
X113546104Y-78255328D01*
X113548739Y-78250587D01*
X114831259Y-78250587D01*
X114833894Y-78255328D01*
X115455438Y-78876872D01*
X115460000Y-78879505D01*
X115464561Y-78876872D01*
X116086104Y-78255328D01*
X116088739Y-78250587D01*
X116085650Y-78246124D01*
X116003372Y-78178600D01*
X115999385Y-78175936D01*
X115835128Y-78088139D01*
X115830689Y-78086300D01*
X115652453Y-78032232D01*
X115647760Y-78031299D01*
X115462396Y-78013043D01*
X115457604Y-78013043D01*
X115272239Y-78031299D01*
X115267546Y-78032232D01*
X115089310Y-78086300D01*
X115084871Y-78088139D01*
X114920615Y-78175936D01*
X114916629Y-78178598D01*
X114834347Y-78246125D01*
X114831259Y-78250587D01*
X113548739Y-78250587D01*
X113545650Y-78246124D01*
X113463372Y-78178600D01*
X113459385Y-78175936D01*
X113295128Y-78088139D01*
X113290689Y-78086300D01*
X113112453Y-78032232D01*
X113107760Y-78031299D01*
X112922396Y-78013043D01*
X112917604Y-78013043D01*
X112732239Y-78031299D01*
X112727546Y-78032232D01*
X112549310Y-78086300D01*
X112544871Y-78088139D01*
X112380615Y-78175936D01*
X112376629Y-78178598D01*
X112294347Y-78246125D01*
X112291259Y-78250587D01*
X100120500Y-78250587D01*
X100120500Y-77184411D01*
X112291259Y-77184411D01*
X112294348Y-77188874D01*
X112376627Y-77256399D01*
X112380614Y-77259063D01*
X112544871Y-77346860D01*
X112549310Y-77348699D01*
X112727546Y-77402767D01*
X112732239Y-77403700D01*
X112917604Y-77421957D01*
X112922396Y-77421957D01*
X113107760Y-77403700D01*
X113112453Y-77402767D01*
X113290689Y-77348699D01*
X113295128Y-77346860D01*
X113459386Y-77259062D01*
X113463369Y-77256401D01*
X113545653Y-77188871D01*
X113548739Y-77184412D01*
X113548738Y-77184411D01*
X114831259Y-77184411D01*
X114834348Y-77188874D01*
X114916627Y-77256399D01*
X114920614Y-77259063D01*
X115084871Y-77346860D01*
X115089310Y-77348699D01*
X115267546Y-77402767D01*
X115272239Y-77403700D01*
X115457604Y-77421957D01*
X115462396Y-77421957D01*
X115647760Y-77403700D01*
X115652453Y-77402767D01*
X115830689Y-77348699D01*
X115835128Y-77346860D01*
X115999386Y-77259062D01*
X116003369Y-77256401D01*
X116085653Y-77188871D01*
X116088739Y-77184412D01*
X116086104Y-77179670D01*
X115466892Y-76560458D01*
X115460000Y-76557603D01*
X115453107Y-76560458D01*
X114833894Y-77179670D01*
X114831259Y-77184411D01*
X113548738Y-77184411D01*
X113546104Y-77179670D01*
X112926892Y-76560458D01*
X112920000Y-76557603D01*
X112913107Y-76560458D01*
X112293894Y-77179670D01*
X112291259Y-77184411D01*
X100120500Y-77184411D01*
X100120500Y-76449896D01*
X111945543Y-76449896D01*
X111963799Y-76635260D01*
X111964732Y-76639953D01*
X112018800Y-76818189D01*
X112020639Y-76822628D01*
X112108436Y-76986885D01*
X112111100Y-76990872D01*
X112178624Y-77073150D01*
X112183087Y-77076239D01*
X112187828Y-77073604D01*
X112809372Y-76452061D01*
X112812005Y-76447500D01*
X112812004Y-76447499D01*
X113030103Y-76447499D01*
X113032958Y-76454392D01*
X113652170Y-77073604D01*
X113656912Y-77076239D01*
X113661371Y-77073153D01*
X113728901Y-76990869D01*
X113731562Y-76986886D01*
X113819360Y-76822628D01*
X113821199Y-76818189D01*
X113875267Y-76639953D01*
X113876200Y-76635260D01*
X113894457Y-76449896D01*
X114485543Y-76449896D01*
X114503799Y-76635260D01*
X114504732Y-76639953D01*
X114558800Y-76818189D01*
X114560639Y-76822628D01*
X114648436Y-76986885D01*
X114651100Y-76990872D01*
X114718624Y-77073150D01*
X114723087Y-77076239D01*
X114727828Y-77073604D01*
X115349372Y-76452061D01*
X115352005Y-76447500D01*
X115352004Y-76447499D01*
X115570103Y-76447499D01*
X115572958Y-76454392D01*
X116192170Y-77073604D01*
X116196912Y-77076239D01*
X116201371Y-77073153D01*
X116268901Y-76990869D01*
X116271562Y-76986886D01*
X116359360Y-76822628D01*
X116361199Y-76818189D01*
X116415267Y-76639953D01*
X116416200Y-76635260D01*
X116434457Y-76449896D01*
X116434457Y-76447500D01*
X117044901Y-76447500D01*
X117063253Y-76633831D01*
X117063948Y-76636124D01*
X117063950Y-76636131D01*
X117116903Y-76810691D01*
X117117604Y-76813001D01*
X117205864Y-76978125D01*
X117324643Y-77122857D01*
X117469375Y-77241636D01*
X117634499Y-77329896D01*
X117813669Y-77384247D01*
X118000000Y-77402599D01*
X118186331Y-77384247D01*
X118365501Y-77329896D01*
X118530625Y-77241636D01*
X118675357Y-77122857D01*
X118794136Y-76978125D01*
X118882396Y-76813001D01*
X118936747Y-76633831D01*
X118955099Y-76447500D01*
X119584901Y-76447500D01*
X119603253Y-76633831D01*
X119603948Y-76636124D01*
X119603950Y-76636131D01*
X119656903Y-76810691D01*
X119657604Y-76813001D01*
X119745864Y-76978125D01*
X119864643Y-77122857D01*
X120009375Y-77241636D01*
X120174499Y-77329896D01*
X120353669Y-77384247D01*
X120540000Y-77402599D01*
X120726331Y-77384247D01*
X120905501Y-77329896D01*
X121070625Y-77241636D01*
X121215357Y-77122857D01*
X121334136Y-76978125D01*
X121422396Y-76813001D01*
X121476747Y-76633831D01*
X121495099Y-76447500D01*
X121476747Y-76261169D01*
X121422396Y-76081999D01*
X121334136Y-75916875D01*
X121215357Y-75772143D01*
X121070625Y-75653364D01*
X121043003Y-75638600D01*
X120907630Y-75566242D01*
X120905501Y-75565104D01*
X120903193Y-75564403D01*
X120903191Y-75564403D01*
X120728631Y-75511450D01*
X120728624Y-75511448D01*
X120726331Y-75510753D01*
X120723941Y-75510517D01*
X120723938Y-75510517D01*
X120542396Y-75492637D01*
X120540000Y-75492401D01*
X120537604Y-75492637D01*
X120356061Y-75510517D01*
X120356056Y-75510517D01*
X120353669Y-75510753D01*
X120351377Y-75511448D01*
X120351368Y-75511450D01*
X120176808Y-75564403D01*
X120176802Y-75564405D01*
X120174499Y-75565104D01*
X120172373Y-75566240D01*
X120172369Y-75566242D01*
X120011499Y-75652228D01*
X120011493Y-75652231D01*
X120009375Y-75653364D01*
X120007518Y-75654887D01*
X120007512Y-75654892D01*
X119866505Y-75770614D01*
X119866500Y-75770618D01*
X119864643Y-75772143D01*
X119863118Y-75774000D01*
X119863114Y-75774005D01*
X119747392Y-75915012D01*
X119747387Y-75915018D01*
X119745864Y-75916875D01*
X119744731Y-75918993D01*
X119744728Y-75918999D01*
X119658742Y-76079869D01*
X119658740Y-76079873D01*
X119657604Y-76081999D01*
X119656905Y-76084302D01*
X119656903Y-76084308D01*
X119603950Y-76258868D01*
X119603948Y-76258877D01*
X119603253Y-76261169D01*
X119603017Y-76263556D01*
X119603017Y-76263561D01*
X119585754Y-76438832D01*
X119584901Y-76447500D01*
X118955099Y-76447500D01*
X118936747Y-76261169D01*
X118882396Y-76081999D01*
X118794136Y-75916875D01*
X118675357Y-75772143D01*
X118530625Y-75653364D01*
X118503003Y-75638600D01*
X118367630Y-75566242D01*
X118365501Y-75565104D01*
X118363193Y-75564403D01*
X118363191Y-75564403D01*
X118188631Y-75511450D01*
X118188624Y-75511448D01*
X118186331Y-75510753D01*
X118183941Y-75510517D01*
X118183938Y-75510517D01*
X118002396Y-75492637D01*
X118000000Y-75492401D01*
X117997604Y-75492637D01*
X117816061Y-75510517D01*
X117816056Y-75510517D01*
X117813669Y-75510753D01*
X117811377Y-75511448D01*
X117811368Y-75511450D01*
X117636808Y-75564403D01*
X117636802Y-75564405D01*
X117634499Y-75565104D01*
X117632373Y-75566240D01*
X117632369Y-75566242D01*
X117471499Y-75652228D01*
X117471493Y-75652231D01*
X117469375Y-75653364D01*
X117467518Y-75654887D01*
X117467512Y-75654892D01*
X117326505Y-75770614D01*
X117326500Y-75770618D01*
X117324643Y-75772143D01*
X117323118Y-75774000D01*
X117323114Y-75774005D01*
X117207392Y-75915012D01*
X117207387Y-75915018D01*
X117205864Y-75916875D01*
X117204731Y-75918993D01*
X117204728Y-75918999D01*
X117118742Y-76079869D01*
X117118740Y-76079873D01*
X117117604Y-76081999D01*
X117116905Y-76084302D01*
X117116903Y-76084308D01*
X117063950Y-76258868D01*
X117063948Y-76258877D01*
X117063253Y-76261169D01*
X117063017Y-76263556D01*
X117063017Y-76263561D01*
X117045754Y-76438832D01*
X117044901Y-76447500D01*
X116434457Y-76447500D01*
X116434457Y-76445104D01*
X116416200Y-76259739D01*
X116415267Y-76255046D01*
X116361199Y-76076810D01*
X116359360Y-76072371D01*
X116271563Y-75908114D01*
X116268899Y-75904127D01*
X116201374Y-75821848D01*
X116196911Y-75818759D01*
X116192170Y-75821394D01*
X115572958Y-76440607D01*
X115570103Y-76447499D01*
X115352004Y-76447499D01*
X115349372Y-76442938D01*
X114727828Y-75821394D01*
X114723087Y-75818759D01*
X114718625Y-75821847D01*
X114651098Y-75904129D01*
X114648436Y-75908115D01*
X114560639Y-76072371D01*
X114558800Y-76076810D01*
X114504732Y-76255046D01*
X114503799Y-76259739D01*
X114485543Y-76445104D01*
X114485543Y-76449896D01*
X113894457Y-76449896D01*
X113894457Y-76445104D01*
X113876200Y-76259739D01*
X113875267Y-76255046D01*
X113821199Y-76076810D01*
X113819360Y-76072371D01*
X113731563Y-75908114D01*
X113728899Y-75904127D01*
X113661374Y-75821848D01*
X113656911Y-75818759D01*
X113652170Y-75821394D01*
X113032958Y-76440607D01*
X113030103Y-76447499D01*
X112812004Y-76447499D01*
X112809372Y-76442938D01*
X112187828Y-75821394D01*
X112183087Y-75818759D01*
X112178625Y-75821847D01*
X112111098Y-75904129D01*
X112108436Y-75908115D01*
X112020639Y-76072371D01*
X112018800Y-76076810D01*
X111964732Y-76255046D01*
X111963799Y-76259739D01*
X111945543Y-76445104D01*
X111945543Y-76449896D01*
X100120500Y-76449896D01*
X100120500Y-75710587D01*
X112291259Y-75710587D01*
X112293894Y-75715328D01*
X112915438Y-76336872D01*
X112919999Y-76339505D01*
X112924561Y-76336872D01*
X113546104Y-75715328D01*
X113548739Y-75710587D01*
X114831259Y-75710587D01*
X114833894Y-75715328D01*
X115455438Y-76336872D01*
X115459999Y-76339505D01*
X115464561Y-76336872D01*
X116086104Y-75715328D01*
X116088739Y-75710587D01*
X116085650Y-75706124D01*
X116003372Y-75638600D01*
X115999385Y-75635936D01*
X115835128Y-75548139D01*
X115830689Y-75546300D01*
X115652453Y-75492232D01*
X115647760Y-75491299D01*
X115462396Y-75473043D01*
X115457604Y-75473043D01*
X115272239Y-75491299D01*
X115267546Y-75492232D01*
X115089310Y-75546300D01*
X115084871Y-75548139D01*
X114920615Y-75635936D01*
X114916629Y-75638598D01*
X114834347Y-75706125D01*
X114831259Y-75710587D01*
X113548739Y-75710587D01*
X113545650Y-75706124D01*
X113463372Y-75638600D01*
X113459385Y-75635936D01*
X113295128Y-75548139D01*
X113290689Y-75546300D01*
X113112453Y-75492232D01*
X113107760Y-75491299D01*
X112922396Y-75473043D01*
X112917604Y-75473043D01*
X112732239Y-75491299D01*
X112727546Y-75492232D01*
X112549310Y-75546300D01*
X112544871Y-75548139D01*
X112380615Y-75635936D01*
X112376629Y-75638598D01*
X112294347Y-75706125D01*
X112291259Y-75710587D01*
X100120500Y-75710587D01*
X100120500Y-65169500D01*
X100134852Y-65134852D01*
X100169500Y-65120500D01*
X159830500Y-65120500D01*
X159865148Y-65134852D01*
G37*
%TD.AperFunction*%
%TD*%
M02*
