M48
; DRILL file {KiCad (7.0.0)} date Thu Sep 14 17:23:39 2023
; FORMAT={-:-/ absolute / inch / decimal}
; #@! TF.CreationDate,2023-09-14T17:23:39-04:00
; #@! TF.GenerationSoftware,Kicad,Pcbnew,(7.0.0)
; #@! TF.FileFunction,Plated,1,4,PTH
FMAT,2
INCH
; #@! TA.AperFunction,Plated,PTH,ViaDrill
T1C0.0059
; #@! TA.AperFunction,Plated,PTH,ViaDrill
T2C0.0079
; #@! TA.AperFunction,Plated,PTH,ComponentDrill
T3C0.0315
; #@! TA.AperFunction,Plated,PTH,ComponentDrill
T4C0.0394
%
G90
G05
T1
X5.4238Y-3.5937
X5.4248Y-3.7634
X5.4256Y-3.2945
X5.4283Y-3.5236
X5.4288Y-3.5012
X5.4297Y-3.4623
X5.43Y-3.3329
X5.431Y-3.6734
X5.4313Y-3.7075
X5.4321Y-3.4425
X5.438Y-3.3815
X5.4415Y-3.5429
X5.447Y-3.3307
X5.4472Y-3.6181
X5.4537Y-3.7303
X5.4556Y-3.5971
X5.4581Y-3.4677
X5.4583Y-3.3652
X5.462Y-3.3362
X5.4669Y-3.2941
X5.4675Y-3.7394
X5.4717Y-3.6429
X5.4731Y-3.5696
X5.4732Y-3.7157
X5.4734Y-3.5138
X5.4734Y-3.5531
X5.4758Y-3.3358
X5.4774Y-3.7657
X5.4783Y-3.4213
X5.488Y-3.2935
X5.4896Y-3.3358
X5.4898Y-3.6428
X5.49Y-3.5787
X5.4907Y-3.5381
X5.4909Y-3.5138
X5.4969Y-3.7303
X5.4977Y-3.6918
X5.501Y-3.7657
X5.5039Y-3.4656
X5.5046Y-3.4426
X5.5063Y-3.4035
X5.5089Y-3.5512
X5.5128Y-3.6673
X5.5131Y-3.2942
X5.5162Y-3.6422
X5.5183Y-3.5756
X5.524Y-3.6921
X5.5246Y-3.7657
X5.5266Y-3.4016
X5.5295Y-3.4579
X5.5358Y-3.2364
X5.5364Y-3.6673
X5.5423Y-3.4213
X5.546Y-3.5798
X5.5465Y-3.7291
X5.5469Y-3.5377
X5.547Y-3.3329
X5.5482Y-3.7657
X5.5539Y-3.522
X5.56Y-3.6673
X5.5635Y-3.3385
X5.5667Y-3.3106
X5.57Y-3.4508
X5.5719Y-3.7657
X5.572Y-3.6921
X5.574Y-3.5539
X5.5752Y-3.4661
X5.5758Y-3.435
X5.5837Y-3.6673
X5.5845Y-3.5254
X5.5876Y-3.3472
X5.5913Y-3.2519
X5.5921Y-3.7294
X5.5955Y-3.7657
X5.5972Y-3.466
X5.5992Y-3.565
X5.5999Y-3.3663
X5.6009Y-3.6959
X5.6045Y-3.5894
X5.6073Y-3.6673
X5.6112Y-3.247
X5.6112Y-3.3258
X5.6191Y-3.7294
X5.6191Y-3.7657
X5.6211Y-3.3622
X5.6299Y-3.5923
X5.6309Y-3.563
X5.6309Y-3.6673
X5.6319Y-3.3291
X5.6359Y-3.373
X5.6361Y-3.41
X5.6368Y-3.448
X5.6411Y-3.4744
X5.6427Y-3.7657
X5.6451Y-3.4949
X5.6545Y-3.6673
X5.655Y-3.3004
X5.6585Y-3.4488
X5.6632Y-3.6941
X5.6663Y-3.7657
X5.6677Y-3.4717
X5.6681Y-3.7291
X5.6703Y-3.3614
X5.6708Y-3.5904
X5.6781Y-3.6673
X5.6791Y-3.6131
X5.6844Y-3.4461
X5.6873Y-3.5717
X5.6876Y-3.5185
X5.69Y-3.7657
X5.6915Y-3.6921
X5.6933Y-3.4022
X5.6952Y-3.5899
X5.699Y-3.4752
X5.699Y-3.4886
X5.7012Y-3.4481
X5.7014Y-3.5476
X5.7021Y-3.6774
X5.7039Y-3.7291
X5.7051Y-3.3456
X5.71Y-3.3745
X5.7121Y-3.3913
X5.7136Y-3.7657
X5.7151Y-3.5901
X5.7251Y-3.6965
X5.7274Y-3.4469
X5.7315Y-3.5892
X5.7352Y-3.742
X5.7372Y-3.7657
X5.7388Y-3.3422
X5.7401Y-3.462
X5.7402Y-3.5041
X5.7423Y-3.5698
X5.7438Y-3.3916
X5.7459Y-3.5386
X5.7462Y-3.6953
X5.7464Y-3.5196
X5.7509Y-3.4455
X5.7605Y-3.5303
X5.761Y-3.3634
X5.7634Y-3.3958
X5.7648Y-3.4228
X5.7658Y-3.5047
X5.7661Y-3.7402
X5.7694Y-3.6748
X5.77Y-3.4865
X5.7898Y-3.7634
X5.7899Y-3.3658
X5.7901Y-3.405
X5.7902Y-3.7209
T2
X4.0591Y-4.8071
X4.0906Y-3.3386
X4.1516Y-2.7744
X4.2362Y-4.1142
X4.6457Y-3.8323
X4.7323Y-3.738
X4.8504Y-3.622
X4.9313Y-3.7809
X4.9874Y-2.8247
X5.126Y-3.9252
X5.3402Y-2.8976
X5.5079Y-4.1929
X5.7165Y-2.8465
X6.0709Y-3.9961
X6.1339Y-3.4449
X6.1535Y-4.7992
X6.1693Y-2.7205
T4
X4.4457Y-3.0097
X4.4457Y-3.1097
X4.5457Y-3.0097
X4.5457Y-3.1097
X4.6457Y-3.0097
X4.6457Y-3.1097
X4.7457Y-3.0097
X4.7457Y-3.1097
X4.8457Y-3.0097
X4.8457Y-3.1097
T3
G00X5.7069Y-3.3079
M15
G01X5.7069Y-3.2606
M16
G05
G00X5.773Y-3.3079
M15
G01X5.773Y-3.2606
M16
G05
T0
M30
