%TF.GenerationSoftware,KiCad,Pcbnew,(7.0.0)*%
%TF.CreationDate,2023-03-15T10:57:15-04:00*%
%TF.ProjectId,headstage-neuropix2e,68656164-7374-4616-9765-2d6e6575726f,A*%
%TF.SameCoordinates,Original*%
%TF.FileFunction,Copper,L4,Bot*%
%TF.FilePolarity,Positive*%
%FSLAX46Y46*%
G04 Gerber Fmt 4.6, Leading zero omitted, Abs format (unit mm)*
G04 Created by KiCad (PCBNEW (7.0.0)) date 2023-03-15 10:57:15*
%MOMM*%
%LPD*%
G01*
G04 APERTURE LIST*
G04 Aperture macros list*
%AMRoundRect*
0 Rectangle with rounded corners*
0 $1 Rounding radius*
0 $2 $3 $4 $5 $6 $7 $8 $9 X,Y pos of 4 corners*
0 Add a 4 corners polygon primitive as box body*
4,1,4,$2,$3,$4,$5,$6,$7,$8,$9,$2,$3,0*
0 Add four circle primitives for the rounded corners*
1,1,$1+$1,$2,$3*
1,1,$1+$1,$4,$5*
1,1,$1+$1,$6,$7*
1,1,$1+$1,$8,$9*
0 Add four rect primitives between the rounded corners*
20,1,$1+$1,$2,$3,$4,$5,0*
20,1,$1+$1,$4,$5,$6,$7,0*
20,1,$1+$1,$6,$7,$8,$9,0*
20,1,$1+$1,$8,$9,$2,$3,0*%
%AMOutline5P*
0 Free polygon, 5 corners , with rotation*
0 The origin of the aperture is its center*
0 number of corners: always 5*
0 $1 to $10 corner X, Y*
0 $11 Rotation angle, in degrees counterclockwise*
0 create outline with 5 corners*
4,1,5,$1,$2,$3,$4,$5,$6,$7,$8,$9,$10,$1,$2,$11*%
%AMOutline6P*
0 Free polygon, 6 corners , with rotation*
0 The origin of the aperture is its center*
0 number of corners: always 6*
0 $1 to $12 corner X, Y*
0 $13 Rotation angle, in degrees counterclockwise*
0 create outline with 6 corners*
4,1,6,$1,$2,$3,$4,$5,$6,$7,$8,$9,$10,$11,$12,$1,$2,$13*%
%AMOutline7P*
0 Free polygon, 7 corners , with rotation*
0 The origin of the aperture is its center*
0 number of corners: always 7*
0 $1 to $14 corner X, Y*
0 $15 Rotation angle, in degrees counterclockwise*
0 create outline with 7 corners*
4,1,7,$1,$2,$3,$4,$5,$6,$7,$8,$9,$10,$11,$12,$13,$14,$1,$2,$15*%
%AMOutline8P*
0 Free polygon, 8 corners , with rotation*
0 The origin of the aperture is its center*
0 number of corners: always 8*
0 $1 to $16 corner X, Y*
0 $17 Rotation angle, in degrees counterclockwise*
0 create outline with 8 corners*
4,1,8,$1,$2,$3,$4,$5,$6,$7,$8,$9,$10,$11,$12,$13,$14,$15,$16,$1,$2,$17*%
%AMFreePoly0*
4,1,13,-0.200000,0.080000,-0.190866,0.125922,-0.164853,0.164853,-0.125922,0.190866,-0.080000,0.200000,0.200000,0.200000,0.200000,-0.200000,-0.080000,-0.200000,-0.125922,-0.190866,-0.164853,-0.164853,-0.190866,-0.125922,-0.200000,-0.080000,-0.200000,0.080000,-0.200000,0.080000,$1*%
%AMFreePoly1*
4,1,13,-0.200000,0.200000,0.080000,0.200000,0.125922,0.190866,0.164853,0.164853,0.190866,0.125922,0.200000,0.080000,0.200000,-0.080000,0.190866,-0.125922,0.164853,-0.164853,0.125922,-0.190866,0.080000,-0.200000,-0.200000,-0.200000,-0.200000,0.200000,-0.200000,0.200000,$1*%
G04 Aperture macros list end*
%TA.AperFunction,ComponentPad*%
%ADD10O,1.400000X2.600000*%
%TD*%
%TA.AperFunction,ComponentPad*%
%ADD11RoundRect,0.250000X-0.600000X0.600000X-0.600000X-0.600000X0.600000X-0.600000X0.600000X0.600000X0*%
%TD*%
%TA.AperFunction,ComponentPad*%
%ADD12C,1.700000*%
%TD*%
%TA.AperFunction,SMDPad,CuDef*%
%ADD13FreePoly0,90.000000*%
%TD*%
%TA.AperFunction,SMDPad,CuDef*%
%ADD14R,0.400000X0.400000*%
%TD*%
%TA.AperFunction,SMDPad,CuDef*%
%ADD15FreePoly1,90.000000*%
%TD*%
%TA.AperFunction,SMDPad,CuDef*%
%ADD16RoundRect,0.218750X0.218750X0.381250X-0.218750X0.381250X-0.218750X-0.381250X0.218750X-0.381250X0*%
%TD*%
%TA.AperFunction,SMDPad,CuDef*%
%ADD17RoundRect,0.015000X-0.135000X-0.385000X0.135000X-0.385000X0.135000X0.385000X-0.135000X0.385000X0*%
%TD*%
%TA.AperFunction,SMDPad,CuDef*%
%ADD18RoundRect,0.020000X-0.180000X-0.455000X0.180000X-0.455000X0.180000X0.455000X-0.180000X0.455000X0*%
%TD*%
%TA.AperFunction,SMDPad,CuDef*%
%ADD19C,0.180000*%
%TD*%
%TA.AperFunction,SMDPad,CuDef*%
%ADD20RoundRect,0.100000X0.130000X0.100000X-0.130000X0.100000X-0.130000X-0.100000X0.130000X-0.100000X0*%
%TD*%
%TA.AperFunction,SMDPad,CuDef*%
%ADD21C,0.200000*%
%TD*%
%TA.AperFunction,SMDPad,CuDef*%
%ADD22RoundRect,0.100000X-0.130000X-0.100000X0.130000X-0.100000X0.130000X0.100000X-0.130000X0.100000X0*%
%TD*%
%TA.AperFunction,SMDPad,CuDef*%
%ADD23RoundRect,0.140000X0.170000X-0.140000X0.170000X0.140000X-0.170000X0.140000X-0.170000X-0.140000X0*%
%TD*%
%TA.AperFunction,SMDPad,CuDef*%
%ADD24RoundRect,0.100000X0.100000X-0.130000X0.100000X0.130000X-0.100000X0.130000X-0.100000X-0.130000X0*%
%TD*%
%TA.AperFunction,SMDPad,CuDef*%
%ADD25RoundRect,0.100000X-0.100000X0.130000X-0.100000X-0.130000X0.100000X-0.130000X0.100000X0.130000X0*%
%TD*%
%TA.AperFunction,SMDPad,CuDef*%
%ADD26Outline5P,-0.387500X0.337500X0.387500X0.337500X0.387500X-0.202500X0.252500X-0.337500X-0.387500X-0.337500X0.000000*%
%TD*%
%TA.AperFunction,SMDPad,CuDef*%
%ADD27RoundRect,0.020250X-0.367250X-0.317250X0.367250X-0.317250X0.367250X0.317250X-0.367250X0.317250X0*%
%TD*%
%TA.AperFunction,SMDPad,CuDef*%
%ADD28RoundRect,0.036000X-0.264000X0.084000X-0.264000X-0.084000X0.264000X-0.084000X0.264000X0.084000X0*%
%TD*%
%TA.AperFunction,SMDPad,CuDef*%
%ADD29RoundRect,0.036000X0.084000X0.264000X-0.084000X0.264000X-0.084000X-0.264000X0.084000X-0.264000X0*%
%TD*%
%TA.AperFunction,SMDPad,CuDef*%
%ADD30RoundRect,0.036000X-0.084000X-0.264000X0.084000X-0.264000X0.084000X0.264000X-0.084000X0.264000X0*%
%TD*%
%TA.AperFunction,SMDPad,CuDef*%
%ADD31RoundRect,0.062000X-1.488000X-1.488000X1.488000X-1.488000X1.488000X1.488000X-1.488000X1.488000X0*%
%TD*%
%TA.AperFunction,SMDPad,CuDef*%
%ADD32RoundRect,0.250000X1.075000X-0.375000X1.075000X0.375000X-1.075000X0.375000X-1.075000X-0.375000X0*%
%TD*%
%TA.AperFunction,ViaPad*%
%ADD33C,0.200000*%
%TD*%
%TA.AperFunction,ViaPad*%
%ADD34C,0.300000*%
%TD*%
%TA.AperFunction,Conductor*%
%ADD35C,0.150000*%
%TD*%
%TA.AperFunction,Conductor*%
%ADD36C,0.100000*%
%TD*%
%TA.AperFunction,Conductor*%
%ADD37C,0.200000*%
%TD*%
%TA.AperFunction,Conductor*%
%ADD38C,0.300000*%
%TD*%
%TA.AperFunction,Conductor*%
%ADD39C,0.172000*%
%TD*%
G04 APERTURE END LIST*
%TO.C,JP1*%
G36*
X140905000Y-92160000D02*
G01*
X140745000Y-92160000D01*
X140745000Y-91960000D01*
X140905000Y-91960000D01*
X140905000Y-92160000D01*
G37*
%TD*%
D10*
%TO.P,TP2,1,1*%
%TO.N,/Neuropixels 2.0/NP_{TP0}*%
X146634999Y-83419999D03*
%TD*%
%TO.P,TP1,1,1*%
%TO.N,GND*%
X144954999Y-83419999D03*
%TD*%
D11*
%TO.P,J4,1,Pin_1*%
%TO.N,+4V*%
X123080000Y-76447500D03*
D12*
%TO.P,J4,2,Pin_2*%
X123080000Y-78987500D03*
%TO.P,J4,3,Pin_3*%
%TO.N,/Neuropixels 2.0/SCL*%
X120540000Y-76447500D03*
%TO.P,J4,4,Pin_4*%
X120540000Y-78987500D03*
%TO.P,J4,5,Pin_5*%
%TO.N,/Neuropixels 2.0/SDA*%
X118000000Y-76447500D03*
%TO.P,J4,6,Pin_6*%
X118000000Y-78987500D03*
%TO.P,J4,7,Pin_7*%
%TO.N,GND*%
X115460000Y-76447500D03*
%TO.P,J4,8,Pin_8*%
X115460000Y-78987500D03*
%TO.P,J4,9,Pin_9*%
X112920000Y-76447500D03*
%TO.P,J4,10,Pin_10*%
X112920000Y-78987500D03*
%TD*%
D13*
%TO.P,JP1,1,A*%
%TO.N,Net-(JP1-A)*%
X140824999Y-92329999D03*
D14*
%TO.P,JP1,2,C*%
%TO.N,/Neuropixels 2.0/SYNC*%
X140824999Y-91789999D03*
D15*
%TO.P,JP1,3,B*%
%TO.N,Net-(JP1-B)*%
X140824999Y-91249999D03*
%TD*%
D16*
%TO.P,L2,1,1*%
%TO.N,/DC Tap & Regulation/RF+DC*%
X143450000Y-82900000D03*
%TO.P,L2,2,2*%
%TO.N,Net-(L1-Pad2)*%
X141325000Y-82900000D03*
%TD*%
D17*
%TO.P,J3,1,Pin_1*%
%TO.N,GND*%
X146325000Y-95625000D03*
%TO.P,J3,2,Pin_2*%
%TO.N,/Neuropixels 2.0/SDA_{B}*%
X146025000Y-93155000D03*
%TO.P,J3,3,Pin_3*%
%TO.N,/Neuropixels 2.0/NP_{RESET}*%
X145725000Y-95625000D03*
%TO.P,J3,4,Pin_4*%
%TO.N,/Neuropixels 2.0/SCL*%
X145425000Y-93155000D03*
%TO.P,J3,5,Pin_5*%
%TO.N,/Neuropixels 2.0/SYNC*%
X145125000Y-95625000D03*
%TO.P,J3,6,Pin_6*%
%TO.N,/Neuropixels 2.0/D0*%
X144825000Y-93155000D03*
%TO.P,J3,7,Pin_7*%
%TO.N,GND*%
X144525000Y-95625000D03*
%TO.P,J3,8,Pin_8*%
%TO.N,/Neuropixels 2.0/D1*%
X144225000Y-93155000D03*
%TO.P,J3,9,Pin_9*%
%TO.N,GND*%
X143925000Y-95625000D03*
%TO.P,J3,10,Pin_10*%
%TO.N,/Neuropixels 2.0/D2*%
X143625000Y-93155000D03*
%TO.P,J3,11,Pin_11*%
%TO.N,+1.8VA*%
X143325000Y-95625000D03*
%TO.P,J3,12,Pin_12*%
%TO.N,/Neuropixels 2.0/D3*%
X143025000Y-93155000D03*
%TO.P,J3,13,Pin_13*%
%TO.N,GND*%
X142725000Y-95625000D03*
%TO.P,J3,14,Pin_14*%
%TO.N,/Neuropixels 2.0/PCLK*%
X142425000Y-93155000D03*
%TO.P,J3,15,Pin_15*%
%TO.N,GND*%
X142125000Y-95625000D03*
%TO.P,J3,16,Pin_16*%
%TO.N,/Neuropixels 2.0/D4*%
X141825000Y-93155000D03*
%TO.P,J3,17,Pin_17*%
%TO.N,+1.8VA*%
X141525000Y-95625000D03*
%TO.P,J3,18,Pin_18*%
%TO.N,/Neuropixels 2.0/D5*%
X141225000Y-93155000D03*
%TO.P,J3,19,Pin_19*%
%TO.N,GND*%
X140925000Y-95625000D03*
%TO.P,J3,20,Pin_20*%
%TO.N,/Neuropixels 2.0/D6*%
X140625000Y-93155000D03*
%TO.P,J3,21,Pin_21*%
%TO.N,GND*%
X140325000Y-95625000D03*
%TO.P,J3,22,Pin_22*%
%TO.N,/Neuropixels 2.0/D7*%
X140025000Y-93155000D03*
%TO.P,J3,23,Pin_23*%
%TO.N,/Neuropixels 2.0/SYNC*%
X139725000Y-95625000D03*
%TO.P,J3,24,Pin_24*%
%TO.N,/Neuropixels 2.0/NP_{TP1}*%
X139425000Y-93155000D03*
%TO.P,J3,25,Pin_25*%
%TO.N,/Neuropixels 2.0/NP_{RESET}*%
X139125000Y-95625000D03*
%TO.P,J3,26,Pin_26*%
%TO.N,GND*%
X138825000Y-93155000D03*
%TO.P,J3,27,Pin_27*%
%TO.N,/Neuropixels 2.0/NP_{TP0}*%
X138525000Y-95625000D03*
D18*
%TO.P,J3,MP,MountPin*%
%TO.N,GND*%
X147060000Y-95580000D03*
X137790000Y-95580000D03*
%TD*%
D19*
%TO.P,U6,A1,VCC*%
%TO.N,+1V8*%
X145475000Y-86100000D03*
%TO.P,U6,A2,VSS*%
%TO.N,GND*%
X145475000Y-85700000D03*
%TO.P,U6,B1,SCL*%
%TO.N,/Neuropixels 2.0/SCL*%
X145075000Y-86100000D03*
%TO.P,U6,B2,SDA*%
%TO.N,/Neuropixels 2.0/SDA*%
X145075000Y-85700000D03*
%TD*%
D20*
%TO.P,C25,1*%
%TO.N,GND*%
X146895000Y-85950000D03*
%TO.P,C25,2*%
%TO.N,+1V8*%
X146255000Y-85950000D03*
%TD*%
D21*
%TO.P,U2,A1,VIN*%
%TO.N,+2V5*%
X138570000Y-91025000D03*
%TO.P,U2,A2,VOUT*%
%TO.N,+1.8VA*%
X138570000Y-91375000D03*
%TO.P,U2,B1,EN*%
%TO.N,+1V8*%
X138920000Y-91025000D03*
%TO.P,U2,B2,GND*%
%TO.N,GND*%
X138920000Y-91375000D03*
%TD*%
D22*
%TO.P,R5,1*%
%TO.N,+1V8*%
X138055000Y-86900000D03*
%TO.P,R5,2*%
%TO.N,Net-(U3-PDB)*%
X138695000Y-86900000D03*
%TD*%
D20*
%TO.P,C28,1*%
%TO.N,GND*%
X140065000Y-92300000D03*
%TO.P,C28,2*%
%TO.N,Net-(U7-CAP)*%
X139425000Y-92300000D03*
%TD*%
D23*
%TO.P,C12,1*%
%TO.N,Net-(U3-VDDPLL)*%
X141925000Y-85980000D03*
%TO.P,C12,2*%
%TO.N,GND*%
X141925000Y-85020000D03*
%TD*%
D24*
%TO.P,C11,1*%
%TO.N,Net-(U3-VDDPLL)*%
X143475000Y-86040000D03*
%TO.P,C11,2*%
%TO.N,GND*%
X143475000Y-85400000D03*
%TD*%
%TO.P,R11,1*%
%TO.N,+1.8VA*%
X140165000Y-91570000D03*
%TO.P,R11,2*%
%TO.N,/Neuropixels 2.0/SCL*%
X140165000Y-90930000D03*
%TD*%
D25*
%TO.P,L3,1,1*%
%TO.N,Net-(U3-VDDPLL)*%
X141055000Y-85460000D03*
%TO.P,L3,2,2*%
%TO.N,+1V8*%
X141055000Y-86100000D03*
%TD*%
D24*
%TO.P,C4,1*%
%TO.N,+1.8VA*%
X139445000Y-91570000D03*
%TO.P,C4,2*%
%TO.N,GND*%
X139445000Y-90930000D03*
%TD*%
D20*
%TO.P,R12,1*%
%TO.N,Net-(U5-OUT)*%
X140545000Y-89500000D03*
%TO.P,R12,2*%
%TO.N,/Neuropixels 2.0/PCLK*%
X139905000Y-89500000D03*
%TD*%
D22*
%TO.P,C21,1*%
%TO.N,Net-(U3-PDB)*%
X139615000Y-86860000D03*
%TO.P,C21,2*%
%TO.N,GND*%
X140255000Y-86860000D03*
%TD*%
D26*
%TO.P,U5,1,EN*%
%TO.N,+1V8*%
X139187499Y-87712499D03*
D27*
%TO.P,U5,2,GND*%
%TO.N,GND*%
X140462500Y-87712500D03*
%TO.P,U5,3,OUT*%
%TO.N,Net-(U5-OUT)*%
X140462500Y-88687500D03*
%TO.P,U5,4,VCC*%
%TO.N,+1V8*%
X139187500Y-88687500D03*
%TD*%
D24*
%TO.P,C27,1*%
%TO.N,GND*%
X139055000Y-90160000D03*
%TO.P,C27,2*%
%TO.N,+1V8*%
X139055000Y-89520000D03*
%TD*%
D20*
%TO.P,C24,1*%
%TO.N,/Neuropixels 2.0/PCLK*%
X140545000Y-90200000D03*
%TO.P,C24,2*%
%TO.N,GND*%
X139905000Y-90200000D03*
%TD*%
D22*
%TO.P,R8,1*%
%TO.N,+1V8*%
X138015000Y-92300000D03*
%TO.P,R8,2*%
%TO.N,/Neuropixels 2.0/SYNC*%
X138655000Y-92300000D03*
%TD*%
%TO.P,R2,1*%
%TO.N,Net-(L1-Pad2)*%
X142005000Y-84100000D03*
%TO.P,R2,2*%
%TO.N,/DC Tap & Regulation/RF+DC*%
X142645000Y-84100000D03*
%TD*%
D25*
%TO.P,C5,1*%
%TO.N,+2V5*%
X138045000Y-90880000D03*
%TO.P,C5,2*%
%TO.N,GND*%
X138045000Y-91520000D03*
%TD*%
%TO.P,C26,1*%
%TO.N,GND*%
X138125000Y-89300000D03*
%TO.P,C26,2*%
%TO.N,+2V5*%
X138125000Y-89940000D03*
%TD*%
D24*
%TO.P,C10,1*%
%TO.N,Net-(U3-VDDPLL)*%
X142775000Y-86020000D03*
%TO.P,C10,2*%
%TO.N,GND*%
X142775000Y-85380000D03*
%TD*%
D28*
%TO.P,U3,1,HSYNC*%
%TO.N,Net-(JP1-A)*%
X141625000Y-91150000D03*
%TO.P,U3,2,VSYNC*%
%TO.N,Net-(JP1-B)*%
X141625000Y-90650000D03*
%TO.P,U3,3,PCLK*%
%TO.N,/Neuropixels 2.0/PCLK*%
X141625000Y-90150000D03*
%TO.P,U3,4,SCL*%
%TO.N,/Neuropixels 2.0/SCL*%
X141625000Y-89650000D03*
%TO.P,U3,5,SDA*%
%TO.N,/Neuropixels 2.0/SDA*%
X141625000Y-89150000D03*
%TO.P,U3,6,ID[X]*%
%TO.N,GND*%
X141625000Y-88650000D03*
%TO.P,U3,7,RES*%
X141625000Y-88150000D03*
%TO.P,U3,8,MODE*%
%TO.N,Net-(U3-MODE)*%
X141625000Y-87650000D03*
D29*
%TO.P,U3,9,PDB*%
%TO.N,Net-(U3-PDB)*%
X142275000Y-87000000D03*
%TO.P,U3,10,VDDPLL*%
%TO.N,Net-(U3-VDDPLL)*%
X142775000Y-87000000D03*
%TO.P,U3,11,VDDT*%
%TO.N,+1V8*%
X143275000Y-87000000D03*
%TO.P,U3,12,DOUTN*%
%TO.N,Net-(U3-DOUTN)*%
X143775000Y-87000000D03*
%TO.P,U3,13,DOUTP*%
%TO.N,Net-(U3-DOUTP)*%
X144275000Y-87000000D03*
%TO.P,U3,14,VDDCML*%
%TO.N,Net-(U3-VDDCML)*%
X144775000Y-87000000D03*
D30*
%TO.P,U3,15,GPIO0*%
%TO.N,/Neuropixels 2.0/NP_{RESET}*%
X145275000Y-87000000D03*
D29*
%TO.P,U3,16,GPIO1*%
%TO.N,/Neuropixels 2.0/NP_{Select}*%
X145775000Y-87000000D03*
D28*
%TO.P,U3,17,GPIO2/CLK0*%
%TO.N,/Perpherials/GPIO*%
X146425000Y-87650000D03*
%TO.P,U3,18,GPIO3/CLKIN*%
%TO.N,Net-(U3-GPIO3{slash}CLKIN)*%
X146425000Y-88150000D03*
%TO.P,U3,19,DIN_0*%
%TO.N,/Neuropixels 2.0/D0*%
X146425000Y-88650000D03*
%TO.P,U3,20,DIN_1*%
%TO.N,/Neuropixels 2.0/D1*%
X146425000Y-89150000D03*
%TO.P,U3,21,DIN_2*%
%TO.N,/Neuropixels 2.0/D2*%
X146425000Y-89650000D03*
%TO.P,U3,22,DIN_3*%
%TO.N,/Neuropixels 2.0/D3*%
X146425000Y-90150001D03*
%TO.P,U3,23,DIN_4*%
%TO.N,/Neuropixels 2.0/D4*%
X146425000Y-90650000D03*
%TO.P,U3,24,DIN_5*%
%TO.N,/Neuropixels 2.0/D5*%
X146425000Y-91150000D03*
D29*
%TO.P,U3,25,VDDIO*%
%TO.N,+1V8*%
X145775000Y-91800000D03*
%TO.P,U3,26,DIN_6*%
%TO.N,/Neuropixels 2.0/D6*%
X145275000Y-91800000D03*
%TO.P,U3,27,DIN_7*%
%TO.N,/Neuropixels 2.0/D7*%
X144775000Y-91800000D03*
%TO.P,U3,28,VDDD*%
%TO.N,+1V8*%
X144275000Y-91800000D03*
%TO.P,U3,29,DIN_8*%
%TO.N,unconnected-(U3-DIN_8-Pad29)*%
X143775000Y-91800000D03*
%TO.P,U3,30,DIN_9*%
%TO.N,unconnected-(U3-DIN_9-Pad30)*%
X143275000Y-91800000D03*
%TO.P,U3,31,DIN_10*%
%TO.N,unconnected-(U3-DIN_10-Pad31)*%
X142775000Y-91800000D03*
%TO.P,U3,32,DIN_11*%
%TO.N,unconnected-(U3-DIN_11-Pad32)*%
X142275000Y-91800000D03*
D31*
%TO.P,U3,33,GND(DAP)*%
%TO.N,GND*%
X144025000Y-89400000D03*
%TD*%
D32*
%TO.P,L1,1,1*%
%TO.N,+4V*%
X139025000Y-85600000D03*
%TO.P,L1,2,2*%
%TO.N,Net-(L1-Pad2)*%
X139025000Y-82800000D03*
%TD*%
D24*
%TO.P,C23,1*%
%TO.N,+1V8*%
X138145000Y-88490000D03*
%TO.P,C23,2*%
%TO.N,GND*%
X138145000Y-87850000D03*
%TD*%
%TO.P,C20,1*%
%TO.N,Net-(U3-DOUTN)*%
X144325000Y-86020000D03*
%TO.P,C20,2*%
%TO.N,/Serializer/Dout-*%
X144325000Y-85380000D03*
%TD*%
D33*
%TO.N,Net-(U3-MODE)*%
X141625000Y-87650000D03*
%TO.N,GND*%
X146915000Y-84930000D03*
X138835000Y-83649300D03*
X137898663Y-88881316D03*
X142125000Y-95650000D03*
X142725000Y-94750000D03*
D34*
X156300000Y-121900000D03*
D33*
X142075000Y-94750000D03*
X139870000Y-87480000D03*
X139750000Y-88050498D03*
X141615000Y-84550000D03*
X145475000Y-87550000D03*
X144000000Y-94725000D03*
X146785000Y-95970000D03*
X139445000Y-90900000D03*
X145625000Y-94100000D03*
D34*
X139900000Y-106500000D03*
D33*
X144005000Y-91150000D03*
X139415000Y-83640000D03*
X142574999Y-82474998D03*
X137915500Y-87943311D03*
X139470000Y-89250000D03*
D34*
X135640000Y-73600000D03*
D33*
X144455000Y-90760000D03*
X143185000Y-84540000D03*
X137925000Y-95200000D03*
X146925000Y-95200000D03*
X141525000Y-93720500D03*
X146680000Y-94660000D03*
X140005000Y-83700000D03*
X145275000Y-94750000D03*
X146025000Y-85130000D03*
X140362500Y-88150500D03*
X143225000Y-85400000D03*
X147035000Y-85460000D03*
X144755000Y-88270000D03*
X138306076Y-91856076D03*
X139025000Y-90250000D03*
X141607409Y-88089070D03*
X144465000Y-89370000D03*
X144525000Y-95650000D03*
X143025000Y-90500000D03*
X143925000Y-95650000D03*
X140075000Y-94775000D03*
X139165000Y-86900000D03*
X140925000Y-95650000D03*
X143025000Y-90000000D03*
X140225000Y-92510000D03*
X141975000Y-82620000D03*
X143845000Y-93830000D03*
X140325000Y-93720500D03*
X137785000Y-89620000D03*
X137810700Y-83680000D03*
X139925000Y-90200000D03*
X144755000Y-88610000D03*
X140325000Y-95650000D03*
X138525000Y-94750000D03*
D34*
X126680000Y-71747500D03*
X156700000Y-69100000D03*
X155800000Y-87500000D03*
D33*
X141225000Y-84830000D03*
X143725000Y-87600000D03*
X144565000Y-93780000D03*
X144815000Y-90110000D03*
X142775000Y-85400000D03*
X141395000Y-84090000D03*
X140462500Y-87724500D03*
X143705000Y-84520000D03*
X147010000Y-94230000D03*
X143565000Y-84070000D03*
X142475000Y-85050000D03*
X143285000Y-88250000D03*
X144185000Y-87630000D03*
X147135000Y-86480000D03*
D34*
X107600000Y-104500000D03*
X103100000Y-122100000D03*
D33*
X142725000Y-93710000D03*
X139455000Y-90190000D03*
X143025000Y-91150500D03*
X140905000Y-94725000D03*
X143880840Y-88220500D03*
X143385000Y-88770000D03*
X145125000Y-85330000D03*
X139107347Y-94319500D03*
X142165000Y-90630000D03*
D34*
X105450000Y-70470000D03*
D33*
X142725000Y-95650000D03*
X137955000Y-94170000D03*
X142355000Y-91170000D03*
D34*
X145200000Y-72300000D03*
D33*
X137975000Y-87440000D03*
D34*
X154200000Y-101500000D03*
D33*
X141625000Y-87249500D03*
D34*
X103900000Y-84800000D03*
X130200000Y-99700000D03*
D33*
X142025000Y-85450000D03*
X137781392Y-91260865D03*
X137915000Y-93180000D03*
X139725000Y-86450000D03*
%TO.N,+1V8*%
X145875500Y-91592347D03*
X139435000Y-84730000D03*
X139025000Y-89250000D03*
X146434268Y-86221264D03*
X138620290Y-88099352D03*
X144275000Y-91650500D03*
X143157963Y-86612963D03*
D34*
X140775000Y-86900000D03*
D33*
X138147595Y-92527730D03*
X146655000Y-87170000D03*
X145820230Y-89664770D03*
X138984500Y-91016076D03*
%TO.N,/Neuropixels 2.0/PCLK*%
X141625000Y-90210000D03*
X142425000Y-93150000D03*
%TO.N,/Neuropixels 2.0/SDA_{A}*%
X139040000Y-92557084D03*
X142122378Y-89995974D03*
%TO.N,+4V*%
X138640419Y-85475200D03*
D34*
X138124999Y-85890001D03*
X120200000Y-94945000D03*
D33*
X138355000Y-84600000D03*
D34*
%TO.N,/Neuropixels 2.0/SCL*%
X118000000Y-97340000D03*
D33*
X140625000Y-90625000D03*
X142235000Y-89324500D03*
X145075000Y-86100000D03*
X138735000Y-84740000D03*
X139642609Y-93772609D03*
X141234061Y-89672090D03*
%TO.N,/Neuropixels 2.0/SYNC*%
X139725000Y-95650000D03*
X145125000Y-95650000D03*
%TO.N,/Neuropixels 2.0/D7*%
X144455065Y-91149935D03*
X140025000Y-93150000D03*
%TO.N,Net-(L1-Pad2)*%
X137921788Y-84655700D03*
%TO.N,/Neuropixels 2.0/D6*%
X145075000Y-91385075D03*
X140625000Y-93150000D03*
%TO.N,/Neuropixels 2.0/D5*%
X141225000Y-93150000D03*
X145539322Y-91153783D03*
%TO.N,/Neuropixels 2.0/D4*%
X141825000Y-93150000D03*
X145855000Y-90720000D03*
%TO.N,/Neuropixels 2.0/D3*%
X143025000Y-93150000D03*
X145871150Y-90001022D03*
%TO.N,/Neuropixels 2.0/D2*%
X146185000Y-89750000D03*
X143625000Y-93150000D03*
%TO.N,/Neuropixels 2.0/D1*%
X146405000Y-89140000D03*
X144225000Y-93150000D03*
%TO.N,/Neuropixels 2.0/D0*%
X146425000Y-88650002D03*
X144825000Y-93150000D03*
D34*
%TO.N,/DC Tap & Regulation/RF+DC*%
X142525000Y-84475000D03*
D33*
%TO.N,/Neuropixels 2.0/NP_{TP0}*%
X138875000Y-94980000D03*
X146325000Y-95000000D03*
%TO.N,/Neuropixels 2.0/SDA_{B}*%
X146068576Y-93973576D03*
%TO.N,/Neuropixels 2.0/SDA*%
X142225000Y-90290000D03*
X143175250Y-87650499D03*
X145774501Y-90410000D03*
X142177262Y-88059188D03*
X141625000Y-89150000D03*
X139085000Y-84730000D03*
D34*
X123200000Y-92000000D03*
D33*
X144915000Y-85700000D03*
D34*
X125255000Y-96035000D03*
D33*
%TO.N,/Perpherials/GPIO*%
X140600000Y-82204300D03*
X146099498Y-87271944D03*
%TO.N,/Neuropixels 2.0/NP_{Select}*%
X145975500Y-86850000D03*
X145774501Y-88979500D03*
D34*
%TO.N,+2V5*%
X140375000Y-86400000D03*
D33*
X138215000Y-89990000D03*
%TO.N,Net-(U3-DOUTP)*%
X144425000Y-86449500D03*
%TO.N,Net-(U7-CAP)*%
X139483691Y-92449503D03*
%TO.N,Net-(U3-GPIO3{slash}CLKIN)*%
X145857158Y-86184021D03*
X145895000Y-87940000D03*
%TO.N,/Neuropixels 2.0/NP_{RESET}*%
X145725000Y-95650000D03*
X139125000Y-95650000D03*
X145675000Y-95046446D03*
%TO.N,+1.8VA*%
X143205000Y-93880000D03*
X141525000Y-95650000D03*
X138570000Y-91375000D03*
X143325000Y-95650000D03*
X143331424Y-92606424D03*
%TO.N,/Neuropixels 2.0/NP_{TP1}*%
X146495500Y-93475000D03*
%TO.N,/Serializer/Dout-*%
X144025000Y-85380000D03*
%TO.N,Net-(U3-VDDCML)*%
X144845000Y-87650499D03*
%TD*%
D35*
%TO.N,GND*%
X139014485Y-91375000D02*
X138920000Y-91375000D01*
X139445000Y-90930000D02*
X139445000Y-90944485D01*
X139445000Y-90944485D02*
X139014485Y-91375000D01*
D36*
X136947889Y-85202111D02*
X137352111Y-85202111D01*
D35*
X138825000Y-94037153D02*
X139107347Y-94319500D01*
D37*
X140255000Y-86845736D02*
X139859264Y-86450000D01*
D35*
X146785000Y-95970000D02*
X146645000Y-95970000D01*
D36*
X135400000Y-84950000D02*
X136695778Y-84950000D01*
D37*
X134100000Y-85487157D02*
X134362843Y-85750000D01*
X134362843Y-85750000D02*
X134600000Y-85750000D01*
X140255000Y-86860000D02*
X140255000Y-86845736D01*
D36*
X136695778Y-84950000D02*
X136947889Y-85202111D01*
X137512157Y-86977157D02*
X137975000Y-87440000D01*
X137352111Y-85202111D02*
X137512157Y-85362157D01*
X137512157Y-85362157D02*
X137512157Y-86977157D01*
D35*
X146645000Y-95970000D02*
X146325000Y-95650000D01*
D37*
X139859264Y-86450000D02*
X139725000Y-86450000D01*
D36*
X134600000Y-85750000D02*
X135400000Y-84950000D01*
D35*
X138825000Y-93150000D02*
X138825000Y-94037153D01*
D36*
%TO.N,+1V8*%
X138375000Y-87403554D02*
X138375000Y-87220000D01*
D37*
X139025000Y-89580000D02*
X139025000Y-89250000D01*
X141055000Y-86620000D02*
X140775000Y-86900000D01*
X145516914Y-86100000D02*
X145732893Y-85884021D01*
X144435000Y-92360000D02*
X145585000Y-92360000D01*
X138620290Y-88099352D02*
X138615000Y-88104642D01*
X145732893Y-85884021D02*
X146189021Y-85884021D01*
X138145000Y-88490000D02*
X138615000Y-88490000D01*
D36*
X139100000Y-87725000D02*
X139100000Y-88625000D01*
D37*
X138800000Y-88675000D02*
X139050000Y-88675000D01*
D36*
X139100000Y-87725000D02*
X138696446Y-87725000D01*
D37*
X143274999Y-87000000D02*
X143274999Y-86729999D01*
X144275000Y-92200000D02*
X144435000Y-92360000D01*
X145774999Y-92170001D02*
X145774999Y-91800000D01*
D36*
X139100000Y-88625000D02*
X139050000Y-88675000D01*
D37*
X144275000Y-91800000D02*
X144275000Y-92200000D01*
D36*
X138375000Y-87220000D02*
X138055000Y-86900000D01*
D37*
X145475000Y-86100000D02*
X145516914Y-86100000D01*
X141055000Y-86100000D02*
X141055000Y-86620000D01*
X138615000Y-88104642D02*
X138615000Y-88490000D01*
X143274999Y-86729999D02*
X143157963Y-86612963D01*
X146189021Y-85884021D02*
X146255000Y-85950000D01*
D36*
X146255000Y-85950000D02*
X146216521Y-85911521D01*
D37*
X145585000Y-92360000D02*
X145774999Y-92170001D01*
X146434268Y-86221264D02*
X146434268Y-86129268D01*
X138615000Y-88490000D02*
X138800000Y-88675000D01*
D36*
X138696446Y-87725000D02*
X138375000Y-87403554D01*
D37*
X146434268Y-86129268D02*
X146255000Y-85950000D01*
D36*
%TO.N,/Neuropixels 2.0/PCLK*%
X141625000Y-90210000D02*
X141615000Y-90200000D01*
X139905000Y-89500000D02*
X139905000Y-89560000D01*
X139905000Y-89560000D02*
X140545000Y-90200000D01*
X141615000Y-90200000D02*
X140545000Y-90200000D01*
D37*
%TO.N,+4V*%
X138355000Y-85189781D02*
X138640419Y-85475200D01*
D38*
X123080000Y-76447500D02*
X123080000Y-78987500D01*
X128396250Y-84303750D02*
X128492500Y-84400000D01*
X128396250Y-84303750D02*
X123080000Y-78987500D01*
D36*
X136746095Y-84700000D02*
X135450000Y-84700000D01*
X136921848Y-84524247D02*
X136746095Y-84700000D01*
X138640419Y-85475200D02*
X138279105Y-85475200D01*
X137125000Y-84488443D02*
X136968126Y-84524247D01*
X135450000Y-84700000D02*
X135150000Y-84400000D01*
D38*
X120200000Y-94945000D02*
X121900000Y-94945000D01*
X121900000Y-94945000D02*
X128954058Y-87890942D01*
D36*
X137292348Y-84488443D02*
X137125000Y-84488443D01*
D37*
X138355000Y-84600000D02*
X138355000Y-85189781D01*
D36*
X138279105Y-85475200D02*
X137292348Y-84488443D01*
X136968126Y-84524247D02*
X136921848Y-84524247D01*
D38*
X128492500Y-84400000D02*
X129700000Y-84400000D01*
X129700000Y-84400000D02*
X134500000Y-84400000D01*
X128954058Y-87890942D02*
X128954058Y-84557808D01*
D36*
X135150000Y-84400000D02*
X134500000Y-84400000D01*
%TO.N,/Neuropixels 2.0/SCL*%
X144955000Y-94180000D02*
X145385000Y-93750000D01*
X142235000Y-89324500D02*
X141909500Y-89650000D01*
X145385000Y-93190000D02*
X145425000Y-93150000D01*
X140625000Y-90625000D02*
X140625000Y-90780000D01*
X141256151Y-89650000D02*
X141234061Y-89672090D01*
X140050000Y-94180000D02*
X144955000Y-94180000D01*
X140475000Y-90930000D02*
X140145000Y-90930000D01*
X140625000Y-90780000D02*
X140475000Y-90930000D01*
X141909500Y-89650000D02*
X141625000Y-89650000D01*
X141625000Y-89650000D02*
X141256151Y-89650000D01*
X145385000Y-93750000D02*
X145385000Y-93190000D01*
X139642609Y-93772609D02*
X140050000Y-94180000D01*
%TO.N,/Neuropixels 2.0/SYNC*%
X138655000Y-92300000D02*
X139005000Y-91950000D01*
X139725000Y-95290000D02*
X139725000Y-95650000D01*
X139710000Y-95275000D02*
X139725000Y-95275000D01*
X140560000Y-91790000D02*
X140825000Y-91790000D01*
X138435000Y-94175000D02*
X138730000Y-94470000D01*
X138905000Y-94470000D02*
X139710000Y-95275000D01*
X139710000Y-95275000D02*
X139725000Y-95290000D01*
X140178554Y-95025000D02*
X140203554Y-95000000D01*
X138655000Y-92300000D02*
X138435000Y-92520000D01*
X138730000Y-94470000D02*
X138905000Y-94470000D01*
X139005000Y-91950000D02*
X140400000Y-91950000D01*
X139975000Y-95025000D02*
X140178554Y-95025000D01*
X140203554Y-95000000D02*
X145025000Y-95000000D01*
X140400000Y-91950000D02*
X140560000Y-91790000D01*
X139725000Y-95275000D02*
X139975000Y-95025000D01*
X145125000Y-95100000D02*
X145125000Y-95650000D01*
X145025000Y-95000000D02*
X145125000Y-95100000D01*
X138435000Y-92520000D02*
X138435000Y-94175000D01*
X140815000Y-91790000D02*
X140612158Y-91790000D01*
%TO.N,/Neuropixels 2.0/D7*%
X144774998Y-91800000D02*
X144774998Y-91469868D01*
X144774998Y-91469868D02*
X144455065Y-91149935D01*
%TO.N,Net-(L1-Pad2)*%
X142005000Y-84100000D02*
X142005000Y-84000000D01*
X137921788Y-84655700D02*
X138125000Y-84452488D01*
X141325000Y-83320000D02*
X141325000Y-82800000D01*
X138125000Y-84452488D02*
X138125000Y-82790000D01*
X142005000Y-84000000D02*
X141325000Y-83320000D01*
X138125000Y-82790000D02*
X138355000Y-82560000D01*
D37*
X141325000Y-82800000D02*
X139025000Y-82800000D01*
D36*
%TO.N,/Neuropixels 2.0/D6*%
X145075000Y-91385075D02*
X145275000Y-91585075D01*
X145275000Y-91585075D02*
X145275000Y-91800000D01*
%TO.N,/Neuropixels 2.0/D5*%
X145539322Y-91153783D02*
X145543106Y-91149999D01*
X145543106Y-91149999D02*
X146425000Y-91149999D01*
%TO.N,/Neuropixels 2.0/D4*%
X146425000Y-90650000D02*
X145925000Y-90650000D01*
X145925000Y-90650000D02*
X145855000Y-90720000D01*
%TO.N,/Neuropixels 2.0/D3*%
X146020129Y-90150001D02*
X146425000Y-90150001D01*
X145871150Y-90001022D02*
X146020129Y-90150001D01*
D37*
%TO.N,/DC Tap & Regulation/RF+DC*%
X143450000Y-82800000D02*
X143450000Y-83295000D01*
X143450000Y-83295000D02*
X142645000Y-84100000D01*
X142525000Y-84475000D02*
X142525000Y-84220000D01*
X142525000Y-84220000D02*
X142645000Y-84100000D01*
D36*
%TO.N,/Neuropixels 2.0/NP_{TP0}*%
X138775000Y-95080000D02*
X138875000Y-94980000D01*
X138525000Y-95225000D02*
X138525000Y-95625000D01*
X138670000Y-95080000D02*
X138525000Y-95225000D01*
X138775000Y-95080000D02*
X138670000Y-95080000D01*
%TO.N,/Neuropixels 2.0/SDA_{B}*%
X146068576Y-93973576D02*
X146025000Y-93930000D01*
X146025000Y-93930000D02*
X146025000Y-93150000D01*
%TO.N,/Neuropixels 2.0/SDA*%
X145075000Y-85700000D02*
X144915000Y-85700000D01*
%TO.N,/Perpherials/GPIO*%
X146425000Y-87650001D02*
X146425000Y-87597446D01*
X146425000Y-87597446D02*
X146099498Y-87271944D01*
%TO.N,Net-(JP1-B)*%
X140815000Y-91135000D02*
X141300000Y-90650000D01*
X140815000Y-91250000D02*
X140815000Y-91135000D01*
X141300000Y-90650000D02*
X141625000Y-90650000D01*
%TO.N,/Neuropixels 2.0/NP_{Select}*%
X145975500Y-86850000D02*
X145924999Y-86850000D01*
X145924999Y-86850000D02*
X145774999Y-87000000D01*
D37*
%TO.N,+2V5*%
X138045000Y-90880000D02*
X138215000Y-90710000D01*
X138425000Y-90880000D02*
X138570000Y-91025000D01*
X138215000Y-90710000D02*
X138215000Y-89990000D01*
X138045000Y-90880000D02*
X138425000Y-90880000D01*
D39*
%TO.N,Net-(U3-DOUTP)*%
X144275000Y-87000000D02*
X144275000Y-86599500D01*
X144275000Y-86599500D02*
X144425000Y-86449500D01*
%TO.N,Net-(U3-DOUTN)*%
X143775000Y-87000000D02*
X143775000Y-86570000D01*
X143775000Y-86570000D02*
X144325000Y-86020000D01*
D36*
%TO.N,Net-(U3-PDB)*%
X139965000Y-87210000D02*
X141005000Y-87210000D01*
X139615000Y-86860000D02*
X139965000Y-87210000D01*
X139615000Y-86860000D02*
X139405000Y-86650000D01*
X138945000Y-86650000D02*
X138695000Y-86900000D01*
X141215000Y-87000000D02*
X142275001Y-87000000D01*
X139405000Y-86650000D02*
X138945000Y-86650000D01*
X141005000Y-87210000D02*
X141215000Y-87000000D01*
%TO.N,Net-(U3-GPIO3{slash}CLKIN)*%
X146105000Y-88150000D02*
X145895000Y-87940000D01*
X146425000Y-88150000D02*
X146105000Y-88150000D01*
%TO.N,Net-(U5-OUT)*%
X140545000Y-88770000D02*
X140462500Y-88687500D01*
X140545000Y-89500000D02*
X140545000Y-88770000D01*
%TO.N,/Neuropixels 2.0/NP_{RESET}*%
X145793554Y-95046446D02*
X146911446Y-93928554D01*
X146911446Y-93928554D02*
X146911446Y-92768554D01*
X145425000Y-86550000D02*
X145275000Y-86700000D01*
X147105000Y-87160000D02*
X146835000Y-86890000D01*
X146445000Y-86890000D02*
X146105000Y-86550000D01*
X145275000Y-86700000D02*
X145275000Y-87000000D01*
X146911446Y-92768554D02*
X147105000Y-92575000D01*
X145675000Y-95046446D02*
X145793554Y-95046446D01*
X146835000Y-86890000D02*
X146445000Y-86890000D01*
X146105000Y-86550000D02*
X145425000Y-86550000D01*
X147105000Y-92575000D02*
X147105000Y-87160000D01*
%TO.N,+1.8VA*%
X139445000Y-91570000D02*
X140145000Y-91570000D01*
D37*
X138733579Y-91680000D02*
X139335000Y-91680000D01*
X138570000Y-91375000D02*
X138570000Y-91516421D01*
X138570000Y-91516421D02*
X138733579Y-91680000D01*
X139335000Y-91680000D02*
X139445000Y-91570000D01*
D36*
%TO.N,/Neuropixels 2.0/NP_{TP1}*%
X139185000Y-93990000D02*
X139185000Y-93676446D01*
X146495500Y-93899500D02*
X145965000Y-94430000D01*
X145965000Y-94430000D02*
X139625000Y-94430000D01*
X139425000Y-93436446D02*
X139425000Y-93150000D01*
X139185000Y-93676446D02*
X139425000Y-93436446D01*
X139625000Y-94430000D02*
X139185000Y-93990000D01*
X146495500Y-93475000D02*
X146495500Y-93899500D01*
D39*
%TO.N,/Serializer/Dout-*%
X144325000Y-85380000D02*
X144025000Y-85380000D01*
D36*
%TO.N,Net-(JP1-A)*%
X141625000Y-91970000D02*
X141625000Y-91149999D01*
X140815000Y-92330000D02*
X141265000Y-92330000D01*
X141265000Y-92330000D02*
X141625000Y-91970000D01*
D37*
%TO.N,Net-(U3-VDDPLL)*%
X142775000Y-86020000D02*
X141965000Y-86020000D01*
X141405000Y-85460000D02*
X141925000Y-85980000D01*
X142775000Y-87000000D02*
X142775000Y-86020000D01*
X143475000Y-86040000D02*
X142795000Y-86040000D01*
X141965000Y-86020000D02*
X141925000Y-85980000D01*
X142795000Y-86040000D02*
X142775000Y-86020000D01*
X141055000Y-85460000D02*
X141405000Y-85460000D01*
%TO.N,Net-(U3-VDDCML)*%
X144774998Y-87580497D02*
X144774998Y-87000000D01*
X144845000Y-87650499D02*
X144774998Y-87580497D01*
%TD*%
%TA.AperFunction,Conductor*%
%TO.N,GND*%
G36*
X142915386Y-81914352D02*
G01*
X142947508Y-81946474D01*
X143031992Y-81995251D01*
X143126223Y-82020500D01*
X143139618Y-82020500D01*
X143175000Y-82020500D01*
X143207288Y-82020500D01*
X146232706Y-82020500D01*
X146262171Y-82030348D01*
X146279791Y-82055935D01*
X146278484Y-82086974D01*
X146258776Y-82110989D01*
X146135069Y-82188718D01*
X146135061Y-82188724D01*
X146132738Y-82190184D01*
X146130794Y-82192127D01*
X146130790Y-82192131D01*
X146007131Y-82315790D01*
X146007127Y-82315794D01*
X146005184Y-82317738D01*
X146003724Y-82320061D01*
X146003718Y-82320069D01*
X145910675Y-82468147D01*
X145910672Y-82468151D01*
X145909211Y-82470478D01*
X145908302Y-82473072D01*
X145908302Y-82473075D01*
X145850540Y-82638147D01*
X145850537Y-82638155D01*
X145849632Y-82640745D01*
X145849324Y-82643477D01*
X145849324Y-82643478D01*
X145834653Y-82773679D01*
X145834651Y-82773696D01*
X145834500Y-82775046D01*
X145834500Y-84064954D01*
X145834652Y-84066303D01*
X145834653Y-84066320D01*
X145848556Y-84189701D01*
X145849632Y-84199255D01*
X145850538Y-84201846D01*
X145850540Y-84201852D01*
X145867213Y-84249500D01*
X145909211Y-84369522D01*
X145910674Y-84371851D01*
X145910675Y-84371852D01*
X146003718Y-84519930D01*
X146003721Y-84519934D01*
X146005184Y-84522262D01*
X146132738Y-84649816D01*
X146135067Y-84651279D01*
X146135069Y-84651281D01*
X146180545Y-84679855D01*
X146285478Y-84745789D01*
X146455745Y-84805368D01*
X146635000Y-84825565D01*
X146814255Y-84805368D01*
X146984522Y-84745789D01*
X147137262Y-84649816D01*
X147264816Y-84522262D01*
X147306954Y-84455200D01*
X147314011Y-84443969D01*
X147338026Y-84424261D01*
X147369065Y-84422954D01*
X147394652Y-84440574D01*
X147404500Y-84470039D01*
X147404500Y-89887082D01*
X147404497Y-89887108D01*
X147404493Y-89887108D01*
X147404493Y-89887133D01*
X147404493Y-89887134D01*
X147404493Y-89982996D01*
X147404493Y-89983007D01*
X147404494Y-89985139D01*
X147404831Y-89987051D01*
X147405000Y-89990925D01*
X147405000Y-92603353D01*
X147404832Y-92607186D01*
X147404499Y-92609076D01*
X147404499Y-92671725D01*
X147404500Y-92671725D01*
X147404500Y-92671727D01*
X147404500Y-94974865D01*
X147392340Y-95007173D01*
X147361897Y-95023446D01*
X147328278Y-95015608D01*
X147298637Y-94995804D01*
X147289890Y-94992181D01*
X147256154Y-94985470D01*
X147251379Y-94985000D01*
X147144747Y-94985000D01*
X147137854Y-94987854D01*
X147135000Y-94994747D01*
X147135000Y-95606000D01*
X147120648Y-95640648D01*
X147086000Y-95655000D01*
X146749748Y-95655000D01*
X146742855Y-95657854D01*
X146740001Y-95664747D01*
X146740001Y-96030500D01*
X146725649Y-96065148D01*
X146691001Y-96079500D01*
X146643290Y-96079500D01*
X146617414Y-96072110D01*
X146599342Y-96052170D01*
X146594526Y-96025693D01*
X146595000Y-96020884D01*
X146595000Y-95709747D01*
X146592145Y-95702854D01*
X146585253Y-95700000D01*
X146299000Y-95700000D01*
X146264352Y-95685648D01*
X146250000Y-95651000D01*
X146250000Y-95599000D01*
X146264352Y-95564352D01*
X146299000Y-95550000D01*
X146585252Y-95550000D01*
X146592144Y-95547145D01*
X146594999Y-95540253D01*
X146594999Y-95495253D01*
X146740000Y-95495253D01*
X146742854Y-95502145D01*
X146749747Y-95505000D01*
X146975253Y-95505000D01*
X146982145Y-95502145D01*
X146985000Y-95495253D01*
X146985000Y-94994748D01*
X146982145Y-94987855D01*
X146975253Y-94985001D01*
X146868616Y-94985001D01*
X146863855Y-94985469D01*
X146830108Y-94992181D01*
X146821362Y-94995804D01*
X146783075Y-95021385D01*
X146776385Y-95028075D01*
X146750804Y-95066362D01*
X146747181Y-95075109D01*
X146740470Y-95108845D01*
X146740000Y-95113621D01*
X146740000Y-95495253D01*
X146594999Y-95495253D01*
X146594999Y-95229107D01*
X146594530Y-95224349D01*
X146588107Y-95192055D01*
X146584487Y-95183316D01*
X146560009Y-95146680D01*
X146553317Y-95139988D01*
X146533989Y-95127074D01*
X146515683Y-95104447D01*
X146513441Y-95075429D01*
X146529428Y-95005385D01*
X146529428Y-95005380D01*
X146530656Y-95000000D01*
X146510290Y-94910769D01*
X146465552Y-94854670D01*
X146456667Y-94843529D01*
X146456666Y-94843528D01*
X146453224Y-94839212D01*
X146420659Y-94823529D01*
X146375737Y-94801895D01*
X146375735Y-94801894D01*
X146370763Y-94799500D01*
X146365245Y-94799500D01*
X146360566Y-94798432D01*
X146332046Y-94779757D01*
X146322609Y-94746998D01*
X146336823Y-94716015D01*
X147031876Y-94020963D01*
X147046381Y-94006458D01*
X147050019Y-93992875D01*
X147054913Y-93981059D01*
X147061946Y-93968881D01*
X147061947Y-93888228D01*
X147061946Y-93888226D01*
X147061946Y-92851189D01*
X147076298Y-92816541D01*
X147136572Y-92756267D01*
X147225430Y-92667409D01*
X147239935Y-92652904D01*
X147243573Y-92639321D01*
X147248467Y-92627505D01*
X147255500Y-92615327D01*
X147255501Y-92534673D01*
X147255500Y-92534671D01*
X147255500Y-87140186D01*
X147255500Y-87119673D01*
X147248469Y-87107497D01*
X147243573Y-87095676D01*
X147239935Y-87082096D01*
X147235376Y-87077537D01*
X147235375Y-87077535D01*
X147182905Y-87025065D01*
X147182903Y-87025064D01*
X146927409Y-86769570D01*
X146927409Y-86769569D01*
X146912904Y-86755065D01*
X146899323Y-86751426D01*
X146887506Y-86746531D01*
X146880914Y-86742725D01*
X146880911Y-86742724D01*
X146875327Y-86739500D01*
X146868879Y-86739499D01*
X146868876Y-86739499D01*
X146794679Y-86739499D01*
X146794678Y-86739499D01*
X146794674Y-86739499D01*
X146794672Y-86739499D01*
X146794671Y-86739500D01*
X146527635Y-86739500D01*
X146492987Y-86725148D01*
X146187465Y-86419626D01*
X146182904Y-86415065D01*
X146176672Y-86413395D01*
X146169323Y-86411426D01*
X146157506Y-86406531D01*
X146150914Y-86402725D01*
X146150911Y-86402724D01*
X146145327Y-86399500D01*
X146138879Y-86399499D01*
X146138876Y-86399499D01*
X146064679Y-86399499D01*
X146064678Y-86399499D01*
X146064674Y-86399499D01*
X146064672Y-86399499D01*
X146064671Y-86399500D01*
X146043517Y-86399500D01*
X146010188Y-86386419D01*
X145994654Y-86354162D01*
X146005206Y-86319950D01*
X146042448Y-86273252D01*
X146042586Y-86272647D01*
X146062488Y-86252461D01*
X146093926Y-86248247D01*
X146105252Y-86250500D01*
X146196208Y-86250500D01*
X146226759Y-86261190D01*
X146243980Y-86288597D01*
X146244423Y-86290540D01*
X146248978Y-86310495D01*
X146264942Y-86330513D01*
X146300062Y-86374552D01*
X146306044Y-86382052D01*
X146388505Y-86421764D01*
X146474511Y-86421764D01*
X146480031Y-86421764D01*
X146562492Y-86382052D01*
X146619558Y-86310495D01*
X146623172Y-86294658D01*
X146644294Y-86264441D01*
X146680504Y-86257502D01*
X146740967Y-86269529D01*
X146745743Y-86270000D01*
X146810253Y-86270000D01*
X146817145Y-86267145D01*
X146820000Y-86260253D01*
X146820000Y-86260252D01*
X146970000Y-86260252D01*
X146972854Y-86267144D01*
X146979747Y-86269999D01*
X147044263Y-86269999D01*
X147049020Y-86269530D01*
X147106107Y-86258176D01*
X147114852Y-86254553D01*
X147179599Y-86211291D01*
X147186291Y-86204599D01*
X147229554Y-86139851D01*
X147233176Y-86131107D01*
X147244529Y-86074032D01*
X147245000Y-86069257D01*
X147245000Y-86034747D01*
X147242145Y-86027854D01*
X147235253Y-86025000D01*
X146979747Y-86025000D01*
X146972854Y-86027854D01*
X146970000Y-86034747D01*
X146970000Y-86260252D01*
X146820000Y-86260252D01*
X146820000Y-85865253D01*
X146970000Y-85865253D01*
X146972854Y-85872145D01*
X146979747Y-85875000D01*
X147235252Y-85875000D01*
X147242144Y-85872145D01*
X147244999Y-85865253D01*
X147244999Y-85830737D01*
X147244530Y-85825979D01*
X147233176Y-85768892D01*
X147229553Y-85760147D01*
X147186291Y-85695400D01*
X147179599Y-85688708D01*
X147114851Y-85645445D01*
X147106107Y-85641823D01*
X147049032Y-85630470D01*
X147044257Y-85630000D01*
X146979747Y-85630000D01*
X146972854Y-85632854D01*
X146970000Y-85639747D01*
X146970000Y-85865253D01*
X146820000Y-85865253D01*
X146820000Y-85639748D01*
X146817145Y-85632855D01*
X146810253Y-85630001D01*
X146745737Y-85630001D01*
X146740979Y-85630469D01*
X146683892Y-85641823D01*
X146675147Y-85645446D01*
X146610400Y-85688708D01*
X146603710Y-85695398D01*
X146602619Y-85697032D01*
X146580628Y-85715078D01*
X146552317Y-85717866D01*
X146529811Y-85705836D01*
X146529552Y-85705448D01*
X146523094Y-85701133D01*
X146467245Y-85663815D01*
X146467244Y-85663814D01*
X146463231Y-85661133D01*
X146458497Y-85660191D01*
X146458494Y-85660190D01*
X146407114Y-85649970D01*
X146407107Y-85649969D01*
X146404748Y-85649500D01*
X146105252Y-85649500D01*
X146102893Y-85649969D01*
X146102885Y-85649970D01*
X146051503Y-85660191D01*
X146051501Y-85660191D01*
X146046769Y-85661133D01*
X146042762Y-85663809D01*
X146042753Y-85663814D01*
X146025623Y-85675262D01*
X145998399Y-85683521D01*
X145775281Y-85683521D01*
X145766621Y-85682049D01*
X145766616Y-85682101D01*
X145761130Y-85681482D01*
X145755919Y-85679659D01*
X145750435Y-85680276D01*
X145750429Y-85680276D01*
X145731376Y-85682423D01*
X145696978Y-85673291D01*
X145677833Y-85643288D01*
X145673757Y-85622793D01*
X145671318Y-85616906D01*
X145668636Y-85614705D01*
X145663744Y-85617320D01*
X145475000Y-85806066D01*
X145392320Y-85888744D01*
X145385760Y-85901017D01*
X145384706Y-85907950D01*
X145370122Y-85927188D01*
X145344170Y-85947885D01*
X145314212Y-85971776D01*
X145311817Y-85976748D01*
X145310796Y-85978029D01*
X145286930Y-85994299D01*
X145258045Y-85994299D01*
X145234179Y-85978028D01*
X145226449Y-85968335D01*
X145203224Y-85939212D01*
X145197219Y-85936320D01*
X145195810Y-85934871D01*
X145193933Y-85933374D01*
X145194122Y-85933135D01*
X145173753Y-85912186D01*
X145171395Y-85878607D01*
X145191258Y-85851431D01*
X145212343Y-85837343D01*
X145232649Y-85806951D01*
X145252439Y-85789880D01*
X145278192Y-85785411D01*
X145280683Y-85785656D01*
X145286254Y-85782678D01*
X145364372Y-85704561D01*
X145367005Y-85700000D01*
X145364372Y-85695438D01*
X145286254Y-85617320D01*
X145280682Y-85614341D01*
X145278192Y-85614587D01*
X145252439Y-85610118D01*
X145232648Y-85593046D01*
X145215023Y-85566668D01*
X145212343Y-85562657D01*
X145163090Y-85529748D01*
X145153343Y-85523235D01*
X145153342Y-85523234D01*
X145149329Y-85520553D01*
X145144595Y-85519611D01*
X145144592Y-85519610D01*
X145079734Y-85506709D01*
X145079731Y-85506709D01*
X145077986Y-85506362D01*
X145389705Y-85506362D01*
X145392320Y-85511254D01*
X145470438Y-85589372D01*
X145475000Y-85592005D01*
X145479561Y-85589372D01*
X145557678Y-85511254D01*
X145560293Y-85506362D01*
X145558094Y-85503682D01*
X145552203Y-85501242D01*
X145479731Y-85486827D01*
X145470269Y-85486827D01*
X145397791Y-85501243D01*
X145391906Y-85503681D01*
X145389705Y-85506362D01*
X145077986Y-85506362D01*
X145075000Y-85505768D01*
X145070269Y-85506709D01*
X145070266Y-85506709D01*
X145019425Y-85516821D01*
X144988607Y-85512909D01*
X144965738Y-85501895D01*
X144965734Y-85501894D01*
X144960763Y-85499500D01*
X144869237Y-85499500D01*
X144864264Y-85501894D01*
X144864263Y-85501895D01*
X144791750Y-85536816D01*
X144791748Y-85536817D01*
X144786776Y-85539212D01*
X144783335Y-85543526D01*
X144783332Y-85543529D01*
X144738416Y-85599852D01*
X144729710Y-85610769D01*
X144728481Y-85616150D01*
X144728481Y-85616152D01*
X144721795Y-85645446D01*
X144709344Y-85700000D01*
X144714167Y-85721133D01*
X144727344Y-85778867D01*
X144729710Y-85789231D01*
X144743136Y-85806066D01*
X144769158Y-85838697D01*
X144786776Y-85860788D01*
X144869237Y-85900500D01*
X144874757Y-85900500D01*
X144875898Y-85900500D01*
X144877484Y-85901122D01*
X144880141Y-85901729D01*
X144880049Y-85902129D01*
X144909227Y-85913581D01*
X144924761Y-85945838D01*
X144914208Y-85980049D01*
X144889710Y-86010769D01*
X144888481Y-86016150D01*
X144888481Y-86016152D01*
X144878167Y-86061344D01*
X144869344Y-86100000D01*
X144870572Y-86105380D01*
X144887941Y-86181483D01*
X144889710Y-86189231D01*
X144901576Y-86204110D01*
X144941803Y-86254553D01*
X144946776Y-86260788D01*
X145029237Y-86300500D01*
X145115243Y-86300500D01*
X145120763Y-86300500D01*
X145203224Y-86260788D01*
X145234181Y-86221969D01*
X145258045Y-86205700D01*
X145286931Y-86205700D01*
X145310797Y-86221971D01*
X145311815Y-86223248D01*
X145314212Y-86228224D01*
X145385769Y-86285290D01*
X145452410Y-86300500D01*
X145474526Y-86300500D01*
X145490705Y-86303248D01*
X145493568Y-86304250D01*
X145500833Y-86310212D01*
X145516559Y-86301808D01*
X145525436Y-86300808D01*
X145530921Y-86300500D01*
X145536750Y-86300500D01*
X145539504Y-86300500D01*
X145547874Y-86298589D01*
X145553281Y-86297670D01*
X145584838Y-86294116D01*
X145589512Y-86291178D01*
X145594726Y-86289354D01*
X145594743Y-86289402D01*
X145595808Y-86288961D01*
X145595786Y-86288914D01*
X145600758Y-86286519D01*
X145606145Y-86285290D01*
X145613876Y-86279123D01*
X145637120Y-86268980D01*
X145662328Y-86271818D01*
X145682735Y-86286879D01*
X145709109Y-86319950D01*
X145719662Y-86354162D01*
X145704127Y-86386420D01*
X145670799Y-86399500D01*
X145522044Y-86399500D01*
X145500654Y-86390989D01*
X145477384Y-86399500D01*
X145465327Y-86399500D01*
X145384673Y-86399500D01*
X145379088Y-86402723D01*
X145379085Y-86402725D01*
X145372492Y-86406532D01*
X145360680Y-86411425D01*
X145357956Y-86412155D01*
X145347096Y-86415065D01*
X145342538Y-86419622D01*
X145342536Y-86419624D01*
X145290064Y-86472096D01*
X145197096Y-86565065D01*
X145197093Y-86565066D01*
X145169470Y-86592688D01*
X145144388Y-86606096D01*
X145142479Y-86606475D01*
X145142467Y-86606479D01*
X145137740Y-86607420D01*
X145133728Y-86610100D01*
X145133727Y-86610101D01*
X145096600Y-86634908D01*
X145096597Y-86634910D01*
X145092589Y-86637589D01*
X145089910Y-86641597D01*
X145089908Y-86641600D01*
X145065742Y-86677768D01*
X145040750Y-86696945D01*
X145009250Y-86696945D01*
X144984258Y-86677768D01*
X144960091Y-86641600D01*
X144957411Y-86637589D01*
X144952050Y-86634007D01*
X144931087Y-86620000D01*
X144912260Y-86607420D01*
X144907529Y-86606479D01*
X144907527Y-86606478D01*
X144874797Y-86599968D01*
X144874794Y-86599967D01*
X144872443Y-86599500D01*
X144870040Y-86599500D01*
X144679962Y-86599500D01*
X144679951Y-86599500D01*
X144677558Y-86599501D01*
X144675203Y-86599969D01*
X144675196Y-86599970D01*
X144665602Y-86601878D01*
X144630753Y-86595787D01*
X144609089Y-86567819D01*
X144611388Y-86538981D01*
X144610290Y-86538731D01*
X144615364Y-86516500D01*
X144630656Y-86449500D01*
X144610290Y-86360269D01*
X144586558Y-86330511D01*
X144575912Y-86302023D01*
X144584127Y-86272739D01*
X144613867Y-86228231D01*
X144625500Y-86169748D01*
X144625500Y-85870252D01*
X144613867Y-85811769D01*
X144569552Y-85745448D01*
X144565538Y-85742766D01*
X144562509Y-85740742D01*
X144543332Y-85715751D01*
X144543332Y-85684249D01*
X144562509Y-85659258D01*
X144569552Y-85654552D01*
X144613867Y-85588231D01*
X144625500Y-85529748D01*
X144625500Y-85230252D01*
X144613867Y-85171769D01*
X144569552Y-85105448D01*
X144554514Y-85095400D01*
X144507245Y-85063815D01*
X144507244Y-85063814D01*
X144503231Y-85061133D01*
X144498497Y-85060191D01*
X144498494Y-85060190D01*
X144447114Y-85049970D01*
X144447107Y-85049969D01*
X144444748Y-85049500D01*
X144205252Y-85049500D01*
X144202893Y-85049969D01*
X144202885Y-85049970D01*
X144151505Y-85060190D01*
X144151500Y-85060191D01*
X144146769Y-85061133D01*
X144142757Y-85063813D01*
X144142754Y-85063815D01*
X144084459Y-85102767D01*
X144084456Y-85102769D01*
X144080448Y-85105448D01*
X144077769Y-85109456D01*
X144077767Y-85109459D01*
X144045518Y-85157723D01*
X144027874Y-85173714D01*
X144004776Y-85179500D01*
X143979237Y-85179500D01*
X143974264Y-85181894D01*
X143974263Y-85181895D01*
X143901750Y-85216816D01*
X143901748Y-85216817D01*
X143896776Y-85219212D01*
X143884583Y-85234502D01*
X143876465Y-85244681D01*
X143845005Y-85262648D01*
X143809800Y-85254091D01*
X143790097Y-85223688D01*
X143783176Y-85188892D01*
X143779553Y-85180147D01*
X143736291Y-85115400D01*
X143729599Y-85108708D01*
X143664851Y-85065445D01*
X143656107Y-85061823D01*
X143599032Y-85050470D01*
X143594257Y-85050000D01*
X143559747Y-85050000D01*
X143552854Y-85052854D01*
X143550000Y-85059747D01*
X143550000Y-85426000D01*
X143535648Y-85460648D01*
X143501000Y-85475000D01*
X143164747Y-85475000D01*
X143154107Y-85479407D01*
X143116604Y-85479405D01*
X143097112Y-85459912D01*
X143085253Y-85455000D01*
X142464748Y-85455000D01*
X142457855Y-85457854D01*
X142455001Y-85464747D01*
X142455001Y-85529263D01*
X142455469Y-85534020D01*
X142466823Y-85591107D01*
X142470446Y-85599852D01*
X142513708Y-85664599D01*
X142520398Y-85671289D01*
X142522029Y-85672379D01*
X142540076Y-85694367D01*
X142542867Y-85722675D01*
X142530838Y-85745187D01*
X142530448Y-85745448D01*
X142527771Y-85749453D01*
X142527770Y-85749455D01*
X142495518Y-85797723D01*
X142477874Y-85813714D01*
X142454776Y-85819500D01*
X142376347Y-85819500D01*
X142345262Y-85808378D01*
X142328289Y-85780060D01*
X142327149Y-85774329D01*
X142321546Y-85746161D01*
X142268391Y-85666609D01*
X142264209Y-85663815D01*
X142192853Y-85616136D01*
X142192852Y-85616135D01*
X142188839Y-85613454D01*
X142184105Y-85612512D01*
X142184102Y-85612511D01*
X142121054Y-85599970D01*
X142121047Y-85599969D01*
X142118688Y-85599500D01*
X142116278Y-85599500D01*
X141848345Y-85599500D01*
X141813697Y-85585148D01*
X141732197Y-85503648D01*
X141717845Y-85469000D01*
X141732197Y-85434352D01*
X141766845Y-85420000D01*
X141840253Y-85420000D01*
X141847145Y-85417145D01*
X141850000Y-85410253D01*
X141850000Y-85410252D01*
X142000000Y-85410252D01*
X142002854Y-85417144D01*
X142009747Y-85419999D01*
X142118205Y-85419999D01*
X142122962Y-85419530D01*
X142191714Y-85405856D01*
X142200459Y-85402233D01*
X142278438Y-85350130D01*
X142285130Y-85343438D01*
X142317326Y-85295253D01*
X142455000Y-85295253D01*
X142457854Y-85302145D01*
X142464747Y-85305000D01*
X142690253Y-85305000D01*
X142697145Y-85302145D01*
X142700000Y-85295253D01*
X142850000Y-85295253D01*
X142852854Y-85302145D01*
X142859747Y-85305000D01*
X143085250Y-85305000D01*
X143095889Y-85300593D01*
X143121037Y-85297282D01*
X143144471Y-85306988D01*
X143155284Y-85321080D01*
X143164747Y-85325000D01*
X143390253Y-85325000D01*
X143397145Y-85322145D01*
X143400000Y-85315253D01*
X143400000Y-85059748D01*
X143397145Y-85052855D01*
X143390253Y-85050001D01*
X143355737Y-85050001D01*
X143350979Y-85050469D01*
X143293892Y-85061823D01*
X143285147Y-85065446D01*
X143220400Y-85108708D01*
X143213708Y-85115400D01*
X143170381Y-85180244D01*
X143142321Y-85200351D01*
X143107966Y-85196968D01*
X143084369Y-85171772D01*
X143079554Y-85160148D01*
X143036291Y-85095400D01*
X143029599Y-85088708D01*
X142964851Y-85045445D01*
X142956107Y-85041823D01*
X142899032Y-85030470D01*
X142894257Y-85030000D01*
X142859747Y-85030000D01*
X142852854Y-85032854D01*
X142850000Y-85039747D01*
X142850000Y-85295253D01*
X142700000Y-85295253D01*
X142700000Y-85039748D01*
X142697145Y-85032855D01*
X142690253Y-85030001D01*
X142655737Y-85030001D01*
X142650979Y-85030469D01*
X142593892Y-85041823D01*
X142585147Y-85045446D01*
X142520400Y-85088708D01*
X142513708Y-85095400D01*
X142470445Y-85160148D01*
X142466823Y-85168892D01*
X142455470Y-85225967D01*
X142455000Y-85230743D01*
X142455000Y-85295253D01*
X142317326Y-85295253D01*
X142337232Y-85265461D01*
X142340857Y-85256710D01*
X142354529Y-85187975D01*
X142355000Y-85183199D01*
X142355000Y-85104747D01*
X142352145Y-85097854D01*
X142345253Y-85095000D01*
X142009747Y-85095000D01*
X142002854Y-85097854D01*
X142000000Y-85104747D01*
X142000000Y-85410252D01*
X141850000Y-85410252D01*
X141850000Y-85104747D01*
X141847145Y-85097854D01*
X141840253Y-85095000D01*
X141504748Y-85095000D01*
X141497855Y-85097854D01*
X141495001Y-85104747D01*
X141495001Y-85183205D01*
X141495469Y-85187967D01*
X141498760Y-85204513D01*
X141495238Y-85234502D01*
X141474803Y-85256732D01*
X141445216Y-85262762D01*
X141441372Y-85262329D01*
X141435955Y-85261409D01*
X141430270Y-85260111D01*
X141430264Y-85260110D01*
X141427590Y-85259500D01*
X141424839Y-85259500D01*
X141419007Y-85259500D01*
X141413522Y-85259192D01*
X141395564Y-85257169D01*
X141381974Y-85255638D01*
X141378156Y-85256973D01*
X141353232Y-85252918D01*
X141333131Y-85235701D01*
X141299552Y-85185448D01*
X141290650Y-85179500D01*
X141237245Y-85143815D01*
X141237244Y-85143814D01*
X141233231Y-85141133D01*
X141228497Y-85140191D01*
X141228494Y-85140190D01*
X141177114Y-85129970D01*
X141177107Y-85129969D01*
X141174748Y-85129500D01*
X140935252Y-85129500D01*
X140932893Y-85129969D01*
X140932885Y-85129970D01*
X140881505Y-85140190D01*
X140881500Y-85140191D01*
X140876769Y-85141133D01*
X140872757Y-85143813D01*
X140872754Y-85143815D01*
X140814459Y-85182767D01*
X140814456Y-85182769D01*
X140810448Y-85185448D01*
X140807769Y-85189456D01*
X140807767Y-85189459D01*
X140768815Y-85247754D01*
X140768813Y-85247757D01*
X140766133Y-85251769D01*
X140765191Y-85256500D01*
X140765190Y-85256505D01*
X140754970Y-85307885D01*
X140754969Y-85307893D01*
X140754500Y-85310252D01*
X140754500Y-85609748D01*
X140754969Y-85612107D01*
X140754970Y-85612114D01*
X140765190Y-85663494D01*
X140765191Y-85663497D01*
X140766133Y-85668231D01*
X140768814Y-85672244D01*
X140768815Y-85672245D01*
X140801481Y-85721133D01*
X140810448Y-85734552D01*
X140814459Y-85737232D01*
X140814460Y-85737233D01*
X140817493Y-85739260D01*
X140836667Y-85764251D01*
X140836667Y-85795749D01*
X140817493Y-85820740D01*
X140814460Y-85822766D01*
X140814456Y-85822769D01*
X140810448Y-85825448D01*
X140807769Y-85829456D01*
X140807767Y-85829459D01*
X140768815Y-85887754D01*
X140768813Y-85887757D01*
X140766133Y-85891769D01*
X140765191Y-85896500D01*
X140765190Y-85896505D01*
X140754970Y-85947885D01*
X140754969Y-85947893D01*
X140754500Y-85950252D01*
X140754500Y-86249748D01*
X140754969Y-86252107D01*
X140754970Y-86252114D01*
X140765190Y-86303494D01*
X140765191Y-86303497D01*
X140766133Y-86308231D01*
X140768814Y-86312244D01*
X140768815Y-86312245D01*
X140806223Y-86368230D01*
X140810448Y-86374552D01*
X140814459Y-86377232D01*
X140832723Y-86389436D01*
X140848714Y-86407080D01*
X140854500Y-86430178D01*
X140854500Y-86516654D01*
X140850770Y-86535406D01*
X140840150Y-86551299D01*
X140771449Y-86620000D01*
X140750380Y-86641069D01*
X140725293Y-86654478D01*
X140685006Y-86662493D01*
X140677260Y-86664034D01*
X140654540Y-86679214D01*
X140617760Y-86686529D01*
X140586578Y-86665694D01*
X140560850Y-86627190D01*
X140552592Y-86599967D01*
X140560849Y-86572746D01*
X140610966Y-86497740D01*
X140630408Y-86400000D01*
X140610966Y-86302260D01*
X140555601Y-86219399D01*
X140543466Y-86211291D01*
X140476751Y-86166714D01*
X140476750Y-86166713D01*
X140472740Y-86164034D01*
X140468007Y-86163092D01*
X140468006Y-86163092D01*
X140466783Y-86162849D01*
X140464812Y-86161769D01*
X140463549Y-86161246D01*
X140463606Y-86161108D01*
X140440986Y-86148715D01*
X140427930Y-86122356D01*
X140432322Y-86093270D01*
X140433956Y-86089928D01*
X140440573Y-86076393D01*
X140450500Y-86008260D01*
X140450500Y-85191740D01*
X140440573Y-85123607D01*
X140389198Y-85018517D01*
X140306483Y-84935802D01*
X140305360Y-84935253D01*
X141495000Y-84935253D01*
X141497854Y-84942145D01*
X141504747Y-84945000D01*
X141840253Y-84945000D01*
X141847145Y-84942145D01*
X141850000Y-84935253D01*
X141850000Y-84629748D01*
X141847145Y-84622855D01*
X141840253Y-84620001D01*
X141731795Y-84620001D01*
X141727037Y-84620469D01*
X141658285Y-84634143D01*
X141649540Y-84637766D01*
X141571561Y-84689869D01*
X141564869Y-84696561D01*
X141512767Y-84774538D01*
X141509142Y-84783289D01*
X141495470Y-84852024D01*
X141495000Y-84856801D01*
X141495000Y-84935253D01*
X140305360Y-84935253D01*
X140258228Y-84912212D01*
X140204812Y-84886098D01*
X140204809Y-84886097D01*
X140201393Y-84884427D01*
X140197628Y-84883878D01*
X140197627Y-84883878D01*
X140135017Y-84874756D01*
X140133260Y-84874500D01*
X140131484Y-84874500D01*
X139669120Y-84874500D01*
X139641517Y-84865986D01*
X139623507Y-84843402D01*
X139621348Y-84814597D01*
X139639428Y-84735380D01*
X139640656Y-84730000D01*
X139620290Y-84640769D01*
X139563224Y-84569212D01*
X139557370Y-84566393D01*
X139485736Y-84531895D01*
X139480763Y-84529500D01*
X139389237Y-84529500D01*
X139384264Y-84531894D01*
X139384263Y-84531895D01*
X139311750Y-84566816D01*
X139311748Y-84566817D01*
X139306776Y-84569212D01*
X139303335Y-84573526D01*
X139303332Y-84573529D01*
X139298309Y-84579829D01*
X139274443Y-84596101D01*
X139245557Y-84596101D01*
X139221691Y-84579829D01*
X139216667Y-84573529D01*
X139216666Y-84573528D01*
X139213224Y-84569212D01*
X139207370Y-84566393D01*
X139135736Y-84531895D01*
X139130763Y-84529500D01*
X139039237Y-84529500D01*
X139034264Y-84531894D01*
X139034263Y-84531895D01*
X138961750Y-84566816D01*
X138961748Y-84566817D01*
X138956776Y-84569212D01*
X138953335Y-84573526D01*
X138953332Y-84573529D01*
X138944320Y-84584829D01*
X138920453Y-84601100D01*
X138891569Y-84601099D01*
X138867703Y-84584828D01*
X138866667Y-84583529D01*
X138866666Y-84583528D01*
X138863224Y-84579212D01*
X138851423Y-84573529D01*
X138785736Y-84541895D01*
X138780763Y-84539500D01*
X138689237Y-84539500D01*
X138684266Y-84541893D01*
X138684261Y-84541895D01*
X138616307Y-84574621D01*
X138587743Y-84578927D01*
X138561718Y-84566393D01*
X138547276Y-84541378D01*
X138540290Y-84510769D01*
X138495126Y-84454136D01*
X138486667Y-84443529D01*
X138486666Y-84443528D01*
X138483224Y-84439212D01*
X138400763Y-84399500D01*
X138324500Y-84399500D01*
X138289852Y-84385148D01*
X138275500Y-84350500D01*
X138275500Y-83574500D01*
X138289852Y-83539852D01*
X138324500Y-83525500D01*
X140131484Y-83525500D01*
X140133260Y-83525500D01*
X140201393Y-83515573D01*
X140306483Y-83464198D01*
X140389198Y-83381483D01*
X140440573Y-83276393D01*
X140450500Y-83208260D01*
X140450500Y-83049500D01*
X140464852Y-83014852D01*
X140499500Y-83000500D01*
X140738001Y-83000500D01*
X140772649Y-83014852D01*
X140787001Y-83049500D01*
X140787001Y-83318658D01*
X140787208Y-83320231D01*
X140787209Y-83320245D01*
X140791126Y-83350000D01*
X140793121Y-83365153D01*
X140794703Y-83368545D01*
X140794704Y-83368549D01*
X140838889Y-83463305D01*
X140838891Y-83463308D01*
X140840701Y-83467189D01*
X140920311Y-83546799D01*
X140924192Y-83548609D01*
X140924194Y-83548610D01*
X140948775Y-83560072D01*
X141022347Y-83594379D01*
X141068841Y-83600500D01*
X141372364Y-83600499D01*
X141391115Y-83604229D01*
X141407012Y-83614851D01*
X141672225Y-83880064D01*
X141684467Y-83900488D01*
X141685635Y-83924268D01*
X141674500Y-83980252D01*
X141674500Y-84219748D01*
X141674969Y-84222107D01*
X141674970Y-84222114D01*
X141685190Y-84273494D01*
X141685191Y-84273497D01*
X141686133Y-84278231D01*
X141688814Y-84282244D01*
X141688815Y-84282245D01*
X141716835Y-84324180D01*
X141730448Y-84344552D01*
X141796769Y-84388867D01*
X141855252Y-84400500D01*
X142152338Y-84400500D01*
X142154748Y-84400500D01*
X142213231Y-84388867D01*
X142213360Y-84389515D01*
X142243348Y-84388530D01*
X142270036Y-84410428D01*
X142275661Y-84444489D01*
X142269592Y-84475000D01*
X142270534Y-84479736D01*
X142288092Y-84568007D01*
X142288093Y-84568009D01*
X142289034Y-84572740D01*
X142291713Y-84576750D01*
X142291714Y-84576751D01*
X142302108Y-84592307D01*
X142310130Y-84624333D01*
X142296014Y-84654178D01*
X142266169Y-84668294D01*
X142234144Y-84660272D01*
X142200464Y-84637768D01*
X142191710Y-84634142D01*
X142122975Y-84620470D01*
X142118199Y-84620000D01*
X142009747Y-84620000D01*
X142002854Y-84622854D01*
X142000000Y-84629747D01*
X142000000Y-84935253D01*
X142002854Y-84942145D01*
X142009747Y-84945000D01*
X142345252Y-84945000D01*
X142352144Y-84942145D01*
X142354999Y-84935253D01*
X142354999Y-84856795D01*
X142354530Y-84852037D01*
X142340856Y-84783285D01*
X142337233Y-84774540D01*
X142324740Y-84755842D01*
X142316718Y-84723816D01*
X142330834Y-84693971D01*
X142360679Y-84679855D01*
X142392703Y-84687876D01*
X142427260Y-84710966D01*
X142525000Y-84730408D01*
X142622740Y-84710966D01*
X142705601Y-84655601D01*
X142760966Y-84572740D01*
X142780408Y-84475000D01*
X142776257Y-84454132D01*
X142777917Y-84428826D01*
X142792009Y-84407736D01*
X142814752Y-84396520D01*
X142853231Y-84388867D01*
X142919552Y-84344552D01*
X142963867Y-84278231D01*
X142975500Y-84219748D01*
X142975500Y-84073345D01*
X142989852Y-84038697D01*
X143413698Y-83614851D01*
X143448346Y-83600499D01*
X143704557Y-83600499D01*
X143706158Y-83600499D01*
X143752653Y-83594379D01*
X143854689Y-83546799D01*
X143934299Y-83467189D01*
X143981879Y-83365153D01*
X143988000Y-83318659D01*
X143987999Y-82481342D01*
X143981879Y-82434847D01*
X143980295Y-82431450D01*
X143936110Y-82336694D01*
X143936109Y-82336692D01*
X143934299Y-82332811D01*
X143854689Y-82253201D01*
X143850808Y-82251391D01*
X143850805Y-82251389D01*
X143756050Y-82207205D01*
X143756049Y-82207204D01*
X143752653Y-82205621D01*
X143748941Y-82205132D01*
X143748937Y-82205131D01*
X143707743Y-82199708D01*
X143707734Y-82199707D01*
X143706159Y-82199500D01*
X143704558Y-82199500D01*
X143195443Y-82199500D01*
X143195427Y-82199500D01*
X143193842Y-82199501D01*
X143192269Y-82199707D01*
X143192254Y-82199709D01*
X143151061Y-82205132D01*
X143151060Y-82205132D01*
X143147347Y-82205621D01*
X143143955Y-82207202D01*
X143143950Y-82207204D01*
X143049194Y-82251389D01*
X143049188Y-82251392D01*
X143045311Y-82253201D01*
X143042283Y-82256228D01*
X143042280Y-82256231D01*
X142968731Y-82329780D01*
X142968728Y-82329783D01*
X142965701Y-82332811D01*
X142963892Y-82336688D01*
X142963889Y-82336694D01*
X142919705Y-82431449D01*
X142919705Y-82431450D01*
X142918121Y-82434847D01*
X142917632Y-82438556D01*
X142917631Y-82438562D01*
X142912208Y-82479756D01*
X142912207Y-82479766D01*
X142912000Y-82481341D01*
X142912000Y-82482940D01*
X142912000Y-82482941D01*
X142912000Y-83317056D01*
X142912000Y-83317071D01*
X142912001Y-83318658D01*
X142912208Y-83320231D01*
X142912209Y-83320245D01*
X142916126Y-83350000D01*
X142918121Y-83365153D01*
X142919703Y-83368545D01*
X142919704Y-83368549D01*
X142960283Y-83455571D01*
X142964130Y-83484788D01*
X142950522Y-83510927D01*
X142676303Y-83785148D01*
X142660407Y-83795770D01*
X142641655Y-83799500D01*
X142495252Y-83799500D01*
X142492893Y-83799969D01*
X142492885Y-83799970D01*
X142441505Y-83810190D01*
X142441500Y-83810191D01*
X142436769Y-83811133D01*
X142432757Y-83813813D01*
X142432754Y-83813815D01*
X142374459Y-83852767D01*
X142374456Y-83852769D01*
X142370448Y-83855448D01*
X142367769Y-83859456D01*
X142367766Y-83859460D01*
X142365740Y-83862493D01*
X142340749Y-83881667D01*
X142309251Y-83881667D01*
X142284260Y-83862493D01*
X142282233Y-83859460D01*
X142282232Y-83859459D01*
X142279552Y-83855448D01*
X142213231Y-83811133D01*
X142208497Y-83810191D01*
X142208494Y-83810190D01*
X142157114Y-83799970D01*
X142157107Y-83799969D01*
X142154748Y-83799500D01*
X142152338Y-83799500D01*
X142037635Y-83799500D01*
X142002987Y-83785148D01*
X141781811Y-83563972D01*
X141769128Y-83542006D01*
X141769129Y-83516641D01*
X141781811Y-83494676D01*
X141809299Y-83467189D01*
X141856879Y-83365153D01*
X141863000Y-83318659D01*
X141862999Y-82481342D01*
X141856879Y-82434847D01*
X141855295Y-82431450D01*
X141811110Y-82336694D01*
X141811109Y-82336692D01*
X141809299Y-82332811D01*
X141729689Y-82253201D01*
X141725808Y-82251391D01*
X141725805Y-82251389D01*
X141631050Y-82207205D01*
X141631049Y-82207204D01*
X141627653Y-82205621D01*
X141623941Y-82205132D01*
X141623937Y-82205131D01*
X141582743Y-82199708D01*
X141582734Y-82199707D01*
X141581159Y-82199500D01*
X141579558Y-82199500D01*
X141070443Y-82199500D01*
X141070427Y-82199500D01*
X141068842Y-82199501D01*
X141067269Y-82199707D01*
X141067254Y-82199709D01*
X141026061Y-82205132D01*
X141026060Y-82205132D01*
X141022347Y-82205621D01*
X141018955Y-82207202D01*
X141018950Y-82207204D01*
X140924194Y-82251389D01*
X140924188Y-82251392D01*
X140920311Y-82253201D01*
X140917283Y-82256229D01*
X140877552Y-82295960D01*
X140849753Y-82309830D01*
X140819201Y-82304197D01*
X140798178Y-82281325D01*
X140795133Y-82250407D01*
X140804428Y-82209684D01*
X140804428Y-82209680D01*
X140805656Y-82204300D01*
X140785290Y-82115069D01*
X140773312Y-82100049D01*
X140762759Y-82065839D01*
X140778293Y-82033581D01*
X140811622Y-82020500D01*
X141920562Y-82020500D01*
X141923777Y-82020500D01*
X142018008Y-81995251D01*
X142102492Y-81946474D01*
X142134614Y-81914352D01*
X142169262Y-81900000D01*
X142880738Y-81900000D01*
X142915386Y-81914352D01*
G37*
%TD.AperFunction*%
%TA.AperFunction,Conductor*%
G36*
X138885648Y-93094352D02*
G01*
X138900000Y-93129000D01*
X138900000Y-93665252D01*
X138902854Y-93672144D01*
X138909747Y-93674999D01*
X138970893Y-93674999D01*
X138975655Y-93674530D01*
X138975943Y-93674473D01*
X138976089Y-93674487D01*
X138978055Y-93674294D01*
X138978093Y-93674684D01*
X139004253Y-93677262D01*
X139026242Y-93695310D01*
X139034500Y-93722532D01*
X139034500Y-93949673D01*
X139034500Y-94030327D01*
X139037724Y-94035911D01*
X139037725Y-94035914D01*
X139041531Y-94042506D01*
X139046426Y-94054323D01*
X139048395Y-94061674D01*
X139048396Y-94061676D01*
X139050065Y-94067904D01*
X139054624Y-94072463D01*
X139107094Y-94124934D01*
X139107100Y-94124939D01*
X139490065Y-94507904D01*
X139547096Y-94564935D01*
X139560677Y-94568573D01*
X139572497Y-94573469D01*
X139584673Y-94580500D01*
X139665326Y-94580501D01*
X139665328Y-94580500D01*
X145928364Y-94580500D01*
X145955587Y-94588758D01*
X145973634Y-94610749D01*
X145976422Y-94639060D01*
X145963012Y-94664148D01*
X145786149Y-94841010D01*
X145759709Y-94854670D01*
X145730242Y-94850510D01*
X145725740Y-94848342D01*
X145725736Y-94848341D01*
X145720763Y-94845946D01*
X145629237Y-94845946D01*
X145624264Y-94848340D01*
X145624263Y-94848341D01*
X145551750Y-94883262D01*
X145551748Y-94883263D01*
X145546776Y-94885658D01*
X145543335Y-94889972D01*
X145543332Y-94889975D01*
X145495674Y-94949736D01*
X145489710Y-94957215D01*
X145488481Y-94962596D01*
X145488481Y-94962598D01*
X145479466Y-95002096D01*
X145469344Y-95046446D01*
X145470572Y-95051826D01*
X145488473Y-95130260D01*
X145489710Y-95135677D01*
X145491746Y-95138230D01*
X145496112Y-95161005D01*
X145487976Y-95184793D01*
X145483882Y-95190919D01*
X145483879Y-95190925D01*
X145481201Y-95194934D01*
X145480260Y-95199662D01*
X145480259Y-95199666D01*
X145474968Y-95226268D01*
X145474500Y-95228623D01*
X145474500Y-95231024D01*
X145474500Y-95231025D01*
X145474500Y-96018974D01*
X145474500Y-96018984D01*
X145474501Y-96021376D01*
X145474968Y-96023725D01*
X145475163Y-96025701D01*
X145470345Y-96052174D01*
X145452273Y-96072112D01*
X145426399Y-96079500D01*
X145423602Y-96079500D01*
X145397727Y-96072111D01*
X145379656Y-96052174D01*
X145374838Y-96025700D01*
X145375031Y-96023733D01*
X145375500Y-96021377D01*
X145375499Y-95228624D01*
X145368799Y-95194934D01*
X145343271Y-95156729D01*
X145315000Y-95137839D01*
X145309080Y-95133883D01*
X145309079Y-95133882D01*
X145305066Y-95131201D01*
X145303872Y-95130963D01*
X145283758Y-95114457D01*
X145275500Y-95087233D01*
X145275500Y-95066124D01*
X145275500Y-95059673D01*
X145268469Y-95047497D01*
X145263573Y-95035676D01*
X145263395Y-95035012D01*
X145259935Y-95022096D01*
X145255376Y-95017537D01*
X145255375Y-95017535D01*
X145202905Y-94965065D01*
X145202903Y-94965064D01*
X145117409Y-94879570D01*
X145117409Y-94879569D01*
X145102904Y-94865065D01*
X145089323Y-94861426D01*
X145077506Y-94856531D01*
X145070914Y-94852725D01*
X145070911Y-94852724D01*
X145065327Y-94849500D01*
X145058879Y-94849499D01*
X145058876Y-94849499D01*
X144984679Y-94849499D01*
X144984678Y-94849499D01*
X144984674Y-94849499D01*
X144984672Y-94849499D01*
X144984671Y-94849500D01*
X140243881Y-94849500D01*
X140163227Y-94849500D01*
X140157642Y-94852723D01*
X140157639Y-94852725D01*
X140151046Y-94856532D01*
X140139234Y-94861425D01*
X140139231Y-94861426D01*
X140125650Y-94865065D01*
X140122326Y-94868388D01*
X140099519Y-94874500D01*
X140015327Y-94874500D01*
X139934673Y-94874500D01*
X139929088Y-94877723D01*
X139929085Y-94877725D01*
X139922492Y-94881532D01*
X139910680Y-94886425D01*
X139907002Y-94887410D01*
X139897096Y-94890065D01*
X139892538Y-94894622D01*
X139892536Y-94894624D01*
X139840064Y-94947096D01*
X139752147Y-95035012D01*
X139717499Y-95049364D01*
X139682851Y-95035012D01*
X138987465Y-94339626D01*
X138987465Y-94339625D01*
X138982904Y-94335065D01*
X138976672Y-94333395D01*
X138969323Y-94331426D01*
X138957506Y-94326531D01*
X138950914Y-94322725D01*
X138950911Y-94322724D01*
X138945327Y-94319500D01*
X138938879Y-94319499D01*
X138938876Y-94319499D01*
X138864679Y-94319499D01*
X138864678Y-94319499D01*
X138864674Y-94319499D01*
X138864672Y-94319499D01*
X138864671Y-94319500D01*
X138812635Y-94319500D01*
X138777987Y-94305148D01*
X138599852Y-94127013D01*
X138585500Y-94092365D01*
X138585500Y-93716565D01*
X138593758Y-93689342D01*
X138615748Y-93671295D01*
X138644059Y-93668506D01*
X138674345Y-93674530D01*
X138679113Y-93675000D01*
X138740253Y-93675000D01*
X138747145Y-93672145D01*
X138750000Y-93665253D01*
X138750000Y-93129000D01*
X138764352Y-93094352D01*
X138799000Y-93080000D01*
X138851000Y-93080000D01*
X138885648Y-93094352D01*
G37*
%TD.AperFunction*%
%TA.AperFunction,Conductor*%
G36*
X137528648Y-84937582D02*
G01*
X137619246Y-85028180D01*
X137632930Y-85054763D01*
X137628619Y-85084348D01*
X137616711Y-85108708D01*
X137609427Y-85123607D01*
X137608878Y-85127368D01*
X137608877Y-85127375D01*
X137599915Y-85188892D01*
X137599500Y-85191740D01*
X137599500Y-86008260D01*
X137599756Y-86010017D01*
X137600199Y-86013061D01*
X137609427Y-86076393D01*
X137611097Y-86079809D01*
X137611098Y-86079812D01*
X137623598Y-86105380D01*
X137660802Y-86181483D01*
X137743517Y-86264198D01*
X137848607Y-86315573D01*
X137916740Y-86325500D01*
X137918516Y-86325500D01*
X140074704Y-86325500D01*
X140101927Y-86333758D01*
X140119974Y-86355749D01*
X140122762Y-86384060D01*
X140120533Y-86395264D01*
X140120533Y-86395269D01*
X140119592Y-86400000D01*
X140130594Y-86455312D01*
X140136202Y-86483503D01*
X140134542Y-86508813D01*
X140120451Y-86529902D01*
X140097702Y-86541121D01*
X140043892Y-86551823D01*
X140035147Y-86555446D01*
X139970400Y-86598708D01*
X139963710Y-86605398D01*
X139962619Y-86607032D01*
X139940628Y-86625078D01*
X139912317Y-86627866D01*
X139889811Y-86615836D01*
X139889552Y-86615448D01*
X139883094Y-86611133D01*
X139827245Y-86573815D01*
X139827244Y-86573814D01*
X139823231Y-86571133D01*
X139818497Y-86570191D01*
X139818494Y-86570190D01*
X139767114Y-86559970D01*
X139767107Y-86559969D01*
X139764748Y-86559500D01*
X139762338Y-86559500D01*
X139547635Y-86559500D01*
X139512987Y-86545148D01*
X139497409Y-86529570D01*
X139497409Y-86529569D01*
X139482904Y-86515065D01*
X139469323Y-86511426D01*
X139457506Y-86506531D01*
X139450914Y-86502725D01*
X139450911Y-86502724D01*
X139445327Y-86499500D01*
X139438879Y-86499499D01*
X139438876Y-86499499D01*
X139364679Y-86499499D01*
X139364678Y-86499499D01*
X139364674Y-86499499D01*
X139364672Y-86499499D01*
X139364671Y-86499500D01*
X138985327Y-86499500D01*
X138904673Y-86499500D01*
X138899088Y-86502723D01*
X138899085Y-86502725D01*
X138892492Y-86506532D01*
X138880680Y-86511425D01*
X138877415Y-86512300D01*
X138867096Y-86515065D01*
X138862538Y-86519622D01*
X138862536Y-86519624D01*
X138810064Y-86572096D01*
X138810062Y-86572096D01*
X138797011Y-86585148D01*
X138762363Y-86599500D01*
X138545252Y-86599500D01*
X138542893Y-86599969D01*
X138542885Y-86599970D01*
X138491505Y-86610190D01*
X138491500Y-86610191D01*
X138486769Y-86611133D01*
X138482757Y-86613813D01*
X138482754Y-86613815D01*
X138424459Y-86652767D01*
X138424456Y-86652769D01*
X138420448Y-86655448D01*
X138417769Y-86659456D01*
X138417766Y-86659460D01*
X138415740Y-86662493D01*
X138390749Y-86681667D01*
X138359251Y-86681667D01*
X138334260Y-86662493D01*
X138332233Y-86659460D01*
X138332232Y-86659459D01*
X138329552Y-86655448D01*
X138314324Y-86645273D01*
X138267245Y-86613815D01*
X138267244Y-86613814D01*
X138263231Y-86611133D01*
X138258497Y-86610191D01*
X138258494Y-86610190D01*
X138207114Y-86599970D01*
X138207107Y-86599969D01*
X138204748Y-86599500D01*
X137905252Y-86599500D01*
X137902893Y-86599969D01*
X137902885Y-86599970D01*
X137851505Y-86610190D01*
X137851500Y-86610191D01*
X137846769Y-86611133D01*
X137842757Y-86613813D01*
X137842754Y-86613815D01*
X137784459Y-86652767D01*
X137784456Y-86652769D01*
X137780448Y-86655448D01*
X137777769Y-86659456D01*
X137777767Y-86659459D01*
X137738815Y-86717754D01*
X137738813Y-86717757D01*
X137736133Y-86721769D01*
X137735191Y-86726500D01*
X137735190Y-86726505D01*
X137724970Y-86777885D01*
X137724969Y-86777893D01*
X137724500Y-86780252D01*
X137724500Y-87019748D01*
X137724969Y-87022107D01*
X137724970Y-87022114D01*
X137735190Y-87073494D01*
X137735191Y-87073497D01*
X137736133Y-87078231D01*
X137738814Y-87082244D01*
X137738815Y-87082245D01*
X137777530Y-87140186D01*
X137780448Y-87144552D01*
X137846769Y-87188867D01*
X137905252Y-87200500D01*
X138122365Y-87200500D01*
X138157013Y-87214852D01*
X138210148Y-87267987D01*
X138224500Y-87302635D01*
X138224500Y-87363227D01*
X138224500Y-87443881D01*
X138227724Y-87449465D01*
X138229395Y-87455700D01*
X138228702Y-87455885D01*
X138232143Y-87467226D01*
X138228518Y-87489183D01*
X138220000Y-87509747D01*
X138220000Y-87765253D01*
X138222854Y-87772145D01*
X138229747Y-87775000D01*
X138455252Y-87775000D01*
X138480409Y-87764579D01*
X138508720Y-87761790D01*
X138533809Y-87775201D01*
X138561511Y-87802903D01*
X138561511Y-87802904D01*
X138580768Y-87822161D01*
X138594812Y-87851322D01*
X138587610Y-87882878D01*
X138562305Y-87903059D01*
X138557849Y-87904617D01*
X138552366Y-87905236D01*
X138547694Y-87908171D01*
X138547692Y-87908172D01*
X138525476Y-87922131D01*
X138520673Y-87924785D01*
X138512687Y-87928632D01*
X138483217Y-87932795D01*
X138476912Y-87929538D01*
X138476817Y-87929895D01*
X138458549Y-87925000D01*
X137834748Y-87925000D01*
X137827855Y-87927854D01*
X137825001Y-87934747D01*
X137825001Y-87999263D01*
X137825469Y-88004020D01*
X137836823Y-88061107D01*
X137840446Y-88069852D01*
X137883708Y-88134599D01*
X137890398Y-88141289D01*
X137892029Y-88142379D01*
X137910076Y-88164367D01*
X137912867Y-88192675D01*
X137900838Y-88215187D01*
X137900448Y-88215448D01*
X137897771Y-88219453D01*
X137897770Y-88219455D01*
X137858815Y-88277754D01*
X137858813Y-88277757D01*
X137856133Y-88281769D01*
X137855191Y-88286500D01*
X137855190Y-88286505D01*
X137844970Y-88337885D01*
X137844969Y-88337893D01*
X137844500Y-88340252D01*
X137844500Y-88639748D01*
X137844969Y-88642107D01*
X137844970Y-88642114D01*
X137855190Y-88693494D01*
X137855191Y-88693497D01*
X137856133Y-88698231D01*
X137858814Y-88702244D01*
X137858815Y-88702245D01*
X137890589Y-88749798D01*
X137900448Y-88764552D01*
X137966769Y-88808867D01*
X138025252Y-88820500D01*
X138262338Y-88820500D01*
X138264748Y-88820500D01*
X138323231Y-88808867D01*
X138389552Y-88764552D01*
X138424481Y-88712277D01*
X138442126Y-88696286D01*
X138465224Y-88690500D01*
X138511655Y-88690500D01*
X138530407Y-88694230D01*
X138546302Y-88704851D01*
X138588411Y-88746961D01*
X138628250Y-88786800D01*
X138633335Y-88793966D01*
X138633375Y-88793935D01*
X138636816Y-88798250D01*
X138639212Y-88803224D01*
X138660284Y-88820029D01*
X138664034Y-88823019D01*
X138668131Y-88826681D01*
X138674199Y-88832749D01*
X138676523Y-88834209D01*
X138676529Y-88834214D01*
X138676577Y-88834244D01*
X138676607Y-88834276D01*
X138678682Y-88835931D01*
X138678448Y-88836223D01*
X138693388Y-88852030D01*
X138699500Y-88875729D01*
X138699500Y-89016644D01*
X138699969Y-89019004D01*
X138699970Y-89019009D01*
X138705564Y-89047131D01*
X138705564Y-89047133D01*
X138706506Y-89051864D01*
X138733194Y-89091806D01*
X138773136Y-89118494D01*
X138796623Y-89123166D01*
X138819714Y-89134688D01*
X138833749Y-89156344D01*
X138834834Y-89182128D01*
X138826067Y-89220537D01*
X138813385Y-89243484D01*
X138810448Y-89245448D01*
X138807771Y-89249453D01*
X138807769Y-89249456D01*
X138768815Y-89307754D01*
X138768813Y-89307757D01*
X138766133Y-89311769D01*
X138765191Y-89316500D01*
X138765190Y-89316505D01*
X138754970Y-89367885D01*
X138754969Y-89367893D01*
X138754500Y-89370252D01*
X138754500Y-89669748D01*
X138754969Y-89672107D01*
X138754970Y-89672114D01*
X138765190Y-89723494D01*
X138765191Y-89723497D01*
X138766133Y-89728231D01*
X138768814Y-89732244D01*
X138768815Y-89732245D01*
X138805575Y-89787260D01*
X138810448Y-89794552D01*
X138810836Y-89794811D01*
X138822866Y-89817317D01*
X138820078Y-89845628D01*
X138802032Y-89867619D01*
X138800398Y-89868710D01*
X138793708Y-89875400D01*
X138750445Y-89940148D01*
X138746823Y-89948892D01*
X138735470Y-90005967D01*
X138735000Y-90010743D01*
X138735000Y-90075253D01*
X138737854Y-90082145D01*
X138744747Y-90085000D01*
X139365252Y-90085000D01*
X139372144Y-90082145D01*
X139374999Y-90075253D01*
X139374999Y-90010737D01*
X139374530Y-90005979D01*
X139363176Y-89948892D01*
X139359553Y-89940147D01*
X139316291Y-89875400D01*
X139309600Y-89868709D01*
X139307971Y-89867621D01*
X139289921Y-89845629D01*
X139287133Y-89817315D01*
X139299163Y-89794811D01*
X139299552Y-89794552D01*
X139343867Y-89728231D01*
X139355500Y-89669748D01*
X139355500Y-89370252D01*
X139343867Y-89311769D01*
X139299552Y-89245448D01*
X139254345Y-89215241D01*
X139235433Y-89191007D01*
X139234679Y-89160276D01*
X139252380Y-89135143D01*
X139281569Y-89125500D01*
X139564234Y-89125500D01*
X139566644Y-89125500D01*
X139601864Y-89118494D01*
X139641806Y-89091806D01*
X139668494Y-89051864D01*
X139675500Y-89016644D01*
X139675500Y-88358356D01*
X139668494Y-88323136D01*
X139641806Y-88283194D01*
X139633664Y-88277754D01*
X139605875Y-88259186D01*
X139605874Y-88259185D01*
X139601864Y-88256506D01*
X139597133Y-88255564D01*
X139597131Y-88255564D01*
X139569009Y-88249970D01*
X139569004Y-88249969D01*
X139566644Y-88249500D01*
X139564234Y-88249500D01*
X139299500Y-88249500D01*
X139264852Y-88235148D01*
X139250500Y-88200500D01*
X139250500Y-88199500D01*
X139264852Y-88164852D01*
X139299500Y-88150500D01*
X139447489Y-88150500D01*
X139449898Y-88150500D01*
X139479213Y-88144668D01*
X139504066Y-88128062D01*
X139653064Y-87979063D01*
X139669669Y-87954213D01*
X139675500Y-87924899D01*
X139675499Y-87365102D01*
X139669669Y-87335787D01*
X139647457Y-87302543D01*
X139614213Y-87280331D01*
X139609478Y-87279389D01*
X139587264Y-87274970D01*
X139587259Y-87274969D01*
X139584899Y-87274500D01*
X139582489Y-87274500D01*
X138936602Y-87274500D01*
X138907413Y-87264857D01*
X138889712Y-87239724D01*
X138890466Y-87208992D01*
X138909377Y-87184760D01*
X138969552Y-87144552D01*
X139013867Y-87078231D01*
X139025500Y-87019748D01*
X139025500Y-86849500D01*
X139039852Y-86814852D01*
X139074500Y-86800500D01*
X139235500Y-86800500D01*
X139270148Y-86814852D01*
X139284500Y-86849500D01*
X139284500Y-86979748D01*
X139284969Y-86982107D01*
X139284970Y-86982114D01*
X139295190Y-87033494D01*
X139295191Y-87033497D01*
X139296133Y-87038231D01*
X139298814Y-87042244D01*
X139298815Y-87042245D01*
X139337675Y-87100403D01*
X139340448Y-87104552D01*
X139406769Y-87148867D01*
X139465252Y-87160500D01*
X139682365Y-87160500D01*
X139717013Y-87174852D01*
X139830065Y-87287903D01*
X139830065Y-87287904D01*
X139887096Y-87344935D01*
X139900677Y-87348573D01*
X139912498Y-87353470D01*
X139924673Y-87360500D01*
X139924394Y-87360982D01*
X139944875Y-87374667D01*
X139955000Y-87404496D01*
X139955000Y-88041160D01*
X139955469Y-88045920D01*
X139962195Y-88079739D01*
X139965818Y-88088485D01*
X139967639Y-88091211D01*
X139971926Y-88094729D01*
X139976818Y-88092114D01*
X140427851Y-87641081D01*
X140449817Y-87628399D01*
X140475181Y-87628399D01*
X140497147Y-87641081D01*
X140948180Y-88092114D01*
X140953072Y-88094729D01*
X140957360Y-88091210D01*
X140959181Y-88088485D01*
X140962804Y-88079740D01*
X140969531Y-88045919D01*
X140969999Y-88041162D01*
X140969999Y-87409500D01*
X140976564Y-87385000D01*
X140994499Y-87367065D01*
X141018999Y-87360500D01*
X141038876Y-87360500D01*
X141045327Y-87360500D01*
X141057505Y-87353467D01*
X141069321Y-87348573D01*
X141082904Y-87344935D01*
X141139935Y-87287905D01*
X141139935Y-87287903D01*
X141262988Y-87164850D01*
X141297635Y-87150500D01*
X142005501Y-87150500D01*
X142040149Y-87164852D01*
X142054501Y-87199500D01*
X142054501Y-87277442D01*
X142054968Y-87279792D01*
X142054969Y-87279798D01*
X142056583Y-87287913D01*
X142062420Y-87317260D01*
X142065099Y-87321270D01*
X142065100Y-87321271D01*
X142089156Y-87357274D01*
X142092589Y-87362411D01*
X142137740Y-87392580D01*
X142177557Y-87400500D01*
X142372442Y-87400499D01*
X142412260Y-87392580D01*
X142457411Y-87362411D01*
X142484258Y-87322230D01*
X142509249Y-87303054D01*
X142540751Y-87303054D01*
X142565741Y-87322230D01*
X142575177Y-87336352D01*
X142589156Y-87357274D01*
X142592589Y-87362411D01*
X142637740Y-87392580D01*
X142677557Y-87400500D01*
X142872442Y-87400499D01*
X142912260Y-87392580D01*
X142957411Y-87362411D01*
X142984258Y-87322230D01*
X143009249Y-87303054D01*
X143040751Y-87303054D01*
X143065741Y-87322230D01*
X143075177Y-87336352D01*
X143089156Y-87357274D01*
X143092589Y-87362411D01*
X143096600Y-87365091D01*
X143096601Y-87365092D01*
X143112887Y-87375974D01*
X143132750Y-87403150D01*
X143130392Y-87436729D01*
X143106926Y-87460863D01*
X143052001Y-87487314D01*
X143051997Y-87487316D01*
X143047026Y-87489711D01*
X143043585Y-87494025D01*
X143043582Y-87494028D01*
X142994989Y-87554962D01*
X142989960Y-87561268D01*
X142988731Y-87566649D01*
X142988731Y-87566651D01*
X142974638Y-87628399D01*
X142969594Y-87650499D01*
X142971618Y-87659367D01*
X142974067Y-87670097D01*
X142971908Y-87698902D01*
X142953898Y-87721486D01*
X142926295Y-87730000D01*
X142521475Y-87730000D01*
X142516717Y-87730468D01*
X142470719Y-87739617D01*
X142461974Y-87743240D01*
X142409796Y-87778104D01*
X142403104Y-87784796D01*
X142368240Y-87836974D01*
X142364615Y-87845723D01*
X142362223Y-87857753D01*
X142348159Y-87883483D01*
X142321921Y-87896575D01*
X142292905Y-87892340D01*
X142228000Y-87861083D01*
X142227996Y-87861082D01*
X142223025Y-87858688D01*
X142131499Y-87858688D01*
X142126528Y-87861081D01*
X142126527Y-87861082D01*
X142054892Y-87895580D01*
X142023735Y-87899422D01*
X141996641Y-87883567D01*
X141984729Y-87854521D01*
X141992890Y-87824210D01*
X142017580Y-87787260D01*
X142025500Y-87747443D01*
X142025499Y-87552558D01*
X142017580Y-87512740D01*
X141987411Y-87467589D01*
X141980637Y-87463063D01*
X141961086Y-87449999D01*
X141942260Y-87437420D01*
X141937529Y-87436479D01*
X141937527Y-87436478D01*
X141904797Y-87429968D01*
X141904794Y-87429967D01*
X141902443Y-87429500D01*
X141900040Y-87429500D01*
X141349961Y-87429500D01*
X141349950Y-87429500D01*
X141347558Y-87429501D01*
X141345208Y-87429968D01*
X141345201Y-87429969D01*
X141312471Y-87436479D01*
X141307740Y-87437420D01*
X141303730Y-87440098D01*
X141303728Y-87440100D01*
X141266600Y-87464908D01*
X141266597Y-87464910D01*
X141262589Y-87467589D01*
X141259910Y-87471597D01*
X141259908Y-87471600D01*
X141235101Y-87508727D01*
X141232420Y-87512740D01*
X141231479Y-87517468D01*
X141231478Y-87517472D01*
X141224968Y-87550202D01*
X141224500Y-87552557D01*
X141224500Y-87554958D01*
X141224500Y-87554959D01*
X141224500Y-87745037D01*
X141224500Y-87745047D01*
X141224501Y-87747442D01*
X141224968Y-87749792D01*
X141224969Y-87749798D01*
X141227909Y-87764579D01*
X141232420Y-87787260D01*
X141235099Y-87791270D01*
X141235100Y-87791271D01*
X141258652Y-87826520D01*
X141262589Y-87832411D01*
X141266600Y-87835091D01*
X141285218Y-87847531D01*
X141304394Y-87872522D01*
X141304395Y-87904023D01*
X141285219Y-87929015D01*
X141252539Y-87950851D01*
X141245849Y-87957541D01*
X141216732Y-88001119D01*
X141213109Y-88009864D01*
X141205468Y-88048281D01*
X141205000Y-88053039D01*
X141205000Y-88065253D01*
X141207854Y-88072145D01*
X141214747Y-88075000D01*
X141651000Y-88075000D01*
X141685648Y-88089352D01*
X141700000Y-88124000D01*
X141700000Y-88380254D01*
X141700412Y-88381249D01*
X141700412Y-88418751D01*
X141700000Y-88419746D01*
X141700000Y-88565253D01*
X141702854Y-88572145D01*
X141709747Y-88575000D01*
X142035253Y-88575000D01*
X142042145Y-88572145D01*
X142045000Y-88565253D01*
X142045000Y-88553039D01*
X142044531Y-88548281D01*
X142036890Y-88509864D01*
X142033267Y-88501119D01*
X142004150Y-88457541D01*
X141997458Y-88450849D01*
X141982331Y-88440742D01*
X141963154Y-88415751D01*
X141963154Y-88384249D01*
X141982331Y-88359258D01*
X141997458Y-88349150D01*
X142004150Y-88342458D01*
X142033267Y-88298880D01*
X142036890Y-88290135D01*
X142038349Y-88282801D01*
X142052413Y-88257070D01*
X142078652Y-88243977D01*
X142107668Y-88248212D01*
X142126523Y-88257292D01*
X142126524Y-88257292D01*
X142131499Y-88259688D01*
X142217505Y-88259688D01*
X142223025Y-88259688D01*
X142284740Y-88229966D01*
X142316903Y-88226342D01*
X142344310Y-88243563D01*
X142355000Y-88274114D01*
X142355000Y-89081768D01*
X142344310Y-89112318D01*
X142316905Y-89129539D01*
X142291338Y-89126659D01*
X142291118Y-89127624D01*
X142285738Y-89126395D01*
X142280763Y-89124000D01*
X142189237Y-89124000D01*
X142184264Y-89126394D01*
X142184263Y-89126395D01*
X142111750Y-89161316D01*
X142111748Y-89161317D01*
X142106776Y-89163712D01*
X142104221Y-89166915D01*
X142070837Y-89177213D01*
X142038579Y-89161678D01*
X142025499Y-89128350D01*
X142025499Y-89054962D01*
X142025499Y-89054959D01*
X142025499Y-89052558D01*
X142017580Y-89012740D01*
X141987411Y-88967589D01*
X141983397Y-88964907D01*
X141964781Y-88952468D01*
X141945604Y-88927476D01*
X141945605Y-88895975D01*
X141964782Y-88870984D01*
X141997457Y-88849151D01*
X142004150Y-88842458D01*
X142033267Y-88798880D01*
X142036890Y-88790135D01*
X142044531Y-88751718D01*
X142045000Y-88746961D01*
X142045000Y-88734747D01*
X142042145Y-88727854D01*
X142035253Y-88725000D01*
X141214747Y-88725000D01*
X141207854Y-88727854D01*
X141205000Y-88734747D01*
X141205000Y-88746961D01*
X141205468Y-88751718D01*
X141213109Y-88790135D01*
X141216732Y-88798880D01*
X141245849Y-88842458D01*
X141252541Y-88849150D01*
X141285218Y-88870984D01*
X141304394Y-88895975D01*
X141304395Y-88927476D01*
X141285219Y-88952467D01*
X141266601Y-88964907D01*
X141266597Y-88964910D01*
X141262589Y-88967589D01*
X141259910Y-88971597D01*
X141259908Y-88971600D01*
X141235114Y-89008708D01*
X141232420Y-89012740D01*
X141231479Y-89017468D01*
X141231478Y-89017472D01*
X141224968Y-89050202D01*
X141224500Y-89052557D01*
X141224500Y-89054958D01*
X141224500Y-89054959D01*
X141224500Y-89245037D01*
X141224500Y-89245047D01*
X141224501Y-89247442D01*
X141224968Y-89249792D01*
X141224969Y-89249798D01*
X141225560Y-89252767D01*
X141232420Y-89287260D01*
X141235099Y-89291270D01*
X141235100Y-89291271D01*
X141259283Y-89327464D01*
X141262589Y-89332411D01*
X141266600Y-89335091D01*
X141302768Y-89359258D01*
X141321945Y-89384250D01*
X141321945Y-89415750D01*
X141302768Y-89440742D01*
X141268960Y-89463332D01*
X141241737Y-89471590D01*
X141188298Y-89471590D01*
X141183325Y-89473984D01*
X141183324Y-89473985D01*
X141110811Y-89508906D01*
X141110809Y-89508907D01*
X141105837Y-89511302D01*
X141102396Y-89515616D01*
X141102393Y-89515619D01*
X141052215Y-89578540D01*
X141048771Y-89582859D01*
X141047542Y-89588240D01*
X141047542Y-89588242D01*
X141040351Y-89619748D01*
X141028405Y-89672090D01*
X141029633Y-89677470D01*
X141041218Y-89728231D01*
X141048771Y-89761321D01*
X141052215Y-89765639D01*
X141093425Y-89817315D01*
X141105837Y-89832878D01*
X141188298Y-89872590D01*
X141193818Y-89872590D01*
X141243234Y-89872590D01*
X141272423Y-89882233D01*
X141290124Y-89907367D01*
X141289369Y-89938098D01*
X141270456Y-89962331D01*
X141268303Y-89963771D01*
X141266600Y-89964909D01*
X141262589Y-89967589D01*
X141259910Y-89971597D01*
X141259908Y-89971600D01*
X141235100Y-90008728D01*
X141235100Y-90008729D01*
X141232420Y-90012740D01*
X141231478Y-90017472D01*
X141230742Y-90019251D01*
X141212695Y-90041242D01*
X141185472Y-90049500D01*
X140907075Y-90049500D01*
X140879851Y-90041242D01*
X140863869Y-90021767D01*
X140863867Y-90021769D01*
X140819552Y-89955448D01*
X140809740Y-89948892D01*
X140757245Y-89913815D01*
X140757244Y-89913814D01*
X140753231Y-89911133D01*
X140748497Y-89910191D01*
X140748494Y-89910190D01*
X140697114Y-89899970D01*
X140697107Y-89899969D01*
X140694748Y-89899500D01*
X140692338Y-89899500D01*
X140477635Y-89899500D01*
X140442987Y-89885148D01*
X140441987Y-89884148D01*
X140427635Y-89849500D01*
X140441987Y-89814852D01*
X140476635Y-89800500D01*
X140692338Y-89800500D01*
X140694748Y-89800500D01*
X140753231Y-89788867D01*
X140819552Y-89744552D01*
X140863867Y-89678231D01*
X140875500Y-89619748D01*
X140875500Y-89380252D01*
X140863867Y-89321769D01*
X140819552Y-89255448D01*
X140811096Y-89249798D01*
X140767305Y-89220537D01*
X140759379Y-89215241D01*
X140740467Y-89191007D01*
X140739713Y-89160276D01*
X140757414Y-89135143D01*
X140786603Y-89125500D01*
X140839234Y-89125500D01*
X140841644Y-89125500D01*
X140876864Y-89118494D01*
X140916806Y-89091806D01*
X140943494Y-89051864D01*
X140950500Y-89016644D01*
X140950500Y-88565253D01*
X141205000Y-88565253D01*
X141207854Y-88572145D01*
X141214747Y-88575000D01*
X141540253Y-88575000D01*
X141547145Y-88572145D01*
X141550000Y-88565253D01*
X141550000Y-88419747D01*
X141549588Y-88418752D01*
X141545857Y-88399997D01*
X141549589Y-88381243D01*
X141550000Y-88380251D01*
X141550000Y-88234747D01*
X141547145Y-88227854D01*
X141540253Y-88225000D01*
X141214747Y-88225000D01*
X141207854Y-88227854D01*
X141205000Y-88234747D01*
X141205000Y-88246961D01*
X141205468Y-88251718D01*
X141213109Y-88290135D01*
X141216732Y-88298880D01*
X141245849Y-88342458D01*
X141252539Y-88349148D01*
X141267669Y-88359258D01*
X141286845Y-88384250D01*
X141286845Y-88415750D01*
X141267669Y-88440742D01*
X141252539Y-88450851D01*
X141245849Y-88457541D01*
X141216732Y-88501119D01*
X141213109Y-88509864D01*
X141205468Y-88548281D01*
X141205000Y-88553039D01*
X141205000Y-88565253D01*
X140950500Y-88565253D01*
X140950500Y-88358356D01*
X140943494Y-88323136D01*
X140916806Y-88283194D01*
X140908664Y-88277754D01*
X140880875Y-88259186D01*
X140880874Y-88259185D01*
X140876864Y-88256506D01*
X140872133Y-88255564D01*
X140872131Y-88255564D01*
X140841644Y-88249500D01*
X140841815Y-88248639D01*
X140817643Y-88238152D01*
X140802238Y-88212440D01*
X140804689Y-88182566D01*
X140809895Y-88169998D01*
X140807040Y-88163106D01*
X140469392Y-87825458D01*
X140462500Y-87822603D01*
X140455607Y-87825458D01*
X140116205Y-88164859D01*
X140113591Y-88169749D01*
X140113908Y-88170135D01*
X140125005Y-88202817D01*
X140111803Y-88234708D01*
X140083219Y-88248814D01*
X140083356Y-88249500D01*
X140052868Y-88255564D01*
X140052864Y-88255565D01*
X140048136Y-88256506D01*
X140044126Y-88259184D01*
X140044124Y-88259186D01*
X140012205Y-88280513D01*
X140012202Y-88280515D01*
X140008194Y-88283194D01*
X140005515Y-88287202D01*
X140005513Y-88287205D01*
X139984186Y-88319124D01*
X139984184Y-88319126D01*
X139981506Y-88323136D01*
X139980565Y-88327864D01*
X139980564Y-88327868D01*
X139974970Y-88355990D01*
X139974969Y-88355996D01*
X139974500Y-88358356D01*
X139974500Y-89016644D01*
X139974969Y-89019004D01*
X139974970Y-89019009D01*
X139980564Y-89047131D01*
X139980564Y-89047133D01*
X139981506Y-89051864D01*
X140008194Y-89091806D01*
X140012205Y-89094486D01*
X140035061Y-89109758D01*
X140053974Y-89133992D01*
X140054728Y-89164724D01*
X140037027Y-89189857D01*
X140007838Y-89199500D01*
X139755252Y-89199500D01*
X139752893Y-89199969D01*
X139752885Y-89199970D01*
X139701505Y-89210190D01*
X139701500Y-89210191D01*
X139696769Y-89211133D01*
X139692757Y-89213813D01*
X139692754Y-89213815D01*
X139634459Y-89252767D01*
X139634456Y-89252769D01*
X139630448Y-89255448D01*
X139627769Y-89259456D01*
X139627767Y-89259459D01*
X139588815Y-89317754D01*
X139588813Y-89317757D01*
X139586133Y-89321769D01*
X139585191Y-89326500D01*
X139585190Y-89326505D01*
X139574970Y-89377885D01*
X139574969Y-89377893D01*
X139574500Y-89380252D01*
X139574500Y-89619748D01*
X139574969Y-89622107D01*
X139574970Y-89622114D01*
X139585190Y-89673494D01*
X139585191Y-89673497D01*
X139586133Y-89678231D01*
X139588814Y-89682244D01*
X139588815Y-89682245D01*
X139622224Y-89732245D01*
X139630448Y-89744552D01*
X139696769Y-89788867D01*
X139712525Y-89792001D01*
X139740841Y-89808971D01*
X139751965Y-89840056D01*
X139740844Y-89871142D01*
X139712526Y-89888116D01*
X139693896Y-89891822D01*
X139685147Y-89895446D01*
X139620400Y-89938708D01*
X139613708Y-89945400D01*
X139570445Y-90010148D01*
X139566823Y-90018892D01*
X139555470Y-90075967D01*
X139555000Y-90080743D01*
X139555000Y-90115253D01*
X139557854Y-90122145D01*
X139564747Y-90125000D01*
X139931000Y-90125000D01*
X139965648Y-90139352D01*
X139980000Y-90174000D01*
X139980000Y-90510252D01*
X139982855Y-90517144D01*
X139990205Y-90520189D01*
X140016723Y-90546708D01*
X140016723Y-90584211D01*
X139990552Y-90610380D01*
X139986769Y-90611133D01*
X139982760Y-90613811D01*
X139982757Y-90613813D01*
X139924459Y-90652767D01*
X139924456Y-90652769D01*
X139920448Y-90655448D01*
X139917769Y-90659456D01*
X139917767Y-90659459D01*
X139878815Y-90717754D01*
X139878813Y-90717757D01*
X139876133Y-90721769D01*
X139875191Y-90726500D01*
X139875190Y-90726505D01*
X139864970Y-90777885D01*
X139864969Y-90777893D01*
X139864500Y-90780252D01*
X139864500Y-91079748D01*
X139864969Y-91082107D01*
X139864970Y-91082114D01*
X139875190Y-91133494D01*
X139875191Y-91133497D01*
X139876133Y-91138231D01*
X139878814Y-91142244D01*
X139878815Y-91142245D01*
X139907099Y-91184575D01*
X139920448Y-91204552D01*
X139927490Y-91209257D01*
X139946665Y-91234245D01*
X139946668Y-91265744D01*
X139927497Y-91290737D01*
X139924460Y-91292766D01*
X139924456Y-91292769D01*
X139920448Y-91295448D01*
X139917769Y-91299456D01*
X139917767Y-91299459D01*
X139878814Y-91357756D01*
X139876133Y-91361769D01*
X139875192Y-91366497D01*
X139875191Y-91366501D01*
X139872495Y-91380059D01*
X139855521Y-91408377D01*
X139824436Y-91419500D01*
X139785564Y-91419500D01*
X139754479Y-91408377D01*
X139737505Y-91380059D01*
X139735652Y-91370743D01*
X139733867Y-91361769D01*
X139689552Y-91295448D01*
X139689163Y-91295188D01*
X139677132Y-91272678D01*
X139679923Y-91244365D01*
X139697976Y-91222375D01*
X139699602Y-91221288D01*
X139706291Y-91214599D01*
X139749554Y-91149851D01*
X139753176Y-91141107D01*
X139764529Y-91084032D01*
X139765000Y-91079257D01*
X139765000Y-91014747D01*
X139762145Y-91007854D01*
X139755253Y-91005000D01*
X139419000Y-91005000D01*
X139384352Y-90990648D01*
X139370000Y-90956000D01*
X139370000Y-90845253D01*
X139520000Y-90845253D01*
X139522854Y-90852145D01*
X139529747Y-90855000D01*
X139755252Y-90855000D01*
X139762144Y-90852145D01*
X139764999Y-90845253D01*
X139764999Y-90780737D01*
X139764530Y-90775979D01*
X139753176Y-90718892D01*
X139749553Y-90710147D01*
X139706291Y-90645400D01*
X139699599Y-90638708D01*
X139634851Y-90595445D01*
X139626107Y-90591823D01*
X139569032Y-90580470D01*
X139564257Y-90580000D01*
X139529747Y-90580000D01*
X139522854Y-90582854D01*
X139520000Y-90589747D01*
X139520000Y-90845253D01*
X139370000Y-90845253D01*
X139370000Y-90589748D01*
X139367145Y-90582855D01*
X139360253Y-90580001D01*
X139325737Y-90580001D01*
X139320977Y-90580469D01*
X139263893Y-90591822D01*
X139255148Y-90595445D01*
X139190400Y-90638708D01*
X139183708Y-90645400D01*
X139140445Y-90710148D01*
X139136823Y-90718892D01*
X139125470Y-90775967D01*
X139125000Y-90780743D01*
X139125000Y-90783216D01*
X139114310Y-90813767D01*
X139086904Y-90830987D01*
X139054740Y-90827363D01*
X139035238Y-90817971D01*
X139035234Y-90817970D01*
X139030263Y-90815576D01*
X138938737Y-90815576D01*
X138933761Y-90817972D01*
X138928381Y-90819200D01*
X138928231Y-90818547D01*
X138919972Y-90820431D01*
X138920000Y-90820572D01*
X138846505Y-90835190D01*
X138846500Y-90835191D01*
X138841769Y-90836133D01*
X138837757Y-90838813D01*
X138837754Y-90838815D01*
X138775448Y-90880448D01*
X138774858Y-90879565D01*
X138744996Y-90891930D01*
X138715142Y-90879562D01*
X138714552Y-90880447D01*
X138701818Y-90871938D01*
X138694394Y-90865845D01*
X138596749Y-90768200D01*
X138591666Y-90761035D01*
X138591626Y-90761068D01*
X138588184Y-90756751D01*
X138585788Y-90751776D01*
X138581470Y-90748332D01*
X138581469Y-90748331D01*
X138560964Y-90731979D01*
X138556867Y-90728318D01*
X138552748Y-90724199D01*
X138550801Y-90722252D01*
X138548469Y-90720786D01*
X138548466Y-90720784D01*
X138543534Y-90717684D01*
X138539056Y-90714507D01*
X138533590Y-90710148D01*
X138514231Y-90694710D01*
X138508850Y-90693481D01*
X138503876Y-90691086D01*
X138503897Y-90691041D01*
X138502826Y-90690597D01*
X138502810Y-90690644D01*
X138497596Y-90688819D01*
X138492924Y-90685884D01*
X138487440Y-90685266D01*
X138461371Y-90682329D01*
X138455953Y-90681408D01*
X138453596Y-90680870D01*
X138426190Y-90663650D01*
X138415500Y-90633099D01*
X138415500Y-90309263D01*
X138735001Y-90309263D01*
X138735469Y-90314020D01*
X138746823Y-90371107D01*
X138750446Y-90379852D01*
X138793708Y-90444599D01*
X138800400Y-90451291D01*
X138865148Y-90494554D01*
X138873892Y-90498176D01*
X138930967Y-90509529D01*
X138935743Y-90510000D01*
X138970253Y-90510000D01*
X138977145Y-90507145D01*
X138980000Y-90500253D01*
X138980000Y-90500252D01*
X139130000Y-90500252D01*
X139132854Y-90507144D01*
X139139747Y-90509999D01*
X139174263Y-90509999D01*
X139179020Y-90509530D01*
X139236105Y-90498176D01*
X139244854Y-90494552D01*
X139309599Y-90451291D01*
X139316291Y-90444599D01*
X139359554Y-90379851D01*
X139363176Y-90371107D01*
X139373488Y-90319263D01*
X139555001Y-90319263D01*
X139555469Y-90324020D01*
X139566823Y-90381107D01*
X139570446Y-90389852D01*
X139613708Y-90454599D01*
X139620400Y-90461291D01*
X139685148Y-90504554D01*
X139693892Y-90508176D01*
X139750967Y-90519529D01*
X139755743Y-90520000D01*
X139820253Y-90520000D01*
X139827145Y-90517145D01*
X139830000Y-90510253D01*
X139830000Y-90284747D01*
X139827145Y-90277854D01*
X139820253Y-90275000D01*
X139564748Y-90275000D01*
X139557855Y-90277854D01*
X139555001Y-90284747D01*
X139555001Y-90319263D01*
X139373488Y-90319263D01*
X139374529Y-90314032D01*
X139375000Y-90309257D01*
X139375000Y-90244747D01*
X139372145Y-90237854D01*
X139365253Y-90235000D01*
X139139747Y-90235000D01*
X139132854Y-90237854D01*
X139130000Y-90244747D01*
X139130000Y-90500252D01*
X138980000Y-90500252D01*
X138980000Y-90244747D01*
X138977145Y-90237854D01*
X138970253Y-90235000D01*
X138744748Y-90235000D01*
X138737855Y-90237854D01*
X138735001Y-90244747D01*
X138735001Y-90309263D01*
X138415500Y-90309263D01*
X138415500Y-90144844D01*
X138416442Y-90135284D01*
X138418488Y-90125000D01*
X138425500Y-90089748D01*
X138425500Y-89790252D01*
X138413867Y-89731769D01*
X138369552Y-89665448D01*
X138369163Y-89665188D01*
X138357132Y-89642678D01*
X138359923Y-89614365D01*
X138377976Y-89592375D01*
X138379602Y-89591288D01*
X138386291Y-89584599D01*
X138429554Y-89519851D01*
X138433176Y-89511107D01*
X138444529Y-89454032D01*
X138445000Y-89449257D01*
X138445000Y-89384747D01*
X138442145Y-89377854D01*
X138435253Y-89375000D01*
X137814748Y-89375000D01*
X137807855Y-89377854D01*
X137805001Y-89384747D01*
X137805001Y-89449263D01*
X137805469Y-89454020D01*
X137816823Y-89511107D01*
X137820446Y-89519852D01*
X137863708Y-89584599D01*
X137870398Y-89591289D01*
X137872029Y-89592379D01*
X137890076Y-89614367D01*
X137892867Y-89642675D01*
X137880838Y-89665187D01*
X137880448Y-89665448D01*
X137877771Y-89669453D01*
X137877770Y-89669455D01*
X137838815Y-89727754D01*
X137838813Y-89727757D01*
X137836133Y-89731769D01*
X137835191Y-89736500D01*
X137835190Y-89736505D01*
X137824970Y-89787885D01*
X137824969Y-89787893D01*
X137824500Y-89790252D01*
X137824500Y-90089748D01*
X137824969Y-90092107D01*
X137824970Y-90092114D01*
X137835190Y-90143494D01*
X137835191Y-90143497D01*
X137836133Y-90148231D01*
X137838814Y-90152244D01*
X137838815Y-90152245D01*
X137853351Y-90174000D01*
X137880448Y-90214552D01*
X137946769Y-90258867D01*
X137975062Y-90264494D01*
X138003377Y-90281467D01*
X138014500Y-90312552D01*
X138014500Y-90500500D01*
X138000148Y-90535148D01*
X137965500Y-90549500D01*
X137925252Y-90549500D01*
X137922893Y-90549969D01*
X137922885Y-90549970D01*
X137871505Y-90560190D01*
X137871500Y-90560191D01*
X137866769Y-90561133D01*
X137862757Y-90563813D01*
X137862754Y-90563815D01*
X137804459Y-90602767D01*
X137804456Y-90602769D01*
X137800448Y-90605448D01*
X137797769Y-90609456D01*
X137797767Y-90609459D01*
X137758815Y-90667754D01*
X137758813Y-90667757D01*
X137756133Y-90671769D01*
X137755191Y-90676500D01*
X137755190Y-90676505D01*
X137744970Y-90727885D01*
X137744969Y-90727893D01*
X137744500Y-90730252D01*
X137744500Y-91029748D01*
X137744969Y-91032107D01*
X137744970Y-91032114D01*
X137755190Y-91083494D01*
X137755191Y-91083497D01*
X137756133Y-91088231D01*
X137758814Y-91092244D01*
X137758815Y-91092245D01*
X137796338Y-91148402D01*
X137800448Y-91154552D01*
X137800836Y-91154811D01*
X137812866Y-91177317D01*
X137810078Y-91205628D01*
X137792032Y-91227619D01*
X137790398Y-91228710D01*
X137783708Y-91235400D01*
X137740445Y-91300148D01*
X137736823Y-91308892D01*
X137725470Y-91365967D01*
X137725000Y-91370743D01*
X137725000Y-91435253D01*
X137727854Y-91442145D01*
X137734747Y-91445000D01*
X138071000Y-91445000D01*
X138105648Y-91459352D01*
X138120000Y-91494000D01*
X138120000Y-91860252D01*
X138122854Y-91867144D01*
X138129747Y-91869999D01*
X138164263Y-91869999D01*
X138169020Y-91869530D01*
X138226107Y-91858176D01*
X138234852Y-91854553D01*
X138299599Y-91811291D01*
X138306291Y-91804599D01*
X138349554Y-91739851D01*
X138353174Y-91731111D01*
X138359130Y-91701169D01*
X138375927Y-91672996D01*
X138406731Y-91661730D01*
X138437740Y-91672419D01*
X138438333Y-91672892D01*
X138441776Y-91677209D01*
X138446749Y-91679603D01*
X138451068Y-91683048D01*
X138451036Y-91683087D01*
X138458200Y-91688170D01*
X138561829Y-91791800D01*
X138566914Y-91798966D01*
X138566954Y-91798935D01*
X138570395Y-91803250D01*
X138572791Y-91808224D01*
X138591833Y-91823410D01*
X138597613Y-91828019D01*
X138601710Y-91831680D01*
X138607778Y-91837749D01*
X138610101Y-91839209D01*
X138610104Y-91839211D01*
X138615043Y-91842314D01*
X138619520Y-91845491D01*
X138644348Y-91865290D01*
X138649729Y-91866518D01*
X138654705Y-91868914D01*
X138654682Y-91868960D01*
X138655752Y-91869403D01*
X138655769Y-91869355D01*
X138660980Y-91871178D01*
X138665655Y-91874116D01*
X138671139Y-91874733D01*
X138671140Y-91874734D01*
X138676852Y-91875377D01*
X138697215Y-91877671D01*
X138702622Y-91878590D01*
X138710989Y-91880500D01*
X138719566Y-91880500D01*
X138725050Y-91880808D01*
X138730094Y-91881376D01*
X138746440Y-91883217D01*
X138778094Y-91899945D01*
X138789921Y-91933740D01*
X138775604Y-91966556D01*
X138757014Y-91985147D01*
X138741117Y-91995770D01*
X138722365Y-91999500D01*
X138505252Y-91999500D01*
X138502893Y-91999969D01*
X138502885Y-91999970D01*
X138451505Y-92010190D01*
X138451500Y-92010191D01*
X138446769Y-92011133D01*
X138442757Y-92013813D01*
X138442754Y-92013815D01*
X138384459Y-92052767D01*
X138384456Y-92052769D01*
X138380448Y-92055448D01*
X138377769Y-92059456D01*
X138377766Y-92059460D01*
X138375740Y-92062493D01*
X138350749Y-92081667D01*
X138319251Y-92081667D01*
X138294260Y-92062493D01*
X138292233Y-92059460D01*
X138292232Y-92059459D01*
X138289552Y-92055448D01*
X138285083Y-92052462D01*
X138227245Y-92013815D01*
X138227244Y-92013814D01*
X138223231Y-92011133D01*
X138218497Y-92010191D01*
X138218494Y-92010190D01*
X138167114Y-91999970D01*
X138167107Y-91999969D01*
X138164748Y-91999500D01*
X137865252Y-91999500D01*
X137862893Y-91999969D01*
X137862885Y-91999970D01*
X137811505Y-92010190D01*
X137811500Y-92010191D01*
X137806769Y-92011133D01*
X137802757Y-92013813D01*
X137802754Y-92013815D01*
X137744459Y-92052767D01*
X137744456Y-92052769D01*
X137740448Y-92055448D01*
X137737769Y-92059456D01*
X137737767Y-92059459D01*
X137698815Y-92117754D01*
X137698813Y-92117757D01*
X137696133Y-92121769D01*
X137695191Y-92126500D01*
X137695190Y-92126505D01*
X137684970Y-92177885D01*
X137684969Y-92177893D01*
X137684500Y-92180252D01*
X137684500Y-92419748D01*
X137684969Y-92422107D01*
X137684970Y-92422114D01*
X137695190Y-92473494D01*
X137695191Y-92473497D01*
X137696133Y-92478231D01*
X137698814Y-92482244D01*
X137698815Y-92482245D01*
X137734012Y-92534921D01*
X137740448Y-92544552D01*
X137806769Y-92588867D01*
X137865252Y-92600500D01*
X137925581Y-92600500D01*
X137946841Y-92605352D01*
X137963888Y-92618947D01*
X138019371Y-92688518D01*
X138101832Y-92728230D01*
X138187838Y-92728230D01*
X138193358Y-92728230D01*
X138214239Y-92718173D01*
X138246403Y-92714549D01*
X138273810Y-92731770D01*
X138284500Y-92762321D01*
X138284500Y-94134673D01*
X138284500Y-94215327D01*
X138287724Y-94220911D01*
X138287725Y-94220914D01*
X138291531Y-94227506D01*
X138296426Y-94239323D01*
X138298395Y-94246674D01*
X138298396Y-94246676D01*
X138300065Y-94252904D01*
X138304624Y-94257463D01*
X138357094Y-94309934D01*
X138357100Y-94309939D01*
X138595065Y-94547903D01*
X138595065Y-94547904D01*
X138652096Y-94604935D01*
X138665677Y-94608573D01*
X138677497Y-94613469D01*
X138689673Y-94620500D01*
X138770326Y-94620501D01*
X138770328Y-94620500D01*
X138822365Y-94620500D01*
X138857013Y-94634852D01*
X138918013Y-94695852D01*
X138932365Y-94730500D01*
X138918013Y-94765148D01*
X138883365Y-94779500D01*
X138829237Y-94779500D01*
X138824264Y-94781894D01*
X138824263Y-94781895D01*
X138751750Y-94816816D01*
X138751748Y-94816817D01*
X138746776Y-94819212D01*
X138743335Y-94823526D01*
X138743332Y-94823529D01*
X138693152Y-94886452D01*
X138693150Y-94886454D01*
X138689710Y-94890769D01*
X138688481Y-94896151D01*
X138686086Y-94901126D01*
X138684071Y-94900155D01*
X138672337Y-94918816D01*
X138641794Y-94929500D01*
X138629673Y-94929500D01*
X138624088Y-94932723D01*
X138624085Y-94932725D01*
X138617492Y-94936532D01*
X138605679Y-94941425D01*
X138592096Y-94945065D01*
X138587538Y-94949622D01*
X138587536Y-94949624D01*
X138535064Y-95002096D01*
X138447096Y-95090065D01*
X138447094Y-95090065D01*
X138447095Y-95090066D01*
X138427009Y-95110150D01*
X138392366Y-95124500D01*
X138381028Y-95124500D01*
X138381018Y-95124500D01*
X138378624Y-95124501D01*
X138376274Y-95124968D01*
X138376267Y-95124969D01*
X138349665Y-95130260D01*
X138349664Y-95130260D01*
X138344934Y-95131201D01*
X138340924Y-95133879D01*
X138340922Y-95133881D01*
X138310740Y-95154048D01*
X138310737Y-95154050D01*
X138306729Y-95156729D01*
X138304050Y-95160737D01*
X138304048Y-95160740D01*
X138283882Y-95190921D01*
X138281201Y-95194934D01*
X138280260Y-95199662D01*
X138280259Y-95199666D01*
X138274968Y-95226268D01*
X138274500Y-95228623D01*
X138274500Y-95231024D01*
X138274500Y-95231025D01*
X138274500Y-96018974D01*
X138274500Y-96018984D01*
X138274501Y-96021376D01*
X138274968Y-96023725D01*
X138275163Y-96025701D01*
X138270345Y-96052174D01*
X138252273Y-96072112D01*
X138226399Y-96079500D01*
X138159000Y-96079500D01*
X138124352Y-96065148D01*
X138110000Y-96030500D01*
X138110000Y-95664747D01*
X138107145Y-95657854D01*
X138100253Y-95655000D01*
X137764000Y-95655000D01*
X137729352Y-95640648D01*
X137715000Y-95606000D01*
X137715000Y-95495253D01*
X137865000Y-95495253D01*
X137867854Y-95502145D01*
X137874747Y-95505000D01*
X138100252Y-95505000D01*
X138107144Y-95502145D01*
X138109999Y-95495253D01*
X138109999Y-95113616D01*
X138109530Y-95108855D01*
X138102818Y-95075108D01*
X138099195Y-95066362D01*
X138073614Y-95028075D01*
X138066924Y-95021385D01*
X138028637Y-94995804D01*
X138019890Y-94992181D01*
X137986154Y-94985470D01*
X137981379Y-94985000D01*
X137874747Y-94985000D01*
X137867854Y-94987854D01*
X137865000Y-94994747D01*
X137865000Y-95495253D01*
X137715000Y-95495253D01*
X137715000Y-94994748D01*
X137712145Y-94987855D01*
X137705253Y-94985001D01*
X137598616Y-94985001D01*
X137593855Y-94985469D01*
X137560108Y-94992181D01*
X137551362Y-94995804D01*
X137521722Y-95015608D01*
X137488103Y-95023446D01*
X137457660Y-95007173D01*
X137445500Y-94974865D01*
X137445500Y-91669263D01*
X137725001Y-91669263D01*
X137725469Y-91674020D01*
X137736823Y-91731107D01*
X137740446Y-91739852D01*
X137783708Y-91804599D01*
X137790400Y-91811291D01*
X137855148Y-91854554D01*
X137863892Y-91858176D01*
X137920967Y-91869529D01*
X137925743Y-91870000D01*
X137960253Y-91870000D01*
X137967145Y-91867145D01*
X137970000Y-91860253D01*
X137970000Y-91604747D01*
X137967145Y-91597854D01*
X137960253Y-91595000D01*
X137734748Y-91595000D01*
X137727855Y-91597854D01*
X137725001Y-91604747D01*
X137725001Y-91669263D01*
X137445500Y-91669263D01*
X137445500Y-89215253D01*
X137805000Y-89215253D01*
X137807854Y-89222145D01*
X137814747Y-89225000D01*
X138040253Y-89225000D01*
X138047145Y-89222145D01*
X138050000Y-89215253D01*
X138200000Y-89215253D01*
X138202854Y-89222145D01*
X138209747Y-89225000D01*
X138435252Y-89225000D01*
X138442144Y-89222145D01*
X138444999Y-89215253D01*
X138444999Y-89150737D01*
X138444530Y-89145979D01*
X138433176Y-89088892D01*
X138429553Y-89080147D01*
X138386291Y-89015400D01*
X138379599Y-89008708D01*
X138314851Y-88965445D01*
X138306107Y-88961823D01*
X138249032Y-88950470D01*
X138244257Y-88950000D01*
X138209747Y-88950000D01*
X138202854Y-88952854D01*
X138200000Y-88959747D01*
X138200000Y-89215253D01*
X138050000Y-89215253D01*
X138050000Y-88959748D01*
X138047145Y-88952855D01*
X138040253Y-88950001D01*
X138005737Y-88950001D01*
X138000979Y-88950469D01*
X137943892Y-88961823D01*
X137935147Y-88965446D01*
X137870400Y-89008708D01*
X137863708Y-89015400D01*
X137820445Y-89080148D01*
X137816823Y-89088892D01*
X137805470Y-89145967D01*
X137805000Y-89150743D01*
X137805000Y-89215253D01*
X137445500Y-89215253D01*
X137445500Y-87765253D01*
X137825000Y-87765253D01*
X137827854Y-87772145D01*
X137834747Y-87775000D01*
X138060253Y-87775000D01*
X138067145Y-87772145D01*
X138070000Y-87765253D01*
X138070000Y-87509748D01*
X138067145Y-87502855D01*
X138060253Y-87500001D01*
X138025737Y-87500001D01*
X138020979Y-87500469D01*
X137963892Y-87511823D01*
X137955147Y-87515446D01*
X137890400Y-87558708D01*
X137883708Y-87565400D01*
X137840445Y-87630148D01*
X137836823Y-87638892D01*
X137825470Y-87695967D01*
X137825000Y-87700743D01*
X137825000Y-87765253D01*
X137445500Y-87765253D01*
X137445500Y-86204110D01*
X137445500Y-86201969D01*
X137445166Y-86200079D01*
X137445000Y-86196251D01*
X137445000Y-84972230D01*
X137459352Y-84937582D01*
X137494000Y-84923230D01*
X137528648Y-84937582D01*
G37*
%TD.AperFunction*%
%TA.AperFunction,Conductor*%
G36*
X144243751Y-95541303D02*
G01*
X144264747Y-95550000D01*
X144551000Y-95550000D01*
X144585648Y-95564352D01*
X144600000Y-95599000D01*
X144600000Y-95651000D01*
X144585648Y-95685648D01*
X144551000Y-95700000D01*
X144264748Y-95700000D01*
X144243750Y-95708697D01*
X144206249Y-95708696D01*
X144185254Y-95700000D01*
X143899000Y-95700000D01*
X143864352Y-95685648D01*
X143850000Y-95651000D01*
X143850000Y-95599000D01*
X143864352Y-95564352D01*
X143899000Y-95550000D01*
X144185252Y-95550000D01*
X144206247Y-95541303D01*
X144224999Y-95537573D01*
X144243751Y-95541303D01*
G37*
%TD.AperFunction*%
%TA.AperFunction,Conductor*%
G36*
X142443751Y-95541303D02*
G01*
X142464747Y-95550000D01*
X142751000Y-95550000D01*
X142785648Y-95564352D01*
X142800000Y-95599000D01*
X142800000Y-95651000D01*
X142785648Y-95685648D01*
X142751000Y-95700000D01*
X142464748Y-95700000D01*
X142443750Y-95708697D01*
X142406249Y-95708696D01*
X142385254Y-95700000D01*
X142099000Y-95700000D01*
X142064352Y-95685648D01*
X142050000Y-95651000D01*
X142050000Y-95599000D01*
X142064352Y-95564352D01*
X142099000Y-95550000D01*
X142385252Y-95550000D01*
X142406247Y-95541303D01*
X142424999Y-95537573D01*
X142443751Y-95541303D01*
G37*
%TD.AperFunction*%
%TA.AperFunction,Conductor*%
G36*
X140643751Y-95541303D02*
G01*
X140664747Y-95550000D01*
X140951000Y-95550000D01*
X140985648Y-95564352D01*
X141000000Y-95599000D01*
X141000000Y-95651000D01*
X140985648Y-95685648D01*
X140951000Y-95700000D01*
X140664748Y-95700000D01*
X140643750Y-95708697D01*
X140606249Y-95708696D01*
X140585254Y-95700000D01*
X140299000Y-95700000D01*
X140264352Y-95685648D01*
X140250000Y-95651000D01*
X140250000Y-95599000D01*
X140264352Y-95564352D01*
X140299000Y-95550000D01*
X140585252Y-95550000D01*
X140606247Y-95541303D01*
X140624999Y-95537573D01*
X140643751Y-95541303D01*
G37*
%TD.AperFunction*%
%TA.AperFunction,Conductor*%
G36*
X146931060Y-87198899D02*
G01*
X146940148Y-87207987D01*
X146954500Y-87242635D01*
X146954500Y-92492365D01*
X146950770Y-92511117D01*
X146940148Y-92527012D01*
X146880976Y-92586184D01*
X146833542Y-92633618D01*
X146833539Y-92633621D01*
X146833540Y-92633621D01*
X146776511Y-92690650D01*
X146774842Y-92696877D01*
X146774841Y-92696880D01*
X146772871Y-92704234D01*
X146767978Y-92716046D01*
X146764171Y-92722639D01*
X146764169Y-92722642D01*
X146760946Y-92728227D01*
X146760945Y-92734673D01*
X146760945Y-92734677D01*
X146760945Y-92802030D01*
X146760945Y-92808880D01*
X146760946Y-92808881D01*
X146760946Y-92808882D01*
X146760946Y-93346249D01*
X146751909Y-93374604D01*
X146728130Y-93392499D01*
X146698381Y-93393334D01*
X146673638Y-93376801D01*
X146623724Y-93314212D01*
X146541263Y-93274500D01*
X146449737Y-93274500D01*
X146444764Y-93276894D01*
X146444763Y-93276895D01*
X146372250Y-93311816D01*
X146372248Y-93311817D01*
X146367276Y-93314212D01*
X146363834Y-93318526D01*
X146363831Y-93318530D01*
X146362804Y-93319819D01*
X146338059Y-93336348D01*
X146308312Y-93335511D01*
X146284535Y-93317615D01*
X146275499Y-93289264D01*
X146275499Y-92758624D01*
X146268799Y-92724934D01*
X146243271Y-92686729D01*
X146205066Y-92661201D01*
X146200335Y-92660260D01*
X146200333Y-92660259D01*
X146173731Y-92654968D01*
X146173728Y-92654967D01*
X146171377Y-92654500D01*
X146168974Y-92654500D01*
X145881027Y-92654500D01*
X145881016Y-92654500D01*
X145878624Y-92654501D01*
X145876274Y-92654968D01*
X145876267Y-92654969D01*
X145849665Y-92660260D01*
X145849664Y-92660260D01*
X145844934Y-92661201D01*
X145840924Y-92663879D01*
X145840922Y-92663881D01*
X145810740Y-92684048D01*
X145810737Y-92684050D01*
X145806729Y-92686729D01*
X145804050Y-92690737D01*
X145804048Y-92690740D01*
X145783882Y-92720921D01*
X145781201Y-92724934D01*
X145780260Y-92729662D01*
X145780259Y-92729666D01*
X145774968Y-92756268D01*
X145774500Y-92758623D01*
X145774500Y-92761024D01*
X145774500Y-92761025D01*
X145774500Y-93548972D01*
X145774500Y-93548982D01*
X145774501Y-93551376D01*
X145774968Y-93553726D01*
X145774969Y-93553732D01*
X145778624Y-93572109D01*
X145781201Y-93585066D01*
X145783880Y-93589075D01*
X145783881Y-93589077D01*
X145787470Y-93594449D01*
X145806729Y-93623271D01*
X145844934Y-93648799D01*
X145846127Y-93649036D01*
X145866242Y-93665543D01*
X145874500Y-93692767D01*
X145874500Y-93917317D01*
X145873271Y-93928220D01*
X145862920Y-93973576D01*
X145864148Y-93978956D01*
X145881349Y-94054323D01*
X145883286Y-94062807D01*
X145940352Y-94134364D01*
X145950654Y-94139325D01*
X145972713Y-94160574D01*
X145977845Y-94190773D01*
X145964041Y-94218118D01*
X145917014Y-94265147D01*
X145901117Y-94275770D01*
X145882365Y-94279500D01*
X145186634Y-94279500D01*
X145159411Y-94271242D01*
X145141364Y-94249251D01*
X145138576Y-94220941D01*
X145151986Y-94195852D01*
X145293515Y-94054323D01*
X145505430Y-93842409D01*
X145505429Y-93842409D01*
X145519935Y-93827904D01*
X145523573Y-93814321D01*
X145528467Y-93802505D01*
X145535500Y-93790327D01*
X145535501Y-93709674D01*
X145535500Y-93709672D01*
X145535500Y-93702849D01*
X145546623Y-93671763D01*
X145574942Y-93654790D01*
X145578581Y-93654066D01*
X145605066Y-93648799D01*
X145643271Y-93623271D01*
X145668799Y-93585066D01*
X145675500Y-93551377D01*
X145675499Y-92758624D01*
X145668799Y-92724934D01*
X145643271Y-92686729D01*
X145605066Y-92661201D01*
X145600332Y-92660259D01*
X145600329Y-92660258D01*
X145587727Y-92657751D01*
X145558761Y-92639970D01*
X145548332Y-92607622D01*
X145561457Y-92576270D01*
X145591819Y-92560999D01*
X145593539Y-92560806D01*
X145599007Y-92560500D01*
X145604836Y-92560500D01*
X145607590Y-92560500D01*
X145615960Y-92558589D01*
X145621367Y-92557670D01*
X145652924Y-92554116D01*
X145657598Y-92551178D01*
X145662812Y-92549354D01*
X145662829Y-92549402D01*
X145663894Y-92548961D01*
X145663872Y-92548914D01*
X145668844Y-92546519D01*
X145674231Y-92545290D01*
X145699064Y-92525485D01*
X145703537Y-92522312D01*
X145710801Y-92517748D01*
X145716877Y-92511671D01*
X145720946Y-92508033D01*
X145745788Y-92488224D01*
X145748183Y-92483249D01*
X145751626Y-92478932D01*
X145751665Y-92478963D01*
X145756747Y-92471800D01*
X145886799Y-92341748D01*
X145893962Y-92336666D01*
X145893931Y-92336627D01*
X145898248Y-92333184D01*
X145903223Y-92330789D01*
X145923032Y-92305947D01*
X145926670Y-92301878D01*
X145932747Y-92295802D01*
X145937311Y-92288538D01*
X145940484Y-92284065D01*
X145960289Y-92259232D01*
X145961518Y-92253845D01*
X145963913Y-92248873D01*
X145963960Y-92248895D01*
X145964401Y-92247830D01*
X145964353Y-92247813D01*
X145966177Y-92242599D01*
X145969115Y-92237925D01*
X145972669Y-92206368D01*
X145973588Y-92200961D01*
X145975499Y-92192591D01*
X145975499Y-92184008D01*
X145975807Y-92178523D01*
X145978743Y-92152460D01*
X145979361Y-92146975D01*
X145979714Y-92147014D01*
X145984722Y-92126423D01*
X145983052Y-92125731D01*
X145984898Y-92121273D01*
X145987580Y-92117260D01*
X145995500Y-92077443D01*
X145995499Y-91780592D01*
X146006188Y-91750044D01*
X146060790Y-91681578D01*
X146081156Y-91592347D01*
X146060790Y-91503116D01*
X146003724Y-91431559D01*
X145998749Y-91429163D01*
X145924999Y-91393646D01*
X145902112Y-91370759D01*
X145898489Y-91338595D01*
X145915709Y-91311189D01*
X145946260Y-91300499D01*
X146015075Y-91300499D01*
X146038173Y-91306285D01*
X146055816Y-91322275D01*
X146062589Y-91332411D01*
X146107740Y-91362580D01*
X146147557Y-91370500D01*
X146702442Y-91370499D01*
X146742260Y-91362580D01*
X146787411Y-91332411D01*
X146817580Y-91287260D01*
X146825500Y-91247443D01*
X146825499Y-91052558D01*
X146817580Y-91012740D01*
X146787411Y-90967589D01*
X146747230Y-90940741D01*
X146728054Y-90915751D01*
X146728054Y-90884249D01*
X146747230Y-90859258D01*
X146787411Y-90832411D01*
X146817580Y-90787260D01*
X146825500Y-90747443D01*
X146825499Y-90552558D01*
X146817580Y-90512740D01*
X146787411Y-90467589D01*
X146777985Y-90461291D01*
X146747232Y-90440742D01*
X146728055Y-90415750D01*
X146728056Y-90384249D01*
X146747233Y-90359258D01*
X146747974Y-90358763D01*
X146787411Y-90332412D01*
X146817580Y-90287261D01*
X146825500Y-90247444D01*
X146825499Y-90052559D01*
X146817580Y-90012741D01*
X146787411Y-89967590D01*
X146781695Y-89963771D01*
X146747230Y-89940742D01*
X146728053Y-89915750D01*
X146728054Y-89884249D01*
X146747228Y-89859260D01*
X146787411Y-89832411D01*
X146817580Y-89787260D01*
X146825500Y-89747443D01*
X146825499Y-89552558D01*
X146817580Y-89512740D01*
X146787411Y-89467589D01*
X146747230Y-89440741D01*
X146728054Y-89415751D01*
X146728054Y-89384249D01*
X146747230Y-89359258D01*
X146787411Y-89332411D01*
X146817580Y-89287260D01*
X146825500Y-89247443D01*
X146825499Y-89052558D01*
X146817580Y-89012740D01*
X146787411Y-88967589D01*
X146783397Y-88964907D01*
X146765360Y-88952855D01*
X146747230Y-88940741D01*
X146728054Y-88915751D01*
X146728054Y-88884249D01*
X146747230Y-88859258D01*
X146787411Y-88832411D01*
X146817580Y-88787260D01*
X146825500Y-88747443D01*
X146825499Y-88552558D01*
X146817580Y-88512740D01*
X146787411Y-88467589D01*
X146783399Y-88464908D01*
X146747231Y-88440741D01*
X146728054Y-88415749D01*
X146728055Y-88384248D01*
X146747229Y-88359259D01*
X146787411Y-88332411D01*
X146817580Y-88287260D01*
X146825500Y-88247443D01*
X146825499Y-88052558D01*
X146817580Y-88012740D01*
X146787411Y-87967589D01*
X146747230Y-87940741D01*
X146728054Y-87915751D01*
X146728054Y-87884249D01*
X146747230Y-87859258D01*
X146787411Y-87832411D01*
X146817580Y-87787260D01*
X146825500Y-87747443D01*
X146825499Y-87552558D01*
X146817580Y-87512740D01*
X146787411Y-87467589D01*
X146780637Y-87463063D01*
X146761086Y-87449999D01*
X146742260Y-87437420D01*
X146742538Y-87437003D01*
X146719115Y-87414011D01*
X146718089Y-87377371D01*
X146742766Y-87350271D01*
X146783224Y-87330788D01*
X146840290Y-87259231D01*
X146848640Y-87222642D01*
X146867314Y-87194122D01*
X146900073Y-87184684D01*
X146931060Y-87198899D01*
G37*
%TD.AperFunction*%
%TA.AperFunction,Conductor*%
G36*
X144565727Y-87322211D02*
G01*
X144566226Y-87322957D01*
X144574498Y-87350200D01*
X144574498Y-87538109D01*
X144573026Y-87546768D01*
X144573078Y-87546774D01*
X144572459Y-87552259D01*
X144570636Y-87557471D01*
X144572350Y-87572689D01*
X144574190Y-87589019D01*
X144574498Y-87594504D01*
X144574498Y-87603087D01*
X144575108Y-87605761D01*
X144575109Y-87605767D01*
X144576407Y-87611452D01*
X144577327Y-87616868D01*
X144580882Y-87648421D01*
X144583817Y-87653093D01*
X144585642Y-87658307D01*
X144585595Y-87658323D01*
X144586028Y-87659367D01*
X144586072Y-87659347D01*
X144586249Y-87659714D01*
X144586277Y-87659969D01*
X144588955Y-87666432D01*
X144589706Y-87669719D01*
X144587439Y-87670236D01*
X144589890Y-87691885D01*
X144572672Y-87719304D01*
X144542114Y-87730000D01*
X144109747Y-87730000D01*
X144102854Y-87732854D01*
X144100000Y-87739747D01*
X144100000Y-89315253D01*
X144102854Y-89322145D01*
X144109747Y-89325000D01*
X145685253Y-89325000D01*
X145692145Y-89322145D01*
X145695000Y-89315253D01*
X145695000Y-89229000D01*
X145709352Y-89194352D01*
X145744000Y-89180000D01*
X145814744Y-89180000D01*
X145820264Y-89180000D01*
X145902725Y-89140288D01*
X145937193Y-89097066D01*
X145961935Y-89080535D01*
X145991683Y-89081370D01*
X146015462Y-89099265D01*
X146024500Y-89127620D01*
X146024500Y-89245037D01*
X146024500Y-89245047D01*
X146024501Y-89247442D01*
X146024968Y-89249792D01*
X146024969Y-89249798D01*
X146025560Y-89252767D01*
X146032420Y-89287260D01*
X146035099Y-89291270D01*
X146035100Y-89291271D01*
X146059283Y-89327464D01*
X146062589Y-89332411D01*
X146066600Y-89335091D01*
X146102768Y-89359258D01*
X146121945Y-89384250D01*
X146121945Y-89415750D01*
X146102768Y-89440742D01*
X146066600Y-89464908D01*
X146066597Y-89464910D01*
X146062589Y-89467589D01*
X146059910Y-89471597D01*
X146059908Y-89471600D01*
X146034573Y-89509517D01*
X146010876Y-89528234D01*
X145980707Y-89529504D01*
X145955523Y-89512846D01*
X145948454Y-89503982D01*
X145865993Y-89464270D01*
X145774467Y-89464270D01*
X145769496Y-89466663D01*
X145769495Y-89466664D01*
X145740990Y-89480392D01*
X145721104Y-89485225D01*
X145700978Y-89481514D01*
X145685253Y-89475000D01*
X144109747Y-89475000D01*
X144102854Y-89477854D01*
X144100000Y-89484747D01*
X144100000Y-91060253D01*
X144102854Y-91067145D01*
X144109747Y-91070000D01*
X144206209Y-91070000D01*
X144233812Y-91078514D01*
X144251822Y-91101098D01*
X144253981Y-91129903D01*
X144249409Y-91149935D01*
X144250637Y-91155315D01*
X144267650Y-91229858D01*
X144269775Y-91239166D01*
X144326841Y-91310723D01*
X144331014Y-91312732D01*
X144347185Y-91336937D01*
X144346350Y-91366684D01*
X144328455Y-91390463D01*
X144300100Y-91399500D01*
X144179962Y-91399500D01*
X144179951Y-91399500D01*
X144177558Y-91399501D01*
X144175208Y-91399968D01*
X144175201Y-91399969D01*
X144142471Y-91406479D01*
X144137740Y-91407420D01*
X144133730Y-91410098D01*
X144133728Y-91410100D01*
X144096600Y-91434908D01*
X144096597Y-91434910D01*
X144092589Y-91437589D01*
X144089910Y-91441597D01*
X144089908Y-91441600D01*
X144065742Y-91477768D01*
X144040750Y-91496945D01*
X144009250Y-91496945D01*
X143984258Y-91477768D01*
X143960091Y-91441600D01*
X143957411Y-91437589D01*
X143948386Y-91431559D01*
X143916272Y-91410101D01*
X143916273Y-91410101D01*
X143912260Y-91407420D01*
X143907529Y-91406479D01*
X143907527Y-91406478D01*
X143874797Y-91399968D01*
X143874794Y-91399967D01*
X143872443Y-91399500D01*
X143870040Y-91399500D01*
X143679962Y-91399500D01*
X143679951Y-91399500D01*
X143677558Y-91399501D01*
X143675208Y-91399968D01*
X143675201Y-91399969D01*
X143642471Y-91406479D01*
X143637740Y-91407420D01*
X143633730Y-91410098D01*
X143633728Y-91410100D01*
X143596600Y-91434908D01*
X143596597Y-91434910D01*
X143592589Y-91437589D01*
X143589910Y-91441597D01*
X143589908Y-91441600D01*
X143565742Y-91477768D01*
X143540750Y-91496945D01*
X143509250Y-91496945D01*
X143484258Y-91477768D01*
X143460091Y-91441600D01*
X143457411Y-91437589D01*
X143448386Y-91431559D01*
X143416272Y-91410101D01*
X143416273Y-91410101D01*
X143412260Y-91407420D01*
X143407529Y-91406479D01*
X143407527Y-91406478D01*
X143374797Y-91399968D01*
X143374794Y-91399967D01*
X143372443Y-91399500D01*
X143370040Y-91399500D01*
X143179962Y-91399500D01*
X143179951Y-91399500D01*
X143177558Y-91399501D01*
X143175208Y-91399968D01*
X143175201Y-91399969D01*
X143142471Y-91406479D01*
X143137740Y-91407420D01*
X143133730Y-91410098D01*
X143133728Y-91410100D01*
X143096600Y-91434908D01*
X143096597Y-91434910D01*
X143092589Y-91437589D01*
X143089910Y-91441597D01*
X143089908Y-91441600D01*
X143065742Y-91477768D01*
X143040750Y-91496945D01*
X143009250Y-91496945D01*
X142984258Y-91477768D01*
X142960091Y-91441600D01*
X142957411Y-91437589D01*
X142948386Y-91431559D01*
X142916272Y-91410101D01*
X142916273Y-91410101D01*
X142912260Y-91407420D01*
X142907529Y-91406479D01*
X142907527Y-91406478D01*
X142874797Y-91399968D01*
X142874794Y-91399967D01*
X142872443Y-91399500D01*
X142870040Y-91399500D01*
X142679962Y-91399500D01*
X142679951Y-91399500D01*
X142677558Y-91399501D01*
X142675208Y-91399968D01*
X142675201Y-91399969D01*
X142642471Y-91406479D01*
X142637740Y-91407420D01*
X142633730Y-91410098D01*
X142633728Y-91410100D01*
X142596600Y-91434908D01*
X142596597Y-91434910D01*
X142592589Y-91437589D01*
X142589910Y-91441597D01*
X142589908Y-91441600D01*
X142565742Y-91477768D01*
X142540750Y-91496945D01*
X142509250Y-91496945D01*
X142484258Y-91477768D01*
X142460091Y-91441600D01*
X142457411Y-91437589D01*
X142448386Y-91431559D01*
X142416272Y-91410101D01*
X142416273Y-91410101D01*
X142412260Y-91407420D01*
X142407529Y-91406479D01*
X142407527Y-91406478D01*
X142374797Y-91399968D01*
X142374794Y-91399967D01*
X142372443Y-91399500D01*
X142370040Y-91399500D01*
X142179962Y-91399500D01*
X142179951Y-91399500D01*
X142177558Y-91399501D01*
X142175208Y-91399968D01*
X142175201Y-91399969D01*
X142142471Y-91406479D01*
X142137740Y-91407420D01*
X142133730Y-91410098D01*
X142133728Y-91410100D01*
X142096600Y-91434908D01*
X142096597Y-91434910D01*
X142092589Y-91437589D01*
X142089910Y-91441597D01*
X142089908Y-91441600D01*
X142067471Y-91475180D01*
X142062420Y-91482740D01*
X142061479Y-91487468D01*
X142061478Y-91487472D01*
X142054968Y-91520202D01*
X142054500Y-91522557D01*
X142054500Y-91524958D01*
X142054500Y-91524959D01*
X142054500Y-92075038D01*
X142054500Y-92075048D01*
X142054501Y-92077442D01*
X142054968Y-92079792D01*
X142054969Y-92079798D01*
X142059396Y-92102054D01*
X142062420Y-92117260D01*
X142065099Y-92121270D01*
X142065100Y-92121271D01*
X142087136Y-92154251D01*
X142092589Y-92162411D01*
X142137740Y-92192580D01*
X142177557Y-92200500D01*
X142372442Y-92200499D01*
X142412260Y-92192580D01*
X142457411Y-92162411D01*
X142484258Y-92122230D01*
X142509249Y-92103054D01*
X142540751Y-92103054D01*
X142565741Y-92122230D01*
X142575458Y-92136772D01*
X142587136Y-92154251D01*
X142592589Y-92162411D01*
X142637740Y-92192580D01*
X142677557Y-92200500D01*
X142872442Y-92200499D01*
X142912260Y-92192580D01*
X142957411Y-92162411D01*
X142984258Y-92122230D01*
X143009249Y-92103054D01*
X143040751Y-92103054D01*
X143065741Y-92122230D01*
X143075458Y-92136772D01*
X143087136Y-92154251D01*
X143092589Y-92162411D01*
X143137740Y-92192580D01*
X143177557Y-92200500D01*
X143372442Y-92200499D01*
X143412260Y-92192580D01*
X143457411Y-92162411D01*
X143484258Y-92122230D01*
X143509249Y-92103054D01*
X143540751Y-92103054D01*
X143565741Y-92122230D01*
X143575458Y-92136772D01*
X143587136Y-92154251D01*
X143592589Y-92162411D01*
X143637740Y-92192580D01*
X143677557Y-92200500D01*
X143872442Y-92200499D01*
X143912260Y-92192580D01*
X143957411Y-92162411D01*
X143984259Y-92122229D01*
X144009240Y-92103057D01*
X144040734Y-92103049D01*
X144065728Y-92122211D01*
X144066229Y-92122960D01*
X144074500Y-92150203D01*
X144074500Y-92157612D01*
X144073028Y-92166271D01*
X144073080Y-92166277D01*
X144072461Y-92171762D01*
X144070638Y-92176974D01*
X144071255Y-92182459D01*
X144071256Y-92182459D01*
X144074192Y-92208522D01*
X144074500Y-92214007D01*
X144074500Y-92222590D01*
X144075110Y-92225264D01*
X144075111Y-92225270D01*
X144076409Y-92230955D01*
X144077329Y-92236371D01*
X144080884Y-92267924D01*
X144083819Y-92272596D01*
X144085644Y-92277810D01*
X144085597Y-92277826D01*
X144086041Y-92278897D01*
X144086086Y-92278876D01*
X144088481Y-92283850D01*
X144089710Y-92289231D01*
X144099779Y-92301857D01*
X144109507Y-92314056D01*
X144112684Y-92318534D01*
X144115784Y-92323466D01*
X144115786Y-92323469D01*
X144117252Y-92325801D01*
X144119199Y-92327748D01*
X144123318Y-92331867D01*
X144126979Y-92335964D01*
X144143331Y-92356469D01*
X144143332Y-92356470D01*
X144146776Y-92360788D01*
X144151751Y-92363184D01*
X144156068Y-92366626D01*
X144156035Y-92366666D01*
X144163200Y-92371749D01*
X144263249Y-92471798D01*
X144268334Y-92478964D01*
X144268374Y-92478933D01*
X144271816Y-92483249D01*
X144274212Y-92488224D01*
X144299045Y-92508028D01*
X144303131Y-92511680D01*
X144309199Y-92517748D01*
X144316468Y-92522316D01*
X144320935Y-92525486D01*
X144332453Y-92534671D01*
X144345769Y-92545290D01*
X144351150Y-92546518D01*
X144356126Y-92548914D01*
X144356103Y-92548960D01*
X144357173Y-92549403D01*
X144357190Y-92549355D01*
X144362401Y-92551178D01*
X144367076Y-92554116D01*
X144398637Y-92557671D01*
X144404033Y-92558587D01*
X144412410Y-92560500D01*
X144420993Y-92560500D01*
X144426478Y-92560808D01*
X144458026Y-92564362D01*
X144463239Y-92562537D01*
X144468723Y-92561920D01*
X144468728Y-92561971D01*
X144477388Y-92560500D01*
X144653689Y-92560500D01*
X144686596Y-92573194D01*
X144702453Y-92604698D01*
X144693045Y-92638690D01*
X144663247Y-92657559D01*
X144649665Y-92660260D01*
X144649664Y-92660260D01*
X144644934Y-92661201D01*
X144640924Y-92663879D01*
X144640922Y-92663881D01*
X144610740Y-92684048D01*
X144610737Y-92684050D01*
X144606729Y-92686729D01*
X144604050Y-92690737D01*
X144604048Y-92690740D01*
X144583882Y-92720921D01*
X144581201Y-92724934D01*
X144580260Y-92729662D01*
X144580259Y-92729666D01*
X144574968Y-92756268D01*
X144574500Y-92758623D01*
X144574500Y-92761024D01*
X144574500Y-92761025D01*
X144574500Y-93548972D01*
X144574500Y-93548982D01*
X144574501Y-93551376D01*
X144574968Y-93553726D01*
X144574969Y-93553732D01*
X144578624Y-93572109D01*
X144581201Y-93585066D01*
X144583880Y-93589075D01*
X144583881Y-93589077D01*
X144587470Y-93594449D01*
X144606729Y-93623271D01*
X144644934Y-93648799D01*
X144678623Y-93655500D01*
X144971376Y-93655499D01*
X145005066Y-93648799D01*
X145043271Y-93623271D01*
X145068799Y-93585066D01*
X145075500Y-93551377D01*
X145075499Y-92758624D01*
X145068799Y-92724934D01*
X145043271Y-92686729D01*
X145005066Y-92661201D01*
X145000335Y-92660260D01*
X145000333Y-92660259D01*
X144986756Y-92657559D01*
X144956958Y-92638689D01*
X144947551Y-92604697D01*
X144963409Y-92573193D01*
X144996315Y-92560500D01*
X145253689Y-92560500D01*
X145286596Y-92573194D01*
X145302453Y-92604698D01*
X145293045Y-92638690D01*
X145263247Y-92657559D01*
X145249665Y-92660260D01*
X145249664Y-92660260D01*
X145244934Y-92661201D01*
X145240924Y-92663879D01*
X145240922Y-92663881D01*
X145210740Y-92684048D01*
X145210737Y-92684050D01*
X145206729Y-92686729D01*
X145204050Y-92690737D01*
X145204048Y-92690740D01*
X145183882Y-92720921D01*
X145181201Y-92724934D01*
X145180260Y-92729662D01*
X145180259Y-92729666D01*
X145174968Y-92756268D01*
X145174500Y-92758623D01*
X145174500Y-92761024D01*
X145174500Y-92761025D01*
X145174500Y-93548972D01*
X145174500Y-93548982D01*
X145174501Y-93551376D01*
X145174968Y-93553726D01*
X145174969Y-93553732D01*
X145178624Y-93572109D01*
X145181201Y-93585066D01*
X145183880Y-93589075D01*
X145183881Y-93589077D01*
X145187470Y-93594449D01*
X145206729Y-93623271D01*
X145210740Y-93625951D01*
X145210741Y-93625952D01*
X145212330Y-93627014D01*
X145230378Y-93649004D01*
X145233167Y-93677315D01*
X145219756Y-93702404D01*
X144907013Y-94015148D01*
X144891117Y-94025770D01*
X144872365Y-94029500D01*
X143437886Y-94029500D01*
X143407342Y-94018816D01*
X143390119Y-93991422D01*
X143392550Y-93969746D01*
X143390290Y-93969231D01*
X143408778Y-93888228D01*
X143410656Y-93880000D01*
X143390290Y-93790769D01*
X143343599Y-93732222D01*
X143336667Y-93723529D01*
X143336666Y-93723528D01*
X143333224Y-93719212D01*
X143328157Y-93716772D01*
X143267487Y-93687554D01*
X143247016Y-93669087D01*
X143239757Y-93642490D01*
X143248005Y-93616186D01*
X143268799Y-93585066D01*
X143275500Y-93551377D01*
X143275499Y-92855923D01*
X143282064Y-92831424D01*
X143299999Y-92813489D01*
X143324499Y-92806924D01*
X143325500Y-92806924D01*
X143360148Y-92821276D01*
X143374500Y-92855924D01*
X143374500Y-93548972D01*
X143374500Y-93548982D01*
X143374501Y-93551376D01*
X143374968Y-93553726D01*
X143374969Y-93553732D01*
X143378624Y-93572109D01*
X143381201Y-93585066D01*
X143383880Y-93589075D01*
X143383881Y-93589077D01*
X143387470Y-93594449D01*
X143406729Y-93623271D01*
X143444934Y-93648799D01*
X143478623Y-93655500D01*
X143771376Y-93655499D01*
X143805066Y-93648799D01*
X143843271Y-93623271D01*
X143868799Y-93585066D01*
X143875500Y-93551377D01*
X143875500Y-93548982D01*
X143974500Y-93548982D01*
X143974501Y-93551376D01*
X143974968Y-93553726D01*
X143974969Y-93553732D01*
X143978624Y-93572109D01*
X143981201Y-93585066D01*
X143983880Y-93589075D01*
X143983881Y-93589077D01*
X143987470Y-93594449D01*
X144006729Y-93623271D01*
X144044934Y-93648799D01*
X144078623Y-93655500D01*
X144371376Y-93655499D01*
X144405066Y-93648799D01*
X144443271Y-93623271D01*
X144468799Y-93585066D01*
X144475500Y-93551377D01*
X144475499Y-92758624D01*
X144468799Y-92724934D01*
X144443271Y-92686729D01*
X144405066Y-92661201D01*
X144400335Y-92660260D01*
X144400333Y-92660259D01*
X144373731Y-92654968D01*
X144373728Y-92654967D01*
X144371377Y-92654500D01*
X144368974Y-92654500D01*
X144081027Y-92654500D01*
X144081016Y-92654500D01*
X144078624Y-92654501D01*
X144076274Y-92654968D01*
X144076267Y-92654969D01*
X144049665Y-92660260D01*
X144049664Y-92660260D01*
X144044934Y-92661201D01*
X144040924Y-92663879D01*
X144040922Y-92663881D01*
X144010740Y-92684048D01*
X144010737Y-92684050D01*
X144006729Y-92686729D01*
X144004050Y-92690737D01*
X144004048Y-92690740D01*
X143983882Y-92720921D01*
X143981201Y-92724934D01*
X143980260Y-92729662D01*
X143980259Y-92729666D01*
X143974968Y-92756268D01*
X143974500Y-92758623D01*
X143974500Y-92761024D01*
X143974500Y-92761025D01*
X143974500Y-93548972D01*
X143974500Y-93548982D01*
X143875500Y-93548982D01*
X143875499Y-92758624D01*
X143868799Y-92724934D01*
X143843271Y-92686729D01*
X143805066Y-92661201D01*
X143800335Y-92660260D01*
X143800333Y-92660259D01*
X143773731Y-92654968D01*
X143773728Y-92654967D01*
X143771377Y-92654500D01*
X143768974Y-92654500D01*
X143584852Y-92654500D01*
X143550204Y-92640148D01*
X143536779Y-92607739D01*
X143537080Y-92606424D01*
X143516714Y-92517193D01*
X143459648Y-92445636D01*
X143377187Y-92405924D01*
X143285661Y-92405924D01*
X143280688Y-92408318D01*
X143280687Y-92408319D01*
X143208174Y-92443240D01*
X143208172Y-92443241D01*
X143203200Y-92445636D01*
X143199759Y-92449950D01*
X143199756Y-92449953D01*
X143149748Y-92512661D01*
X143146134Y-92517193D01*
X143144905Y-92522574D01*
X143144905Y-92522576D01*
X143135914Y-92561971D01*
X143125768Y-92606424D01*
X143126068Y-92607739D01*
X143112644Y-92640148D01*
X143077996Y-92654500D01*
X142881028Y-92654500D01*
X142881017Y-92654500D01*
X142878624Y-92654501D01*
X142876274Y-92654968D01*
X142876267Y-92654969D01*
X142849665Y-92660260D01*
X142849664Y-92660260D01*
X142844934Y-92661201D01*
X142840924Y-92663879D01*
X142840922Y-92663881D01*
X142810740Y-92684048D01*
X142810737Y-92684050D01*
X142806729Y-92686729D01*
X142804050Y-92690737D01*
X142804048Y-92690740D01*
X142783882Y-92720921D01*
X142781201Y-92724934D01*
X142780260Y-92729662D01*
X142780259Y-92729666D01*
X142774968Y-92756268D01*
X142774500Y-92758623D01*
X142774500Y-92761024D01*
X142774500Y-92761025D01*
X142774500Y-93548972D01*
X142774500Y-93548982D01*
X142774501Y-93551376D01*
X142774968Y-93553726D01*
X142774969Y-93553732D01*
X142778624Y-93572109D01*
X142781201Y-93585066D01*
X142783880Y-93589075D01*
X142783881Y-93589077D01*
X142787470Y-93594449D01*
X142806729Y-93623271D01*
X142844934Y-93648799D01*
X142878623Y-93655500D01*
X143025836Y-93655499D01*
X143059163Y-93668579D01*
X143074698Y-93700837D01*
X143064145Y-93735050D01*
X143023152Y-93786452D01*
X143023150Y-93786454D01*
X143019710Y-93790769D01*
X143018481Y-93796150D01*
X143018481Y-93796152D01*
X143007123Y-93845919D01*
X142999344Y-93880000D01*
X143001222Y-93888228D01*
X143019710Y-93969231D01*
X143017449Y-93969746D01*
X143019881Y-93991422D01*
X143002658Y-94018816D01*
X142972114Y-94029500D01*
X140132635Y-94029500D01*
X140097987Y-94015148D01*
X139856123Y-93773284D01*
X139842999Y-93749539D01*
X139835208Y-93715402D01*
X139837367Y-93686597D01*
X139855378Y-93664013D01*
X139882976Y-93655499D01*
X140171376Y-93655499D01*
X140205066Y-93648799D01*
X140243271Y-93623271D01*
X140268799Y-93585066D01*
X140275500Y-93551377D01*
X140275499Y-92758624D01*
X140268799Y-92724934D01*
X140243271Y-92686729D01*
X140244336Y-92686017D01*
X140232664Y-92660256D01*
X140242686Y-92627222D01*
X140272002Y-92608993D01*
X140276106Y-92608176D01*
X140284852Y-92604553D01*
X140349599Y-92561291D01*
X140356291Y-92554599D01*
X140399554Y-92489851D01*
X140403176Y-92481107D01*
X140414529Y-92424032D01*
X140415000Y-92419257D01*
X140415000Y-92384747D01*
X140412145Y-92377854D01*
X140405253Y-92375000D01*
X140039000Y-92375000D01*
X140004352Y-92360648D01*
X139990000Y-92326000D01*
X139990000Y-92274000D01*
X140004352Y-92239352D01*
X140039000Y-92225000D01*
X140405252Y-92225000D01*
X140412144Y-92222145D01*
X140414999Y-92215253D01*
X140414999Y-92180737D01*
X140414530Y-92175979D01*
X140410209Y-92154251D01*
X140416658Y-92118816D01*
X140440633Y-92101035D01*
X140440325Y-92100502D01*
X140444969Y-92097820D01*
X140444971Y-92097817D01*
X140445915Y-92097273D01*
X140445916Y-92097273D01*
X140450995Y-92094340D01*
X140484005Y-92088516D01*
X140513035Y-92105274D01*
X140524500Y-92136772D01*
X140524500Y-92429314D01*
X140524500Y-92429324D01*
X140524501Y-92431718D01*
X140524968Y-92434068D01*
X140524969Y-92434074D01*
X140536351Y-92491303D01*
X140536352Y-92491306D01*
X140537293Y-92496035D01*
X140539972Y-92500045D01*
X140539973Y-92500046D01*
X140583346Y-92564959D01*
X140586028Y-92568972D01*
X140589391Y-92571219D01*
X140603591Y-92605500D01*
X140589240Y-92640148D01*
X140554592Y-92654500D01*
X140481028Y-92654500D01*
X140481017Y-92654500D01*
X140478624Y-92654501D01*
X140476274Y-92654968D01*
X140476267Y-92654969D01*
X140449665Y-92660260D01*
X140449664Y-92660260D01*
X140444934Y-92661201D01*
X140440924Y-92663879D01*
X140440922Y-92663881D01*
X140410740Y-92684048D01*
X140410737Y-92684050D01*
X140406729Y-92686729D01*
X140404050Y-92690737D01*
X140404048Y-92690740D01*
X140383882Y-92720921D01*
X140381201Y-92724934D01*
X140380260Y-92729662D01*
X140380259Y-92729666D01*
X140374968Y-92756268D01*
X140374500Y-92758623D01*
X140374500Y-92761024D01*
X140374500Y-92761025D01*
X140374500Y-93548972D01*
X140374500Y-93548982D01*
X140374501Y-93551376D01*
X140374968Y-93553726D01*
X140374969Y-93553732D01*
X140378624Y-93572109D01*
X140381201Y-93585066D01*
X140383880Y-93589075D01*
X140383881Y-93589077D01*
X140387470Y-93594449D01*
X140406729Y-93623271D01*
X140444934Y-93648799D01*
X140478623Y-93655500D01*
X140771376Y-93655499D01*
X140805066Y-93648799D01*
X140843271Y-93623271D01*
X140868799Y-93585066D01*
X140875500Y-93551377D01*
X140875499Y-92758624D01*
X140868799Y-92724934D01*
X140856629Y-92706721D01*
X140848791Y-92673103D01*
X140865064Y-92642659D01*
X140897371Y-92630499D01*
X140926718Y-92630499D01*
X140946300Y-92626604D01*
X140983082Y-92633921D01*
X141003917Y-92665104D01*
X140996601Y-92701886D01*
X140985920Y-92717872D01*
X140981201Y-92724934D01*
X140980260Y-92729662D01*
X140980259Y-92729666D01*
X140974968Y-92756268D01*
X140974500Y-92758623D01*
X140974500Y-92761024D01*
X140974500Y-92761025D01*
X140974500Y-93548972D01*
X140974500Y-93548982D01*
X140974501Y-93551376D01*
X140974968Y-93553726D01*
X140974969Y-93553732D01*
X140978624Y-93572109D01*
X140981201Y-93585066D01*
X140983880Y-93589075D01*
X140983881Y-93589077D01*
X140987470Y-93594449D01*
X141006729Y-93623271D01*
X141044934Y-93648799D01*
X141078623Y-93655500D01*
X141371376Y-93655499D01*
X141405066Y-93648799D01*
X141443271Y-93623271D01*
X141468799Y-93585066D01*
X141475500Y-93551377D01*
X141475500Y-93548982D01*
X141574500Y-93548982D01*
X141574501Y-93551376D01*
X141574968Y-93553726D01*
X141574969Y-93553732D01*
X141578624Y-93572109D01*
X141581201Y-93585066D01*
X141583880Y-93589075D01*
X141583881Y-93589077D01*
X141587470Y-93594449D01*
X141606729Y-93623271D01*
X141644934Y-93648799D01*
X141678623Y-93655500D01*
X141971376Y-93655499D01*
X142005066Y-93648799D01*
X142043271Y-93623271D01*
X142068799Y-93585066D01*
X142075500Y-93551377D01*
X142075500Y-93548982D01*
X142174500Y-93548982D01*
X142174501Y-93551376D01*
X142174968Y-93553726D01*
X142174969Y-93553732D01*
X142178624Y-93572109D01*
X142181201Y-93585066D01*
X142183880Y-93589075D01*
X142183881Y-93589077D01*
X142187470Y-93594449D01*
X142206729Y-93623271D01*
X142244934Y-93648799D01*
X142278623Y-93655500D01*
X142571376Y-93655499D01*
X142605066Y-93648799D01*
X142643271Y-93623271D01*
X142668799Y-93585066D01*
X142675500Y-93551377D01*
X142675499Y-92758624D01*
X142668799Y-92724934D01*
X142643271Y-92686729D01*
X142605066Y-92661201D01*
X142600335Y-92660260D01*
X142600333Y-92660259D01*
X142573731Y-92654968D01*
X142573728Y-92654967D01*
X142571377Y-92654500D01*
X142568974Y-92654500D01*
X142281027Y-92654500D01*
X142281016Y-92654500D01*
X142278624Y-92654501D01*
X142276274Y-92654968D01*
X142276267Y-92654969D01*
X142249665Y-92660260D01*
X142249664Y-92660260D01*
X142244934Y-92661201D01*
X142240924Y-92663879D01*
X142240922Y-92663881D01*
X142210740Y-92684048D01*
X142210737Y-92684050D01*
X142206729Y-92686729D01*
X142204050Y-92690737D01*
X142204048Y-92690740D01*
X142183882Y-92720921D01*
X142181201Y-92724934D01*
X142180260Y-92729662D01*
X142180259Y-92729666D01*
X142174968Y-92756268D01*
X142174500Y-92758623D01*
X142174500Y-92761024D01*
X142174500Y-92761025D01*
X142174500Y-93548972D01*
X142174500Y-93548982D01*
X142075500Y-93548982D01*
X142075499Y-92758624D01*
X142068799Y-92724934D01*
X142043271Y-92686729D01*
X142005066Y-92661201D01*
X142000335Y-92660260D01*
X142000333Y-92660259D01*
X141973731Y-92654968D01*
X141973728Y-92654967D01*
X141971377Y-92654500D01*
X141968974Y-92654500D01*
X141681027Y-92654500D01*
X141681016Y-92654500D01*
X141678624Y-92654501D01*
X141676274Y-92654968D01*
X141676267Y-92654969D01*
X141649665Y-92660260D01*
X141649664Y-92660260D01*
X141644934Y-92661201D01*
X141640924Y-92663879D01*
X141640922Y-92663881D01*
X141610740Y-92684048D01*
X141610737Y-92684050D01*
X141606729Y-92686729D01*
X141604050Y-92690737D01*
X141604048Y-92690740D01*
X141583882Y-92720921D01*
X141581201Y-92724934D01*
X141580260Y-92729662D01*
X141580259Y-92729666D01*
X141574968Y-92756268D01*
X141574500Y-92758623D01*
X141574500Y-92761024D01*
X141574500Y-92761025D01*
X141574500Y-93548972D01*
X141574500Y-93548982D01*
X141475500Y-93548982D01*
X141475499Y-92758624D01*
X141468799Y-92724934D01*
X141443271Y-92686729D01*
X141405066Y-92661201D01*
X141400335Y-92660260D01*
X141400333Y-92660259D01*
X141373731Y-92654968D01*
X141373728Y-92654967D01*
X141371377Y-92654500D01*
X141368974Y-92654500D01*
X141095408Y-92654500D01*
X141068185Y-92646242D01*
X141050137Y-92624250D01*
X141047350Y-92595939D01*
X141060540Y-92571265D01*
X141063972Y-92568972D01*
X141108536Y-92502276D01*
X141126180Y-92486286D01*
X141149278Y-92480500D01*
X141298876Y-92480500D01*
X141305327Y-92480500D01*
X141317505Y-92473467D01*
X141329321Y-92468573D01*
X141342904Y-92464935D01*
X141399935Y-92407905D01*
X141399935Y-92407903D01*
X141745430Y-92062409D01*
X141745430Y-92062408D01*
X141759935Y-92047904D01*
X141763573Y-92034321D01*
X141768467Y-92022505D01*
X141775500Y-92010327D01*
X141775501Y-91929674D01*
X141775500Y-91929672D01*
X141775500Y-91419499D01*
X141789852Y-91384851D01*
X141824500Y-91370499D01*
X141900038Y-91370499D01*
X141902442Y-91370499D01*
X141942260Y-91362580D01*
X141987411Y-91332411D01*
X142017580Y-91287260D01*
X142025500Y-91247443D01*
X142025499Y-91052558D01*
X142017580Y-91012740D01*
X141987411Y-90967589D01*
X141947230Y-90940741D01*
X141928054Y-90915751D01*
X141928054Y-90884249D01*
X141947230Y-90859258D01*
X141987411Y-90832411D01*
X142017580Y-90787260D01*
X142025500Y-90747443D01*
X142025499Y-90552558D01*
X142017580Y-90512740D01*
X141999612Y-90485850D01*
X141992106Y-90450082D01*
X142011442Y-90419067D01*
X142046864Y-90410062D01*
X142078662Y-90428075D01*
X142096776Y-90450788D01*
X142179237Y-90490500D01*
X142265243Y-90490500D01*
X142270763Y-90490500D01*
X142284740Y-90483768D01*
X142316903Y-90480144D01*
X142344309Y-90497365D01*
X142355000Y-90527916D01*
X142355000Y-90903525D01*
X142355468Y-90908282D01*
X142364617Y-90954280D01*
X142368240Y-90963025D01*
X142403104Y-91015203D01*
X142409796Y-91021895D01*
X142461974Y-91056759D01*
X142470719Y-91060382D01*
X142516717Y-91069531D01*
X142521475Y-91070000D01*
X143940253Y-91070000D01*
X143947145Y-91067145D01*
X143950000Y-91060253D01*
X143950000Y-87739747D01*
X143947145Y-87732854D01*
X143940253Y-87730000D01*
X143424205Y-87730000D01*
X143396602Y-87721486D01*
X143378592Y-87698902D01*
X143376433Y-87670097D01*
X143378882Y-87659367D01*
X143380906Y-87650499D01*
X143360540Y-87561268D01*
X143303474Y-87489711D01*
X143298924Y-87487520D01*
X143282584Y-87463063D01*
X143283419Y-87433315D01*
X143301314Y-87409536D01*
X143329668Y-87400499D01*
X143372442Y-87400499D01*
X143412260Y-87392580D01*
X143457411Y-87362411D01*
X143484258Y-87322230D01*
X143509249Y-87303054D01*
X143540751Y-87303054D01*
X143565741Y-87322230D01*
X143575177Y-87336352D01*
X143589156Y-87357274D01*
X143592589Y-87362411D01*
X143637740Y-87392580D01*
X143677557Y-87400500D01*
X143872442Y-87400499D01*
X143912260Y-87392580D01*
X143957411Y-87362411D01*
X143984258Y-87322230D01*
X144009249Y-87303054D01*
X144040751Y-87303054D01*
X144065741Y-87322230D01*
X144075177Y-87336352D01*
X144089156Y-87357274D01*
X144092589Y-87362411D01*
X144137740Y-87392580D01*
X144177557Y-87400500D01*
X144372442Y-87400499D01*
X144412260Y-87392580D01*
X144457411Y-87362411D01*
X144484259Y-87322229D01*
X144509240Y-87303057D01*
X144540734Y-87303049D01*
X144565727Y-87322211D01*
G37*
%TD.AperFunction*%
%TA.AperFunction,Conductor*%
G36*
X145065741Y-87322230D02*
G01*
X145075177Y-87336352D01*
X145089156Y-87357274D01*
X145092589Y-87362411D01*
X145137740Y-87392580D01*
X145177557Y-87400500D01*
X145372442Y-87400499D01*
X145412260Y-87392580D01*
X145457411Y-87362411D01*
X145484258Y-87322230D01*
X145509249Y-87303054D01*
X145540751Y-87303054D01*
X145565741Y-87322230D01*
X145575177Y-87336352D01*
X145589156Y-87357274D01*
X145592589Y-87362411D01*
X145637740Y-87392580D01*
X145677557Y-87400500D01*
X145872442Y-87400499D01*
X145906295Y-87393766D01*
X145932683Y-87395806D01*
X145954160Y-87411272D01*
X145971274Y-87432732D01*
X146005095Y-87449019D01*
X146008991Y-87450896D01*
X146033508Y-87477566D01*
X146033030Y-87511826D01*
X146032420Y-87512740D01*
X146031479Y-87517467D01*
X146031479Y-87517469D01*
X146024969Y-87550201D01*
X146024500Y-87552557D01*
X146024500Y-87554959D01*
X146024500Y-87554960D01*
X146024500Y-87701843D01*
X146013810Y-87732394D01*
X145986403Y-87749615D01*
X145954239Y-87745990D01*
X145952266Y-87745040D01*
X145940763Y-87739500D01*
X145849237Y-87739500D01*
X145844264Y-87741894D01*
X145844263Y-87741895D01*
X145771750Y-87776816D01*
X145771748Y-87776817D01*
X145766776Y-87779212D01*
X145763334Y-87783527D01*
X145763334Y-87783528D01*
X145741319Y-87811133D01*
X145716133Y-87827791D01*
X145685963Y-87826520D01*
X145662268Y-87807803D01*
X145646896Y-87784797D01*
X145640203Y-87778104D01*
X145588025Y-87743240D01*
X145579280Y-87739617D01*
X145533282Y-87730468D01*
X145528525Y-87730000D01*
X145096594Y-87730000D01*
X145070524Y-87722489D01*
X145052446Y-87702259D01*
X145048152Y-87676984D01*
X145049363Y-87673525D01*
X145048744Y-87668037D01*
X145049363Y-87662550D01*
X145049414Y-87662555D01*
X145049479Y-87661405D01*
X145049427Y-87661405D01*
X145049427Y-87655882D01*
X145050656Y-87650499D01*
X145043591Y-87619545D01*
X145042671Y-87614132D01*
X145039734Y-87588060D01*
X145039733Y-87588059D01*
X145039116Y-87582575D01*
X145036178Y-87577900D01*
X145034355Y-87572689D01*
X145034403Y-87572672D01*
X145033960Y-87571602D01*
X145033914Y-87571625D01*
X145031518Y-87566649D01*
X145030290Y-87561268D01*
X145010491Y-87536440D01*
X145007314Y-87531963D01*
X145004211Y-87527024D01*
X145004209Y-87527021D01*
X145002749Y-87524698D01*
X144996682Y-87518631D01*
X144993020Y-87514534D01*
X144989203Y-87509748D01*
X144986187Y-87505966D01*
X144975498Y-87475416D01*
X144975498Y-87350206D01*
X144983744Y-87323001D01*
X144984246Y-87322249D01*
X145009236Y-87303059D01*
X145040744Y-87303052D01*
X145065741Y-87322230D01*
G37*
%TD.AperFunction*%
%TA.AperFunction,Conductor*%
G36*
X137589130Y-82452082D02*
G01*
X137599500Y-82482227D01*
X137599500Y-83208260D01*
X137609427Y-83276393D01*
X137660802Y-83381483D01*
X137743517Y-83464198D01*
X137848607Y-83515573D01*
X137916740Y-83525500D01*
X137925500Y-83525500D01*
X137960148Y-83539852D01*
X137974500Y-83574500D01*
X137974500Y-84369853D01*
X137960148Y-84404501D01*
X137923801Y-84440848D01*
X137889153Y-84455200D01*
X137876025Y-84455200D01*
X137871052Y-84457594D01*
X137871051Y-84457595D01*
X137798538Y-84492516D01*
X137798536Y-84492517D01*
X137793564Y-84494912D01*
X137790123Y-84499226D01*
X137790120Y-84499229D01*
X137741912Y-84559680D01*
X137736498Y-84566469D01*
X137735270Y-84571848D01*
X137735267Y-84571855D01*
X137727740Y-84604834D01*
X137709066Y-84633355D01*
X137676307Y-84642792D01*
X137645321Y-84628577D01*
X137459352Y-84442608D01*
X137445000Y-84407960D01*
X137445000Y-83453749D01*
X137445166Y-83449920D01*
X137445500Y-83448031D01*
X137445500Y-83350000D01*
X137445500Y-83317712D01*
X137445500Y-82752407D01*
X137445736Y-82747605D01*
X137448985Y-82714618D01*
X137459044Y-82612475D01*
X137460914Y-82603074D01*
X137499631Y-82475443D01*
X137503302Y-82466580D01*
X137507288Y-82459123D01*
X137530647Y-82437429D01*
X137562408Y-82434696D01*
X137589130Y-82452082D01*
G37*
%TD.AperFunction*%
%TA.AperFunction,Conductor*%
G36*
X159865148Y-65134852D02*
G01*
X159879500Y-65169500D01*
X159879500Y-124830500D01*
X159865148Y-124865148D01*
X159830500Y-124879500D01*
X100169500Y-124879500D01*
X100134852Y-124865148D01*
X100120500Y-124830500D01*
X100120500Y-98496945D01*
X115387018Y-98496945D01*
X115387312Y-98499122D01*
X115387313Y-98499124D01*
X115417268Y-98720263D01*
X115417269Y-98720268D01*
X115417563Y-98722437D01*
X115418238Y-98724514D01*
X115418240Y-98724523D01*
X115453891Y-98834243D01*
X115487880Y-98938851D01*
X115488917Y-98940779D01*
X115488921Y-98940787D01*
X115594670Y-99137301D01*
X115594674Y-99137308D01*
X115595710Y-99139232D01*
X115737585Y-99317138D01*
X115908948Y-99466853D01*
X116104289Y-99583564D01*
X116317330Y-99663520D01*
X116541224Y-99704150D01*
X116710671Y-99704150D01*
X116711775Y-99704150D01*
X116881635Y-99688862D01*
X117100986Y-99628325D01*
X117306003Y-99529595D01*
X117490095Y-99395843D01*
X117647347Y-99231371D01*
X117772705Y-99041463D01*
X117862138Y-98832223D01*
X117912773Y-98610377D01*
X117917867Y-98496945D01*
X118562018Y-98496945D01*
X118562312Y-98499122D01*
X118562313Y-98499124D01*
X118592268Y-98720263D01*
X118592269Y-98720268D01*
X118592563Y-98722437D01*
X118593238Y-98724514D01*
X118593240Y-98724523D01*
X118628891Y-98834243D01*
X118662880Y-98938851D01*
X118663917Y-98940779D01*
X118663921Y-98940787D01*
X118769670Y-99137301D01*
X118769674Y-99137308D01*
X118770710Y-99139232D01*
X118912585Y-99317138D01*
X119083948Y-99466853D01*
X119279289Y-99583564D01*
X119492330Y-99663520D01*
X119716224Y-99704150D01*
X119885671Y-99704150D01*
X119886775Y-99704150D01*
X120056635Y-99688862D01*
X120275986Y-99628325D01*
X120481003Y-99529595D01*
X120665095Y-99395843D01*
X120822347Y-99231371D01*
X120947705Y-99041463D01*
X121037138Y-98832223D01*
X121087773Y-98610377D01*
X121097982Y-98383055D01*
X121067437Y-98157563D01*
X120997120Y-97941149D01*
X120996078Y-97939212D01*
X120890329Y-97742698D01*
X120890326Y-97742694D01*
X120889290Y-97740768D01*
X120747415Y-97562862D01*
X120576052Y-97413147D01*
X120469443Y-97349451D01*
X120382601Y-97297565D01*
X120382599Y-97297564D01*
X120380711Y-97296436D01*
X120372811Y-97293471D01*
X120169736Y-97217255D01*
X120169732Y-97217253D01*
X120167670Y-97216480D01*
X120165510Y-97216088D01*
X120165503Y-97216086D01*
X119945938Y-97176242D01*
X119945934Y-97176241D01*
X119943776Y-97175850D01*
X119773225Y-97175850D01*
X119772144Y-97175947D01*
X119772128Y-97175948D01*
X119605552Y-97190941D01*
X119605550Y-97190941D01*
X119603365Y-97191138D01*
X119601256Y-97191719D01*
X119601245Y-97191722D01*
X119386131Y-97251090D01*
X119386123Y-97251092D01*
X119384014Y-97251675D01*
X119382046Y-97252622D01*
X119382037Y-97252626D01*
X119180976Y-97349451D01*
X119180967Y-97349456D01*
X119178997Y-97350405D01*
X119177228Y-97351690D01*
X119177220Y-97351695D01*
X118996683Y-97482864D01*
X118996674Y-97482871D01*
X118994905Y-97484157D01*
X118993388Y-97485743D01*
X118993383Y-97485748D01*
X118839175Y-97647036D01*
X118839169Y-97647042D01*
X118837653Y-97648629D01*
X118836443Y-97650461D01*
X118836439Y-97650467D01*
X118713507Y-97836699D01*
X118713501Y-97836709D01*
X118712295Y-97838537D01*
X118711435Y-97840547D01*
X118711429Y-97840560D01*
X118623725Y-98045756D01*
X118623722Y-98045763D01*
X118622862Y-98047777D01*
X118622374Y-98049910D01*
X118622372Y-98049920D01*
X118572717Y-98267475D01*
X118572227Y-98269623D01*
X118572128Y-98271814D01*
X118572128Y-98271819D01*
X118562116Y-98494747D01*
X118562116Y-98494754D01*
X118562018Y-98496945D01*
X117917867Y-98496945D01*
X117922982Y-98383055D01*
X117892437Y-98157563D01*
X117822120Y-97941149D01*
X117821078Y-97939212D01*
X117715329Y-97742698D01*
X117715326Y-97742694D01*
X117714290Y-97740768D01*
X117572415Y-97562862D01*
X117401052Y-97413147D01*
X117294443Y-97349451D01*
X117278625Y-97340000D01*
X117744592Y-97340000D01*
X117745534Y-97344736D01*
X117763092Y-97433007D01*
X117763093Y-97433009D01*
X117764034Y-97437740D01*
X117766713Y-97441750D01*
X117766714Y-97441751D01*
X117788058Y-97473696D01*
X117819399Y-97520601D01*
X117902260Y-97575966D01*
X118000000Y-97595408D01*
X118097740Y-97575966D01*
X118180601Y-97520601D01*
X118235966Y-97437740D01*
X118255408Y-97340000D01*
X118235966Y-97242260D01*
X118180601Y-97159399D01*
X118097740Y-97104034D01*
X118093009Y-97103093D01*
X118093007Y-97103092D01*
X118004736Y-97085534D01*
X118000000Y-97084592D01*
X117995264Y-97085534D01*
X117906992Y-97103092D01*
X117906988Y-97103093D01*
X117902260Y-97104034D01*
X117898250Y-97106712D01*
X117898248Y-97106714D01*
X117823410Y-97156718D01*
X117823407Y-97156720D01*
X117819399Y-97159399D01*
X117816720Y-97163407D01*
X117816718Y-97163410D01*
X117766714Y-97238248D01*
X117766712Y-97238250D01*
X117764034Y-97242260D01*
X117763093Y-97246988D01*
X117763092Y-97246992D01*
X117747395Y-97325910D01*
X117744592Y-97340000D01*
X117278625Y-97340000D01*
X117207601Y-97297565D01*
X117207599Y-97297564D01*
X117205711Y-97296436D01*
X117197811Y-97293471D01*
X116994736Y-97217255D01*
X116994732Y-97217253D01*
X116992670Y-97216480D01*
X116990510Y-97216088D01*
X116990503Y-97216086D01*
X116770938Y-97176242D01*
X116770934Y-97176241D01*
X116768776Y-97175850D01*
X116598225Y-97175850D01*
X116597144Y-97175947D01*
X116597128Y-97175948D01*
X116430552Y-97190941D01*
X116430550Y-97190941D01*
X116428365Y-97191138D01*
X116426256Y-97191719D01*
X116426245Y-97191722D01*
X116211131Y-97251090D01*
X116211123Y-97251092D01*
X116209014Y-97251675D01*
X116207046Y-97252622D01*
X116207037Y-97252626D01*
X116005976Y-97349451D01*
X116005967Y-97349456D01*
X116003997Y-97350405D01*
X116002228Y-97351690D01*
X116002220Y-97351695D01*
X115821683Y-97482864D01*
X115821674Y-97482871D01*
X115819905Y-97484157D01*
X115818388Y-97485743D01*
X115818383Y-97485748D01*
X115664175Y-97647036D01*
X115664169Y-97647042D01*
X115662653Y-97648629D01*
X115661443Y-97650461D01*
X115661439Y-97650467D01*
X115538507Y-97836699D01*
X115538501Y-97836709D01*
X115537295Y-97838537D01*
X115536435Y-97840547D01*
X115536429Y-97840560D01*
X115448725Y-98045756D01*
X115448722Y-98045763D01*
X115447862Y-98047777D01*
X115447374Y-98049910D01*
X115447372Y-98049920D01*
X115397717Y-98267475D01*
X115397227Y-98269623D01*
X115397128Y-98271814D01*
X115397128Y-98271819D01*
X115387116Y-98494747D01*
X115387116Y-98494754D01*
X115387018Y-98496945D01*
X100120500Y-98496945D01*
X100120500Y-96916000D01*
X114173064Y-96916000D01*
X114173483Y-96919183D01*
X114192303Y-97062137D01*
X114192304Y-97062141D01*
X114192723Y-97065322D01*
X114193951Y-97068287D01*
X114193952Y-97068290D01*
X114245079Y-97191722D01*
X114250359Y-97204468D01*
X114252311Y-97207012D01*
X114252314Y-97207017D01*
X114286133Y-97251090D01*
X114342045Y-97323955D01*
X114344593Y-97325910D01*
X114458982Y-97413685D01*
X114458985Y-97413687D01*
X114461532Y-97415641D01*
X114600678Y-97473277D01*
X114712508Y-97488000D01*
X114785892Y-97488000D01*
X114787492Y-97488000D01*
X114899322Y-97473277D01*
X115038468Y-97415641D01*
X115157955Y-97323955D01*
X115249641Y-97204468D01*
X115307277Y-97065322D01*
X115326936Y-96916000D01*
X115307277Y-96766678D01*
X115249641Y-96627532D01*
X115247687Y-96624985D01*
X115247685Y-96624982D01*
X115159910Y-96510593D01*
X115157955Y-96508045D01*
X115155406Y-96506089D01*
X115041017Y-96418314D01*
X115041012Y-96418311D01*
X115038468Y-96416359D01*
X115035499Y-96415129D01*
X114902290Y-96359952D01*
X114902287Y-96359951D01*
X114899322Y-96358723D01*
X114896141Y-96358304D01*
X114896137Y-96358303D01*
X114789076Y-96344208D01*
X114789067Y-96344207D01*
X114787492Y-96344000D01*
X114712508Y-96344000D01*
X114710933Y-96344207D01*
X114710923Y-96344208D01*
X114603862Y-96358303D01*
X114603856Y-96358304D01*
X114600678Y-96358723D01*
X114597714Y-96359950D01*
X114597709Y-96359952D01*
X114464500Y-96415129D01*
X114464496Y-96415131D01*
X114461532Y-96416359D01*
X114458990Y-96418308D01*
X114458982Y-96418314D01*
X114344593Y-96506089D01*
X114344589Y-96506092D01*
X114342045Y-96508045D01*
X114340092Y-96510589D01*
X114340089Y-96510593D01*
X114252314Y-96624982D01*
X114252308Y-96624990D01*
X114250359Y-96627532D01*
X114249131Y-96630496D01*
X114249129Y-96630500D01*
X114193952Y-96763709D01*
X114193950Y-96763714D01*
X114192723Y-96766678D01*
X114192304Y-96769856D01*
X114192303Y-96769862D01*
X114173483Y-96912817D01*
X114173064Y-96916000D01*
X100120500Y-96916000D01*
X100120500Y-95900000D01*
X119253064Y-95900000D01*
X119253483Y-95903183D01*
X119272303Y-96046137D01*
X119272304Y-96046141D01*
X119272723Y-96049322D01*
X119273951Y-96052287D01*
X119273952Y-96052290D01*
X119308937Y-96136751D01*
X119330359Y-96188468D01*
X119332311Y-96191012D01*
X119332314Y-96191017D01*
X119412037Y-96294912D01*
X119422045Y-96307955D01*
X119424593Y-96309910D01*
X119538982Y-96397685D01*
X119538985Y-96397687D01*
X119541532Y-96399641D01*
X119680678Y-96457277D01*
X119792508Y-96472000D01*
X119865892Y-96472000D01*
X119867492Y-96472000D01*
X119979322Y-96457277D01*
X120118468Y-96399641D01*
X120237955Y-96307955D01*
X120329641Y-96188468D01*
X120387277Y-96049322D01*
X120389163Y-96035000D01*
X124999592Y-96035000D01*
X125000534Y-96039736D01*
X125018092Y-96128007D01*
X125018093Y-96128009D01*
X125019034Y-96132740D01*
X125021713Y-96136750D01*
X125021714Y-96136751D01*
X125056269Y-96188468D01*
X125074399Y-96215601D01*
X125157260Y-96270966D01*
X125255000Y-96290408D01*
X125352740Y-96270966D01*
X125435601Y-96215601D01*
X125490966Y-96132740D01*
X125510408Y-96035000D01*
X125490966Y-95937260D01*
X125435601Y-95854399D01*
X125352740Y-95799034D01*
X125348009Y-95798093D01*
X125348007Y-95798092D01*
X125259736Y-95780534D01*
X125255000Y-95779592D01*
X125250264Y-95780534D01*
X125161992Y-95798092D01*
X125161988Y-95798093D01*
X125157260Y-95799034D01*
X125153250Y-95801712D01*
X125153248Y-95801714D01*
X125078410Y-95851718D01*
X125078407Y-95851720D01*
X125074399Y-95854399D01*
X125071720Y-95858407D01*
X125071718Y-95858410D01*
X125021714Y-95933248D01*
X125021712Y-95933250D01*
X125019034Y-95937260D01*
X125018093Y-95941988D01*
X125018092Y-95941992D01*
X125002780Y-96018974D01*
X124999592Y-96035000D01*
X120389163Y-96035000D01*
X120406936Y-95900000D01*
X120387277Y-95750678D01*
X120329641Y-95611532D01*
X120327687Y-95608985D01*
X120327685Y-95608982D01*
X120245705Y-95502145D01*
X120237955Y-95492045D01*
X120235406Y-95490089D01*
X120121017Y-95402314D01*
X120121012Y-95402311D01*
X120118468Y-95400359D01*
X120115499Y-95399129D01*
X119982290Y-95343952D01*
X119982287Y-95343951D01*
X119979322Y-95342723D01*
X119976141Y-95342304D01*
X119976137Y-95342303D01*
X119869076Y-95328208D01*
X119869067Y-95328207D01*
X119867492Y-95328000D01*
X119792508Y-95328000D01*
X119790933Y-95328207D01*
X119790923Y-95328208D01*
X119683862Y-95342303D01*
X119683856Y-95342304D01*
X119680678Y-95342723D01*
X119677714Y-95343950D01*
X119677709Y-95343952D01*
X119544500Y-95399129D01*
X119544496Y-95399131D01*
X119541532Y-95400359D01*
X119538990Y-95402308D01*
X119538982Y-95402314D01*
X119424593Y-95490089D01*
X119424589Y-95490092D01*
X119422045Y-95492045D01*
X119420092Y-95494589D01*
X119420089Y-95494593D01*
X119332314Y-95608982D01*
X119332308Y-95608990D01*
X119330359Y-95611532D01*
X119329131Y-95614496D01*
X119329129Y-95614500D01*
X119273952Y-95747709D01*
X119273950Y-95747714D01*
X119272723Y-95750678D01*
X119272304Y-95753856D01*
X119272303Y-95753862D01*
X119253483Y-95896817D01*
X119253064Y-95900000D01*
X100120500Y-95900000D01*
X100120500Y-94884000D01*
X114173064Y-94884000D01*
X114173483Y-94887183D01*
X114192303Y-95030137D01*
X114192304Y-95030141D01*
X114192723Y-95033322D01*
X114193951Y-95036287D01*
X114193952Y-95036290D01*
X114245501Y-95160740D01*
X114250359Y-95172468D01*
X114252311Y-95175012D01*
X114252314Y-95175017D01*
X114308822Y-95248658D01*
X114342045Y-95291955D01*
X114344593Y-95293910D01*
X114458982Y-95381685D01*
X114458985Y-95381687D01*
X114461532Y-95383641D01*
X114600678Y-95441277D01*
X114712508Y-95456000D01*
X114785892Y-95456000D01*
X114787492Y-95456000D01*
X114899322Y-95441277D01*
X115038468Y-95383641D01*
X115157955Y-95291955D01*
X115249641Y-95172468D01*
X115307277Y-95033322D01*
X115318905Y-94945000D01*
X119944592Y-94945000D01*
X119945534Y-94949736D01*
X119963092Y-95038007D01*
X119963093Y-95038009D01*
X119964034Y-95042740D01*
X119966713Y-95046750D01*
X119966714Y-95046751D01*
X120012974Y-95115986D01*
X120019399Y-95125601D01*
X120102260Y-95180966D01*
X120200000Y-95200408D01*
X120219939Y-95196441D01*
X120229497Y-95195500D01*
X121870503Y-95195500D01*
X121880060Y-95196441D01*
X121900000Y-95200408D01*
X121997741Y-95180966D01*
X122034177Y-95156620D01*
X122080601Y-95125601D01*
X122091900Y-95108689D01*
X122097989Y-95101269D01*
X129110327Y-88088931D01*
X129117747Y-88082842D01*
X129134659Y-88071543D01*
X129190024Y-87988682D01*
X129204558Y-87915616D01*
X129204558Y-87915615D01*
X129207893Y-87898852D01*
X129208524Y-87895678D01*
X129209466Y-87890942D01*
X129205499Y-87871004D01*
X129204558Y-87861445D01*
X129204558Y-84699500D01*
X129218910Y-84664852D01*
X129253558Y-84650500D01*
X134522264Y-84650500D01*
X134524674Y-84650500D01*
X134597740Y-84635966D01*
X134609863Y-84627866D01*
X134648778Y-84601865D01*
X134682396Y-84594026D01*
X134712840Y-84610299D01*
X134725000Y-84642607D01*
X134725000Y-84722185D01*
X134720439Y-84739195D01*
X134721646Y-84739635D01*
X134720179Y-84743662D01*
X134718037Y-84747374D01*
X134699941Y-84850000D01*
X134718037Y-84952626D01*
X134720180Y-84956338D01*
X134721646Y-84960365D01*
X134720439Y-84960804D01*
X134725000Y-84977815D01*
X134725000Y-86081419D01*
X134724256Y-86089928D01*
X134705985Y-86193549D01*
X134704500Y-86201969D01*
X134704500Y-86264618D01*
X134704500Y-97667712D01*
X134704500Y-97700000D01*
X134704500Y-97798031D01*
X134704870Y-97800134D01*
X134704871Y-97800136D01*
X134738174Y-97989009D01*
X134738176Y-97989018D01*
X134738546Y-97991114D01*
X134739275Y-97993118D01*
X134739277Y-97993124D01*
X134759169Y-98047777D01*
X134805603Y-98175353D01*
X134903634Y-98345147D01*
X134905011Y-98346789D01*
X134905016Y-98346795D01*
X134975906Y-98431278D01*
X135029660Y-98495340D01*
X135031300Y-98496716D01*
X135178204Y-98619983D01*
X135178208Y-98619986D01*
X135179853Y-98621366D01*
X135349647Y-98719397D01*
X135533886Y-98786454D01*
X135726969Y-98820500D01*
X135789618Y-98820500D01*
X135825000Y-98820500D01*
X135857288Y-98820500D01*
X141297712Y-98820500D01*
X141347325Y-98820500D01*
X141425890Y-98820500D01*
X141428031Y-98820500D01*
X141540071Y-98800744D01*
X141548581Y-98800000D01*
X143931419Y-98800000D01*
X143939928Y-98800744D01*
X144051969Y-98820500D01*
X144114618Y-98820500D01*
X144150000Y-98820500D01*
X144182288Y-98820500D01*
X148992712Y-98820500D01*
X149042325Y-98820500D01*
X149120890Y-98820500D01*
X149123031Y-98820500D01*
X149316114Y-98786454D01*
X149500353Y-98719397D01*
X149670147Y-98621366D01*
X149820340Y-98495340D01*
X149946366Y-98345147D01*
X150044397Y-98175353D01*
X150111454Y-97991114D01*
X150145500Y-97798031D01*
X150145500Y-97700000D01*
X150145500Y-97667712D01*
X150145500Y-92689782D01*
X150145495Y-92689766D01*
X150145493Y-92689732D01*
X150145493Y-92650003D01*
X150145494Y-92609077D01*
X150115743Y-92440352D01*
X150115000Y-92431844D01*
X150115000Y-91668444D01*
X150115744Y-91659935D01*
X150124315Y-91611326D01*
X150125059Y-91607107D01*
X150115744Y-91554279D01*
X150115000Y-91545770D01*
X150115000Y-91048444D01*
X150115744Y-91039935D01*
X150124315Y-90991326D01*
X150125059Y-90987107D01*
X150115744Y-90934279D01*
X150115000Y-90925770D01*
X150115000Y-90162390D01*
X150115744Y-90153881D01*
X150125042Y-90101149D01*
X150145499Y-89985138D01*
X150145500Y-89887108D01*
X150145500Y-89854820D01*
X150145500Y-80057675D01*
X150145500Y-79976969D01*
X150111454Y-79783886D01*
X150044397Y-79599647D01*
X149946366Y-79429853D01*
X149944986Y-79428208D01*
X149944983Y-79428204D01*
X149821716Y-79281300D01*
X149820340Y-79279660D01*
X149818699Y-79278283D01*
X149671795Y-79155016D01*
X149671789Y-79155011D01*
X149670147Y-79153634D01*
X149500353Y-79055603D01*
X149498345Y-79054872D01*
X149318124Y-78989277D01*
X149318118Y-78989275D01*
X149316114Y-78988546D01*
X149314018Y-78988176D01*
X149314009Y-78988174D01*
X149125136Y-78954871D01*
X149125134Y-78954870D01*
X149123031Y-78954500D01*
X149120890Y-78954500D01*
X142992161Y-78954500D01*
X142982338Y-78953505D01*
X142973847Y-78951767D01*
X142973844Y-78951767D01*
X142967525Y-78950474D01*
X142961405Y-78952514D01*
X142939838Y-78959703D01*
X142938150Y-78960232D01*
X142911825Y-78967962D01*
X142911822Y-78967963D01*
X142907103Y-78969349D01*
X142905823Y-78970825D01*
X142904993Y-78971221D01*
X142884645Y-78977943D01*
X142851598Y-78977116D01*
X142826596Y-78955489D01*
X142821020Y-78922905D01*
X142824315Y-78904222D01*
X142824315Y-78904219D01*
X142825059Y-78900000D01*
X142806963Y-78797374D01*
X142754859Y-78707126D01*
X142751575Y-78704370D01*
X142751574Y-78704369D01*
X142678312Y-78642895D01*
X142675030Y-78640141D01*
X142671004Y-78638675D01*
X142671003Y-78638675D01*
X142598731Y-78612371D01*
X142577105Y-78604500D01*
X142472895Y-78604500D01*
X142468864Y-78605966D01*
X142468864Y-78605967D01*
X142378997Y-78638675D01*
X142378993Y-78638676D01*
X142374971Y-78640141D01*
X142371690Y-78642893D01*
X142371688Y-78642895D01*
X142298425Y-78704369D01*
X142298421Y-78704373D01*
X142295141Y-78707126D01*
X142292998Y-78710837D01*
X142292996Y-78710840D01*
X142245180Y-78793661D01*
X142245178Y-78793664D01*
X142243037Y-78797374D01*
X142224941Y-78900000D01*
X142225685Y-78904219D01*
X142225685Y-78904221D01*
X142228980Y-78922910D01*
X142223402Y-78955493D01*
X142198399Y-78977119D01*
X142165352Y-78977944D01*
X142133196Y-78967320D01*
X142122079Y-78962017D01*
X142116309Y-78958309D01*
X142116306Y-78958308D01*
X142110382Y-78954501D01*
X142103336Y-78954500D01*
X142103335Y-78954500D01*
X142102500Y-78954500D01*
X142091232Y-78952671D01*
X142088591Y-78952512D01*
X142082475Y-78950474D01*
X142076158Y-78951766D01*
X142076156Y-78951766D01*
X142067654Y-78953506D01*
X142057833Y-78954500D01*
X135857288Y-78954500D01*
X135825000Y-78954500D01*
X135726969Y-78954500D01*
X135724866Y-78954870D01*
X135724863Y-78954871D01*
X135535990Y-78988174D01*
X135535979Y-78988176D01*
X135533886Y-78988546D01*
X135531884Y-78989274D01*
X135531875Y-78989277D01*
X135351654Y-79054872D01*
X135351648Y-79054874D01*
X135349647Y-79055603D01*
X135347797Y-79056670D01*
X135347795Y-79056672D01*
X135181714Y-79152559D01*
X135181709Y-79152562D01*
X135179853Y-79153634D01*
X135178215Y-79155007D01*
X135178204Y-79155016D01*
X135031300Y-79278283D01*
X135031294Y-79278288D01*
X135029660Y-79279660D01*
X135028288Y-79281294D01*
X135028283Y-79281300D01*
X134905016Y-79428204D01*
X134905007Y-79428215D01*
X134903634Y-79429853D01*
X134902562Y-79431709D01*
X134902559Y-79431714D01*
X134845312Y-79530869D01*
X134805603Y-79599647D01*
X134804874Y-79601648D01*
X134804872Y-79601654D01*
X134739277Y-79781875D01*
X134739274Y-79781884D01*
X134738546Y-79783886D01*
X134738176Y-79785979D01*
X134738174Y-79785990D01*
X134710366Y-79943700D01*
X134704500Y-79976969D01*
X134704500Y-80039618D01*
X134704500Y-83317712D01*
X134704500Y-83350000D01*
X134704500Y-83448031D01*
X134704870Y-83450134D01*
X134704871Y-83450136D01*
X134724256Y-83560072D01*
X134725000Y-83568581D01*
X134725000Y-84157393D01*
X134712840Y-84189701D01*
X134682396Y-84205974D01*
X134648778Y-84198135D01*
X134601754Y-84166715D01*
X134601749Y-84166713D01*
X134597740Y-84164034D01*
X134593009Y-84163093D01*
X134593007Y-84163092D01*
X134527039Y-84149970D01*
X134527034Y-84149969D01*
X134524674Y-84149500D01*
X134522264Y-84149500D01*
X128616557Y-84149500D01*
X128581909Y-84135148D01*
X126313830Y-81867069D01*
X123931441Y-79484681D01*
X123917620Y-79457224D01*
X123922875Y-79426939D01*
X123962396Y-79353001D01*
X124016747Y-79173831D01*
X124035099Y-78987500D01*
X124016747Y-78801169D01*
X123962396Y-78621999D01*
X123874136Y-78456875D01*
X123755357Y-78312143D01*
X123610625Y-78193364D01*
X123583003Y-78178600D01*
X123447630Y-78106242D01*
X123445501Y-78105104D01*
X123443193Y-78104404D01*
X123443191Y-78104403D01*
X123365276Y-78080768D01*
X123340143Y-78063067D01*
X123330500Y-78033878D01*
X123330500Y-77447000D01*
X123344852Y-77412352D01*
X123379500Y-77398000D01*
X123711484Y-77398000D01*
X123713260Y-77398000D01*
X123781393Y-77388073D01*
X123886483Y-77336698D01*
X123969198Y-77253983D01*
X124020573Y-77148893D01*
X124030500Y-77080760D01*
X124030500Y-75814240D01*
X124020573Y-75746107D01*
X123969198Y-75641017D01*
X123886483Y-75558302D01*
X123838228Y-75534712D01*
X123784812Y-75508598D01*
X123784809Y-75508597D01*
X123781393Y-75506927D01*
X123777628Y-75506378D01*
X123777627Y-75506378D01*
X123715017Y-75497256D01*
X123713260Y-75497000D01*
X122446740Y-75497000D01*
X122444983Y-75497255D01*
X122444982Y-75497256D01*
X122382372Y-75506378D01*
X122382369Y-75506378D01*
X122378607Y-75506927D01*
X122375192Y-75508596D01*
X122375187Y-75508598D01*
X122277166Y-75556518D01*
X122273517Y-75558302D01*
X122270646Y-75561172D01*
X122270643Y-75561175D01*
X122193675Y-75638143D01*
X122193672Y-75638146D01*
X122190802Y-75641017D01*
X122189018Y-75644665D01*
X122189018Y-75644666D01*
X122141098Y-75742687D01*
X122141096Y-75742692D01*
X122139427Y-75746107D01*
X122138878Y-75749869D01*
X122138878Y-75749872D01*
X122135362Y-75774005D01*
X122129500Y-75814240D01*
X122129500Y-77080760D01*
X122129756Y-77082517D01*
X122135633Y-77122857D01*
X122139427Y-77148893D01*
X122141097Y-77152309D01*
X122141098Y-77152312D01*
X122156791Y-77184412D01*
X122190802Y-77253983D01*
X122273517Y-77336698D01*
X122378607Y-77388073D01*
X122446740Y-77398000D01*
X122780500Y-77398000D01*
X122815148Y-77412352D01*
X122829500Y-77447000D01*
X122829500Y-78033878D01*
X122819857Y-78063067D01*
X122794724Y-78080768D01*
X122716808Y-78104403D01*
X122716802Y-78104405D01*
X122714499Y-78105104D01*
X122712373Y-78106240D01*
X122712369Y-78106242D01*
X122551499Y-78192228D01*
X122551493Y-78192231D01*
X122549375Y-78193364D01*
X122547518Y-78194887D01*
X122547512Y-78194892D01*
X122406505Y-78310614D01*
X122406500Y-78310618D01*
X122404643Y-78312143D01*
X122403118Y-78314000D01*
X122403114Y-78314005D01*
X122287392Y-78455012D01*
X122287387Y-78455018D01*
X122285864Y-78456875D01*
X122284731Y-78458993D01*
X122284728Y-78458999D01*
X122198742Y-78619869D01*
X122198740Y-78619873D01*
X122197604Y-78621999D01*
X122196905Y-78624302D01*
X122196903Y-78624308D01*
X122143950Y-78798868D01*
X122143948Y-78798877D01*
X122143253Y-78801169D01*
X122143017Y-78803556D01*
X122143017Y-78803561D01*
X122129723Y-78938537D01*
X122124901Y-78987500D01*
X122125137Y-78989896D01*
X122141263Y-79153634D01*
X122143253Y-79173831D01*
X122143948Y-79176124D01*
X122143950Y-79176131D01*
X122194789Y-79343722D01*
X122197604Y-79353001D01*
X122285864Y-79518125D01*
X122404643Y-79662857D01*
X122549375Y-79781636D01*
X122714499Y-79869896D01*
X122893669Y-79924247D01*
X123080000Y-79942599D01*
X123266331Y-79924247D01*
X123445501Y-79869896D01*
X123519439Y-79830375D01*
X123549724Y-79825120D01*
X123577181Y-79838941D01*
X128236567Y-84498328D01*
X128236569Y-84498329D01*
X128236572Y-84498332D01*
X128294506Y-84556266D01*
X128300600Y-84563691D01*
X128311899Y-84580601D01*
X128353350Y-84608297D01*
X128394759Y-84635966D01*
X128492500Y-84655408D01*
X128512439Y-84651441D01*
X128521997Y-84650500D01*
X128654558Y-84650500D01*
X128689206Y-84664852D01*
X128703558Y-84699500D01*
X128703558Y-87766886D01*
X128689206Y-87801534D01*
X121810592Y-94680148D01*
X121775944Y-94694500D01*
X120229497Y-94694500D01*
X120219939Y-94693558D01*
X120200000Y-94689592D01*
X120195264Y-94690534D01*
X120106992Y-94708092D01*
X120106988Y-94708093D01*
X120102260Y-94709034D01*
X120098250Y-94711712D01*
X120098248Y-94711714D01*
X120023410Y-94761718D01*
X120023407Y-94761720D01*
X120019399Y-94764399D01*
X120016720Y-94768407D01*
X120016718Y-94768410D01*
X119966714Y-94843248D01*
X119966712Y-94843250D01*
X119964034Y-94847260D01*
X119963093Y-94851988D01*
X119963092Y-94851992D01*
X119953512Y-94900155D01*
X119944592Y-94945000D01*
X115318905Y-94945000D01*
X115326936Y-94884000D01*
X115307277Y-94734678D01*
X115249641Y-94595532D01*
X115247687Y-94592985D01*
X115247685Y-94592982D01*
X115159910Y-94478593D01*
X115157955Y-94476045D01*
X115123485Y-94449595D01*
X115041017Y-94386314D01*
X115041012Y-94386311D01*
X115038468Y-94384359D01*
X114954480Y-94349570D01*
X114902290Y-94327952D01*
X114902287Y-94327951D01*
X114899322Y-94326723D01*
X114896141Y-94326304D01*
X114896137Y-94326303D01*
X114789076Y-94312208D01*
X114789067Y-94312207D01*
X114787492Y-94312000D01*
X114712508Y-94312000D01*
X114710933Y-94312207D01*
X114710923Y-94312208D01*
X114603862Y-94326303D01*
X114603856Y-94326304D01*
X114600678Y-94326723D01*
X114597714Y-94327950D01*
X114597709Y-94327952D01*
X114464500Y-94383129D01*
X114464496Y-94383131D01*
X114461532Y-94384359D01*
X114458990Y-94386308D01*
X114458982Y-94386314D01*
X114344593Y-94474089D01*
X114344589Y-94474092D01*
X114342045Y-94476045D01*
X114340092Y-94478589D01*
X114340089Y-94478593D01*
X114252314Y-94592982D01*
X114252308Y-94592990D01*
X114250359Y-94595532D01*
X114249131Y-94598496D01*
X114249129Y-94598500D01*
X114193952Y-94731709D01*
X114193950Y-94731714D01*
X114192723Y-94734678D01*
X114192304Y-94737856D01*
X114192303Y-94737862D01*
X114176925Y-94854670D01*
X114173064Y-94884000D01*
X100120500Y-94884000D01*
X100120500Y-93416945D01*
X115387018Y-93416945D01*
X115387312Y-93419122D01*
X115387313Y-93419124D01*
X115417268Y-93640263D01*
X115417269Y-93640268D01*
X115417563Y-93642437D01*
X115418238Y-93644514D01*
X115418240Y-93644523D01*
X115467508Y-93796152D01*
X115487880Y-93858851D01*
X115488917Y-93860779D01*
X115488921Y-93860787D01*
X115594670Y-94057301D01*
X115594674Y-94057308D01*
X115595710Y-94059232D01*
X115597075Y-94060944D01*
X115597076Y-94060945D01*
X115704660Y-94195852D01*
X115737585Y-94237138D01*
X115908948Y-94386853D01*
X116104289Y-94503564D01*
X116317330Y-94583520D01*
X116541224Y-94624150D01*
X116710671Y-94624150D01*
X116711775Y-94624150D01*
X116881635Y-94608862D01*
X117100986Y-94548325D01*
X117306003Y-94449595D01*
X117490095Y-94315843D01*
X117647347Y-94151371D01*
X117772705Y-93961463D01*
X117862138Y-93752223D01*
X117912773Y-93530377D01*
X117917867Y-93416945D01*
X118562018Y-93416945D01*
X118562312Y-93419122D01*
X118562313Y-93419124D01*
X118592268Y-93640263D01*
X118592269Y-93640268D01*
X118592563Y-93642437D01*
X118593238Y-93644514D01*
X118593240Y-93644523D01*
X118642508Y-93796152D01*
X118662880Y-93858851D01*
X118663917Y-93860779D01*
X118663921Y-93860787D01*
X118769670Y-94057301D01*
X118769674Y-94057308D01*
X118770710Y-94059232D01*
X118772075Y-94060944D01*
X118772076Y-94060945D01*
X118879660Y-94195852D01*
X118912585Y-94237138D01*
X119083948Y-94386853D01*
X119279289Y-94503564D01*
X119492330Y-94583520D01*
X119716224Y-94624150D01*
X119885671Y-94624150D01*
X119886775Y-94624150D01*
X120056635Y-94608862D01*
X120275986Y-94548325D01*
X120481003Y-94449595D01*
X120665095Y-94315843D01*
X120822347Y-94151371D01*
X120947705Y-93961463D01*
X121037138Y-93752223D01*
X121087773Y-93530377D01*
X121097982Y-93303055D01*
X121067437Y-93077563D01*
X120997120Y-92861149D01*
X120996078Y-92859212D01*
X120890329Y-92662698D01*
X120890326Y-92662694D01*
X120889290Y-92660768D01*
X120747415Y-92482862D01*
X120744711Y-92480500D01*
X120577707Y-92334593D01*
X120576052Y-92333147D01*
X120466887Y-92267924D01*
X120382601Y-92217565D01*
X120382599Y-92217564D01*
X120380711Y-92216436D01*
X120336998Y-92200030D01*
X120169736Y-92137255D01*
X120169732Y-92137253D01*
X120167670Y-92136480D01*
X120165510Y-92136088D01*
X120165503Y-92136086D01*
X119945938Y-92096242D01*
X119945934Y-92096241D01*
X119943776Y-92095850D01*
X119773225Y-92095850D01*
X119772144Y-92095947D01*
X119772128Y-92095948D01*
X119605552Y-92110941D01*
X119605550Y-92110941D01*
X119603365Y-92111138D01*
X119601256Y-92111719D01*
X119601245Y-92111722D01*
X119386131Y-92171090D01*
X119386123Y-92171092D01*
X119384014Y-92171675D01*
X119382046Y-92172622D01*
X119382037Y-92172626D01*
X119180976Y-92269451D01*
X119180967Y-92269456D01*
X119178997Y-92270405D01*
X119177228Y-92271690D01*
X119177220Y-92271695D01*
X118996683Y-92402864D01*
X118996674Y-92402871D01*
X118994905Y-92404157D01*
X118993388Y-92405743D01*
X118993383Y-92405748D01*
X118839175Y-92567036D01*
X118839169Y-92567042D01*
X118837653Y-92568629D01*
X118836443Y-92570461D01*
X118836439Y-92570467D01*
X118713507Y-92756699D01*
X118713501Y-92756709D01*
X118712295Y-92758537D01*
X118711435Y-92760547D01*
X118711429Y-92760560D01*
X118623725Y-92965756D01*
X118623722Y-92965763D01*
X118622862Y-92967777D01*
X118622374Y-92969910D01*
X118622372Y-92969920D01*
X118572717Y-93187475D01*
X118572227Y-93189623D01*
X118572128Y-93191814D01*
X118572128Y-93191819D01*
X118562116Y-93414747D01*
X118562116Y-93414754D01*
X118562018Y-93416945D01*
X117917867Y-93416945D01*
X117922982Y-93303055D01*
X117892437Y-93077563D01*
X117822120Y-92861149D01*
X117821078Y-92859212D01*
X117715329Y-92662698D01*
X117715326Y-92662694D01*
X117714290Y-92660768D01*
X117572415Y-92482862D01*
X117569711Y-92480500D01*
X117402707Y-92334593D01*
X117401052Y-92333147D01*
X117291887Y-92267924D01*
X117207601Y-92217565D01*
X117207599Y-92217564D01*
X117205711Y-92216436D01*
X117161998Y-92200030D01*
X116994736Y-92137255D01*
X116994732Y-92137253D01*
X116992670Y-92136480D01*
X116990510Y-92136088D01*
X116990503Y-92136086D01*
X116770938Y-92096242D01*
X116770934Y-92096241D01*
X116768776Y-92095850D01*
X116598225Y-92095850D01*
X116597144Y-92095947D01*
X116597128Y-92095948D01*
X116430552Y-92110941D01*
X116430550Y-92110941D01*
X116428365Y-92111138D01*
X116426256Y-92111719D01*
X116426245Y-92111722D01*
X116211131Y-92171090D01*
X116211123Y-92171092D01*
X116209014Y-92171675D01*
X116207046Y-92172622D01*
X116207037Y-92172626D01*
X116005976Y-92269451D01*
X116005967Y-92269456D01*
X116003997Y-92270405D01*
X116002228Y-92271690D01*
X116002220Y-92271695D01*
X115821683Y-92402864D01*
X115821674Y-92402871D01*
X115819905Y-92404157D01*
X115818388Y-92405743D01*
X115818383Y-92405748D01*
X115664175Y-92567036D01*
X115664169Y-92567042D01*
X115662653Y-92568629D01*
X115661443Y-92570461D01*
X115661439Y-92570467D01*
X115538507Y-92756699D01*
X115538501Y-92756709D01*
X115537295Y-92758537D01*
X115536435Y-92760547D01*
X115536429Y-92760560D01*
X115448725Y-92965756D01*
X115448722Y-92965763D01*
X115447862Y-92967777D01*
X115447374Y-92969910D01*
X115447372Y-92969920D01*
X115397717Y-93187475D01*
X115397227Y-93189623D01*
X115397128Y-93191814D01*
X115397128Y-93191819D01*
X115387116Y-93414747D01*
X115387116Y-93414754D01*
X115387018Y-93416945D01*
X100120500Y-93416945D01*
X100120500Y-92000000D01*
X122944592Y-92000000D01*
X122945534Y-92004736D01*
X122963092Y-92093007D01*
X122963093Y-92093009D01*
X122964034Y-92097740D01*
X122966713Y-92101750D01*
X122966714Y-92101751D01*
X123016310Y-92175979D01*
X123019399Y-92180601D01*
X123102260Y-92235966D01*
X123200000Y-92255408D01*
X123297740Y-92235966D01*
X123380601Y-92180601D01*
X123435966Y-92097740D01*
X123455408Y-92000000D01*
X123435966Y-91902260D01*
X123380601Y-91819399D01*
X123368466Y-91811291D01*
X123301751Y-91766714D01*
X123301750Y-91766713D01*
X123297740Y-91764034D01*
X123293009Y-91763093D01*
X123293007Y-91763092D01*
X123204736Y-91745534D01*
X123200000Y-91744592D01*
X123195264Y-91745534D01*
X123106992Y-91763092D01*
X123106988Y-91763093D01*
X123102260Y-91764034D01*
X123098250Y-91766712D01*
X123098248Y-91766714D01*
X123023410Y-91816718D01*
X123023407Y-91816720D01*
X123019399Y-91819399D01*
X123016720Y-91823407D01*
X123016718Y-91823410D01*
X122966714Y-91898248D01*
X122966712Y-91898250D01*
X122964034Y-91902260D01*
X122963093Y-91906988D01*
X122963092Y-91906992D01*
X122947546Y-91985147D01*
X122944592Y-92000000D01*
X100120500Y-92000000D01*
X100120500Y-79724411D01*
X112291259Y-79724411D01*
X112294348Y-79728874D01*
X112376627Y-79796399D01*
X112380614Y-79799063D01*
X112544871Y-79886860D01*
X112549310Y-79888699D01*
X112727546Y-79942767D01*
X112732239Y-79943700D01*
X112917604Y-79961957D01*
X112922396Y-79961957D01*
X113107760Y-79943700D01*
X113112453Y-79942767D01*
X113290689Y-79888699D01*
X113295128Y-79886860D01*
X113459386Y-79799062D01*
X113463369Y-79796401D01*
X113545653Y-79728871D01*
X113548739Y-79724412D01*
X113548738Y-79724411D01*
X114831259Y-79724411D01*
X114834348Y-79728874D01*
X114916627Y-79796399D01*
X114920614Y-79799063D01*
X115084871Y-79886860D01*
X115089310Y-79888699D01*
X115267546Y-79942767D01*
X115272239Y-79943700D01*
X115457604Y-79961957D01*
X115462396Y-79961957D01*
X115647760Y-79943700D01*
X115652453Y-79942767D01*
X115830689Y-79888699D01*
X115835128Y-79886860D01*
X115999386Y-79799062D01*
X116003369Y-79796401D01*
X116085653Y-79728871D01*
X116088739Y-79724412D01*
X116086104Y-79719670D01*
X115466892Y-79100458D01*
X115460000Y-79097603D01*
X115453107Y-79100458D01*
X114833894Y-79719670D01*
X114831259Y-79724411D01*
X113548738Y-79724411D01*
X113546104Y-79719670D01*
X112926892Y-79100458D01*
X112920000Y-79097603D01*
X112913107Y-79100458D01*
X112293894Y-79719670D01*
X112291259Y-79724411D01*
X100120500Y-79724411D01*
X100120500Y-78989896D01*
X111945543Y-78989896D01*
X111963799Y-79175260D01*
X111964732Y-79179953D01*
X112018800Y-79358189D01*
X112020639Y-79362628D01*
X112108436Y-79526885D01*
X112111100Y-79530872D01*
X112178624Y-79613150D01*
X112183087Y-79616239D01*
X112187828Y-79613604D01*
X112809372Y-78992061D01*
X112812005Y-78987500D01*
X112812004Y-78987499D01*
X113030103Y-78987499D01*
X113032958Y-78994392D01*
X113652170Y-79613604D01*
X113656912Y-79616239D01*
X113661371Y-79613153D01*
X113728901Y-79530869D01*
X113731562Y-79526886D01*
X113819360Y-79362628D01*
X113821199Y-79358189D01*
X113875267Y-79179953D01*
X113876200Y-79175260D01*
X113894457Y-78989896D01*
X114485543Y-78989896D01*
X114503799Y-79175260D01*
X114504732Y-79179953D01*
X114558800Y-79358189D01*
X114560639Y-79362628D01*
X114648436Y-79526885D01*
X114651100Y-79530872D01*
X114718624Y-79613150D01*
X114723087Y-79616239D01*
X114727828Y-79613604D01*
X115349372Y-78992061D01*
X115352005Y-78987500D01*
X115352004Y-78987499D01*
X115570103Y-78987499D01*
X115572958Y-78994392D01*
X116192170Y-79613604D01*
X116196912Y-79616239D01*
X116201371Y-79613153D01*
X116268901Y-79530869D01*
X116271562Y-79526886D01*
X116359360Y-79362628D01*
X116361199Y-79358189D01*
X116415267Y-79179953D01*
X116416200Y-79175260D01*
X116434457Y-78989896D01*
X116434457Y-78987500D01*
X117044901Y-78987500D01*
X117045137Y-78989896D01*
X117061263Y-79153634D01*
X117063253Y-79173831D01*
X117063948Y-79176124D01*
X117063950Y-79176131D01*
X117114789Y-79343722D01*
X117117604Y-79353001D01*
X117205864Y-79518125D01*
X117324643Y-79662857D01*
X117469375Y-79781636D01*
X117634499Y-79869896D01*
X117813669Y-79924247D01*
X118000000Y-79942599D01*
X118186331Y-79924247D01*
X118365501Y-79869896D01*
X118530625Y-79781636D01*
X118675357Y-79662857D01*
X118794136Y-79518125D01*
X118882396Y-79353001D01*
X118936747Y-79173831D01*
X118955099Y-78987500D01*
X119584901Y-78987500D01*
X119585137Y-78989896D01*
X119601263Y-79153634D01*
X119603253Y-79173831D01*
X119603948Y-79176124D01*
X119603950Y-79176131D01*
X119654789Y-79343722D01*
X119657604Y-79353001D01*
X119745864Y-79518125D01*
X119864643Y-79662857D01*
X120009375Y-79781636D01*
X120174499Y-79869896D01*
X120353669Y-79924247D01*
X120540000Y-79942599D01*
X120726331Y-79924247D01*
X120905501Y-79869896D01*
X121070625Y-79781636D01*
X121215357Y-79662857D01*
X121334136Y-79518125D01*
X121422396Y-79353001D01*
X121476747Y-79173831D01*
X121495099Y-78987500D01*
X121476747Y-78801169D01*
X121422396Y-78621999D01*
X121334136Y-78456875D01*
X121215357Y-78312143D01*
X121070625Y-78193364D01*
X121043003Y-78178600D01*
X120907630Y-78106242D01*
X120905501Y-78105104D01*
X120903193Y-78104403D01*
X120903191Y-78104403D01*
X120728631Y-78051450D01*
X120728624Y-78051448D01*
X120726331Y-78050753D01*
X120723941Y-78050517D01*
X120723938Y-78050517D01*
X120542396Y-78032637D01*
X120540000Y-78032401D01*
X120537604Y-78032637D01*
X120356061Y-78050517D01*
X120356056Y-78050517D01*
X120353669Y-78050753D01*
X120351377Y-78051448D01*
X120351368Y-78051450D01*
X120176808Y-78104403D01*
X120176802Y-78104405D01*
X120174499Y-78105104D01*
X120172373Y-78106240D01*
X120172369Y-78106242D01*
X120011499Y-78192228D01*
X120011493Y-78192231D01*
X120009375Y-78193364D01*
X120007518Y-78194887D01*
X120007512Y-78194892D01*
X119866505Y-78310614D01*
X119866500Y-78310618D01*
X119864643Y-78312143D01*
X119863118Y-78314000D01*
X119863114Y-78314005D01*
X119747392Y-78455012D01*
X119747387Y-78455018D01*
X119745864Y-78456875D01*
X119744731Y-78458993D01*
X119744728Y-78458999D01*
X119658742Y-78619869D01*
X119658740Y-78619873D01*
X119657604Y-78621999D01*
X119656905Y-78624302D01*
X119656903Y-78624308D01*
X119603950Y-78798868D01*
X119603948Y-78798877D01*
X119603253Y-78801169D01*
X119603017Y-78803556D01*
X119603017Y-78803561D01*
X119589723Y-78938537D01*
X119584901Y-78987500D01*
X118955099Y-78987500D01*
X118936747Y-78801169D01*
X118882396Y-78621999D01*
X118794136Y-78456875D01*
X118675357Y-78312143D01*
X118530625Y-78193364D01*
X118503003Y-78178600D01*
X118367630Y-78106242D01*
X118365501Y-78105104D01*
X118363193Y-78104403D01*
X118363191Y-78104403D01*
X118188631Y-78051450D01*
X118188624Y-78051448D01*
X118186331Y-78050753D01*
X118183941Y-78050517D01*
X118183938Y-78050517D01*
X118002396Y-78032637D01*
X118000000Y-78032401D01*
X117997604Y-78032637D01*
X117816061Y-78050517D01*
X117816056Y-78050517D01*
X117813669Y-78050753D01*
X117811377Y-78051448D01*
X117811368Y-78051450D01*
X117636808Y-78104403D01*
X117636802Y-78104405D01*
X117634499Y-78105104D01*
X117632373Y-78106240D01*
X117632369Y-78106242D01*
X117471499Y-78192228D01*
X117471493Y-78192231D01*
X117469375Y-78193364D01*
X117467518Y-78194887D01*
X117467512Y-78194892D01*
X117326505Y-78310614D01*
X117326500Y-78310618D01*
X117324643Y-78312143D01*
X117323118Y-78314000D01*
X117323114Y-78314005D01*
X117207392Y-78455012D01*
X117207387Y-78455018D01*
X117205864Y-78456875D01*
X117204731Y-78458993D01*
X117204728Y-78458999D01*
X117118742Y-78619869D01*
X117118740Y-78619873D01*
X117117604Y-78621999D01*
X117116905Y-78624302D01*
X117116903Y-78624308D01*
X117063950Y-78798868D01*
X117063948Y-78798877D01*
X117063253Y-78801169D01*
X117063017Y-78803556D01*
X117063017Y-78803561D01*
X117049723Y-78938537D01*
X117044901Y-78987500D01*
X116434457Y-78987500D01*
X116434457Y-78985104D01*
X116416200Y-78799739D01*
X116415267Y-78795046D01*
X116361199Y-78616810D01*
X116359360Y-78612371D01*
X116271563Y-78448114D01*
X116268899Y-78444127D01*
X116201374Y-78361848D01*
X116196911Y-78358759D01*
X116192170Y-78361394D01*
X115572958Y-78980607D01*
X115570103Y-78987499D01*
X115352004Y-78987499D01*
X115349372Y-78982938D01*
X114727828Y-78361394D01*
X114723087Y-78358759D01*
X114718625Y-78361847D01*
X114651098Y-78444129D01*
X114648436Y-78448115D01*
X114560639Y-78612371D01*
X114558800Y-78616810D01*
X114504732Y-78795046D01*
X114503799Y-78799739D01*
X114485543Y-78985104D01*
X114485543Y-78989896D01*
X113894457Y-78989896D01*
X113894457Y-78985104D01*
X113876200Y-78799739D01*
X113875267Y-78795046D01*
X113821199Y-78616810D01*
X113819360Y-78612371D01*
X113731563Y-78448114D01*
X113728899Y-78444127D01*
X113661374Y-78361848D01*
X113656911Y-78358759D01*
X113652170Y-78361394D01*
X113032958Y-78980607D01*
X113030103Y-78987499D01*
X112812004Y-78987499D01*
X112809372Y-78982938D01*
X112187828Y-78361394D01*
X112183087Y-78358759D01*
X112178625Y-78361847D01*
X112111098Y-78444129D01*
X112108436Y-78448115D01*
X112020639Y-78612371D01*
X112018800Y-78616810D01*
X111964732Y-78795046D01*
X111963799Y-78799739D01*
X111945543Y-78985104D01*
X111945543Y-78989896D01*
X100120500Y-78989896D01*
X100120500Y-78250587D01*
X112291259Y-78250587D01*
X112293894Y-78255328D01*
X112915438Y-78876872D01*
X112920000Y-78879505D01*
X112924561Y-78876872D01*
X113546104Y-78255328D01*
X113548739Y-78250587D01*
X114831259Y-78250587D01*
X114833894Y-78255328D01*
X115455438Y-78876872D01*
X115460000Y-78879505D01*
X115464561Y-78876872D01*
X116086104Y-78255328D01*
X116088739Y-78250587D01*
X116085650Y-78246124D01*
X116003372Y-78178600D01*
X115999385Y-78175936D01*
X115835128Y-78088139D01*
X115830689Y-78086300D01*
X115652453Y-78032232D01*
X115647760Y-78031299D01*
X115462396Y-78013043D01*
X115457604Y-78013043D01*
X115272239Y-78031299D01*
X115267546Y-78032232D01*
X115089310Y-78086300D01*
X115084871Y-78088139D01*
X114920615Y-78175936D01*
X114916629Y-78178598D01*
X114834347Y-78246125D01*
X114831259Y-78250587D01*
X113548739Y-78250587D01*
X113545650Y-78246124D01*
X113463372Y-78178600D01*
X113459385Y-78175936D01*
X113295128Y-78088139D01*
X113290689Y-78086300D01*
X113112453Y-78032232D01*
X113107760Y-78031299D01*
X112922396Y-78013043D01*
X112917604Y-78013043D01*
X112732239Y-78031299D01*
X112727546Y-78032232D01*
X112549310Y-78086300D01*
X112544871Y-78088139D01*
X112380615Y-78175936D01*
X112376629Y-78178598D01*
X112294347Y-78246125D01*
X112291259Y-78250587D01*
X100120500Y-78250587D01*
X100120500Y-77184411D01*
X112291259Y-77184411D01*
X112294348Y-77188874D01*
X112376627Y-77256399D01*
X112380614Y-77259063D01*
X112544871Y-77346860D01*
X112549310Y-77348699D01*
X112727546Y-77402767D01*
X112732239Y-77403700D01*
X112917604Y-77421957D01*
X112922396Y-77421957D01*
X113107760Y-77403700D01*
X113112453Y-77402767D01*
X113290689Y-77348699D01*
X113295128Y-77346860D01*
X113459386Y-77259062D01*
X113463369Y-77256401D01*
X113545653Y-77188871D01*
X113548739Y-77184412D01*
X113548738Y-77184411D01*
X114831259Y-77184411D01*
X114834348Y-77188874D01*
X114916627Y-77256399D01*
X114920614Y-77259063D01*
X115084871Y-77346860D01*
X115089310Y-77348699D01*
X115267546Y-77402767D01*
X115272239Y-77403700D01*
X115457604Y-77421957D01*
X115462396Y-77421957D01*
X115647760Y-77403700D01*
X115652453Y-77402767D01*
X115830689Y-77348699D01*
X115835128Y-77346860D01*
X115999386Y-77259062D01*
X116003369Y-77256401D01*
X116085653Y-77188871D01*
X116088739Y-77184412D01*
X116086104Y-77179670D01*
X115466892Y-76560458D01*
X115460000Y-76557603D01*
X115453107Y-76560458D01*
X114833894Y-77179670D01*
X114831259Y-77184411D01*
X113548738Y-77184411D01*
X113546104Y-77179670D01*
X112926892Y-76560458D01*
X112920000Y-76557603D01*
X112913107Y-76560458D01*
X112293894Y-77179670D01*
X112291259Y-77184411D01*
X100120500Y-77184411D01*
X100120500Y-76449896D01*
X111945543Y-76449896D01*
X111963799Y-76635260D01*
X111964732Y-76639953D01*
X112018800Y-76818189D01*
X112020639Y-76822628D01*
X112108436Y-76986885D01*
X112111100Y-76990872D01*
X112178624Y-77073150D01*
X112183087Y-77076239D01*
X112187828Y-77073604D01*
X112809372Y-76452061D01*
X112812005Y-76447500D01*
X112812004Y-76447499D01*
X113030103Y-76447499D01*
X113032958Y-76454392D01*
X113652170Y-77073604D01*
X113656912Y-77076239D01*
X113661371Y-77073153D01*
X113728901Y-76990869D01*
X113731562Y-76986886D01*
X113819360Y-76822628D01*
X113821199Y-76818189D01*
X113875267Y-76639953D01*
X113876200Y-76635260D01*
X113894457Y-76449896D01*
X114485543Y-76449896D01*
X114503799Y-76635260D01*
X114504732Y-76639953D01*
X114558800Y-76818189D01*
X114560639Y-76822628D01*
X114648436Y-76986885D01*
X114651100Y-76990872D01*
X114718624Y-77073150D01*
X114723087Y-77076239D01*
X114727828Y-77073604D01*
X115349372Y-76452061D01*
X115352005Y-76447500D01*
X115352004Y-76447499D01*
X115570103Y-76447499D01*
X115572958Y-76454392D01*
X116192170Y-77073604D01*
X116196912Y-77076239D01*
X116201371Y-77073153D01*
X116268901Y-76990869D01*
X116271562Y-76986886D01*
X116359360Y-76822628D01*
X116361199Y-76818189D01*
X116415267Y-76639953D01*
X116416200Y-76635260D01*
X116434457Y-76449896D01*
X116434457Y-76447500D01*
X117044901Y-76447500D01*
X117063253Y-76633831D01*
X117063948Y-76636124D01*
X117063950Y-76636131D01*
X117116903Y-76810691D01*
X117117604Y-76813001D01*
X117205864Y-76978125D01*
X117324643Y-77122857D01*
X117469375Y-77241636D01*
X117634499Y-77329896D01*
X117813669Y-77384247D01*
X118000000Y-77402599D01*
X118186331Y-77384247D01*
X118365501Y-77329896D01*
X118530625Y-77241636D01*
X118675357Y-77122857D01*
X118794136Y-76978125D01*
X118882396Y-76813001D01*
X118936747Y-76633831D01*
X118955099Y-76447500D01*
X119584901Y-76447500D01*
X119603253Y-76633831D01*
X119603948Y-76636124D01*
X119603950Y-76636131D01*
X119656903Y-76810691D01*
X119657604Y-76813001D01*
X119745864Y-76978125D01*
X119864643Y-77122857D01*
X120009375Y-77241636D01*
X120174499Y-77329896D01*
X120353669Y-77384247D01*
X120540000Y-77402599D01*
X120726331Y-77384247D01*
X120905501Y-77329896D01*
X121070625Y-77241636D01*
X121215357Y-77122857D01*
X121334136Y-76978125D01*
X121422396Y-76813001D01*
X121476747Y-76633831D01*
X121495099Y-76447500D01*
X121476747Y-76261169D01*
X121422396Y-76081999D01*
X121334136Y-75916875D01*
X121215357Y-75772143D01*
X121070625Y-75653364D01*
X121043003Y-75638600D01*
X120907630Y-75566242D01*
X120905501Y-75565104D01*
X120903193Y-75564403D01*
X120903191Y-75564403D01*
X120728631Y-75511450D01*
X120728624Y-75511448D01*
X120726331Y-75510753D01*
X120723941Y-75510517D01*
X120723938Y-75510517D01*
X120542396Y-75492637D01*
X120540000Y-75492401D01*
X120537604Y-75492637D01*
X120356061Y-75510517D01*
X120356056Y-75510517D01*
X120353669Y-75510753D01*
X120351377Y-75511448D01*
X120351368Y-75511450D01*
X120176808Y-75564403D01*
X120176802Y-75564405D01*
X120174499Y-75565104D01*
X120172373Y-75566240D01*
X120172369Y-75566242D01*
X120011499Y-75652228D01*
X120011493Y-75652231D01*
X120009375Y-75653364D01*
X120007518Y-75654887D01*
X120007512Y-75654892D01*
X119866505Y-75770614D01*
X119866500Y-75770618D01*
X119864643Y-75772143D01*
X119863118Y-75774000D01*
X119863114Y-75774005D01*
X119747392Y-75915012D01*
X119747387Y-75915018D01*
X119745864Y-75916875D01*
X119744731Y-75918993D01*
X119744728Y-75918999D01*
X119658742Y-76079869D01*
X119658740Y-76079873D01*
X119657604Y-76081999D01*
X119656905Y-76084302D01*
X119656903Y-76084308D01*
X119603950Y-76258868D01*
X119603948Y-76258877D01*
X119603253Y-76261169D01*
X119603017Y-76263556D01*
X119603017Y-76263561D01*
X119585754Y-76438832D01*
X119584901Y-76447500D01*
X118955099Y-76447500D01*
X118936747Y-76261169D01*
X118882396Y-76081999D01*
X118794136Y-75916875D01*
X118675357Y-75772143D01*
X118530625Y-75653364D01*
X118503003Y-75638600D01*
X118367630Y-75566242D01*
X118365501Y-75565104D01*
X118363193Y-75564403D01*
X118363191Y-75564403D01*
X118188631Y-75511450D01*
X118188624Y-75511448D01*
X118186331Y-75510753D01*
X118183941Y-75510517D01*
X118183938Y-75510517D01*
X118002396Y-75492637D01*
X118000000Y-75492401D01*
X117997604Y-75492637D01*
X117816061Y-75510517D01*
X117816056Y-75510517D01*
X117813669Y-75510753D01*
X117811377Y-75511448D01*
X117811368Y-75511450D01*
X117636808Y-75564403D01*
X117636802Y-75564405D01*
X117634499Y-75565104D01*
X117632373Y-75566240D01*
X117632369Y-75566242D01*
X117471499Y-75652228D01*
X117471493Y-75652231D01*
X117469375Y-75653364D01*
X117467518Y-75654887D01*
X117467512Y-75654892D01*
X117326505Y-75770614D01*
X117326500Y-75770618D01*
X117324643Y-75772143D01*
X117323118Y-75774000D01*
X117323114Y-75774005D01*
X117207392Y-75915012D01*
X117207387Y-75915018D01*
X117205864Y-75916875D01*
X117204731Y-75918993D01*
X117204728Y-75918999D01*
X117118742Y-76079869D01*
X117118740Y-76079873D01*
X117117604Y-76081999D01*
X117116905Y-76084302D01*
X117116903Y-76084308D01*
X117063950Y-76258868D01*
X117063948Y-76258877D01*
X117063253Y-76261169D01*
X117063017Y-76263556D01*
X117063017Y-76263561D01*
X117045754Y-76438832D01*
X117044901Y-76447500D01*
X116434457Y-76447500D01*
X116434457Y-76445104D01*
X116416200Y-76259739D01*
X116415267Y-76255046D01*
X116361199Y-76076810D01*
X116359360Y-76072371D01*
X116271563Y-75908114D01*
X116268899Y-75904127D01*
X116201374Y-75821848D01*
X116196911Y-75818759D01*
X116192170Y-75821394D01*
X115572958Y-76440607D01*
X115570103Y-76447499D01*
X115352004Y-76447499D01*
X115349372Y-76442938D01*
X114727828Y-75821394D01*
X114723087Y-75818759D01*
X114718625Y-75821847D01*
X114651098Y-75904129D01*
X114648436Y-75908115D01*
X114560639Y-76072371D01*
X114558800Y-76076810D01*
X114504732Y-76255046D01*
X114503799Y-76259739D01*
X114485543Y-76445104D01*
X114485543Y-76449896D01*
X113894457Y-76449896D01*
X113894457Y-76445104D01*
X113876200Y-76259739D01*
X113875267Y-76255046D01*
X113821199Y-76076810D01*
X113819360Y-76072371D01*
X113731563Y-75908114D01*
X113728899Y-75904127D01*
X113661374Y-75821848D01*
X113656911Y-75818759D01*
X113652170Y-75821394D01*
X113032958Y-76440607D01*
X113030103Y-76447499D01*
X112812004Y-76447499D01*
X112809372Y-76442938D01*
X112187828Y-75821394D01*
X112183087Y-75818759D01*
X112178625Y-75821847D01*
X112111098Y-75904129D01*
X112108436Y-75908115D01*
X112020639Y-76072371D01*
X112018800Y-76076810D01*
X111964732Y-76255046D01*
X111963799Y-76259739D01*
X111945543Y-76445104D01*
X111945543Y-76449896D01*
X100120500Y-76449896D01*
X100120500Y-75710587D01*
X112291259Y-75710587D01*
X112293894Y-75715328D01*
X112915438Y-76336872D01*
X112919999Y-76339505D01*
X112924561Y-76336872D01*
X113546104Y-75715328D01*
X113548739Y-75710587D01*
X114831259Y-75710587D01*
X114833894Y-75715328D01*
X115455438Y-76336872D01*
X115459999Y-76339505D01*
X115464561Y-76336872D01*
X116086104Y-75715328D01*
X116088739Y-75710587D01*
X116085650Y-75706124D01*
X116003372Y-75638600D01*
X115999385Y-75635936D01*
X115835128Y-75548139D01*
X115830689Y-75546300D01*
X115652453Y-75492232D01*
X115647760Y-75491299D01*
X115462396Y-75473043D01*
X115457604Y-75473043D01*
X115272239Y-75491299D01*
X115267546Y-75492232D01*
X115089310Y-75546300D01*
X115084871Y-75548139D01*
X114920615Y-75635936D01*
X114916629Y-75638598D01*
X114834347Y-75706125D01*
X114831259Y-75710587D01*
X113548739Y-75710587D01*
X113545650Y-75706124D01*
X113463372Y-75638600D01*
X113459385Y-75635936D01*
X113295128Y-75548139D01*
X113290689Y-75546300D01*
X113112453Y-75492232D01*
X113107760Y-75491299D01*
X112922396Y-75473043D01*
X112917604Y-75473043D01*
X112732239Y-75491299D01*
X112727546Y-75492232D01*
X112549310Y-75546300D01*
X112544871Y-75548139D01*
X112380615Y-75635936D01*
X112376629Y-75638598D01*
X112294347Y-75706125D01*
X112291259Y-75710587D01*
X100120500Y-75710587D01*
X100120500Y-65169500D01*
X100134852Y-65134852D01*
X100169500Y-65120500D01*
X159830500Y-65120500D01*
X159865148Y-65134852D01*
G37*
%TD.AperFunction*%
%TD*%
M02*
