%TF.GenerationSoftware,KiCad,Pcbnew,(7.0.0)*%
%TF.CreationDate,2023-03-15T10:57:15-04:00*%
%TF.ProjectId,headstage-neuropix2e,68656164-7374-4616-9765-2d6e6575726f,A*%
%TF.SameCoordinates,Original*%
%TF.FileFunction,Copper,L3,Inr*%
%TF.FilePolarity,Positive*%
%FSLAX46Y46*%
G04 Gerber Fmt 4.6, Leading zero omitted, Abs format (unit mm)*
G04 Created by KiCad (PCBNEW (7.0.0)) date 2023-03-15 10:57:15*
%MOMM*%
%LPD*%
G01*
G04 APERTURE LIST*
G04 Aperture macros list*
%AMRoundRect*
0 Rectangle with rounded corners*
0 $1 Rounding radius*
0 $2 $3 $4 $5 $6 $7 $8 $9 X,Y pos of 4 corners*
0 Add a 4 corners polygon primitive as box body*
4,1,4,$2,$3,$4,$5,$6,$7,$8,$9,$2,$3,0*
0 Add four circle primitives for the rounded corners*
1,1,$1+$1,$2,$3*
1,1,$1+$1,$4,$5*
1,1,$1+$1,$6,$7*
1,1,$1+$1,$8,$9*
0 Add four rect primitives between the rounded corners*
20,1,$1+$1,$2,$3,$4,$5,0*
20,1,$1+$1,$4,$5,$6,$7,0*
20,1,$1+$1,$6,$7,$8,$9,0*
20,1,$1+$1,$8,$9,$2,$3,0*%
G04 Aperture macros list end*
%TA.AperFunction,ComponentPad*%
%ADD10O,1.400000X2.600000*%
%TD*%
%TA.AperFunction,ComponentPad*%
%ADD11RoundRect,0.250000X-0.600000X0.600000X-0.600000X-0.600000X0.600000X-0.600000X0.600000X0.600000X0*%
%TD*%
%TA.AperFunction,ComponentPad*%
%ADD12C,1.700000*%
%TD*%
%TA.AperFunction,ViaPad*%
%ADD13C,0.200000*%
%TD*%
%TA.AperFunction,ViaPad*%
%ADD14C,0.300000*%
%TD*%
%TA.AperFunction,Conductor*%
%ADD15C,0.200000*%
%TD*%
%TA.AperFunction,Conductor*%
%ADD16C,0.100000*%
%TD*%
G04 APERTURE END LIST*
D10*
%TO.N,/Neuropixels 2.0/NP_{TP0}*%
%TO.C,TP2*%
X146634999Y-83419999D03*
%TD*%
%TO.N,GND*%
%TO.C,TP1*%
X144954999Y-83419999D03*
%TD*%
D11*
%TO.N,+4V*%
%TO.C,J4*%
X123080000Y-76447500D03*
D12*
X123080000Y-78987500D03*
%TO.N,/Neuropixels 2.0/SCL*%
X120540000Y-76447500D03*
X120540000Y-78987500D03*
%TO.N,/Neuropixels 2.0/SDA*%
X118000000Y-76447500D03*
X118000000Y-78987500D03*
%TO.N,GND*%
X115460000Y-76447500D03*
X115460000Y-78987500D03*
X112920000Y-76447500D03*
X112920000Y-78987500D03*
%TD*%
D13*
%TO.N,Net-(U3-MODE)*%
X141625000Y-87650000D03*
%TO.N,GND*%
X146915000Y-84930000D03*
X138835000Y-83649300D03*
X137898663Y-88881316D03*
X142125000Y-95650000D03*
X142725000Y-94750000D03*
D14*
X156300000Y-121900000D03*
D13*
X142075000Y-94750000D03*
X139870000Y-87480000D03*
X139750000Y-88050498D03*
X141615000Y-84550000D03*
X145475000Y-87550000D03*
X144000000Y-94725000D03*
X146785000Y-95970000D03*
X139445000Y-90900000D03*
X145625000Y-94100000D03*
D14*
X139900000Y-106500000D03*
D13*
X144005000Y-91150000D03*
X139415000Y-83640000D03*
X142574999Y-82474998D03*
X137915500Y-87943311D03*
X139470000Y-89250000D03*
D14*
X135640000Y-73600000D03*
D13*
X144455000Y-90760000D03*
X143185000Y-84540000D03*
X137925000Y-95200000D03*
X146925000Y-95200000D03*
X141525000Y-93720500D03*
X146680000Y-94660000D03*
X140005000Y-83700000D03*
X145275000Y-94750000D03*
X146025000Y-85130000D03*
X140362500Y-88150500D03*
X143225000Y-85400000D03*
X147035000Y-85460000D03*
X144755000Y-88270000D03*
X138306076Y-91856076D03*
X139025000Y-90250000D03*
X141607409Y-88089070D03*
X144465000Y-89370000D03*
X144525000Y-95650000D03*
X143025000Y-90500000D03*
X143925000Y-95650000D03*
X140075000Y-94775000D03*
X139165000Y-86900000D03*
X140925000Y-95650000D03*
X143025000Y-90000000D03*
X140225000Y-92510000D03*
X141975000Y-82620000D03*
X143845000Y-93830000D03*
X140325000Y-93720500D03*
X137785000Y-89620000D03*
X137810700Y-83680000D03*
X139925000Y-90200000D03*
X144755000Y-88610000D03*
X140325000Y-95650000D03*
X138525000Y-94750000D03*
D14*
X126680000Y-71747500D03*
X156700000Y-69100000D03*
X155800000Y-87500000D03*
D13*
X141225000Y-84830000D03*
X143725000Y-87600000D03*
X144565000Y-93780000D03*
X144815000Y-90110000D03*
X142775000Y-85400000D03*
X141395000Y-84090000D03*
X140462500Y-87724500D03*
X143705000Y-84520000D03*
X147010000Y-94230000D03*
X143565000Y-84070000D03*
X142475000Y-85050000D03*
X143285000Y-88250000D03*
X144185000Y-87630000D03*
X147135000Y-86480000D03*
D14*
X107600000Y-104500000D03*
X103100000Y-122100000D03*
D13*
X142725000Y-93710000D03*
X139455000Y-90190000D03*
X143025000Y-91150500D03*
X140905000Y-94725000D03*
X143880840Y-88220500D03*
X143385000Y-88770000D03*
X145125000Y-85330000D03*
X139107347Y-94319500D03*
X142165000Y-90630000D03*
D14*
X105450000Y-70470000D03*
D13*
X142725000Y-95650000D03*
X137955000Y-94170000D03*
X142355000Y-91170000D03*
D14*
X145200000Y-72300000D03*
D13*
X137975000Y-87440000D03*
D14*
X154200000Y-101500000D03*
D13*
X141625000Y-87249500D03*
D14*
X103900000Y-84800000D03*
X130200000Y-99700000D03*
D13*
X142025000Y-85450000D03*
X137781392Y-91260865D03*
X137915000Y-93180000D03*
X139725000Y-86450000D03*
%TO.N,+1V8*%
X145875500Y-91592347D03*
X139435000Y-84730000D03*
X139025000Y-89250000D03*
X146434268Y-86221264D03*
X138620290Y-88099352D03*
X144275000Y-91650500D03*
X143157963Y-86612963D03*
D14*
X140775000Y-86900000D03*
D13*
X138147595Y-92527730D03*
X146655000Y-87170000D03*
X145820230Y-89664770D03*
X138984500Y-91016076D03*
%TO.N,/Neuropixels 2.0/PCLK*%
X141625000Y-90210000D03*
X142425000Y-93150000D03*
%TO.N,/Neuropixels 2.0/SDA_{A}*%
X139040000Y-92557084D03*
X142122378Y-89995974D03*
%TO.N,+4V*%
X138640419Y-85475200D03*
D14*
X138124999Y-85890001D03*
X120200000Y-94945000D03*
D13*
X138355000Y-84600000D03*
D14*
%TO.N,/Neuropixels 2.0/SCL*%
X118000000Y-97340000D03*
D13*
X140625000Y-90625000D03*
X142235000Y-89324500D03*
X145075000Y-86100000D03*
X138735000Y-84740000D03*
X139642609Y-93772609D03*
X141234061Y-89672090D03*
%TO.N,/Neuropixels 2.0/SYNC*%
X139725000Y-95650000D03*
X145125000Y-95650000D03*
%TO.N,/Neuropixels 2.0/D7*%
X144455065Y-91149935D03*
X140025000Y-93150000D03*
%TO.N,Net-(L1-Pad2)*%
X137921788Y-84655700D03*
%TO.N,/Neuropixels 2.0/D6*%
X145075000Y-91385075D03*
X140625000Y-93150000D03*
%TO.N,/Neuropixels 2.0/D5*%
X141225000Y-93150000D03*
X145539322Y-91153783D03*
%TO.N,/Neuropixels 2.0/D4*%
X141825000Y-93150000D03*
X145855000Y-90720000D03*
%TO.N,/Neuropixels 2.0/D3*%
X143025000Y-93150000D03*
X145871150Y-90001022D03*
%TO.N,/Neuropixels 2.0/D2*%
X146185000Y-89750000D03*
X143625000Y-93150000D03*
%TO.N,/Neuropixels 2.0/D1*%
X146405000Y-89140000D03*
X144225000Y-93150000D03*
%TO.N,/Neuropixels 2.0/D0*%
X146425000Y-88650002D03*
X144825000Y-93150000D03*
D14*
%TO.N,/DC Tap & Regulation/RF+DC*%
X142525000Y-84475000D03*
D13*
%TO.N,/Neuropixels 2.0/NP_{TP0}*%
X138875000Y-94980000D03*
X146325000Y-95000000D03*
%TO.N,/Neuropixels 2.0/SDA_{B}*%
X146068576Y-93973576D03*
%TO.N,/Neuropixels 2.0/SDA*%
X142225000Y-90290000D03*
X143175250Y-87650499D03*
X145774501Y-90410000D03*
X142177262Y-88059188D03*
X141625000Y-89150000D03*
X139085000Y-84730000D03*
D14*
X123200000Y-92000000D03*
D13*
X144915000Y-85700000D03*
D14*
X125255000Y-96035000D03*
D13*
%TO.N,/Perpherials/GPIO*%
X140600000Y-82204300D03*
X146099498Y-87271944D03*
%TO.N,/Neuropixels 2.0/NP_{Select}*%
X145975500Y-86850000D03*
X145774501Y-88979500D03*
D14*
%TO.N,+2V5*%
X140375000Y-86400000D03*
D13*
X138215000Y-89990000D03*
%TO.N,Net-(U3-DOUTP)*%
X144425000Y-86449500D03*
%TO.N,Net-(U7-CAP)*%
X139483691Y-92449503D03*
%TO.N,Net-(U3-GPIO3{slash}CLKIN)*%
X145857158Y-86184021D03*
X145895000Y-87940000D03*
%TO.N,/Neuropixels 2.0/NP_{RESET}*%
X145725000Y-95650000D03*
X139125000Y-95650000D03*
X145675000Y-95046446D03*
%TO.N,+1.8VA*%
X143205000Y-93880000D03*
X141525000Y-95650000D03*
X138570000Y-91375000D03*
X143325000Y-95650000D03*
X143331424Y-92606424D03*
%TO.N,/Neuropixels 2.0/NP_{TP1}*%
X146495500Y-93475000D03*
%TO.N,/Serializer/Dout-*%
X144025000Y-85380000D03*
%TO.N,Net-(U3-VDDCML)*%
X144845000Y-87650499D03*
%TD*%
D15*
%TO.N,+1V8*%
X140775000Y-88790000D02*
X141435000Y-89450000D01*
X146655000Y-87990000D02*
X146655000Y-87170000D01*
X140775000Y-88790000D02*
X140775000Y-86900000D01*
X145795000Y-89690000D02*
X145820230Y-89664770D01*
D16*
X138984500Y-91016076D02*
X138715000Y-90746576D01*
D15*
X140765000Y-88800000D02*
X140775000Y-88790000D01*
X141901396Y-89450000D02*
X141952845Y-89501449D01*
X141952845Y-89501449D02*
X142141396Y-89690000D01*
X145820230Y-89664770D02*
X146074501Y-89410499D01*
D16*
X138715000Y-89560000D02*
X139025000Y-89250000D01*
D15*
X140775000Y-86070000D02*
X140775000Y-86900000D01*
X146074501Y-89410499D02*
X146074501Y-88570499D01*
D16*
X138715000Y-90746576D02*
X138715000Y-89560000D01*
D15*
X139320938Y-88800000D02*
X139025000Y-89095938D01*
X141952845Y-89501449D02*
X141952845Y-89497845D01*
X139320938Y-88800000D02*
X140765000Y-88800000D01*
X139435000Y-84730000D02*
X140775000Y-86070000D01*
X146074501Y-88570499D02*
X146655000Y-87990000D01*
X142141396Y-89690000D02*
X145795000Y-89690000D01*
D16*
X138984500Y-91530500D02*
X138984500Y-91016076D01*
X138147595Y-92367405D02*
X138984500Y-91530500D01*
D15*
X138620290Y-88099352D02*
X139320938Y-88800000D01*
X139025000Y-89095938D02*
X139025000Y-89250000D01*
X141435000Y-89450000D02*
X141901396Y-89450000D01*
D16*
X138147595Y-92527730D02*
X138147595Y-92367405D01*
%TO.N,/Neuropixels 2.0/PCLK*%
X142110000Y-93465000D02*
X142425000Y-93150000D01*
X141625000Y-90610000D02*
X139733691Y-92501309D01*
X139733691Y-92501309D02*
X139733691Y-93258691D01*
X139940000Y-93465000D02*
X142110000Y-93465000D01*
X141625000Y-90210000D02*
X141625000Y-90610000D01*
X139733691Y-93258691D02*
X139940000Y-93465000D01*
%TO.N,/Neuropixels 2.0/SDA_{A}*%
X139040000Y-92539640D02*
X140704640Y-90875000D01*
X141415000Y-89960000D02*
X142086404Y-89960000D01*
X139040000Y-92557084D02*
X139040000Y-92539640D01*
X140940000Y-90435000D02*
X141415000Y-89960000D01*
X140704640Y-90875000D02*
X140728554Y-90875000D01*
X142086404Y-89960000D02*
X142122378Y-89995974D01*
X140940000Y-90663554D02*
X140940000Y-90435000D01*
X140728554Y-90875000D02*
X140940000Y-90663554D01*
%TO.N,/Neuropixels 2.0/SCL*%
X140065000Y-84180000D02*
X142655000Y-86770000D01*
X144128554Y-88520000D02*
X143158554Y-88520000D01*
X138665000Y-92430000D02*
X140470000Y-90625000D01*
X142655000Y-88070000D02*
X142708554Y-88070000D01*
D15*
X132850000Y-84850000D02*
X126402500Y-84850000D01*
X118600000Y-97340000D02*
X118500000Y-97340000D01*
D16*
X139067609Y-93772609D02*
X138665000Y-93370000D01*
X137080013Y-84275000D02*
X136605013Y-84750000D01*
X139642609Y-93772609D02*
X139067609Y-93772609D01*
X136605013Y-84750000D02*
X135408105Y-84750000D01*
X137671788Y-84759254D02*
X137671788Y-84521788D01*
X145165000Y-87820000D02*
X144983223Y-88001777D01*
X145165000Y-86190000D02*
X145165000Y-87820000D01*
X138665000Y-93370000D02*
X138665000Y-92430000D01*
X138735000Y-84740000D02*
X138569300Y-84905700D01*
D15*
X120860000Y-96840000D02*
X122800000Y-94900000D01*
D16*
X133936557Y-84488443D02*
X133625000Y-84800000D01*
D15*
X118500000Y-97340000D02*
X118000000Y-97340000D01*
X119200000Y-96840000D02*
X120860000Y-96840000D01*
D16*
X140470000Y-90625000D02*
X140625000Y-90625000D01*
X144646777Y-88001777D02*
X144128554Y-88520000D01*
X135408105Y-84750000D02*
X135146548Y-84488443D01*
X139145000Y-84180000D02*
X140065000Y-84180000D01*
D15*
X118500000Y-97340000D02*
X118700000Y-97340000D01*
D16*
X142655000Y-86770000D02*
X142655000Y-88070000D01*
X140625000Y-90625000D02*
X140625000Y-90281151D01*
X140625000Y-90281151D02*
X141234061Y-89672090D01*
X142235000Y-89324500D02*
X142235000Y-88490000D01*
X145075000Y-86100000D02*
X145165000Y-86190000D01*
D15*
X126402500Y-84850000D02*
X120540000Y-78987500D01*
X120540000Y-76447500D02*
X120540000Y-78987500D01*
D16*
X142235000Y-88490000D02*
X142655000Y-88070000D01*
X137425000Y-84275000D02*
X137080013Y-84275000D01*
D15*
X118700000Y-97340000D02*
X119200000Y-96840000D01*
X132850000Y-84850000D02*
X122800000Y-94900000D01*
D16*
X135146548Y-84488443D02*
X133936557Y-84488443D01*
X138735000Y-84740000D02*
X138735000Y-84590000D01*
X138735000Y-84590000D02*
X139145000Y-84180000D01*
D15*
X132900000Y-84800000D02*
X132850000Y-84850000D01*
D16*
X138569300Y-84905700D02*
X137818234Y-84905700D01*
X142708554Y-88070000D02*
X143158554Y-88520000D01*
X144983223Y-88001777D02*
X144646777Y-88001777D01*
X137818234Y-84905700D02*
X137671788Y-84759254D01*
X137671788Y-84521788D02*
X137425000Y-84275000D01*
D15*
X132900000Y-84800000D02*
X133625000Y-84800000D01*
D16*
%TO.N,/Neuropixels 2.0/D7*%
X141535000Y-91395000D02*
X141270000Y-91395000D01*
X143215000Y-90900500D02*
X142029500Y-90900500D01*
X143815500Y-90960000D02*
X143274500Y-90960000D01*
X143274500Y-90960000D02*
X143215000Y-90900500D01*
X143875000Y-90900500D02*
X143815500Y-90960000D01*
X140825000Y-92330000D02*
X141015000Y-92140000D01*
X140825000Y-92330000D02*
X140025000Y-93130000D01*
X144205630Y-90900500D02*
X143875000Y-90900500D01*
X140025000Y-93130000D02*
X140025000Y-93150000D01*
X141270000Y-91395000D02*
X141015000Y-91650000D01*
X141015000Y-92140000D02*
X141015000Y-91860000D01*
X141015000Y-91650000D02*
X141015000Y-91860000D01*
X144455065Y-91149935D02*
X144205630Y-90900500D01*
X142029500Y-90900500D02*
X141535000Y-91395000D01*
%TO.N,/Neuropixels 2.0/D6*%
X143050000Y-91525000D02*
X143225000Y-91525000D01*
X140815000Y-92720000D02*
X140625000Y-92910000D01*
X142925000Y-91400000D02*
X143050000Y-91525000D01*
X144595000Y-91400000D02*
X144735000Y-91260000D01*
X144985000Y-91030000D02*
X145065000Y-91110000D01*
X141500000Y-92275000D02*
X141925000Y-92275000D01*
X144735000Y-91240000D02*
X144735000Y-91130000D01*
X142125000Y-92075000D02*
X142125000Y-91780000D01*
X141925000Y-92275000D02*
X142125000Y-92075000D01*
X141350000Y-92425000D02*
X141055000Y-92720000D01*
X144835000Y-91030000D02*
X144985000Y-91030000D01*
X142125000Y-91780000D02*
X142505000Y-91400000D01*
X143225000Y-91525000D02*
X143350000Y-91400000D01*
X145065000Y-91110000D02*
X145065000Y-91230000D01*
X145065000Y-91375075D02*
X145065000Y-91230000D01*
X143350000Y-91400000D02*
X144595000Y-91400000D01*
X142505000Y-91400000D02*
X142925000Y-91400000D01*
X144735000Y-91130000D02*
X144835000Y-91030000D01*
X145075000Y-91385075D02*
X145065000Y-91375075D01*
X141055000Y-92720000D02*
X140815000Y-92720000D01*
X140625000Y-92910000D02*
X140625000Y-93150000D01*
X141350000Y-92425000D02*
X141500000Y-92275000D01*
%TO.N,/Neuropixels 2.0/D5*%
X142450000Y-92345000D02*
X142295000Y-92500000D01*
X141225000Y-92890000D02*
X141225000Y-93150000D01*
X141445000Y-92670000D02*
X141225000Y-92890000D01*
X145510587Y-91153783D02*
X145325000Y-91339370D01*
X145265000Y-91660000D02*
X144875000Y-91660000D01*
X143865000Y-91900000D02*
X143790000Y-91825000D01*
X143790000Y-91825000D02*
X142625000Y-91825000D01*
X142450000Y-92000000D02*
X142450000Y-92345000D01*
X144635000Y-91900000D02*
X143865000Y-91900000D01*
X145539322Y-91153783D02*
X145510587Y-91153783D01*
X144875000Y-91660000D02*
X144635000Y-91900000D01*
X141875000Y-92500000D02*
X141705000Y-92670000D01*
X145325000Y-91600000D02*
X145265000Y-91660000D01*
X142625000Y-91825000D02*
X142450000Y-92000000D01*
X145325000Y-91339370D02*
X145325000Y-91600000D01*
X141705000Y-92670000D02*
X141445000Y-92670000D01*
X142295000Y-92500000D02*
X141875000Y-92500000D01*
%TO.N,/Neuropixels 2.0/D4*%
X145555000Y-92000000D02*
X145555000Y-91560000D01*
X145860512Y-91110000D02*
X145860512Y-91254488D01*
X142915000Y-92120000D02*
X142815000Y-92220000D01*
X145725000Y-90730000D02*
X145845000Y-90730000D01*
X145435000Y-92120000D02*
X142915000Y-92120000D01*
X145860512Y-91254488D02*
X145555000Y-91560000D01*
X142495000Y-92770000D02*
X142815000Y-92450000D01*
X142205000Y-92770000D02*
X142495000Y-92770000D01*
X145665000Y-90910000D02*
X145665000Y-90790000D01*
X145665000Y-90790000D02*
X145725000Y-90730000D01*
X142815000Y-92450000D02*
X142815000Y-92220000D01*
X145555000Y-92000000D02*
X145435000Y-92120000D01*
X145860512Y-91110000D02*
X145662756Y-90912244D01*
X141825000Y-93150000D02*
X142205000Y-92770000D01*
X145845000Y-90730000D02*
X145855000Y-90720000D01*
X145662756Y-90912244D02*
X145665000Y-90910000D01*
%TO.N,/Neuropixels 2.0/D3*%
X143245000Y-92340000D02*
X143835000Y-92340000D01*
X143025000Y-93150000D02*
X142935000Y-93060000D01*
X143835000Y-92340000D02*
X145575000Y-92340000D01*
X145575000Y-92340000D02*
X146125000Y-91790000D01*
X142935000Y-93060000D02*
X142935000Y-92650000D01*
X146125000Y-90254872D02*
X145871150Y-90001022D01*
X146125000Y-91790000D02*
X146125000Y-90254872D01*
X142935000Y-92650000D02*
X143245000Y-92340000D01*
%TO.N,/Neuropixels 2.0/D2*%
X143805000Y-92630000D02*
X143745000Y-92690000D01*
X145675000Y-92630000D02*
X143805000Y-92630000D01*
X143715000Y-93430000D02*
X143625000Y-93340000D01*
X145675000Y-92630000D02*
X146385000Y-91920000D01*
X143745000Y-92870000D02*
X143975000Y-93100000D01*
X146385000Y-91920000D02*
X146385000Y-89990000D01*
X143625000Y-93340000D02*
X143625000Y-93150000D01*
X143975000Y-93360000D02*
X143905000Y-93430000D01*
X143745000Y-92690000D02*
X143745000Y-92870000D01*
X143905000Y-93430000D02*
X143715000Y-93430000D01*
X143975000Y-93100000D02*
X143975000Y-93360000D01*
X146185000Y-89750000D02*
X146385000Y-89950000D01*
X146385000Y-89950000D02*
X146385000Y-89990000D01*
%TO.N,/Neuropixels 2.0/D1*%
X146675000Y-89720000D02*
X146625000Y-89770000D01*
X144442500Y-93415000D02*
X144310000Y-93415000D01*
X144545000Y-93312500D02*
X144442500Y-93415000D01*
X146005000Y-92880000D02*
X146625000Y-92260000D01*
X146625000Y-89770000D02*
X146625000Y-92260000D01*
X146005000Y-92880000D02*
X144715000Y-92880000D01*
X146555000Y-89140000D02*
X146675000Y-89260000D01*
X146675000Y-89260000D02*
X146675000Y-89720000D01*
X144225000Y-93330000D02*
X144225000Y-93150000D01*
X144545000Y-93050000D02*
X144545000Y-93312500D01*
X144310000Y-93415000D02*
X144225000Y-93330000D01*
X146405000Y-89140000D02*
X146555000Y-89140000D01*
X144715000Y-92880000D02*
X144545000Y-93050000D01*
%TO.N,/Neuropixels 2.0/D0*%
X146395000Y-93150000D02*
X146875000Y-92670000D01*
X145245000Y-93290000D02*
X145385000Y-93150000D01*
X144965000Y-93290000D02*
X145005000Y-93330000D01*
X146875000Y-89100002D02*
X146425000Y-88650002D01*
X144825000Y-93150000D02*
X144965000Y-93290000D01*
X145005000Y-93330000D02*
X145205000Y-93330000D01*
X145205000Y-93330000D02*
X145245000Y-93290000D01*
X145385000Y-93150000D02*
X146395000Y-93150000D01*
X146875000Y-92670000D02*
X146875000Y-89100002D01*
%TO.N,/Neuropixels 2.0/NP_{TP0}*%
X147065000Y-88650000D02*
X147105000Y-88690000D01*
X147105000Y-88690000D02*
X147105000Y-93374500D01*
X146325000Y-95000000D02*
X146325000Y-94925500D01*
X146885000Y-86583554D02*
X147065000Y-86763554D01*
X147065000Y-86763554D02*
X147065000Y-88650000D01*
X145799500Y-94400000D02*
X145939500Y-94540000D01*
X146885000Y-86080000D02*
X146885000Y-86583554D01*
X147105000Y-93374500D02*
X145939500Y-94540000D01*
X146635000Y-83420000D02*
X146635000Y-85830000D01*
X146635000Y-85830000D02*
X146885000Y-86080000D01*
X138875000Y-94980000D02*
X139455000Y-94400000D01*
X146325000Y-94925500D02*
X145939500Y-94540000D01*
X139455000Y-94400000D02*
X145799500Y-94400000D01*
%TO.N,/Neuropixels 2.0/SDA*%
X139815000Y-84470000D02*
X142177262Y-86832262D01*
D15*
X123200000Y-92000000D02*
X118200000Y-87000000D01*
X118000000Y-76447500D02*
X118000000Y-78987500D01*
D16*
X138929300Y-85105700D02*
X137735392Y-85105700D01*
X136685013Y-84950000D02*
X135400000Y-84950000D01*
X142325000Y-90250000D02*
X143435000Y-90250000D01*
X144825000Y-86250000D02*
X144945000Y-86370000D01*
X142177262Y-88059188D02*
X141900725Y-88335725D01*
X144915000Y-85700000D02*
X144825000Y-85790000D01*
X142285000Y-90290000D02*
X142325000Y-90250000D01*
X142225000Y-90290000D02*
X142285000Y-90290000D01*
X139315000Y-84470000D02*
X139815000Y-84470000D01*
X144945000Y-86370000D02*
X144945000Y-87150000D01*
D15*
X118200000Y-87000000D02*
X118200000Y-79187500D01*
D16*
X134950000Y-85400000D02*
X133425000Y-85400000D01*
X139085000Y-84730000D02*
X139085000Y-84950000D01*
X141665000Y-89150000D02*
X141625000Y-89150000D01*
X139085000Y-84730000D02*
X139085000Y-84700000D01*
X139085000Y-84950000D02*
X138929300Y-85105700D01*
X145774501Y-90410000D02*
X143595000Y-90410000D01*
X139085000Y-84700000D02*
X139315000Y-84470000D01*
X133425000Y-85400000D02*
X133325000Y-85500000D01*
X144825000Y-85790000D02*
X144825000Y-86250000D01*
X143464751Y-87940000D02*
X143175250Y-87650499D01*
D15*
X125255000Y-96035000D02*
X125255000Y-93570000D01*
D16*
X143595000Y-90410000D02*
X143435000Y-90250000D01*
X144435000Y-87733554D02*
X144228554Y-87940000D01*
X137135013Y-85400000D02*
X136685013Y-84950000D01*
X135400000Y-84950000D02*
X134950000Y-85400000D01*
X137735392Y-85105700D02*
X137441092Y-85400000D01*
X141900725Y-88914275D02*
X141665000Y-89150000D01*
D15*
X125255000Y-93570000D02*
X133325000Y-85500000D01*
D16*
X142177262Y-86832262D02*
X142177262Y-88059188D01*
X144435000Y-87733554D02*
X144435000Y-87660000D01*
X144435000Y-87660000D02*
X144945000Y-87150000D01*
X137441092Y-85400000D02*
X137135013Y-85400000D01*
X141900725Y-88335725D02*
X141900725Y-88914275D01*
D15*
X118200000Y-79187500D02*
X118000000Y-78987500D01*
D16*
X144228554Y-87940000D02*
X143464751Y-87940000D01*
%TO.N,/Perpherials/GPIO*%
X144645000Y-85050000D02*
X145305000Y-85050000D01*
X143675000Y-82180000D02*
X144005000Y-82510000D01*
X146043890Y-87271944D02*
X146099498Y-87271944D01*
X145725500Y-86953554D02*
X146043890Y-87271944D01*
X140600000Y-82204300D02*
X140624300Y-82180000D01*
X146185000Y-86210500D02*
X145725500Y-86670000D01*
X145305000Y-85050000D02*
X146185000Y-85930000D01*
X146185000Y-85930000D02*
X146185000Y-86210500D01*
X144005000Y-82510000D02*
X144005000Y-84410000D01*
X140624300Y-82180000D02*
X143675000Y-82180000D01*
X144005000Y-84410000D02*
X144645000Y-85050000D01*
X145725500Y-86670000D02*
X145725500Y-86953554D01*
%TO.N,/Neuropixels 2.0/NP_{Select}*%
X146155000Y-88100000D02*
X146155000Y-87690000D01*
X145774501Y-88979500D02*
X145774501Y-88480499D01*
X146355000Y-87490000D02*
X146355000Y-87080000D01*
X146155000Y-87690000D02*
X146355000Y-87490000D01*
X145774501Y-88480499D02*
X146155000Y-88100000D01*
X146355000Y-87080000D02*
X146125000Y-86850000D01*
X146125000Y-86850000D02*
X145975500Y-86850000D01*
D15*
%TO.N,+2V5*%
X139865000Y-85890000D02*
X138805000Y-85890000D01*
X138315000Y-87750000D02*
X138215000Y-87850000D01*
X138315000Y-86380000D02*
X138315000Y-87750000D01*
X140375000Y-86400000D02*
X139865000Y-85890000D01*
X138215000Y-87850000D02*
X138215000Y-89990000D01*
X138805000Y-85890000D02*
X138315000Y-86380000D01*
D16*
%TO.N,Net-(U3-GPIO3{slash}CLKIN)*%
X145525500Y-86515679D02*
X145525500Y-87110500D01*
X145895000Y-87480000D02*
X145895000Y-87940000D01*
X145857158Y-86184021D02*
X145525500Y-86515679D01*
X145525500Y-87110500D02*
X145895000Y-87480000D01*
%TO.N,/Neuropixels 2.0/NP_{RESET}*%
X145671446Y-95050000D02*
X139725000Y-95050000D01*
X145675000Y-95046446D02*
X145671446Y-95050000D01*
X139725000Y-95050000D02*
X139125000Y-95650000D01*
%TO.N,+1.8VA*%
X143331424Y-92606424D02*
X143331424Y-93763576D01*
X143215000Y-93880000D02*
X143205000Y-93880000D01*
X143331424Y-93763576D02*
X143215000Y-93880000D01*
%TD*%
%TA.AperFunction,Conductor*%
%TO.N,GND*%
G36*
X147394652Y-84440574D02*
G01*
X147404500Y-84470039D01*
X147404500Y-89887082D01*
X147404497Y-89887108D01*
X147404493Y-89887108D01*
X147404493Y-89887133D01*
X147404493Y-89887134D01*
X147404493Y-89982996D01*
X147404493Y-89983007D01*
X147404494Y-89985139D01*
X147404831Y-89987051D01*
X147405000Y-89990925D01*
X147405000Y-92603353D01*
X147404832Y-92607186D01*
X147404499Y-92609076D01*
X147404499Y-92671725D01*
X147404500Y-92671725D01*
X147404500Y-92671727D01*
X147404500Y-96030500D01*
X147390148Y-96065148D01*
X147355500Y-96079500D01*
X144182288Y-96079500D01*
X144150000Y-96079500D01*
X144051969Y-96079500D01*
X144050079Y-96079833D01*
X144046251Y-96080000D01*
X141433749Y-96080000D01*
X141429920Y-96079833D01*
X141428031Y-96079500D01*
X141425890Y-96079500D01*
X137494500Y-96079500D01*
X137459852Y-96065148D01*
X137445500Y-96030500D01*
X137445500Y-95650000D01*
X138919344Y-95650000D01*
X138939710Y-95739231D01*
X138996776Y-95810788D01*
X139079237Y-95850500D01*
X139165243Y-95850500D01*
X139170763Y-95850500D01*
X139253224Y-95810788D01*
X139310290Y-95739231D01*
X139325390Y-95673066D01*
X139338512Y-95649325D01*
X139452756Y-95535081D01*
X139480554Y-95521211D01*
X139511106Y-95526844D01*
X139532130Y-95549716D01*
X139535176Y-95580633D01*
X139519344Y-95650000D01*
X139539710Y-95739231D01*
X139596776Y-95810788D01*
X139679237Y-95850500D01*
X139765243Y-95850500D01*
X139770763Y-95850500D01*
X139853224Y-95810788D01*
X139910290Y-95739231D01*
X139930656Y-95650000D01*
X141319344Y-95650000D01*
X141339710Y-95739231D01*
X141396776Y-95810788D01*
X141479237Y-95850500D01*
X141565243Y-95850500D01*
X141570763Y-95850500D01*
X141653224Y-95810788D01*
X141710290Y-95739231D01*
X141730656Y-95650000D01*
X143119344Y-95650000D01*
X143139710Y-95739231D01*
X143196776Y-95810788D01*
X143279237Y-95850500D01*
X143365243Y-95850500D01*
X143370763Y-95850500D01*
X143453224Y-95810788D01*
X143510290Y-95739231D01*
X143530656Y-95650000D01*
X144919344Y-95650000D01*
X144939710Y-95739231D01*
X144996776Y-95810788D01*
X145079237Y-95850500D01*
X145165243Y-95850500D01*
X145170763Y-95850500D01*
X145253224Y-95810788D01*
X145310290Y-95739231D01*
X145330656Y-95650000D01*
X145519344Y-95650000D01*
X145539710Y-95739231D01*
X145596776Y-95810788D01*
X145679237Y-95850500D01*
X145765243Y-95850500D01*
X145770763Y-95850500D01*
X145853224Y-95810788D01*
X145910290Y-95739231D01*
X145930656Y-95650000D01*
X145910290Y-95560769D01*
X145870147Y-95510433D01*
X145856667Y-95493529D01*
X145856666Y-95493528D01*
X145853224Y-95489212D01*
X145770763Y-95449500D01*
X145679237Y-95449500D01*
X145674264Y-95451894D01*
X145674263Y-95451895D01*
X145601750Y-95486816D01*
X145601748Y-95486817D01*
X145596776Y-95489212D01*
X145593335Y-95493526D01*
X145593332Y-95493529D01*
X145543154Y-95556450D01*
X145539710Y-95560769D01*
X145519344Y-95650000D01*
X145330656Y-95650000D01*
X145310290Y-95560769D01*
X145270147Y-95510433D01*
X145256667Y-95493529D01*
X145256666Y-95493528D01*
X145253224Y-95489212D01*
X145170763Y-95449500D01*
X145079237Y-95449500D01*
X145074264Y-95451894D01*
X145074263Y-95451895D01*
X145001750Y-95486816D01*
X145001748Y-95486817D01*
X144996776Y-95489212D01*
X144993335Y-95493526D01*
X144993332Y-95493529D01*
X144943154Y-95556450D01*
X144939710Y-95560769D01*
X144919344Y-95650000D01*
X143530656Y-95650000D01*
X143510290Y-95560769D01*
X143470147Y-95510433D01*
X143456667Y-95493529D01*
X143456666Y-95493528D01*
X143453224Y-95489212D01*
X143370763Y-95449500D01*
X143279237Y-95449500D01*
X143274264Y-95451894D01*
X143274263Y-95451895D01*
X143201750Y-95486816D01*
X143201748Y-95486817D01*
X143196776Y-95489212D01*
X143193335Y-95493526D01*
X143193332Y-95493529D01*
X143143154Y-95556450D01*
X143139710Y-95560769D01*
X143119344Y-95650000D01*
X141730656Y-95650000D01*
X141710290Y-95560769D01*
X141670147Y-95510433D01*
X141656667Y-95493529D01*
X141656666Y-95493528D01*
X141653224Y-95489212D01*
X141570763Y-95449500D01*
X141479237Y-95449500D01*
X141474264Y-95451894D01*
X141474263Y-95451895D01*
X141401750Y-95486816D01*
X141401748Y-95486817D01*
X141396776Y-95489212D01*
X141393335Y-95493526D01*
X141393332Y-95493529D01*
X141343154Y-95556450D01*
X141339710Y-95560769D01*
X141319344Y-95650000D01*
X139930656Y-95650000D01*
X139910290Y-95560769D01*
X139870147Y-95510433D01*
X139856667Y-95493529D01*
X139856666Y-95493528D01*
X139853224Y-95489212D01*
X139770763Y-95449500D01*
X139679237Y-95449500D01*
X139674265Y-95451894D01*
X139674262Y-95451895D01*
X139667286Y-95455255D01*
X139633787Y-95458554D01*
X139606064Y-95439461D01*
X139597200Y-95406988D01*
X139611378Y-95376460D01*
X139772986Y-95214852D01*
X139807635Y-95200500D01*
X145523156Y-95200500D01*
X145546145Y-95208543D01*
X145546776Y-95207234D01*
X145629237Y-95246946D01*
X145715243Y-95246946D01*
X145720763Y-95246946D01*
X145803224Y-95207234D01*
X145860290Y-95135677D01*
X145880656Y-95046446D01*
X145860290Y-94957215D01*
X145803224Y-94885658D01*
X145720763Y-94845946D01*
X145629237Y-94845946D01*
X145624264Y-94848340D01*
X145624263Y-94848341D01*
X145551750Y-94883262D01*
X145551748Y-94883263D01*
X145546776Y-94885658D01*
X145544056Y-94889068D01*
X145514243Y-94899500D01*
X139765327Y-94899500D01*
X139684673Y-94899500D01*
X139679088Y-94902723D01*
X139679085Y-94902725D01*
X139672492Y-94906532D01*
X139660679Y-94911425D01*
X139647096Y-94915065D01*
X139642538Y-94919622D01*
X139642536Y-94919624D01*
X139617160Y-94945000D01*
X139590065Y-94972095D01*
X139590064Y-94972096D01*
X139352532Y-95209629D01*
X139127013Y-95435148D01*
X139111117Y-95445770D01*
X139092365Y-95449500D01*
X139079237Y-95449500D01*
X139074264Y-95451894D01*
X139074263Y-95451895D01*
X139001750Y-95486816D01*
X139001748Y-95486817D01*
X138996776Y-95489212D01*
X138993335Y-95493526D01*
X138993332Y-95493529D01*
X138943154Y-95556450D01*
X138939710Y-95560769D01*
X138919344Y-95650000D01*
X137445500Y-95650000D01*
X137445500Y-86204110D01*
X137445500Y-86201969D01*
X137445166Y-86200079D01*
X137445000Y-86196251D01*
X137445000Y-85596129D01*
X137455125Y-85566300D01*
X137478770Y-85550500D01*
X137481419Y-85550500D01*
X137493597Y-85543467D01*
X137505413Y-85538573D01*
X137518996Y-85534935D01*
X137576027Y-85477905D01*
X137576027Y-85477903D01*
X137783378Y-85270552D01*
X137818027Y-85256200D01*
X138456868Y-85256200D01*
X138490197Y-85269281D01*
X138505731Y-85301538D01*
X138495178Y-85335749D01*
X138455129Y-85385969D01*
X138434763Y-85475200D01*
X138455129Y-85564431D01*
X138458573Y-85568749D01*
X138504071Y-85625802D01*
X138512195Y-85635988D01*
X138594656Y-85675700D01*
X138600176Y-85675700D01*
X138612677Y-85675700D01*
X138646006Y-85688781D01*
X138661540Y-85721040D01*
X138650985Y-85755253D01*
X138648527Y-85758334D01*
X138644212Y-85761776D01*
X138641817Y-85766747D01*
X138638374Y-85771065D01*
X138638334Y-85771033D01*
X138633250Y-85778198D01*
X138459605Y-85951844D01*
X138432147Y-85965666D01*
X138401858Y-85960410D01*
X138380661Y-85938146D01*
X138376899Y-85907636D01*
X138378518Y-85899500D01*
X138380407Y-85890001D01*
X138360965Y-85792261D01*
X138305600Y-85709400D01*
X138292495Y-85700644D01*
X138226750Y-85656715D01*
X138226749Y-85656714D01*
X138222739Y-85654035D01*
X138218008Y-85653094D01*
X138218006Y-85653093D01*
X138129735Y-85635535D01*
X138124999Y-85634593D01*
X138120263Y-85635535D01*
X138031991Y-85653093D01*
X138031987Y-85653094D01*
X138027259Y-85654035D01*
X138023249Y-85656713D01*
X138023247Y-85656715D01*
X137948409Y-85706719D01*
X137948406Y-85706721D01*
X137944398Y-85709400D01*
X137941719Y-85713408D01*
X137941717Y-85713411D01*
X137891713Y-85788249D01*
X137891711Y-85788251D01*
X137889033Y-85792261D01*
X137888092Y-85796989D01*
X137888091Y-85796993D01*
X137873504Y-85870327D01*
X137869591Y-85890001D01*
X137870533Y-85894737D01*
X137888091Y-85983008D01*
X137888092Y-85983010D01*
X137889033Y-85987741D01*
X137891712Y-85991751D01*
X137891713Y-85991752D01*
X137938301Y-86061478D01*
X137944398Y-86070602D01*
X138027259Y-86125967D01*
X138124999Y-86145409D01*
X138136972Y-86143027D01*
X138166231Y-86146219D01*
X138188383Y-86165600D01*
X138195434Y-86194176D01*
X138184841Y-86221637D01*
X138166974Y-86244040D01*
X138163319Y-86248131D01*
X138159197Y-86252253D01*
X138159194Y-86252256D01*
X138157252Y-86254199D01*
X138155787Y-86256529D01*
X138155786Y-86256531D01*
X138152685Y-86261465D01*
X138149512Y-86265936D01*
X138133261Y-86286316D01*
X138129710Y-86290769D01*
X138128481Y-86296151D01*
X138126086Y-86301125D01*
X138126041Y-86301103D01*
X138125597Y-86302174D01*
X138125644Y-86302191D01*
X138123820Y-86307402D01*
X138120884Y-86312076D01*
X138120266Y-86317556D01*
X138120265Y-86317561D01*
X138117328Y-86343631D01*
X138116409Y-86349038D01*
X138115112Y-86354721D01*
X138115110Y-86354734D01*
X138114500Y-86357410D01*
X138114500Y-86360161D01*
X138114500Y-86365993D01*
X138114192Y-86371478D01*
X138111594Y-86394544D01*
X138110638Y-86403026D01*
X138112461Y-86408238D01*
X138113080Y-86413723D01*
X138113028Y-86413728D01*
X138114500Y-86422388D01*
X138114500Y-87645076D01*
X138109648Y-87666336D01*
X138096052Y-87683385D01*
X138091747Y-87686817D01*
X138086776Y-87689212D01*
X138083335Y-87693526D01*
X138083333Y-87693528D01*
X138066973Y-87714041D01*
X138063319Y-87718131D01*
X138059197Y-87722253D01*
X138059194Y-87722256D01*
X138057252Y-87724199D01*
X138055787Y-87726529D01*
X138055786Y-87726531D01*
X138052685Y-87731465D01*
X138049512Y-87735936D01*
X138036432Y-87752339D01*
X138029710Y-87760769D01*
X138028481Y-87766151D01*
X138026086Y-87771125D01*
X138026041Y-87771103D01*
X138025597Y-87772174D01*
X138025644Y-87772191D01*
X138023820Y-87777402D01*
X138020884Y-87782076D01*
X138020266Y-87787556D01*
X138020265Y-87787561D01*
X138017328Y-87813631D01*
X138016409Y-87819038D01*
X138015112Y-87824721D01*
X138015110Y-87824734D01*
X138014500Y-87827410D01*
X138014500Y-87830161D01*
X138014500Y-87835993D01*
X138014192Y-87841478D01*
X138011335Y-87866842D01*
X138010638Y-87873026D01*
X138012461Y-87878238D01*
X138013080Y-87883723D01*
X138013028Y-87883728D01*
X138014500Y-87892388D01*
X138014500Y-89961892D01*
X138013271Y-89972796D01*
X138010572Y-89984617D01*
X138010572Y-89984620D01*
X138009344Y-89990000D01*
X138010572Y-89995380D01*
X138010572Y-89995381D01*
X138014442Y-90012339D01*
X138029710Y-90079231D01*
X138054053Y-90109756D01*
X138083129Y-90146216D01*
X138086776Y-90150788D01*
X138169237Y-90190500D01*
X138255243Y-90190500D01*
X138260763Y-90190500D01*
X138343224Y-90150788D01*
X138400290Y-90079231D01*
X138420656Y-89990000D01*
X138416728Y-89972793D01*
X138415500Y-89961892D01*
X138415500Y-88299258D01*
X138428581Y-88265929D01*
X138460839Y-88250395D01*
X138491947Y-88259991D01*
X138492066Y-88260140D01*
X138497042Y-88262536D01*
X138501359Y-88265979D01*
X138501326Y-88266019D01*
X138508489Y-88271100D01*
X139002740Y-88765352D01*
X139017092Y-88799999D01*
X139002740Y-88834647D01*
X138913199Y-88924188D01*
X138906033Y-88929274D01*
X138906064Y-88929313D01*
X138901745Y-88932756D01*
X138896776Y-88935150D01*
X138893338Y-88939460D01*
X138893334Y-88939464D01*
X138876973Y-88959979D01*
X138873319Y-88964069D01*
X138869197Y-88968191D01*
X138869194Y-88968194D01*
X138867252Y-88970137D01*
X138865787Y-88972467D01*
X138865786Y-88972469D01*
X138862685Y-88977403D01*
X138859512Y-88981874D01*
X138843153Y-89002389D01*
X138839710Y-89006707D01*
X138838481Y-89012089D01*
X138836086Y-89017063D01*
X138836041Y-89017041D01*
X138835597Y-89018112D01*
X138835644Y-89018129D01*
X138833820Y-89023340D01*
X138830884Y-89028014D01*
X138830266Y-89033494D01*
X138830265Y-89033499D01*
X138827328Y-89059569D01*
X138826409Y-89064976D01*
X138825112Y-89070659D01*
X138825110Y-89070672D01*
X138824500Y-89073348D01*
X138824500Y-89076099D01*
X138824500Y-89081931D01*
X138824191Y-89087416D01*
X138820638Y-89118964D01*
X138822461Y-89124176D01*
X138823080Y-89129661D01*
X138823028Y-89129666D01*
X138824500Y-89138326D01*
X138824500Y-89217364D01*
X138810148Y-89252012D01*
X138637096Y-89425065D01*
X138584626Y-89477534D01*
X138584624Y-89477536D01*
X138580065Y-89482096D01*
X138578396Y-89488323D01*
X138578395Y-89488326D01*
X138576425Y-89495680D01*
X138571532Y-89507492D01*
X138567725Y-89514085D01*
X138567723Y-89514088D01*
X138564500Y-89519673D01*
X138564499Y-89526119D01*
X138564499Y-89526123D01*
X138564499Y-89572205D01*
X138564499Y-89600326D01*
X138564500Y-89600328D01*
X138564500Y-90706249D01*
X138564500Y-90786903D01*
X138567724Y-90792487D01*
X138567725Y-90792490D01*
X138571531Y-90799082D01*
X138576426Y-90810899D01*
X138578395Y-90818250D01*
X138578396Y-90818252D01*
X138580065Y-90824480D01*
X138584624Y-90829039D01*
X138637094Y-90881510D01*
X138637100Y-90881515D01*
X138770986Y-91015401D01*
X138784109Y-91039145D01*
X138797672Y-91098571D01*
X138799210Y-91105307D01*
X138809120Y-91117734D01*
X138823309Y-91135525D01*
X138834000Y-91166077D01*
X138834000Y-91244435D01*
X138824963Y-91272790D01*
X138801184Y-91290685D01*
X138771436Y-91291520D01*
X138746691Y-91274987D01*
X138742416Y-91269626D01*
X138698224Y-91214212D01*
X138615763Y-91174500D01*
X138524237Y-91174500D01*
X138519264Y-91176894D01*
X138519263Y-91176895D01*
X138446750Y-91211816D01*
X138446748Y-91211817D01*
X138441776Y-91214212D01*
X138438335Y-91218526D01*
X138438332Y-91218529D01*
X138388154Y-91281450D01*
X138384710Y-91285769D01*
X138364344Y-91375000D01*
X138384710Y-91464231D01*
X138395615Y-91477905D01*
X138433471Y-91525375D01*
X138441776Y-91535788D01*
X138524237Y-91575500D01*
X138529757Y-91575500D01*
X138608365Y-91575500D01*
X138643013Y-91589852D01*
X138657365Y-91624500D01*
X138643013Y-91659148D01*
X138017221Y-92284939D01*
X138017219Y-92284941D01*
X138012660Y-92289501D01*
X138010991Y-92295728D01*
X138010990Y-92295731D01*
X138009020Y-92303085D01*
X138004127Y-92314897D01*
X138000320Y-92321490D01*
X138000318Y-92321493D01*
X137997095Y-92327078D01*
X137997094Y-92333524D01*
X137997094Y-92333528D01*
X137997094Y-92377729D01*
X137986404Y-92408278D01*
X137965746Y-92434182D01*
X137965743Y-92434187D01*
X137962305Y-92438499D01*
X137961078Y-92443874D01*
X137961077Y-92443877D01*
X137949394Y-92495065D01*
X137941939Y-92527730D01*
X137943167Y-92533110D01*
X137960782Y-92610291D01*
X137962305Y-92616961D01*
X137988656Y-92650003D01*
X138005978Y-92671725D01*
X138019371Y-92688518D01*
X138101832Y-92728230D01*
X138187838Y-92728230D01*
X138193358Y-92728230D01*
X138275819Y-92688518D01*
X138332885Y-92616961D01*
X138353251Y-92527730D01*
X138332885Y-92438499D01*
X138332408Y-92437901D01*
X138328734Y-92411885D01*
X138342392Y-92385445D01*
X139104930Y-91622909D01*
X139119435Y-91608404D01*
X139123073Y-91594821D01*
X139127967Y-91583005D01*
X139135000Y-91570827D01*
X139135000Y-91490174D01*
X139135000Y-91166077D01*
X139145691Y-91135525D01*
X139169790Y-91105307D01*
X139190156Y-91016076D01*
X139169790Y-90926845D01*
X139129419Y-90876223D01*
X139116167Y-90859605D01*
X139116166Y-90859604D01*
X139112724Y-90855288D01*
X139030263Y-90815576D01*
X139024743Y-90815576D01*
X139017135Y-90815576D01*
X138982487Y-90801224D01*
X138879852Y-90698589D01*
X138865500Y-90663941D01*
X138865500Y-89642635D01*
X138879852Y-89607987D01*
X139022987Y-89464852D01*
X139057635Y-89450500D01*
X139065243Y-89450500D01*
X139070763Y-89450500D01*
X139153224Y-89410788D01*
X139210290Y-89339231D01*
X139230656Y-89250000D01*
X139226728Y-89232793D01*
X139225500Y-89221892D01*
X139225500Y-89199283D01*
X139229230Y-89180531D01*
X139239852Y-89164635D01*
X139389636Y-89014852D01*
X139424284Y-89000500D01*
X140681655Y-89000500D01*
X140716303Y-89014852D01*
X141129168Y-89427717D01*
X141142972Y-89455060D01*
X141137843Y-89485258D01*
X141115785Y-89506510D01*
X141110813Y-89508904D01*
X141110807Y-89508908D01*
X141105837Y-89511302D01*
X141102396Y-89515616D01*
X141102393Y-89515619D01*
X141052214Y-89578541D01*
X141052213Y-89578542D01*
X141048771Y-89582859D01*
X141047542Y-89588240D01*
X141047542Y-89588242D01*
X141033670Y-89649019D01*
X141020547Y-89672763D01*
X140547096Y-90146216D01*
X140494626Y-90198685D01*
X140494624Y-90198687D01*
X140490065Y-90203247D01*
X140488396Y-90209474D01*
X140488395Y-90209477D01*
X140486425Y-90216831D01*
X140481532Y-90228643D01*
X140477725Y-90235236D01*
X140477723Y-90235239D01*
X140474500Y-90240824D01*
X140474499Y-90247270D01*
X140474499Y-90247274D01*
X140474499Y-90284620D01*
X140474499Y-90321477D01*
X140474500Y-90321478D01*
X140474500Y-90321479D01*
X140474500Y-90426618D01*
X140464375Y-90456447D01*
X140438183Y-90473948D01*
X140436123Y-90474500D01*
X140429673Y-90474500D01*
X140424088Y-90477723D01*
X140424085Y-90477725D01*
X140417492Y-90481532D01*
X140405679Y-90486425D01*
X140392096Y-90490065D01*
X140387538Y-90494622D01*
X140387536Y-90494624D01*
X138587096Y-92295064D01*
X138587096Y-92295065D01*
X138534626Y-92347534D01*
X138534624Y-92347536D01*
X138530065Y-92352096D01*
X138528396Y-92358323D01*
X138528395Y-92358326D01*
X138526425Y-92365680D01*
X138521532Y-92377492D01*
X138517725Y-92384085D01*
X138517723Y-92384088D01*
X138514500Y-92389673D01*
X138514499Y-92396119D01*
X138514499Y-92396123D01*
X138514499Y-92431844D01*
X138514499Y-92470326D01*
X138514500Y-92470328D01*
X138514500Y-93329673D01*
X138514500Y-93410327D01*
X138517724Y-93415911D01*
X138517725Y-93415914D01*
X138521531Y-93422506D01*
X138526426Y-93434323D01*
X138528395Y-93441674D01*
X138528396Y-93441676D01*
X138530065Y-93447904D01*
X138561219Y-93479059D01*
X138587094Y-93504934D01*
X138587100Y-93504939D01*
X138932674Y-93850512D01*
X138932674Y-93850513D01*
X138989705Y-93907544D01*
X139003286Y-93911182D01*
X139015106Y-93916078D01*
X139027282Y-93923109D01*
X139107935Y-93923110D01*
X139107937Y-93923109D01*
X139486309Y-93923109D01*
X139513872Y-93932754D01*
X139514385Y-93933397D01*
X139596846Y-93973109D01*
X139682852Y-93973109D01*
X139688372Y-93973109D01*
X139770833Y-93933397D01*
X139827899Y-93861840D01*
X139848265Y-93772609D01*
X139827899Y-93683378D01*
X139824454Y-93679058D01*
X139822061Y-93674089D01*
X139824309Y-93673006D01*
X139817117Y-93651733D01*
X139828989Y-93620712D01*
X139857918Y-93604389D01*
X139890610Y-93610267D01*
X139899673Y-93615500D01*
X139980326Y-93615501D01*
X139980328Y-93615500D01*
X142069673Y-93615500D01*
X142129814Y-93615500D01*
X142150327Y-93615500D01*
X142162505Y-93608467D01*
X142174321Y-93603573D01*
X142187904Y-93599935D01*
X142244935Y-93542905D01*
X142244935Y-93542903D01*
X142422986Y-93364852D01*
X142457635Y-93350500D01*
X142465243Y-93350500D01*
X142470763Y-93350500D01*
X142553224Y-93310788D01*
X142610290Y-93239231D01*
X142630656Y-93150000D01*
X142610290Y-93060769D01*
X142553224Y-92989212D01*
X142552134Y-92988687D01*
X142535676Y-92960585D01*
X142542876Y-92926091D01*
X142562305Y-92911942D01*
X142561086Y-92909830D01*
X142566674Y-92906603D01*
X142572904Y-92904935D01*
X142629935Y-92847905D01*
X142629935Y-92847903D01*
X142700852Y-92776985D01*
X142735500Y-92762634D01*
X142770148Y-92776986D01*
X142784500Y-92811634D01*
X142784500Y-93019673D01*
X142784500Y-93100327D01*
X142787724Y-93105911D01*
X142787725Y-93105914D01*
X142791531Y-93112506D01*
X142796426Y-93124323D01*
X142797124Y-93126930D01*
X142800065Y-93137904D01*
X142804626Y-93142464D01*
X142804626Y-93142465D01*
X142811486Y-93149325D01*
X142824609Y-93173069D01*
X142835175Y-93219364D01*
X142839710Y-93239231D01*
X142843152Y-93243547D01*
X142887389Y-93299018D01*
X142896776Y-93310788D01*
X142979237Y-93350500D01*
X143065243Y-93350500D01*
X143070763Y-93350500D01*
X143094269Y-93339180D01*
X143110664Y-93331285D01*
X143142827Y-93327661D01*
X143170234Y-93344881D01*
X143180924Y-93375432D01*
X143180924Y-93638268D01*
X143173414Y-93664337D01*
X143153184Y-93682415D01*
X143081752Y-93716815D01*
X143081749Y-93716816D01*
X143076776Y-93719212D01*
X143073335Y-93723526D01*
X143073332Y-93723529D01*
X143023154Y-93786450D01*
X143019710Y-93790769D01*
X143018481Y-93796150D01*
X143018481Y-93796152D01*
X143016712Y-93803903D01*
X142999344Y-93880000D01*
X143019710Y-93969231D01*
X143076776Y-94040788D01*
X143159237Y-94080500D01*
X143245243Y-94080500D01*
X143250763Y-94080500D01*
X143333224Y-94040788D01*
X143390290Y-93969231D01*
X143402433Y-93916026D01*
X143415557Y-93892281D01*
X143433219Y-93874620D01*
X143451854Y-93855985D01*
X143466359Y-93841480D01*
X143469997Y-93827897D01*
X143474891Y-93816081D01*
X143481924Y-93803903D01*
X143481924Y-93723250D01*
X143481924Y-93528059D01*
X143496276Y-93493411D01*
X143530924Y-93479059D01*
X143565572Y-93493411D01*
X143580065Y-93507904D01*
X143637096Y-93564935D01*
X143650677Y-93568573D01*
X143662497Y-93573469D01*
X143674673Y-93580500D01*
X143695186Y-93580500D01*
X143755326Y-93580500D01*
X143864673Y-93580500D01*
X143924814Y-93580500D01*
X143938876Y-93580500D01*
X143945327Y-93580500D01*
X143957505Y-93573467D01*
X143969321Y-93568573D01*
X143982904Y-93564935D01*
X144039935Y-93507905D01*
X144039935Y-93507903D01*
X144080353Y-93467485D01*
X144115000Y-93453135D01*
X144149648Y-93467487D01*
X144175065Y-93492904D01*
X144232096Y-93549935D01*
X144245677Y-93553573D01*
X144257497Y-93558469D01*
X144269673Y-93565500D01*
X144290186Y-93565500D01*
X144350326Y-93565500D01*
X144402173Y-93565500D01*
X144462314Y-93565500D01*
X144476376Y-93565500D01*
X144482827Y-93565500D01*
X144495005Y-93558467D01*
X144506821Y-93553573D01*
X144520404Y-93549935D01*
X144577435Y-93492905D01*
X144577435Y-93492903D01*
X144665430Y-93404909D01*
X144679935Y-93390404D01*
X144683573Y-93376821D01*
X144688466Y-93365007D01*
X144692036Y-93358824D01*
X144720027Y-93336504D01*
X144755730Y-93339180D01*
X144774261Y-93348104D01*
X144774262Y-93348104D01*
X144779237Y-93350500D01*
X144792365Y-93350500D01*
X144827013Y-93364852D01*
X144844570Y-93382409D01*
X144912591Y-93450431D01*
X144912593Y-93450432D01*
X144927096Y-93464935D01*
X144933327Y-93466604D01*
X144933328Y-93466605D01*
X144934478Y-93466913D01*
X144940676Y-93468573D01*
X144952492Y-93473467D01*
X144964673Y-93480500D01*
X145045327Y-93480501D01*
X145045329Y-93480500D01*
X145164673Y-93480500D01*
X145224814Y-93480500D01*
X145245327Y-93480500D01*
X145257505Y-93473467D01*
X145269321Y-93468573D01*
X145282904Y-93464935D01*
X145339935Y-93407905D01*
X145339935Y-93407904D01*
X145365431Y-93382409D01*
X145365432Y-93382406D01*
X145432988Y-93314850D01*
X145467635Y-93300500D01*
X146276461Y-93300500D01*
X146309790Y-93313581D01*
X146325324Y-93345838D01*
X146315895Y-93376406D01*
X146316048Y-93376480D01*
X146315559Y-93377493D01*
X146314771Y-93380049D01*
X146310210Y-93385769D01*
X146308981Y-93391150D01*
X146308981Y-93391152D01*
X146299192Y-93434041D01*
X146289844Y-93475000D01*
X146291072Y-93480380D01*
X146308957Y-93558744D01*
X146310210Y-93564231D01*
X146324786Y-93582508D01*
X146351096Y-93615500D01*
X146367276Y-93635788D01*
X146449737Y-93675500D01*
X146455257Y-93675500D01*
X146472864Y-93675500D01*
X146500087Y-93683758D01*
X146518134Y-93705749D01*
X146520922Y-93734060D01*
X146507512Y-93759148D01*
X146340426Y-93926233D01*
X146309439Y-93940448D01*
X146276679Y-93931009D01*
X146258006Y-93902486D01*
X146257955Y-93902264D01*
X146253866Y-93884345D01*
X146196800Y-93812788D01*
X146114339Y-93773076D01*
X146022813Y-93773076D01*
X146017840Y-93775470D01*
X146017839Y-93775471D01*
X145945326Y-93810392D01*
X145945324Y-93810393D01*
X145940352Y-93812788D01*
X145936911Y-93817102D01*
X145936908Y-93817105D01*
X145886751Y-93880000D01*
X145883286Y-93884345D01*
X145882057Y-93889726D01*
X145882057Y-93889728D01*
X145873076Y-93929079D01*
X145862920Y-93973576D01*
X145883286Y-94062807D01*
X145940352Y-94134364D01*
X146007686Y-94166791D01*
X146029748Y-94188042D01*
X146034879Y-94218241D01*
X146021075Y-94245586D01*
X145974146Y-94292514D01*
X145952182Y-94305195D01*
X145926818Y-94305195D01*
X145904852Y-94292513D01*
X145881965Y-94269626D01*
X145877404Y-94265065D01*
X145871172Y-94263395D01*
X145863823Y-94261426D01*
X145852006Y-94256531D01*
X145845414Y-94252725D01*
X145845411Y-94252724D01*
X145839827Y-94249500D01*
X145833379Y-94249499D01*
X145833376Y-94249499D01*
X145759179Y-94249499D01*
X145759178Y-94249499D01*
X145759174Y-94249499D01*
X145759172Y-94249499D01*
X145759171Y-94249500D01*
X139495327Y-94249500D01*
X139414673Y-94249500D01*
X139409088Y-94252723D01*
X139409085Y-94252725D01*
X139402492Y-94256532D01*
X139390680Y-94261425D01*
X139387002Y-94262410D01*
X139377096Y-94265065D01*
X139372538Y-94269622D01*
X139372536Y-94269624D01*
X139336965Y-94305195D01*
X139320065Y-94322095D01*
X139320064Y-94322096D01*
X139091661Y-94550500D01*
X138877013Y-94765148D01*
X138861117Y-94775770D01*
X138842365Y-94779500D01*
X138829237Y-94779500D01*
X138824264Y-94781894D01*
X138824263Y-94781895D01*
X138751750Y-94816816D01*
X138751748Y-94816817D01*
X138746776Y-94819212D01*
X138743335Y-94823526D01*
X138743332Y-94823529D01*
X138695108Y-94884000D01*
X138689710Y-94890769D01*
X138688481Y-94896150D01*
X138688481Y-94896152D01*
X138676251Y-94949736D01*
X138669344Y-94980000D01*
X138670572Y-94985380D01*
X138684509Y-95046446D01*
X138689710Y-95069231D01*
X138718242Y-95105009D01*
X138736801Y-95128281D01*
X138746776Y-95140788D01*
X138829237Y-95180500D01*
X138915243Y-95180500D01*
X138920763Y-95180500D01*
X139003224Y-95140788D01*
X139060290Y-95069231D01*
X139075390Y-95003066D01*
X139088512Y-94979325D01*
X139502986Y-94564852D01*
X139537635Y-94550500D01*
X145716865Y-94550500D01*
X145751513Y-94564852D01*
X145814506Y-94627845D01*
X145822291Y-94637989D01*
X145829326Y-94650174D01*
X145841508Y-94657207D01*
X145851653Y-94664992D01*
X146112703Y-94926042D01*
X146125140Y-94947124D01*
X146125827Y-94971592D01*
X146121784Y-94989307D01*
X146119344Y-95000000D01*
X146139710Y-95089231D01*
X146143154Y-95093549D01*
X146177382Y-95136470D01*
X146196776Y-95160788D01*
X146279237Y-95200500D01*
X146365243Y-95200500D01*
X146370763Y-95200500D01*
X146453224Y-95160788D01*
X146510290Y-95089231D01*
X146530656Y-95000000D01*
X146510290Y-94910769D01*
X146459947Y-94847642D01*
X146460286Y-94847370D01*
X146460129Y-94847220D01*
X146459812Y-94847473D01*
X146453224Y-94839212D01*
X146452051Y-94838647D01*
X146450789Y-94836865D01*
X146449997Y-94837658D01*
X146402905Y-94790565D01*
X146402903Y-94790564D01*
X146186987Y-94574647D01*
X146172635Y-94540000D01*
X146186987Y-94505352D01*
X146694335Y-93998004D01*
X147225430Y-93466909D01*
X147225430Y-93466908D01*
X147239935Y-93452404D01*
X147243573Y-93438821D01*
X147248467Y-93427005D01*
X147255500Y-93414827D01*
X147255501Y-93334174D01*
X147255500Y-93334172D01*
X147255500Y-88670186D01*
X147255500Y-88649673D01*
X147248467Y-88637492D01*
X147243573Y-88625675D01*
X147241604Y-88618326D01*
X147239935Y-88612096D01*
X147229849Y-88602009D01*
X147215500Y-88567364D01*
X147215500Y-86729678D01*
X147215500Y-86723227D01*
X147208469Y-86711051D01*
X147203573Y-86699230D01*
X147199935Y-86685650D01*
X147195376Y-86681091D01*
X147195375Y-86681089D01*
X147142905Y-86628619D01*
X147142903Y-86628618D01*
X147049852Y-86535567D01*
X147035500Y-86500919D01*
X147035500Y-86046124D01*
X147035500Y-86039673D01*
X147028469Y-86027497D01*
X147023573Y-86015676D01*
X147019935Y-86002096D01*
X147015376Y-85997537D01*
X147015375Y-85997535D01*
X146962905Y-85945065D01*
X146962903Y-85945064D01*
X146799852Y-85782013D01*
X146785500Y-85747365D01*
X146785500Y-84850197D01*
X146794538Y-84821842D01*
X146818316Y-84803947D01*
X146830793Y-84799581D01*
X146984522Y-84745789D01*
X147137262Y-84649816D01*
X147264816Y-84522262D01*
X147307039Y-84455064D01*
X147314011Y-84443969D01*
X147338026Y-84424261D01*
X147369065Y-84422954D01*
X147394652Y-84440574D01*
G37*
%TD.AperFunction*%
%TA.AperFunction,Conductor*%
G36*
X140850148Y-91666987D02*
G01*
X140864500Y-91701635D01*
X140864500Y-92057365D01*
X140860770Y-92076117D01*
X140850148Y-92092012D01*
X140789795Y-92152365D01*
X140732590Y-92209570D01*
X140004980Y-92937180D01*
X139982692Y-92949500D01*
X139979237Y-92949500D01*
X139974266Y-92951893D01*
X139974261Y-92951895D01*
X139954452Y-92961436D01*
X139922288Y-92965061D01*
X139894881Y-92947840D01*
X139884191Y-92917289D01*
X139884191Y-92583944D01*
X139898543Y-92549296D01*
X140780852Y-91666987D01*
X140815500Y-91652635D01*
X140850148Y-91666987D01*
G37*
%TD.AperFunction*%
%TA.AperFunction,Conductor*%
G36*
X143167013Y-91065352D02*
G01*
X143196596Y-91094935D01*
X143210177Y-91098573D01*
X143221997Y-91103469D01*
X143234173Y-91110500D01*
X143314827Y-91110501D01*
X143314829Y-91110500D01*
X143775173Y-91110500D01*
X143835314Y-91110500D01*
X143855827Y-91110500D01*
X143868005Y-91103467D01*
X143879821Y-91098573D01*
X143893404Y-91094935D01*
X143922988Y-91065351D01*
X143957637Y-91051000D01*
X144122995Y-91051000D01*
X144157643Y-91065352D01*
X144241551Y-91149260D01*
X144254674Y-91173005D01*
X144258461Y-91189597D01*
X144256303Y-91218402D01*
X144238293Y-91240986D01*
X144210690Y-91249500D01*
X143390327Y-91249500D01*
X143309673Y-91249500D01*
X143304088Y-91252723D01*
X143304085Y-91252725D01*
X143297492Y-91256532D01*
X143285680Y-91261425D01*
X143282002Y-91262410D01*
X143272096Y-91265065D01*
X143267538Y-91269622D01*
X143267536Y-91269624D01*
X143215064Y-91322096D01*
X143177013Y-91360148D01*
X143161116Y-91370770D01*
X143142364Y-91374500D01*
X143132635Y-91374500D01*
X143097987Y-91360148D01*
X143007465Y-91269626D01*
X143002904Y-91265065D01*
X142996672Y-91263395D01*
X142989323Y-91261426D01*
X142977506Y-91256531D01*
X142970914Y-91252725D01*
X142970911Y-91252724D01*
X142965327Y-91249500D01*
X142958879Y-91249499D01*
X142958876Y-91249499D01*
X142884679Y-91249499D01*
X142884678Y-91249499D01*
X142884674Y-91249499D01*
X142884672Y-91249499D01*
X142884671Y-91249500D01*
X142545327Y-91249500D01*
X142464673Y-91249500D01*
X142459088Y-91252723D01*
X142459085Y-91252725D01*
X142452492Y-91256532D01*
X142440680Y-91261425D01*
X142437002Y-91262410D01*
X142427096Y-91265065D01*
X142422538Y-91269622D01*
X142422536Y-91269624D01*
X142047096Y-91645064D01*
X142047096Y-91645065D01*
X141994626Y-91697534D01*
X141994624Y-91697536D01*
X141990065Y-91702096D01*
X141988396Y-91708323D01*
X141988395Y-91708326D01*
X141986425Y-91715680D01*
X141981532Y-91727492D01*
X141977725Y-91734085D01*
X141977723Y-91734088D01*
X141974500Y-91739673D01*
X141974499Y-91746119D01*
X141974499Y-91746123D01*
X141974499Y-91780449D01*
X141974499Y-91820326D01*
X141974500Y-91820327D01*
X141974500Y-91820328D01*
X141974500Y-91992365D01*
X141960148Y-92027013D01*
X141877013Y-92110148D01*
X141842365Y-92124500D01*
X141540327Y-92124500D01*
X141459673Y-92124500D01*
X141454088Y-92127723D01*
X141454085Y-92127725D01*
X141447492Y-92131532D01*
X141435679Y-92136425D01*
X141422096Y-92140065D01*
X141417538Y-92144622D01*
X141417536Y-92144624D01*
X141365064Y-92197096D01*
X141257591Y-92304570D01*
X141007013Y-92555148D01*
X140972365Y-92569500D01*
X140916635Y-92569500D01*
X140881987Y-92555148D01*
X140867635Y-92520500D01*
X140881987Y-92485852D01*
X140910852Y-92456987D01*
X140945430Y-92422409D01*
X140945429Y-92422409D01*
X141135430Y-92232409D01*
X141135430Y-92232408D01*
X141149935Y-92217904D01*
X141153573Y-92204321D01*
X141158467Y-92192505D01*
X141165500Y-92180327D01*
X141165501Y-92099673D01*
X141165500Y-92099671D01*
X141165500Y-91840186D01*
X141165500Y-91732635D01*
X141179852Y-91697987D01*
X141317987Y-91559852D01*
X141352635Y-91545500D01*
X141568876Y-91545500D01*
X141575327Y-91545500D01*
X141587505Y-91538467D01*
X141599321Y-91533573D01*
X141612904Y-91529935D01*
X141669935Y-91472905D01*
X141669935Y-91472903D01*
X142077486Y-91065352D01*
X142112135Y-91051000D01*
X143132365Y-91051000D01*
X143167013Y-91065352D01*
G37*
%TD.AperFunction*%
%TA.AperFunction,Conductor*%
G36*
X141954924Y-90115353D02*
G01*
X141971974Y-90128949D01*
X141989389Y-90150788D01*
X141994154Y-90156762D01*
X142009043Y-90163932D01*
X142031928Y-90186817D01*
X142035553Y-90218981D01*
X142019344Y-90290000D01*
X142020572Y-90295380D01*
X142031552Y-90343490D01*
X142039710Y-90379231D01*
X142052025Y-90394673D01*
X142084013Y-90434785D01*
X142096776Y-90450788D01*
X142179237Y-90490500D01*
X142265243Y-90490500D01*
X142270763Y-90490500D01*
X142353224Y-90450788D01*
X142378617Y-90418946D01*
X142395664Y-90405352D01*
X142416924Y-90400500D01*
X143352365Y-90400500D01*
X143387013Y-90414852D01*
X143425345Y-90453183D01*
X143460065Y-90487903D01*
X143460065Y-90487904D01*
X143517096Y-90544935D01*
X143530677Y-90548573D01*
X143542497Y-90553469D01*
X143554673Y-90560500D01*
X143575186Y-90560500D01*
X143635326Y-90560500D01*
X145563363Y-90560500D01*
X145598011Y-90574852D01*
X145612363Y-90609500D01*
X145598011Y-90644148D01*
X145590065Y-90652094D01*
X145590065Y-90652095D01*
X145590064Y-90652096D01*
X145587096Y-90655065D01*
X145587090Y-90655071D01*
X145534626Y-90707534D01*
X145534624Y-90707536D01*
X145530065Y-90712096D01*
X145528396Y-90718323D01*
X145528395Y-90718326D01*
X145526425Y-90725680D01*
X145521532Y-90737492D01*
X145517725Y-90744085D01*
X145517723Y-90744088D01*
X145514500Y-90749673D01*
X145514499Y-90756119D01*
X145514499Y-90756123D01*
X145514499Y-90792490D01*
X145514499Y-90830326D01*
X145514500Y-90830328D01*
X145514500Y-90863541D01*
X145513734Y-90869356D01*
X145512256Y-90871917D01*
X145512255Y-90878361D01*
X145512255Y-90878365D01*
X145512255Y-90913491D01*
X145504744Y-90939560D01*
X145484516Y-90957637D01*
X145423324Y-90987107D01*
X145411098Y-90992995D01*
X145407657Y-90997309D01*
X145407654Y-90997312D01*
X145357475Y-91060234D01*
X145357474Y-91060235D01*
X145354032Y-91064552D01*
X145352803Y-91069933D01*
X145352803Y-91069935D01*
X145347429Y-91093479D01*
X145334307Y-91117223D01*
X145299146Y-91152383D01*
X145274060Y-91165792D01*
X145245749Y-91163004D01*
X145223758Y-91144957D01*
X145215500Y-91117734D01*
X145215500Y-91076124D01*
X145215500Y-91069673D01*
X145208469Y-91057497D01*
X145203573Y-91045676D01*
X145203165Y-91044154D01*
X145199935Y-91032096D01*
X145195376Y-91027537D01*
X145195375Y-91027535D01*
X145142905Y-90975065D01*
X145142903Y-90975064D01*
X145077409Y-90909570D01*
X145077409Y-90909569D01*
X145062904Y-90895065D01*
X145049323Y-90891426D01*
X145037506Y-90886531D01*
X145030914Y-90882725D01*
X145030911Y-90882724D01*
X145025327Y-90879500D01*
X145018879Y-90879499D01*
X145018876Y-90879499D01*
X144944679Y-90879499D01*
X144944678Y-90879499D01*
X144944674Y-90879499D01*
X144944672Y-90879499D01*
X144944671Y-90879500D01*
X144875327Y-90879500D01*
X144794673Y-90879500D01*
X144789088Y-90882723D01*
X144789085Y-90882725D01*
X144782492Y-90886532D01*
X144770680Y-90891425D01*
X144767002Y-90892410D01*
X144757096Y-90895065D01*
X144752538Y-90899622D01*
X144752536Y-90899624D01*
X144726390Y-90925770D01*
X144700065Y-90952095D01*
X144700064Y-90952096D01*
X144677096Y-90975064D01*
X144657430Y-90994730D01*
X144633684Y-91007853D01*
X144606595Y-91006330D01*
X144591865Y-90995877D01*
X144591046Y-90996905D01*
X144586732Y-90993464D01*
X144583289Y-90989147D01*
X144570292Y-90982888D01*
X144507338Y-90952570D01*
X144500828Y-90949435D01*
X144495308Y-90949435D01*
X144487700Y-90949435D01*
X144453052Y-90935083D01*
X144298039Y-90780070D01*
X144298039Y-90780069D01*
X144283534Y-90765565D01*
X144269953Y-90761926D01*
X144258136Y-90757031D01*
X144251544Y-90753225D01*
X144251541Y-90753224D01*
X144245957Y-90750000D01*
X144239509Y-90749999D01*
X144239506Y-90749999D01*
X144165309Y-90749999D01*
X144165308Y-90749999D01*
X144165304Y-90749999D01*
X144165302Y-90749999D01*
X144165301Y-90750000D01*
X143915327Y-90750000D01*
X143834673Y-90750000D01*
X143829088Y-90753223D01*
X143829085Y-90753225D01*
X143822492Y-90757032D01*
X143810680Y-90761925D01*
X143807002Y-90762910D01*
X143797096Y-90765565D01*
X143792539Y-90770121D01*
X143792535Y-90770124D01*
X143767511Y-90795149D01*
X143732863Y-90809500D01*
X143357135Y-90809500D01*
X143322487Y-90795148D01*
X143307409Y-90780070D01*
X143307409Y-90780069D01*
X143292904Y-90765565D01*
X143279323Y-90761926D01*
X143267506Y-90757031D01*
X143260914Y-90753225D01*
X143260911Y-90753224D01*
X143255327Y-90750000D01*
X143248879Y-90749999D01*
X143248876Y-90749999D01*
X143174679Y-90749999D01*
X143174678Y-90749999D01*
X143174674Y-90749999D01*
X143174672Y-90749999D01*
X143174671Y-90750000D01*
X142069827Y-90750000D01*
X141989173Y-90750000D01*
X141983588Y-90753223D01*
X141983585Y-90753225D01*
X141976992Y-90757032D01*
X141965180Y-90761925D01*
X141961502Y-90762910D01*
X141951596Y-90765565D01*
X141947038Y-90770122D01*
X141947036Y-90770124D01*
X141922012Y-90795148D01*
X141894565Y-90822595D01*
X141894564Y-90822596D01*
X141683661Y-91033500D01*
X141487013Y-91230148D01*
X141471117Y-91240770D01*
X141452365Y-91244500D01*
X141321635Y-91244500D01*
X141286987Y-91230148D01*
X141272635Y-91195500D01*
X141286987Y-91160852D01*
X141520994Y-90926845D01*
X141745430Y-90702409D01*
X141759935Y-90687904D01*
X141763573Y-90674321D01*
X141768467Y-90662505D01*
X141775500Y-90650327D01*
X141775501Y-90569674D01*
X141775500Y-90569672D01*
X141775500Y-90360001D01*
X141786191Y-90329449D01*
X141792547Y-90321479D01*
X141810290Y-90299231D01*
X141830656Y-90210000D01*
X141829428Y-90204620D01*
X141829428Y-90204617D01*
X141821619Y-90170404D01*
X141823777Y-90141598D01*
X141841787Y-90119014D01*
X141869390Y-90110500D01*
X141933664Y-90110500D01*
X141954924Y-90115353D01*
G37*
%TD.AperFunction*%
%TA.AperFunction,Conductor*%
G36*
X145656878Y-89899014D02*
G01*
X145674888Y-89921598D01*
X145677047Y-89950403D01*
X145671936Y-89972796D01*
X145665494Y-90001022D01*
X145666722Y-90006402D01*
X145682115Y-90073847D01*
X145685860Y-90090253D01*
X145728158Y-90143292D01*
X145738711Y-90170180D01*
X145732284Y-90198341D01*
X145711109Y-90217989D01*
X145651251Y-90246816D01*
X145651249Y-90246817D01*
X145646277Y-90249212D01*
X145645764Y-90249854D01*
X145618201Y-90259500D01*
X143677635Y-90259500D01*
X143642987Y-90245148D01*
X143517465Y-90119626D01*
X143512904Y-90115065D01*
X143506672Y-90113395D01*
X143499323Y-90111426D01*
X143487506Y-90106531D01*
X143480914Y-90102725D01*
X143480911Y-90102724D01*
X143475327Y-90099500D01*
X143468879Y-90099499D01*
X143468876Y-90099499D01*
X143394679Y-90099499D01*
X143394678Y-90099499D01*
X143394674Y-90099499D01*
X143394672Y-90099499D01*
X143394671Y-90099500D01*
X142365850Y-90099500D01*
X142338248Y-90090986D01*
X142320237Y-90068402D01*
X142318078Y-90039597D01*
X142326806Y-90001355D01*
X142326806Y-90001354D01*
X142328034Y-89995974D01*
X142317632Y-89950403D01*
X142319792Y-89921598D01*
X142337802Y-89899014D01*
X142365405Y-89890500D01*
X145629275Y-89890500D01*
X145656878Y-89899014D01*
G37*
%TD.AperFunction*%
%TA.AperFunction,Conductor*%
G36*
X145399149Y-87196988D02*
G01*
X145447594Y-87245434D01*
X145447600Y-87245439D01*
X145730148Y-87527987D01*
X145744500Y-87562635D01*
X145744500Y-87789999D01*
X145733809Y-87820550D01*
X145709710Y-87850769D01*
X145708482Y-87856146D01*
X145708481Y-87856150D01*
X145694853Y-87915862D01*
X145689344Y-87940000D01*
X145690572Y-87945380D01*
X145708432Y-88023634D01*
X145709710Y-88029231D01*
X145733600Y-88059188D01*
X145762681Y-88095654D01*
X145766776Y-88100788D01*
X145819560Y-88126208D01*
X145822401Y-88127576D01*
X145844463Y-88148827D01*
X145849594Y-88179026D01*
X145835789Y-88206371D01*
X145696597Y-88345564D01*
X145644127Y-88398033D01*
X145644125Y-88398035D01*
X145639566Y-88402595D01*
X145637897Y-88408822D01*
X145637896Y-88408825D01*
X145635926Y-88416179D01*
X145631033Y-88427991D01*
X145627226Y-88434584D01*
X145627224Y-88434587D01*
X145624001Y-88440172D01*
X145624000Y-88446618D01*
X145624000Y-88446622D01*
X145624000Y-88482156D01*
X145624000Y-88520825D01*
X145624001Y-88520826D01*
X145624001Y-88520827D01*
X145624001Y-88829499D01*
X145613310Y-88860050D01*
X145589211Y-88890269D01*
X145587983Y-88895646D01*
X145587982Y-88895650D01*
X145574528Y-88954602D01*
X145568845Y-88979500D01*
X145589211Y-89068731D01*
X145646277Y-89140288D01*
X145728738Y-89180000D01*
X145734258Y-89180000D01*
X145820264Y-89180000D01*
X145820264Y-89180609D01*
X145842904Y-89182307D01*
X145865487Y-89200317D01*
X145874001Y-89227919D01*
X145874001Y-89307153D01*
X145859649Y-89341801D01*
X145726303Y-89475148D01*
X145710407Y-89485770D01*
X145691655Y-89489500D01*
X142460421Y-89489500D01*
X142429870Y-89478810D01*
X142412649Y-89451403D01*
X142416274Y-89419239D01*
X142416847Y-89418047D01*
X142420290Y-89413731D01*
X142440656Y-89324500D01*
X142420290Y-89235269D01*
X142396190Y-89205050D01*
X142385500Y-89174499D01*
X142385500Y-88572635D01*
X142399852Y-88537987D01*
X142521660Y-88416179D01*
X142647131Y-88290707D01*
X142669095Y-88278027D01*
X142694459Y-88278027D01*
X142716422Y-88290707D01*
X143023619Y-88597903D01*
X143023619Y-88597904D01*
X143080650Y-88654935D01*
X143094231Y-88658573D01*
X143106051Y-88663469D01*
X143118227Y-88670500D01*
X143198880Y-88670501D01*
X143198882Y-88670500D01*
X144088227Y-88670500D01*
X144148368Y-88670500D01*
X144168881Y-88670500D01*
X144181059Y-88663467D01*
X144192875Y-88658573D01*
X144206458Y-88654935D01*
X144263489Y-88597905D01*
X144263489Y-88597903D01*
X144694763Y-88166629D01*
X144729412Y-88152277D01*
X145017099Y-88152277D01*
X145023550Y-88152277D01*
X145035728Y-88145244D01*
X145047544Y-88140350D01*
X145061127Y-88136712D01*
X145118158Y-88079682D01*
X145118158Y-88079680D01*
X145285430Y-87912409D01*
X145285429Y-87912409D01*
X145299935Y-87897904D01*
X145303573Y-87884321D01*
X145308467Y-87872505D01*
X145315500Y-87860327D01*
X145315500Y-87779674D01*
X145315500Y-87231636D01*
X145323758Y-87204413D01*
X145345749Y-87186366D01*
X145374060Y-87183578D01*
X145399149Y-87196988D01*
G37*
%TD.AperFunction*%
%TA.AperFunction,Conductor*%
G36*
X139767013Y-84634852D02*
G01*
X140976146Y-85843985D01*
X140976164Y-85844028D01*
X140976208Y-85844047D01*
X142012410Y-86880249D01*
X142026762Y-86914897D01*
X142026762Y-87909187D01*
X142016071Y-87939739D01*
X141995495Y-87965540D01*
X141991972Y-87969957D01*
X141990744Y-87975334D01*
X141990743Y-87975338D01*
X141976871Y-88036117D01*
X141963748Y-88059861D01*
X141822821Y-88200790D01*
X141770351Y-88253259D01*
X141770349Y-88253261D01*
X141765790Y-88257821D01*
X141764121Y-88264048D01*
X141764120Y-88264051D01*
X141762150Y-88271405D01*
X141757257Y-88283217D01*
X141753450Y-88289810D01*
X141753448Y-88289813D01*
X141750225Y-88295398D01*
X141750224Y-88301844D01*
X141750224Y-88301848D01*
X141750224Y-88345564D01*
X141750224Y-88376051D01*
X141750225Y-88376052D01*
X141750225Y-88376053D01*
X141750225Y-88831640D01*
X141735873Y-88866288D01*
X141667013Y-88935148D01*
X141632365Y-88949500D01*
X141579237Y-88949500D01*
X141574264Y-88951894D01*
X141574263Y-88951895D01*
X141501750Y-88986816D01*
X141501748Y-88986817D01*
X141496776Y-88989212D01*
X141493335Y-88993526D01*
X141493332Y-88993529D01*
X141443154Y-89056450D01*
X141439710Y-89060769D01*
X141438481Y-89066152D01*
X141436085Y-89071128D01*
X141434801Y-89070509D01*
X141420245Y-89092736D01*
X141387487Y-89102170D01*
X141356504Y-89087955D01*
X140989852Y-88721303D01*
X140975500Y-88686655D01*
X140975500Y-87650000D01*
X141419344Y-87650000D01*
X141420572Y-87655380D01*
X141438164Y-87732460D01*
X141439710Y-87739231D01*
X141496776Y-87810788D01*
X141579237Y-87850500D01*
X141665243Y-87850500D01*
X141670763Y-87850500D01*
X141753224Y-87810788D01*
X141810290Y-87739231D01*
X141830656Y-87650000D01*
X141810290Y-87560769D01*
X141753224Y-87489212D01*
X141670763Y-87449500D01*
X141579237Y-87449500D01*
X141574264Y-87451894D01*
X141574263Y-87451895D01*
X141501750Y-87486816D01*
X141501748Y-87486817D01*
X141496776Y-87489212D01*
X141493335Y-87493526D01*
X141493332Y-87493529D01*
X141444259Y-87555065D01*
X141439710Y-87560769D01*
X141438481Y-87566150D01*
X141438481Y-87566152D01*
X141434842Y-87582096D01*
X141419344Y-87650000D01*
X140975500Y-87650000D01*
X140975500Y-87065683D01*
X140983758Y-87038461D01*
X140988773Y-87030955D01*
X141010966Y-86997740D01*
X141030408Y-86900000D01*
X141010966Y-86802260D01*
X140983758Y-86761539D01*
X140975500Y-86734317D01*
X140975500Y-86112388D01*
X140976971Y-86103728D01*
X140976920Y-86103723D01*
X140977537Y-86098239D01*
X140979362Y-86093026D01*
X140975808Y-86061478D01*
X140975500Y-86055993D01*
X140975500Y-86050165D01*
X140975500Y-86047410D01*
X140973587Y-86039033D01*
X140972671Y-86033637D01*
X140969116Y-86002076D01*
X140966178Y-85997401D01*
X140964355Y-85992190D01*
X140964403Y-85992173D01*
X140963960Y-85991103D01*
X140963914Y-85991126D01*
X140961518Y-85986150D01*
X140960290Y-85980769D01*
X140947663Y-85964935D01*
X140940486Y-85955935D01*
X140937316Y-85951468D01*
X140932748Y-85944199D01*
X140926681Y-85938132D01*
X140923020Y-85934035D01*
X140906667Y-85913529D01*
X140906666Y-85913528D01*
X140903224Y-85909212D01*
X140898249Y-85906816D01*
X140893933Y-85903374D01*
X140893964Y-85903334D01*
X140886798Y-85898249D01*
X139692697Y-84704148D01*
X139678345Y-84669500D01*
X139692697Y-84634852D01*
X139727345Y-84620500D01*
X139732365Y-84620500D01*
X139767013Y-84634852D01*
G37*
%TD.AperFunction*%
%TA.AperFunction,Conductor*%
G36*
X139780407Y-86094230D02*
G01*
X139796302Y-86104851D01*
X139957386Y-86265936D01*
X140116068Y-86424618D01*
X140129478Y-86449705D01*
X140132133Y-86463049D01*
X140139034Y-86497740D01*
X140194399Y-86580601D01*
X140277260Y-86635966D01*
X140375000Y-86655408D01*
X140472740Y-86635966D01*
X140498277Y-86618902D01*
X140531896Y-86611064D01*
X140562340Y-86627337D01*
X140574500Y-86659645D01*
X140574500Y-86734317D01*
X140566242Y-86761539D01*
X140541716Y-86798245D01*
X140541714Y-86798247D01*
X140539034Y-86802260D01*
X140538092Y-86806994D01*
X140538092Y-86806995D01*
X140535906Y-86817987D01*
X140519592Y-86900000D01*
X140539034Y-86997740D01*
X140541716Y-87001754D01*
X140566242Y-87038461D01*
X140574500Y-87065683D01*
X140574500Y-88550500D01*
X140560148Y-88585148D01*
X140525500Y-88599500D01*
X139424284Y-88599500D01*
X139389636Y-88585148D01*
X138771971Y-87967484D01*
X138768318Y-87963397D01*
X138748514Y-87938564D01*
X138719905Y-87924786D01*
X138715099Y-87922129D01*
X138699631Y-87912410D01*
X138688214Y-87905236D01*
X138682726Y-87904617D01*
X138677516Y-87902794D01*
X138677532Y-87902747D01*
X138676420Y-87902426D01*
X138676409Y-87902476D01*
X138671028Y-87901248D01*
X138666053Y-87898852D01*
X138660530Y-87898852D01*
X138634297Y-87898852D01*
X138628812Y-87898544D01*
X138602750Y-87895608D01*
X138597264Y-87894990D01*
X138592051Y-87896813D01*
X138586567Y-87897432D01*
X138586561Y-87897380D01*
X138585418Y-87897574D01*
X138585430Y-87897624D01*
X138580049Y-87898852D01*
X138574527Y-87898852D01*
X138569553Y-87901246D01*
X138569549Y-87901248D01*
X138564882Y-87903496D01*
X138535414Y-87907656D01*
X138508975Y-87893996D01*
X138495315Y-87867556D01*
X138499103Y-87840718D01*
X138500290Y-87839231D01*
X138501519Y-87833842D01*
X138503914Y-87828870D01*
X138503961Y-87828892D01*
X138504402Y-87827828D01*
X138504352Y-87827811D01*
X138506174Y-87822603D01*
X138509115Y-87817924D01*
X138512670Y-87786364D01*
X138513586Y-87780973D01*
X138515500Y-87772590D01*
X138515500Y-87764004D01*
X138515808Y-87758518D01*
X138518744Y-87732460D01*
X138518743Y-87732459D01*
X138519362Y-87726974D01*
X138517538Y-87721761D01*
X138516920Y-87716277D01*
X138516971Y-87716271D01*
X138515500Y-87707612D01*
X138515500Y-86483345D01*
X138519230Y-86464593D01*
X138529852Y-86448697D01*
X138873698Y-86104852D01*
X138908346Y-86090500D01*
X139761655Y-86090500D01*
X139780407Y-86094230D01*
G37*
%TD.AperFunction*%
%TA.AperFunction,Conductor*%
G36*
X140421707Y-82033581D02*
G01*
X140437241Y-82065839D01*
X140426687Y-82100049D01*
X140421669Y-82106342D01*
X140418152Y-82110752D01*
X140418150Y-82110754D01*
X140414710Y-82115069D01*
X140394344Y-82204300D01*
X140414710Y-82293531D01*
X140434015Y-82317738D01*
X140458904Y-82348948D01*
X140471776Y-82365088D01*
X140554237Y-82404800D01*
X140640243Y-82404800D01*
X140645763Y-82404800D01*
X140728224Y-82365088D01*
X140741095Y-82348948D01*
X140758145Y-82335352D01*
X140779405Y-82330500D01*
X143592365Y-82330500D01*
X143627013Y-82344852D01*
X143840148Y-82557987D01*
X143854500Y-82592635D01*
X143854500Y-84369673D01*
X143854500Y-84450327D01*
X143857724Y-84455911D01*
X143857725Y-84455914D01*
X143861531Y-84462506D01*
X143866426Y-84474323D01*
X143868395Y-84481674D01*
X143868396Y-84481676D01*
X143870065Y-84487904D01*
X143901275Y-84519115D01*
X143927094Y-84544934D01*
X143927100Y-84544939D01*
X144510065Y-85127904D01*
X144567096Y-85184935D01*
X144580677Y-85188573D01*
X144592497Y-85193469D01*
X144604673Y-85200500D01*
X144685327Y-85200501D01*
X144685329Y-85200500D01*
X145222365Y-85200500D01*
X145257013Y-85214852D01*
X145943354Y-85901193D01*
X145957225Y-85928990D01*
X145951593Y-85959542D01*
X145928722Y-85980566D01*
X145902921Y-85983109D01*
X145902921Y-85983521D01*
X145811395Y-85983521D01*
X145806422Y-85985915D01*
X145806421Y-85985916D01*
X145733908Y-86020837D01*
X145733906Y-86020838D01*
X145728934Y-86023233D01*
X145725493Y-86027547D01*
X145725490Y-86027550D01*
X145675311Y-86090472D01*
X145675310Y-86090473D01*
X145671868Y-86094790D01*
X145670639Y-86100171D01*
X145670639Y-86100173D01*
X145656767Y-86160950D01*
X145643644Y-86184694D01*
X145447596Y-86380744D01*
X145399148Y-86429192D01*
X145364500Y-86443544D01*
X145329852Y-86429192D01*
X145315500Y-86394544D01*
X145315500Y-86156124D01*
X145315500Y-86149673D01*
X145308469Y-86137497D01*
X145303573Y-86125676D01*
X145301604Y-86118326D01*
X145299935Y-86112096D01*
X145288514Y-86100675D01*
X145275390Y-86076930D01*
X145271635Y-86060476D01*
X145260290Y-86010769D01*
X145203224Y-85939212D01*
X145120763Y-85899500D01*
X145114102Y-85899500D01*
X145112515Y-85898877D01*
X145109859Y-85898271D01*
X145109950Y-85897870D01*
X145080773Y-85886419D01*
X145065239Y-85854162D01*
X145075791Y-85819950D01*
X145100290Y-85789231D01*
X145120656Y-85700000D01*
X145100290Y-85610769D01*
X145050870Y-85548799D01*
X145046667Y-85543529D01*
X145046666Y-85543528D01*
X145043224Y-85539212D01*
X145037804Y-85536602D01*
X144965736Y-85501895D01*
X144960763Y-85499500D01*
X144869237Y-85499500D01*
X144864264Y-85501894D01*
X144864263Y-85501895D01*
X144791750Y-85536816D01*
X144791748Y-85536817D01*
X144786776Y-85539212D01*
X144783335Y-85543526D01*
X144783332Y-85543529D01*
X144733153Y-85606451D01*
X144733152Y-85606452D01*
X144729710Y-85610769D01*
X144728481Y-85616150D01*
X144728481Y-85616152D01*
X144714608Y-85676930D01*
X144701488Y-85700671D01*
X144694628Y-85707531D01*
X144694625Y-85707535D01*
X144690065Y-85712096D01*
X144688395Y-85718325D01*
X144688395Y-85718327D01*
X144686425Y-85725680D01*
X144681532Y-85737492D01*
X144677725Y-85744085D01*
X144677723Y-85744088D01*
X144674500Y-85749673D01*
X144674499Y-85756119D01*
X144674499Y-85756123D01*
X144674499Y-85792261D01*
X144674499Y-85830326D01*
X144674500Y-85830328D01*
X144674500Y-86209673D01*
X144674500Y-86290327D01*
X144676941Y-86294555D01*
X144674606Y-86323862D01*
X144697392Y-86335231D01*
X144722321Y-86360161D01*
X144747094Y-86384934D01*
X144747100Y-86384939D01*
X144780148Y-86417987D01*
X144794500Y-86452635D01*
X144794500Y-87067365D01*
X144780148Y-87102013D01*
X144304626Y-87577534D01*
X144304624Y-87577536D01*
X144300065Y-87582096D01*
X144298396Y-87588323D01*
X144298395Y-87588326D01*
X144296425Y-87595680D01*
X144291532Y-87607492D01*
X144287725Y-87614085D01*
X144287723Y-87614088D01*
X144284500Y-87619673D01*
X144284499Y-87626119D01*
X144284499Y-87626123D01*
X144284499Y-87650920D01*
X144270147Y-87685566D01*
X144180564Y-87775150D01*
X144164671Y-87785770D01*
X144145919Y-87789500D01*
X143547386Y-87789500D01*
X143512738Y-87775148D01*
X143388764Y-87651174D01*
X143375640Y-87627429D01*
X143373870Y-87619673D01*
X143360540Y-87561268D01*
X143303474Y-87489711D01*
X143267619Y-87472444D01*
X143225986Y-87452394D01*
X143221013Y-87449999D01*
X143129487Y-87449999D01*
X143124514Y-87452393D01*
X143124513Y-87452394D01*
X143052000Y-87487315D01*
X143051998Y-87487316D01*
X143047026Y-87489711D01*
X143043585Y-87494025D01*
X143043582Y-87494028D01*
X142993802Y-87556450D01*
X142989960Y-87561268D01*
X142969594Y-87650499D01*
X142970822Y-87655879D01*
X142988073Y-87731465D01*
X142989960Y-87739730D01*
X143014980Y-87771103D01*
X143023730Y-87782076D01*
X143047026Y-87811287D01*
X143129487Y-87850999D01*
X143142615Y-87850999D01*
X143177263Y-87865351D01*
X143329816Y-88017904D01*
X143386847Y-88074935D01*
X143400428Y-88078573D01*
X143412248Y-88083469D01*
X143424424Y-88090500D01*
X143430875Y-88090500D01*
X144226919Y-88090500D01*
X144261567Y-88104852D01*
X144275919Y-88139500D01*
X144261567Y-88174148D01*
X144080567Y-88355148D01*
X144045919Y-88369500D01*
X143241189Y-88369500D01*
X143206541Y-88355148D01*
X142819852Y-87968459D01*
X142805500Y-87933811D01*
X142805500Y-86736124D01*
X142805500Y-86729673D01*
X142798469Y-86717497D01*
X142793573Y-86705676D01*
X142793516Y-86705463D01*
X142789935Y-86692096D01*
X142785376Y-86687537D01*
X142785375Y-86687535D01*
X142732905Y-86635065D01*
X142732903Y-86635064D01*
X142710802Y-86612963D01*
X142952307Y-86612963D01*
X142953535Y-86618343D01*
X142961953Y-86655228D01*
X142972673Y-86702194D01*
X142986575Y-86719626D01*
X143005805Y-86743740D01*
X143029739Y-86773751D01*
X143112200Y-86813463D01*
X143198206Y-86813463D01*
X143203726Y-86813463D01*
X143286187Y-86773751D01*
X143343253Y-86702194D01*
X143363619Y-86612963D01*
X143343253Y-86523732D01*
X143286187Y-86452175D01*
X143280632Y-86449500D01*
X144219344Y-86449500D01*
X144239710Y-86538731D01*
X144296776Y-86610288D01*
X144379237Y-86650000D01*
X144465243Y-86650000D01*
X144470763Y-86650000D01*
X144553224Y-86610288D01*
X144610290Y-86538731D01*
X144630656Y-86449500D01*
X144629428Y-86444120D01*
X144629428Y-86444115D01*
X144614973Y-86380783D01*
X144617714Y-86352944D01*
X144591399Y-86336581D01*
X144553224Y-86288712D01*
X144540688Y-86282675D01*
X144486401Y-86256531D01*
X144470763Y-86249000D01*
X144379237Y-86249000D01*
X144374264Y-86251394D01*
X144374263Y-86251395D01*
X144301750Y-86286316D01*
X144301748Y-86286317D01*
X144296776Y-86288712D01*
X144293335Y-86293026D01*
X144293332Y-86293029D01*
X144244134Y-86354721D01*
X144239710Y-86360269D01*
X144238481Y-86365650D01*
X144238481Y-86365652D01*
X144227432Y-86414063D01*
X144219344Y-86449500D01*
X143280632Y-86449500D01*
X143208699Y-86414858D01*
X143203726Y-86412463D01*
X143112200Y-86412463D01*
X143107227Y-86414857D01*
X143107226Y-86414858D01*
X143034713Y-86449779D01*
X143034711Y-86449780D01*
X143029739Y-86452175D01*
X143026298Y-86456489D01*
X143026295Y-86456492D01*
X142976117Y-86519413D01*
X142972673Y-86523732D01*
X142971444Y-86529113D01*
X142971444Y-86529115D01*
X142960609Y-86576589D01*
X142952307Y-86612963D01*
X142710802Y-86612963D01*
X141477839Y-85380000D01*
X143819344Y-85380000D01*
X143839710Y-85469231D01*
X143846631Y-85477909D01*
X143888471Y-85530375D01*
X143896776Y-85540788D01*
X143979237Y-85580500D01*
X144065243Y-85580500D01*
X144070763Y-85580500D01*
X144153224Y-85540788D01*
X144210290Y-85469231D01*
X144230656Y-85380000D01*
X144210290Y-85290769D01*
X144153224Y-85219212D01*
X144070763Y-85179500D01*
X143979237Y-85179500D01*
X143974264Y-85181894D01*
X143974263Y-85181895D01*
X143901750Y-85216816D01*
X143901748Y-85216817D01*
X143896776Y-85219212D01*
X143893335Y-85223526D01*
X143893332Y-85223529D01*
X143843154Y-85286450D01*
X143839710Y-85290769D01*
X143838481Y-85296150D01*
X143838481Y-85296152D01*
X143827515Y-85344199D01*
X143819344Y-85380000D01*
X141477839Y-85380000D01*
X140572839Y-84475000D01*
X142269592Y-84475000D01*
X142270534Y-84479736D01*
X142288092Y-84568007D01*
X142288093Y-84568009D01*
X142289034Y-84572740D01*
X142291713Y-84576750D01*
X142291714Y-84576751D01*
X142341512Y-84651281D01*
X142344399Y-84655601D01*
X142427260Y-84710966D01*
X142525000Y-84730408D01*
X142622740Y-84710966D01*
X142705601Y-84655601D01*
X142760966Y-84572740D01*
X142780408Y-84475000D01*
X142779033Y-84468090D01*
X142774148Y-84443529D01*
X142760966Y-84377260D01*
X142705601Y-84294399D01*
X142697435Y-84288943D01*
X142626751Y-84241714D01*
X142626750Y-84241713D01*
X142622740Y-84239034D01*
X142618009Y-84238093D01*
X142618007Y-84238092D01*
X142529736Y-84220534D01*
X142525000Y-84219592D01*
X142520264Y-84220534D01*
X142431992Y-84238092D01*
X142431988Y-84238093D01*
X142427260Y-84239034D01*
X142423250Y-84241712D01*
X142423248Y-84241714D01*
X142348410Y-84291718D01*
X142348407Y-84291720D01*
X142344399Y-84294399D01*
X142341720Y-84298407D01*
X142341718Y-84298410D01*
X142291714Y-84373248D01*
X142291712Y-84373250D01*
X142289034Y-84377260D01*
X142288093Y-84381988D01*
X142288092Y-84381992D01*
X142270579Y-84470039D01*
X142269592Y-84475000D01*
X140572839Y-84475000D01*
X140157409Y-84059570D01*
X140142904Y-84045065D01*
X140136672Y-84043395D01*
X140129323Y-84041426D01*
X140117506Y-84036531D01*
X140110914Y-84032725D01*
X140110911Y-84032724D01*
X140105327Y-84029500D01*
X140098879Y-84029499D01*
X140098876Y-84029499D01*
X140024679Y-84029499D01*
X140024678Y-84029499D01*
X140024674Y-84029499D01*
X140024672Y-84029499D01*
X140024671Y-84029500D01*
X139185327Y-84029500D01*
X139104673Y-84029500D01*
X139099088Y-84032723D01*
X139099085Y-84032725D01*
X139092492Y-84036532D01*
X139080680Y-84041425D01*
X139077002Y-84042410D01*
X139067096Y-84045065D01*
X139062538Y-84049622D01*
X139062536Y-84049624D01*
X139010065Y-84102095D01*
X138657100Y-84455059D01*
X138657098Y-84455061D01*
X138657096Y-84455064D01*
X138657096Y-84455065D01*
X138630999Y-84481162D01*
X138606169Y-84505992D01*
X138582424Y-84519115D01*
X138555337Y-84517593D01*
X138533213Y-84501896D01*
X138483224Y-84439212D01*
X138400763Y-84399500D01*
X138309237Y-84399500D01*
X138304264Y-84401894D01*
X138304263Y-84401895D01*
X138231750Y-84436816D01*
X138231748Y-84436817D01*
X138226776Y-84439212D01*
X138223335Y-84443526D01*
X138223332Y-84443529D01*
X138173154Y-84506450D01*
X138169710Y-84510769D01*
X138168481Y-84516152D01*
X138166085Y-84521128D01*
X138165261Y-84520731D01*
X138148360Y-84545521D01*
X138113455Y-84553488D01*
X138082449Y-84535586D01*
X138053455Y-84499229D01*
X138053454Y-84499228D01*
X138050012Y-84494912D01*
X138021460Y-84481162D01*
X137972524Y-84457595D01*
X137967551Y-84455200D01*
X137876025Y-84455200D01*
X137871055Y-84457593D01*
X137871048Y-84457595D01*
X137866363Y-84459852D01*
X137830657Y-84462526D01*
X137806973Y-84443633D01*
X137806723Y-84443884D01*
X137749693Y-84386853D01*
X137749691Y-84386852D01*
X137517409Y-84154570D01*
X137517409Y-84154569D01*
X137502904Y-84140065D01*
X137489323Y-84136426D01*
X137477507Y-84131532D01*
X137469501Y-84126910D01*
X137451565Y-84108975D01*
X137445000Y-84084474D01*
X137445000Y-83453749D01*
X137445166Y-83449920D01*
X137445500Y-83448031D01*
X137445500Y-83350000D01*
X137445500Y-83317712D01*
X137445500Y-82752407D01*
X137445736Y-82747605D01*
X137448985Y-82714618D01*
X137459044Y-82612475D01*
X137460914Y-82603074D01*
X137499631Y-82475443D01*
X137503304Y-82466577D01*
X137566172Y-82348959D01*
X137571499Y-82340987D01*
X137656108Y-82237891D01*
X137662891Y-82231108D01*
X137765987Y-82146499D01*
X137773959Y-82141172D01*
X137891579Y-82078302D01*
X137900443Y-82074631D01*
X138028074Y-82035914D01*
X138037475Y-82034044D01*
X138158029Y-82022171D01*
X138172605Y-82020736D01*
X138177407Y-82020500D01*
X138207288Y-82020500D01*
X140388378Y-82020500D01*
X140421707Y-82033581D01*
G37*
%TD.AperFunction*%
%TA.AperFunction,Conductor*%
G36*
X146262171Y-82030348D02*
G01*
X146279791Y-82055935D01*
X146278484Y-82086974D01*
X146258776Y-82110989D01*
X146135069Y-82188718D01*
X146135061Y-82188724D01*
X146132738Y-82190184D01*
X146130794Y-82192127D01*
X146130790Y-82192131D01*
X146007131Y-82315790D01*
X146007127Y-82315794D01*
X146005184Y-82317738D01*
X146003724Y-82320061D01*
X146003718Y-82320069D01*
X145910675Y-82468147D01*
X145910672Y-82468151D01*
X145909211Y-82470478D01*
X145908302Y-82473072D01*
X145908302Y-82473075D01*
X145850540Y-82638147D01*
X145850537Y-82638155D01*
X145849632Y-82640745D01*
X145849324Y-82643477D01*
X145849324Y-82643478D01*
X145834653Y-82773679D01*
X145834651Y-82773696D01*
X145834500Y-82775046D01*
X145834500Y-84064954D01*
X145834652Y-84066303D01*
X145834653Y-84066320D01*
X145842963Y-84140065D01*
X145849632Y-84199255D01*
X145850538Y-84201846D01*
X145850540Y-84201852D01*
X145901750Y-84348199D01*
X145909211Y-84369522D01*
X145910674Y-84371851D01*
X145910675Y-84371852D01*
X146003718Y-84519930D01*
X146003721Y-84519934D01*
X146005184Y-84522262D01*
X146132738Y-84649816D01*
X146135067Y-84651279D01*
X146135069Y-84651281D01*
X146209107Y-84697802D01*
X146285478Y-84745789D01*
X146439207Y-84799581D01*
X146451684Y-84803947D01*
X146475462Y-84821842D01*
X146484500Y-84850197D01*
X146484500Y-85789673D01*
X146484500Y-85870327D01*
X146487724Y-85875911D01*
X146487725Y-85875914D01*
X146491531Y-85882506D01*
X146496426Y-85894323D01*
X146498395Y-85901674D01*
X146498396Y-85901676D01*
X146500065Y-85907904D01*
X146504622Y-85912461D01*
X146504624Y-85912464D01*
X146533593Y-85941433D01*
X146547463Y-85969232D01*
X146541830Y-85999784D01*
X146518957Y-86020808D01*
X146488040Y-86023852D01*
X146485004Y-86023159D01*
X146480031Y-86020764D01*
X146388505Y-86020764D01*
X146388505Y-86019933D01*
X146366597Y-86018290D01*
X146344014Y-86000280D01*
X146335500Y-85972678D01*
X146335500Y-85896124D01*
X146335500Y-85889673D01*
X146328469Y-85877497D01*
X146323573Y-85865676D01*
X146323091Y-85863878D01*
X146319935Y-85852096D01*
X146315376Y-85847537D01*
X146315375Y-85847535D01*
X146262905Y-85795065D01*
X146262903Y-85795064D01*
X145397409Y-84929570D01*
X145397409Y-84929569D01*
X145382904Y-84915065D01*
X145369323Y-84911426D01*
X145357506Y-84906531D01*
X145350914Y-84902725D01*
X145350911Y-84902724D01*
X145345327Y-84899500D01*
X145338879Y-84899499D01*
X145338876Y-84899499D01*
X145264679Y-84899499D01*
X145264678Y-84899499D01*
X145264674Y-84899499D01*
X145264672Y-84899499D01*
X145264671Y-84899500D01*
X144727635Y-84899500D01*
X144692987Y-84885148D01*
X144169852Y-84362013D01*
X144155500Y-84327365D01*
X144155500Y-82476124D01*
X144155500Y-82469673D01*
X144148469Y-82457497D01*
X144143573Y-82445676D01*
X144139935Y-82432096D01*
X144135376Y-82427537D01*
X144135375Y-82427535D01*
X144082905Y-82375065D01*
X144082903Y-82375064D01*
X143811987Y-82104148D01*
X143797635Y-82069500D01*
X143811987Y-82034852D01*
X143846635Y-82020500D01*
X146232706Y-82020500D01*
X146262171Y-82030348D01*
G37*
%TD.AperFunction*%
%TA.AperFunction,Conductor*%
G36*
X159865148Y-65134852D02*
G01*
X159879500Y-65169500D01*
X159879500Y-124830500D01*
X159865148Y-124865148D01*
X159830500Y-124879500D01*
X100169500Y-124879500D01*
X100134852Y-124865148D01*
X100120500Y-124830500D01*
X100120500Y-98496945D01*
X115387018Y-98496945D01*
X115387312Y-98499122D01*
X115387313Y-98499124D01*
X115417268Y-98720263D01*
X115417269Y-98720268D01*
X115417563Y-98722437D01*
X115418238Y-98724514D01*
X115418240Y-98724523D01*
X115453891Y-98834243D01*
X115487880Y-98938851D01*
X115488917Y-98940779D01*
X115488921Y-98940787D01*
X115594670Y-99137301D01*
X115594674Y-99137308D01*
X115595710Y-99139232D01*
X115737585Y-99317138D01*
X115908948Y-99466853D01*
X116104289Y-99583564D01*
X116317330Y-99663520D01*
X116541224Y-99704150D01*
X116710671Y-99704150D01*
X116711775Y-99704150D01*
X116881635Y-99688862D01*
X117100986Y-99628325D01*
X117306003Y-99529595D01*
X117490095Y-99395843D01*
X117647347Y-99231371D01*
X117772705Y-99041463D01*
X117862138Y-98832223D01*
X117912773Y-98610377D01*
X117917867Y-98496945D01*
X118562018Y-98496945D01*
X118562312Y-98499122D01*
X118562313Y-98499124D01*
X118592268Y-98720263D01*
X118592269Y-98720268D01*
X118592563Y-98722437D01*
X118593238Y-98724514D01*
X118593240Y-98724523D01*
X118628891Y-98834243D01*
X118662880Y-98938851D01*
X118663917Y-98940779D01*
X118663921Y-98940787D01*
X118769670Y-99137301D01*
X118769674Y-99137308D01*
X118770710Y-99139232D01*
X118912585Y-99317138D01*
X119083948Y-99466853D01*
X119279289Y-99583564D01*
X119492330Y-99663520D01*
X119716224Y-99704150D01*
X119885671Y-99704150D01*
X119886775Y-99704150D01*
X120056635Y-99688862D01*
X120275986Y-99628325D01*
X120481003Y-99529595D01*
X120665095Y-99395843D01*
X120822347Y-99231371D01*
X120947705Y-99041463D01*
X121037138Y-98832223D01*
X121087773Y-98610377D01*
X121097982Y-98383055D01*
X121067437Y-98157563D01*
X120997120Y-97941149D01*
X120996078Y-97939212D01*
X120890329Y-97742698D01*
X120890326Y-97742694D01*
X120889290Y-97740768D01*
X120747415Y-97562862D01*
X120725531Y-97543743D01*
X120577707Y-97414593D01*
X120576052Y-97413147D01*
X120469443Y-97349451D01*
X120382601Y-97297565D01*
X120382599Y-97297564D01*
X120380711Y-97296436D01*
X120372811Y-97293471D01*
X120169736Y-97217255D01*
X120169732Y-97217253D01*
X120167670Y-97216480D01*
X120165510Y-97216088D01*
X120165503Y-97216086D01*
X119945938Y-97176242D01*
X119945934Y-97176241D01*
X119943776Y-97175850D01*
X119773225Y-97175850D01*
X119772144Y-97175947D01*
X119772128Y-97175948D01*
X119605552Y-97190941D01*
X119605550Y-97190941D01*
X119603365Y-97191138D01*
X119601256Y-97191719D01*
X119601245Y-97191722D01*
X119386131Y-97251090D01*
X119386123Y-97251092D01*
X119384014Y-97251675D01*
X119382046Y-97252622D01*
X119382037Y-97252626D01*
X119180976Y-97349451D01*
X119180967Y-97349456D01*
X119178997Y-97350405D01*
X119177228Y-97351690D01*
X119177220Y-97351695D01*
X118996683Y-97482864D01*
X118996674Y-97482871D01*
X118994905Y-97484157D01*
X118993388Y-97485743D01*
X118993383Y-97485748D01*
X118839175Y-97647036D01*
X118839169Y-97647042D01*
X118837653Y-97648629D01*
X118836443Y-97650461D01*
X118836439Y-97650467D01*
X118713507Y-97836699D01*
X118713501Y-97836709D01*
X118712295Y-97838537D01*
X118711435Y-97840547D01*
X118711429Y-97840560D01*
X118623725Y-98045756D01*
X118623722Y-98045763D01*
X118622862Y-98047777D01*
X118622374Y-98049910D01*
X118622372Y-98049920D01*
X118572717Y-98267475D01*
X118572227Y-98269623D01*
X118572128Y-98271814D01*
X118572128Y-98271819D01*
X118562116Y-98494747D01*
X118562116Y-98494754D01*
X118562018Y-98496945D01*
X117917867Y-98496945D01*
X117922982Y-98383055D01*
X117892437Y-98157563D01*
X117822120Y-97941149D01*
X117821078Y-97939212D01*
X117715329Y-97742698D01*
X117715326Y-97742694D01*
X117714290Y-97740768D01*
X117572415Y-97562862D01*
X117550531Y-97543743D01*
X117402707Y-97414593D01*
X117401052Y-97413147D01*
X117294443Y-97349451D01*
X117278625Y-97340000D01*
X117744592Y-97340000D01*
X117745534Y-97344736D01*
X117763092Y-97433007D01*
X117763093Y-97433009D01*
X117764034Y-97437740D01*
X117766713Y-97441750D01*
X117766714Y-97441751D01*
X117809303Y-97505492D01*
X117819399Y-97520601D01*
X117902260Y-97575966D01*
X118000000Y-97595408D01*
X118097740Y-97575966D01*
X118138460Y-97548758D01*
X118165683Y-97540500D01*
X118477410Y-97540500D01*
X118522590Y-97540500D01*
X118657612Y-97540500D01*
X118666271Y-97541971D01*
X118666277Y-97541920D01*
X118671760Y-97542537D01*
X118676974Y-97544362D01*
X118708521Y-97540808D01*
X118714007Y-97540500D01*
X118719836Y-97540500D01*
X118722590Y-97540500D01*
X118730960Y-97538589D01*
X118736367Y-97537670D01*
X118767924Y-97534116D01*
X118772598Y-97531178D01*
X118777812Y-97529354D01*
X118777829Y-97529402D01*
X118778894Y-97528961D01*
X118778872Y-97528914D01*
X118783844Y-97526519D01*
X118789231Y-97525290D01*
X118814064Y-97505485D01*
X118818537Y-97502312D01*
X118825801Y-97497748D01*
X118831877Y-97491671D01*
X118835946Y-97488033D01*
X118860788Y-97468224D01*
X118863183Y-97463249D01*
X118866626Y-97458932D01*
X118866665Y-97458963D01*
X118871747Y-97451800D01*
X119268697Y-97054852D01*
X119303346Y-97040500D01*
X120817612Y-97040500D01*
X120826271Y-97041971D01*
X120826277Y-97041920D01*
X120831760Y-97042537D01*
X120836974Y-97044362D01*
X120868521Y-97040808D01*
X120874007Y-97040500D01*
X120879836Y-97040500D01*
X120882590Y-97040500D01*
X120890960Y-97038589D01*
X120896367Y-97037670D01*
X120927924Y-97034116D01*
X120932598Y-97031178D01*
X120937812Y-97029354D01*
X120937829Y-97029402D01*
X120938894Y-97028961D01*
X120938872Y-97028914D01*
X120943844Y-97026519D01*
X120949231Y-97025290D01*
X120974064Y-97005485D01*
X120978537Y-97002312D01*
X120985801Y-96997748D01*
X120991877Y-96991671D01*
X120995946Y-96988033D01*
X121020788Y-96968224D01*
X121023183Y-96963249D01*
X121026626Y-96958932D01*
X121026665Y-96958963D01*
X121031747Y-96951800D01*
X122957748Y-95025802D01*
X122957749Y-95025799D01*
X132968697Y-85014852D01*
X133003346Y-85000500D01*
X133644841Y-85000500D01*
X133647590Y-85000500D01*
X133714231Y-84985290D01*
X133785788Y-84928224D01*
X133825500Y-84845763D01*
X133825500Y-84832635D01*
X133839852Y-84797987D01*
X133984544Y-84653295D01*
X134019192Y-84638943D01*
X134676000Y-84638943D01*
X134710648Y-84653295D01*
X134725000Y-84687943D01*
X134725000Y-84722185D01*
X134720439Y-84739195D01*
X134721646Y-84739635D01*
X134720179Y-84743662D01*
X134718037Y-84747374D01*
X134699941Y-84850000D01*
X134718037Y-84952626D01*
X134720180Y-84956338D01*
X134721646Y-84960365D01*
X134720439Y-84960804D01*
X134725000Y-84977815D01*
X134725000Y-85200500D01*
X134710648Y-85235148D01*
X134676000Y-85249500D01*
X133465327Y-85249500D01*
X133384673Y-85249500D01*
X133379088Y-85252723D01*
X133379085Y-85252725D01*
X133372492Y-85256532D01*
X133360679Y-85261425D01*
X133347096Y-85265065D01*
X133342537Y-85269623D01*
X133342535Y-85269625D01*
X133324644Y-85287515D01*
X133295484Y-85301557D01*
X133262559Y-85305267D01*
X133262557Y-85305267D01*
X133257076Y-85305885D01*
X133252407Y-85308818D01*
X133252403Y-85308820D01*
X133201528Y-85340787D01*
X133201522Y-85340791D01*
X133199198Y-85342252D01*
X133197254Y-85344195D01*
X133197250Y-85344199D01*
X125143199Y-93398250D01*
X125136033Y-93403336D01*
X125136064Y-93403375D01*
X125131745Y-93406818D01*
X125126776Y-93409212D01*
X125123338Y-93413522D01*
X125123334Y-93413526D01*
X125106973Y-93434041D01*
X125103319Y-93438131D01*
X125099197Y-93442253D01*
X125099194Y-93442256D01*
X125097252Y-93444199D01*
X125095787Y-93446529D01*
X125095786Y-93446531D01*
X125092685Y-93451465D01*
X125089512Y-93455936D01*
X125075530Y-93473470D01*
X125069710Y-93480769D01*
X125068481Y-93486151D01*
X125066086Y-93491125D01*
X125066041Y-93491103D01*
X125065597Y-93492174D01*
X125065644Y-93492191D01*
X125063820Y-93497402D01*
X125060884Y-93502076D01*
X125060266Y-93507556D01*
X125060265Y-93507561D01*
X125057328Y-93533631D01*
X125056409Y-93539038D01*
X125055112Y-93544721D01*
X125055110Y-93544734D01*
X125054500Y-93547410D01*
X125054500Y-93550161D01*
X125054500Y-93555993D01*
X125054192Y-93561478D01*
X125052413Y-93577274D01*
X125050638Y-93593026D01*
X125052461Y-93598238D01*
X125053080Y-93603723D01*
X125053028Y-93603728D01*
X125054500Y-93612388D01*
X125054500Y-95869317D01*
X125046242Y-95896539D01*
X125021716Y-95933245D01*
X125021714Y-95933247D01*
X125019034Y-95937260D01*
X124999592Y-96035000D01*
X125000534Y-96039736D01*
X125018092Y-96128007D01*
X125018093Y-96128009D01*
X125019034Y-96132740D01*
X125021713Y-96136750D01*
X125021714Y-96136751D01*
X125056269Y-96188468D01*
X125074399Y-96215601D01*
X125157260Y-96270966D01*
X125255000Y-96290408D01*
X125352740Y-96270966D01*
X125435601Y-96215601D01*
X125490966Y-96132740D01*
X125510408Y-96035000D01*
X125490966Y-95937260D01*
X125463758Y-95896539D01*
X125455500Y-95869317D01*
X125455500Y-93673345D01*
X125459230Y-93654594D01*
X125469852Y-93638697D01*
X129465914Y-89642635D01*
X133482748Y-85625802D01*
X133484214Y-85623469D01*
X133515656Y-85573430D01*
X133533443Y-85556614D01*
X133557145Y-85550500D01*
X134676000Y-85550500D01*
X134710648Y-85564852D01*
X134725000Y-85599500D01*
X134725000Y-86081419D01*
X134724256Y-86089928D01*
X134706065Y-86193096D01*
X134704500Y-86201969D01*
X134704500Y-86264618D01*
X134704500Y-97667712D01*
X134704500Y-97700000D01*
X134704500Y-97798031D01*
X134704870Y-97800134D01*
X134704871Y-97800136D01*
X134738174Y-97989009D01*
X134738176Y-97989018D01*
X134738546Y-97991114D01*
X134739275Y-97993118D01*
X134739277Y-97993124D01*
X134759169Y-98047777D01*
X134805603Y-98175353D01*
X134903634Y-98345147D01*
X134905011Y-98346789D01*
X134905016Y-98346795D01*
X134975906Y-98431278D01*
X135029660Y-98495340D01*
X135031300Y-98496716D01*
X135178204Y-98619983D01*
X135178208Y-98619986D01*
X135179853Y-98621366D01*
X135349647Y-98719397D01*
X135533886Y-98786454D01*
X135726969Y-98820500D01*
X135789618Y-98820500D01*
X135825000Y-98820500D01*
X135857288Y-98820500D01*
X141297712Y-98820500D01*
X141347325Y-98820500D01*
X141425890Y-98820500D01*
X141428031Y-98820500D01*
X141540071Y-98800744D01*
X141548581Y-98800000D01*
X143931419Y-98800000D01*
X143939928Y-98800744D01*
X144051969Y-98820500D01*
X144114618Y-98820500D01*
X144150000Y-98820500D01*
X144182288Y-98820500D01*
X148992712Y-98820500D01*
X149042325Y-98820500D01*
X149120890Y-98820500D01*
X149123031Y-98820500D01*
X149316114Y-98786454D01*
X149500353Y-98719397D01*
X149670147Y-98621366D01*
X149820340Y-98495340D01*
X149946366Y-98345147D01*
X150044397Y-98175353D01*
X150111454Y-97991114D01*
X150145500Y-97798031D01*
X150145500Y-97700000D01*
X150145500Y-97667712D01*
X150145500Y-92689782D01*
X150145495Y-92689766D01*
X150145493Y-92689732D01*
X150145493Y-92649673D01*
X150145494Y-92609077D01*
X150115743Y-92440352D01*
X150115000Y-92431844D01*
X150115000Y-91668444D01*
X150115744Y-91659935D01*
X150124315Y-91611326D01*
X150125059Y-91607107D01*
X150117263Y-91562895D01*
X150115744Y-91554279D01*
X150115000Y-91545770D01*
X150115000Y-91048444D01*
X150115744Y-91039935D01*
X150124315Y-90991326D01*
X150125059Y-90987107D01*
X150115744Y-90934279D01*
X150115000Y-90925770D01*
X150115000Y-90162390D01*
X150115744Y-90153881D01*
X150121729Y-90119937D01*
X150145499Y-89985138D01*
X150145500Y-89887108D01*
X150145500Y-89854820D01*
X150145500Y-80057675D01*
X150145500Y-79976969D01*
X150111454Y-79783886D01*
X150044397Y-79599647D01*
X149946366Y-79429853D01*
X149944986Y-79428208D01*
X149944983Y-79428204D01*
X149821716Y-79281300D01*
X149820340Y-79279660D01*
X149818699Y-79278283D01*
X149671795Y-79155016D01*
X149671789Y-79155011D01*
X149670147Y-79153634D01*
X149500353Y-79055603D01*
X149498345Y-79054872D01*
X149318124Y-78989277D01*
X149318118Y-78989275D01*
X149316114Y-78988546D01*
X149314018Y-78988176D01*
X149314009Y-78988174D01*
X149125136Y-78954871D01*
X149125134Y-78954870D01*
X149123031Y-78954500D01*
X149120890Y-78954500D01*
X142992161Y-78954500D01*
X142982338Y-78953505D01*
X142973847Y-78951767D01*
X142973844Y-78951767D01*
X142967525Y-78950474D01*
X142961405Y-78952514D01*
X142939838Y-78959703D01*
X142938150Y-78960232D01*
X142911825Y-78967962D01*
X142911822Y-78967963D01*
X142907103Y-78969349D01*
X142905823Y-78970825D01*
X142904993Y-78971221D01*
X142884645Y-78977943D01*
X142851598Y-78977116D01*
X142826596Y-78955489D01*
X142821020Y-78922905D01*
X142824315Y-78904222D01*
X142824315Y-78904219D01*
X142825059Y-78900000D01*
X142806963Y-78797374D01*
X142754859Y-78707126D01*
X142751575Y-78704370D01*
X142751574Y-78704369D01*
X142678312Y-78642895D01*
X142675030Y-78640141D01*
X142671004Y-78638675D01*
X142671003Y-78638675D01*
X142598731Y-78612371D01*
X142577105Y-78604500D01*
X142472895Y-78604500D01*
X142468864Y-78605966D01*
X142468864Y-78605967D01*
X142378997Y-78638675D01*
X142378993Y-78638676D01*
X142374971Y-78640141D01*
X142371690Y-78642893D01*
X142371688Y-78642895D01*
X142298425Y-78704369D01*
X142298421Y-78704373D01*
X142295141Y-78707126D01*
X142292998Y-78710837D01*
X142292996Y-78710840D01*
X142245180Y-78793661D01*
X142245178Y-78793664D01*
X142243037Y-78797374D01*
X142224941Y-78900000D01*
X142225685Y-78904219D01*
X142225685Y-78904221D01*
X142228980Y-78922910D01*
X142223402Y-78955493D01*
X142198399Y-78977119D01*
X142165352Y-78977944D01*
X142133196Y-78967320D01*
X142122079Y-78962017D01*
X142116309Y-78958309D01*
X142116306Y-78958308D01*
X142110382Y-78954501D01*
X142103336Y-78954500D01*
X142103335Y-78954500D01*
X142102500Y-78954500D01*
X142091232Y-78952671D01*
X142088591Y-78952512D01*
X142082475Y-78950474D01*
X142076158Y-78951766D01*
X142076156Y-78951766D01*
X142067654Y-78953506D01*
X142057833Y-78954500D01*
X135857288Y-78954500D01*
X135825000Y-78954500D01*
X135726969Y-78954500D01*
X135724866Y-78954870D01*
X135724863Y-78954871D01*
X135535990Y-78988174D01*
X135535979Y-78988176D01*
X135533886Y-78988546D01*
X135531884Y-78989274D01*
X135531875Y-78989277D01*
X135351654Y-79054872D01*
X135351648Y-79054874D01*
X135349647Y-79055603D01*
X135347797Y-79056670D01*
X135347795Y-79056672D01*
X135181714Y-79152559D01*
X135181709Y-79152562D01*
X135179853Y-79153634D01*
X135178215Y-79155007D01*
X135178204Y-79155016D01*
X135031300Y-79278283D01*
X135031294Y-79278288D01*
X135029660Y-79279660D01*
X135028288Y-79281294D01*
X135028283Y-79281300D01*
X134905016Y-79428204D01*
X134905007Y-79428215D01*
X134903634Y-79429853D01*
X134902562Y-79431709D01*
X134902559Y-79431714D01*
X134845373Y-79530763D01*
X134805603Y-79599647D01*
X134804874Y-79601648D01*
X134804872Y-79601654D01*
X134739277Y-79781875D01*
X134739274Y-79781884D01*
X134738546Y-79783886D01*
X134738176Y-79785979D01*
X134738174Y-79785990D01*
X134710366Y-79943700D01*
X134704500Y-79976969D01*
X134704500Y-80039618D01*
X134704500Y-83317712D01*
X134704500Y-83350000D01*
X134704500Y-83448031D01*
X134704870Y-83450134D01*
X134704871Y-83450136D01*
X134724256Y-83560072D01*
X134725000Y-83568581D01*
X134725000Y-84288943D01*
X134710648Y-84323591D01*
X134676000Y-84337943D01*
X133976884Y-84337943D01*
X133896230Y-84337943D01*
X133890645Y-84341166D01*
X133890642Y-84341168D01*
X133884049Y-84344975D01*
X133872236Y-84349868D01*
X133858653Y-84353508D01*
X133854095Y-84358065D01*
X133854093Y-84358067D01*
X133825308Y-84386852D01*
X133801622Y-84410538D01*
X133801621Y-84410539D01*
X133710267Y-84501894D01*
X133627013Y-84585148D01*
X133611117Y-84595770D01*
X133592365Y-84599500D01*
X132942390Y-84599500D01*
X132933727Y-84598028D01*
X132933722Y-84598079D01*
X132928238Y-84597461D01*
X132923026Y-84595637D01*
X132917539Y-84596255D01*
X132891473Y-84599192D01*
X132885987Y-84599500D01*
X132877410Y-84599500D01*
X132874731Y-84600111D01*
X132874724Y-84600112D01*
X132869045Y-84601408D01*
X132863637Y-84602327D01*
X132837558Y-84605266D01*
X132837556Y-84605266D01*
X132832076Y-84605884D01*
X132827404Y-84608819D01*
X132822192Y-84610643D01*
X132822175Y-84610597D01*
X132821103Y-84611041D01*
X132821125Y-84611086D01*
X132816150Y-84613481D01*
X132810769Y-84614710D01*
X132806453Y-84618151D01*
X132806450Y-84618153D01*
X132785947Y-84634503D01*
X132781476Y-84637676D01*
X132774623Y-84641984D01*
X132748545Y-84649500D01*
X126505845Y-84649500D01*
X126471197Y-84635148D01*
X121366812Y-79530763D01*
X121352990Y-79503305D01*
X121358246Y-79473016D01*
X121422396Y-79353001D01*
X121476747Y-79173831D01*
X121495099Y-78987500D01*
X122124901Y-78987500D01*
X122125137Y-78989896D01*
X122141263Y-79153634D01*
X122143253Y-79173831D01*
X122143948Y-79176124D01*
X122143950Y-79176131D01*
X122194789Y-79343722D01*
X122197604Y-79353001D01*
X122198742Y-79355130D01*
X122277942Y-79503305D01*
X122285864Y-79518125D01*
X122404643Y-79662857D01*
X122549375Y-79781636D01*
X122714499Y-79869896D01*
X122893669Y-79924247D01*
X123080000Y-79942599D01*
X123266331Y-79924247D01*
X123445501Y-79869896D01*
X123610625Y-79781636D01*
X123755357Y-79662857D01*
X123874136Y-79518125D01*
X123962396Y-79353001D01*
X124016747Y-79173831D01*
X124035099Y-78987500D01*
X124016747Y-78801169D01*
X123962396Y-78621999D01*
X123874136Y-78456875D01*
X123755357Y-78312143D01*
X123610625Y-78193364D01*
X123583003Y-78178600D01*
X123447630Y-78106242D01*
X123445501Y-78105104D01*
X123443193Y-78104403D01*
X123443191Y-78104403D01*
X123268631Y-78051450D01*
X123268624Y-78051448D01*
X123266331Y-78050753D01*
X123263941Y-78050517D01*
X123263938Y-78050517D01*
X123082396Y-78032637D01*
X123080000Y-78032401D01*
X123077604Y-78032637D01*
X122896061Y-78050517D01*
X122896056Y-78050517D01*
X122893669Y-78050753D01*
X122891377Y-78051448D01*
X122891368Y-78051450D01*
X122716808Y-78104403D01*
X122716802Y-78104405D01*
X122714499Y-78105104D01*
X122712373Y-78106240D01*
X122712369Y-78106242D01*
X122551499Y-78192228D01*
X122551493Y-78192231D01*
X122549375Y-78193364D01*
X122547518Y-78194887D01*
X122547512Y-78194892D01*
X122406505Y-78310614D01*
X122406500Y-78310618D01*
X122404643Y-78312143D01*
X122403118Y-78314000D01*
X122403114Y-78314005D01*
X122287392Y-78455012D01*
X122287387Y-78455018D01*
X122285864Y-78456875D01*
X122284731Y-78458993D01*
X122284728Y-78458999D01*
X122198742Y-78619869D01*
X122198740Y-78619873D01*
X122197604Y-78621999D01*
X122196905Y-78624302D01*
X122196903Y-78624308D01*
X122143950Y-78798868D01*
X122143948Y-78798877D01*
X122143253Y-78801169D01*
X122143017Y-78803556D01*
X122143017Y-78803561D01*
X122129723Y-78938537D01*
X122124901Y-78987500D01*
X121495099Y-78987500D01*
X121476747Y-78801169D01*
X121422396Y-78621999D01*
X121334136Y-78456875D01*
X121215357Y-78312143D01*
X121070625Y-78193364D01*
X121043003Y-78178600D01*
X120907630Y-78106242D01*
X120905501Y-78105104D01*
X120903193Y-78104403D01*
X120903191Y-78104403D01*
X120775276Y-78065600D01*
X120750143Y-78047899D01*
X120740500Y-78018710D01*
X120740500Y-77416290D01*
X120750143Y-77387101D01*
X120775276Y-77369400D01*
X120843516Y-77348699D01*
X120905501Y-77329896D01*
X121070625Y-77241636D01*
X121215357Y-77122857D01*
X121249905Y-77080760D01*
X122129500Y-77080760D01*
X122129756Y-77082517D01*
X122135633Y-77122857D01*
X122139427Y-77148893D01*
X122141097Y-77152309D01*
X122141098Y-77152312D01*
X122156791Y-77184412D01*
X122190802Y-77253983D01*
X122273517Y-77336698D01*
X122378607Y-77388073D01*
X122446740Y-77398000D01*
X123711484Y-77398000D01*
X123713260Y-77398000D01*
X123781393Y-77388073D01*
X123886483Y-77336698D01*
X123969198Y-77253983D01*
X124020573Y-77148893D01*
X124030500Y-77080760D01*
X124030500Y-75814240D01*
X124020573Y-75746107D01*
X123969198Y-75641017D01*
X123886483Y-75558302D01*
X123838228Y-75534712D01*
X123784812Y-75508598D01*
X123784809Y-75508597D01*
X123781393Y-75506927D01*
X123777628Y-75506378D01*
X123777627Y-75506378D01*
X123715017Y-75497256D01*
X123713260Y-75497000D01*
X122446740Y-75497000D01*
X122444983Y-75497255D01*
X122444982Y-75497256D01*
X122382372Y-75506378D01*
X122382369Y-75506378D01*
X122378607Y-75506927D01*
X122375192Y-75508596D01*
X122375187Y-75508598D01*
X122277166Y-75556518D01*
X122273517Y-75558302D01*
X122270646Y-75561172D01*
X122270643Y-75561175D01*
X122193675Y-75638143D01*
X122193672Y-75638146D01*
X122190802Y-75641017D01*
X122189018Y-75644665D01*
X122189018Y-75644666D01*
X122141098Y-75742687D01*
X122141096Y-75742692D01*
X122139427Y-75746107D01*
X122138878Y-75749869D01*
X122138878Y-75749872D01*
X122135362Y-75774005D01*
X122129500Y-75814240D01*
X122129500Y-77080760D01*
X121249905Y-77080760D01*
X121334136Y-76978125D01*
X121422396Y-76813001D01*
X121476747Y-76633831D01*
X121495099Y-76447500D01*
X121476747Y-76261169D01*
X121422396Y-76081999D01*
X121334136Y-75916875D01*
X121215357Y-75772143D01*
X121070625Y-75653364D01*
X121043003Y-75638600D01*
X120907630Y-75566242D01*
X120905501Y-75565104D01*
X120903193Y-75564403D01*
X120903191Y-75564403D01*
X120728631Y-75511450D01*
X120728624Y-75511448D01*
X120726331Y-75510753D01*
X120723941Y-75510517D01*
X120723938Y-75510517D01*
X120542396Y-75492637D01*
X120540000Y-75492401D01*
X120537604Y-75492637D01*
X120356061Y-75510517D01*
X120356056Y-75510517D01*
X120353669Y-75510753D01*
X120351377Y-75511448D01*
X120351368Y-75511450D01*
X120176808Y-75564403D01*
X120176802Y-75564405D01*
X120174499Y-75565104D01*
X120172373Y-75566240D01*
X120172369Y-75566242D01*
X120011499Y-75652228D01*
X120011493Y-75652231D01*
X120009375Y-75653364D01*
X120007518Y-75654887D01*
X120007512Y-75654892D01*
X119866505Y-75770614D01*
X119866500Y-75770618D01*
X119864643Y-75772143D01*
X119863118Y-75774000D01*
X119863114Y-75774005D01*
X119747392Y-75915012D01*
X119747387Y-75915018D01*
X119745864Y-75916875D01*
X119744731Y-75918993D01*
X119744728Y-75918999D01*
X119658742Y-76079869D01*
X119658740Y-76079873D01*
X119657604Y-76081999D01*
X119656905Y-76084302D01*
X119656903Y-76084308D01*
X119603950Y-76258868D01*
X119603948Y-76258877D01*
X119603253Y-76261169D01*
X119603017Y-76263556D01*
X119603017Y-76263561D01*
X119585754Y-76438832D01*
X119584901Y-76447500D01*
X119603253Y-76633831D01*
X119603948Y-76636124D01*
X119603950Y-76636131D01*
X119656903Y-76810691D01*
X119657604Y-76813001D01*
X119745864Y-76978125D01*
X119864643Y-77122857D01*
X120009375Y-77241636D01*
X120174499Y-77329896D01*
X120236484Y-77348699D01*
X120304724Y-77369400D01*
X120329857Y-77387101D01*
X120339500Y-77416290D01*
X120339500Y-78018710D01*
X120329857Y-78047899D01*
X120304724Y-78065600D01*
X120176808Y-78104403D01*
X120176802Y-78104405D01*
X120174499Y-78105104D01*
X120172373Y-78106240D01*
X120172369Y-78106242D01*
X120011499Y-78192228D01*
X120011493Y-78192231D01*
X120009375Y-78193364D01*
X120007518Y-78194887D01*
X120007512Y-78194892D01*
X119866505Y-78310614D01*
X119866500Y-78310618D01*
X119864643Y-78312143D01*
X119863118Y-78314000D01*
X119863114Y-78314005D01*
X119747392Y-78455012D01*
X119747387Y-78455018D01*
X119745864Y-78456875D01*
X119744731Y-78458993D01*
X119744728Y-78458999D01*
X119658742Y-78619869D01*
X119658740Y-78619873D01*
X119657604Y-78621999D01*
X119656905Y-78624302D01*
X119656903Y-78624308D01*
X119603950Y-78798868D01*
X119603948Y-78798877D01*
X119603253Y-78801169D01*
X119603017Y-78803556D01*
X119603017Y-78803561D01*
X119589723Y-78938537D01*
X119584901Y-78987500D01*
X119585137Y-78989896D01*
X119601263Y-79153634D01*
X119603253Y-79173831D01*
X119603948Y-79176124D01*
X119603950Y-79176131D01*
X119654789Y-79343722D01*
X119657604Y-79353001D01*
X119658742Y-79355130D01*
X119737942Y-79503305D01*
X119745864Y-79518125D01*
X119864643Y-79662857D01*
X120009375Y-79781636D01*
X120174499Y-79869896D01*
X120353669Y-79924247D01*
X120540000Y-79942599D01*
X120726331Y-79924247D01*
X120905501Y-79869896D01*
X121025516Y-79805745D01*
X121055805Y-79800490D01*
X121083263Y-79814312D01*
X126230749Y-84961798D01*
X126235834Y-84968964D01*
X126235874Y-84968933D01*
X126239316Y-84973249D01*
X126241712Y-84978224D01*
X126266545Y-84998028D01*
X126270632Y-85001681D01*
X126276699Y-85007748D01*
X126283968Y-85012316D01*
X126288435Y-85015486D01*
X126296195Y-85021674D01*
X126313269Y-85035290D01*
X126318650Y-85036518D01*
X126323626Y-85038914D01*
X126323603Y-85038960D01*
X126324673Y-85039403D01*
X126324690Y-85039355D01*
X126329901Y-85041178D01*
X126334576Y-85044116D01*
X126366137Y-85047671D01*
X126371533Y-85048587D01*
X126379910Y-85050500D01*
X126388493Y-85050500D01*
X126393978Y-85050808D01*
X126425526Y-85054362D01*
X126430739Y-85052537D01*
X126436223Y-85051920D01*
X126436228Y-85051971D01*
X126444888Y-85050500D01*
X132247654Y-85050500D01*
X132282302Y-85064852D01*
X132296654Y-85099500D01*
X132282302Y-85134148D01*
X122674198Y-94742252D01*
X120791303Y-96625148D01*
X120775406Y-96635770D01*
X120756655Y-96639500D01*
X119242388Y-96639500D01*
X119233728Y-96638028D01*
X119233723Y-96638080D01*
X119228238Y-96637461D01*
X119223026Y-96635638D01*
X119217539Y-96636256D01*
X119191478Y-96639192D01*
X119185993Y-96639500D01*
X119177410Y-96639500D01*
X119174734Y-96640110D01*
X119174721Y-96640112D01*
X119169038Y-96641409D01*
X119163631Y-96642328D01*
X119137561Y-96645265D01*
X119137556Y-96645266D01*
X119132076Y-96645884D01*
X119127402Y-96648820D01*
X119122191Y-96650644D01*
X119122174Y-96650597D01*
X119121103Y-96651041D01*
X119121125Y-96651086D01*
X119116150Y-96653481D01*
X119110769Y-96654710D01*
X119106453Y-96658151D01*
X119106450Y-96658153D01*
X119085947Y-96674503D01*
X119081476Y-96677676D01*
X119076529Y-96680785D01*
X119076519Y-96680792D01*
X119074199Y-96682251D01*
X119072260Y-96684189D01*
X119072257Y-96684192D01*
X119068126Y-96688323D01*
X119064036Y-96691977D01*
X119043528Y-96708333D01*
X119043526Y-96708335D01*
X119039212Y-96711776D01*
X119036817Y-96716747D01*
X119033375Y-96721064D01*
X119033335Y-96721032D01*
X119028250Y-96728198D01*
X118631303Y-97125148D01*
X118615407Y-97135770D01*
X118596655Y-97139500D01*
X118522590Y-97139500D01*
X118165683Y-97139500D01*
X118138461Y-97131242D01*
X118101754Y-97106716D01*
X118097740Y-97104034D01*
X118000000Y-97084592D01*
X117995264Y-97085534D01*
X117906992Y-97103092D01*
X117906988Y-97103093D01*
X117902260Y-97104034D01*
X117898250Y-97106712D01*
X117898248Y-97106714D01*
X117823410Y-97156718D01*
X117823407Y-97156720D01*
X117819399Y-97159399D01*
X117816720Y-97163407D01*
X117816718Y-97163410D01*
X117766714Y-97238248D01*
X117766712Y-97238250D01*
X117764034Y-97242260D01*
X117763093Y-97246988D01*
X117763092Y-97246992D01*
X117747395Y-97325910D01*
X117744592Y-97340000D01*
X117278625Y-97340000D01*
X117207601Y-97297565D01*
X117207599Y-97297564D01*
X117205711Y-97296436D01*
X117197811Y-97293471D01*
X116994736Y-97217255D01*
X116994732Y-97217253D01*
X116992670Y-97216480D01*
X116990510Y-97216088D01*
X116990503Y-97216086D01*
X116770938Y-97176242D01*
X116770934Y-97176241D01*
X116768776Y-97175850D01*
X116598225Y-97175850D01*
X116597144Y-97175947D01*
X116597128Y-97175948D01*
X116430552Y-97190941D01*
X116430550Y-97190941D01*
X116428365Y-97191138D01*
X116426256Y-97191719D01*
X116426245Y-97191722D01*
X116211131Y-97251090D01*
X116211123Y-97251092D01*
X116209014Y-97251675D01*
X116207046Y-97252622D01*
X116207037Y-97252626D01*
X116005976Y-97349451D01*
X116005967Y-97349456D01*
X116003997Y-97350405D01*
X116002228Y-97351690D01*
X116002220Y-97351695D01*
X115821683Y-97482864D01*
X115821674Y-97482871D01*
X115819905Y-97484157D01*
X115818388Y-97485743D01*
X115818383Y-97485748D01*
X115664175Y-97647036D01*
X115664169Y-97647042D01*
X115662653Y-97648629D01*
X115661443Y-97650461D01*
X115661439Y-97650467D01*
X115538507Y-97836699D01*
X115538501Y-97836709D01*
X115537295Y-97838537D01*
X115536435Y-97840547D01*
X115536429Y-97840560D01*
X115448725Y-98045756D01*
X115448722Y-98045763D01*
X115447862Y-98047777D01*
X115447374Y-98049910D01*
X115447372Y-98049920D01*
X115397717Y-98267475D01*
X115397227Y-98269623D01*
X115397128Y-98271814D01*
X115397128Y-98271819D01*
X115387116Y-98494747D01*
X115387116Y-98494754D01*
X115387018Y-98496945D01*
X100120500Y-98496945D01*
X100120500Y-96916000D01*
X114173064Y-96916000D01*
X114173483Y-96919183D01*
X114192303Y-97062137D01*
X114192304Y-97062141D01*
X114192723Y-97065322D01*
X114193951Y-97068287D01*
X114193952Y-97068290D01*
X114245079Y-97191722D01*
X114250359Y-97204468D01*
X114252311Y-97207012D01*
X114252314Y-97207017D01*
X114286133Y-97251090D01*
X114342045Y-97323955D01*
X114344593Y-97325910D01*
X114458982Y-97413685D01*
X114458985Y-97413687D01*
X114461532Y-97415641D01*
X114600678Y-97473277D01*
X114712508Y-97488000D01*
X114785892Y-97488000D01*
X114787492Y-97488000D01*
X114899322Y-97473277D01*
X115038468Y-97415641D01*
X115157955Y-97323955D01*
X115249641Y-97204468D01*
X115307277Y-97065322D01*
X115326936Y-96916000D01*
X115307277Y-96766678D01*
X115249641Y-96627532D01*
X115247687Y-96624985D01*
X115247685Y-96624982D01*
X115159910Y-96510593D01*
X115157955Y-96508045D01*
X115155406Y-96506089D01*
X115041017Y-96418314D01*
X115041012Y-96418311D01*
X115038468Y-96416359D01*
X115035499Y-96415129D01*
X114902290Y-96359952D01*
X114902287Y-96359951D01*
X114899322Y-96358723D01*
X114896141Y-96358304D01*
X114896137Y-96358303D01*
X114789076Y-96344208D01*
X114789067Y-96344207D01*
X114787492Y-96344000D01*
X114712508Y-96344000D01*
X114710933Y-96344207D01*
X114710923Y-96344208D01*
X114603862Y-96358303D01*
X114603856Y-96358304D01*
X114600678Y-96358723D01*
X114597714Y-96359950D01*
X114597709Y-96359952D01*
X114464500Y-96415129D01*
X114464496Y-96415131D01*
X114461532Y-96416359D01*
X114458990Y-96418308D01*
X114458982Y-96418314D01*
X114344593Y-96506089D01*
X114344589Y-96506092D01*
X114342045Y-96508045D01*
X114340092Y-96510589D01*
X114340089Y-96510593D01*
X114252314Y-96624982D01*
X114252308Y-96624990D01*
X114250359Y-96627532D01*
X114249131Y-96630496D01*
X114249129Y-96630500D01*
X114193952Y-96763709D01*
X114193950Y-96763714D01*
X114192723Y-96766678D01*
X114192304Y-96769856D01*
X114192303Y-96769862D01*
X114173483Y-96912817D01*
X114173064Y-96916000D01*
X100120500Y-96916000D01*
X100120500Y-95900000D01*
X119253064Y-95900000D01*
X119253483Y-95903183D01*
X119272303Y-96046137D01*
X119272304Y-96046141D01*
X119272723Y-96049322D01*
X119273951Y-96052287D01*
X119273952Y-96052290D01*
X119308937Y-96136751D01*
X119330359Y-96188468D01*
X119332311Y-96191012D01*
X119332314Y-96191017D01*
X119412037Y-96294912D01*
X119422045Y-96307955D01*
X119424593Y-96309910D01*
X119538982Y-96397685D01*
X119538985Y-96397687D01*
X119541532Y-96399641D01*
X119680678Y-96457277D01*
X119792508Y-96472000D01*
X119865892Y-96472000D01*
X119867492Y-96472000D01*
X119979322Y-96457277D01*
X120118468Y-96399641D01*
X120237955Y-96307955D01*
X120329641Y-96188468D01*
X120387277Y-96049322D01*
X120406936Y-95900000D01*
X120387277Y-95750678D01*
X120329641Y-95611532D01*
X120327687Y-95608985D01*
X120327685Y-95608982D01*
X120239910Y-95494593D01*
X120237955Y-95492045D01*
X120234263Y-95489212D01*
X120121017Y-95402314D01*
X120121012Y-95402311D01*
X120118468Y-95400359D01*
X120115499Y-95399129D01*
X119982290Y-95343952D01*
X119982287Y-95343951D01*
X119979322Y-95342723D01*
X119976141Y-95342304D01*
X119976137Y-95342303D01*
X119869076Y-95328208D01*
X119869067Y-95328207D01*
X119867492Y-95328000D01*
X119792508Y-95328000D01*
X119790933Y-95328207D01*
X119790923Y-95328208D01*
X119683862Y-95342303D01*
X119683856Y-95342304D01*
X119680678Y-95342723D01*
X119677714Y-95343950D01*
X119677709Y-95343952D01*
X119544500Y-95399129D01*
X119544496Y-95399131D01*
X119541532Y-95400359D01*
X119538990Y-95402308D01*
X119538982Y-95402314D01*
X119424593Y-95490089D01*
X119424589Y-95490092D01*
X119422045Y-95492045D01*
X119420092Y-95494589D01*
X119420089Y-95494593D01*
X119332314Y-95608982D01*
X119332308Y-95608990D01*
X119330359Y-95611532D01*
X119329131Y-95614496D01*
X119329129Y-95614500D01*
X119273952Y-95747709D01*
X119273950Y-95747714D01*
X119272723Y-95750678D01*
X119272304Y-95753856D01*
X119272303Y-95753862D01*
X119255147Y-95884180D01*
X119253064Y-95900000D01*
X100120500Y-95900000D01*
X100120500Y-94884000D01*
X114173064Y-94884000D01*
X114173483Y-94887183D01*
X114192303Y-95030137D01*
X114192304Y-95030141D01*
X114192723Y-95033322D01*
X114193951Y-95036287D01*
X114193952Y-95036290D01*
X114235448Y-95136470D01*
X114250359Y-95172468D01*
X114252311Y-95175012D01*
X114252314Y-95175017D01*
X114307508Y-95246946D01*
X114342045Y-95291955D01*
X114344593Y-95293910D01*
X114458982Y-95381685D01*
X114458985Y-95381687D01*
X114461532Y-95383641D01*
X114600678Y-95441277D01*
X114712508Y-95456000D01*
X114785892Y-95456000D01*
X114787492Y-95456000D01*
X114899322Y-95441277D01*
X115038468Y-95383641D01*
X115157955Y-95291955D01*
X115249641Y-95172468D01*
X115307277Y-95033322D01*
X115318905Y-94945000D01*
X119944592Y-94945000D01*
X119945534Y-94949736D01*
X119963092Y-95038007D01*
X119963093Y-95038009D01*
X119964034Y-95042740D01*
X119966713Y-95046750D01*
X119966714Y-95046751D01*
X119984619Y-95073549D01*
X120019399Y-95125601D01*
X120102260Y-95180966D01*
X120200000Y-95200408D01*
X120297740Y-95180966D01*
X120380601Y-95125601D01*
X120435966Y-95042740D01*
X120455408Y-94945000D01*
X120435966Y-94847260D01*
X120380601Y-94764399D01*
X120297740Y-94709034D01*
X120293009Y-94708093D01*
X120293007Y-94708092D01*
X120204736Y-94690534D01*
X120200000Y-94689592D01*
X120195264Y-94690534D01*
X120106992Y-94708092D01*
X120106988Y-94708093D01*
X120102260Y-94709034D01*
X120098250Y-94711712D01*
X120098248Y-94711714D01*
X120023410Y-94761718D01*
X120023407Y-94761720D01*
X120019399Y-94764399D01*
X120016720Y-94768407D01*
X120016718Y-94768410D01*
X119966714Y-94843248D01*
X119966712Y-94843250D01*
X119964034Y-94847260D01*
X119963093Y-94851988D01*
X119963092Y-94851992D01*
X119948363Y-94926042D01*
X119944592Y-94945000D01*
X115318905Y-94945000D01*
X115326936Y-94884000D01*
X115307277Y-94734678D01*
X115249641Y-94595532D01*
X115247687Y-94592985D01*
X115247685Y-94592982D01*
X115159910Y-94478593D01*
X115157955Y-94476045D01*
X115123485Y-94449595D01*
X115041017Y-94386314D01*
X115041012Y-94386311D01*
X115038468Y-94384359D01*
X115035499Y-94383129D01*
X114902290Y-94327952D01*
X114902287Y-94327951D01*
X114899322Y-94326723D01*
X114896141Y-94326304D01*
X114896137Y-94326303D01*
X114789076Y-94312208D01*
X114789067Y-94312207D01*
X114787492Y-94312000D01*
X114712508Y-94312000D01*
X114710933Y-94312207D01*
X114710923Y-94312208D01*
X114603862Y-94326303D01*
X114603856Y-94326304D01*
X114600678Y-94326723D01*
X114597714Y-94327950D01*
X114597709Y-94327952D01*
X114464500Y-94383129D01*
X114464496Y-94383131D01*
X114461532Y-94384359D01*
X114458990Y-94386308D01*
X114458982Y-94386314D01*
X114344593Y-94474089D01*
X114344589Y-94474092D01*
X114342045Y-94476045D01*
X114340092Y-94478589D01*
X114340089Y-94478593D01*
X114252314Y-94592982D01*
X114252308Y-94592990D01*
X114250359Y-94595532D01*
X114249131Y-94598496D01*
X114249129Y-94598500D01*
X114193952Y-94731709D01*
X114193950Y-94731714D01*
X114192723Y-94734678D01*
X114192304Y-94737856D01*
X114192303Y-94737862D01*
X114177278Y-94851992D01*
X114173064Y-94884000D01*
X100120500Y-94884000D01*
X100120500Y-93416945D01*
X115387018Y-93416945D01*
X115387312Y-93419122D01*
X115387313Y-93419124D01*
X115417268Y-93640263D01*
X115417269Y-93640268D01*
X115417563Y-93642437D01*
X115418238Y-93644514D01*
X115418240Y-93644523D01*
X115465759Y-93790769D01*
X115487880Y-93858851D01*
X115488917Y-93860779D01*
X115488921Y-93860787D01*
X115594670Y-94057301D01*
X115594674Y-94057308D01*
X115595710Y-94059232D01*
X115737585Y-94237138D01*
X115908948Y-94386853D01*
X116104289Y-94503564D01*
X116317330Y-94583520D01*
X116541224Y-94624150D01*
X116710671Y-94624150D01*
X116711775Y-94624150D01*
X116881635Y-94608862D01*
X117100986Y-94548325D01*
X117306003Y-94449595D01*
X117490095Y-94315843D01*
X117647347Y-94151371D01*
X117772705Y-93961463D01*
X117862138Y-93752223D01*
X117912773Y-93530377D01*
X117917867Y-93416945D01*
X118562018Y-93416945D01*
X118562312Y-93419122D01*
X118562313Y-93419124D01*
X118592268Y-93640263D01*
X118592269Y-93640268D01*
X118592563Y-93642437D01*
X118593238Y-93644514D01*
X118593240Y-93644523D01*
X118640759Y-93790769D01*
X118662880Y-93858851D01*
X118663917Y-93860779D01*
X118663921Y-93860787D01*
X118769670Y-94057301D01*
X118769674Y-94057308D01*
X118770710Y-94059232D01*
X118912585Y-94237138D01*
X119083948Y-94386853D01*
X119279289Y-94503564D01*
X119492330Y-94583520D01*
X119716224Y-94624150D01*
X119885671Y-94624150D01*
X119886775Y-94624150D01*
X120056635Y-94608862D01*
X120275986Y-94548325D01*
X120481003Y-94449595D01*
X120665095Y-94315843D01*
X120822347Y-94151371D01*
X120947705Y-93961463D01*
X121037138Y-93752223D01*
X121087773Y-93530377D01*
X121097982Y-93303055D01*
X121067437Y-93077563D01*
X120997120Y-92861149D01*
X120996078Y-92859212D01*
X120890329Y-92662698D01*
X120890326Y-92662694D01*
X120889290Y-92660768D01*
X120747415Y-92482862D01*
X120576052Y-92333147D01*
X120445939Y-92255408D01*
X120382601Y-92217565D01*
X120382599Y-92217564D01*
X120380711Y-92216436D01*
X120348450Y-92204328D01*
X120169736Y-92137255D01*
X120169732Y-92137253D01*
X120167670Y-92136480D01*
X120165510Y-92136088D01*
X120165503Y-92136086D01*
X119945938Y-92096242D01*
X119945934Y-92096241D01*
X119943776Y-92095850D01*
X119773225Y-92095850D01*
X119772144Y-92095947D01*
X119772128Y-92095948D01*
X119605552Y-92110941D01*
X119605550Y-92110941D01*
X119603365Y-92111138D01*
X119601256Y-92111719D01*
X119601245Y-92111722D01*
X119386131Y-92171090D01*
X119386123Y-92171092D01*
X119384014Y-92171675D01*
X119382046Y-92172622D01*
X119382037Y-92172626D01*
X119180976Y-92269451D01*
X119180967Y-92269456D01*
X119178997Y-92270405D01*
X119177228Y-92271690D01*
X119177220Y-92271695D01*
X118996683Y-92402864D01*
X118996674Y-92402871D01*
X118994905Y-92404157D01*
X118993388Y-92405743D01*
X118993383Y-92405748D01*
X118839175Y-92567036D01*
X118839169Y-92567042D01*
X118837653Y-92568629D01*
X118836443Y-92570461D01*
X118836439Y-92570467D01*
X118713507Y-92756699D01*
X118713501Y-92756709D01*
X118712295Y-92758537D01*
X118711435Y-92760547D01*
X118711429Y-92760560D01*
X118623725Y-92965756D01*
X118623722Y-92965763D01*
X118622862Y-92967777D01*
X118622374Y-92969910D01*
X118622372Y-92969920D01*
X118572717Y-93187475D01*
X118572227Y-93189623D01*
X118572128Y-93191814D01*
X118572128Y-93191819D01*
X118562116Y-93414747D01*
X118562116Y-93414754D01*
X118562018Y-93416945D01*
X117917867Y-93416945D01*
X117922982Y-93303055D01*
X117892437Y-93077563D01*
X117822120Y-92861149D01*
X117821078Y-92859212D01*
X117715329Y-92662698D01*
X117715326Y-92662694D01*
X117714290Y-92660768D01*
X117572415Y-92482862D01*
X117401052Y-92333147D01*
X117270939Y-92255408D01*
X117207601Y-92217565D01*
X117207599Y-92217564D01*
X117205711Y-92216436D01*
X117173450Y-92204328D01*
X116994736Y-92137255D01*
X116994732Y-92137253D01*
X116992670Y-92136480D01*
X116990510Y-92136088D01*
X116990503Y-92136086D01*
X116770938Y-92096242D01*
X116770934Y-92096241D01*
X116768776Y-92095850D01*
X116598225Y-92095850D01*
X116597144Y-92095947D01*
X116597128Y-92095948D01*
X116430552Y-92110941D01*
X116430550Y-92110941D01*
X116428365Y-92111138D01*
X116426256Y-92111719D01*
X116426245Y-92111722D01*
X116211131Y-92171090D01*
X116211123Y-92171092D01*
X116209014Y-92171675D01*
X116207046Y-92172622D01*
X116207037Y-92172626D01*
X116005976Y-92269451D01*
X116005967Y-92269456D01*
X116003997Y-92270405D01*
X116002228Y-92271690D01*
X116002220Y-92271695D01*
X115821683Y-92402864D01*
X115821674Y-92402871D01*
X115819905Y-92404157D01*
X115818388Y-92405743D01*
X115818383Y-92405748D01*
X115664175Y-92567036D01*
X115664169Y-92567042D01*
X115662653Y-92568629D01*
X115661443Y-92570461D01*
X115661439Y-92570467D01*
X115538507Y-92756699D01*
X115538501Y-92756709D01*
X115537295Y-92758537D01*
X115536435Y-92760547D01*
X115536429Y-92760560D01*
X115448725Y-92965756D01*
X115448722Y-92965763D01*
X115447862Y-92967777D01*
X115447374Y-92969910D01*
X115447372Y-92969920D01*
X115397717Y-93187475D01*
X115397227Y-93189623D01*
X115397128Y-93191814D01*
X115397128Y-93191819D01*
X115387116Y-93414747D01*
X115387116Y-93414754D01*
X115387018Y-93416945D01*
X100120500Y-93416945D01*
X100120500Y-79724411D01*
X112291259Y-79724411D01*
X112294348Y-79728874D01*
X112376627Y-79796399D01*
X112380614Y-79799063D01*
X112544871Y-79886860D01*
X112549310Y-79888699D01*
X112727546Y-79942767D01*
X112732239Y-79943700D01*
X112917604Y-79961957D01*
X112922396Y-79961957D01*
X113107760Y-79943700D01*
X113112453Y-79942767D01*
X113290689Y-79888699D01*
X113295128Y-79886860D01*
X113459386Y-79799062D01*
X113463369Y-79796401D01*
X113545653Y-79728871D01*
X113548739Y-79724412D01*
X113548738Y-79724411D01*
X114831259Y-79724411D01*
X114834348Y-79728874D01*
X114916627Y-79796399D01*
X114920614Y-79799063D01*
X115084871Y-79886860D01*
X115089310Y-79888699D01*
X115267546Y-79942767D01*
X115272239Y-79943700D01*
X115457604Y-79961957D01*
X115462396Y-79961957D01*
X115647760Y-79943700D01*
X115652453Y-79942767D01*
X115830689Y-79888699D01*
X115835128Y-79886860D01*
X115999386Y-79799062D01*
X116003369Y-79796401D01*
X116085653Y-79728871D01*
X116088739Y-79724412D01*
X116086104Y-79719670D01*
X115466892Y-79100458D01*
X115460000Y-79097603D01*
X115453107Y-79100458D01*
X114833894Y-79719670D01*
X114831259Y-79724411D01*
X113548738Y-79724411D01*
X113546104Y-79719670D01*
X112926892Y-79100458D01*
X112920000Y-79097603D01*
X112913107Y-79100458D01*
X112293894Y-79719670D01*
X112291259Y-79724411D01*
X100120500Y-79724411D01*
X100120500Y-78989896D01*
X111945543Y-78989896D01*
X111963799Y-79175260D01*
X111964732Y-79179953D01*
X112018800Y-79358189D01*
X112020639Y-79362628D01*
X112108436Y-79526885D01*
X112111100Y-79530872D01*
X112178624Y-79613150D01*
X112183087Y-79616239D01*
X112187828Y-79613604D01*
X112809372Y-78992061D01*
X112812005Y-78987500D01*
X112812004Y-78987499D01*
X113030103Y-78987499D01*
X113032958Y-78994392D01*
X113652170Y-79613604D01*
X113656912Y-79616239D01*
X113661371Y-79613153D01*
X113728901Y-79530869D01*
X113731562Y-79526886D01*
X113819360Y-79362628D01*
X113821199Y-79358189D01*
X113875267Y-79179953D01*
X113876200Y-79175260D01*
X113894457Y-78989896D01*
X114485543Y-78989896D01*
X114503799Y-79175260D01*
X114504732Y-79179953D01*
X114558800Y-79358189D01*
X114560639Y-79362628D01*
X114648436Y-79526885D01*
X114651100Y-79530872D01*
X114718624Y-79613150D01*
X114723087Y-79616239D01*
X114727828Y-79613604D01*
X115349372Y-78992061D01*
X115352005Y-78987500D01*
X115352004Y-78987499D01*
X115570103Y-78987499D01*
X115572958Y-78994392D01*
X116192170Y-79613604D01*
X116196912Y-79616239D01*
X116201371Y-79613153D01*
X116268901Y-79530869D01*
X116271562Y-79526886D01*
X116359360Y-79362628D01*
X116361199Y-79358189D01*
X116415267Y-79179953D01*
X116416200Y-79175260D01*
X116434457Y-78989896D01*
X116434457Y-78987500D01*
X117044901Y-78987500D01*
X117045137Y-78989896D01*
X117061263Y-79153634D01*
X117063253Y-79173831D01*
X117063948Y-79176124D01*
X117063950Y-79176131D01*
X117114789Y-79343722D01*
X117117604Y-79353001D01*
X117118742Y-79355130D01*
X117197942Y-79503305D01*
X117205864Y-79518125D01*
X117324643Y-79662857D01*
X117469375Y-79781636D01*
X117634499Y-79869896D01*
X117813669Y-79924247D01*
X117938320Y-79936524D01*
X117955303Y-79938197D01*
X117986807Y-79954055D01*
X117999500Y-79986961D01*
X117999500Y-86957612D01*
X117998028Y-86966271D01*
X117998080Y-86966277D01*
X117997461Y-86971762D01*
X117995638Y-86976974D01*
X117996255Y-86982459D01*
X117996256Y-86982459D01*
X117999192Y-87008522D01*
X117999500Y-87014007D01*
X117999500Y-87022590D01*
X118000110Y-87025264D01*
X118000111Y-87025270D01*
X118001409Y-87030955D01*
X118002329Y-87036371D01*
X118002564Y-87038461D01*
X118005884Y-87067924D01*
X118008819Y-87072596D01*
X118010644Y-87077810D01*
X118010597Y-87077826D01*
X118011041Y-87078897D01*
X118011086Y-87078876D01*
X118013481Y-87083850D01*
X118014710Y-87089231D01*
X118024903Y-87102013D01*
X118034507Y-87114056D01*
X118037684Y-87118534D01*
X118040784Y-87123466D01*
X118040786Y-87123469D01*
X118042252Y-87125801D01*
X118044198Y-87127747D01*
X118044199Y-87127748D01*
X118048318Y-87131867D01*
X118051979Y-87135964D01*
X118068331Y-87156469D01*
X118068332Y-87156470D01*
X118071776Y-87160788D01*
X118076751Y-87163184D01*
X118081068Y-87166626D01*
X118081035Y-87166666D01*
X118088200Y-87171749D01*
X122941068Y-92024618D01*
X122954478Y-92049705D01*
X122963092Y-92093007D01*
X122964034Y-92097740D01*
X122966713Y-92101750D01*
X122966714Y-92101751D01*
X123014905Y-92173876D01*
X123019399Y-92180601D01*
X123102260Y-92235966D01*
X123178304Y-92251092D01*
X123190709Y-92253560D01*
X123200000Y-92255408D01*
X123209291Y-92253560D01*
X123215339Y-92252356D01*
X123297740Y-92235966D01*
X123380601Y-92180601D01*
X123435966Y-92097740D01*
X123455408Y-92000000D01*
X123435966Y-91902260D01*
X123380601Y-91819399D01*
X123372799Y-91814186D01*
X123301751Y-91766714D01*
X123301750Y-91766713D01*
X123297740Y-91764034D01*
X123293009Y-91763092D01*
X123293007Y-91763092D01*
X123249705Y-91754478D01*
X123224618Y-91741068D01*
X120820426Y-89336876D01*
X118414851Y-86931302D01*
X118404230Y-86915406D01*
X118400500Y-86896655D01*
X118400500Y-79880558D01*
X118407471Y-79855367D01*
X118426402Y-79837344D01*
X118530625Y-79781636D01*
X118675357Y-79662857D01*
X118794136Y-79518125D01*
X118882396Y-79353001D01*
X118936747Y-79173831D01*
X118955099Y-78987500D01*
X118936747Y-78801169D01*
X118882396Y-78621999D01*
X118794136Y-78456875D01*
X118675357Y-78312143D01*
X118530625Y-78193364D01*
X118503003Y-78178600D01*
X118367630Y-78106242D01*
X118365501Y-78105104D01*
X118363193Y-78104403D01*
X118363191Y-78104403D01*
X118235276Y-78065600D01*
X118210143Y-78047899D01*
X118200500Y-78018710D01*
X118200500Y-77416290D01*
X118210143Y-77387101D01*
X118235276Y-77369400D01*
X118303516Y-77348699D01*
X118365501Y-77329896D01*
X118530625Y-77241636D01*
X118675357Y-77122857D01*
X118794136Y-76978125D01*
X118882396Y-76813001D01*
X118936747Y-76633831D01*
X118955099Y-76447500D01*
X118936747Y-76261169D01*
X118882396Y-76081999D01*
X118794136Y-75916875D01*
X118675357Y-75772143D01*
X118530625Y-75653364D01*
X118503003Y-75638600D01*
X118367630Y-75566242D01*
X118365501Y-75565104D01*
X118363193Y-75564403D01*
X118363191Y-75564403D01*
X118188631Y-75511450D01*
X118188624Y-75511448D01*
X118186331Y-75510753D01*
X118183941Y-75510517D01*
X118183938Y-75510517D01*
X118002396Y-75492637D01*
X118000000Y-75492401D01*
X117997604Y-75492637D01*
X117816061Y-75510517D01*
X117816056Y-75510517D01*
X117813669Y-75510753D01*
X117811377Y-75511448D01*
X117811368Y-75511450D01*
X117636808Y-75564403D01*
X117636802Y-75564405D01*
X117634499Y-75565104D01*
X117632373Y-75566240D01*
X117632369Y-75566242D01*
X117471499Y-75652228D01*
X117471493Y-75652231D01*
X117469375Y-75653364D01*
X117467518Y-75654887D01*
X117467512Y-75654892D01*
X117326505Y-75770614D01*
X117326500Y-75770618D01*
X117324643Y-75772143D01*
X117323118Y-75774000D01*
X117323114Y-75774005D01*
X117207392Y-75915012D01*
X117207387Y-75915018D01*
X117205864Y-75916875D01*
X117204731Y-75918993D01*
X117204728Y-75918999D01*
X117118742Y-76079869D01*
X117118740Y-76079873D01*
X117117604Y-76081999D01*
X117116905Y-76084302D01*
X117116903Y-76084308D01*
X117063950Y-76258868D01*
X117063948Y-76258877D01*
X117063253Y-76261169D01*
X117063017Y-76263556D01*
X117063017Y-76263561D01*
X117045754Y-76438832D01*
X117044901Y-76447500D01*
X117063253Y-76633831D01*
X117063948Y-76636124D01*
X117063950Y-76636131D01*
X117116903Y-76810691D01*
X117117604Y-76813001D01*
X117205864Y-76978125D01*
X117324643Y-77122857D01*
X117469375Y-77241636D01*
X117634499Y-77329896D01*
X117696484Y-77348699D01*
X117764724Y-77369400D01*
X117789857Y-77387101D01*
X117799500Y-77416290D01*
X117799500Y-78018710D01*
X117789857Y-78047899D01*
X117764724Y-78065600D01*
X117636808Y-78104403D01*
X117636802Y-78104405D01*
X117634499Y-78105104D01*
X117632373Y-78106240D01*
X117632369Y-78106242D01*
X117471499Y-78192228D01*
X117471493Y-78192231D01*
X117469375Y-78193364D01*
X117467518Y-78194887D01*
X117467512Y-78194892D01*
X117326505Y-78310614D01*
X117326500Y-78310618D01*
X117324643Y-78312143D01*
X117323118Y-78314000D01*
X117323114Y-78314005D01*
X117207392Y-78455012D01*
X117207387Y-78455018D01*
X117205864Y-78456875D01*
X117204731Y-78458993D01*
X117204728Y-78458999D01*
X117118742Y-78619869D01*
X117118740Y-78619873D01*
X117117604Y-78621999D01*
X117116905Y-78624302D01*
X117116903Y-78624308D01*
X117063950Y-78798868D01*
X117063948Y-78798877D01*
X117063253Y-78801169D01*
X117063017Y-78803556D01*
X117063017Y-78803561D01*
X117049723Y-78938537D01*
X117044901Y-78987500D01*
X116434457Y-78987500D01*
X116434457Y-78985104D01*
X116416200Y-78799739D01*
X116415267Y-78795046D01*
X116361199Y-78616810D01*
X116359360Y-78612371D01*
X116271563Y-78448114D01*
X116268899Y-78444127D01*
X116201374Y-78361848D01*
X116196911Y-78358759D01*
X116192170Y-78361394D01*
X115572958Y-78980607D01*
X115570103Y-78987499D01*
X115352004Y-78987499D01*
X115349372Y-78982938D01*
X114727828Y-78361394D01*
X114723087Y-78358759D01*
X114718625Y-78361847D01*
X114651098Y-78444129D01*
X114648436Y-78448115D01*
X114560639Y-78612371D01*
X114558800Y-78616810D01*
X114504732Y-78795046D01*
X114503799Y-78799739D01*
X114485543Y-78985104D01*
X114485543Y-78989896D01*
X113894457Y-78989896D01*
X113894457Y-78985104D01*
X113876200Y-78799739D01*
X113875267Y-78795046D01*
X113821199Y-78616810D01*
X113819360Y-78612371D01*
X113731563Y-78448114D01*
X113728899Y-78444127D01*
X113661374Y-78361848D01*
X113656911Y-78358759D01*
X113652170Y-78361394D01*
X113032958Y-78980607D01*
X113030103Y-78987499D01*
X112812004Y-78987499D01*
X112809372Y-78982938D01*
X112187828Y-78361394D01*
X112183087Y-78358759D01*
X112178625Y-78361847D01*
X112111098Y-78444129D01*
X112108436Y-78448115D01*
X112020639Y-78612371D01*
X112018800Y-78616810D01*
X111964732Y-78795046D01*
X111963799Y-78799739D01*
X111945543Y-78985104D01*
X111945543Y-78989896D01*
X100120500Y-78989896D01*
X100120500Y-78250587D01*
X112291259Y-78250587D01*
X112293894Y-78255328D01*
X112915438Y-78876872D01*
X112920000Y-78879505D01*
X112924561Y-78876872D01*
X113546104Y-78255328D01*
X113548739Y-78250587D01*
X114831259Y-78250587D01*
X114833894Y-78255328D01*
X115455438Y-78876872D01*
X115460000Y-78879505D01*
X115464561Y-78876872D01*
X116086104Y-78255328D01*
X116088739Y-78250587D01*
X116085650Y-78246124D01*
X116003372Y-78178600D01*
X115999385Y-78175936D01*
X115835128Y-78088139D01*
X115830689Y-78086300D01*
X115652453Y-78032232D01*
X115647760Y-78031299D01*
X115462396Y-78013043D01*
X115457604Y-78013043D01*
X115272239Y-78031299D01*
X115267546Y-78032232D01*
X115089310Y-78086300D01*
X115084871Y-78088139D01*
X114920615Y-78175936D01*
X114916629Y-78178598D01*
X114834347Y-78246125D01*
X114831259Y-78250587D01*
X113548739Y-78250587D01*
X113545650Y-78246124D01*
X113463372Y-78178600D01*
X113459385Y-78175936D01*
X113295128Y-78088139D01*
X113290689Y-78086300D01*
X113112453Y-78032232D01*
X113107760Y-78031299D01*
X112922396Y-78013043D01*
X112917604Y-78013043D01*
X112732239Y-78031299D01*
X112727546Y-78032232D01*
X112549310Y-78086300D01*
X112544871Y-78088139D01*
X112380615Y-78175936D01*
X112376629Y-78178598D01*
X112294347Y-78246125D01*
X112291259Y-78250587D01*
X100120500Y-78250587D01*
X100120500Y-77184411D01*
X112291259Y-77184411D01*
X112294348Y-77188874D01*
X112376627Y-77256399D01*
X112380614Y-77259063D01*
X112544871Y-77346860D01*
X112549310Y-77348699D01*
X112727546Y-77402767D01*
X112732239Y-77403700D01*
X112917604Y-77421957D01*
X112922396Y-77421957D01*
X113107760Y-77403700D01*
X113112453Y-77402767D01*
X113290689Y-77348699D01*
X113295128Y-77346860D01*
X113459386Y-77259062D01*
X113463369Y-77256401D01*
X113545653Y-77188871D01*
X113548739Y-77184412D01*
X113548738Y-77184411D01*
X114831259Y-77184411D01*
X114834348Y-77188874D01*
X114916627Y-77256399D01*
X114920614Y-77259063D01*
X115084871Y-77346860D01*
X115089310Y-77348699D01*
X115267546Y-77402767D01*
X115272239Y-77403700D01*
X115457604Y-77421957D01*
X115462396Y-77421957D01*
X115647760Y-77403700D01*
X115652453Y-77402767D01*
X115830689Y-77348699D01*
X115835128Y-77346860D01*
X115999386Y-77259062D01*
X116003369Y-77256401D01*
X116085653Y-77188871D01*
X116088739Y-77184412D01*
X116086104Y-77179670D01*
X115466892Y-76560458D01*
X115460000Y-76557603D01*
X115453107Y-76560458D01*
X114833894Y-77179670D01*
X114831259Y-77184411D01*
X113548738Y-77184411D01*
X113546104Y-77179670D01*
X112926892Y-76560458D01*
X112920000Y-76557603D01*
X112913107Y-76560458D01*
X112293894Y-77179670D01*
X112291259Y-77184411D01*
X100120500Y-77184411D01*
X100120500Y-76449896D01*
X111945543Y-76449896D01*
X111963799Y-76635260D01*
X111964732Y-76639953D01*
X112018800Y-76818189D01*
X112020639Y-76822628D01*
X112108436Y-76986885D01*
X112111100Y-76990872D01*
X112178624Y-77073150D01*
X112183087Y-77076239D01*
X112187828Y-77073604D01*
X112809372Y-76452061D01*
X112812005Y-76447500D01*
X112812004Y-76447499D01*
X113030103Y-76447499D01*
X113032958Y-76454392D01*
X113652170Y-77073604D01*
X113656912Y-77076239D01*
X113661371Y-77073153D01*
X113728901Y-76990869D01*
X113731562Y-76986886D01*
X113819360Y-76822628D01*
X113821199Y-76818189D01*
X113875267Y-76639953D01*
X113876200Y-76635260D01*
X113894457Y-76449896D01*
X114485543Y-76449896D01*
X114503799Y-76635260D01*
X114504732Y-76639953D01*
X114558800Y-76818189D01*
X114560639Y-76822628D01*
X114648436Y-76986885D01*
X114651100Y-76990872D01*
X114718624Y-77073150D01*
X114723087Y-77076239D01*
X114727828Y-77073604D01*
X115349372Y-76452061D01*
X115352005Y-76447500D01*
X115352004Y-76447499D01*
X115570103Y-76447499D01*
X115572958Y-76454392D01*
X116192170Y-77073604D01*
X116196912Y-77076239D01*
X116201371Y-77073153D01*
X116268901Y-76990869D01*
X116271562Y-76986886D01*
X116359360Y-76822628D01*
X116361199Y-76818189D01*
X116415267Y-76639953D01*
X116416200Y-76635260D01*
X116434457Y-76449896D01*
X116434457Y-76445104D01*
X116416200Y-76259739D01*
X116415267Y-76255046D01*
X116361199Y-76076810D01*
X116359360Y-76072371D01*
X116271563Y-75908114D01*
X116268899Y-75904127D01*
X116201374Y-75821848D01*
X116196911Y-75818759D01*
X116192170Y-75821394D01*
X115572958Y-76440607D01*
X115570103Y-76447499D01*
X115352004Y-76447499D01*
X115349372Y-76442938D01*
X114727828Y-75821394D01*
X114723087Y-75818759D01*
X114718625Y-75821847D01*
X114651098Y-75904129D01*
X114648436Y-75908115D01*
X114560639Y-76072371D01*
X114558800Y-76076810D01*
X114504732Y-76255046D01*
X114503799Y-76259739D01*
X114485543Y-76445104D01*
X114485543Y-76449896D01*
X113894457Y-76449896D01*
X113894457Y-76445104D01*
X113876200Y-76259739D01*
X113875267Y-76255046D01*
X113821199Y-76076810D01*
X113819360Y-76072371D01*
X113731563Y-75908114D01*
X113728899Y-75904127D01*
X113661374Y-75821848D01*
X113656911Y-75818759D01*
X113652170Y-75821394D01*
X113032958Y-76440607D01*
X113030103Y-76447499D01*
X112812004Y-76447499D01*
X112809372Y-76442938D01*
X112187828Y-75821394D01*
X112183087Y-75818759D01*
X112178625Y-75821847D01*
X112111098Y-75904129D01*
X112108436Y-75908115D01*
X112020639Y-76072371D01*
X112018800Y-76076810D01*
X111964732Y-76255046D01*
X111963799Y-76259739D01*
X111945543Y-76445104D01*
X111945543Y-76449896D01*
X100120500Y-76449896D01*
X100120500Y-75710587D01*
X112291259Y-75710587D01*
X112293894Y-75715328D01*
X112915438Y-76336872D01*
X112919999Y-76339505D01*
X112924561Y-76336872D01*
X113546104Y-75715328D01*
X113548739Y-75710587D01*
X114831259Y-75710587D01*
X114833894Y-75715328D01*
X115455438Y-76336872D01*
X115459999Y-76339505D01*
X115464561Y-76336872D01*
X116086104Y-75715328D01*
X116088739Y-75710587D01*
X116085650Y-75706124D01*
X116003372Y-75638600D01*
X115999385Y-75635936D01*
X115835128Y-75548139D01*
X115830689Y-75546300D01*
X115652453Y-75492232D01*
X115647760Y-75491299D01*
X115462396Y-75473043D01*
X115457604Y-75473043D01*
X115272239Y-75491299D01*
X115267546Y-75492232D01*
X115089310Y-75546300D01*
X115084871Y-75548139D01*
X114920615Y-75635936D01*
X114916629Y-75638598D01*
X114834347Y-75706125D01*
X114831259Y-75710587D01*
X113548739Y-75710587D01*
X113545650Y-75706124D01*
X113463372Y-75638600D01*
X113459385Y-75635936D01*
X113295128Y-75548139D01*
X113290689Y-75546300D01*
X113112453Y-75492232D01*
X113107760Y-75491299D01*
X112922396Y-75473043D01*
X112917604Y-75473043D01*
X112732239Y-75491299D01*
X112727546Y-75492232D01*
X112549310Y-75546300D01*
X112544871Y-75548139D01*
X112380615Y-75635936D01*
X112376629Y-75638598D01*
X112294347Y-75706125D01*
X112291259Y-75710587D01*
X100120500Y-75710587D01*
X100120500Y-65169500D01*
X100134852Y-65134852D01*
X100169500Y-65120500D01*
X159830500Y-65120500D01*
X159865148Y-65134852D01*
G37*
%TD.AperFunction*%
%TD*%
M02*
