%TF.GenerationSoftware,KiCad,Pcbnew,(7.0.0)*%
%TF.CreationDate,2023-09-14T17:34:23-04:00*%
%TF.ProjectId,headstage-neuropix2e,68656164-7374-4616-9765-2d6e6575726f,B (Beta)*%
%TF.SameCoordinates,Original*%
%TF.FileFunction,Soldermask,Bot*%
%TF.FilePolarity,Negative*%
%FSLAX46Y46*%
G04 Gerber Fmt 4.6, Leading zero omitted, Abs format (unit mm)*
G04 Created by KiCad (PCBNEW (7.0.0)) date 2023-09-14 17:34:23*
%MOMM*%
%LPD*%
G01*
G04 APERTURE LIST*
G04 Aperture macros list*
%AMRoundRect*
0 Rectangle with rounded corners*
0 $1 Rounding radius*
0 $2 $3 $4 $5 $6 $7 $8 $9 X,Y pos of 4 corners*
0 Add a 4 corners polygon primitive as box body*
4,1,4,$2,$3,$4,$5,$6,$7,$8,$9,$2,$3,0*
0 Add four circle primitives for the rounded corners*
1,1,$1+$1,$2,$3*
1,1,$1+$1,$4,$5*
1,1,$1+$1,$6,$7*
1,1,$1+$1,$8,$9*
0 Add four rect primitives between the rounded corners*
20,1,$1+$1,$2,$3,$4,$5,0*
20,1,$1+$1,$4,$5,$6,$7,0*
20,1,$1+$1,$6,$7,$8,$9,0*
20,1,$1+$1,$8,$9,$2,$3,0*%
%AMOutline5P*
0 Free polygon, 5 corners , with rotation*
0 The origin of the aperture is its center*
0 number of corners: always 5*
0 $1 to $10 corner X, Y*
0 $11 Rotation angle, in degrees counterclockwise*
0 create outline with 5 corners*
4,1,5,$1,$2,$3,$4,$5,$6,$7,$8,$9,$10,$1,$2,$11*%
%AMOutline6P*
0 Free polygon, 6 corners , with rotation*
0 The origin of the aperture is its center*
0 number of corners: always 6*
0 $1 to $12 corner X, Y*
0 $13 Rotation angle, in degrees counterclockwise*
0 create outline with 6 corners*
4,1,6,$1,$2,$3,$4,$5,$6,$7,$8,$9,$10,$11,$12,$1,$2,$13*%
%AMOutline7P*
0 Free polygon, 7 corners , with rotation*
0 The origin of the aperture is its center*
0 number of corners: always 7*
0 $1 to $14 corner X, Y*
0 $15 Rotation angle, in degrees counterclockwise*
0 create outline with 7 corners*
4,1,7,$1,$2,$3,$4,$5,$6,$7,$8,$9,$10,$11,$12,$13,$14,$1,$2,$15*%
%AMOutline8P*
0 Free polygon, 8 corners , with rotation*
0 The origin of the aperture is its center*
0 number of corners: always 8*
0 $1 to $16 corner X, Y*
0 $17 Rotation angle, in degrees counterclockwise*
0 create outline with 8 corners*
4,1,8,$1,$2,$3,$4,$5,$6,$7,$8,$9,$10,$11,$12,$13,$14,$15,$16,$1,$2,$17*%
G04 Aperture macros list end*
%ADD10C,0.120000*%
%ADD11C,2.374900*%
%ADD12C,0.990600*%
%ADD13O,1.400000X2.600000*%
%ADD14RoundRect,0.250000X-0.600000X0.600000X-0.600000X-0.600000X0.600000X-0.600000X0.600000X0.600000X0*%
%ADD15C,1.700000*%
%ADD16RoundRect,0.218750X0.218750X0.381250X-0.218750X0.381250X-0.218750X-0.381250X0.218750X-0.381250X0*%
%ADD17RoundRect,0.015000X-0.135000X-0.385000X0.135000X-0.385000X0.135000X0.385000X-0.135000X0.385000X0*%
%ADD18RoundRect,0.020000X-0.180000X-0.455000X0.180000X-0.455000X0.180000X0.455000X-0.180000X0.455000X0*%
%ADD19C,0.216000*%
%ADD20RoundRect,0.100000X-0.100000X0.130000X-0.100000X-0.130000X0.100000X-0.130000X0.100000X0.130000X0*%
%ADD21C,0.200000*%
%ADD22RoundRect,0.100000X-0.130000X-0.100000X0.130000X-0.100000X0.130000X0.100000X-0.130000X0.100000X0*%
%ADD23RoundRect,0.100000X0.130000X0.100000X-0.130000X0.100000X-0.130000X-0.100000X0.130000X-0.100000X0*%
%ADD24RoundRect,0.140000X0.170000X-0.140000X0.170000X0.140000X-0.170000X0.140000X-0.170000X-0.140000X0*%
%ADD25RoundRect,0.100000X0.100000X-0.130000X0.100000X0.130000X-0.100000X0.130000X-0.100000X-0.130000X0*%
%ADD26Outline5P,-0.387500X0.337500X0.387500X0.337500X0.387500X-0.202500X0.252500X-0.337500X-0.387500X-0.337500X0.000000*%
%ADD27RoundRect,0.020250X-0.367250X-0.317250X0.367250X-0.317250X0.367250X0.317250X-0.367250X0.317250X0*%
%ADD28RoundRect,0.036000X-0.264000X0.084000X-0.264000X-0.084000X0.264000X-0.084000X0.264000X0.084000X0*%
%ADD29RoundRect,0.036000X0.084000X0.264000X-0.084000X0.264000X-0.084000X-0.264000X0.084000X-0.264000X0*%
%ADD30RoundRect,0.036000X-0.084000X-0.264000X0.084000X-0.264000X0.084000X0.264000X-0.084000X0.264000X0*%
%ADD31RoundRect,0.062000X-1.488000X-1.488000X1.488000X-1.488000X1.488000X1.488000X-1.488000X1.488000X0*%
%ADD32RoundRect,0.250000X1.075000X-0.375000X1.075000X0.375000X-1.075000X0.375000X-1.075000X-0.375000X0*%
G04 APERTURE END LIST*
D10*
X138394142Y-92713428D02*
X138394142Y-92313428D01*
X138394142Y-92427714D02*
X138365571Y-92370571D01*
X138365571Y-92370571D02*
X138337000Y-92342000D01*
X138337000Y-92342000D02*
X138279857Y-92313428D01*
X138279857Y-92313428D02*
X138222714Y-92313428D01*
X137822713Y-92399142D02*
X137736999Y-92427714D01*
X137736999Y-92427714D02*
X137708428Y-92456285D01*
X137708428Y-92456285D02*
X137679856Y-92513428D01*
X137679856Y-92513428D02*
X137679856Y-92599142D01*
X137679856Y-92599142D02*
X137708428Y-92656285D01*
X137708428Y-92656285D02*
X137736999Y-92684857D01*
X137736999Y-92684857D02*
X137794142Y-92713428D01*
X137794142Y-92713428D02*
X138022713Y-92713428D01*
X138022713Y-92713428D02*
X138022713Y-92113428D01*
X138022713Y-92113428D02*
X137822713Y-92113428D01*
X137822713Y-92113428D02*
X137765571Y-92142000D01*
X137765571Y-92142000D02*
X137736999Y-92170571D01*
X137736999Y-92170571D02*
X137708428Y-92227714D01*
X137708428Y-92227714D02*
X137708428Y-92284857D01*
X137708428Y-92284857D02*
X137736999Y-92342000D01*
X137736999Y-92342000D02*
X137765571Y-92370571D01*
X137765571Y-92370571D02*
X137822713Y-92399142D01*
X137822713Y-92399142D02*
X138022713Y-92399142D01*
%TO.C,G\u002A\u002A\u002A*%
G36*
X143398985Y-84283131D02*
G01*
X143396746Y-84295429D01*
X143393566Y-84313112D01*
X143391240Y-84326319D01*
X143389845Y-84334625D01*
X143389461Y-84337605D01*
X143390873Y-84336794D01*
X143396663Y-84332901D01*
X143406601Y-84326018D01*
X143420341Y-84316390D01*
X143437537Y-84304263D01*
X143457843Y-84289880D01*
X143480913Y-84273488D01*
X143506402Y-84255330D01*
X143533964Y-84235654D01*
X143563253Y-84214702D01*
X143593922Y-84192721D01*
X143615585Y-84177191D01*
X143645692Y-84155639D01*
X143674336Y-84135172D01*
X143701151Y-84116050D01*
X143725772Y-84098530D01*
X143747834Y-84082873D01*
X143766971Y-84069338D01*
X143782817Y-84058184D01*
X143795007Y-84049671D01*
X143803176Y-84044057D01*
X143806958Y-84041602D01*
X143812941Y-84038974D01*
X143827481Y-84036835D01*
X143841810Y-84040266D01*
X143843671Y-84041621D01*
X143849747Y-84046745D01*
X143859604Y-84055387D01*
X143872945Y-84067278D01*
X143889472Y-84082149D01*
X143908889Y-84099729D01*
X143930897Y-84119747D01*
X143955199Y-84141935D01*
X143981499Y-84166021D01*
X144009499Y-84191737D01*
X144038902Y-84218812D01*
X144069409Y-84246975D01*
X144087136Y-84263358D01*
X144121492Y-84295113D01*
X144151904Y-84323250D01*
X144178607Y-84348014D01*
X144201835Y-84369653D01*
X144221824Y-84388414D01*
X144238808Y-84404542D01*
X144253023Y-84418286D01*
X144264704Y-84429891D01*
X144272002Y-84437448D01*
X144274085Y-84439605D01*
X144281401Y-84447673D01*
X144286887Y-84454344D01*
X144290779Y-84459863D01*
X144293310Y-84464477D01*
X144294717Y-84468434D01*
X144295233Y-84471979D01*
X144295095Y-84475359D01*
X144294538Y-84478822D01*
X144293794Y-84482614D01*
X144292334Y-84487833D01*
X144285366Y-84500042D01*
X144274746Y-84510452D01*
X144262007Y-84517385D01*
X144260799Y-84517843D01*
X144254288Y-84520468D01*
X144242858Y-84525165D01*
X144226842Y-84531797D01*
X144206574Y-84540221D01*
X144196950Y-84544231D01*
X144182385Y-84550300D01*
X144154610Y-84561892D01*
X144123580Y-84574859D01*
X144089628Y-84589060D01*
X144053086Y-84604356D01*
X144014289Y-84620607D01*
X143973567Y-84637673D01*
X143931255Y-84655415D01*
X143887684Y-84673692D01*
X143843188Y-84692366D01*
X143798099Y-84711296D01*
X143752749Y-84730342D01*
X143707473Y-84749365D01*
X143662601Y-84768224D01*
X143618468Y-84786782D01*
X143575405Y-84804896D01*
X143533746Y-84822428D01*
X143493823Y-84839239D01*
X143455968Y-84855187D01*
X143420516Y-84870134D01*
X143387797Y-84883940D01*
X143358146Y-84896465D01*
X143331894Y-84907569D01*
X143309375Y-84917112D01*
X143290921Y-84924955D01*
X143276864Y-84930958D01*
X143267539Y-84934981D01*
X143263277Y-84936885D01*
X143260246Y-84938269D01*
X143244899Y-84942346D01*
X143229831Y-84942060D01*
X143216224Y-84937749D01*
X143205265Y-84929748D01*
X143198138Y-84918394D01*
X143197510Y-84916515D01*
X143195214Y-84909172D01*
X143191514Y-84897078D01*
X143186572Y-84880772D01*
X143180551Y-84860797D01*
X143173615Y-84837695D01*
X143165927Y-84812007D01*
X143160270Y-84793053D01*
X143370562Y-84793053D01*
X143371497Y-84792784D01*
X143377137Y-84790622D01*
X143387511Y-84786459D01*
X143402197Y-84780470D01*
X143420774Y-84772832D01*
X143442820Y-84763722D01*
X143467914Y-84753317D01*
X143495635Y-84741792D01*
X143525562Y-84729326D01*
X143557274Y-84716094D01*
X143590348Y-84702273D01*
X143624365Y-84688039D01*
X143658902Y-84673570D01*
X143693539Y-84659042D01*
X143727854Y-84644632D01*
X143761426Y-84630515D01*
X143793834Y-84616869D01*
X143824656Y-84603871D01*
X143853471Y-84591697D01*
X143879858Y-84580524D01*
X143903396Y-84570528D01*
X143923664Y-84561886D01*
X143940239Y-84554774D01*
X143952702Y-84549370D01*
X143960630Y-84545850D01*
X143963603Y-84544390D01*
X143963736Y-84544231D01*
X143962369Y-84543284D01*
X143956962Y-84543810D01*
X143953976Y-84544186D01*
X143945365Y-84545067D01*
X143931796Y-84546364D01*
X143913756Y-84548032D01*
X143891733Y-84550029D01*
X143866212Y-84552310D01*
X143837682Y-84554831D01*
X143806630Y-84557549D01*
X143773541Y-84560420D01*
X143738905Y-84563400D01*
X143710799Y-84565825D01*
X143677519Y-84568741D01*
X143646242Y-84571531D01*
X143617446Y-84574150D01*
X143591611Y-84576551D01*
X143569214Y-84578690D01*
X143550735Y-84580522D01*
X143536654Y-84582001D01*
X143527447Y-84583082D01*
X143523596Y-84583721D01*
X143522180Y-84584908D01*
X143517359Y-84590397D01*
X143514611Y-84593817D01*
X143509763Y-84599851D01*
X143499774Y-84612768D01*
X143487773Y-84628646D01*
X143474142Y-84646985D01*
X143459262Y-84667281D01*
X143443515Y-84689034D01*
X143433382Y-84703144D01*
X143418570Y-84723862D01*
X143405132Y-84742771D01*
X143393412Y-84759380D01*
X143383752Y-84773202D01*
X143376495Y-84783747D01*
X143371984Y-84790527D01*
X143370562Y-84793053D01*
X143160270Y-84793053D01*
X143157650Y-84784274D01*
X143148946Y-84755039D01*
X143143851Y-84737925D01*
X143135335Y-84709425D01*
X143127313Y-84682707D01*
X143119954Y-84658320D01*
X143113421Y-84636810D01*
X143107884Y-84618726D01*
X143106486Y-84614218D01*
X143200381Y-84614218D01*
X143200640Y-84615689D01*
X143202277Y-84622131D01*
X143205171Y-84632550D01*
X143209028Y-84645900D01*
X143213556Y-84661136D01*
X143216212Y-84669906D01*
X143220523Y-84683889D01*
X143224114Y-84695220D01*
X143226671Y-84702913D01*
X143227878Y-84705981D01*
X143228136Y-84706195D01*
X143228652Y-84706021D01*
X143229003Y-84705163D01*
X143320730Y-84705163D01*
X143321601Y-84704422D01*
X143325446Y-84699755D01*
X143331893Y-84691369D01*
X143340457Y-84679909D01*
X143350655Y-84666017D01*
X143362003Y-84650335D01*
X143369284Y-84640180D01*
X143379809Y-84625403D01*
X143388758Y-84612714D01*
X143395669Y-84602778D01*
X143400076Y-84596258D01*
X143401517Y-84593817D01*
X143400078Y-84593604D01*
X143393974Y-84593827D01*
X143384533Y-84594603D01*
X143373277Y-84595759D01*
X143361726Y-84597124D01*
X143351401Y-84598523D01*
X143343825Y-84599785D01*
X143340517Y-84600738D01*
X143339618Y-84603320D01*
X143338413Y-84608247D01*
X143337769Y-84610880D01*
X143335267Y-84622404D01*
X143332319Y-84636922D01*
X143329137Y-84653462D01*
X143326505Y-84667779D01*
X143323933Y-84682446D01*
X143322010Y-84694195D01*
X143320892Y-84702081D01*
X143320730Y-84705163D01*
X143229003Y-84705163D01*
X143229298Y-84704443D01*
X143230231Y-84700735D01*
X143231609Y-84694173D01*
X143233588Y-84684031D01*
X143236325Y-84669584D01*
X143239978Y-84650108D01*
X143240956Y-84644813D01*
X143243407Y-84630795D01*
X143245212Y-84619315D01*
X143246211Y-84611443D01*
X143246245Y-84608247D01*
X143244330Y-84607655D01*
X143237968Y-84607553D01*
X143228955Y-84608223D01*
X143218991Y-84609447D01*
X143209775Y-84611001D01*
X143203005Y-84612665D01*
X143200381Y-84614218D01*
X143106486Y-84614218D01*
X143103506Y-84604613D01*
X143100456Y-84595020D01*
X143098900Y-84590493D01*
X143096047Y-84581122D01*
X143095851Y-84565471D01*
X143101181Y-84548690D01*
X143101257Y-84548521D01*
X143103295Y-84543743D01*
X143107392Y-84533912D01*
X143113411Y-84519364D01*
X143118214Y-84507713D01*
X143356190Y-84507713D01*
X143366809Y-84507327D01*
X143369875Y-84507155D01*
X143379140Y-84506442D01*
X143392226Y-84505304D01*
X143407856Y-84503854D01*
X143424750Y-84502204D01*
X143472072Y-84497468D01*
X143480692Y-84485467D01*
X143590592Y-84485467D01*
X143591054Y-84486047D01*
X143592657Y-84486422D01*
X143595828Y-84486562D01*
X143600993Y-84486439D01*
X143608578Y-84486022D01*
X143619010Y-84485284D01*
X143632714Y-84484194D01*
X143650118Y-84482724D01*
X143671647Y-84480845D01*
X143697727Y-84478528D01*
X143728785Y-84475743D01*
X143765247Y-84472461D01*
X143791856Y-84470066D01*
X143833283Y-84466337D01*
X143869683Y-84463063D01*
X143901564Y-84460200D01*
X143929434Y-84457701D01*
X143953801Y-84455522D01*
X143975171Y-84453618D01*
X143994055Y-84451943D01*
X144010958Y-84450453D01*
X144026389Y-84449101D01*
X144040857Y-84447844D01*
X144054868Y-84446637D01*
X144068930Y-84445433D01*
X144083552Y-84444187D01*
X144087932Y-84443811D01*
X144105381Y-84442212D01*
X144120462Y-84440678D01*
X144132306Y-84439307D01*
X144140049Y-84438197D01*
X144142823Y-84437448D01*
X144141976Y-84436415D01*
X144137362Y-84431801D01*
X144129102Y-84423872D01*
X144117612Y-84413012D01*
X144103311Y-84399605D01*
X144086615Y-84384035D01*
X144067943Y-84366686D01*
X144047711Y-84347942D01*
X144026337Y-84328187D01*
X144004238Y-84307806D01*
X143981832Y-84287182D01*
X143959536Y-84266699D01*
X143937767Y-84246742D01*
X143916944Y-84227694D01*
X143897482Y-84209940D01*
X143879801Y-84193864D01*
X143864316Y-84179849D01*
X143851446Y-84168280D01*
X143841608Y-84159541D01*
X143835219Y-84154016D01*
X143832697Y-84152089D01*
X143831117Y-84153892D01*
X143826399Y-84160003D01*
X143818893Y-84169992D01*
X143808937Y-84183394D01*
X143796866Y-84199748D01*
X143783018Y-84218589D01*
X143767729Y-84239456D01*
X143751336Y-84261885D01*
X143739104Y-84278656D01*
X143734175Y-84285414D01*
X143716584Y-84309578D01*
X143698899Y-84333915D01*
X143681456Y-84357963D01*
X143664593Y-84381258D01*
X143648646Y-84403337D01*
X143633952Y-84423738D01*
X143620847Y-84441996D01*
X143609669Y-84457650D01*
X143600754Y-84470236D01*
X143594438Y-84479292D01*
X143591059Y-84484353D01*
X143590846Y-84484710D01*
X143590592Y-84485467D01*
X143480692Y-84485467D01*
X143541452Y-84400879D01*
X143545849Y-84394759D01*
X143561229Y-84373349D01*
X143575803Y-84353062D01*
X143589138Y-84334503D01*
X143600798Y-84318278D01*
X143610347Y-84304991D01*
X143617352Y-84295249D01*
X143621377Y-84289655D01*
X143626036Y-84282825D01*
X143628327Y-84278656D01*
X143627606Y-84278264D01*
X143626992Y-84278713D01*
X143622227Y-84282141D01*
X143613323Y-84288516D01*
X143600744Y-84297508D01*
X143584951Y-84308787D01*
X143566407Y-84322023D01*
X143545575Y-84336884D01*
X143522917Y-84353042D01*
X143498895Y-84370166D01*
X143490299Y-84376295D01*
X143466659Y-84393179D01*
X143444526Y-84409026D01*
X143424365Y-84423501D01*
X143406643Y-84436267D01*
X143391827Y-84446988D01*
X143380383Y-84455326D01*
X143372778Y-84460946D01*
X143369477Y-84463512D01*
X143366477Y-84468371D01*
X143363138Y-84477216D01*
X143360322Y-84487956D01*
X143356190Y-84507713D01*
X143118214Y-84507713D01*
X143121214Y-84500437D01*
X143130662Y-84477469D01*
X143141616Y-84450795D01*
X143145664Y-84440926D01*
X143241812Y-84440926D01*
X143241933Y-84443071D01*
X143245594Y-84441880D01*
X143253100Y-84437160D01*
X143264740Y-84428758D01*
X143283765Y-84414569D01*
X143296092Y-84349317D01*
X143297984Y-84339229D01*
X143301250Y-84321451D01*
X143303975Y-84306130D01*
X143306017Y-84294087D01*
X143307234Y-84286147D01*
X143307486Y-84283131D01*
X143307465Y-84283120D01*
X143306760Y-84284131D01*
X143305128Y-84287522D01*
X143302429Y-84293630D01*
X143298521Y-84302794D01*
X143293265Y-84315353D01*
X143286518Y-84331646D01*
X143278141Y-84352011D01*
X143267991Y-84376787D01*
X143255929Y-84406312D01*
X143241812Y-84440926D01*
X143145664Y-84440926D01*
X143153939Y-84420755D01*
X143167493Y-84387684D01*
X143182138Y-84351920D01*
X143197736Y-84313800D01*
X143214150Y-84273661D01*
X143231241Y-84231841D01*
X143248871Y-84188676D01*
X143250661Y-84184291D01*
X143268218Y-84141312D01*
X143285211Y-84099751D01*
X143301503Y-84059942D01*
X143316956Y-84022219D01*
X143331432Y-83986915D01*
X143344796Y-83954363D01*
X143356910Y-83924897D01*
X143367637Y-83898851D01*
X143376839Y-83876559D01*
X143384380Y-83858352D01*
X143390123Y-83844566D01*
X143393930Y-83835534D01*
X143395664Y-83831589D01*
X143396692Y-83829709D01*
X143405748Y-83819452D01*
X143417941Y-83812593D01*
X143431702Y-83809520D01*
X143445466Y-83810619D01*
X143457665Y-83816277D01*
X143460952Y-83818949D01*
X143469856Y-83828925D01*
X143476047Y-83840042D01*
X143478318Y-83850315D01*
X143478155Y-83851898D01*
X143477057Y-83859029D01*
X143474993Y-83871228D01*
X143472043Y-83888050D01*
X143468289Y-83909052D01*
X143463810Y-83933789D01*
X143458688Y-83961816D01*
X143453003Y-83992690D01*
X143446835Y-84025964D01*
X143440267Y-84061196D01*
X143433377Y-84097941D01*
X143429391Y-84119166D01*
X143422725Y-84154769D01*
X143416445Y-84188449D01*
X143410630Y-84219781D01*
X143405356Y-84248338D01*
X143400702Y-84273696D01*
X143398985Y-84283131D01*
G37*
%TD*%
D11*
%TO.C,J5*%
X119830000Y-98440000D03*
D12*
X119830000Y-95900000D03*
D11*
X119830000Y-93360000D03*
X116655000Y-98440000D03*
X116655000Y-93360000D03*
D12*
X114750000Y-96916000D03*
X114750000Y-94884000D03*
%TD*%
D13*
%TO.C,TP2*%
X146634999Y-83419999D03*
%TD*%
%TO.C,TP1*%
X144954999Y-83419999D03*
%TD*%
D14*
%TO.C,J4*%
X123080000Y-76447500D03*
D15*
X123080000Y-78987500D03*
X120540000Y-76447500D03*
X120540000Y-78987500D03*
X118000000Y-76447500D03*
X118000000Y-78987500D03*
X115460000Y-76447500D03*
X115460000Y-78987500D03*
X112920000Y-76447500D03*
X112920000Y-78987500D03*
%TD*%
D16*
%TO.C,L2*%
X143450000Y-82900000D03*
X141325000Y-82900000D03*
%TD*%
D17*
%TO.C,J3*%
X146325000Y-95625000D03*
X146025000Y-93155000D03*
X145725000Y-95625000D03*
X145425000Y-93155000D03*
X145125000Y-95625000D03*
X144825000Y-93155000D03*
X144525000Y-95625000D03*
X144225000Y-93155000D03*
X143925000Y-95625000D03*
X143625000Y-93155000D03*
X143325000Y-95625000D03*
X143025000Y-93155000D03*
X142725000Y-95625000D03*
X142425000Y-93155000D03*
X142125000Y-95625000D03*
X141825000Y-93155000D03*
X141525000Y-95625000D03*
X141225000Y-93155000D03*
X140925000Y-95625000D03*
X140625000Y-93155000D03*
X140325000Y-95625000D03*
X140025000Y-93155000D03*
X139725000Y-95625000D03*
X139425000Y-93155000D03*
X139125000Y-95625000D03*
X138825000Y-93155000D03*
X138525000Y-95625000D03*
D18*
X147060000Y-95580000D03*
X137790000Y-95580000D03*
%TD*%
D19*
%TO.C,U6*%
X145503000Y-85377500D03*
X145103000Y-85377500D03*
X145303000Y-85724000D03*
X145503000Y-86070500D03*
X145103000Y-86070500D03*
%TD*%
D20*
%TO.C,C25*%
X146340000Y-86120000D03*
X146340000Y-85480000D03*
%TD*%
D21*
%TO.C,U2*%
X138570000Y-91025000D03*
X138570000Y-91375000D03*
X138920000Y-91025000D03*
X138920000Y-91375000D03*
%TD*%
D22*
%TO.C,R5*%
X138055000Y-86900000D03*
X138695000Y-86900000D03*
%TD*%
D23*
%TO.C,C28*%
X140065000Y-92300000D03*
X139425000Y-92300000D03*
%TD*%
D24*
%TO.C,C12*%
X141925000Y-85980000D03*
X141925000Y-85020000D03*
%TD*%
D25*
%TO.C,C11*%
X143475000Y-86040000D03*
X143475000Y-85400000D03*
%TD*%
%TO.C,R11*%
X140165000Y-91570000D03*
X140165000Y-90930000D03*
%TD*%
D20*
%TO.C,L3*%
X141055000Y-85460000D03*
X141055000Y-86100000D03*
%TD*%
D25*
%TO.C,C4*%
X139445000Y-91570000D03*
X139445000Y-90930000D03*
%TD*%
D23*
%TO.C,R12*%
X140545000Y-89500000D03*
X139905000Y-89500000D03*
%TD*%
D22*
%TO.C,C21*%
X139615000Y-86860000D03*
X140255000Y-86860000D03*
%TD*%
D26*
%TO.C,U5*%
X139187499Y-87712499D03*
D27*
X140462500Y-87712500D03*
X140462500Y-88687500D03*
X139187500Y-88687500D03*
%TD*%
D25*
%TO.C,C27*%
X139055000Y-90160000D03*
X139055000Y-89520000D03*
%TD*%
D23*
%TO.C,C24*%
X140545000Y-90200000D03*
X139905000Y-90200000D03*
%TD*%
D22*
%TO.C,R2*%
X142005000Y-84100000D03*
X142645000Y-84100000D03*
%TD*%
D20*
%TO.C,C5*%
X138045000Y-90880000D03*
X138045000Y-91520000D03*
%TD*%
%TO.C,C26*%
X138125000Y-89300000D03*
X138125000Y-89940000D03*
%TD*%
D25*
%TO.C,C10*%
X142775000Y-86020000D03*
X142775000Y-85380000D03*
%TD*%
D28*
%TO.C,U3*%
X141625000Y-91150000D03*
X141625000Y-90650000D03*
X141625000Y-90150000D03*
X141625000Y-89650000D03*
X141625000Y-89150000D03*
X141625000Y-88650000D03*
X141625000Y-88150000D03*
X141625000Y-87650000D03*
D29*
X142275000Y-87000000D03*
X142775000Y-87000000D03*
X143275000Y-87000000D03*
X143775000Y-87000000D03*
X144275000Y-87000000D03*
X144775000Y-87000000D03*
D30*
X145275000Y-87000000D03*
D29*
X145775000Y-87000000D03*
D28*
X146425000Y-87650000D03*
X146425000Y-88150000D03*
X146425000Y-88650000D03*
X146425000Y-89150000D03*
X146425000Y-89650000D03*
X146425000Y-90150001D03*
X146425000Y-90650000D03*
X146425000Y-91150000D03*
D29*
X145775000Y-91800000D03*
X145275000Y-91800000D03*
X144775000Y-91800000D03*
X144275000Y-91800000D03*
X143775000Y-91800000D03*
X143275000Y-91800000D03*
X142775000Y-91800000D03*
X142275000Y-91800000D03*
D31*
X144025000Y-89400000D03*
%TD*%
D32*
%TO.C,L1*%
X139025000Y-85600000D03*
X139025000Y-82800000D03*
%TD*%
D25*
%TO.C,C23*%
X138145000Y-88490000D03*
X138145000Y-87850000D03*
%TD*%
%TO.C,C20*%
X144325000Y-86020000D03*
X144325000Y-85380000D03*
%TD*%
M02*
