%TF.GenerationSoftware,KiCad,Pcbnew,(7.0.0)*%
%TF.CreationDate,2023-09-15T12:30:04-04:00*%
%TF.ProjectId,headstage-neuropix2e,68656164-7374-4616-9765-2d6e6575726f,B (Beta)*%
%TF.SameCoordinates,Original*%
%TF.FileFunction,AssemblyDrawing,Bot*%
%FSLAX46Y46*%
G04 Gerber Fmt 4.6, Leading zero omitted, Abs format (unit mm)*
G04 Created by KiCad (PCBNEW (7.0.0)) date 2023-09-15 12:30:04*
%MOMM*%
%LPD*%
G01*
G04 APERTURE LIST*
%ADD10C,0.040000*%
%ADD11C,0.100000*%
G04 APERTURE END LIST*
D10*
%TO.C,L2*%
X142429166Y-82991845D02*
X142548214Y-82991845D01*
X142548214Y-82991845D02*
X142548214Y-82741845D01*
X142357737Y-82765654D02*
X142345833Y-82753750D01*
X142345833Y-82753750D02*
X142322023Y-82741845D01*
X142322023Y-82741845D02*
X142262499Y-82741845D01*
X142262499Y-82741845D02*
X142238690Y-82753750D01*
X142238690Y-82753750D02*
X142226785Y-82765654D01*
X142226785Y-82765654D02*
X142214880Y-82789464D01*
X142214880Y-82789464D02*
X142214880Y-82813273D01*
X142214880Y-82813273D02*
X142226785Y-82848988D01*
X142226785Y-82848988D02*
X142369642Y-82991845D01*
X142369642Y-82991845D02*
X142214880Y-82991845D01*
%TO.C,J3*%
X142508332Y-94231845D02*
X142508332Y-94410416D01*
X142508332Y-94410416D02*
X142520237Y-94446130D01*
X142520237Y-94446130D02*
X142544046Y-94469940D01*
X142544046Y-94469940D02*
X142579761Y-94481845D01*
X142579761Y-94481845D02*
X142603570Y-94481845D01*
X142413094Y-94231845D02*
X142258332Y-94231845D01*
X142258332Y-94231845D02*
X142341666Y-94327083D01*
X142341666Y-94327083D02*
X142305951Y-94327083D01*
X142305951Y-94327083D02*
X142282142Y-94338988D01*
X142282142Y-94338988D02*
X142270237Y-94350892D01*
X142270237Y-94350892D02*
X142258332Y-94374702D01*
X142258332Y-94374702D02*
X142258332Y-94434226D01*
X142258332Y-94434226D02*
X142270237Y-94458035D01*
X142270237Y-94458035D02*
X142282142Y-94469940D01*
X142282142Y-94469940D02*
X142305951Y-94481845D01*
X142305951Y-94481845D02*
X142377380Y-94481845D01*
X142377380Y-94481845D02*
X142401189Y-94469940D01*
X142401189Y-94469940D02*
X142413094Y-94458035D01*
%TO.C,U6*%
X145493476Y-85565845D02*
X145493476Y-85768226D01*
X145493476Y-85768226D02*
X145481571Y-85792035D01*
X145481571Y-85792035D02*
X145469666Y-85803940D01*
X145469666Y-85803940D02*
X145445857Y-85815845D01*
X145445857Y-85815845D02*
X145398238Y-85815845D01*
X145398238Y-85815845D02*
X145374428Y-85803940D01*
X145374428Y-85803940D02*
X145362523Y-85792035D01*
X145362523Y-85792035D02*
X145350619Y-85768226D01*
X145350619Y-85768226D02*
X145350619Y-85565845D01*
X145124428Y-85565845D02*
X145172047Y-85565845D01*
X145172047Y-85565845D02*
X145195856Y-85577750D01*
X145195856Y-85577750D02*
X145207761Y-85589654D01*
X145207761Y-85589654D02*
X145231571Y-85625369D01*
X145231571Y-85625369D02*
X145243475Y-85672988D01*
X145243475Y-85672988D02*
X145243475Y-85768226D01*
X145243475Y-85768226D02*
X145231571Y-85792035D01*
X145231571Y-85792035D02*
X145219666Y-85803940D01*
X145219666Y-85803940D02*
X145195856Y-85815845D01*
X145195856Y-85815845D02*
X145148237Y-85815845D01*
X145148237Y-85815845D02*
X145124428Y-85803940D01*
X145124428Y-85803940D02*
X145112523Y-85792035D01*
X145112523Y-85792035D02*
X145100618Y-85768226D01*
X145100618Y-85768226D02*
X145100618Y-85708702D01*
X145100618Y-85708702D02*
X145112523Y-85684892D01*
X145112523Y-85684892D02*
X145124428Y-85672988D01*
X145124428Y-85672988D02*
X145148237Y-85661083D01*
X145148237Y-85661083D02*
X145195856Y-85661083D01*
X145195856Y-85661083D02*
X145219666Y-85672988D01*
X145219666Y-85672988D02*
X145231571Y-85684892D01*
X145231571Y-85684892D02*
X145243475Y-85708702D01*
%TO.C,C25*%
X146493714Y-85345035D02*
X146505618Y-85356940D01*
X146505618Y-85356940D02*
X146541333Y-85368845D01*
X146541333Y-85368845D02*
X146565142Y-85368845D01*
X146565142Y-85368845D02*
X146600856Y-85356940D01*
X146600856Y-85356940D02*
X146624666Y-85333130D01*
X146624666Y-85333130D02*
X146636571Y-85309321D01*
X146636571Y-85309321D02*
X146648475Y-85261702D01*
X146648475Y-85261702D02*
X146648475Y-85225988D01*
X146648475Y-85225988D02*
X146636571Y-85178369D01*
X146636571Y-85178369D02*
X146624666Y-85154559D01*
X146624666Y-85154559D02*
X146600856Y-85130750D01*
X146600856Y-85130750D02*
X146565142Y-85118845D01*
X146565142Y-85118845D02*
X146541333Y-85118845D01*
X146541333Y-85118845D02*
X146505618Y-85130750D01*
X146505618Y-85130750D02*
X146493714Y-85142654D01*
X146398475Y-85142654D02*
X146386571Y-85130750D01*
X146386571Y-85130750D02*
X146362761Y-85118845D01*
X146362761Y-85118845D02*
X146303237Y-85118845D01*
X146303237Y-85118845D02*
X146279428Y-85130750D01*
X146279428Y-85130750D02*
X146267523Y-85142654D01*
X146267523Y-85142654D02*
X146255618Y-85166464D01*
X146255618Y-85166464D02*
X146255618Y-85190273D01*
X146255618Y-85190273D02*
X146267523Y-85225988D01*
X146267523Y-85225988D02*
X146410380Y-85368845D01*
X146410380Y-85368845D02*
X146255618Y-85368845D01*
X146029428Y-85118845D02*
X146148476Y-85118845D01*
X146148476Y-85118845D02*
X146160380Y-85237892D01*
X146160380Y-85237892D02*
X146148476Y-85225988D01*
X146148476Y-85225988D02*
X146124666Y-85214083D01*
X146124666Y-85214083D02*
X146065142Y-85214083D01*
X146065142Y-85214083D02*
X146041333Y-85225988D01*
X146041333Y-85225988D02*
X146029428Y-85237892D01*
X146029428Y-85237892D02*
X146017523Y-85261702D01*
X146017523Y-85261702D02*
X146017523Y-85321226D01*
X146017523Y-85321226D02*
X146029428Y-85345035D01*
X146029428Y-85345035D02*
X146041333Y-85356940D01*
X146041333Y-85356940D02*
X146065142Y-85368845D01*
X146065142Y-85368845D02*
X146124666Y-85368845D01*
X146124666Y-85368845D02*
X146148476Y-85356940D01*
X146148476Y-85356940D02*
X146160380Y-85345035D01*
%TO.C,U2*%
X138960476Y-91131845D02*
X138960476Y-91334226D01*
X138960476Y-91334226D02*
X138948571Y-91358035D01*
X138948571Y-91358035D02*
X138936666Y-91369940D01*
X138936666Y-91369940D02*
X138912857Y-91381845D01*
X138912857Y-91381845D02*
X138865238Y-91381845D01*
X138865238Y-91381845D02*
X138841428Y-91369940D01*
X138841428Y-91369940D02*
X138829523Y-91358035D01*
X138829523Y-91358035D02*
X138817619Y-91334226D01*
X138817619Y-91334226D02*
X138817619Y-91131845D01*
X138710475Y-91155654D02*
X138698571Y-91143750D01*
X138698571Y-91143750D02*
X138674761Y-91131845D01*
X138674761Y-91131845D02*
X138615237Y-91131845D01*
X138615237Y-91131845D02*
X138591428Y-91143750D01*
X138591428Y-91143750D02*
X138579523Y-91155654D01*
X138579523Y-91155654D02*
X138567618Y-91179464D01*
X138567618Y-91179464D02*
X138567618Y-91203273D01*
X138567618Y-91203273D02*
X138579523Y-91238988D01*
X138579523Y-91238988D02*
X138722380Y-91381845D01*
X138722380Y-91381845D02*
X138567618Y-91381845D01*
%TO.C,R5*%
X138411666Y-86611845D02*
X138494999Y-86492797D01*
X138554523Y-86611845D02*
X138554523Y-86361845D01*
X138554523Y-86361845D02*
X138459285Y-86361845D01*
X138459285Y-86361845D02*
X138435475Y-86373750D01*
X138435475Y-86373750D02*
X138423570Y-86385654D01*
X138423570Y-86385654D02*
X138411666Y-86409464D01*
X138411666Y-86409464D02*
X138411666Y-86445178D01*
X138411666Y-86445178D02*
X138423570Y-86468988D01*
X138423570Y-86468988D02*
X138435475Y-86480892D01*
X138435475Y-86480892D02*
X138459285Y-86492797D01*
X138459285Y-86492797D02*
X138554523Y-86492797D01*
X138185475Y-86361845D02*
X138304523Y-86361845D01*
X138304523Y-86361845D02*
X138316427Y-86480892D01*
X138316427Y-86480892D02*
X138304523Y-86468988D01*
X138304523Y-86468988D02*
X138280713Y-86457083D01*
X138280713Y-86457083D02*
X138221189Y-86457083D01*
X138221189Y-86457083D02*
X138197380Y-86468988D01*
X138197380Y-86468988D02*
X138185475Y-86480892D01*
X138185475Y-86480892D02*
X138173570Y-86504702D01*
X138173570Y-86504702D02*
X138173570Y-86564226D01*
X138173570Y-86564226D02*
X138185475Y-86588035D01*
X138185475Y-86588035D02*
X138197380Y-86599940D01*
X138197380Y-86599940D02*
X138221189Y-86611845D01*
X138221189Y-86611845D02*
X138280713Y-86611845D01*
X138280713Y-86611845D02*
X138304523Y-86599940D01*
X138304523Y-86599940D02*
X138316427Y-86588035D01*
%TO.C,C28*%
X140680714Y-92358035D02*
X140692618Y-92369940D01*
X140692618Y-92369940D02*
X140728333Y-92381845D01*
X140728333Y-92381845D02*
X140752142Y-92381845D01*
X140752142Y-92381845D02*
X140787856Y-92369940D01*
X140787856Y-92369940D02*
X140811666Y-92346130D01*
X140811666Y-92346130D02*
X140823571Y-92322321D01*
X140823571Y-92322321D02*
X140835475Y-92274702D01*
X140835475Y-92274702D02*
X140835475Y-92238988D01*
X140835475Y-92238988D02*
X140823571Y-92191369D01*
X140823571Y-92191369D02*
X140811666Y-92167559D01*
X140811666Y-92167559D02*
X140787856Y-92143750D01*
X140787856Y-92143750D02*
X140752142Y-92131845D01*
X140752142Y-92131845D02*
X140728333Y-92131845D01*
X140728333Y-92131845D02*
X140692618Y-92143750D01*
X140692618Y-92143750D02*
X140680714Y-92155654D01*
X140585475Y-92155654D02*
X140573571Y-92143750D01*
X140573571Y-92143750D02*
X140549761Y-92131845D01*
X140549761Y-92131845D02*
X140490237Y-92131845D01*
X140490237Y-92131845D02*
X140466428Y-92143750D01*
X140466428Y-92143750D02*
X140454523Y-92155654D01*
X140454523Y-92155654D02*
X140442618Y-92179464D01*
X140442618Y-92179464D02*
X140442618Y-92203273D01*
X140442618Y-92203273D02*
X140454523Y-92238988D01*
X140454523Y-92238988D02*
X140597380Y-92381845D01*
X140597380Y-92381845D02*
X140442618Y-92381845D01*
X140299761Y-92238988D02*
X140323571Y-92227083D01*
X140323571Y-92227083D02*
X140335476Y-92215178D01*
X140335476Y-92215178D02*
X140347380Y-92191369D01*
X140347380Y-92191369D02*
X140347380Y-92179464D01*
X140347380Y-92179464D02*
X140335476Y-92155654D01*
X140335476Y-92155654D02*
X140323571Y-92143750D01*
X140323571Y-92143750D02*
X140299761Y-92131845D01*
X140299761Y-92131845D02*
X140252142Y-92131845D01*
X140252142Y-92131845D02*
X140228333Y-92143750D01*
X140228333Y-92143750D02*
X140216428Y-92155654D01*
X140216428Y-92155654D02*
X140204523Y-92179464D01*
X140204523Y-92179464D02*
X140204523Y-92191369D01*
X140204523Y-92191369D02*
X140216428Y-92215178D01*
X140216428Y-92215178D02*
X140228333Y-92227083D01*
X140228333Y-92227083D02*
X140252142Y-92238988D01*
X140252142Y-92238988D02*
X140299761Y-92238988D01*
X140299761Y-92238988D02*
X140323571Y-92250892D01*
X140323571Y-92250892D02*
X140335476Y-92262797D01*
X140335476Y-92262797D02*
X140347380Y-92286607D01*
X140347380Y-92286607D02*
X140347380Y-92334226D01*
X140347380Y-92334226D02*
X140335476Y-92358035D01*
X140335476Y-92358035D02*
X140323571Y-92369940D01*
X140323571Y-92369940D02*
X140299761Y-92381845D01*
X140299761Y-92381845D02*
X140252142Y-92381845D01*
X140252142Y-92381845D02*
X140228333Y-92369940D01*
X140228333Y-92369940D02*
X140216428Y-92358035D01*
X140216428Y-92358035D02*
X140204523Y-92334226D01*
X140204523Y-92334226D02*
X140204523Y-92286607D01*
X140204523Y-92286607D02*
X140216428Y-92262797D01*
X140216428Y-92262797D02*
X140228333Y-92250892D01*
X140228333Y-92250892D02*
X140252142Y-92238988D01*
%TO.C,C12*%
X142008035Y-85349285D02*
X142019940Y-85337381D01*
X142019940Y-85337381D02*
X142031845Y-85301666D01*
X142031845Y-85301666D02*
X142031845Y-85277857D01*
X142031845Y-85277857D02*
X142019940Y-85242143D01*
X142019940Y-85242143D02*
X141996130Y-85218333D01*
X141996130Y-85218333D02*
X141972321Y-85206428D01*
X141972321Y-85206428D02*
X141924702Y-85194524D01*
X141924702Y-85194524D02*
X141888988Y-85194524D01*
X141888988Y-85194524D02*
X141841369Y-85206428D01*
X141841369Y-85206428D02*
X141817559Y-85218333D01*
X141817559Y-85218333D02*
X141793750Y-85242143D01*
X141793750Y-85242143D02*
X141781845Y-85277857D01*
X141781845Y-85277857D02*
X141781845Y-85301666D01*
X141781845Y-85301666D02*
X141793750Y-85337381D01*
X141793750Y-85337381D02*
X141805654Y-85349285D01*
X142031845Y-85587381D02*
X142031845Y-85444524D01*
X142031845Y-85515952D02*
X141781845Y-85515952D01*
X141781845Y-85515952D02*
X141817559Y-85492143D01*
X141817559Y-85492143D02*
X141841369Y-85468333D01*
X141841369Y-85468333D02*
X141853273Y-85444524D01*
X141805654Y-85682619D02*
X141793750Y-85694523D01*
X141793750Y-85694523D02*
X141781845Y-85718333D01*
X141781845Y-85718333D02*
X141781845Y-85777857D01*
X141781845Y-85777857D02*
X141793750Y-85801666D01*
X141793750Y-85801666D02*
X141805654Y-85813571D01*
X141805654Y-85813571D02*
X141829464Y-85825476D01*
X141829464Y-85825476D02*
X141853273Y-85825476D01*
X141853273Y-85825476D02*
X141888988Y-85813571D01*
X141888988Y-85813571D02*
X142031845Y-85670714D01*
X142031845Y-85670714D02*
X142031845Y-85825476D01*
%TO.C,C11*%
X143538035Y-84819285D02*
X143549940Y-84807381D01*
X143549940Y-84807381D02*
X143561845Y-84771666D01*
X143561845Y-84771666D02*
X143561845Y-84747857D01*
X143561845Y-84747857D02*
X143549940Y-84712143D01*
X143549940Y-84712143D02*
X143526130Y-84688333D01*
X143526130Y-84688333D02*
X143502321Y-84676428D01*
X143502321Y-84676428D02*
X143454702Y-84664524D01*
X143454702Y-84664524D02*
X143418988Y-84664524D01*
X143418988Y-84664524D02*
X143371369Y-84676428D01*
X143371369Y-84676428D02*
X143347559Y-84688333D01*
X143347559Y-84688333D02*
X143323750Y-84712143D01*
X143323750Y-84712143D02*
X143311845Y-84747857D01*
X143311845Y-84747857D02*
X143311845Y-84771666D01*
X143311845Y-84771666D02*
X143323750Y-84807381D01*
X143323750Y-84807381D02*
X143335654Y-84819285D01*
X143561845Y-85057381D02*
X143561845Y-84914524D01*
X143561845Y-84985952D02*
X143311845Y-84985952D01*
X143311845Y-84985952D02*
X143347559Y-84962143D01*
X143347559Y-84962143D02*
X143371369Y-84938333D01*
X143371369Y-84938333D02*
X143383273Y-84914524D01*
X143561845Y-85295476D02*
X143561845Y-85152619D01*
X143561845Y-85224047D02*
X143311845Y-85224047D01*
X143311845Y-85224047D02*
X143347559Y-85200238D01*
X143347559Y-85200238D02*
X143371369Y-85176428D01*
X143371369Y-85176428D02*
X143383273Y-85152619D01*
%TO.C,R11*%
X140681845Y-91089285D02*
X140562797Y-91005952D01*
X140681845Y-90946428D02*
X140431845Y-90946428D01*
X140431845Y-90946428D02*
X140431845Y-91041666D01*
X140431845Y-91041666D02*
X140443750Y-91065476D01*
X140443750Y-91065476D02*
X140455654Y-91077381D01*
X140455654Y-91077381D02*
X140479464Y-91089285D01*
X140479464Y-91089285D02*
X140515178Y-91089285D01*
X140515178Y-91089285D02*
X140538988Y-91077381D01*
X140538988Y-91077381D02*
X140550892Y-91065476D01*
X140550892Y-91065476D02*
X140562797Y-91041666D01*
X140562797Y-91041666D02*
X140562797Y-90946428D01*
X140681845Y-91327381D02*
X140681845Y-91184524D01*
X140681845Y-91255952D02*
X140431845Y-91255952D01*
X140431845Y-91255952D02*
X140467559Y-91232143D01*
X140467559Y-91232143D02*
X140491369Y-91208333D01*
X140491369Y-91208333D02*
X140503273Y-91184524D01*
X140681845Y-91565476D02*
X140681845Y-91422619D01*
X140681845Y-91494047D02*
X140431845Y-91494047D01*
X140431845Y-91494047D02*
X140467559Y-91470238D01*
X140467559Y-91470238D02*
X140491369Y-91446428D01*
X140491369Y-91446428D02*
X140503273Y-91422619D01*
%TO.C,L3*%
X141141845Y-85098333D02*
X141141845Y-84979285D01*
X141141845Y-84979285D02*
X140891845Y-84979285D01*
X140891845Y-85157857D02*
X140891845Y-85312619D01*
X140891845Y-85312619D02*
X140987083Y-85229285D01*
X140987083Y-85229285D02*
X140987083Y-85265000D01*
X140987083Y-85265000D02*
X140998988Y-85288809D01*
X140998988Y-85288809D02*
X141010892Y-85300714D01*
X141010892Y-85300714D02*
X141034702Y-85312619D01*
X141034702Y-85312619D02*
X141094226Y-85312619D01*
X141094226Y-85312619D02*
X141118035Y-85300714D01*
X141118035Y-85300714D02*
X141129940Y-85288809D01*
X141129940Y-85288809D02*
X141141845Y-85265000D01*
X141141845Y-85265000D02*
X141141845Y-85193571D01*
X141141845Y-85193571D02*
X141129940Y-85169762D01*
X141129940Y-85169762D02*
X141118035Y-85157857D01*
%TO.C,C4*%
X139491666Y-90808035D02*
X139503570Y-90819940D01*
X139503570Y-90819940D02*
X139539285Y-90831845D01*
X139539285Y-90831845D02*
X139563094Y-90831845D01*
X139563094Y-90831845D02*
X139598808Y-90819940D01*
X139598808Y-90819940D02*
X139622618Y-90796130D01*
X139622618Y-90796130D02*
X139634523Y-90772321D01*
X139634523Y-90772321D02*
X139646427Y-90724702D01*
X139646427Y-90724702D02*
X139646427Y-90688988D01*
X139646427Y-90688988D02*
X139634523Y-90641369D01*
X139634523Y-90641369D02*
X139622618Y-90617559D01*
X139622618Y-90617559D02*
X139598808Y-90593750D01*
X139598808Y-90593750D02*
X139563094Y-90581845D01*
X139563094Y-90581845D02*
X139539285Y-90581845D01*
X139539285Y-90581845D02*
X139503570Y-90593750D01*
X139503570Y-90593750D02*
X139491666Y-90605654D01*
X139277380Y-90665178D02*
X139277380Y-90831845D01*
X139336904Y-90569940D02*
X139396427Y-90748511D01*
X139396427Y-90748511D02*
X139241666Y-90748511D01*
%TO.C,R12*%
X141100714Y-89591845D02*
X141184047Y-89472797D01*
X141243571Y-89591845D02*
X141243571Y-89341845D01*
X141243571Y-89341845D02*
X141148333Y-89341845D01*
X141148333Y-89341845D02*
X141124523Y-89353750D01*
X141124523Y-89353750D02*
X141112618Y-89365654D01*
X141112618Y-89365654D02*
X141100714Y-89389464D01*
X141100714Y-89389464D02*
X141100714Y-89425178D01*
X141100714Y-89425178D02*
X141112618Y-89448988D01*
X141112618Y-89448988D02*
X141124523Y-89460892D01*
X141124523Y-89460892D02*
X141148333Y-89472797D01*
X141148333Y-89472797D02*
X141243571Y-89472797D01*
X140862618Y-89591845D02*
X141005475Y-89591845D01*
X140934047Y-89591845D02*
X140934047Y-89341845D01*
X140934047Y-89341845D02*
X140957856Y-89377559D01*
X140957856Y-89377559D02*
X140981666Y-89401369D01*
X140981666Y-89401369D02*
X141005475Y-89413273D01*
X140767380Y-89365654D02*
X140755476Y-89353750D01*
X140755476Y-89353750D02*
X140731666Y-89341845D01*
X140731666Y-89341845D02*
X140672142Y-89341845D01*
X140672142Y-89341845D02*
X140648333Y-89353750D01*
X140648333Y-89353750D02*
X140636428Y-89365654D01*
X140636428Y-89365654D02*
X140624523Y-89389464D01*
X140624523Y-89389464D02*
X140624523Y-89413273D01*
X140624523Y-89413273D02*
X140636428Y-89448988D01*
X140636428Y-89448988D02*
X140779285Y-89591845D01*
X140779285Y-89591845D02*
X140624523Y-89591845D01*
%TO.C,C21*%
X140090714Y-86568035D02*
X140102618Y-86579940D01*
X140102618Y-86579940D02*
X140138333Y-86591845D01*
X140138333Y-86591845D02*
X140162142Y-86591845D01*
X140162142Y-86591845D02*
X140197856Y-86579940D01*
X140197856Y-86579940D02*
X140221666Y-86556130D01*
X140221666Y-86556130D02*
X140233571Y-86532321D01*
X140233571Y-86532321D02*
X140245475Y-86484702D01*
X140245475Y-86484702D02*
X140245475Y-86448988D01*
X140245475Y-86448988D02*
X140233571Y-86401369D01*
X140233571Y-86401369D02*
X140221666Y-86377559D01*
X140221666Y-86377559D02*
X140197856Y-86353750D01*
X140197856Y-86353750D02*
X140162142Y-86341845D01*
X140162142Y-86341845D02*
X140138333Y-86341845D01*
X140138333Y-86341845D02*
X140102618Y-86353750D01*
X140102618Y-86353750D02*
X140090714Y-86365654D01*
X139995475Y-86365654D02*
X139983571Y-86353750D01*
X139983571Y-86353750D02*
X139959761Y-86341845D01*
X139959761Y-86341845D02*
X139900237Y-86341845D01*
X139900237Y-86341845D02*
X139876428Y-86353750D01*
X139876428Y-86353750D02*
X139864523Y-86365654D01*
X139864523Y-86365654D02*
X139852618Y-86389464D01*
X139852618Y-86389464D02*
X139852618Y-86413273D01*
X139852618Y-86413273D02*
X139864523Y-86448988D01*
X139864523Y-86448988D02*
X140007380Y-86591845D01*
X140007380Y-86591845D02*
X139852618Y-86591845D01*
X139614523Y-86591845D02*
X139757380Y-86591845D01*
X139685952Y-86591845D02*
X139685952Y-86341845D01*
X139685952Y-86341845D02*
X139709761Y-86377559D01*
X139709761Y-86377559D02*
X139733571Y-86401369D01*
X139733571Y-86401369D02*
X139757380Y-86413273D01*
%TO.C,U5*%
X140015476Y-88041845D02*
X140015476Y-88244226D01*
X140015476Y-88244226D02*
X140003571Y-88268035D01*
X140003571Y-88268035D02*
X139991666Y-88279940D01*
X139991666Y-88279940D02*
X139967857Y-88291845D01*
X139967857Y-88291845D02*
X139920238Y-88291845D01*
X139920238Y-88291845D02*
X139896428Y-88279940D01*
X139896428Y-88279940D02*
X139884523Y-88268035D01*
X139884523Y-88268035D02*
X139872619Y-88244226D01*
X139872619Y-88244226D02*
X139872619Y-88041845D01*
X139634523Y-88041845D02*
X139753571Y-88041845D01*
X139753571Y-88041845D02*
X139765475Y-88160892D01*
X139765475Y-88160892D02*
X139753571Y-88148988D01*
X139753571Y-88148988D02*
X139729761Y-88137083D01*
X139729761Y-88137083D02*
X139670237Y-88137083D01*
X139670237Y-88137083D02*
X139646428Y-88148988D01*
X139646428Y-88148988D02*
X139634523Y-88160892D01*
X139634523Y-88160892D02*
X139622618Y-88184702D01*
X139622618Y-88184702D02*
X139622618Y-88244226D01*
X139622618Y-88244226D02*
X139634523Y-88268035D01*
X139634523Y-88268035D02*
X139646428Y-88279940D01*
X139646428Y-88279940D02*
X139670237Y-88291845D01*
X139670237Y-88291845D02*
X139729761Y-88291845D01*
X139729761Y-88291845D02*
X139753571Y-88279940D01*
X139753571Y-88279940D02*
X139765475Y-88268035D01*
%TO.C,C27*%
X139210714Y-89418035D02*
X139222618Y-89429940D01*
X139222618Y-89429940D02*
X139258333Y-89441845D01*
X139258333Y-89441845D02*
X139282142Y-89441845D01*
X139282142Y-89441845D02*
X139317856Y-89429940D01*
X139317856Y-89429940D02*
X139341666Y-89406130D01*
X139341666Y-89406130D02*
X139353571Y-89382321D01*
X139353571Y-89382321D02*
X139365475Y-89334702D01*
X139365475Y-89334702D02*
X139365475Y-89298988D01*
X139365475Y-89298988D02*
X139353571Y-89251369D01*
X139353571Y-89251369D02*
X139341666Y-89227559D01*
X139341666Y-89227559D02*
X139317856Y-89203750D01*
X139317856Y-89203750D02*
X139282142Y-89191845D01*
X139282142Y-89191845D02*
X139258333Y-89191845D01*
X139258333Y-89191845D02*
X139222618Y-89203750D01*
X139222618Y-89203750D02*
X139210714Y-89215654D01*
X139115475Y-89215654D02*
X139103571Y-89203750D01*
X139103571Y-89203750D02*
X139079761Y-89191845D01*
X139079761Y-89191845D02*
X139020237Y-89191845D01*
X139020237Y-89191845D02*
X138996428Y-89203750D01*
X138996428Y-89203750D02*
X138984523Y-89215654D01*
X138984523Y-89215654D02*
X138972618Y-89239464D01*
X138972618Y-89239464D02*
X138972618Y-89263273D01*
X138972618Y-89263273D02*
X138984523Y-89298988D01*
X138984523Y-89298988D02*
X139127380Y-89441845D01*
X139127380Y-89441845D02*
X138972618Y-89441845D01*
X138889285Y-89191845D02*
X138722619Y-89191845D01*
X138722619Y-89191845D02*
X138829761Y-89441845D01*
%TO.C,C24*%
X141110714Y-90258035D02*
X141122618Y-90269940D01*
X141122618Y-90269940D02*
X141158333Y-90281845D01*
X141158333Y-90281845D02*
X141182142Y-90281845D01*
X141182142Y-90281845D02*
X141217856Y-90269940D01*
X141217856Y-90269940D02*
X141241666Y-90246130D01*
X141241666Y-90246130D02*
X141253571Y-90222321D01*
X141253571Y-90222321D02*
X141265475Y-90174702D01*
X141265475Y-90174702D02*
X141265475Y-90138988D01*
X141265475Y-90138988D02*
X141253571Y-90091369D01*
X141253571Y-90091369D02*
X141241666Y-90067559D01*
X141241666Y-90067559D02*
X141217856Y-90043750D01*
X141217856Y-90043750D02*
X141182142Y-90031845D01*
X141182142Y-90031845D02*
X141158333Y-90031845D01*
X141158333Y-90031845D02*
X141122618Y-90043750D01*
X141122618Y-90043750D02*
X141110714Y-90055654D01*
X141015475Y-90055654D02*
X141003571Y-90043750D01*
X141003571Y-90043750D02*
X140979761Y-90031845D01*
X140979761Y-90031845D02*
X140920237Y-90031845D01*
X140920237Y-90031845D02*
X140896428Y-90043750D01*
X140896428Y-90043750D02*
X140884523Y-90055654D01*
X140884523Y-90055654D02*
X140872618Y-90079464D01*
X140872618Y-90079464D02*
X140872618Y-90103273D01*
X140872618Y-90103273D02*
X140884523Y-90138988D01*
X140884523Y-90138988D02*
X141027380Y-90281845D01*
X141027380Y-90281845D02*
X140872618Y-90281845D01*
X140658333Y-90115178D02*
X140658333Y-90281845D01*
X140717857Y-90019940D02*
X140777380Y-90198511D01*
X140777380Y-90198511D02*
X140622619Y-90198511D01*
%TO.C,R2*%
X143011666Y-84191845D02*
X143094999Y-84072797D01*
X143154523Y-84191845D02*
X143154523Y-83941845D01*
X143154523Y-83941845D02*
X143059285Y-83941845D01*
X143059285Y-83941845D02*
X143035475Y-83953750D01*
X143035475Y-83953750D02*
X143023570Y-83965654D01*
X143023570Y-83965654D02*
X143011666Y-83989464D01*
X143011666Y-83989464D02*
X143011666Y-84025178D01*
X143011666Y-84025178D02*
X143023570Y-84048988D01*
X143023570Y-84048988D02*
X143035475Y-84060892D01*
X143035475Y-84060892D02*
X143059285Y-84072797D01*
X143059285Y-84072797D02*
X143154523Y-84072797D01*
X142916427Y-83965654D02*
X142904523Y-83953750D01*
X142904523Y-83953750D02*
X142880713Y-83941845D01*
X142880713Y-83941845D02*
X142821189Y-83941845D01*
X142821189Y-83941845D02*
X142797380Y-83953750D01*
X142797380Y-83953750D02*
X142785475Y-83965654D01*
X142785475Y-83965654D02*
X142773570Y-83989464D01*
X142773570Y-83989464D02*
X142773570Y-84013273D01*
X142773570Y-84013273D02*
X142785475Y-84048988D01*
X142785475Y-84048988D02*
X142928332Y-84191845D01*
X142928332Y-84191845D02*
X142773570Y-84191845D01*
%TO.C,C5*%
X138091666Y-90768035D02*
X138103570Y-90779940D01*
X138103570Y-90779940D02*
X138139285Y-90791845D01*
X138139285Y-90791845D02*
X138163094Y-90791845D01*
X138163094Y-90791845D02*
X138198808Y-90779940D01*
X138198808Y-90779940D02*
X138222618Y-90756130D01*
X138222618Y-90756130D02*
X138234523Y-90732321D01*
X138234523Y-90732321D02*
X138246427Y-90684702D01*
X138246427Y-90684702D02*
X138246427Y-90648988D01*
X138246427Y-90648988D02*
X138234523Y-90601369D01*
X138234523Y-90601369D02*
X138222618Y-90577559D01*
X138222618Y-90577559D02*
X138198808Y-90553750D01*
X138198808Y-90553750D02*
X138163094Y-90541845D01*
X138163094Y-90541845D02*
X138139285Y-90541845D01*
X138139285Y-90541845D02*
X138103570Y-90553750D01*
X138103570Y-90553750D02*
X138091666Y-90565654D01*
X137865475Y-90541845D02*
X137984523Y-90541845D01*
X137984523Y-90541845D02*
X137996427Y-90660892D01*
X137996427Y-90660892D02*
X137984523Y-90648988D01*
X137984523Y-90648988D02*
X137960713Y-90637083D01*
X137960713Y-90637083D02*
X137901189Y-90637083D01*
X137901189Y-90637083D02*
X137877380Y-90648988D01*
X137877380Y-90648988D02*
X137865475Y-90660892D01*
X137865475Y-90660892D02*
X137853570Y-90684702D01*
X137853570Y-90684702D02*
X137853570Y-90744226D01*
X137853570Y-90744226D02*
X137865475Y-90768035D01*
X137865475Y-90768035D02*
X137877380Y-90779940D01*
X137877380Y-90779940D02*
X137901189Y-90791845D01*
X137901189Y-90791845D02*
X137960713Y-90791845D01*
X137960713Y-90791845D02*
X137984523Y-90779940D01*
X137984523Y-90779940D02*
X137996427Y-90768035D01*
%TO.C,C26*%
X138290714Y-89168035D02*
X138302618Y-89179940D01*
X138302618Y-89179940D02*
X138338333Y-89191845D01*
X138338333Y-89191845D02*
X138362142Y-89191845D01*
X138362142Y-89191845D02*
X138397856Y-89179940D01*
X138397856Y-89179940D02*
X138421666Y-89156130D01*
X138421666Y-89156130D02*
X138433571Y-89132321D01*
X138433571Y-89132321D02*
X138445475Y-89084702D01*
X138445475Y-89084702D02*
X138445475Y-89048988D01*
X138445475Y-89048988D02*
X138433571Y-89001369D01*
X138433571Y-89001369D02*
X138421666Y-88977559D01*
X138421666Y-88977559D02*
X138397856Y-88953750D01*
X138397856Y-88953750D02*
X138362142Y-88941845D01*
X138362142Y-88941845D02*
X138338333Y-88941845D01*
X138338333Y-88941845D02*
X138302618Y-88953750D01*
X138302618Y-88953750D02*
X138290714Y-88965654D01*
X138195475Y-88965654D02*
X138183571Y-88953750D01*
X138183571Y-88953750D02*
X138159761Y-88941845D01*
X138159761Y-88941845D02*
X138100237Y-88941845D01*
X138100237Y-88941845D02*
X138076428Y-88953750D01*
X138076428Y-88953750D02*
X138064523Y-88965654D01*
X138064523Y-88965654D02*
X138052618Y-88989464D01*
X138052618Y-88989464D02*
X138052618Y-89013273D01*
X138052618Y-89013273D02*
X138064523Y-89048988D01*
X138064523Y-89048988D02*
X138207380Y-89191845D01*
X138207380Y-89191845D02*
X138052618Y-89191845D01*
X137838333Y-88941845D02*
X137885952Y-88941845D01*
X137885952Y-88941845D02*
X137909761Y-88953750D01*
X137909761Y-88953750D02*
X137921666Y-88965654D01*
X137921666Y-88965654D02*
X137945476Y-89001369D01*
X137945476Y-89001369D02*
X137957380Y-89048988D01*
X137957380Y-89048988D02*
X137957380Y-89144226D01*
X137957380Y-89144226D02*
X137945476Y-89168035D01*
X137945476Y-89168035D02*
X137933571Y-89179940D01*
X137933571Y-89179940D02*
X137909761Y-89191845D01*
X137909761Y-89191845D02*
X137862142Y-89191845D01*
X137862142Y-89191845D02*
X137838333Y-89179940D01*
X137838333Y-89179940D02*
X137826428Y-89168035D01*
X137826428Y-89168035D02*
X137814523Y-89144226D01*
X137814523Y-89144226D02*
X137814523Y-89084702D01*
X137814523Y-89084702D02*
X137826428Y-89060892D01*
X137826428Y-89060892D02*
X137838333Y-89048988D01*
X137838333Y-89048988D02*
X137862142Y-89037083D01*
X137862142Y-89037083D02*
X137909761Y-89037083D01*
X137909761Y-89037083D02*
X137933571Y-89048988D01*
X137933571Y-89048988D02*
X137945476Y-89060892D01*
X137945476Y-89060892D02*
X137957380Y-89084702D01*
%TO.C,C10*%
X142838035Y-84799285D02*
X142849940Y-84787381D01*
X142849940Y-84787381D02*
X142861845Y-84751666D01*
X142861845Y-84751666D02*
X142861845Y-84727857D01*
X142861845Y-84727857D02*
X142849940Y-84692143D01*
X142849940Y-84692143D02*
X142826130Y-84668333D01*
X142826130Y-84668333D02*
X142802321Y-84656428D01*
X142802321Y-84656428D02*
X142754702Y-84644524D01*
X142754702Y-84644524D02*
X142718988Y-84644524D01*
X142718988Y-84644524D02*
X142671369Y-84656428D01*
X142671369Y-84656428D02*
X142647559Y-84668333D01*
X142647559Y-84668333D02*
X142623750Y-84692143D01*
X142623750Y-84692143D02*
X142611845Y-84727857D01*
X142611845Y-84727857D02*
X142611845Y-84751666D01*
X142611845Y-84751666D02*
X142623750Y-84787381D01*
X142623750Y-84787381D02*
X142635654Y-84799285D01*
X142861845Y-85037381D02*
X142861845Y-84894524D01*
X142861845Y-84965952D02*
X142611845Y-84965952D01*
X142611845Y-84965952D02*
X142647559Y-84942143D01*
X142647559Y-84942143D02*
X142671369Y-84918333D01*
X142671369Y-84918333D02*
X142683273Y-84894524D01*
X142611845Y-85192142D02*
X142611845Y-85215952D01*
X142611845Y-85215952D02*
X142623750Y-85239761D01*
X142623750Y-85239761D02*
X142635654Y-85251666D01*
X142635654Y-85251666D02*
X142659464Y-85263571D01*
X142659464Y-85263571D02*
X142707083Y-85275476D01*
X142707083Y-85275476D02*
X142766607Y-85275476D01*
X142766607Y-85275476D02*
X142814226Y-85263571D01*
X142814226Y-85263571D02*
X142838035Y-85251666D01*
X142838035Y-85251666D02*
X142849940Y-85239761D01*
X142849940Y-85239761D02*
X142861845Y-85215952D01*
X142861845Y-85215952D02*
X142861845Y-85192142D01*
X142861845Y-85192142D02*
X142849940Y-85168333D01*
X142849940Y-85168333D02*
X142838035Y-85156428D01*
X142838035Y-85156428D02*
X142814226Y-85144523D01*
X142814226Y-85144523D02*
X142766607Y-85132619D01*
X142766607Y-85132619D02*
X142707083Y-85132619D01*
X142707083Y-85132619D02*
X142659464Y-85144523D01*
X142659464Y-85144523D02*
X142635654Y-85156428D01*
X142635654Y-85156428D02*
X142623750Y-85168333D01*
X142623750Y-85168333D02*
X142611845Y-85192142D01*
%TO.C,U3*%
X144218476Y-89241845D02*
X144218476Y-89444226D01*
X144218476Y-89444226D02*
X144206571Y-89468035D01*
X144206571Y-89468035D02*
X144194666Y-89479940D01*
X144194666Y-89479940D02*
X144170857Y-89491845D01*
X144170857Y-89491845D02*
X144123238Y-89491845D01*
X144123238Y-89491845D02*
X144099428Y-89479940D01*
X144099428Y-89479940D02*
X144087523Y-89468035D01*
X144087523Y-89468035D02*
X144075619Y-89444226D01*
X144075619Y-89444226D02*
X144075619Y-89241845D01*
X143980380Y-89241845D02*
X143825618Y-89241845D01*
X143825618Y-89241845D02*
X143908952Y-89337083D01*
X143908952Y-89337083D02*
X143873237Y-89337083D01*
X143873237Y-89337083D02*
X143849428Y-89348988D01*
X143849428Y-89348988D02*
X143837523Y-89360892D01*
X143837523Y-89360892D02*
X143825618Y-89384702D01*
X143825618Y-89384702D02*
X143825618Y-89444226D01*
X143825618Y-89444226D02*
X143837523Y-89468035D01*
X143837523Y-89468035D02*
X143849428Y-89479940D01*
X143849428Y-89479940D02*
X143873237Y-89491845D01*
X143873237Y-89491845D02*
X143944666Y-89491845D01*
X143944666Y-89491845D02*
X143968475Y-89479940D01*
X143968475Y-89479940D02*
X143980380Y-89468035D01*
%TO.C,L1*%
X139061666Y-84291845D02*
X139180714Y-84291845D01*
X139180714Y-84291845D02*
X139180714Y-84041845D01*
X138847380Y-84291845D02*
X138990237Y-84291845D01*
X138918809Y-84291845D02*
X138918809Y-84041845D01*
X138918809Y-84041845D02*
X138942618Y-84077559D01*
X138942618Y-84077559D02*
X138966428Y-84101369D01*
X138966428Y-84101369D02*
X138990237Y-84113273D01*
%TO.C,C23*%
X138300714Y-87738035D02*
X138312618Y-87749940D01*
X138312618Y-87749940D02*
X138348333Y-87761845D01*
X138348333Y-87761845D02*
X138372142Y-87761845D01*
X138372142Y-87761845D02*
X138407856Y-87749940D01*
X138407856Y-87749940D02*
X138431666Y-87726130D01*
X138431666Y-87726130D02*
X138443571Y-87702321D01*
X138443571Y-87702321D02*
X138455475Y-87654702D01*
X138455475Y-87654702D02*
X138455475Y-87618988D01*
X138455475Y-87618988D02*
X138443571Y-87571369D01*
X138443571Y-87571369D02*
X138431666Y-87547559D01*
X138431666Y-87547559D02*
X138407856Y-87523750D01*
X138407856Y-87523750D02*
X138372142Y-87511845D01*
X138372142Y-87511845D02*
X138348333Y-87511845D01*
X138348333Y-87511845D02*
X138312618Y-87523750D01*
X138312618Y-87523750D02*
X138300714Y-87535654D01*
X138205475Y-87535654D02*
X138193571Y-87523750D01*
X138193571Y-87523750D02*
X138169761Y-87511845D01*
X138169761Y-87511845D02*
X138110237Y-87511845D01*
X138110237Y-87511845D02*
X138086428Y-87523750D01*
X138086428Y-87523750D02*
X138074523Y-87535654D01*
X138074523Y-87535654D02*
X138062618Y-87559464D01*
X138062618Y-87559464D02*
X138062618Y-87583273D01*
X138062618Y-87583273D02*
X138074523Y-87618988D01*
X138074523Y-87618988D02*
X138217380Y-87761845D01*
X138217380Y-87761845D02*
X138062618Y-87761845D01*
X137979285Y-87511845D02*
X137824523Y-87511845D01*
X137824523Y-87511845D02*
X137907857Y-87607083D01*
X137907857Y-87607083D02*
X137872142Y-87607083D01*
X137872142Y-87607083D02*
X137848333Y-87618988D01*
X137848333Y-87618988D02*
X137836428Y-87630892D01*
X137836428Y-87630892D02*
X137824523Y-87654702D01*
X137824523Y-87654702D02*
X137824523Y-87714226D01*
X137824523Y-87714226D02*
X137836428Y-87738035D01*
X137836428Y-87738035D02*
X137848333Y-87749940D01*
X137848333Y-87749940D02*
X137872142Y-87761845D01*
X137872142Y-87761845D02*
X137943571Y-87761845D01*
X137943571Y-87761845D02*
X137967380Y-87749940D01*
X137967380Y-87749940D02*
X137979285Y-87738035D01*
%TO.C,C20*%
X144388035Y-84799285D02*
X144399940Y-84787381D01*
X144399940Y-84787381D02*
X144411845Y-84751666D01*
X144411845Y-84751666D02*
X144411845Y-84727857D01*
X144411845Y-84727857D02*
X144399940Y-84692143D01*
X144399940Y-84692143D02*
X144376130Y-84668333D01*
X144376130Y-84668333D02*
X144352321Y-84656428D01*
X144352321Y-84656428D02*
X144304702Y-84644524D01*
X144304702Y-84644524D02*
X144268988Y-84644524D01*
X144268988Y-84644524D02*
X144221369Y-84656428D01*
X144221369Y-84656428D02*
X144197559Y-84668333D01*
X144197559Y-84668333D02*
X144173750Y-84692143D01*
X144173750Y-84692143D02*
X144161845Y-84727857D01*
X144161845Y-84727857D02*
X144161845Y-84751666D01*
X144161845Y-84751666D02*
X144173750Y-84787381D01*
X144173750Y-84787381D02*
X144185654Y-84799285D01*
X144185654Y-84894524D02*
X144173750Y-84906428D01*
X144173750Y-84906428D02*
X144161845Y-84930238D01*
X144161845Y-84930238D02*
X144161845Y-84989762D01*
X144161845Y-84989762D02*
X144173750Y-85013571D01*
X144173750Y-85013571D02*
X144185654Y-85025476D01*
X144185654Y-85025476D02*
X144209464Y-85037381D01*
X144209464Y-85037381D02*
X144233273Y-85037381D01*
X144233273Y-85037381D02*
X144268988Y-85025476D01*
X144268988Y-85025476D02*
X144411845Y-84882619D01*
X144411845Y-84882619D02*
X144411845Y-85037381D01*
X144161845Y-85192142D02*
X144161845Y-85215952D01*
X144161845Y-85215952D02*
X144173750Y-85239761D01*
X144173750Y-85239761D02*
X144185654Y-85251666D01*
X144185654Y-85251666D02*
X144209464Y-85263571D01*
X144209464Y-85263571D02*
X144257083Y-85275476D01*
X144257083Y-85275476D02*
X144316607Y-85275476D01*
X144316607Y-85275476D02*
X144364226Y-85263571D01*
X144364226Y-85263571D02*
X144388035Y-85251666D01*
X144388035Y-85251666D02*
X144399940Y-85239761D01*
X144399940Y-85239761D02*
X144411845Y-85215952D01*
X144411845Y-85215952D02*
X144411845Y-85192142D01*
X144411845Y-85192142D02*
X144399940Y-85168333D01*
X144399940Y-85168333D02*
X144388035Y-85156428D01*
X144388035Y-85156428D02*
X144364226Y-85144523D01*
X144364226Y-85144523D02*
X144316607Y-85132619D01*
X144316607Y-85132619D02*
X144257083Y-85132619D01*
X144257083Y-85132619D02*
X144209464Y-85144523D01*
X144209464Y-85144523D02*
X144185654Y-85156428D01*
X144185654Y-85156428D02*
X144173750Y-85168333D01*
X144173750Y-85168333D02*
X144161845Y-85192142D01*
D11*
%TO.C,L2*%
X143387500Y-83350000D02*
X143387500Y-82450000D01*
X143387500Y-82450000D02*
X141387500Y-82450000D01*
X141387500Y-83350000D02*
X143387500Y-83350000D01*
X141387500Y-82450000D02*
X141387500Y-83350000D01*
%TO.C,J3*%
X147425000Y-95990000D02*
X137425000Y-95990000D01*
X137425000Y-95990000D02*
X137425000Y-92890000D01*
X137425000Y-92890000D02*
X147425000Y-92890000D01*
X147425000Y-92890000D02*
X147425000Y-95990000D01*
%TO.C,U6*%
X145803000Y-86224000D02*
X145803000Y-85474000D01*
X145803000Y-85474000D02*
X145553000Y-85224000D01*
X145553000Y-85224000D02*
X144803000Y-85224000D01*
X144803000Y-86224000D02*
X145803000Y-86224000D01*
X144803000Y-85224000D02*
X144803000Y-86224000D01*
%TO.C,C25*%
X146490000Y-85500000D02*
X146190000Y-85500000D01*
X146190000Y-85500000D02*
X146190000Y-86100000D01*
X146490000Y-86100000D02*
X146490000Y-85500000D01*
X146190000Y-86100000D02*
X146490000Y-86100000D01*
%TO.C,U2*%
X139065000Y-91520000D02*
X138425000Y-91520000D01*
X138425000Y-91150000D01*
X138695000Y-90880000D01*
X139065000Y-90880000D01*
X139065000Y-91520000D01*
%TO.C,R5*%
X138075000Y-86750000D02*
X138075000Y-87050000D01*
X138075000Y-87050000D02*
X138675000Y-87050000D01*
X138675000Y-86750000D02*
X138075000Y-86750000D01*
X138675000Y-87050000D02*
X138675000Y-86750000D01*
%TO.C,C28*%
X140045000Y-92450000D02*
X140045000Y-92150000D01*
X140045000Y-92150000D02*
X139445000Y-92150000D01*
X139445000Y-92450000D02*
X140045000Y-92450000D01*
X139445000Y-92150000D02*
X139445000Y-92450000D01*
%TO.C,C12*%
X141675000Y-86000000D02*
X142175000Y-86000000D01*
X142175000Y-86000000D02*
X142175000Y-85000000D01*
X141675000Y-85000000D02*
X141675000Y-86000000D01*
X142175000Y-85000000D02*
X141675000Y-85000000D01*
%TO.C,C11*%
X143325000Y-86020000D02*
X143625000Y-86020000D01*
X143625000Y-86020000D02*
X143625000Y-85420000D01*
X143325000Y-85420000D02*
X143325000Y-86020000D01*
X143625000Y-85420000D02*
X143325000Y-85420000D01*
%TO.C,R11*%
X140015000Y-91550000D02*
X140315000Y-91550000D01*
X140315000Y-91550000D02*
X140315000Y-90950000D01*
X140015000Y-90950000D02*
X140015000Y-91550000D01*
X140315000Y-90950000D02*
X140015000Y-90950000D01*
%TO.C,L3*%
X141205000Y-85480000D02*
X140905000Y-85480000D01*
X140905000Y-85480000D02*
X140905000Y-86080000D01*
X141205000Y-86080000D02*
X141205000Y-85480000D01*
X140905000Y-86080000D02*
X141205000Y-86080000D01*
%TO.C,C4*%
X139295000Y-91550000D02*
X139595000Y-91550000D01*
X139595000Y-91550000D02*
X139595000Y-90950000D01*
X139295000Y-90950000D02*
X139295000Y-91550000D01*
X139595000Y-90950000D02*
X139295000Y-90950000D01*
%TO.C,R12*%
X140525000Y-89650000D02*
X140525000Y-89350000D01*
X140525000Y-89350000D02*
X139925000Y-89350000D01*
X139925000Y-89650000D02*
X140525000Y-89650000D01*
X139925000Y-89350000D02*
X139925000Y-89650000D01*
%TO.C,C21*%
X139635000Y-86710000D02*
X139635000Y-87010000D01*
X139635000Y-87010000D02*
X140235000Y-87010000D01*
X140235000Y-86710000D02*
X139635000Y-86710000D01*
X140235000Y-87010000D02*
X140235000Y-86710000D01*
%TO.C,U5*%
X138825000Y-87650000D02*
X139075000Y-87400000D01*
X138825000Y-89000000D02*
X138825000Y-87650000D01*
X139075000Y-87400000D02*
X140825000Y-87400000D01*
X140825000Y-87400000D02*
X140825000Y-89000000D01*
X140825000Y-89000000D02*
X138825000Y-89000000D01*
%TO.C,C27*%
X138905000Y-90140000D02*
X139205000Y-90140000D01*
X139205000Y-90140000D02*
X139205000Y-89540000D01*
X138905000Y-89540000D02*
X138905000Y-90140000D01*
X139205000Y-89540000D02*
X138905000Y-89540000D01*
%TO.C,C24*%
X140525000Y-90350000D02*
X140525000Y-90050000D01*
X140525000Y-90050000D02*
X139925000Y-90050000D01*
X139925000Y-90350000D02*
X140525000Y-90350000D01*
X139925000Y-90050000D02*
X139925000Y-90350000D01*
%TO.C,R2*%
X142025000Y-83950000D02*
X142025000Y-84250000D01*
X142025000Y-84250000D02*
X142625000Y-84250000D01*
X142625000Y-83950000D02*
X142025000Y-83950000D01*
X142625000Y-84250000D02*
X142625000Y-83950000D01*
%TO.C,C5*%
X138195000Y-90900000D02*
X137895000Y-90900000D01*
X137895000Y-90900000D02*
X137895000Y-91500000D01*
X138195000Y-91500000D02*
X138195000Y-90900000D01*
X137895000Y-91500000D02*
X138195000Y-91500000D01*
%TO.C,C26*%
X138275000Y-89320000D02*
X137975000Y-89320000D01*
X137975000Y-89320000D02*
X137975000Y-89920000D01*
X138275000Y-89920000D02*
X138275000Y-89320000D01*
X137975000Y-89920000D02*
X138275000Y-89920000D01*
%TO.C,C10*%
X142625000Y-86000000D02*
X142925000Y-86000000D01*
X142925000Y-86000000D02*
X142925000Y-85400000D01*
X142625000Y-85400000D02*
X142625000Y-86000000D01*
X142925000Y-85400000D02*
X142625000Y-85400000D01*
%TO.C,U3*%
X141475000Y-86850000D02*
X141475000Y-90900000D01*
X141475000Y-86850000D02*
X146575000Y-86850000D01*
X141475000Y-90900000D02*
X142525000Y-91950000D01*
X142525000Y-91950000D02*
X146575000Y-91950000D01*
X146575000Y-86850000D02*
X146575000Y-91950000D01*
%TO.C,L1*%
X137775000Y-85800000D02*
X140275000Y-85800000D01*
X140275000Y-85800000D02*
X140275000Y-82600000D01*
X137775000Y-82600000D02*
X137775000Y-85800000D01*
X140275000Y-82600000D02*
X137775000Y-82600000D01*
%TO.C,C23*%
X137995000Y-88470000D02*
X138295000Y-88470000D01*
X138295000Y-88470000D02*
X138295000Y-87870000D01*
X137995000Y-87870000D02*
X137995000Y-88470000D01*
X138295000Y-87870000D02*
X137995000Y-87870000D01*
%TO.C,C20*%
X144175000Y-86000000D02*
X144475000Y-86000000D01*
X144475000Y-86000000D02*
X144475000Y-85400000D01*
X144175000Y-85400000D02*
X144175000Y-86000000D01*
X144475000Y-85400000D02*
X144175000Y-85400000D01*
%TD*%
M02*
