%TF.GenerationSoftware,KiCad,Pcbnew,(7.0.0)*%
%TF.CreationDate,2023-09-15T12:30:04-04:00*%
%TF.ProjectId,headstage-neuropix2e,68656164-7374-4616-9765-2d6e6575726f,B (Beta)*%
%TF.SameCoordinates,Original*%
%TF.FileFunction,Copper,L2,Inr*%
%TF.FilePolarity,Positive*%
%FSLAX46Y46*%
G04 Gerber Fmt 4.6, Leading zero omitted, Abs format (unit mm)*
G04 Created by KiCad (PCBNEW (7.0.0)) date 2023-09-15 12:30:04*
%MOMM*%
%LPD*%
G01*
G04 APERTURE LIST*
G04 Aperture macros list*
%AMRoundRect*
0 Rectangle with rounded corners*
0 $1 Rounding radius*
0 $2 $3 $4 $5 $6 $7 $8 $9 X,Y pos of 4 corners*
0 Add a 4 corners polygon primitive as box body*
4,1,4,$2,$3,$4,$5,$6,$7,$8,$9,$2,$3,0*
0 Add four circle primitives for the rounded corners*
1,1,$1+$1,$2,$3*
1,1,$1+$1,$4,$5*
1,1,$1+$1,$6,$7*
1,1,$1+$1,$8,$9*
0 Add four rect primitives between the rounded corners*
20,1,$1+$1,$2,$3,$4,$5,0*
20,1,$1+$1,$4,$5,$6,$7,0*
20,1,$1+$1,$6,$7,$8,$9,0*
20,1,$1+$1,$8,$9,$2,$3,0*%
G04 Aperture macros list end*
%TA.AperFunction,ComponentPad*%
%ADD10O,1.400000X2.600000*%
%TD*%
%TA.AperFunction,ComponentPad*%
%ADD11RoundRect,0.250000X-0.600000X0.600000X-0.600000X-0.600000X0.600000X-0.600000X0.600000X0.600000X0*%
%TD*%
%TA.AperFunction,ComponentPad*%
%ADD12C,1.700000*%
%TD*%
%TA.AperFunction,ViaPad*%
%ADD13C,0.250000*%
%TD*%
%TA.AperFunction,ViaPad*%
%ADD14C,0.300000*%
%TD*%
G04 APERTURE END LIST*
D10*
%TO.N,/Neuropixels 2.0/NP_{TP0}*%
%TO.C,TP2*%
X146634999Y-83419999D03*
%TD*%
%TO.N,GND*%
%TO.C,TP1*%
X144954999Y-83419999D03*
%TD*%
D11*
%TO.N,+4V*%
%TO.C,J4*%
X123080000Y-76447500D03*
D12*
X123080000Y-78987500D03*
%TO.N,/Neuropixels 2.0/SCL*%
X120540000Y-76447500D03*
X120540000Y-78987500D03*
%TO.N,/Neuropixels 2.0/SDA*%
X118000000Y-76447500D03*
X118000000Y-78987500D03*
%TO.N,GND*%
X115460000Y-76447500D03*
X115460000Y-78987500D03*
X112920000Y-76447500D03*
X112920000Y-78987500D03*
%TD*%
D13*
%TO.N,GND*%
X146329500Y-85430109D03*
X137890500Y-88930000D03*
X142125000Y-95650000D03*
X142725000Y-94725500D03*
D14*
X156300000Y-121900000D03*
D13*
X142040000Y-94725500D03*
X139816562Y-87440904D03*
X139800000Y-88025498D03*
X145475000Y-87550000D03*
X143970000Y-94720000D03*
X139445000Y-90900000D03*
D14*
X139900000Y-106500000D03*
D13*
X143960000Y-88180000D03*
X142525000Y-82475000D03*
X137915500Y-87943311D03*
X139470000Y-89250000D03*
D14*
X135640000Y-73600000D03*
D13*
X144458000Y-90722000D03*
X143050000Y-84559500D03*
X137790000Y-95590000D03*
X147060000Y-95590000D03*
X143636000Y-83830000D03*
X141530000Y-93780000D03*
X140033000Y-83672000D03*
X145953000Y-93861000D03*
X144880000Y-94720000D03*
X138859000Y-83670000D03*
X145765000Y-84891000D03*
X143152225Y-85674051D03*
X144755000Y-88270000D03*
X147064500Y-85492000D03*
X138360000Y-91900000D03*
X139025000Y-90250000D03*
X141610000Y-88040000D03*
X144465000Y-89370000D03*
X144525000Y-95650000D03*
X143025000Y-90500000D03*
X143925000Y-95650000D03*
X139620000Y-94750000D03*
X139150000Y-86900000D03*
X140925000Y-95650000D03*
X140111601Y-92511601D03*
X142019000Y-82599300D03*
X143845000Y-93830000D03*
X140310000Y-93780000D03*
X137880000Y-89500000D03*
X137810700Y-83680000D03*
X139925000Y-90200000D03*
X144755000Y-88610000D03*
X140325000Y-95650000D03*
X138525000Y-94750000D03*
D14*
X126680000Y-71747500D03*
X156700000Y-69100000D03*
X155800000Y-87500000D03*
D13*
X141313000Y-84798000D03*
X143725000Y-87600000D03*
X144565000Y-93780000D03*
X144815000Y-90110000D03*
X142775000Y-85400000D03*
X141395000Y-84090000D03*
X140450500Y-87830000D03*
X147070000Y-94510000D03*
X139395000Y-83656000D03*
X143285000Y-88250000D03*
X144385000Y-87530000D03*
X147067500Y-86488000D03*
D14*
X107600000Y-104500000D03*
D13*
X140869000Y-90928000D03*
D14*
X103100000Y-122100000D03*
D13*
X142264000Y-93877000D03*
X139463000Y-89867000D03*
X143000000Y-91244500D03*
X140880000Y-94720000D03*
X143385000Y-88770000D03*
X144909000Y-84978000D03*
X139020000Y-94380000D03*
D14*
X105450000Y-70470000D03*
D13*
X142725000Y-95650000D03*
X137955000Y-94170000D03*
X142355000Y-91170000D03*
D14*
X145200000Y-72300000D03*
D13*
X137975000Y-87440000D03*
D14*
X154200000Y-101500000D03*
D13*
X141625000Y-87249500D03*
D14*
X103900000Y-84800000D03*
X130200000Y-99700000D03*
D13*
X142238584Y-85504971D03*
X141925000Y-85020000D03*
X137764181Y-91279454D03*
X137947000Y-93305000D03*
X139859264Y-86450000D03*
%TO.N,+1V8*%
X139435000Y-84730000D03*
X139025000Y-89250000D03*
X146390891Y-86253101D03*
X138636680Y-88080474D03*
X144248000Y-91774000D03*
X143157963Y-86612963D03*
X140775000Y-86900000D03*
X146425000Y-86940000D03*
X145957485Y-89396611D03*
X139017000Y-90668000D03*
%TO.N,/Neuropixels 2.0/PCLK*%
X141580000Y-90270000D03*
X142425000Y-93150000D03*
%TO.N,/Neuropixels 2.0/SDA_{A}*%
X138980000Y-92530000D03*
X141070000Y-89460000D03*
%TO.N,+4V*%
X138640419Y-85475200D03*
X138124999Y-85890001D03*
D14*
X120200000Y-94945000D03*
D13*
X138355000Y-84600000D03*
D14*
%TO.N,/Neuropixels 2.0/SCL*%
X118000000Y-97340000D03*
D13*
X140165000Y-90820000D03*
X145087061Y-86139374D03*
X138735000Y-84740000D03*
X139642609Y-93772609D03*
X140890500Y-89857389D03*
X141846000Y-89545500D03*
%TO.N,/Neuropixels 2.0/D7*%
X144039000Y-91196000D03*
X140025000Y-93150000D03*
%TO.N,Net-(L1-Pad2)*%
X137921788Y-84655700D03*
%TO.N,/Neuropixels 2.0/D6*%
X144657623Y-91183377D03*
X140625000Y-93150000D03*
%TO.N,/Neuropixels 2.0/D5*%
X141225000Y-93150000D03*
X145581000Y-91166314D03*
%TO.N,/Neuropixels 2.0/D4*%
X141825000Y-93150000D03*
X145855500Y-90672278D03*
%TO.N,/Neuropixels 2.0/D3*%
X143025000Y-93150000D03*
X145945500Y-89880356D03*
%TO.N,/Neuropixels 2.0/D2*%
X146316587Y-89669500D03*
X143625000Y-93150000D03*
%TO.N,/Neuropixels 2.0/D1*%
X146450500Y-89020000D03*
X144225000Y-93150000D03*
%TO.N,/Neuropixels 2.0/D0*%
X146558524Y-88558259D03*
X144834000Y-93406000D03*
%TO.N,/DC Tap & Regulation/RF+DC*%
X142525000Y-84475000D03*
%TO.N,/Neuropixels 2.0/NP_{TP0}*%
X138875000Y-94980000D03*
X146460000Y-95000000D03*
%TO.N,/Neuropixels 2.0/SDA_{B}*%
X146544000Y-93341000D03*
%TO.N,/Neuropixels 2.0/SDA*%
X142220000Y-90550000D03*
X143175250Y-87580000D03*
X142169964Y-88035277D03*
X145162623Y-91188377D03*
X139085000Y-84730000D03*
D14*
X123200000Y-92000000D03*
D13*
X145033000Y-85713000D03*
D14*
X125255000Y-96035000D03*
D13*
%TO.N,Net-(#FLG04-pwr)*%
X144809500Y-87580498D03*
%TO.N,/Neuropixels 2.0/NP_{Select}*%
X145801000Y-89004500D03*
X146074000Y-87516000D03*
%TO.N,+2V5*%
X140375000Y-86400000D03*
X140893349Y-84655502D03*
X140610000Y-82204300D03*
X138215000Y-89990000D03*
%TO.N,Net-(U3-DOUTP)*%
X144610474Y-86416271D03*
%TO.N,Net-(U7-CAP)*%
X139440000Y-92527000D03*
%TO.N,Net-(U3-GPIO3{slash}CLKIN)*%
X145893368Y-86146332D03*
X145799500Y-87935500D03*
%TO.N,Net-(U3-MODE)*%
X141477000Y-87650000D03*
%TO.N,+1.8VA*%
X141525000Y-95650000D03*
X138573327Y-91366735D03*
X143325000Y-95650000D03*
%TO.N,/Neuropixels 2.0/NP_{TP1}*%
X145417601Y-93890601D03*
%TO.N,/Serializer/Dout-*%
X144025000Y-85380000D03*
%TO.N,/Neuropixels 2.0/NP_{~{RST}}*%
X145725000Y-95650000D03*
X139125000Y-95650000D03*
X145675000Y-95046446D03*
%TO.N,/Neuropixels 2.0/NP_{~{MUXRST}}*%
X139725000Y-95650000D03*
X145125000Y-95650000D03*
%TD*%
%TA.AperFunction,Conductor*%
%TO.N,GND*%
G36*
X143005172Y-81910691D02*
G01*
X143044170Y-81941792D01*
X143044179Y-81941797D01*
X143046325Y-81943509D01*
X143152002Y-81994400D01*
X143266354Y-82020500D01*
X143289618Y-82020500D01*
X143325000Y-82020500D01*
X143357288Y-82020500D01*
X146232706Y-82020500D01*
X146262171Y-82030348D01*
X146279791Y-82055935D01*
X146278484Y-82086974D01*
X146258776Y-82110989D01*
X146135069Y-82188718D01*
X146135061Y-82188724D01*
X146132738Y-82190184D01*
X146130794Y-82192127D01*
X146130790Y-82192131D01*
X146007131Y-82315790D01*
X146007127Y-82315794D01*
X146005184Y-82317738D01*
X146003724Y-82320061D01*
X146003718Y-82320069D01*
X145910675Y-82468147D01*
X145910672Y-82468151D01*
X145909211Y-82470478D01*
X145908302Y-82473072D01*
X145908302Y-82473075D01*
X145850540Y-82638147D01*
X145850537Y-82638155D01*
X145849632Y-82640745D01*
X145849324Y-82643477D01*
X145849324Y-82643478D01*
X145834653Y-82773679D01*
X145834651Y-82773696D01*
X145834500Y-82775046D01*
X145834500Y-84064954D01*
X145834652Y-84066303D01*
X145834653Y-84066320D01*
X145848618Y-84190256D01*
X145849632Y-84199255D01*
X145850538Y-84201846D01*
X145850540Y-84201852D01*
X145888293Y-84309742D01*
X145909211Y-84369522D01*
X145910674Y-84371851D01*
X145910675Y-84371852D01*
X146003718Y-84519930D01*
X146003721Y-84519934D01*
X146005184Y-84522262D01*
X146132738Y-84649816D01*
X146135067Y-84651279D01*
X146135069Y-84651281D01*
X146194077Y-84688358D01*
X146285478Y-84745789D01*
X146455745Y-84805368D01*
X146635000Y-84825565D01*
X146814255Y-84805368D01*
X146984522Y-84745789D01*
X147137262Y-84649816D01*
X147264816Y-84522262D01*
X147314010Y-84443969D01*
X147338026Y-84424261D01*
X147369065Y-84422954D01*
X147394652Y-84440574D01*
X147404500Y-84470039D01*
X147404500Y-89887082D01*
X147404497Y-89887108D01*
X147404493Y-89887108D01*
X147404493Y-89887133D01*
X147404493Y-89887134D01*
X147404493Y-89982996D01*
X147404493Y-89983007D01*
X147404494Y-89985139D01*
X147404831Y-89987051D01*
X147405000Y-89990925D01*
X147405000Y-92603353D01*
X147404832Y-92607186D01*
X147404499Y-92609076D01*
X147404499Y-92671725D01*
X147404500Y-92671725D01*
X147404500Y-92671727D01*
X147404500Y-96030500D01*
X147390148Y-96065148D01*
X147355500Y-96079500D01*
X144182288Y-96079500D01*
X144150000Y-96079500D01*
X144051969Y-96079500D01*
X144050079Y-96079833D01*
X144046251Y-96080000D01*
X141433749Y-96080000D01*
X141429920Y-96079833D01*
X141428031Y-96079500D01*
X141425890Y-96079500D01*
X137494500Y-96079500D01*
X137459852Y-96065148D01*
X137445500Y-96030500D01*
X137445500Y-95650000D01*
X138895082Y-95650000D01*
X138896023Y-95654731D01*
X138911641Y-95733253D01*
X138911642Y-95733255D01*
X138912583Y-95737986D01*
X138915264Y-95741998D01*
X138955164Y-95801714D01*
X138962423Y-95812577D01*
X139037014Y-95862417D01*
X139125000Y-95879918D01*
X139212986Y-95862417D01*
X139287577Y-95812577D01*
X139337417Y-95737986D01*
X139354918Y-95650000D01*
X139495082Y-95650000D01*
X139496023Y-95654731D01*
X139511641Y-95733253D01*
X139511642Y-95733255D01*
X139512583Y-95737986D01*
X139515264Y-95741998D01*
X139555164Y-95801714D01*
X139562423Y-95812577D01*
X139637014Y-95862417D01*
X139725000Y-95879918D01*
X139812986Y-95862417D01*
X139887577Y-95812577D01*
X139937417Y-95737986D01*
X139954918Y-95650000D01*
X141295082Y-95650000D01*
X141296023Y-95654731D01*
X141311641Y-95733253D01*
X141311642Y-95733255D01*
X141312583Y-95737986D01*
X141315264Y-95741998D01*
X141355164Y-95801714D01*
X141362423Y-95812577D01*
X141437014Y-95862417D01*
X141525000Y-95879918D01*
X141612986Y-95862417D01*
X141687577Y-95812577D01*
X141737417Y-95737986D01*
X141754918Y-95650000D01*
X143095082Y-95650000D01*
X143096023Y-95654731D01*
X143111641Y-95733253D01*
X143111642Y-95733255D01*
X143112583Y-95737986D01*
X143115264Y-95741998D01*
X143155164Y-95801714D01*
X143162423Y-95812577D01*
X143237014Y-95862417D01*
X143325000Y-95879918D01*
X143412986Y-95862417D01*
X143487577Y-95812577D01*
X143537417Y-95737986D01*
X143554918Y-95650000D01*
X144895082Y-95650000D01*
X144896023Y-95654731D01*
X144911641Y-95733253D01*
X144911642Y-95733255D01*
X144912583Y-95737986D01*
X144915264Y-95741998D01*
X144955164Y-95801714D01*
X144962423Y-95812577D01*
X145037014Y-95862417D01*
X145125000Y-95879918D01*
X145212986Y-95862417D01*
X145287577Y-95812577D01*
X145337417Y-95737986D01*
X145354918Y-95650000D01*
X145495082Y-95650000D01*
X145496023Y-95654731D01*
X145511641Y-95733253D01*
X145511642Y-95733255D01*
X145512583Y-95737986D01*
X145515264Y-95741998D01*
X145555164Y-95801714D01*
X145562423Y-95812577D01*
X145637014Y-95862417D01*
X145725000Y-95879918D01*
X145812986Y-95862417D01*
X145887577Y-95812577D01*
X145937417Y-95737986D01*
X145954918Y-95650000D01*
X145937417Y-95562014D01*
X145887577Y-95487423D01*
X145812986Y-95437583D01*
X145808255Y-95436642D01*
X145808253Y-95436641D01*
X145729731Y-95421023D01*
X145725000Y-95420082D01*
X145720269Y-95421023D01*
X145641746Y-95436641D01*
X145641742Y-95436642D01*
X145637014Y-95437583D01*
X145633002Y-95440263D01*
X145633001Y-95440264D01*
X145566434Y-95484742D01*
X145566431Y-95484744D01*
X145562423Y-95487423D01*
X145559744Y-95491431D01*
X145559742Y-95491434D01*
X145515264Y-95558001D01*
X145512583Y-95562014D01*
X145511642Y-95566742D01*
X145511641Y-95566746D01*
X145502143Y-95614500D01*
X145495082Y-95650000D01*
X145354918Y-95650000D01*
X145337417Y-95562014D01*
X145287577Y-95487423D01*
X145212986Y-95437583D01*
X145208255Y-95436642D01*
X145208253Y-95436641D01*
X145129731Y-95421023D01*
X145125000Y-95420082D01*
X145120269Y-95421023D01*
X145041746Y-95436641D01*
X145041742Y-95436642D01*
X145037014Y-95437583D01*
X145033002Y-95440263D01*
X145033001Y-95440264D01*
X144966434Y-95484742D01*
X144966431Y-95484744D01*
X144962423Y-95487423D01*
X144959744Y-95491431D01*
X144959742Y-95491434D01*
X144915264Y-95558001D01*
X144912583Y-95562014D01*
X144911642Y-95566742D01*
X144911641Y-95566746D01*
X144902143Y-95614500D01*
X144895082Y-95650000D01*
X143554918Y-95650000D01*
X143537417Y-95562014D01*
X143487577Y-95487423D01*
X143412986Y-95437583D01*
X143408255Y-95436642D01*
X143408253Y-95436641D01*
X143329731Y-95421023D01*
X143325000Y-95420082D01*
X143320269Y-95421023D01*
X143241746Y-95436641D01*
X143241742Y-95436642D01*
X143237014Y-95437583D01*
X143233002Y-95440263D01*
X143233001Y-95440264D01*
X143166434Y-95484742D01*
X143166431Y-95484744D01*
X143162423Y-95487423D01*
X143159744Y-95491431D01*
X143159742Y-95491434D01*
X143115264Y-95558001D01*
X143112583Y-95562014D01*
X143111642Y-95566742D01*
X143111641Y-95566746D01*
X143102143Y-95614500D01*
X143095082Y-95650000D01*
X141754918Y-95650000D01*
X141737417Y-95562014D01*
X141687577Y-95487423D01*
X141612986Y-95437583D01*
X141608255Y-95436642D01*
X141608253Y-95436641D01*
X141529731Y-95421023D01*
X141525000Y-95420082D01*
X141520269Y-95421023D01*
X141441746Y-95436641D01*
X141441742Y-95436642D01*
X141437014Y-95437583D01*
X141433002Y-95440263D01*
X141433001Y-95440264D01*
X141366434Y-95484742D01*
X141366431Y-95484744D01*
X141362423Y-95487423D01*
X141359744Y-95491431D01*
X141359742Y-95491434D01*
X141315264Y-95558001D01*
X141312583Y-95562014D01*
X141311642Y-95566742D01*
X141311641Y-95566746D01*
X141302143Y-95614500D01*
X141295082Y-95650000D01*
X139954918Y-95650000D01*
X139937417Y-95562014D01*
X139887577Y-95487423D01*
X139812986Y-95437583D01*
X139808255Y-95436642D01*
X139808253Y-95436641D01*
X139729731Y-95421023D01*
X139725000Y-95420082D01*
X139720269Y-95421023D01*
X139641746Y-95436641D01*
X139641742Y-95436642D01*
X139637014Y-95437583D01*
X139633002Y-95440263D01*
X139633001Y-95440264D01*
X139566434Y-95484742D01*
X139566431Y-95484744D01*
X139562423Y-95487423D01*
X139559744Y-95491431D01*
X139559742Y-95491434D01*
X139515264Y-95558001D01*
X139512583Y-95562014D01*
X139511642Y-95566742D01*
X139511641Y-95566746D01*
X139502143Y-95614500D01*
X139495082Y-95650000D01*
X139354918Y-95650000D01*
X139337417Y-95562014D01*
X139287577Y-95487423D01*
X139212986Y-95437583D01*
X139208255Y-95436642D01*
X139208253Y-95436641D01*
X139129731Y-95421023D01*
X139125000Y-95420082D01*
X139120269Y-95421023D01*
X139041746Y-95436641D01*
X139041742Y-95436642D01*
X139037014Y-95437583D01*
X139033002Y-95440263D01*
X139033001Y-95440264D01*
X138966434Y-95484742D01*
X138966431Y-95484744D01*
X138962423Y-95487423D01*
X138959744Y-95491431D01*
X138959742Y-95491434D01*
X138915264Y-95558001D01*
X138912583Y-95562014D01*
X138911642Y-95566742D01*
X138911641Y-95566746D01*
X138902143Y-95614500D01*
X138895082Y-95650000D01*
X137445500Y-95650000D01*
X137445500Y-94980000D01*
X138645082Y-94980000D01*
X138646023Y-94984731D01*
X138661641Y-95063253D01*
X138661642Y-95063255D01*
X138662583Y-95067986D01*
X138665264Y-95071998D01*
X138706980Y-95134432D01*
X138712423Y-95142577D01*
X138787014Y-95192417D01*
X138875000Y-95209918D01*
X138962986Y-95192417D01*
X139037577Y-95142577D01*
X139087417Y-95067986D01*
X139091701Y-95046446D01*
X145445082Y-95046446D01*
X145446023Y-95051177D01*
X145461641Y-95129699D01*
X145461642Y-95129701D01*
X145462583Y-95134432D01*
X145469816Y-95145257D01*
X145506666Y-95200408D01*
X145512423Y-95209023D01*
X145587014Y-95258863D01*
X145675000Y-95276364D01*
X145762986Y-95258863D01*
X145837577Y-95209023D01*
X145887417Y-95134432D01*
X145904918Y-95046446D01*
X145895680Y-95000000D01*
X146230082Y-95000000D01*
X146231023Y-95004731D01*
X146246641Y-95083253D01*
X146246642Y-95083255D01*
X146247583Y-95087986D01*
X146297423Y-95162577D01*
X146372014Y-95212417D01*
X146460000Y-95229918D01*
X146547986Y-95212417D01*
X146622577Y-95162577D01*
X146672417Y-95087986D01*
X146689918Y-95000000D01*
X146672417Y-94912014D01*
X146622577Y-94837423D01*
X146547986Y-94787583D01*
X146543255Y-94786642D01*
X146543253Y-94786641D01*
X146464731Y-94771023D01*
X146460000Y-94770082D01*
X146455269Y-94771023D01*
X146376746Y-94786641D01*
X146376742Y-94786642D01*
X146372014Y-94787583D01*
X146368002Y-94790263D01*
X146368001Y-94790264D01*
X146301434Y-94834742D01*
X146301431Y-94834744D01*
X146297423Y-94837423D01*
X146294744Y-94841431D01*
X146294742Y-94841434D01*
X146250264Y-94908001D01*
X146247583Y-94912014D01*
X146246642Y-94916742D01*
X146246641Y-94916746D01*
X146237403Y-94963192D01*
X146230082Y-95000000D01*
X145895680Y-95000000D01*
X145887417Y-94958460D01*
X145837577Y-94883869D01*
X145833009Y-94880817D01*
X145800281Y-94858949D01*
X145762986Y-94834029D01*
X145758255Y-94833088D01*
X145758253Y-94833087D01*
X145679731Y-94817469D01*
X145675000Y-94816528D01*
X145670269Y-94817469D01*
X145591746Y-94833087D01*
X145591742Y-94833088D01*
X145587014Y-94834029D01*
X145583002Y-94836709D01*
X145583001Y-94836710D01*
X145516434Y-94881188D01*
X145516431Y-94881190D01*
X145512423Y-94883869D01*
X145509744Y-94887877D01*
X145509742Y-94887880D01*
X145468412Y-94949736D01*
X145462583Y-94958460D01*
X145461642Y-94963188D01*
X145461641Y-94963192D01*
X145455261Y-94995269D01*
X145445082Y-95046446D01*
X139091701Y-95046446D01*
X139104918Y-94980000D01*
X139087417Y-94892014D01*
X139037577Y-94817423D01*
X138962986Y-94767583D01*
X138958255Y-94766642D01*
X138958253Y-94766641D01*
X138879731Y-94751023D01*
X138875000Y-94750082D01*
X138870269Y-94751023D01*
X138791746Y-94766641D01*
X138791742Y-94766642D01*
X138787014Y-94767583D01*
X138783002Y-94770263D01*
X138783001Y-94770264D01*
X138716434Y-94814742D01*
X138716431Y-94814744D01*
X138712423Y-94817423D01*
X138709744Y-94821431D01*
X138709742Y-94821434D01*
X138665811Y-94887183D01*
X138662583Y-94892014D01*
X138661642Y-94896742D01*
X138661641Y-94896746D01*
X138649366Y-94958460D01*
X138645082Y-94980000D01*
X137445500Y-94980000D01*
X137445500Y-93772609D01*
X139412691Y-93772609D01*
X139413632Y-93777340D01*
X139429250Y-93855862D01*
X139429251Y-93855864D01*
X139430192Y-93860595D01*
X139480032Y-93935186D01*
X139554623Y-93985026D01*
X139642609Y-94002527D01*
X139730595Y-93985026D01*
X139805186Y-93935186D01*
X139834977Y-93890601D01*
X145187683Y-93890601D01*
X145188624Y-93895332D01*
X145204242Y-93973854D01*
X145204243Y-93973856D01*
X145205184Y-93978587D01*
X145255024Y-94053178D01*
X145329615Y-94103018D01*
X145417601Y-94120519D01*
X145505587Y-94103018D01*
X145580178Y-94053178D01*
X145630018Y-93978587D01*
X145647519Y-93890601D01*
X145630018Y-93802615D01*
X145580178Y-93728024D01*
X145505587Y-93678184D01*
X145500856Y-93677243D01*
X145500854Y-93677242D01*
X145422332Y-93661624D01*
X145417601Y-93660683D01*
X145412870Y-93661624D01*
X145334347Y-93677242D01*
X145334343Y-93677243D01*
X145329615Y-93678184D01*
X145325603Y-93680864D01*
X145325602Y-93680865D01*
X145259035Y-93725343D01*
X145259032Y-93725345D01*
X145255024Y-93728024D01*
X145252345Y-93732032D01*
X145252343Y-93732035D01*
X145228394Y-93767878D01*
X145205184Y-93802615D01*
X145204243Y-93807343D01*
X145204242Y-93807347D01*
X145194593Y-93855862D01*
X145187683Y-93890601D01*
X139834977Y-93890601D01*
X139855026Y-93860595D01*
X139872527Y-93772609D01*
X139855026Y-93684623D01*
X139805186Y-93610032D01*
X139730595Y-93560192D01*
X139725864Y-93559251D01*
X139725862Y-93559250D01*
X139647340Y-93543632D01*
X139642609Y-93542691D01*
X139637878Y-93543632D01*
X139559355Y-93559250D01*
X139559351Y-93559251D01*
X139554623Y-93560192D01*
X139550611Y-93562872D01*
X139550610Y-93562873D01*
X139484043Y-93607351D01*
X139484040Y-93607353D01*
X139480032Y-93610032D01*
X139477353Y-93614040D01*
X139477351Y-93614043D01*
X139434494Y-93678184D01*
X139430192Y-93684623D01*
X139429251Y-93689351D01*
X139429250Y-93689355D01*
X139421559Y-93728024D01*
X139412691Y-93772609D01*
X137445500Y-93772609D01*
X137445500Y-93406000D01*
X144604082Y-93406000D01*
X144605023Y-93410731D01*
X144620641Y-93489253D01*
X144620642Y-93489255D01*
X144621583Y-93493986D01*
X144629782Y-93506257D01*
X144667611Y-93562873D01*
X144671423Y-93568577D01*
X144746014Y-93618417D01*
X144834000Y-93635918D01*
X144921986Y-93618417D01*
X144996577Y-93568577D01*
X145046417Y-93493986D01*
X145063918Y-93406000D01*
X145050989Y-93341000D01*
X146314082Y-93341000D01*
X146315023Y-93345731D01*
X146330641Y-93424253D01*
X146330642Y-93424255D01*
X146331583Y-93428986D01*
X146334264Y-93432998D01*
X146375014Y-93493986D01*
X146381423Y-93503577D01*
X146456014Y-93553417D01*
X146544000Y-93570918D01*
X146631986Y-93553417D01*
X146706577Y-93503577D01*
X146756417Y-93428986D01*
X146773918Y-93341000D01*
X146756417Y-93253014D01*
X146706577Y-93178423D01*
X146631986Y-93128583D01*
X146627255Y-93127642D01*
X146627253Y-93127641D01*
X146548731Y-93112023D01*
X146544000Y-93111082D01*
X146539269Y-93112023D01*
X146460746Y-93127641D01*
X146460742Y-93127642D01*
X146456014Y-93128583D01*
X146452002Y-93131263D01*
X146452001Y-93131264D01*
X146385434Y-93175742D01*
X146385431Y-93175744D01*
X146381423Y-93178423D01*
X146378744Y-93182431D01*
X146378742Y-93182434D01*
X146337991Y-93243423D01*
X146331583Y-93253014D01*
X146330642Y-93257742D01*
X146330641Y-93257746D01*
X146319452Y-93314001D01*
X146314082Y-93341000D01*
X145050989Y-93341000D01*
X145046417Y-93318014D01*
X144996577Y-93243423D01*
X144981356Y-93233253D01*
X144925998Y-93196264D01*
X144925999Y-93196264D01*
X144921986Y-93193583D01*
X144917255Y-93192642D01*
X144917253Y-93192641D01*
X144838731Y-93177023D01*
X144834000Y-93176082D01*
X144829269Y-93177023D01*
X144750746Y-93192641D01*
X144750742Y-93192642D01*
X144746014Y-93193583D01*
X144742002Y-93196263D01*
X144742001Y-93196264D01*
X144675434Y-93240742D01*
X144675431Y-93240744D01*
X144671423Y-93243423D01*
X144668744Y-93247431D01*
X144668742Y-93247434D01*
X144624264Y-93314001D01*
X144621583Y-93318014D01*
X144620642Y-93322742D01*
X144620641Y-93322746D01*
X144609457Y-93378977D01*
X144604082Y-93406000D01*
X137445500Y-93406000D01*
X137445500Y-93150000D01*
X139795082Y-93150000D01*
X139796023Y-93154731D01*
X139811641Y-93233253D01*
X139811642Y-93233255D01*
X139812583Y-93237986D01*
X139825786Y-93257746D01*
X139857528Y-93305252D01*
X139862423Y-93312577D01*
X139937014Y-93362417D01*
X140025000Y-93379918D01*
X140112986Y-93362417D01*
X140187577Y-93312577D01*
X140237417Y-93237986D01*
X140254918Y-93150000D01*
X140395082Y-93150000D01*
X140396023Y-93154731D01*
X140411641Y-93233253D01*
X140411642Y-93233255D01*
X140412583Y-93237986D01*
X140425786Y-93257746D01*
X140457528Y-93305252D01*
X140462423Y-93312577D01*
X140537014Y-93362417D01*
X140625000Y-93379918D01*
X140712986Y-93362417D01*
X140787577Y-93312577D01*
X140837417Y-93237986D01*
X140854918Y-93150000D01*
X140995082Y-93150000D01*
X140996023Y-93154731D01*
X141011641Y-93233253D01*
X141011642Y-93233255D01*
X141012583Y-93237986D01*
X141025786Y-93257746D01*
X141057528Y-93305252D01*
X141062423Y-93312577D01*
X141137014Y-93362417D01*
X141225000Y-93379918D01*
X141312986Y-93362417D01*
X141387577Y-93312577D01*
X141437417Y-93237986D01*
X141454918Y-93150000D01*
X141595082Y-93150000D01*
X141596023Y-93154731D01*
X141611641Y-93233253D01*
X141611642Y-93233255D01*
X141612583Y-93237986D01*
X141625786Y-93257746D01*
X141657528Y-93305252D01*
X141662423Y-93312577D01*
X141737014Y-93362417D01*
X141825000Y-93379918D01*
X141912986Y-93362417D01*
X141987577Y-93312577D01*
X142037417Y-93237986D01*
X142054918Y-93150000D01*
X142195082Y-93150000D01*
X142196023Y-93154731D01*
X142211641Y-93233253D01*
X142211642Y-93233255D01*
X142212583Y-93237986D01*
X142225786Y-93257746D01*
X142257528Y-93305252D01*
X142262423Y-93312577D01*
X142337014Y-93362417D01*
X142425000Y-93379918D01*
X142512986Y-93362417D01*
X142587577Y-93312577D01*
X142637417Y-93237986D01*
X142654918Y-93150000D01*
X142795082Y-93150000D01*
X142796023Y-93154731D01*
X142811641Y-93233253D01*
X142811642Y-93233255D01*
X142812583Y-93237986D01*
X142825786Y-93257746D01*
X142857528Y-93305252D01*
X142862423Y-93312577D01*
X142937014Y-93362417D01*
X143025000Y-93379918D01*
X143112986Y-93362417D01*
X143187577Y-93312577D01*
X143237417Y-93237986D01*
X143254918Y-93150000D01*
X143395082Y-93150000D01*
X143396023Y-93154731D01*
X143411641Y-93233253D01*
X143411642Y-93233255D01*
X143412583Y-93237986D01*
X143425786Y-93257746D01*
X143457528Y-93305252D01*
X143462423Y-93312577D01*
X143537014Y-93362417D01*
X143625000Y-93379918D01*
X143712986Y-93362417D01*
X143787577Y-93312577D01*
X143837417Y-93237986D01*
X143854918Y-93150000D01*
X143995082Y-93150000D01*
X143996023Y-93154731D01*
X144011641Y-93233253D01*
X144011642Y-93233255D01*
X144012583Y-93237986D01*
X144025786Y-93257746D01*
X144057528Y-93305252D01*
X144062423Y-93312577D01*
X144137014Y-93362417D01*
X144225000Y-93379918D01*
X144312986Y-93362417D01*
X144387577Y-93312577D01*
X144437417Y-93237986D01*
X144454918Y-93150000D01*
X144437417Y-93062014D01*
X144387577Y-92987423D01*
X144312986Y-92937583D01*
X144308255Y-92936642D01*
X144308253Y-92936641D01*
X144229731Y-92921023D01*
X144225000Y-92920082D01*
X144220269Y-92921023D01*
X144141746Y-92936641D01*
X144141742Y-92936642D01*
X144137014Y-92937583D01*
X144133002Y-92940263D01*
X144133001Y-92940264D01*
X144066434Y-92984742D01*
X144066431Y-92984744D01*
X144062423Y-92987423D01*
X144059744Y-92991431D01*
X144059742Y-92991434D01*
X144015264Y-93058001D01*
X144012583Y-93062014D01*
X144011642Y-93066742D01*
X144011641Y-93066746D01*
X144002823Y-93111082D01*
X143995082Y-93150000D01*
X143854918Y-93150000D01*
X143837417Y-93062014D01*
X143787577Y-92987423D01*
X143712986Y-92937583D01*
X143708255Y-92936642D01*
X143708253Y-92936641D01*
X143629731Y-92921023D01*
X143625000Y-92920082D01*
X143620269Y-92921023D01*
X143541746Y-92936641D01*
X143541742Y-92936642D01*
X143537014Y-92937583D01*
X143533002Y-92940263D01*
X143533001Y-92940264D01*
X143466434Y-92984742D01*
X143466431Y-92984744D01*
X143462423Y-92987423D01*
X143459744Y-92991431D01*
X143459742Y-92991434D01*
X143415264Y-93058001D01*
X143412583Y-93062014D01*
X143411642Y-93066742D01*
X143411641Y-93066746D01*
X143402823Y-93111082D01*
X143395082Y-93150000D01*
X143254918Y-93150000D01*
X143237417Y-93062014D01*
X143187577Y-92987423D01*
X143112986Y-92937583D01*
X143108255Y-92936642D01*
X143108253Y-92936641D01*
X143029731Y-92921023D01*
X143025000Y-92920082D01*
X143020269Y-92921023D01*
X142941746Y-92936641D01*
X142941742Y-92936642D01*
X142937014Y-92937583D01*
X142933002Y-92940263D01*
X142933001Y-92940264D01*
X142866434Y-92984742D01*
X142866431Y-92984744D01*
X142862423Y-92987423D01*
X142859744Y-92991431D01*
X142859742Y-92991434D01*
X142815264Y-93058001D01*
X142812583Y-93062014D01*
X142811642Y-93066742D01*
X142811641Y-93066746D01*
X142802823Y-93111082D01*
X142795082Y-93150000D01*
X142654918Y-93150000D01*
X142637417Y-93062014D01*
X142587577Y-92987423D01*
X142512986Y-92937583D01*
X142508255Y-92936642D01*
X142508253Y-92936641D01*
X142429731Y-92921023D01*
X142425000Y-92920082D01*
X142420269Y-92921023D01*
X142341746Y-92936641D01*
X142341742Y-92936642D01*
X142337014Y-92937583D01*
X142333002Y-92940263D01*
X142333001Y-92940264D01*
X142266434Y-92984742D01*
X142266431Y-92984744D01*
X142262423Y-92987423D01*
X142259744Y-92991431D01*
X142259742Y-92991434D01*
X142215264Y-93058001D01*
X142212583Y-93062014D01*
X142211642Y-93066742D01*
X142211641Y-93066746D01*
X142202823Y-93111082D01*
X142195082Y-93150000D01*
X142054918Y-93150000D01*
X142037417Y-93062014D01*
X141987577Y-92987423D01*
X141912986Y-92937583D01*
X141908255Y-92936642D01*
X141908253Y-92936641D01*
X141829731Y-92921023D01*
X141825000Y-92920082D01*
X141820269Y-92921023D01*
X141741746Y-92936641D01*
X141741742Y-92936642D01*
X141737014Y-92937583D01*
X141733002Y-92940263D01*
X141733001Y-92940264D01*
X141666434Y-92984742D01*
X141666431Y-92984744D01*
X141662423Y-92987423D01*
X141659744Y-92991431D01*
X141659742Y-92991434D01*
X141615264Y-93058001D01*
X141612583Y-93062014D01*
X141611642Y-93066742D01*
X141611641Y-93066746D01*
X141602823Y-93111082D01*
X141595082Y-93150000D01*
X141454918Y-93150000D01*
X141437417Y-93062014D01*
X141387577Y-92987423D01*
X141312986Y-92937583D01*
X141308255Y-92936642D01*
X141308253Y-92936641D01*
X141229731Y-92921023D01*
X141225000Y-92920082D01*
X141220269Y-92921023D01*
X141141746Y-92936641D01*
X141141742Y-92936642D01*
X141137014Y-92937583D01*
X141133002Y-92940263D01*
X141133001Y-92940264D01*
X141066434Y-92984742D01*
X141066431Y-92984744D01*
X141062423Y-92987423D01*
X141059744Y-92991431D01*
X141059742Y-92991434D01*
X141015264Y-93058001D01*
X141012583Y-93062014D01*
X141011642Y-93066742D01*
X141011641Y-93066746D01*
X141002823Y-93111082D01*
X140995082Y-93150000D01*
X140854918Y-93150000D01*
X140837417Y-93062014D01*
X140787577Y-92987423D01*
X140712986Y-92937583D01*
X140708255Y-92936642D01*
X140708253Y-92936641D01*
X140629731Y-92921023D01*
X140625000Y-92920082D01*
X140620269Y-92921023D01*
X140541746Y-92936641D01*
X140541742Y-92936642D01*
X140537014Y-92937583D01*
X140533002Y-92940263D01*
X140533001Y-92940264D01*
X140466434Y-92984742D01*
X140466431Y-92984744D01*
X140462423Y-92987423D01*
X140459744Y-92991431D01*
X140459742Y-92991434D01*
X140415264Y-93058001D01*
X140412583Y-93062014D01*
X140411642Y-93066742D01*
X140411641Y-93066746D01*
X140402823Y-93111082D01*
X140395082Y-93150000D01*
X140254918Y-93150000D01*
X140237417Y-93062014D01*
X140187577Y-92987423D01*
X140112986Y-92937583D01*
X140108255Y-92936642D01*
X140108253Y-92936641D01*
X140029731Y-92921023D01*
X140025000Y-92920082D01*
X140020269Y-92921023D01*
X139941746Y-92936641D01*
X139941742Y-92936642D01*
X139937014Y-92937583D01*
X139933002Y-92940263D01*
X139933001Y-92940264D01*
X139866434Y-92984742D01*
X139866431Y-92984744D01*
X139862423Y-92987423D01*
X139859744Y-92991431D01*
X139859742Y-92991434D01*
X139815264Y-93058001D01*
X139812583Y-93062014D01*
X139811642Y-93066742D01*
X139811641Y-93066746D01*
X139802823Y-93111082D01*
X139795082Y-93150000D01*
X137445500Y-93150000D01*
X137445500Y-92530000D01*
X138750082Y-92530000D01*
X138751023Y-92534731D01*
X138766641Y-92613253D01*
X138766642Y-92613255D01*
X138767583Y-92617986D01*
X138776926Y-92631969D01*
X138814741Y-92688564D01*
X138817423Y-92692577D01*
X138892014Y-92742417D01*
X138980000Y-92759918D01*
X139067986Y-92742417D01*
X139142577Y-92692577D01*
X139170260Y-92651145D01*
X139195251Y-92631969D01*
X139226753Y-92631968D01*
X139251743Y-92651144D01*
X139277423Y-92689577D01*
X139352014Y-92739417D01*
X139440000Y-92756918D01*
X139527986Y-92739417D01*
X139602577Y-92689577D01*
X139652417Y-92614986D01*
X139669918Y-92527000D01*
X139652417Y-92439014D01*
X139602577Y-92364423D01*
X139527986Y-92314583D01*
X139523255Y-92313642D01*
X139523253Y-92313641D01*
X139444731Y-92298023D01*
X139440000Y-92297082D01*
X139435269Y-92298023D01*
X139356746Y-92313641D01*
X139356742Y-92313642D01*
X139352014Y-92314583D01*
X139348002Y-92317263D01*
X139348001Y-92317264D01*
X139281434Y-92361742D01*
X139281431Y-92361744D01*
X139277423Y-92364423D01*
X139274744Y-92368431D01*
X139274742Y-92368434D01*
X139249739Y-92405854D01*
X139224747Y-92425031D01*
X139193246Y-92425030D01*
X139168255Y-92405853D01*
X139145258Y-92371435D01*
X139145257Y-92371434D01*
X139142577Y-92367423D01*
X139138087Y-92364423D01*
X139091279Y-92333147D01*
X139067986Y-92317583D01*
X139063255Y-92316642D01*
X139063253Y-92316641D01*
X138984731Y-92301023D01*
X138980000Y-92300082D01*
X138975269Y-92301023D01*
X138896746Y-92316641D01*
X138896742Y-92316642D01*
X138892014Y-92317583D01*
X138888002Y-92320263D01*
X138888001Y-92320264D01*
X138821434Y-92364742D01*
X138821431Y-92364744D01*
X138817423Y-92367423D01*
X138814744Y-92371431D01*
X138814742Y-92371434D01*
X138770264Y-92438001D01*
X138767583Y-92442014D01*
X138766642Y-92446742D01*
X138766641Y-92446746D01*
X138759458Y-92482862D01*
X138750082Y-92530000D01*
X137445500Y-92530000D01*
X137445500Y-91774000D01*
X144018082Y-91774000D01*
X144019023Y-91778731D01*
X144034641Y-91857253D01*
X144034642Y-91857255D01*
X144035583Y-91861986D01*
X144085423Y-91936577D01*
X144160014Y-91986417D01*
X144248000Y-92003918D01*
X144335986Y-91986417D01*
X144410577Y-91936577D01*
X144460417Y-91861986D01*
X144477918Y-91774000D01*
X144460417Y-91686014D01*
X144410577Y-91611423D01*
X144397803Y-91602888D01*
X144339998Y-91564264D01*
X144339999Y-91564264D01*
X144335986Y-91561583D01*
X144331255Y-91560642D01*
X144331253Y-91560641D01*
X144252731Y-91545023D01*
X144248000Y-91544082D01*
X144243269Y-91545023D01*
X144164746Y-91560641D01*
X144164742Y-91560642D01*
X144160014Y-91561583D01*
X144156002Y-91564263D01*
X144156001Y-91564264D01*
X144089434Y-91608742D01*
X144089431Y-91608744D01*
X144085423Y-91611423D01*
X144082744Y-91615431D01*
X144082742Y-91615434D01*
X144038264Y-91682001D01*
X144035583Y-91686014D01*
X144034642Y-91690742D01*
X144034641Y-91690746D01*
X144023931Y-91744592D01*
X144018082Y-91774000D01*
X137445500Y-91774000D01*
X137445500Y-91366735D01*
X138343409Y-91366735D01*
X138344350Y-91371466D01*
X138359968Y-91449988D01*
X138359969Y-91449990D01*
X138360910Y-91454721D01*
X138410750Y-91529312D01*
X138485341Y-91579152D01*
X138573327Y-91596653D01*
X138661313Y-91579152D01*
X138735904Y-91529312D01*
X138785744Y-91454721D01*
X138803245Y-91366735D01*
X138785744Y-91278749D01*
X138735904Y-91204158D01*
X138730775Y-91200731D01*
X138723695Y-91196000D01*
X143809082Y-91196000D01*
X143810023Y-91200731D01*
X143825641Y-91279253D01*
X143825642Y-91279255D01*
X143826583Y-91283986D01*
X143829264Y-91287998D01*
X143867988Y-91345954D01*
X143876423Y-91358577D01*
X143951014Y-91408417D01*
X144039000Y-91425918D01*
X144126986Y-91408417D01*
X144201577Y-91358577D01*
X144251417Y-91283986D01*
X144268918Y-91196000D01*
X144266407Y-91183377D01*
X144427705Y-91183377D01*
X144428646Y-91188108D01*
X144444264Y-91266630D01*
X144444265Y-91266632D01*
X144445206Y-91271363D01*
X144456321Y-91287998D01*
X144485435Y-91331571D01*
X144495046Y-91345954D01*
X144569637Y-91395794D01*
X144657623Y-91413295D01*
X144745609Y-91395794D01*
X144820200Y-91345954D01*
X144867948Y-91274492D01*
X144896001Y-91254388D01*
X144930350Y-91257765D01*
X144948714Y-91277359D01*
X144950206Y-91276363D01*
X144981545Y-91323266D01*
X145000046Y-91350954D01*
X145074637Y-91400794D01*
X145162623Y-91418295D01*
X145250609Y-91400794D01*
X145325200Y-91350954D01*
X145338739Y-91330690D01*
X145360729Y-91312644D01*
X145389040Y-91309855D01*
X145414129Y-91323266D01*
X145415742Y-91324879D01*
X145418423Y-91328891D01*
X145493014Y-91378731D01*
X145581000Y-91396232D01*
X145668986Y-91378731D01*
X145743577Y-91328891D01*
X145793417Y-91254300D01*
X145810918Y-91166314D01*
X145793417Y-91078328D01*
X145743577Y-91003737D01*
X145718688Y-90987107D01*
X145698535Y-90973641D01*
X145668986Y-90953897D01*
X145664255Y-90952956D01*
X145664253Y-90952955D01*
X145585731Y-90937337D01*
X145581000Y-90936396D01*
X145576269Y-90937337D01*
X145497746Y-90952955D01*
X145497742Y-90952956D01*
X145493014Y-90953897D01*
X145489002Y-90956577D01*
X145489001Y-90956578D01*
X145422434Y-91001056D01*
X145422431Y-91001058D01*
X145418423Y-91003737D01*
X145415744Y-91007745D01*
X145415743Y-91007747D01*
X145404882Y-91024001D01*
X145382891Y-91042047D01*
X145354581Y-91044834D01*
X145329493Y-91031424D01*
X145327880Y-91029811D01*
X145325200Y-91025800D01*
X145250609Y-90975960D01*
X145245878Y-90975019D01*
X145245876Y-90975018D01*
X145167354Y-90959400D01*
X145162623Y-90958459D01*
X145157892Y-90959400D01*
X145079369Y-90975018D01*
X145079365Y-90975019D01*
X145074637Y-90975960D01*
X145070625Y-90978640D01*
X145070624Y-90978641D01*
X145004057Y-91023119D01*
X145004054Y-91023121D01*
X145000046Y-91025800D01*
X144997367Y-91029808D01*
X144997365Y-91029811D01*
X144952298Y-91097259D01*
X144924240Y-91117366D01*
X144889887Y-91113984D01*
X144871533Y-91094392D01*
X144870040Y-91095391D01*
X144820200Y-91020800D01*
X144794663Y-91003737D01*
X144767006Y-90985257D01*
X144745609Y-90970960D01*
X144740878Y-90970019D01*
X144740876Y-90970018D01*
X144662354Y-90954400D01*
X144657623Y-90953459D01*
X144652892Y-90954400D01*
X144574369Y-90970018D01*
X144574365Y-90970019D01*
X144569637Y-90970960D01*
X144565625Y-90973640D01*
X144565624Y-90973641D01*
X144499057Y-91018119D01*
X144499054Y-91018121D01*
X144495046Y-91020800D01*
X144492367Y-91024808D01*
X144492365Y-91024811D01*
X144447887Y-91091378D01*
X144445206Y-91095391D01*
X144444265Y-91100119D01*
X144444264Y-91100123D01*
X144436966Y-91136817D01*
X144427705Y-91183377D01*
X144266407Y-91183377D01*
X144251417Y-91108014D01*
X144201577Y-91033423D01*
X144196171Y-91029811D01*
X144130998Y-90986264D01*
X144130999Y-90986264D01*
X144126986Y-90983583D01*
X144122255Y-90982642D01*
X144122253Y-90982641D01*
X144043731Y-90967023D01*
X144039000Y-90966082D01*
X144034269Y-90967023D01*
X143955746Y-90982641D01*
X143955742Y-90982642D01*
X143951014Y-90983583D01*
X143947002Y-90986263D01*
X143947001Y-90986264D01*
X143880434Y-91030742D01*
X143880431Y-91030744D01*
X143876423Y-91033423D01*
X143873744Y-91037431D01*
X143873742Y-91037434D01*
X143829264Y-91104001D01*
X143826583Y-91108014D01*
X143825642Y-91112742D01*
X143825641Y-91112746D01*
X143812534Y-91178646D01*
X143809082Y-91196000D01*
X138723695Y-91196000D01*
X138698608Y-91179237D01*
X138661313Y-91154318D01*
X138656582Y-91153377D01*
X138656580Y-91153376D01*
X138578058Y-91137758D01*
X138573327Y-91136817D01*
X138568596Y-91137758D01*
X138490073Y-91153376D01*
X138490069Y-91153377D01*
X138485341Y-91154318D01*
X138481329Y-91156998D01*
X138481328Y-91156999D01*
X138414761Y-91201477D01*
X138414758Y-91201479D01*
X138410750Y-91204158D01*
X138408071Y-91208166D01*
X138408069Y-91208169D01*
X138368889Y-91266807D01*
X138360910Y-91278749D01*
X138359969Y-91283477D01*
X138359968Y-91283481D01*
X138354168Y-91312644D01*
X138343409Y-91366735D01*
X137445500Y-91366735D01*
X137445500Y-90668000D01*
X138787082Y-90668000D01*
X138788023Y-90672731D01*
X138803641Y-90751253D01*
X138803642Y-90751255D01*
X138804583Y-90755986D01*
X138808880Y-90762417D01*
X138847355Y-90820000D01*
X138854423Y-90830577D01*
X138929014Y-90880417D01*
X139017000Y-90897918D01*
X139104986Y-90880417D01*
X139179577Y-90830577D01*
X139186644Y-90820000D01*
X139935082Y-90820000D01*
X139936023Y-90824731D01*
X139951641Y-90903253D01*
X139951642Y-90903255D01*
X139952583Y-90907986D01*
X139955264Y-90911998D01*
X139998001Y-90975960D01*
X140002423Y-90982577D01*
X140077014Y-91032417D01*
X140165000Y-91049918D01*
X140252986Y-91032417D01*
X140327577Y-90982577D01*
X140377417Y-90907986D01*
X140394918Y-90820000D01*
X140377417Y-90732014D01*
X140327577Y-90657423D01*
X140298487Y-90637986D01*
X140256998Y-90610264D01*
X140256999Y-90610264D01*
X140252986Y-90607583D01*
X140248255Y-90606642D01*
X140248253Y-90606641D01*
X140169731Y-90591023D01*
X140165000Y-90590082D01*
X140160269Y-90591023D01*
X140081746Y-90606641D01*
X140081742Y-90606642D01*
X140077014Y-90607583D01*
X140073002Y-90610263D01*
X140073001Y-90610264D01*
X140006434Y-90654742D01*
X140006431Y-90654744D01*
X140002423Y-90657423D01*
X139999744Y-90661431D01*
X139999742Y-90661434D01*
X139955264Y-90728001D01*
X139952583Y-90732014D01*
X139951642Y-90736742D01*
X139951641Y-90736746D01*
X139936023Y-90815269D01*
X139935082Y-90820000D01*
X139186644Y-90820000D01*
X139229417Y-90755986D01*
X139246918Y-90668000D01*
X139229417Y-90580014D01*
X139209362Y-90550000D01*
X141990082Y-90550000D01*
X141991023Y-90554731D01*
X142006641Y-90633253D01*
X142006642Y-90633255D01*
X142007583Y-90637986D01*
X142057423Y-90712577D01*
X142132014Y-90762417D01*
X142220000Y-90779918D01*
X142307986Y-90762417D01*
X142382577Y-90712577D01*
X142409504Y-90672278D01*
X145625582Y-90672278D01*
X145626523Y-90677009D01*
X145642141Y-90755531D01*
X145642142Y-90755533D01*
X145643083Y-90760264D01*
X145645764Y-90764276D01*
X145690064Y-90830577D01*
X145692923Y-90834855D01*
X145767514Y-90884695D01*
X145855500Y-90902196D01*
X145943486Y-90884695D01*
X146018077Y-90834855D01*
X146067917Y-90760264D01*
X146085418Y-90672278D01*
X146067917Y-90584292D01*
X146018077Y-90509701D01*
X146002027Y-90498977D01*
X145978652Y-90483358D01*
X145943486Y-90459861D01*
X145938755Y-90458920D01*
X145938753Y-90458919D01*
X145860231Y-90443301D01*
X145855500Y-90442360D01*
X145850769Y-90443301D01*
X145772246Y-90458919D01*
X145772242Y-90458920D01*
X145767514Y-90459861D01*
X145763502Y-90462541D01*
X145763501Y-90462542D01*
X145696934Y-90507020D01*
X145696931Y-90507022D01*
X145692923Y-90509701D01*
X145690244Y-90513709D01*
X145690242Y-90513712D01*
X145645941Y-90580014D01*
X145643083Y-90584292D01*
X145642142Y-90589020D01*
X145642141Y-90589024D01*
X145633344Y-90633253D01*
X145625582Y-90672278D01*
X142409504Y-90672278D01*
X142432417Y-90637986D01*
X142449918Y-90550000D01*
X142432417Y-90462014D01*
X142382577Y-90387423D01*
X142307986Y-90337583D01*
X142303255Y-90336642D01*
X142303253Y-90336641D01*
X142224731Y-90321023D01*
X142220000Y-90320082D01*
X142215269Y-90321023D01*
X142136746Y-90336641D01*
X142136742Y-90336642D01*
X142132014Y-90337583D01*
X142128002Y-90340263D01*
X142128001Y-90340264D01*
X142061434Y-90384742D01*
X142061431Y-90384744D01*
X142057423Y-90387423D01*
X142054744Y-90391431D01*
X142054742Y-90391434D01*
X142012509Y-90454641D01*
X142007583Y-90462014D01*
X142006642Y-90466742D01*
X142006641Y-90466746D01*
X141997300Y-90513712D01*
X141990082Y-90550000D01*
X139209362Y-90550000D01*
X139179577Y-90505423D01*
X139171338Y-90499918D01*
X139141132Y-90479735D01*
X139104986Y-90455583D01*
X139100255Y-90454642D01*
X139100253Y-90454641D01*
X139021731Y-90439023D01*
X139017000Y-90438082D01*
X139012269Y-90439023D01*
X138933746Y-90454641D01*
X138933742Y-90454642D01*
X138929014Y-90455583D01*
X138925002Y-90458263D01*
X138925001Y-90458264D01*
X138858434Y-90502742D01*
X138858431Y-90502744D01*
X138854423Y-90505423D01*
X138851744Y-90509431D01*
X138851742Y-90509434D01*
X138807264Y-90576001D01*
X138804583Y-90580014D01*
X138803642Y-90584742D01*
X138803641Y-90584746D01*
X138799099Y-90607583D01*
X138787082Y-90668000D01*
X137445500Y-90668000D01*
X137445500Y-90270000D01*
X141350082Y-90270000D01*
X141351023Y-90274731D01*
X141366641Y-90353253D01*
X141366642Y-90353255D01*
X141367583Y-90357986D01*
X141417423Y-90432577D01*
X141492014Y-90482417D01*
X141580000Y-90499918D01*
X141667986Y-90482417D01*
X141742577Y-90432577D01*
X141792417Y-90357986D01*
X141809918Y-90270000D01*
X141792417Y-90182014D01*
X141742577Y-90107423D01*
X141667986Y-90057583D01*
X141663255Y-90056642D01*
X141663253Y-90056641D01*
X141584731Y-90041023D01*
X141580000Y-90040082D01*
X141575269Y-90041023D01*
X141496746Y-90056641D01*
X141496742Y-90056642D01*
X141492014Y-90057583D01*
X141488002Y-90060263D01*
X141488001Y-90060264D01*
X141421434Y-90104742D01*
X141421431Y-90104744D01*
X141417423Y-90107423D01*
X141414744Y-90111431D01*
X141414742Y-90111434D01*
X141380695Y-90162390D01*
X141367583Y-90182014D01*
X141366642Y-90186742D01*
X141366641Y-90186746D01*
X141351023Y-90265269D01*
X141350082Y-90270000D01*
X137445500Y-90270000D01*
X137445500Y-89990000D01*
X137985082Y-89990000D01*
X137986023Y-89994731D01*
X138001641Y-90073253D01*
X138001642Y-90073255D01*
X138002583Y-90077986D01*
X138052423Y-90152577D01*
X138127014Y-90202417D01*
X138215000Y-90219918D01*
X138302986Y-90202417D01*
X138377577Y-90152577D01*
X138427417Y-90077986D01*
X138444918Y-89990000D01*
X138427417Y-89902014D01*
X138397600Y-89857389D01*
X140660582Y-89857389D01*
X140661523Y-89862120D01*
X140677141Y-89940642D01*
X140677142Y-89940644D01*
X140678083Y-89945375D01*
X140680764Y-89949387D01*
X140711061Y-89994731D01*
X140727923Y-90019966D01*
X140802514Y-90069806D01*
X140890500Y-90087307D01*
X140978486Y-90069806D01*
X141053077Y-90019966D01*
X141102917Y-89945375D01*
X141120418Y-89857389D01*
X141102917Y-89769403D01*
X141100234Y-89765387D01*
X141092918Y-89754437D01*
X141084765Y-89724009D01*
X141096821Y-89694906D01*
X141124100Y-89679157D01*
X141157986Y-89672417D01*
X141232577Y-89622577D01*
X141282417Y-89547986D01*
X141282911Y-89545500D01*
X141616082Y-89545500D01*
X141617023Y-89550231D01*
X141632641Y-89628753D01*
X141632642Y-89628755D01*
X141633583Y-89633486D01*
X141636264Y-89637498D01*
X141677239Y-89698823D01*
X141683423Y-89708077D01*
X141758014Y-89757917D01*
X141846000Y-89775418D01*
X141933986Y-89757917D01*
X142008577Y-89708077D01*
X142058417Y-89633486D01*
X142075918Y-89545500D01*
X142058417Y-89457514D01*
X142008577Y-89382923D01*
X141999332Y-89376746D01*
X141937998Y-89335764D01*
X141937999Y-89335764D01*
X141933986Y-89333083D01*
X141929255Y-89332142D01*
X141929253Y-89332141D01*
X141850731Y-89316523D01*
X141846000Y-89315582D01*
X141841269Y-89316523D01*
X141762746Y-89332141D01*
X141762742Y-89332142D01*
X141758014Y-89333083D01*
X141754002Y-89335763D01*
X141754001Y-89335764D01*
X141687434Y-89380242D01*
X141687431Y-89380244D01*
X141683423Y-89382923D01*
X141680744Y-89386931D01*
X141680742Y-89386934D01*
X141636264Y-89453501D01*
X141633583Y-89457514D01*
X141632642Y-89462242D01*
X141632641Y-89462246D01*
X141624288Y-89504242D01*
X141616082Y-89545500D01*
X141282911Y-89545500D01*
X141299918Y-89460000D01*
X141282417Y-89372014D01*
X141232577Y-89297423D01*
X141157986Y-89247583D01*
X141153255Y-89246642D01*
X141153253Y-89246641D01*
X141074731Y-89231023D01*
X141070000Y-89230082D01*
X141065269Y-89231023D01*
X140986746Y-89246641D01*
X140986742Y-89246642D01*
X140982014Y-89247583D01*
X140978002Y-89250263D01*
X140978001Y-89250264D01*
X140911434Y-89294742D01*
X140911431Y-89294744D01*
X140907423Y-89297423D01*
X140904744Y-89301431D01*
X140904742Y-89301434D01*
X140860264Y-89368001D01*
X140857583Y-89372014D01*
X140856642Y-89376742D01*
X140856641Y-89376746D01*
X140845456Y-89432981D01*
X140840082Y-89460000D01*
X140841023Y-89464731D01*
X140856641Y-89543253D01*
X140856642Y-89543255D01*
X140857583Y-89547986D01*
X140860264Y-89551998D01*
X140867582Y-89562951D01*
X140875734Y-89593379D01*
X140863679Y-89622481D01*
X140836398Y-89638231D01*
X140807251Y-89644028D01*
X140807242Y-89644031D01*
X140802514Y-89644972D01*
X140798502Y-89647652D01*
X140798501Y-89647653D01*
X140731934Y-89692131D01*
X140731931Y-89692133D01*
X140727923Y-89694812D01*
X140725244Y-89698820D01*
X140725242Y-89698823D01*
X140684311Y-89760082D01*
X140678083Y-89769403D01*
X140677142Y-89774131D01*
X140677141Y-89774135D01*
X140663807Y-89841173D01*
X140660582Y-89857389D01*
X138397600Y-89857389D01*
X138377577Y-89827423D01*
X138302986Y-89777583D01*
X138298255Y-89776642D01*
X138298253Y-89776641D01*
X138219731Y-89761023D01*
X138215000Y-89760082D01*
X138210269Y-89761023D01*
X138131746Y-89776641D01*
X138131742Y-89776642D01*
X138127014Y-89777583D01*
X138123002Y-89780263D01*
X138123001Y-89780264D01*
X138056434Y-89824742D01*
X138056431Y-89824744D01*
X138052423Y-89827423D01*
X138049744Y-89831431D01*
X138049742Y-89831434D01*
X138005264Y-89898001D01*
X138002583Y-89902014D01*
X138001642Y-89906742D01*
X138001641Y-89906746D01*
X137990331Y-89963609D01*
X137985082Y-89990000D01*
X137445500Y-89990000D01*
X137445500Y-89250000D01*
X138795082Y-89250000D01*
X138796023Y-89254731D01*
X138811641Y-89333253D01*
X138811642Y-89333255D01*
X138812583Y-89337986D01*
X138815264Y-89341998D01*
X138857866Y-89405758D01*
X138862423Y-89412577D01*
X138937014Y-89462417D01*
X139025000Y-89479918D01*
X139112986Y-89462417D01*
X139187577Y-89412577D01*
X139237417Y-89337986D01*
X139254918Y-89250000D01*
X139237417Y-89162014D01*
X139187577Y-89087423D01*
X139112986Y-89037583D01*
X139108255Y-89036642D01*
X139108253Y-89036641D01*
X139029731Y-89021023D01*
X139025000Y-89020082D01*
X139020269Y-89021023D01*
X138941746Y-89036641D01*
X138941742Y-89036642D01*
X138937014Y-89037583D01*
X138933002Y-89040263D01*
X138933001Y-89040264D01*
X138866434Y-89084742D01*
X138866431Y-89084744D01*
X138862423Y-89087423D01*
X138859744Y-89091431D01*
X138859742Y-89091434D01*
X138815264Y-89158001D01*
X138812583Y-89162014D01*
X138811642Y-89166742D01*
X138811641Y-89166746D01*
X138797460Y-89238045D01*
X138795082Y-89250000D01*
X137445500Y-89250000D01*
X137445500Y-89004500D01*
X145571082Y-89004500D01*
X145572023Y-89009231D01*
X145587641Y-89087753D01*
X145587642Y-89087755D01*
X145588583Y-89092486D01*
X145613502Y-89129781D01*
X145632358Y-89158001D01*
X145638423Y-89167077D01*
X145713014Y-89216917D01*
X145723467Y-89218996D01*
X145750749Y-89234744D01*
X145762806Y-89263847D01*
X145754655Y-89294275D01*
X145747749Y-89304610D01*
X145747746Y-89304616D01*
X145745068Y-89308625D01*
X145744127Y-89313353D01*
X145744126Y-89313357D01*
X145731518Y-89376746D01*
X145727567Y-89396611D01*
X145728508Y-89401342D01*
X145744126Y-89479864D01*
X145744127Y-89479866D01*
X145745068Y-89484597D01*
X145747749Y-89488609D01*
X145784260Y-89543253D01*
X145794908Y-89559188D01*
X145846615Y-89593737D01*
X145865791Y-89618728D01*
X145865792Y-89650229D01*
X145846615Y-89675221D01*
X145786934Y-89715098D01*
X145786931Y-89715100D01*
X145782923Y-89717779D01*
X145780244Y-89721787D01*
X145780242Y-89721790D01*
X145735764Y-89788357D01*
X145733083Y-89792370D01*
X145732142Y-89797098D01*
X145732141Y-89797102D01*
X145721091Y-89852658D01*
X145715582Y-89880356D01*
X145716523Y-89885087D01*
X145732141Y-89963609D01*
X145732142Y-89963611D01*
X145733083Y-89968342D01*
X145782923Y-90042933D01*
X145857514Y-90092773D01*
X145945500Y-90110274D01*
X146033486Y-90092773D01*
X146108077Y-90042933D01*
X146157917Y-89968342D01*
X146167718Y-89919063D01*
X146181130Y-89893973D01*
X146206222Y-89880564D01*
X146228434Y-89882754D01*
X146228601Y-89881917D01*
X146316587Y-89899418D01*
X146404573Y-89881917D01*
X146479164Y-89832077D01*
X146529004Y-89757486D01*
X146546505Y-89669500D01*
X146529004Y-89581514D01*
X146479164Y-89506923D01*
X146404573Y-89457083D01*
X146399842Y-89456142D01*
X146399840Y-89456141D01*
X146321318Y-89440523D01*
X146316587Y-89439582D01*
X146246610Y-89453501D01*
X146245021Y-89453817D01*
X146216710Y-89451028D01*
X146194720Y-89432981D01*
X146186462Y-89405758D01*
X146186462Y-89401342D01*
X146187403Y-89396611D01*
X146169902Y-89308625D01*
X146120062Y-89234034D01*
X146114147Y-89230082D01*
X146049482Y-89186874D01*
X146049481Y-89186873D01*
X146045471Y-89184194D01*
X146040740Y-89183253D01*
X146040738Y-89183252D01*
X146035010Y-89182113D01*
X146007730Y-89166361D01*
X145995677Y-89137257D01*
X146003831Y-89106832D01*
X146013417Y-89092486D01*
X146027835Y-89020000D01*
X146220582Y-89020000D01*
X146221523Y-89024731D01*
X146237141Y-89103253D01*
X146237142Y-89103255D01*
X146238083Y-89107986D01*
X146240764Y-89111998D01*
X146274885Y-89163065D01*
X146287923Y-89182577D01*
X146362514Y-89232417D01*
X146450500Y-89249918D01*
X146538486Y-89232417D01*
X146613077Y-89182577D01*
X146662917Y-89107986D01*
X146680418Y-89020000D01*
X146662917Y-88932014D01*
X146613077Y-88857423D01*
X146609783Y-88855222D01*
X146595734Y-88824214D01*
X146605756Y-88791179D01*
X146635072Y-88772951D01*
X146646510Y-88770676D01*
X146721101Y-88720836D01*
X146770941Y-88646245D01*
X146788442Y-88558259D01*
X146770941Y-88470273D01*
X146721101Y-88395682D01*
X146646510Y-88345842D01*
X146641779Y-88344901D01*
X146641777Y-88344900D01*
X146563255Y-88329282D01*
X146558524Y-88328341D01*
X146553793Y-88329282D01*
X146475270Y-88344900D01*
X146475266Y-88344901D01*
X146470538Y-88345842D01*
X146466526Y-88348522D01*
X146466525Y-88348523D01*
X146399958Y-88393001D01*
X146399955Y-88393003D01*
X146395947Y-88395682D01*
X146393268Y-88399690D01*
X146393266Y-88399693D01*
X146348788Y-88466260D01*
X146346107Y-88470273D01*
X146345166Y-88475001D01*
X146345165Y-88475005D01*
X146329547Y-88553528D01*
X146328606Y-88558259D01*
X146329547Y-88562990D01*
X146345165Y-88641512D01*
X146345166Y-88641514D01*
X146346107Y-88646245D01*
X146395947Y-88720836D01*
X146399239Y-88723036D01*
X146413289Y-88754042D01*
X146403269Y-88787076D01*
X146373956Y-88805306D01*
X146367249Y-88806640D01*
X146367243Y-88806642D01*
X146362514Y-88807583D01*
X146358502Y-88810263D01*
X146358501Y-88810264D01*
X146291934Y-88854742D01*
X146291931Y-88854744D01*
X146287923Y-88857423D01*
X146285244Y-88861431D01*
X146285242Y-88861434D01*
X146240764Y-88928001D01*
X146238083Y-88932014D01*
X146237142Y-88936742D01*
X146237141Y-88936746D01*
X146224606Y-88999769D01*
X146220582Y-89020000D01*
X146027835Y-89020000D01*
X146030918Y-89004500D01*
X146013417Y-88916514D01*
X145963577Y-88841923D01*
X145888986Y-88792083D01*
X145884255Y-88791142D01*
X145884253Y-88791141D01*
X145805731Y-88775523D01*
X145801000Y-88774582D01*
X145796269Y-88775523D01*
X145717746Y-88791141D01*
X145717742Y-88791142D01*
X145713014Y-88792083D01*
X145709002Y-88794763D01*
X145709001Y-88794764D01*
X145642434Y-88839242D01*
X145642431Y-88839244D01*
X145638423Y-88841923D01*
X145635744Y-88845931D01*
X145635742Y-88845934D01*
X145591264Y-88912501D01*
X145588583Y-88916514D01*
X145587642Y-88921242D01*
X145587641Y-88921246D01*
X145572023Y-88999769D01*
X145571082Y-89004500D01*
X137445500Y-89004500D01*
X137445500Y-88080474D01*
X138406762Y-88080474D01*
X138407703Y-88085205D01*
X138423321Y-88163727D01*
X138423322Y-88163729D01*
X138424263Y-88168460D01*
X138474103Y-88243051D01*
X138548694Y-88292891D01*
X138636680Y-88310392D01*
X138724666Y-88292891D01*
X138799257Y-88243051D01*
X138849097Y-88168460D01*
X138866598Y-88080474D01*
X138857608Y-88035277D01*
X141940046Y-88035277D01*
X141940987Y-88040008D01*
X141956605Y-88118530D01*
X141956606Y-88118532D01*
X141957547Y-88123263D01*
X142007387Y-88197854D01*
X142081978Y-88247694D01*
X142169964Y-88265195D01*
X142257950Y-88247694D01*
X142332541Y-88197854D01*
X142382381Y-88123263D01*
X142399882Y-88035277D01*
X142382381Y-87947291D01*
X142374503Y-87935500D01*
X145569582Y-87935500D01*
X145570523Y-87940231D01*
X145586141Y-88018753D01*
X145586142Y-88018755D01*
X145587083Y-88023486D01*
X145636923Y-88098077D01*
X145711514Y-88147917D01*
X145786304Y-88162793D01*
X145790998Y-88163727D01*
X145799500Y-88165418D01*
X145808002Y-88163727D01*
X145808974Y-88163533D01*
X145887486Y-88147917D01*
X145962077Y-88098077D01*
X146011917Y-88023486D01*
X146029418Y-87935500D01*
X146011917Y-87847514D01*
X145989832Y-87814462D01*
X145981575Y-87787240D01*
X145989833Y-87760017D01*
X146011824Y-87741970D01*
X146040135Y-87739182D01*
X146069266Y-87744977D01*
X146069269Y-87744977D01*
X146074000Y-87745918D01*
X146161986Y-87728417D01*
X146236577Y-87678577D01*
X146286417Y-87603986D01*
X146303918Y-87516000D01*
X146286417Y-87428014D01*
X146236577Y-87353423D01*
X146232322Y-87350580D01*
X146165998Y-87306264D01*
X146165999Y-87306264D01*
X146161986Y-87303583D01*
X146157255Y-87302642D01*
X146157253Y-87302641D01*
X146078731Y-87287023D01*
X146074000Y-87286082D01*
X146069269Y-87287023D01*
X145990746Y-87302641D01*
X145990742Y-87302642D01*
X145986014Y-87303583D01*
X145982002Y-87306263D01*
X145982001Y-87306264D01*
X145915434Y-87350742D01*
X145915431Y-87350744D01*
X145911423Y-87353423D01*
X145908744Y-87357431D01*
X145908742Y-87357434D01*
X145864264Y-87424001D01*
X145861583Y-87428014D01*
X145860642Y-87432742D01*
X145860641Y-87432746D01*
X145859146Y-87440264D01*
X145844082Y-87516000D01*
X145845023Y-87520731D01*
X145860641Y-87599253D01*
X145860642Y-87599255D01*
X145861583Y-87603986D01*
X145864264Y-87607998D01*
X145883666Y-87637036D01*
X145890982Y-87673819D01*
X145870147Y-87705001D01*
X145833365Y-87712318D01*
X145804231Y-87706523D01*
X145799500Y-87705582D01*
X145794769Y-87706523D01*
X145716246Y-87722141D01*
X145716242Y-87722142D01*
X145711514Y-87723083D01*
X145707502Y-87725763D01*
X145707501Y-87725764D01*
X145640934Y-87770242D01*
X145640931Y-87770244D01*
X145636923Y-87772923D01*
X145634244Y-87776931D01*
X145634242Y-87776934D01*
X145589764Y-87843501D01*
X145587083Y-87847514D01*
X145586142Y-87852242D01*
X145586141Y-87852246D01*
X145570523Y-87930769D01*
X145569582Y-87935500D01*
X142374503Y-87935500D01*
X142332541Y-87872700D01*
X142325592Y-87868057D01*
X142294847Y-87847514D01*
X142257950Y-87822860D01*
X142253219Y-87821919D01*
X142253217Y-87821918D01*
X142174695Y-87806300D01*
X142169964Y-87805359D01*
X142165233Y-87806300D01*
X142086710Y-87821918D01*
X142086706Y-87821919D01*
X142081978Y-87822860D01*
X142077966Y-87825540D01*
X142077965Y-87825541D01*
X142011398Y-87870019D01*
X142011395Y-87870021D01*
X142007387Y-87872700D01*
X142004708Y-87876708D01*
X142004706Y-87876711D01*
X141965425Y-87935500D01*
X141957547Y-87947291D01*
X141956606Y-87952019D01*
X141956605Y-87952023D01*
X141943333Y-88018753D01*
X141940046Y-88035277D01*
X138857608Y-88035277D01*
X138849097Y-87992488D01*
X138799257Y-87917897D01*
X138724666Y-87868057D01*
X138719935Y-87867116D01*
X138719933Y-87867115D01*
X138641411Y-87851497D01*
X138636680Y-87850556D01*
X138631949Y-87851497D01*
X138553426Y-87867115D01*
X138553422Y-87867116D01*
X138548694Y-87868057D01*
X138544682Y-87870737D01*
X138544681Y-87870738D01*
X138478114Y-87915216D01*
X138478111Y-87915218D01*
X138474103Y-87917897D01*
X138471424Y-87921905D01*
X138471422Y-87921908D01*
X138426944Y-87988475D01*
X138424263Y-87992488D01*
X138423322Y-87997216D01*
X138423321Y-87997220D01*
X138418097Y-88023486D01*
X138406762Y-88080474D01*
X137445500Y-88080474D01*
X137445500Y-87650000D01*
X141247082Y-87650000D01*
X141248023Y-87654731D01*
X141263641Y-87733253D01*
X141263642Y-87733255D01*
X141264583Y-87737986D01*
X141269774Y-87745755D01*
X141300952Y-87792417D01*
X141314423Y-87812577D01*
X141389014Y-87862417D01*
X141477000Y-87879918D01*
X141564986Y-87862417D01*
X141639577Y-87812577D01*
X141689417Y-87737986D01*
X141706918Y-87650000D01*
X141692995Y-87580000D01*
X142945332Y-87580000D01*
X142946273Y-87584731D01*
X142961891Y-87663253D01*
X142961892Y-87663255D01*
X142962833Y-87667986D01*
X142987566Y-87705001D01*
X143003211Y-87728417D01*
X143012673Y-87742577D01*
X143087264Y-87792417D01*
X143175250Y-87809918D01*
X143263236Y-87792417D01*
X143337827Y-87742577D01*
X143387667Y-87667986D01*
X143405069Y-87580498D01*
X144579582Y-87580498D01*
X144580523Y-87585229D01*
X144596141Y-87663751D01*
X144596142Y-87663753D01*
X144597083Y-87668484D01*
X144599764Y-87672496D01*
X144643909Y-87738565D01*
X144646923Y-87743075D01*
X144721514Y-87792915D01*
X144809500Y-87810416D01*
X144897486Y-87792915D01*
X144972077Y-87743075D01*
X145021917Y-87668484D01*
X145039418Y-87580498D01*
X145021917Y-87492512D01*
X144972077Y-87417921D01*
X144967319Y-87414742D01*
X144901498Y-87370762D01*
X144901499Y-87370762D01*
X144897486Y-87368081D01*
X144892755Y-87367140D01*
X144892753Y-87367139D01*
X144814231Y-87351521D01*
X144809500Y-87350580D01*
X144804769Y-87351521D01*
X144726246Y-87367139D01*
X144726242Y-87367140D01*
X144721514Y-87368081D01*
X144717502Y-87370761D01*
X144717501Y-87370762D01*
X144650934Y-87415240D01*
X144650931Y-87415242D01*
X144646923Y-87417921D01*
X144644244Y-87421929D01*
X144644242Y-87421932D01*
X144600483Y-87487423D01*
X144597083Y-87492512D01*
X144596142Y-87497240D01*
X144596141Y-87497244D01*
X144582317Y-87566746D01*
X144579582Y-87580498D01*
X143405069Y-87580498D01*
X143405168Y-87580000D01*
X143387667Y-87492014D01*
X143337827Y-87417423D01*
X143263236Y-87367583D01*
X143258505Y-87366642D01*
X143258503Y-87366641D01*
X143179981Y-87351023D01*
X143175250Y-87350082D01*
X143170519Y-87351023D01*
X143091996Y-87366641D01*
X143091992Y-87366642D01*
X143087264Y-87367583D01*
X143083252Y-87370263D01*
X143083251Y-87370264D01*
X143016684Y-87414742D01*
X143016681Y-87414744D01*
X143012673Y-87417423D01*
X143009994Y-87421431D01*
X143009992Y-87421434D01*
X142965514Y-87488001D01*
X142962833Y-87492014D01*
X142961892Y-87496742D01*
X142961891Y-87496746D01*
X142947968Y-87566746D01*
X142945332Y-87580000D01*
X141692995Y-87580000D01*
X141689417Y-87562014D01*
X141639577Y-87487423D01*
X141564986Y-87437583D01*
X141560255Y-87436642D01*
X141560253Y-87436641D01*
X141481731Y-87421023D01*
X141477000Y-87420082D01*
X141472269Y-87421023D01*
X141393746Y-87436641D01*
X141393742Y-87436642D01*
X141389014Y-87437583D01*
X141385002Y-87440263D01*
X141385001Y-87440264D01*
X141318434Y-87484742D01*
X141318431Y-87484744D01*
X141314423Y-87487423D01*
X141311744Y-87491431D01*
X141311742Y-87491434D01*
X141292167Y-87520731D01*
X141264583Y-87562014D01*
X141263642Y-87566742D01*
X141263641Y-87566746D01*
X141256234Y-87603986D01*
X141247082Y-87650000D01*
X137445500Y-87650000D01*
X137445500Y-86900000D01*
X140545082Y-86900000D01*
X140546023Y-86904731D01*
X140561641Y-86983253D01*
X140561642Y-86983255D01*
X140562583Y-86987986D01*
X140612423Y-87062577D01*
X140687014Y-87112417D01*
X140775000Y-87129918D01*
X140862986Y-87112417D01*
X140937577Y-87062577D01*
X140987417Y-86987986D01*
X140996962Y-86940000D01*
X146195082Y-86940000D01*
X146196023Y-86944731D01*
X146211641Y-87023253D01*
X146211642Y-87023255D01*
X146212583Y-87027986D01*
X146262423Y-87102577D01*
X146337014Y-87152417D01*
X146425000Y-87169918D01*
X146512986Y-87152417D01*
X146587577Y-87102577D01*
X146637417Y-87027986D01*
X146654918Y-86940000D01*
X146637417Y-86852014D01*
X146587577Y-86777423D01*
X146578754Y-86771528D01*
X146550281Y-86752503D01*
X146512986Y-86727583D01*
X146508255Y-86726642D01*
X146508253Y-86726641D01*
X146429731Y-86711023D01*
X146425000Y-86710082D01*
X146420269Y-86711023D01*
X146341746Y-86726641D01*
X146341742Y-86726642D01*
X146337014Y-86727583D01*
X146333002Y-86730263D01*
X146333001Y-86730264D01*
X146266434Y-86774742D01*
X146266431Y-86774744D01*
X146262423Y-86777423D01*
X146259744Y-86781431D01*
X146259742Y-86781434D01*
X146236148Y-86816746D01*
X146212583Y-86852014D01*
X146211642Y-86856742D01*
X146211641Y-86856746D01*
X146203979Y-86895269D01*
X146195082Y-86940000D01*
X140996962Y-86940000D01*
X141004918Y-86900000D01*
X140987417Y-86812014D01*
X140937577Y-86737423D01*
X140922850Y-86727583D01*
X140900281Y-86712502D01*
X140862986Y-86687583D01*
X140858255Y-86686642D01*
X140858253Y-86686641D01*
X140779731Y-86671023D01*
X140775000Y-86670082D01*
X140770269Y-86671023D01*
X140691746Y-86686641D01*
X140691742Y-86686642D01*
X140687014Y-86687583D01*
X140683002Y-86690263D01*
X140683001Y-86690264D01*
X140616434Y-86734742D01*
X140616431Y-86734744D01*
X140612423Y-86737423D01*
X140609744Y-86741431D01*
X140609742Y-86741434D01*
X140565264Y-86808001D01*
X140562583Y-86812014D01*
X140561642Y-86816742D01*
X140561641Y-86816746D01*
X140546023Y-86895269D01*
X140545082Y-86900000D01*
X137445500Y-86900000D01*
X137445500Y-86400000D01*
X140145082Y-86400000D01*
X140146023Y-86404731D01*
X140161641Y-86483253D01*
X140161642Y-86483255D01*
X140162583Y-86487986D01*
X140212423Y-86562577D01*
X140287014Y-86612417D01*
X140375000Y-86629918D01*
X140460241Y-86612963D01*
X142928045Y-86612963D01*
X142928986Y-86617694D01*
X142944604Y-86696216D01*
X142944605Y-86696218D01*
X142945546Y-86700949D01*
X142995386Y-86775540D01*
X143069977Y-86825380D01*
X143157963Y-86842881D01*
X143245949Y-86825380D01*
X143320540Y-86775540D01*
X143370380Y-86700949D01*
X143387881Y-86612963D01*
X143370380Y-86524977D01*
X143320540Y-86450386D01*
X143269483Y-86416271D01*
X144380556Y-86416271D01*
X144381497Y-86421002D01*
X144397115Y-86499524D01*
X144397116Y-86499526D01*
X144398057Y-86504257D01*
X144447897Y-86578848D01*
X144522488Y-86628688D01*
X144610474Y-86646189D01*
X144698460Y-86628688D01*
X144773051Y-86578848D01*
X144822891Y-86504257D01*
X144840392Y-86416271D01*
X144822891Y-86328285D01*
X144773051Y-86253694D01*
X144698460Y-86203854D01*
X144693729Y-86202913D01*
X144693727Y-86202912D01*
X144615205Y-86187294D01*
X144610474Y-86186353D01*
X144605743Y-86187294D01*
X144527220Y-86202912D01*
X144527216Y-86202913D01*
X144522488Y-86203854D01*
X144518476Y-86206534D01*
X144518475Y-86206535D01*
X144451908Y-86251013D01*
X144451905Y-86251015D01*
X144447897Y-86253694D01*
X144445218Y-86257702D01*
X144445216Y-86257705D01*
X144405767Y-86316746D01*
X144398057Y-86328285D01*
X144397116Y-86333013D01*
X144397115Y-86333017D01*
X144382851Y-86404731D01*
X144380556Y-86416271D01*
X143269483Y-86416271D01*
X143245949Y-86400546D01*
X143241218Y-86399605D01*
X143241216Y-86399604D01*
X143162694Y-86383986D01*
X143157963Y-86383045D01*
X143153232Y-86383986D01*
X143074709Y-86399604D01*
X143074705Y-86399605D01*
X143069977Y-86400546D01*
X143065965Y-86403226D01*
X143065964Y-86403227D01*
X142999397Y-86447705D01*
X142999394Y-86447707D01*
X142995386Y-86450386D01*
X142992707Y-86454394D01*
X142992705Y-86454397D01*
X142948227Y-86520964D01*
X142945546Y-86524977D01*
X142944605Y-86529705D01*
X142944604Y-86529709D01*
X142928986Y-86608232D01*
X142928045Y-86612963D01*
X140460241Y-86612963D01*
X140462986Y-86612417D01*
X140537577Y-86562577D01*
X140587417Y-86487986D01*
X140604918Y-86400000D01*
X140587417Y-86312014D01*
X140537577Y-86237423D01*
X140462986Y-86187583D01*
X140458255Y-86186642D01*
X140458253Y-86186641D01*
X140379731Y-86171023D01*
X140375000Y-86170082D01*
X140370269Y-86171023D01*
X140291746Y-86186641D01*
X140291742Y-86186642D01*
X140287014Y-86187583D01*
X140283002Y-86190263D01*
X140283001Y-86190264D01*
X140216434Y-86234742D01*
X140216431Y-86234744D01*
X140212423Y-86237423D01*
X140209744Y-86241431D01*
X140209742Y-86241434D01*
X140167516Y-86304631D01*
X140162583Y-86312014D01*
X140161642Y-86316742D01*
X140161641Y-86316746D01*
X140153287Y-86358749D01*
X140145082Y-86400000D01*
X137445500Y-86400000D01*
X137445500Y-86204110D01*
X137445500Y-86201969D01*
X137445166Y-86200079D01*
X137445000Y-86196251D01*
X137445000Y-85890001D01*
X137895081Y-85890001D01*
X137896022Y-85894732D01*
X137911640Y-85973254D01*
X137911641Y-85973256D01*
X137912582Y-85977987D01*
X137915263Y-85981999D01*
X137954474Y-86040684D01*
X137962422Y-86052578D01*
X138037013Y-86102418D01*
X138124999Y-86119919D01*
X138212985Y-86102418D01*
X138287576Y-86052578D01*
X138337416Y-85977987D01*
X138354917Y-85890001D01*
X138337416Y-85802015D01*
X138287576Y-85727424D01*
X138273069Y-85717731D01*
X138265989Y-85713000D01*
X144803082Y-85713000D01*
X144804023Y-85717731D01*
X144819641Y-85796253D01*
X144819642Y-85796255D01*
X144820583Y-85800986D01*
X144870423Y-85875577D01*
X144874434Y-85878257D01*
X144874435Y-85878258D01*
X144914660Y-85905135D01*
X144932707Y-85927123D01*
X144935497Y-85955432D01*
X144924186Y-85976598D01*
X144924484Y-85976796D01*
X144924484Y-85976797D01*
X144921805Y-85980805D01*
X144921803Y-85980808D01*
X144877325Y-86047375D01*
X144874644Y-86051388D01*
X144873703Y-86056116D01*
X144873702Y-86056120D01*
X144863298Y-86108428D01*
X144857143Y-86139374D01*
X144858084Y-86144105D01*
X144873702Y-86222627D01*
X144873703Y-86222629D01*
X144874644Y-86227360D01*
X144924484Y-86301951D01*
X144999075Y-86351791D01*
X145087061Y-86369292D01*
X145175047Y-86351791D01*
X145249638Y-86301951D01*
X145299478Y-86227360D01*
X145315595Y-86146332D01*
X145663450Y-86146332D01*
X145664391Y-86151063D01*
X145680009Y-86229585D01*
X145680010Y-86229587D01*
X145680951Y-86234318D01*
X145693898Y-86253694D01*
X145727932Y-86304631D01*
X145730791Y-86308909D01*
X145805382Y-86358749D01*
X145893368Y-86376250D01*
X145981354Y-86358749D01*
X146055945Y-86308909D01*
X146079711Y-86273339D01*
X146101701Y-86255293D01*
X146130012Y-86252504D01*
X146155101Y-86265915D01*
X146168512Y-86291004D01*
X146177532Y-86336354D01*
X146177533Y-86336356D01*
X146178474Y-86341087D01*
X146190904Y-86359690D01*
X146219994Y-86403227D01*
X146228314Y-86415678D01*
X146302905Y-86465518D01*
X146390891Y-86483019D01*
X146478877Y-86465518D01*
X146553468Y-86415678D01*
X146603308Y-86341087D01*
X146620809Y-86253101D01*
X146603308Y-86165115D01*
X146553468Y-86090524D01*
X146539841Y-86081419D01*
X146505310Y-86058346D01*
X146478877Y-86040684D01*
X146474146Y-86039743D01*
X146474144Y-86039742D01*
X146395622Y-86024124D01*
X146390891Y-86023183D01*
X146386160Y-86024124D01*
X146307637Y-86039742D01*
X146307633Y-86039743D01*
X146302905Y-86040684D01*
X146298893Y-86043364D01*
X146298892Y-86043365D01*
X146232325Y-86087843D01*
X146232322Y-86087845D01*
X146228314Y-86090524D01*
X146225635Y-86094532D01*
X146225632Y-86094536D01*
X146204546Y-86126093D01*
X146173363Y-86146928D01*
X146136581Y-86139610D01*
X146115746Y-86108429D01*
X146105785Y-86058346D01*
X146055945Y-85983755D01*
X146051534Y-85980808D01*
X146018649Y-85958835D01*
X145981354Y-85933915D01*
X145976623Y-85932974D01*
X145976621Y-85932973D01*
X145898099Y-85917355D01*
X145893368Y-85916414D01*
X145888637Y-85917355D01*
X145810114Y-85932973D01*
X145810110Y-85932974D01*
X145805382Y-85933915D01*
X145801370Y-85936595D01*
X145801369Y-85936596D01*
X145734802Y-85981074D01*
X145734799Y-85981076D01*
X145730791Y-85983755D01*
X145728112Y-85987763D01*
X145728110Y-85987766D01*
X145685600Y-86051388D01*
X145680951Y-86058346D01*
X145680010Y-86063074D01*
X145680009Y-86063078D01*
X145665775Y-86134643D01*
X145663450Y-86146332D01*
X145315595Y-86146332D01*
X145316979Y-86139374D01*
X145299478Y-86051388D01*
X145249638Y-85976797D01*
X145205398Y-85947236D01*
X145187351Y-85925246D01*
X145184564Y-85896932D01*
X145195875Y-85875776D01*
X145195577Y-85875577D01*
X145195577Y-85875576D01*
X145245417Y-85800986D01*
X145262918Y-85713000D01*
X145245417Y-85625014D01*
X145195577Y-85550423D01*
X145120986Y-85500583D01*
X145116255Y-85499642D01*
X145116253Y-85499641D01*
X145037731Y-85484023D01*
X145033000Y-85483082D01*
X145028269Y-85484023D01*
X144949746Y-85499641D01*
X144949742Y-85499642D01*
X144945014Y-85500583D01*
X144941002Y-85503263D01*
X144941001Y-85503264D01*
X144874434Y-85547742D01*
X144874431Y-85547744D01*
X144870423Y-85550423D01*
X144867744Y-85554431D01*
X144867742Y-85554434D01*
X144823264Y-85621001D01*
X144820583Y-85625014D01*
X144819642Y-85629742D01*
X144819641Y-85629746D01*
X144804837Y-85704177D01*
X144803082Y-85713000D01*
X138265989Y-85713000D01*
X138228000Y-85687617D01*
X138212985Y-85677584D01*
X138208254Y-85676643D01*
X138208252Y-85676642D01*
X138129730Y-85661024D01*
X138124999Y-85660083D01*
X138120268Y-85661024D01*
X138041745Y-85676642D01*
X138041741Y-85676643D01*
X138037013Y-85677584D01*
X138033001Y-85680264D01*
X138033000Y-85680265D01*
X137966433Y-85724743D01*
X137966430Y-85724745D01*
X137962422Y-85727424D01*
X137959743Y-85731432D01*
X137959741Y-85731435D01*
X137916432Y-85796253D01*
X137912582Y-85802015D01*
X137911641Y-85806743D01*
X137911640Y-85806747D01*
X137898749Y-85871560D01*
X137895081Y-85890001D01*
X137445000Y-85890001D01*
X137445000Y-85475200D01*
X138410501Y-85475200D01*
X138411442Y-85479931D01*
X138427060Y-85558453D01*
X138427061Y-85558455D01*
X138428002Y-85563186D01*
X138448162Y-85593358D01*
X138466632Y-85621001D01*
X138477842Y-85637777D01*
X138552433Y-85687617D01*
X138640419Y-85705118D01*
X138728405Y-85687617D01*
X138802996Y-85637777D01*
X138852836Y-85563186D01*
X138870337Y-85475200D01*
X138852836Y-85387214D01*
X138848016Y-85380000D01*
X143795082Y-85380000D01*
X143796023Y-85384731D01*
X143811641Y-85463253D01*
X143811642Y-85463255D01*
X143812583Y-85467986D01*
X143862423Y-85542577D01*
X143937014Y-85592417D01*
X144025000Y-85609918D01*
X144112986Y-85592417D01*
X144187577Y-85542577D01*
X144237417Y-85467986D01*
X144254918Y-85380000D01*
X144237417Y-85292014D01*
X144187577Y-85217423D01*
X144112986Y-85167583D01*
X144108255Y-85166642D01*
X144108253Y-85166641D01*
X144029731Y-85151023D01*
X144025000Y-85150082D01*
X144020269Y-85151023D01*
X143941746Y-85166641D01*
X143941742Y-85166642D01*
X143937014Y-85167583D01*
X143933002Y-85170263D01*
X143933001Y-85170264D01*
X143866434Y-85214742D01*
X143866431Y-85214744D01*
X143862423Y-85217423D01*
X143859744Y-85221431D01*
X143859742Y-85221434D01*
X143832114Y-85262783D01*
X143812583Y-85292014D01*
X143811642Y-85296742D01*
X143811641Y-85296746D01*
X143796023Y-85375269D01*
X143795082Y-85380000D01*
X138848016Y-85380000D01*
X138802996Y-85312623D01*
X138779234Y-85296746D01*
X138732417Y-85265464D01*
X138732418Y-85265464D01*
X138728405Y-85262783D01*
X138723674Y-85261842D01*
X138723672Y-85261841D01*
X138645150Y-85246223D01*
X138640419Y-85245282D01*
X138635688Y-85246223D01*
X138557165Y-85261841D01*
X138557161Y-85261842D01*
X138552433Y-85262783D01*
X138548421Y-85265463D01*
X138548420Y-85265464D01*
X138481853Y-85309942D01*
X138481850Y-85309944D01*
X138477842Y-85312623D01*
X138475163Y-85316631D01*
X138475161Y-85316634D01*
X138435983Y-85375269D01*
X138428002Y-85387214D01*
X138427061Y-85391942D01*
X138427060Y-85391946D01*
X138412877Y-85463253D01*
X138410501Y-85475200D01*
X137445000Y-85475200D01*
X137445000Y-84655700D01*
X137691870Y-84655700D01*
X137692811Y-84660431D01*
X137708429Y-84738953D01*
X137708430Y-84738955D01*
X137709371Y-84743686D01*
X137721295Y-84761532D01*
X137751523Y-84806772D01*
X137759211Y-84818277D01*
X137833802Y-84868117D01*
X137921788Y-84885618D01*
X138009774Y-84868117D01*
X138084365Y-84818277D01*
X138117320Y-84768956D01*
X138139309Y-84750910D01*
X138167620Y-84748121D01*
X138191177Y-84760713D01*
X138192423Y-84762577D01*
X138267014Y-84812417D01*
X138355000Y-84829918D01*
X138442986Y-84812417D01*
X138451429Y-84806775D01*
X138478651Y-84798515D01*
X138505875Y-84806772D01*
X138522358Y-84826855D01*
X138522583Y-84827986D01*
X138525263Y-84831997D01*
X138525264Y-84831999D01*
X138565741Y-84892577D01*
X138572423Y-84902577D01*
X138647014Y-84952417D01*
X138735000Y-84969918D01*
X138822986Y-84952417D01*
X138890260Y-84907465D01*
X138917483Y-84899208D01*
X138944706Y-84907466D01*
X138997014Y-84942417D01*
X139085000Y-84959918D01*
X139172986Y-84942417D01*
X139232777Y-84902465D01*
X139260000Y-84894208D01*
X139287222Y-84902465D01*
X139347014Y-84942417D01*
X139435000Y-84959918D01*
X139522986Y-84942417D01*
X139597577Y-84892577D01*
X139647417Y-84817986D01*
X139664918Y-84730000D01*
X139650100Y-84655502D01*
X140663431Y-84655502D01*
X140664372Y-84660233D01*
X140679990Y-84738755D01*
X140679991Y-84738757D01*
X140680932Y-84743488D01*
X140683613Y-84747500D01*
X140727617Y-84813358D01*
X140730772Y-84818079D01*
X140805363Y-84867919D01*
X140893349Y-84885420D01*
X140981335Y-84867919D01*
X141055926Y-84818079D01*
X141105766Y-84743488D01*
X141123267Y-84655502D01*
X141105766Y-84567516D01*
X141055926Y-84492925D01*
X141029099Y-84475000D01*
X142295082Y-84475000D01*
X142296023Y-84479731D01*
X142311641Y-84558253D01*
X142311642Y-84558255D01*
X142312583Y-84562986D01*
X142362423Y-84637577D01*
X142437014Y-84687417D01*
X142525000Y-84704918D01*
X142612986Y-84687417D01*
X142687577Y-84637577D01*
X142737417Y-84562986D01*
X142754918Y-84475000D01*
X142737417Y-84387014D01*
X142687577Y-84312423D01*
X142612986Y-84262583D01*
X142608255Y-84261642D01*
X142608253Y-84261641D01*
X142529731Y-84246023D01*
X142525000Y-84245082D01*
X142520269Y-84246023D01*
X142441746Y-84261641D01*
X142441742Y-84261642D01*
X142437014Y-84262583D01*
X142433002Y-84265263D01*
X142433001Y-84265264D01*
X142366434Y-84309742D01*
X142366431Y-84309744D01*
X142362423Y-84312423D01*
X142359744Y-84316431D01*
X142359742Y-84316434D01*
X142315264Y-84383001D01*
X142312583Y-84387014D01*
X142311642Y-84391742D01*
X142311641Y-84391746D01*
X142301254Y-84443969D01*
X142295082Y-84475000D01*
X141029099Y-84475000D01*
X140981335Y-84443085D01*
X140976604Y-84442144D01*
X140976602Y-84442143D01*
X140898080Y-84426525D01*
X140893349Y-84425584D01*
X140888618Y-84426525D01*
X140810095Y-84442143D01*
X140810091Y-84442144D01*
X140805363Y-84443085D01*
X140801351Y-84445765D01*
X140801350Y-84445766D01*
X140734783Y-84490244D01*
X140734780Y-84490246D01*
X140730772Y-84492925D01*
X140728093Y-84496933D01*
X140728091Y-84496936D01*
X140683613Y-84563503D01*
X140680932Y-84567516D01*
X140679991Y-84572244D01*
X140679990Y-84572248D01*
X140667794Y-84633565D01*
X140663431Y-84655502D01*
X139650100Y-84655502D01*
X139647417Y-84642014D01*
X139597577Y-84567423D01*
X139591710Y-84563503D01*
X139541966Y-84530265D01*
X139522986Y-84517583D01*
X139518255Y-84516642D01*
X139518253Y-84516641D01*
X139439731Y-84501023D01*
X139435000Y-84500082D01*
X139430269Y-84501023D01*
X139351746Y-84516641D01*
X139351742Y-84516642D01*
X139347014Y-84517583D01*
X139343003Y-84520262D01*
X139342998Y-84520265D01*
X139287222Y-84557533D01*
X139260000Y-84565791D01*
X139232778Y-84557533D01*
X139177001Y-84520265D01*
X139176998Y-84520263D01*
X139172986Y-84517583D01*
X139168255Y-84516642D01*
X139168253Y-84516641D01*
X139089731Y-84501023D01*
X139085000Y-84500082D01*
X139080269Y-84501023D01*
X139001746Y-84516641D01*
X139001742Y-84516642D01*
X138997014Y-84517583D01*
X138993003Y-84520262D01*
X138992998Y-84520265D01*
X138929738Y-84562533D01*
X138902516Y-84570791D01*
X138875293Y-84562533D01*
X138831428Y-84533224D01*
X138822986Y-84527583D01*
X138818255Y-84526642D01*
X138818253Y-84526641D01*
X138739731Y-84511023D01*
X138735000Y-84510082D01*
X138730269Y-84511023D01*
X138651746Y-84526641D01*
X138651742Y-84526642D01*
X138647014Y-84527583D01*
X138643005Y-84530261D01*
X138642997Y-84530265D01*
X138638563Y-84533228D01*
X138611341Y-84541483D01*
X138584120Y-84533224D01*
X138567641Y-84513143D01*
X138567417Y-84512014D01*
X138517577Y-84437423D01*
X138501563Y-84426723D01*
X138446998Y-84390264D01*
X138446999Y-84390264D01*
X138442986Y-84387583D01*
X138438255Y-84386642D01*
X138438253Y-84386641D01*
X138359731Y-84371023D01*
X138355000Y-84370082D01*
X138350269Y-84371023D01*
X138271746Y-84386641D01*
X138271742Y-84386642D01*
X138267014Y-84387583D01*
X138263002Y-84390263D01*
X138263001Y-84390264D01*
X138196434Y-84434742D01*
X138196431Y-84434744D01*
X138192423Y-84437423D01*
X138189744Y-84441431D01*
X138189744Y-84441432D01*
X138159468Y-84486743D01*
X138137477Y-84504789D01*
X138109166Y-84507577D01*
X138085609Y-84494985D01*
X138084365Y-84493123D01*
X138080056Y-84490244D01*
X138013786Y-84445964D01*
X138013787Y-84445964D01*
X138009774Y-84443283D01*
X138005043Y-84442342D01*
X138005041Y-84442341D01*
X137926519Y-84426723D01*
X137921788Y-84425782D01*
X137917057Y-84426723D01*
X137838534Y-84442341D01*
X137838530Y-84442342D01*
X137833802Y-84443283D01*
X137829790Y-84445963D01*
X137829789Y-84445964D01*
X137763222Y-84490442D01*
X137763219Y-84490444D01*
X137759211Y-84493123D01*
X137756532Y-84497131D01*
X137756530Y-84497134D01*
X137712052Y-84563701D01*
X137709371Y-84567714D01*
X137708430Y-84572442D01*
X137708429Y-84572446D01*
X137704736Y-84591015D01*
X137691870Y-84655700D01*
X137445000Y-84655700D01*
X137445000Y-83453749D01*
X137445166Y-83449920D01*
X137445500Y-83448031D01*
X137445500Y-83350000D01*
X137445500Y-83317712D01*
X137445500Y-82752407D01*
X137445736Y-82747605D01*
X137448985Y-82714618D01*
X137459044Y-82612475D01*
X137460914Y-82603074D01*
X137499631Y-82475443D01*
X137503304Y-82466577D01*
X137566172Y-82348959D01*
X137571499Y-82340987D01*
X137656108Y-82237891D01*
X137662891Y-82231108D01*
X137765987Y-82146499D01*
X137773959Y-82141172D01*
X137891579Y-82078302D01*
X137900443Y-82074631D01*
X138028074Y-82035914D01*
X138037475Y-82034044D01*
X138158029Y-82022171D01*
X138172605Y-82020736D01*
X138177407Y-82020500D01*
X138207288Y-82020500D01*
X140369931Y-82020500D01*
X140402239Y-82032660D01*
X140418512Y-82063104D01*
X140410673Y-82096723D01*
X140400264Y-82112300D01*
X140400262Y-82112304D01*
X140397583Y-82116314D01*
X140396642Y-82121042D01*
X140396641Y-82121046D01*
X140382890Y-82190184D01*
X140380082Y-82204300D01*
X140381023Y-82209031D01*
X140396641Y-82287553D01*
X140396642Y-82287555D01*
X140397583Y-82292286D01*
X140416147Y-82320069D01*
X140435454Y-82348965D01*
X140447423Y-82366877D01*
X140522014Y-82416717D01*
X140610000Y-82434218D01*
X140697986Y-82416717D01*
X140772577Y-82366877D01*
X140822417Y-82292286D01*
X140839918Y-82204300D01*
X140822417Y-82116314D01*
X140809327Y-82096723D01*
X140801488Y-82063104D01*
X140817761Y-82032660D01*
X140850069Y-82020500D01*
X141780889Y-82020500D01*
X141783646Y-82020500D01*
X141897998Y-81994400D01*
X142003675Y-81943509D01*
X142005824Y-81941794D01*
X142005829Y-81941792D01*
X142044828Y-81910691D01*
X142075379Y-81900000D01*
X142974621Y-81900000D01*
X143005172Y-81910691D01*
G37*
%TD.AperFunction*%
%TA.AperFunction,Conductor*%
G36*
X159865148Y-65134852D02*
G01*
X159879500Y-65169500D01*
X159879500Y-124830500D01*
X159865148Y-124865148D01*
X159830500Y-124879500D01*
X100169500Y-124879500D01*
X100134852Y-124865148D01*
X100120500Y-124830500D01*
X100120500Y-98496945D01*
X115387018Y-98496945D01*
X115387312Y-98499122D01*
X115387313Y-98499124D01*
X115417268Y-98720263D01*
X115417269Y-98720268D01*
X115417563Y-98722437D01*
X115418238Y-98724514D01*
X115418240Y-98724523D01*
X115453891Y-98834243D01*
X115487880Y-98938851D01*
X115488917Y-98940779D01*
X115488921Y-98940787D01*
X115594670Y-99137301D01*
X115594674Y-99137308D01*
X115595710Y-99139232D01*
X115737585Y-99317138D01*
X115908948Y-99466853D01*
X116104289Y-99583564D01*
X116317330Y-99663520D01*
X116541224Y-99704150D01*
X116710671Y-99704150D01*
X116711775Y-99704150D01*
X116881635Y-99688862D01*
X117100986Y-99628325D01*
X117306003Y-99529595D01*
X117490095Y-99395843D01*
X117647347Y-99231371D01*
X117772705Y-99041463D01*
X117862138Y-98832223D01*
X117912773Y-98610377D01*
X117917867Y-98496945D01*
X118562018Y-98496945D01*
X118562312Y-98499122D01*
X118562313Y-98499124D01*
X118592268Y-98720263D01*
X118592269Y-98720268D01*
X118592563Y-98722437D01*
X118593238Y-98724514D01*
X118593240Y-98724523D01*
X118628891Y-98834243D01*
X118662880Y-98938851D01*
X118663917Y-98940779D01*
X118663921Y-98940787D01*
X118769670Y-99137301D01*
X118769674Y-99137308D01*
X118770710Y-99139232D01*
X118912585Y-99317138D01*
X119083948Y-99466853D01*
X119279289Y-99583564D01*
X119492330Y-99663520D01*
X119716224Y-99704150D01*
X119885671Y-99704150D01*
X119886775Y-99704150D01*
X120056635Y-99688862D01*
X120275986Y-99628325D01*
X120481003Y-99529595D01*
X120665095Y-99395843D01*
X120822347Y-99231371D01*
X120947705Y-99041463D01*
X121037138Y-98832223D01*
X121087773Y-98610377D01*
X121097982Y-98383055D01*
X121067437Y-98157563D01*
X120997120Y-97941149D01*
X120996078Y-97939212D01*
X120890329Y-97742698D01*
X120890326Y-97742694D01*
X120889290Y-97740768D01*
X120747415Y-97562862D01*
X120576052Y-97413147D01*
X120469443Y-97349451D01*
X120382601Y-97297565D01*
X120382599Y-97297564D01*
X120380711Y-97296436D01*
X120372811Y-97293471D01*
X120169736Y-97217255D01*
X120169732Y-97217253D01*
X120167670Y-97216480D01*
X120165510Y-97216088D01*
X120165503Y-97216086D01*
X119945938Y-97176242D01*
X119945934Y-97176241D01*
X119943776Y-97175850D01*
X119773225Y-97175850D01*
X119772144Y-97175947D01*
X119772128Y-97175948D01*
X119605552Y-97190941D01*
X119605550Y-97190941D01*
X119603365Y-97191138D01*
X119601256Y-97191719D01*
X119601245Y-97191722D01*
X119386131Y-97251090D01*
X119386123Y-97251092D01*
X119384014Y-97251675D01*
X119382046Y-97252622D01*
X119382037Y-97252626D01*
X119180976Y-97349451D01*
X119180967Y-97349456D01*
X119178997Y-97350405D01*
X119177228Y-97351690D01*
X119177220Y-97351695D01*
X118996683Y-97482864D01*
X118996674Y-97482871D01*
X118994905Y-97484157D01*
X118993388Y-97485743D01*
X118993383Y-97485748D01*
X118839175Y-97647036D01*
X118839169Y-97647042D01*
X118837653Y-97648629D01*
X118836443Y-97650461D01*
X118836439Y-97650467D01*
X118713507Y-97836699D01*
X118713501Y-97836709D01*
X118712295Y-97838537D01*
X118711435Y-97840547D01*
X118711429Y-97840560D01*
X118623725Y-98045756D01*
X118623722Y-98045763D01*
X118622862Y-98047777D01*
X118622374Y-98049910D01*
X118622372Y-98049920D01*
X118572717Y-98267475D01*
X118572227Y-98269623D01*
X118572128Y-98271814D01*
X118572128Y-98271819D01*
X118562116Y-98494747D01*
X118562116Y-98494754D01*
X118562018Y-98496945D01*
X117917867Y-98496945D01*
X117922982Y-98383055D01*
X117892437Y-98157563D01*
X117822120Y-97941149D01*
X117821078Y-97939212D01*
X117715329Y-97742698D01*
X117715326Y-97742694D01*
X117714290Y-97740768D01*
X117572415Y-97562862D01*
X117401052Y-97413147D01*
X117294443Y-97349451D01*
X117278625Y-97340000D01*
X117744592Y-97340000D01*
X117745534Y-97344736D01*
X117763092Y-97433007D01*
X117763093Y-97433009D01*
X117764034Y-97437740D01*
X117766713Y-97441750D01*
X117766714Y-97441751D01*
X117788058Y-97473696D01*
X117819399Y-97520601D01*
X117902260Y-97575966D01*
X118000000Y-97595408D01*
X118097740Y-97575966D01*
X118180601Y-97520601D01*
X118235966Y-97437740D01*
X118255408Y-97340000D01*
X118235966Y-97242260D01*
X118180601Y-97159399D01*
X118097740Y-97104034D01*
X118093009Y-97103093D01*
X118093007Y-97103092D01*
X118004736Y-97085534D01*
X118000000Y-97084592D01*
X117995264Y-97085534D01*
X117906992Y-97103092D01*
X117906988Y-97103093D01*
X117902260Y-97104034D01*
X117898250Y-97106712D01*
X117898248Y-97106714D01*
X117823410Y-97156718D01*
X117823407Y-97156720D01*
X117819399Y-97159399D01*
X117816720Y-97163407D01*
X117816718Y-97163410D01*
X117766714Y-97238248D01*
X117766712Y-97238250D01*
X117764034Y-97242260D01*
X117763093Y-97246988D01*
X117763092Y-97246992D01*
X117747395Y-97325910D01*
X117744592Y-97340000D01*
X117278625Y-97340000D01*
X117207601Y-97297565D01*
X117207599Y-97297564D01*
X117205711Y-97296436D01*
X117197811Y-97293471D01*
X116994736Y-97217255D01*
X116994732Y-97217253D01*
X116992670Y-97216480D01*
X116990510Y-97216088D01*
X116990503Y-97216086D01*
X116770938Y-97176242D01*
X116770934Y-97176241D01*
X116768776Y-97175850D01*
X116598225Y-97175850D01*
X116597144Y-97175947D01*
X116597128Y-97175948D01*
X116430552Y-97190941D01*
X116430550Y-97190941D01*
X116428365Y-97191138D01*
X116426256Y-97191719D01*
X116426245Y-97191722D01*
X116211131Y-97251090D01*
X116211123Y-97251092D01*
X116209014Y-97251675D01*
X116207046Y-97252622D01*
X116207037Y-97252626D01*
X116005976Y-97349451D01*
X116005967Y-97349456D01*
X116003997Y-97350405D01*
X116002228Y-97351690D01*
X116002220Y-97351695D01*
X115821683Y-97482864D01*
X115821674Y-97482871D01*
X115819905Y-97484157D01*
X115818388Y-97485743D01*
X115818383Y-97485748D01*
X115664175Y-97647036D01*
X115664169Y-97647042D01*
X115662653Y-97648629D01*
X115661443Y-97650461D01*
X115661439Y-97650467D01*
X115538507Y-97836699D01*
X115538501Y-97836709D01*
X115537295Y-97838537D01*
X115536435Y-97840547D01*
X115536429Y-97840560D01*
X115448725Y-98045756D01*
X115448722Y-98045763D01*
X115447862Y-98047777D01*
X115447374Y-98049910D01*
X115447372Y-98049920D01*
X115397717Y-98267475D01*
X115397227Y-98269623D01*
X115397128Y-98271814D01*
X115397128Y-98271819D01*
X115387116Y-98494747D01*
X115387116Y-98494754D01*
X115387018Y-98496945D01*
X100120500Y-98496945D01*
X100120500Y-96916000D01*
X114173064Y-96916000D01*
X114173483Y-96919183D01*
X114192303Y-97062137D01*
X114192304Y-97062141D01*
X114192723Y-97065322D01*
X114193951Y-97068287D01*
X114193952Y-97068290D01*
X114245079Y-97191722D01*
X114250359Y-97204468D01*
X114252311Y-97207012D01*
X114252314Y-97207017D01*
X114286133Y-97251090D01*
X114342045Y-97323955D01*
X114344593Y-97325910D01*
X114458982Y-97413685D01*
X114458985Y-97413687D01*
X114461532Y-97415641D01*
X114600678Y-97473277D01*
X114712508Y-97488000D01*
X114785892Y-97488000D01*
X114787492Y-97488000D01*
X114899322Y-97473277D01*
X115038468Y-97415641D01*
X115157955Y-97323955D01*
X115249641Y-97204468D01*
X115307277Y-97065322D01*
X115326936Y-96916000D01*
X115307277Y-96766678D01*
X115249641Y-96627532D01*
X115247687Y-96624985D01*
X115247685Y-96624982D01*
X115159910Y-96510593D01*
X115157955Y-96508045D01*
X115155406Y-96506089D01*
X115041017Y-96418314D01*
X115041012Y-96418311D01*
X115038468Y-96416359D01*
X115035499Y-96415129D01*
X114902290Y-96359952D01*
X114902287Y-96359951D01*
X114899322Y-96358723D01*
X114896141Y-96358304D01*
X114896137Y-96358303D01*
X114789076Y-96344208D01*
X114789067Y-96344207D01*
X114787492Y-96344000D01*
X114712508Y-96344000D01*
X114710933Y-96344207D01*
X114710923Y-96344208D01*
X114603862Y-96358303D01*
X114603856Y-96358304D01*
X114600678Y-96358723D01*
X114597714Y-96359950D01*
X114597709Y-96359952D01*
X114464500Y-96415129D01*
X114464496Y-96415131D01*
X114461532Y-96416359D01*
X114458990Y-96418308D01*
X114458982Y-96418314D01*
X114344593Y-96506089D01*
X114344589Y-96506092D01*
X114342045Y-96508045D01*
X114340092Y-96510589D01*
X114340089Y-96510593D01*
X114252314Y-96624982D01*
X114252308Y-96624990D01*
X114250359Y-96627532D01*
X114249131Y-96630496D01*
X114249129Y-96630500D01*
X114193952Y-96763709D01*
X114193950Y-96763714D01*
X114192723Y-96766678D01*
X114192304Y-96769856D01*
X114192303Y-96769862D01*
X114173483Y-96912817D01*
X114173064Y-96916000D01*
X100120500Y-96916000D01*
X100120500Y-95900000D01*
X119253064Y-95900000D01*
X119253483Y-95903183D01*
X119272303Y-96046137D01*
X119272304Y-96046141D01*
X119272723Y-96049322D01*
X119273951Y-96052287D01*
X119273952Y-96052290D01*
X119308937Y-96136751D01*
X119330359Y-96188468D01*
X119332311Y-96191012D01*
X119332314Y-96191017D01*
X119412037Y-96294912D01*
X119422045Y-96307955D01*
X119424593Y-96309910D01*
X119538982Y-96397685D01*
X119538985Y-96397687D01*
X119541532Y-96399641D01*
X119680678Y-96457277D01*
X119792508Y-96472000D01*
X119865892Y-96472000D01*
X119867492Y-96472000D01*
X119979322Y-96457277D01*
X120118468Y-96399641D01*
X120237955Y-96307955D01*
X120329641Y-96188468D01*
X120387277Y-96049322D01*
X120389163Y-96035000D01*
X124999592Y-96035000D01*
X125000534Y-96039736D01*
X125018092Y-96128007D01*
X125018093Y-96128009D01*
X125019034Y-96132740D01*
X125021713Y-96136750D01*
X125021714Y-96136751D01*
X125056269Y-96188468D01*
X125074399Y-96215601D01*
X125157260Y-96270966D01*
X125255000Y-96290408D01*
X125352740Y-96270966D01*
X125435601Y-96215601D01*
X125490966Y-96132740D01*
X125510408Y-96035000D01*
X125490966Y-95937260D01*
X125435601Y-95854399D01*
X125352740Y-95799034D01*
X125348009Y-95798093D01*
X125348007Y-95798092D01*
X125259736Y-95780534D01*
X125255000Y-95779592D01*
X125250264Y-95780534D01*
X125161992Y-95798092D01*
X125161988Y-95798093D01*
X125157260Y-95799034D01*
X125153250Y-95801712D01*
X125153248Y-95801714D01*
X125078410Y-95851718D01*
X125078407Y-95851720D01*
X125074399Y-95854399D01*
X125071720Y-95858407D01*
X125071718Y-95858410D01*
X125021714Y-95933248D01*
X125021712Y-95933250D01*
X125019034Y-95937260D01*
X125018093Y-95941988D01*
X125018092Y-95941992D01*
X125000534Y-96030264D01*
X124999592Y-96035000D01*
X120389163Y-96035000D01*
X120406936Y-95900000D01*
X120387277Y-95750678D01*
X120329641Y-95611532D01*
X120327687Y-95608985D01*
X120327685Y-95608982D01*
X120239910Y-95494593D01*
X120237955Y-95492045D01*
X120228438Y-95484742D01*
X120121017Y-95402314D01*
X120121012Y-95402311D01*
X120118468Y-95400359D01*
X120115499Y-95399129D01*
X119982290Y-95343952D01*
X119982287Y-95343951D01*
X119979322Y-95342723D01*
X119976141Y-95342304D01*
X119976137Y-95342303D01*
X119869076Y-95328208D01*
X119869067Y-95328207D01*
X119867492Y-95328000D01*
X119792508Y-95328000D01*
X119790933Y-95328207D01*
X119790923Y-95328208D01*
X119683862Y-95342303D01*
X119683856Y-95342304D01*
X119680678Y-95342723D01*
X119677714Y-95343950D01*
X119677709Y-95343952D01*
X119544500Y-95399129D01*
X119544496Y-95399131D01*
X119541532Y-95400359D01*
X119538990Y-95402308D01*
X119538982Y-95402314D01*
X119424593Y-95490089D01*
X119424589Y-95490092D01*
X119422045Y-95492045D01*
X119420092Y-95494589D01*
X119420089Y-95494593D01*
X119332314Y-95608982D01*
X119332308Y-95608990D01*
X119330359Y-95611532D01*
X119329131Y-95614496D01*
X119329129Y-95614500D01*
X119273952Y-95747709D01*
X119273950Y-95747714D01*
X119272723Y-95750678D01*
X119272304Y-95753856D01*
X119272303Y-95753862D01*
X119258365Y-95859735D01*
X119253064Y-95900000D01*
X100120500Y-95900000D01*
X100120500Y-94884000D01*
X114173064Y-94884000D01*
X114173483Y-94887183D01*
X114192303Y-95030137D01*
X114192304Y-95030141D01*
X114192723Y-95033322D01*
X114193951Y-95036287D01*
X114193952Y-95036290D01*
X114234604Y-95134432D01*
X114250359Y-95172468D01*
X114252311Y-95175012D01*
X114252314Y-95175017D01*
X114340089Y-95289406D01*
X114342045Y-95291955D01*
X114344593Y-95293910D01*
X114458982Y-95381685D01*
X114458985Y-95381687D01*
X114461532Y-95383641D01*
X114600678Y-95441277D01*
X114712508Y-95456000D01*
X114785892Y-95456000D01*
X114787492Y-95456000D01*
X114899322Y-95441277D01*
X115038468Y-95383641D01*
X115157955Y-95291955D01*
X115249641Y-95172468D01*
X115307277Y-95033322D01*
X115318905Y-94945000D01*
X119944592Y-94945000D01*
X119945534Y-94949736D01*
X119963092Y-95038007D01*
X119963093Y-95038009D01*
X119964034Y-95042740D01*
X119966713Y-95046750D01*
X119966714Y-95046751D01*
X119996946Y-95091998D01*
X120019399Y-95125601D01*
X120102260Y-95180966D01*
X120200000Y-95200408D01*
X120297740Y-95180966D01*
X120380601Y-95125601D01*
X120435966Y-95042740D01*
X120455408Y-94945000D01*
X120435966Y-94847260D01*
X120380601Y-94764399D01*
X120297740Y-94709034D01*
X120293009Y-94708093D01*
X120293007Y-94708092D01*
X120204736Y-94690534D01*
X120200000Y-94689592D01*
X120195264Y-94690534D01*
X120106992Y-94708092D01*
X120106988Y-94708093D01*
X120102260Y-94709034D01*
X120098250Y-94711712D01*
X120098248Y-94711714D01*
X120023410Y-94761718D01*
X120023407Y-94761720D01*
X120019399Y-94764399D01*
X120016720Y-94768407D01*
X120016718Y-94768410D01*
X119966714Y-94843248D01*
X119966712Y-94843250D01*
X119964034Y-94847260D01*
X119963093Y-94851988D01*
X119963092Y-94851992D01*
X119951153Y-94912014D01*
X119944592Y-94945000D01*
X115318905Y-94945000D01*
X115326936Y-94884000D01*
X115307277Y-94734678D01*
X115249641Y-94595532D01*
X115247687Y-94592985D01*
X115247685Y-94592982D01*
X115159910Y-94478593D01*
X115157955Y-94476045D01*
X115123485Y-94449595D01*
X115041017Y-94386314D01*
X115041012Y-94386311D01*
X115038468Y-94384359D01*
X115035499Y-94383129D01*
X114902290Y-94327952D01*
X114902287Y-94327951D01*
X114899322Y-94326723D01*
X114896141Y-94326304D01*
X114896137Y-94326303D01*
X114789076Y-94312208D01*
X114789067Y-94312207D01*
X114787492Y-94312000D01*
X114712508Y-94312000D01*
X114710933Y-94312207D01*
X114710923Y-94312208D01*
X114603862Y-94326303D01*
X114603856Y-94326304D01*
X114600678Y-94326723D01*
X114597714Y-94327950D01*
X114597709Y-94327952D01*
X114464500Y-94383129D01*
X114464496Y-94383131D01*
X114461532Y-94384359D01*
X114458990Y-94386308D01*
X114458982Y-94386314D01*
X114344593Y-94474089D01*
X114344589Y-94474092D01*
X114342045Y-94476045D01*
X114340092Y-94478589D01*
X114340089Y-94478593D01*
X114252314Y-94592982D01*
X114252308Y-94592990D01*
X114250359Y-94595532D01*
X114249131Y-94598496D01*
X114249129Y-94598500D01*
X114193952Y-94731709D01*
X114193950Y-94731714D01*
X114192723Y-94734678D01*
X114192304Y-94737856D01*
X114192303Y-94737862D01*
X114182182Y-94814742D01*
X114173064Y-94884000D01*
X100120500Y-94884000D01*
X100120500Y-93416945D01*
X115387018Y-93416945D01*
X115387312Y-93419122D01*
X115387313Y-93419124D01*
X115417268Y-93640263D01*
X115417269Y-93640268D01*
X115417563Y-93642437D01*
X115418238Y-93644514D01*
X115418240Y-93644523D01*
X115468304Y-93798602D01*
X115487880Y-93858851D01*
X115488917Y-93860779D01*
X115488921Y-93860787D01*
X115594670Y-94057301D01*
X115594674Y-94057308D01*
X115595710Y-94059232D01*
X115597075Y-94060944D01*
X115597076Y-94060945D01*
X115631378Y-94103959D01*
X115737585Y-94237138D01*
X115908948Y-94386853D01*
X116104289Y-94503564D01*
X116317330Y-94583520D01*
X116541224Y-94624150D01*
X116710671Y-94624150D01*
X116711775Y-94624150D01*
X116881635Y-94608862D01*
X117100986Y-94548325D01*
X117306003Y-94449595D01*
X117490095Y-94315843D01*
X117647347Y-94151371D01*
X117772705Y-93961463D01*
X117862138Y-93752223D01*
X117912773Y-93530377D01*
X117917867Y-93416945D01*
X118562018Y-93416945D01*
X118562312Y-93419122D01*
X118562313Y-93419124D01*
X118592268Y-93640263D01*
X118592269Y-93640268D01*
X118592563Y-93642437D01*
X118593238Y-93644514D01*
X118593240Y-93644523D01*
X118643304Y-93798602D01*
X118662880Y-93858851D01*
X118663917Y-93860779D01*
X118663921Y-93860787D01*
X118769670Y-94057301D01*
X118769674Y-94057308D01*
X118770710Y-94059232D01*
X118772075Y-94060944D01*
X118772076Y-94060945D01*
X118806378Y-94103959D01*
X118912585Y-94237138D01*
X119083948Y-94386853D01*
X119279289Y-94503564D01*
X119492330Y-94583520D01*
X119716224Y-94624150D01*
X119885671Y-94624150D01*
X119886775Y-94624150D01*
X120056635Y-94608862D01*
X120275986Y-94548325D01*
X120481003Y-94449595D01*
X120665095Y-94315843D01*
X120822347Y-94151371D01*
X120947705Y-93961463D01*
X121037138Y-93752223D01*
X121087773Y-93530377D01*
X121097982Y-93303055D01*
X121067437Y-93077563D01*
X120997120Y-92861149D01*
X120940913Y-92756699D01*
X120890329Y-92662698D01*
X120890326Y-92662694D01*
X120889290Y-92660768D01*
X120747415Y-92482862D01*
X120576052Y-92333147D01*
X120445939Y-92255408D01*
X120382601Y-92217565D01*
X120382599Y-92217564D01*
X120380711Y-92216436D01*
X120372811Y-92213471D01*
X120169736Y-92137255D01*
X120169732Y-92137253D01*
X120167670Y-92136480D01*
X120165510Y-92136088D01*
X120165503Y-92136086D01*
X119945938Y-92096242D01*
X119945934Y-92096241D01*
X119943776Y-92095850D01*
X119773225Y-92095850D01*
X119772144Y-92095947D01*
X119772128Y-92095948D01*
X119605552Y-92110941D01*
X119605550Y-92110941D01*
X119603365Y-92111138D01*
X119601256Y-92111719D01*
X119601245Y-92111722D01*
X119386131Y-92171090D01*
X119386123Y-92171092D01*
X119384014Y-92171675D01*
X119382046Y-92172622D01*
X119382037Y-92172626D01*
X119180976Y-92269451D01*
X119180967Y-92269456D01*
X119178997Y-92270405D01*
X119177228Y-92271690D01*
X119177220Y-92271695D01*
X118996683Y-92402864D01*
X118996674Y-92402871D01*
X118994905Y-92404157D01*
X118993388Y-92405743D01*
X118993383Y-92405748D01*
X118839175Y-92567036D01*
X118839169Y-92567042D01*
X118837653Y-92568629D01*
X118836443Y-92570461D01*
X118836439Y-92570467D01*
X118713507Y-92756699D01*
X118713501Y-92756709D01*
X118712295Y-92758537D01*
X118711435Y-92760547D01*
X118711429Y-92760560D01*
X118623725Y-92965756D01*
X118623722Y-92965763D01*
X118622862Y-92967777D01*
X118622374Y-92969910D01*
X118622372Y-92969920D01*
X118575103Y-93177023D01*
X118572227Y-93189623D01*
X118572128Y-93191814D01*
X118572128Y-93191819D01*
X118562116Y-93414747D01*
X118562116Y-93414754D01*
X118562018Y-93416945D01*
X117917867Y-93416945D01*
X117922982Y-93303055D01*
X117892437Y-93077563D01*
X117822120Y-92861149D01*
X117765913Y-92756699D01*
X117715329Y-92662698D01*
X117715326Y-92662694D01*
X117714290Y-92660768D01*
X117572415Y-92482862D01*
X117401052Y-92333147D01*
X117270939Y-92255408D01*
X117207601Y-92217565D01*
X117207599Y-92217564D01*
X117205711Y-92216436D01*
X117197811Y-92213471D01*
X116994736Y-92137255D01*
X116994732Y-92137253D01*
X116992670Y-92136480D01*
X116990510Y-92136088D01*
X116990503Y-92136086D01*
X116770938Y-92096242D01*
X116770934Y-92096241D01*
X116768776Y-92095850D01*
X116598225Y-92095850D01*
X116597144Y-92095947D01*
X116597128Y-92095948D01*
X116430552Y-92110941D01*
X116430550Y-92110941D01*
X116428365Y-92111138D01*
X116426256Y-92111719D01*
X116426245Y-92111722D01*
X116211131Y-92171090D01*
X116211123Y-92171092D01*
X116209014Y-92171675D01*
X116207046Y-92172622D01*
X116207037Y-92172626D01*
X116005976Y-92269451D01*
X116005967Y-92269456D01*
X116003997Y-92270405D01*
X116002228Y-92271690D01*
X116002220Y-92271695D01*
X115821683Y-92402864D01*
X115821674Y-92402871D01*
X115819905Y-92404157D01*
X115818388Y-92405743D01*
X115818383Y-92405748D01*
X115664175Y-92567036D01*
X115664169Y-92567042D01*
X115662653Y-92568629D01*
X115661443Y-92570461D01*
X115661439Y-92570467D01*
X115538507Y-92756699D01*
X115538501Y-92756709D01*
X115537295Y-92758537D01*
X115536435Y-92760547D01*
X115536429Y-92760560D01*
X115448725Y-92965756D01*
X115448722Y-92965763D01*
X115447862Y-92967777D01*
X115447374Y-92969910D01*
X115447372Y-92969920D01*
X115400103Y-93177023D01*
X115397227Y-93189623D01*
X115397128Y-93191814D01*
X115397128Y-93191819D01*
X115387116Y-93414747D01*
X115387116Y-93414754D01*
X115387018Y-93416945D01*
X100120500Y-93416945D01*
X100120500Y-92000000D01*
X122944592Y-92000000D01*
X122945534Y-92004736D01*
X122963092Y-92093007D01*
X122963093Y-92093009D01*
X122964034Y-92097740D01*
X122966713Y-92101750D01*
X122966714Y-92101751D01*
X122990436Y-92137255D01*
X123019399Y-92180601D01*
X123102260Y-92235966D01*
X123200000Y-92255408D01*
X123297740Y-92235966D01*
X123380601Y-92180601D01*
X123435966Y-92097740D01*
X123455408Y-92000000D01*
X123435966Y-91902260D01*
X123380601Y-91819399D01*
X123312655Y-91774000D01*
X123301751Y-91766714D01*
X123301750Y-91766713D01*
X123297740Y-91764034D01*
X123293009Y-91763093D01*
X123293007Y-91763092D01*
X123204736Y-91745534D01*
X123200000Y-91744592D01*
X123195264Y-91745534D01*
X123106992Y-91763092D01*
X123106988Y-91763093D01*
X123102260Y-91764034D01*
X123098250Y-91766712D01*
X123098248Y-91766714D01*
X123023410Y-91816718D01*
X123023407Y-91816720D01*
X123019399Y-91819399D01*
X123016720Y-91823407D01*
X123016718Y-91823410D01*
X122966714Y-91898248D01*
X122966712Y-91898250D01*
X122964034Y-91902260D01*
X122963093Y-91906988D01*
X122963092Y-91906992D01*
X122947827Y-91983735D01*
X122944592Y-92000000D01*
X100120500Y-92000000D01*
X100120500Y-84850000D01*
X134699941Y-84850000D01*
X134718037Y-84952626D01*
X134720180Y-84956338D01*
X134721646Y-84960365D01*
X134720439Y-84960804D01*
X134725000Y-84977815D01*
X134725000Y-86081419D01*
X134724256Y-86089928D01*
X134707037Y-86187583D01*
X134704500Y-86201969D01*
X134704500Y-86264618D01*
X134704500Y-97667712D01*
X134704500Y-97700000D01*
X134704500Y-97798031D01*
X134704870Y-97800134D01*
X134704871Y-97800136D01*
X134738174Y-97989009D01*
X134738176Y-97989018D01*
X134738546Y-97991114D01*
X134739275Y-97993118D01*
X134739277Y-97993124D01*
X134759169Y-98047777D01*
X134805603Y-98175353D01*
X134903634Y-98345147D01*
X134905011Y-98346789D01*
X134905016Y-98346795D01*
X134975906Y-98431278D01*
X135029660Y-98495340D01*
X135031300Y-98496716D01*
X135178204Y-98619983D01*
X135178208Y-98619986D01*
X135179853Y-98621366D01*
X135349647Y-98719397D01*
X135533886Y-98786454D01*
X135726969Y-98820500D01*
X135789618Y-98820500D01*
X135825000Y-98820500D01*
X135857288Y-98820500D01*
X141297712Y-98820500D01*
X141347325Y-98820500D01*
X141425890Y-98820500D01*
X141428031Y-98820500D01*
X141540071Y-98800744D01*
X141548581Y-98800000D01*
X143931419Y-98800000D01*
X143939928Y-98800744D01*
X144051969Y-98820500D01*
X144114618Y-98820500D01*
X144150000Y-98820500D01*
X144182288Y-98820500D01*
X148992712Y-98820500D01*
X149042325Y-98820500D01*
X149120890Y-98820500D01*
X149123031Y-98820500D01*
X149316114Y-98786454D01*
X149500353Y-98719397D01*
X149670147Y-98621366D01*
X149820340Y-98495340D01*
X149946366Y-98345147D01*
X150044397Y-98175353D01*
X150111454Y-97991114D01*
X150145500Y-97798031D01*
X150145500Y-97700000D01*
X150145500Y-97667712D01*
X150145500Y-92689782D01*
X150145495Y-92689766D01*
X150145493Y-92689732D01*
X150145493Y-92651145D01*
X150145494Y-92609077D01*
X150115743Y-92440352D01*
X150115000Y-92431844D01*
X150115000Y-91668444D01*
X150115744Y-91659935D01*
X150124315Y-91611326D01*
X150125059Y-91607107D01*
X150115744Y-91554279D01*
X150115000Y-91545770D01*
X150115000Y-91048444D01*
X150115744Y-91039935D01*
X150124315Y-90991326D01*
X150125059Y-90987107D01*
X150115744Y-90934279D01*
X150115000Y-90925770D01*
X150115000Y-90162390D01*
X150115744Y-90153881D01*
X150128419Y-90081998D01*
X150145499Y-89985138D01*
X150145500Y-89887108D01*
X150145500Y-89854820D01*
X150145500Y-80057675D01*
X150145500Y-79976969D01*
X150111454Y-79783886D01*
X150044397Y-79599647D01*
X149946366Y-79429853D01*
X149944986Y-79428208D01*
X149944983Y-79428204D01*
X149821716Y-79281300D01*
X149820340Y-79279660D01*
X149818699Y-79278283D01*
X149671795Y-79155016D01*
X149671789Y-79155011D01*
X149670147Y-79153634D01*
X149500353Y-79055603D01*
X149498345Y-79054872D01*
X149318124Y-78989277D01*
X149318118Y-78989275D01*
X149316114Y-78988546D01*
X149314018Y-78988176D01*
X149314009Y-78988174D01*
X149125136Y-78954871D01*
X149125134Y-78954870D01*
X149123031Y-78954500D01*
X149120890Y-78954500D01*
X149025032Y-78954500D01*
X144933262Y-78949657D01*
X144905696Y-78941128D01*
X144887711Y-78918568D01*
X144823048Y-78753871D01*
X144714646Y-78578651D01*
X144713167Y-78577011D01*
X144578120Y-78427296D01*
X144578115Y-78427292D01*
X144576640Y-78425656D01*
X144563010Y-78415144D01*
X144415226Y-78301166D01*
X144413486Y-78299824D01*
X144349471Y-78266736D01*
X144232410Y-78206229D01*
X144232404Y-78206226D01*
X144230449Y-78205216D01*
X144228345Y-78204571D01*
X144228336Y-78204568D01*
X144035552Y-78145533D01*
X144035548Y-78145532D01*
X144033438Y-78144886D01*
X144031254Y-78144628D01*
X144031246Y-78144627D01*
X143831000Y-78121039D01*
X143830991Y-78121038D01*
X143828812Y-78120782D01*
X143826611Y-78120920D01*
X143625375Y-78133542D01*
X143625364Y-78133543D01*
X143623175Y-78133681D01*
X143621040Y-78134209D01*
X143621035Y-78134210D01*
X143425300Y-78182638D01*
X143425294Y-78182639D01*
X143423164Y-78183167D01*
X143421162Y-78184066D01*
X143421153Y-78184070D01*
X143237251Y-78266736D01*
X143237244Y-78266739D01*
X143235237Y-78267642D01*
X143233421Y-78268890D01*
X143233415Y-78268894D01*
X143067277Y-78383128D01*
X143067265Y-78383137D01*
X143065457Y-78384381D01*
X143063898Y-78385930D01*
X143063891Y-78385936D01*
X142920872Y-78528058D01*
X142920867Y-78528062D01*
X142919306Y-78529615D01*
X142918047Y-78531420D01*
X142918044Y-78531425D01*
X142849696Y-78629500D01*
X142802698Y-78696938D01*
X142802697Y-78696940D01*
X142801501Y-78698657D01*
X142801149Y-78698412D01*
X142782300Y-78716337D01*
X142754559Y-78721296D01*
X142728674Y-78710154D01*
X142722838Y-78705257D01*
X142675030Y-78665141D01*
X142671004Y-78663675D01*
X142671003Y-78663675D01*
X142602132Y-78638609D01*
X142577105Y-78629500D01*
X142472895Y-78629500D01*
X142468864Y-78630966D01*
X142468864Y-78630967D01*
X142378997Y-78663675D01*
X142378993Y-78663676D01*
X142374971Y-78665141D01*
X142371690Y-78667893D01*
X142371688Y-78667895D01*
X142314096Y-78716220D01*
X142289612Y-78727179D01*
X142263026Y-78723603D01*
X142242306Y-78706565D01*
X142139183Y-78557538D01*
X142137934Y-78555733D01*
X142130504Y-78548290D01*
X141997584Y-78415144D01*
X141997580Y-78415140D01*
X141996031Y-78413589D01*
X141994225Y-78412335D01*
X141994223Y-78412333D01*
X141852641Y-78314005D01*
X141831061Y-78299018D01*
X141829059Y-78298105D01*
X141650312Y-78216604D01*
X141650309Y-78216603D01*
X141648309Y-78215691D01*
X141646185Y-78215152D01*
X141646177Y-78215149D01*
X141455756Y-78166816D01*
X141455751Y-78166815D01*
X141453631Y-78166277D01*
X141451450Y-78166125D01*
X141451441Y-78166124D01*
X141255457Y-78152511D01*
X141255451Y-78152511D01*
X141253261Y-78152359D01*
X141251077Y-78152599D01*
X141251071Y-78152600D01*
X141055804Y-78174143D01*
X141055802Y-78174143D01*
X141053621Y-78174384D01*
X141051531Y-78175005D01*
X141051519Y-78175008D01*
X140863204Y-78231020D01*
X140863200Y-78231021D01*
X140861104Y-78231645D01*
X140859156Y-78232630D01*
X140859147Y-78232634D01*
X140683836Y-78321318D01*
X140683827Y-78321323D01*
X140681879Y-78322309D01*
X140680134Y-78323628D01*
X140680132Y-78323630D01*
X140523434Y-78442148D01*
X140523429Y-78442151D01*
X140521687Y-78443470D01*
X140520202Y-78445082D01*
X140520200Y-78445085D01*
X140395525Y-78580529D01*
X140385659Y-78591247D01*
X140384488Y-78593094D01*
X140384481Y-78593104D01*
X140279328Y-78759054D01*
X140279323Y-78759063D01*
X140278155Y-78760907D01*
X140277332Y-78762932D01*
X140277328Y-78762942D01*
X140213955Y-78919075D01*
X140195944Y-78941276D01*
X140168608Y-78949646D01*
X135824548Y-78954500D01*
X135726969Y-78954500D01*
X135724866Y-78954870D01*
X135724863Y-78954871D01*
X135535990Y-78988174D01*
X135535979Y-78988176D01*
X135533886Y-78988546D01*
X135531884Y-78989274D01*
X135531875Y-78989277D01*
X135351654Y-79054872D01*
X135351648Y-79054874D01*
X135349647Y-79055603D01*
X135347797Y-79056670D01*
X135347795Y-79056672D01*
X135181714Y-79152559D01*
X135181709Y-79152562D01*
X135179853Y-79153634D01*
X135178215Y-79155007D01*
X135178204Y-79155016D01*
X135031300Y-79278283D01*
X135031294Y-79278288D01*
X135029660Y-79279660D01*
X135028288Y-79281294D01*
X135028283Y-79281300D01*
X134905016Y-79428204D01*
X134905007Y-79428215D01*
X134903634Y-79429853D01*
X134902562Y-79431709D01*
X134902559Y-79431714D01*
X134845312Y-79530869D01*
X134805603Y-79599647D01*
X134804874Y-79601648D01*
X134804872Y-79601654D01*
X134739277Y-79781875D01*
X134739274Y-79781884D01*
X134738546Y-79783886D01*
X134738176Y-79785979D01*
X134738174Y-79785990D01*
X134710366Y-79943700D01*
X134704500Y-79976969D01*
X134704500Y-80039618D01*
X134704500Y-83317712D01*
X134704500Y-83350000D01*
X134704500Y-83448031D01*
X134704870Y-83450134D01*
X134704871Y-83450136D01*
X134724256Y-83560072D01*
X134725000Y-83568581D01*
X134725000Y-84722185D01*
X134720439Y-84739195D01*
X134721646Y-84739635D01*
X134720179Y-84743662D01*
X134718037Y-84747374D01*
X134717293Y-84751592D01*
X134717293Y-84751593D01*
X134715356Y-84762577D01*
X134699941Y-84850000D01*
X100120500Y-84850000D01*
X100120500Y-79724411D01*
X112291259Y-79724411D01*
X112294348Y-79728874D01*
X112376627Y-79796399D01*
X112380614Y-79799063D01*
X112544871Y-79886860D01*
X112549310Y-79888699D01*
X112727546Y-79942767D01*
X112732239Y-79943700D01*
X112917604Y-79961957D01*
X112922396Y-79961957D01*
X113107760Y-79943700D01*
X113112453Y-79942767D01*
X113290689Y-79888699D01*
X113295128Y-79886860D01*
X113459386Y-79799062D01*
X113463369Y-79796401D01*
X113545653Y-79728871D01*
X113548739Y-79724412D01*
X113548738Y-79724411D01*
X114831259Y-79724411D01*
X114834348Y-79728874D01*
X114916627Y-79796399D01*
X114920614Y-79799063D01*
X115084871Y-79886860D01*
X115089310Y-79888699D01*
X115267546Y-79942767D01*
X115272239Y-79943700D01*
X115457604Y-79961957D01*
X115462396Y-79961957D01*
X115647760Y-79943700D01*
X115652453Y-79942767D01*
X115830689Y-79888699D01*
X115835128Y-79886860D01*
X115999386Y-79799062D01*
X116003369Y-79796401D01*
X116085653Y-79728871D01*
X116088739Y-79724412D01*
X116086104Y-79719670D01*
X115466892Y-79100458D01*
X115460000Y-79097603D01*
X115453107Y-79100458D01*
X114833894Y-79719670D01*
X114831259Y-79724411D01*
X113548738Y-79724411D01*
X113546104Y-79719670D01*
X112926892Y-79100458D01*
X112920000Y-79097603D01*
X112913107Y-79100458D01*
X112293894Y-79719670D01*
X112291259Y-79724411D01*
X100120500Y-79724411D01*
X100120500Y-78989896D01*
X111945543Y-78989896D01*
X111963799Y-79175260D01*
X111964732Y-79179953D01*
X112018800Y-79358189D01*
X112020639Y-79362628D01*
X112108436Y-79526885D01*
X112111100Y-79530872D01*
X112178624Y-79613150D01*
X112183087Y-79616239D01*
X112187828Y-79613604D01*
X112809372Y-78992061D01*
X112812005Y-78987500D01*
X112812004Y-78987499D01*
X113030103Y-78987499D01*
X113032958Y-78994392D01*
X113652170Y-79613604D01*
X113656912Y-79616239D01*
X113661371Y-79613153D01*
X113728901Y-79530869D01*
X113731562Y-79526886D01*
X113819360Y-79362628D01*
X113821199Y-79358189D01*
X113875267Y-79179953D01*
X113876200Y-79175260D01*
X113894457Y-78989896D01*
X114485543Y-78989896D01*
X114503799Y-79175260D01*
X114504732Y-79179953D01*
X114558800Y-79358189D01*
X114560639Y-79362628D01*
X114648436Y-79526885D01*
X114651100Y-79530872D01*
X114718624Y-79613150D01*
X114723087Y-79616239D01*
X114727828Y-79613604D01*
X115349372Y-78992061D01*
X115352005Y-78987500D01*
X115352004Y-78987499D01*
X115570103Y-78987499D01*
X115572958Y-78994392D01*
X116192170Y-79613604D01*
X116196912Y-79616239D01*
X116201371Y-79613153D01*
X116268901Y-79530869D01*
X116271562Y-79526886D01*
X116359360Y-79362628D01*
X116361199Y-79358189D01*
X116415267Y-79179953D01*
X116416200Y-79175260D01*
X116434457Y-78989896D01*
X116434457Y-78987500D01*
X117044901Y-78987500D01*
X117045137Y-78989896D01*
X117061263Y-79153634D01*
X117063253Y-79173831D01*
X117063948Y-79176124D01*
X117063950Y-79176131D01*
X117114789Y-79343722D01*
X117117604Y-79353001D01*
X117205864Y-79518125D01*
X117324643Y-79662857D01*
X117469375Y-79781636D01*
X117634499Y-79869896D01*
X117813669Y-79924247D01*
X118000000Y-79942599D01*
X118186331Y-79924247D01*
X118365501Y-79869896D01*
X118530625Y-79781636D01*
X118675357Y-79662857D01*
X118794136Y-79518125D01*
X118882396Y-79353001D01*
X118936747Y-79173831D01*
X118955099Y-78987500D01*
X119584901Y-78987500D01*
X119585137Y-78989896D01*
X119601263Y-79153634D01*
X119603253Y-79173831D01*
X119603948Y-79176124D01*
X119603950Y-79176131D01*
X119654789Y-79343722D01*
X119657604Y-79353001D01*
X119745864Y-79518125D01*
X119864643Y-79662857D01*
X120009375Y-79781636D01*
X120174499Y-79869896D01*
X120353669Y-79924247D01*
X120540000Y-79942599D01*
X120726331Y-79924247D01*
X120905501Y-79869896D01*
X121070625Y-79781636D01*
X121215357Y-79662857D01*
X121334136Y-79518125D01*
X121422396Y-79353001D01*
X121476747Y-79173831D01*
X121495099Y-78987500D01*
X122124901Y-78987500D01*
X122125137Y-78989896D01*
X122141263Y-79153634D01*
X122143253Y-79173831D01*
X122143948Y-79176124D01*
X122143950Y-79176131D01*
X122194789Y-79343722D01*
X122197604Y-79353001D01*
X122285864Y-79518125D01*
X122404643Y-79662857D01*
X122549375Y-79781636D01*
X122714499Y-79869896D01*
X122893669Y-79924247D01*
X123080000Y-79942599D01*
X123266331Y-79924247D01*
X123445501Y-79869896D01*
X123610625Y-79781636D01*
X123755357Y-79662857D01*
X123874136Y-79518125D01*
X123962396Y-79353001D01*
X124016747Y-79173831D01*
X124035099Y-78987500D01*
X124016747Y-78801169D01*
X123962396Y-78621999D01*
X123874136Y-78456875D01*
X123755357Y-78312143D01*
X123739364Y-78299018D01*
X123612487Y-78194892D01*
X123612486Y-78194891D01*
X123610625Y-78193364D01*
X123583003Y-78178600D01*
X123447630Y-78106242D01*
X123445501Y-78105104D01*
X123443193Y-78104403D01*
X123443191Y-78104403D01*
X123268631Y-78051450D01*
X123268624Y-78051448D01*
X123266331Y-78050753D01*
X123263941Y-78050517D01*
X123263938Y-78050517D01*
X123082396Y-78032637D01*
X123080000Y-78032401D01*
X123077604Y-78032637D01*
X122896061Y-78050517D01*
X122896056Y-78050517D01*
X122893669Y-78050753D01*
X122891377Y-78051448D01*
X122891368Y-78051450D01*
X122716808Y-78104403D01*
X122716802Y-78104405D01*
X122714499Y-78105104D01*
X122712373Y-78106240D01*
X122712369Y-78106242D01*
X122551499Y-78192228D01*
X122551493Y-78192231D01*
X122549375Y-78193364D01*
X122547518Y-78194887D01*
X122547512Y-78194892D01*
X122406505Y-78310614D01*
X122406500Y-78310618D01*
X122404643Y-78312143D01*
X122403118Y-78314000D01*
X122403114Y-78314005D01*
X122287392Y-78455012D01*
X122287387Y-78455018D01*
X122285864Y-78456875D01*
X122284731Y-78458993D01*
X122284728Y-78458999D01*
X122198742Y-78619869D01*
X122198740Y-78619873D01*
X122197604Y-78621999D01*
X122196905Y-78624302D01*
X122196903Y-78624308D01*
X122143950Y-78798868D01*
X122143948Y-78798877D01*
X122143253Y-78801169D01*
X122143017Y-78803556D01*
X122143017Y-78803561D01*
X122131642Y-78919055D01*
X122124901Y-78987500D01*
X121495099Y-78987500D01*
X121476747Y-78801169D01*
X121422396Y-78621999D01*
X121334136Y-78456875D01*
X121215357Y-78312143D01*
X121199364Y-78299018D01*
X121072487Y-78194892D01*
X121072486Y-78194891D01*
X121070625Y-78193364D01*
X121043003Y-78178600D01*
X120907630Y-78106242D01*
X120905501Y-78105104D01*
X120903193Y-78104403D01*
X120903191Y-78104403D01*
X120728631Y-78051450D01*
X120728624Y-78051448D01*
X120726331Y-78050753D01*
X120723941Y-78050517D01*
X120723938Y-78050517D01*
X120542396Y-78032637D01*
X120540000Y-78032401D01*
X120537604Y-78032637D01*
X120356061Y-78050517D01*
X120356056Y-78050517D01*
X120353669Y-78050753D01*
X120351377Y-78051448D01*
X120351368Y-78051450D01*
X120176808Y-78104403D01*
X120176802Y-78104405D01*
X120174499Y-78105104D01*
X120172373Y-78106240D01*
X120172369Y-78106242D01*
X120011499Y-78192228D01*
X120011493Y-78192231D01*
X120009375Y-78193364D01*
X120007518Y-78194887D01*
X120007512Y-78194892D01*
X119866505Y-78310614D01*
X119866500Y-78310618D01*
X119864643Y-78312143D01*
X119863118Y-78314000D01*
X119863114Y-78314005D01*
X119747392Y-78455012D01*
X119747387Y-78455018D01*
X119745864Y-78456875D01*
X119744731Y-78458993D01*
X119744728Y-78458999D01*
X119658742Y-78619869D01*
X119658740Y-78619873D01*
X119657604Y-78621999D01*
X119656905Y-78624302D01*
X119656903Y-78624308D01*
X119603950Y-78798868D01*
X119603948Y-78798877D01*
X119603253Y-78801169D01*
X119603017Y-78803556D01*
X119603017Y-78803561D01*
X119591642Y-78919055D01*
X119584901Y-78987500D01*
X118955099Y-78987500D01*
X118936747Y-78801169D01*
X118882396Y-78621999D01*
X118794136Y-78456875D01*
X118675357Y-78312143D01*
X118659364Y-78299018D01*
X118532487Y-78194892D01*
X118532486Y-78194891D01*
X118530625Y-78193364D01*
X118503003Y-78178600D01*
X118367630Y-78106242D01*
X118365501Y-78105104D01*
X118363193Y-78104403D01*
X118363191Y-78104403D01*
X118188631Y-78051450D01*
X118188624Y-78051448D01*
X118186331Y-78050753D01*
X118183941Y-78050517D01*
X118183938Y-78050517D01*
X118002396Y-78032637D01*
X118000000Y-78032401D01*
X117997604Y-78032637D01*
X117816061Y-78050517D01*
X117816056Y-78050517D01*
X117813669Y-78050753D01*
X117811377Y-78051448D01*
X117811368Y-78051450D01*
X117636808Y-78104403D01*
X117636802Y-78104405D01*
X117634499Y-78105104D01*
X117632373Y-78106240D01*
X117632369Y-78106242D01*
X117471499Y-78192228D01*
X117471493Y-78192231D01*
X117469375Y-78193364D01*
X117467518Y-78194887D01*
X117467512Y-78194892D01*
X117326505Y-78310614D01*
X117326500Y-78310618D01*
X117324643Y-78312143D01*
X117323118Y-78314000D01*
X117323114Y-78314005D01*
X117207392Y-78455012D01*
X117207387Y-78455018D01*
X117205864Y-78456875D01*
X117204731Y-78458993D01*
X117204728Y-78458999D01*
X117118742Y-78619869D01*
X117118740Y-78619873D01*
X117117604Y-78621999D01*
X117116905Y-78624302D01*
X117116903Y-78624308D01*
X117063950Y-78798868D01*
X117063948Y-78798877D01*
X117063253Y-78801169D01*
X117063017Y-78803556D01*
X117063017Y-78803561D01*
X117051642Y-78919055D01*
X117044901Y-78987500D01*
X116434457Y-78987500D01*
X116434457Y-78985104D01*
X116416200Y-78799739D01*
X116415267Y-78795046D01*
X116361199Y-78616810D01*
X116359360Y-78612371D01*
X116271563Y-78448114D01*
X116268899Y-78444127D01*
X116201374Y-78361848D01*
X116196911Y-78358759D01*
X116192170Y-78361394D01*
X115572958Y-78980607D01*
X115570103Y-78987499D01*
X115352004Y-78987499D01*
X115349372Y-78982938D01*
X114727828Y-78361394D01*
X114723087Y-78358759D01*
X114718625Y-78361847D01*
X114651098Y-78444129D01*
X114648436Y-78448115D01*
X114560639Y-78612371D01*
X114558800Y-78616810D01*
X114504732Y-78795046D01*
X114503799Y-78799739D01*
X114485543Y-78985104D01*
X114485543Y-78989896D01*
X113894457Y-78989896D01*
X113894457Y-78985104D01*
X113876200Y-78799739D01*
X113875267Y-78795046D01*
X113821199Y-78616810D01*
X113819360Y-78612371D01*
X113731563Y-78448114D01*
X113728899Y-78444127D01*
X113661374Y-78361848D01*
X113656911Y-78358759D01*
X113652170Y-78361394D01*
X113032958Y-78980607D01*
X113030103Y-78987499D01*
X112812004Y-78987499D01*
X112809372Y-78982938D01*
X112187828Y-78361394D01*
X112183087Y-78358759D01*
X112178625Y-78361847D01*
X112111098Y-78444129D01*
X112108436Y-78448115D01*
X112020639Y-78612371D01*
X112018800Y-78616810D01*
X111964732Y-78795046D01*
X111963799Y-78799739D01*
X111945543Y-78985104D01*
X111945543Y-78989896D01*
X100120500Y-78989896D01*
X100120500Y-78250587D01*
X112291259Y-78250587D01*
X112293894Y-78255328D01*
X112915438Y-78876872D01*
X112920000Y-78879505D01*
X112924561Y-78876872D01*
X113546104Y-78255328D01*
X113548739Y-78250587D01*
X114831259Y-78250587D01*
X114833894Y-78255328D01*
X115455438Y-78876872D01*
X115460000Y-78879505D01*
X115464561Y-78876872D01*
X116086104Y-78255328D01*
X116088739Y-78250587D01*
X116085650Y-78246124D01*
X116003372Y-78178600D01*
X115999385Y-78175936D01*
X115835128Y-78088139D01*
X115830689Y-78086300D01*
X115652453Y-78032232D01*
X115647760Y-78031299D01*
X115462396Y-78013043D01*
X115457604Y-78013043D01*
X115272239Y-78031299D01*
X115267546Y-78032232D01*
X115089310Y-78086300D01*
X115084871Y-78088139D01*
X114920615Y-78175936D01*
X114916629Y-78178598D01*
X114834347Y-78246125D01*
X114831259Y-78250587D01*
X113548739Y-78250587D01*
X113545650Y-78246124D01*
X113463372Y-78178600D01*
X113459385Y-78175936D01*
X113295128Y-78088139D01*
X113290689Y-78086300D01*
X113112453Y-78032232D01*
X113107760Y-78031299D01*
X112922396Y-78013043D01*
X112917604Y-78013043D01*
X112732239Y-78031299D01*
X112727546Y-78032232D01*
X112549310Y-78086300D01*
X112544871Y-78088139D01*
X112380615Y-78175936D01*
X112376629Y-78178598D01*
X112294347Y-78246125D01*
X112291259Y-78250587D01*
X100120500Y-78250587D01*
X100120500Y-77184411D01*
X112291259Y-77184411D01*
X112294348Y-77188874D01*
X112376627Y-77256399D01*
X112380614Y-77259063D01*
X112544871Y-77346860D01*
X112549310Y-77348699D01*
X112727546Y-77402767D01*
X112732239Y-77403700D01*
X112917604Y-77421957D01*
X112922396Y-77421957D01*
X113107760Y-77403700D01*
X113112453Y-77402767D01*
X113290689Y-77348699D01*
X113295128Y-77346860D01*
X113459386Y-77259062D01*
X113463369Y-77256401D01*
X113545653Y-77188871D01*
X113548739Y-77184412D01*
X113548738Y-77184411D01*
X114831259Y-77184411D01*
X114834348Y-77188874D01*
X114916627Y-77256399D01*
X114920614Y-77259063D01*
X115084871Y-77346860D01*
X115089310Y-77348699D01*
X115267546Y-77402767D01*
X115272239Y-77403700D01*
X115457604Y-77421957D01*
X115462396Y-77421957D01*
X115647760Y-77403700D01*
X115652453Y-77402767D01*
X115830689Y-77348699D01*
X115835128Y-77346860D01*
X115999386Y-77259062D01*
X116003369Y-77256401D01*
X116085653Y-77188871D01*
X116088739Y-77184412D01*
X116086104Y-77179670D01*
X115466892Y-76560458D01*
X115460000Y-76557603D01*
X115453107Y-76560458D01*
X114833894Y-77179670D01*
X114831259Y-77184411D01*
X113548738Y-77184411D01*
X113546104Y-77179670D01*
X112926892Y-76560458D01*
X112920000Y-76557603D01*
X112913107Y-76560458D01*
X112293894Y-77179670D01*
X112291259Y-77184411D01*
X100120500Y-77184411D01*
X100120500Y-76449896D01*
X111945543Y-76449896D01*
X111963799Y-76635260D01*
X111964732Y-76639953D01*
X112018800Y-76818189D01*
X112020639Y-76822628D01*
X112108436Y-76986885D01*
X112111100Y-76990872D01*
X112178624Y-77073150D01*
X112183087Y-77076239D01*
X112187828Y-77073604D01*
X112809372Y-76452061D01*
X112812005Y-76447500D01*
X112812004Y-76447499D01*
X113030103Y-76447499D01*
X113032958Y-76454392D01*
X113652170Y-77073604D01*
X113656912Y-77076239D01*
X113661371Y-77073153D01*
X113728901Y-76990869D01*
X113731562Y-76986886D01*
X113819360Y-76822628D01*
X113821199Y-76818189D01*
X113875267Y-76639953D01*
X113876200Y-76635260D01*
X113894457Y-76449896D01*
X114485543Y-76449896D01*
X114503799Y-76635260D01*
X114504732Y-76639953D01*
X114558800Y-76818189D01*
X114560639Y-76822628D01*
X114648436Y-76986885D01*
X114651100Y-76990872D01*
X114718624Y-77073150D01*
X114723087Y-77076239D01*
X114727828Y-77073604D01*
X115349372Y-76452061D01*
X115352005Y-76447500D01*
X115352004Y-76447499D01*
X115570103Y-76447499D01*
X115572958Y-76454392D01*
X116192170Y-77073604D01*
X116196912Y-77076239D01*
X116201371Y-77073153D01*
X116268901Y-76990869D01*
X116271562Y-76986886D01*
X116359360Y-76822628D01*
X116361199Y-76818189D01*
X116415267Y-76639953D01*
X116416200Y-76635260D01*
X116434457Y-76449896D01*
X116434457Y-76447500D01*
X117044901Y-76447500D01*
X117063253Y-76633831D01*
X117063948Y-76636124D01*
X117063950Y-76636131D01*
X117116903Y-76810691D01*
X117117604Y-76813001D01*
X117205864Y-76978125D01*
X117324643Y-77122857D01*
X117469375Y-77241636D01*
X117634499Y-77329896D01*
X117813669Y-77384247D01*
X118000000Y-77402599D01*
X118186331Y-77384247D01*
X118365501Y-77329896D01*
X118530625Y-77241636D01*
X118675357Y-77122857D01*
X118794136Y-76978125D01*
X118882396Y-76813001D01*
X118936747Y-76633831D01*
X118955099Y-76447500D01*
X119584901Y-76447500D01*
X119603253Y-76633831D01*
X119603948Y-76636124D01*
X119603950Y-76636131D01*
X119656903Y-76810691D01*
X119657604Y-76813001D01*
X119745864Y-76978125D01*
X119864643Y-77122857D01*
X120009375Y-77241636D01*
X120174499Y-77329896D01*
X120353669Y-77384247D01*
X120540000Y-77402599D01*
X120726331Y-77384247D01*
X120905501Y-77329896D01*
X121070625Y-77241636D01*
X121215357Y-77122857D01*
X121249905Y-77080760D01*
X122129500Y-77080760D01*
X122129756Y-77082517D01*
X122135633Y-77122857D01*
X122139427Y-77148893D01*
X122141097Y-77152309D01*
X122141098Y-77152312D01*
X122156791Y-77184412D01*
X122190802Y-77253983D01*
X122273517Y-77336698D01*
X122378607Y-77388073D01*
X122446740Y-77398000D01*
X123711484Y-77398000D01*
X123713260Y-77398000D01*
X123781393Y-77388073D01*
X123886483Y-77336698D01*
X123969198Y-77253983D01*
X124020573Y-77148893D01*
X124030500Y-77080760D01*
X124030500Y-75814240D01*
X124020573Y-75746107D01*
X123969198Y-75641017D01*
X123886483Y-75558302D01*
X123838228Y-75534712D01*
X123784812Y-75508598D01*
X123784809Y-75508597D01*
X123781393Y-75506927D01*
X123777628Y-75506378D01*
X123777627Y-75506378D01*
X123715017Y-75497256D01*
X123713260Y-75497000D01*
X122446740Y-75497000D01*
X122444983Y-75497255D01*
X122444982Y-75497256D01*
X122382372Y-75506378D01*
X122382369Y-75506378D01*
X122378607Y-75506927D01*
X122375192Y-75508596D01*
X122375187Y-75508598D01*
X122277166Y-75556518D01*
X122273517Y-75558302D01*
X122270646Y-75561172D01*
X122270643Y-75561175D01*
X122193675Y-75638143D01*
X122193672Y-75638146D01*
X122190802Y-75641017D01*
X122189018Y-75644665D01*
X122189018Y-75644666D01*
X122141098Y-75742687D01*
X122141096Y-75742692D01*
X122139427Y-75746107D01*
X122138878Y-75749869D01*
X122138878Y-75749872D01*
X122135362Y-75774005D01*
X122129500Y-75814240D01*
X122129500Y-77080760D01*
X121249905Y-77080760D01*
X121334136Y-76978125D01*
X121422396Y-76813001D01*
X121476747Y-76633831D01*
X121495099Y-76447500D01*
X121476747Y-76261169D01*
X121422396Y-76081999D01*
X121334136Y-75916875D01*
X121215357Y-75772143D01*
X121070625Y-75653364D01*
X121043003Y-75638600D01*
X120907630Y-75566242D01*
X120905501Y-75565104D01*
X120903193Y-75564403D01*
X120903191Y-75564403D01*
X120728631Y-75511450D01*
X120728624Y-75511448D01*
X120726331Y-75510753D01*
X120723941Y-75510517D01*
X120723938Y-75510517D01*
X120542396Y-75492637D01*
X120540000Y-75492401D01*
X120537604Y-75492637D01*
X120356061Y-75510517D01*
X120356056Y-75510517D01*
X120353669Y-75510753D01*
X120351377Y-75511448D01*
X120351368Y-75511450D01*
X120176808Y-75564403D01*
X120176802Y-75564405D01*
X120174499Y-75565104D01*
X120172373Y-75566240D01*
X120172369Y-75566242D01*
X120011499Y-75652228D01*
X120011493Y-75652231D01*
X120009375Y-75653364D01*
X120007518Y-75654887D01*
X120007512Y-75654892D01*
X119866505Y-75770614D01*
X119866500Y-75770618D01*
X119864643Y-75772143D01*
X119863118Y-75774000D01*
X119863114Y-75774005D01*
X119747392Y-75915012D01*
X119747387Y-75915018D01*
X119745864Y-75916875D01*
X119744731Y-75918993D01*
X119744728Y-75918999D01*
X119658742Y-76079869D01*
X119658740Y-76079873D01*
X119657604Y-76081999D01*
X119656905Y-76084302D01*
X119656903Y-76084308D01*
X119603950Y-76258868D01*
X119603948Y-76258877D01*
X119603253Y-76261169D01*
X119603017Y-76263556D01*
X119603017Y-76263561D01*
X119585754Y-76438832D01*
X119584901Y-76447500D01*
X118955099Y-76447500D01*
X118936747Y-76261169D01*
X118882396Y-76081999D01*
X118794136Y-75916875D01*
X118675357Y-75772143D01*
X118530625Y-75653364D01*
X118503003Y-75638600D01*
X118367630Y-75566242D01*
X118365501Y-75565104D01*
X118363193Y-75564403D01*
X118363191Y-75564403D01*
X118188631Y-75511450D01*
X118188624Y-75511448D01*
X118186331Y-75510753D01*
X118183941Y-75510517D01*
X118183938Y-75510517D01*
X118002396Y-75492637D01*
X118000000Y-75492401D01*
X117997604Y-75492637D01*
X117816061Y-75510517D01*
X117816056Y-75510517D01*
X117813669Y-75510753D01*
X117811377Y-75511448D01*
X117811368Y-75511450D01*
X117636808Y-75564403D01*
X117636802Y-75564405D01*
X117634499Y-75565104D01*
X117632373Y-75566240D01*
X117632369Y-75566242D01*
X117471499Y-75652228D01*
X117471493Y-75652231D01*
X117469375Y-75653364D01*
X117467518Y-75654887D01*
X117467512Y-75654892D01*
X117326505Y-75770614D01*
X117326500Y-75770618D01*
X117324643Y-75772143D01*
X117323118Y-75774000D01*
X117323114Y-75774005D01*
X117207392Y-75915012D01*
X117207387Y-75915018D01*
X117205864Y-75916875D01*
X117204731Y-75918993D01*
X117204728Y-75918999D01*
X117118742Y-76079869D01*
X117118740Y-76079873D01*
X117117604Y-76081999D01*
X117116905Y-76084302D01*
X117116903Y-76084308D01*
X117063950Y-76258868D01*
X117063948Y-76258877D01*
X117063253Y-76261169D01*
X117063017Y-76263556D01*
X117063017Y-76263561D01*
X117045754Y-76438832D01*
X117044901Y-76447500D01*
X116434457Y-76447500D01*
X116434457Y-76445104D01*
X116416200Y-76259739D01*
X116415267Y-76255046D01*
X116361199Y-76076810D01*
X116359360Y-76072371D01*
X116271563Y-75908114D01*
X116268899Y-75904127D01*
X116201374Y-75821848D01*
X116196911Y-75818759D01*
X116192170Y-75821394D01*
X115572958Y-76440607D01*
X115570103Y-76447499D01*
X115352004Y-76447499D01*
X115349372Y-76442938D01*
X114727828Y-75821394D01*
X114723087Y-75818759D01*
X114718625Y-75821847D01*
X114651098Y-75904129D01*
X114648436Y-75908115D01*
X114560639Y-76072371D01*
X114558800Y-76076810D01*
X114504732Y-76255046D01*
X114503799Y-76259739D01*
X114485543Y-76445104D01*
X114485543Y-76449896D01*
X113894457Y-76449896D01*
X113894457Y-76445104D01*
X113876200Y-76259739D01*
X113875267Y-76255046D01*
X113821199Y-76076810D01*
X113819360Y-76072371D01*
X113731563Y-75908114D01*
X113728899Y-75904127D01*
X113661374Y-75821848D01*
X113656911Y-75818759D01*
X113652170Y-75821394D01*
X113032958Y-76440607D01*
X113030103Y-76447499D01*
X112812004Y-76447499D01*
X112809372Y-76442938D01*
X112187828Y-75821394D01*
X112183087Y-75818759D01*
X112178625Y-75821847D01*
X112111098Y-75904129D01*
X112108436Y-75908115D01*
X112020639Y-76072371D01*
X112018800Y-76076810D01*
X111964732Y-76255046D01*
X111963799Y-76259739D01*
X111945543Y-76445104D01*
X111945543Y-76449896D01*
X100120500Y-76449896D01*
X100120500Y-75710587D01*
X112291259Y-75710587D01*
X112293894Y-75715328D01*
X112915438Y-76336872D01*
X112919999Y-76339505D01*
X112924561Y-76336872D01*
X113546104Y-75715328D01*
X113548739Y-75710587D01*
X114831259Y-75710587D01*
X114833894Y-75715328D01*
X115455438Y-76336872D01*
X115459999Y-76339505D01*
X115464561Y-76336872D01*
X116086104Y-75715328D01*
X116088739Y-75710587D01*
X116085650Y-75706124D01*
X116003372Y-75638600D01*
X115999385Y-75635936D01*
X115835128Y-75548139D01*
X115830689Y-75546300D01*
X115652453Y-75492232D01*
X115647760Y-75491299D01*
X115462396Y-75473043D01*
X115457604Y-75473043D01*
X115272239Y-75491299D01*
X115267546Y-75492232D01*
X115089310Y-75546300D01*
X115084871Y-75548139D01*
X114920615Y-75635936D01*
X114916629Y-75638598D01*
X114834347Y-75706125D01*
X114831259Y-75710587D01*
X113548739Y-75710587D01*
X113545650Y-75706124D01*
X113463372Y-75638600D01*
X113459385Y-75635936D01*
X113295128Y-75548139D01*
X113290689Y-75546300D01*
X113112453Y-75492232D01*
X113107760Y-75491299D01*
X112922396Y-75473043D01*
X112917604Y-75473043D01*
X112732239Y-75491299D01*
X112727546Y-75492232D01*
X112549310Y-75546300D01*
X112544871Y-75548139D01*
X112380615Y-75635936D01*
X112376629Y-75638598D01*
X112294347Y-75706125D01*
X112291259Y-75710587D01*
X100120500Y-75710587D01*
X100120500Y-65169500D01*
X100134852Y-65134852D01*
X100169500Y-65120500D01*
X159830500Y-65120500D01*
X159865148Y-65134852D01*
G37*
%TD.AperFunction*%
%TD*%
M02*
