%TF.GenerationSoftware,KiCad,Pcbnew,(7.0.0)*%
%TF.CreationDate,2023-03-15T10:57:15-04:00*%
%TF.ProjectId,headstage-neuropix2e,68656164-7374-4616-9765-2d6e6575726f,A*%
%TF.SameCoordinates,Original*%
%TF.FileFunction,Copper,L2,Inr*%
%TF.FilePolarity,Positive*%
%FSLAX46Y46*%
G04 Gerber Fmt 4.6, Leading zero omitted, Abs format (unit mm)*
G04 Created by KiCad (PCBNEW (7.0.0)) date 2023-03-15 10:57:15*
%MOMM*%
%LPD*%
G01*
G04 APERTURE LIST*
G04 Aperture macros list*
%AMRoundRect*
0 Rectangle with rounded corners*
0 $1 Rounding radius*
0 $2 $3 $4 $5 $6 $7 $8 $9 X,Y pos of 4 corners*
0 Add a 4 corners polygon primitive as box body*
4,1,4,$2,$3,$4,$5,$6,$7,$8,$9,$2,$3,0*
0 Add four circle primitives for the rounded corners*
1,1,$1+$1,$2,$3*
1,1,$1+$1,$4,$5*
1,1,$1+$1,$6,$7*
1,1,$1+$1,$8,$9*
0 Add four rect primitives between the rounded corners*
20,1,$1+$1,$2,$3,$4,$5,0*
20,1,$1+$1,$4,$5,$6,$7,0*
20,1,$1+$1,$6,$7,$8,$9,0*
20,1,$1+$1,$8,$9,$2,$3,0*%
G04 Aperture macros list end*
%TA.AperFunction,ComponentPad*%
%ADD10O,1.400000X2.600000*%
%TD*%
%TA.AperFunction,ComponentPad*%
%ADD11RoundRect,0.250000X-0.600000X0.600000X-0.600000X-0.600000X0.600000X-0.600000X0.600000X0.600000X0*%
%TD*%
%TA.AperFunction,ComponentPad*%
%ADD12C,1.700000*%
%TD*%
%TA.AperFunction,ViaPad*%
%ADD13C,0.200000*%
%TD*%
%TA.AperFunction,ViaPad*%
%ADD14C,0.300000*%
%TD*%
G04 APERTURE END LIST*
D10*
%TO.N,/Neuropixels 2.0/NP_{TP0}*%
%TO.C,TP2*%
X146634999Y-83419999D03*
%TD*%
%TO.N,GND*%
%TO.C,TP1*%
X144954999Y-83419999D03*
%TD*%
D11*
%TO.N,+4V*%
%TO.C,J4*%
X123080000Y-76447500D03*
D12*
X123080000Y-78987500D03*
%TO.N,/Neuropixels 2.0/SCL*%
X120540000Y-76447500D03*
X120540000Y-78987500D03*
%TO.N,/Neuropixels 2.0/SDA*%
X118000000Y-76447500D03*
X118000000Y-78987500D03*
%TO.N,GND*%
X115460000Y-76447500D03*
X115460000Y-78987500D03*
X112920000Y-76447500D03*
X112920000Y-78987500D03*
%TD*%
D13*
%TO.N,Net-(U3-MODE)*%
X141625000Y-87650000D03*
%TO.N,GND*%
X146915000Y-84930000D03*
X138835000Y-83649300D03*
X137898663Y-88881316D03*
X142125000Y-95650000D03*
X142725000Y-94750000D03*
D14*
X156300000Y-121900000D03*
D13*
X142075000Y-94750000D03*
X139870000Y-87480000D03*
X139750000Y-88050498D03*
X141615000Y-84550000D03*
X145475000Y-87550000D03*
X144000000Y-94725000D03*
X146785000Y-95970000D03*
X139445000Y-90900000D03*
X145625000Y-94100000D03*
D14*
X139900000Y-106500000D03*
D13*
X144005000Y-91150000D03*
X139415000Y-83640000D03*
X142574999Y-82474998D03*
X137915500Y-87943311D03*
X139470000Y-89250000D03*
D14*
X135640000Y-73600000D03*
D13*
X144455000Y-90760000D03*
X143185000Y-84540000D03*
X137925000Y-95200000D03*
X146925000Y-95200000D03*
X141525000Y-93720500D03*
X146680000Y-94660000D03*
X140005000Y-83700000D03*
X145275000Y-94750000D03*
X146025000Y-85130000D03*
X140362500Y-88150500D03*
X143225000Y-85400000D03*
X147035000Y-85460000D03*
X144755000Y-88270000D03*
X138306076Y-91856076D03*
X139025000Y-90250000D03*
X141607409Y-88089070D03*
X144465000Y-89370000D03*
X144525000Y-95650000D03*
X143025000Y-90500000D03*
X143925000Y-95650000D03*
X140075000Y-94775000D03*
X139165000Y-86900000D03*
X140925000Y-95650000D03*
X143025000Y-90000000D03*
X140225000Y-92510000D03*
X141975000Y-82620000D03*
X143845000Y-93830000D03*
X140325000Y-93720500D03*
X137785000Y-89620000D03*
X137810700Y-83680000D03*
X139925000Y-90200000D03*
X144755000Y-88610000D03*
X140325000Y-95650000D03*
X138525000Y-94750000D03*
D14*
X126680000Y-71747500D03*
X156700000Y-69100000D03*
X155800000Y-87500000D03*
D13*
X141225000Y-84830000D03*
X143725000Y-87600000D03*
X144565000Y-93780000D03*
X144815000Y-90110000D03*
X142775000Y-85400000D03*
X141395000Y-84090000D03*
X140462500Y-87724500D03*
X143705000Y-84520000D03*
X147010000Y-94230000D03*
X143565000Y-84070000D03*
X142475000Y-85050000D03*
X143285000Y-88250000D03*
X144185000Y-87630000D03*
X147135000Y-86480000D03*
D14*
X107600000Y-104500000D03*
X103100000Y-122100000D03*
D13*
X142725000Y-93710000D03*
X139455000Y-90190000D03*
X143025000Y-91150500D03*
X140905000Y-94725000D03*
X143880840Y-88220500D03*
X143385000Y-88770000D03*
X145125000Y-85330000D03*
X139107347Y-94319500D03*
X142165000Y-90630000D03*
D14*
X105450000Y-70470000D03*
D13*
X142725000Y-95650000D03*
X137955000Y-94170000D03*
X142355000Y-91170000D03*
D14*
X145200000Y-72300000D03*
D13*
X137975000Y-87440000D03*
D14*
X154200000Y-101500000D03*
D13*
X141625000Y-87249500D03*
D14*
X103900000Y-84800000D03*
X130200000Y-99700000D03*
D13*
X142025000Y-85450000D03*
X137781392Y-91260865D03*
X137915000Y-93180000D03*
X139725000Y-86450000D03*
%TO.N,+1V8*%
X145875500Y-91592347D03*
X139435000Y-84730000D03*
X139025000Y-89250000D03*
X146434268Y-86221264D03*
X138620290Y-88099352D03*
X144275000Y-91650500D03*
X143157963Y-86612963D03*
D14*
X140775000Y-86900000D03*
D13*
X138147595Y-92527730D03*
X146655000Y-87170000D03*
X145820230Y-89664770D03*
X138984500Y-91016076D03*
%TO.N,/Neuropixels 2.0/PCLK*%
X141625000Y-90210000D03*
X142425000Y-93150000D03*
%TO.N,/Neuropixels 2.0/SDA_{A}*%
X139040000Y-92557084D03*
X142122378Y-89995974D03*
%TO.N,+4V*%
X138640419Y-85475200D03*
D14*
X138124999Y-85890001D03*
X120200000Y-94945000D03*
D13*
X138355000Y-84600000D03*
D14*
%TO.N,/Neuropixels 2.0/SCL*%
X118000000Y-97340000D03*
D13*
X140625000Y-90625000D03*
X142235000Y-89324500D03*
X145075000Y-86100000D03*
X138735000Y-84740000D03*
X139642609Y-93772609D03*
X141234061Y-89672090D03*
%TO.N,/Neuropixels 2.0/SYNC*%
X139725000Y-95650000D03*
X145125000Y-95650000D03*
%TO.N,/Neuropixels 2.0/D7*%
X144455065Y-91149935D03*
X140025000Y-93150000D03*
%TO.N,Net-(L1-Pad2)*%
X137921788Y-84655700D03*
%TO.N,/Neuropixels 2.0/D6*%
X145075000Y-91385075D03*
X140625000Y-93150000D03*
%TO.N,/Neuropixels 2.0/D5*%
X141225000Y-93150000D03*
X145539322Y-91153783D03*
%TO.N,/Neuropixels 2.0/D4*%
X141825000Y-93150000D03*
X145855000Y-90720000D03*
%TO.N,/Neuropixels 2.0/D3*%
X143025000Y-93150000D03*
X145871150Y-90001022D03*
%TO.N,/Neuropixels 2.0/D2*%
X146185000Y-89750000D03*
X143625000Y-93150000D03*
%TO.N,/Neuropixels 2.0/D1*%
X146405000Y-89140000D03*
X144225000Y-93150000D03*
%TO.N,/Neuropixels 2.0/D0*%
X146425000Y-88650002D03*
X144825000Y-93150000D03*
D14*
%TO.N,/DC Tap & Regulation/RF+DC*%
X142525000Y-84475000D03*
D13*
%TO.N,/Neuropixels 2.0/NP_{TP0}*%
X138875000Y-94980000D03*
X146325000Y-95000000D03*
%TO.N,/Neuropixels 2.0/SDA_{B}*%
X146068576Y-93973576D03*
%TO.N,/Neuropixels 2.0/SDA*%
X142225000Y-90290000D03*
X143175250Y-87650499D03*
X145774501Y-90410000D03*
X142177262Y-88059188D03*
X141625000Y-89150000D03*
X139085000Y-84730000D03*
D14*
X123200000Y-92000000D03*
D13*
X144915000Y-85700000D03*
D14*
X125255000Y-96035000D03*
D13*
%TO.N,/Perpherials/GPIO*%
X140600000Y-82204300D03*
X146099498Y-87271944D03*
%TO.N,/Neuropixels 2.0/NP_{Select}*%
X145975500Y-86850000D03*
X145774501Y-88979500D03*
D14*
%TO.N,+2V5*%
X140375000Y-86400000D03*
D13*
X138215000Y-89990000D03*
%TO.N,Net-(U3-DOUTP)*%
X144425000Y-86449500D03*
%TO.N,Net-(U7-CAP)*%
X139483691Y-92449503D03*
%TO.N,Net-(U3-GPIO3{slash}CLKIN)*%
X145857158Y-86184021D03*
X145895000Y-87940000D03*
%TO.N,/Neuropixels 2.0/NP_{RESET}*%
X145725000Y-95650000D03*
X139125000Y-95650000D03*
X145675000Y-95046446D03*
%TO.N,+1.8VA*%
X143205000Y-93880000D03*
X141525000Y-95650000D03*
X138570000Y-91375000D03*
X143325000Y-95650000D03*
X143331424Y-92606424D03*
%TO.N,/Neuropixels 2.0/NP_{TP1}*%
X146495500Y-93475000D03*
%TO.N,/Serializer/Dout-*%
X144025000Y-85380000D03*
%TO.N,Net-(U3-VDDCML)*%
X144845000Y-87650499D03*
%TD*%
%TA.AperFunction,Conductor*%
%TO.N,GND*%
G36*
X142915386Y-81914352D02*
G01*
X142947508Y-81946474D01*
X143031992Y-81995251D01*
X143126223Y-82020500D01*
X143139618Y-82020500D01*
X143175000Y-82020500D01*
X143207288Y-82020500D01*
X146232706Y-82020500D01*
X146262171Y-82030348D01*
X146279791Y-82055935D01*
X146278484Y-82086974D01*
X146258776Y-82110989D01*
X146135069Y-82188718D01*
X146135061Y-82188724D01*
X146132738Y-82190184D01*
X146130794Y-82192127D01*
X146130790Y-82192131D01*
X146007131Y-82315790D01*
X146007127Y-82315794D01*
X146005184Y-82317738D01*
X146003724Y-82320061D01*
X146003718Y-82320069D01*
X145910675Y-82468147D01*
X145910672Y-82468151D01*
X145909211Y-82470478D01*
X145908302Y-82473072D01*
X145908302Y-82473075D01*
X145850540Y-82638147D01*
X145850537Y-82638155D01*
X145849632Y-82640745D01*
X145849324Y-82643477D01*
X145849324Y-82643478D01*
X145834653Y-82773679D01*
X145834651Y-82773696D01*
X145834500Y-82775046D01*
X145834500Y-84064954D01*
X145834652Y-84066303D01*
X145834653Y-84066320D01*
X145848618Y-84190256D01*
X145849632Y-84199255D01*
X145850538Y-84201846D01*
X145850540Y-84201852D01*
X145881986Y-84291718D01*
X145909211Y-84369522D01*
X145910674Y-84371851D01*
X145910675Y-84371852D01*
X146003718Y-84519930D01*
X146003721Y-84519934D01*
X146005184Y-84522262D01*
X146132738Y-84649816D01*
X146135067Y-84651279D01*
X146135069Y-84651281D01*
X146209107Y-84697802D01*
X146285478Y-84745789D01*
X146455745Y-84805368D01*
X146635000Y-84825565D01*
X146814255Y-84805368D01*
X146984522Y-84745789D01*
X147137262Y-84649816D01*
X147264816Y-84522262D01*
X147314010Y-84443969D01*
X147338026Y-84424261D01*
X147369065Y-84422954D01*
X147394652Y-84440574D01*
X147404500Y-84470039D01*
X147404500Y-89887082D01*
X147404497Y-89887108D01*
X147404493Y-89887108D01*
X147404493Y-89887133D01*
X147404493Y-89887134D01*
X147404493Y-89982996D01*
X147404493Y-89983007D01*
X147404494Y-89985139D01*
X147404831Y-89987051D01*
X147405000Y-89990925D01*
X147405000Y-92603353D01*
X147404832Y-92607186D01*
X147404499Y-92609076D01*
X147404499Y-92671725D01*
X147404500Y-92671725D01*
X147404500Y-92671727D01*
X147404500Y-96030500D01*
X147390148Y-96065148D01*
X147355500Y-96079500D01*
X144182288Y-96079500D01*
X144150000Y-96079500D01*
X144051969Y-96079500D01*
X144050079Y-96079833D01*
X144046251Y-96080000D01*
X141433749Y-96080000D01*
X141429920Y-96079833D01*
X141428031Y-96079500D01*
X141425890Y-96079500D01*
X137494500Y-96079500D01*
X137459852Y-96065148D01*
X137445500Y-96030500D01*
X137445500Y-95650000D01*
X138919344Y-95650000D01*
X138939710Y-95739231D01*
X138948839Y-95750678D01*
X138989539Y-95801714D01*
X138996776Y-95810788D01*
X139079237Y-95850500D01*
X139165243Y-95850500D01*
X139170763Y-95850500D01*
X139253224Y-95810788D01*
X139310290Y-95739231D01*
X139330656Y-95650000D01*
X139519344Y-95650000D01*
X139539710Y-95739231D01*
X139548839Y-95750678D01*
X139589539Y-95801714D01*
X139596776Y-95810788D01*
X139679237Y-95850500D01*
X139765243Y-95850500D01*
X139770763Y-95850500D01*
X139853224Y-95810788D01*
X139910290Y-95739231D01*
X139930656Y-95650000D01*
X141319344Y-95650000D01*
X141339710Y-95739231D01*
X141348839Y-95750678D01*
X141389539Y-95801714D01*
X141396776Y-95810788D01*
X141479237Y-95850500D01*
X141565243Y-95850500D01*
X141570763Y-95850500D01*
X141653224Y-95810788D01*
X141710290Y-95739231D01*
X141730656Y-95650000D01*
X143119344Y-95650000D01*
X143139710Y-95739231D01*
X143148839Y-95750678D01*
X143189539Y-95801714D01*
X143196776Y-95810788D01*
X143279237Y-95850500D01*
X143365243Y-95850500D01*
X143370763Y-95850500D01*
X143453224Y-95810788D01*
X143510290Y-95739231D01*
X143530656Y-95650000D01*
X144919344Y-95650000D01*
X144939710Y-95739231D01*
X144948839Y-95750678D01*
X144989539Y-95801714D01*
X144996776Y-95810788D01*
X145079237Y-95850500D01*
X145165243Y-95850500D01*
X145170763Y-95850500D01*
X145253224Y-95810788D01*
X145310290Y-95739231D01*
X145330656Y-95650000D01*
X145519344Y-95650000D01*
X145539710Y-95739231D01*
X145548839Y-95750678D01*
X145589539Y-95801714D01*
X145596776Y-95810788D01*
X145679237Y-95850500D01*
X145765243Y-95850500D01*
X145770763Y-95850500D01*
X145853224Y-95810788D01*
X145910290Y-95739231D01*
X145930656Y-95650000D01*
X145910290Y-95560769D01*
X145870147Y-95510433D01*
X145856667Y-95493529D01*
X145856666Y-95493528D01*
X145853224Y-95489212D01*
X145770763Y-95449500D01*
X145679237Y-95449500D01*
X145674264Y-95451894D01*
X145674263Y-95451895D01*
X145601750Y-95486816D01*
X145601748Y-95486817D01*
X145596776Y-95489212D01*
X145593335Y-95493526D01*
X145593332Y-95493529D01*
X145543154Y-95556450D01*
X145539710Y-95560769D01*
X145519344Y-95650000D01*
X145330656Y-95650000D01*
X145310290Y-95560769D01*
X145270147Y-95510433D01*
X145256667Y-95493529D01*
X145256666Y-95493528D01*
X145253224Y-95489212D01*
X145170763Y-95449500D01*
X145079237Y-95449500D01*
X145074264Y-95451894D01*
X145074263Y-95451895D01*
X145001750Y-95486816D01*
X145001748Y-95486817D01*
X144996776Y-95489212D01*
X144993335Y-95493526D01*
X144993332Y-95493529D01*
X144943154Y-95556450D01*
X144939710Y-95560769D01*
X144919344Y-95650000D01*
X143530656Y-95650000D01*
X143510290Y-95560769D01*
X143470147Y-95510433D01*
X143456667Y-95493529D01*
X143456666Y-95493528D01*
X143453224Y-95489212D01*
X143370763Y-95449500D01*
X143279237Y-95449500D01*
X143274264Y-95451894D01*
X143274263Y-95451895D01*
X143201750Y-95486816D01*
X143201748Y-95486817D01*
X143196776Y-95489212D01*
X143193335Y-95493526D01*
X143193332Y-95493529D01*
X143143154Y-95556450D01*
X143139710Y-95560769D01*
X143119344Y-95650000D01*
X141730656Y-95650000D01*
X141710290Y-95560769D01*
X141670147Y-95510433D01*
X141656667Y-95493529D01*
X141656666Y-95493528D01*
X141653224Y-95489212D01*
X141570763Y-95449500D01*
X141479237Y-95449500D01*
X141474264Y-95451894D01*
X141474263Y-95451895D01*
X141401750Y-95486816D01*
X141401748Y-95486817D01*
X141396776Y-95489212D01*
X141393335Y-95493526D01*
X141393332Y-95493529D01*
X141343154Y-95556450D01*
X141339710Y-95560769D01*
X141319344Y-95650000D01*
X139930656Y-95650000D01*
X139910290Y-95560769D01*
X139870147Y-95510433D01*
X139856667Y-95493529D01*
X139856666Y-95493528D01*
X139853224Y-95489212D01*
X139770763Y-95449500D01*
X139679237Y-95449500D01*
X139674264Y-95451894D01*
X139674263Y-95451895D01*
X139601750Y-95486816D01*
X139601748Y-95486817D01*
X139596776Y-95489212D01*
X139593335Y-95493526D01*
X139593332Y-95493529D01*
X139543154Y-95556450D01*
X139539710Y-95560769D01*
X139519344Y-95650000D01*
X139330656Y-95650000D01*
X139310290Y-95560769D01*
X139270147Y-95510433D01*
X139256667Y-95493529D01*
X139256666Y-95493528D01*
X139253224Y-95489212D01*
X139170763Y-95449500D01*
X139079237Y-95449500D01*
X139074264Y-95451894D01*
X139074263Y-95451895D01*
X139001750Y-95486816D01*
X139001748Y-95486817D01*
X138996776Y-95489212D01*
X138993335Y-95493526D01*
X138993332Y-95493529D01*
X138943154Y-95556450D01*
X138939710Y-95560769D01*
X138919344Y-95650000D01*
X137445500Y-95650000D01*
X137445500Y-94980000D01*
X138669344Y-94980000D01*
X138670572Y-94985380D01*
X138684509Y-95046446D01*
X138689710Y-95069231D01*
X138718242Y-95105009D01*
X138736801Y-95128281D01*
X138746776Y-95140788D01*
X138829237Y-95180500D01*
X138915243Y-95180500D01*
X138920763Y-95180500D01*
X139003224Y-95140788D01*
X139060290Y-95069231D01*
X139065490Y-95046446D01*
X145469344Y-95046446D01*
X145470572Y-95051826D01*
X145486494Y-95121589D01*
X145489710Y-95135677D01*
X145493154Y-95139995D01*
X145541405Y-95200500D01*
X145546776Y-95207234D01*
X145629237Y-95246946D01*
X145715243Y-95246946D01*
X145720763Y-95246946D01*
X145803224Y-95207234D01*
X145860290Y-95135677D01*
X145880656Y-95046446D01*
X145870055Y-95000000D01*
X146119344Y-95000000D01*
X146139710Y-95089231D01*
X146143154Y-95093549D01*
X146177382Y-95136470D01*
X146196776Y-95160788D01*
X146279237Y-95200500D01*
X146365243Y-95200500D01*
X146370763Y-95200500D01*
X146453224Y-95160788D01*
X146510290Y-95089231D01*
X146530656Y-95000000D01*
X146510290Y-94910769D01*
X146453224Y-94839212D01*
X146411694Y-94819212D01*
X146375736Y-94801895D01*
X146370763Y-94799500D01*
X146279237Y-94799500D01*
X146274264Y-94801894D01*
X146274263Y-94801895D01*
X146201750Y-94836816D01*
X146201748Y-94836817D01*
X146196776Y-94839212D01*
X146193335Y-94843526D01*
X146193332Y-94843529D01*
X146143154Y-94906450D01*
X146139710Y-94910769D01*
X146138481Y-94916150D01*
X146138481Y-94916152D01*
X146125137Y-94974620D01*
X146119344Y-95000000D01*
X145870055Y-95000000D01*
X145860290Y-94957215D01*
X145803224Y-94885658D01*
X145720763Y-94845946D01*
X145629237Y-94845946D01*
X145624264Y-94848340D01*
X145624263Y-94848341D01*
X145551750Y-94883262D01*
X145551748Y-94883263D01*
X145546776Y-94885658D01*
X145543335Y-94889972D01*
X145543332Y-94889975D01*
X145503228Y-94940264D01*
X145489710Y-94957215D01*
X145488481Y-94962596D01*
X145488481Y-94962598D01*
X145481173Y-94994620D01*
X145469344Y-95046446D01*
X139065490Y-95046446D01*
X139080656Y-94980000D01*
X139060290Y-94890769D01*
X139003224Y-94819212D01*
X138920763Y-94779500D01*
X138829237Y-94779500D01*
X138824264Y-94781894D01*
X138824263Y-94781895D01*
X138751750Y-94816816D01*
X138751748Y-94816817D01*
X138746776Y-94819212D01*
X138743335Y-94823526D01*
X138743332Y-94823529D01*
X138695108Y-94884000D01*
X138689710Y-94890769D01*
X138688481Y-94896150D01*
X138688481Y-94896152D01*
X138678413Y-94940264D01*
X138669344Y-94980000D01*
X137445500Y-94980000D01*
X137445500Y-93772609D01*
X139436953Y-93772609D01*
X139457319Y-93861840D01*
X139514385Y-93933397D01*
X139596846Y-93973109D01*
X139682852Y-93973109D01*
X139688372Y-93973109D01*
X139770833Y-93933397D01*
X139813417Y-93880000D01*
X142999344Y-93880000D01*
X143019710Y-93969231D01*
X143076776Y-94040788D01*
X143159237Y-94080500D01*
X143245243Y-94080500D01*
X143250763Y-94080500D01*
X143333224Y-94040788D01*
X143386825Y-93973576D01*
X145862920Y-93973576D01*
X145883286Y-94062807D01*
X145940352Y-94134364D01*
X146022813Y-94174076D01*
X146108819Y-94174076D01*
X146114339Y-94174076D01*
X146196800Y-94134364D01*
X146253866Y-94062807D01*
X146274232Y-93973576D01*
X146253866Y-93884345D01*
X146196800Y-93812788D01*
X146114339Y-93773076D01*
X146022813Y-93773076D01*
X146017840Y-93775470D01*
X146017839Y-93775471D01*
X145945326Y-93810392D01*
X145945324Y-93810393D01*
X145940352Y-93812788D01*
X145936911Y-93817102D01*
X145936908Y-93817105D01*
X145886751Y-93880000D01*
X145883286Y-93884345D01*
X145862920Y-93973576D01*
X143386825Y-93973576D01*
X143390290Y-93969231D01*
X143410656Y-93880000D01*
X143390290Y-93790769D01*
X143333224Y-93719212D01*
X143250763Y-93679500D01*
X143159237Y-93679500D01*
X143154264Y-93681894D01*
X143154263Y-93681895D01*
X143081750Y-93716816D01*
X143081748Y-93716817D01*
X143076776Y-93719212D01*
X143073335Y-93723526D01*
X143073332Y-93723529D01*
X143023154Y-93786450D01*
X143019710Y-93790769D01*
X142999344Y-93880000D01*
X139813417Y-93880000D01*
X139827899Y-93861840D01*
X139848265Y-93772609D01*
X139827899Y-93683378D01*
X139770833Y-93611821D01*
X139688372Y-93572109D01*
X139596846Y-93572109D01*
X139591873Y-93574503D01*
X139591872Y-93574504D01*
X139519359Y-93609425D01*
X139519357Y-93609426D01*
X139514385Y-93611821D01*
X139510944Y-93616135D01*
X139510941Y-93616138D01*
X139460763Y-93679059D01*
X139457319Y-93683378D01*
X139436953Y-93772609D01*
X137445500Y-93772609D01*
X137445500Y-93475000D01*
X146289844Y-93475000D01*
X146310210Y-93564231D01*
X146313654Y-93568549D01*
X146348162Y-93611821D01*
X146367276Y-93635788D01*
X146449737Y-93675500D01*
X146535743Y-93675500D01*
X146541263Y-93675500D01*
X146623724Y-93635788D01*
X146680790Y-93564231D01*
X146701156Y-93475000D01*
X146680790Y-93385769D01*
X146623724Y-93314212D01*
X146541263Y-93274500D01*
X146449737Y-93274500D01*
X146444764Y-93276894D01*
X146444763Y-93276895D01*
X146372250Y-93311816D01*
X146372248Y-93311817D01*
X146367276Y-93314212D01*
X146363835Y-93318526D01*
X146363832Y-93318529D01*
X146313654Y-93381450D01*
X146310210Y-93385769D01*
X146289844Y-93475000D01*
X137445500Y-93475000D01*
X137445500Y-93150000D01*
X139819344Y-93150000D01*
X139820572Y-93155380D01*
X139828387Y-93189623D01*
X139839710Y-93239231D01*
X139896776Y-93310788D01*
X139979237Y-93350500D01*
X140065243Y-93350500D01*
X140070763Y-93350500D01*
X140153224Y-93310788D01*
X140210290Y-93239231D01*
X140230656Y-93150000D01*
X140419344Y-93150000D01*
X140420572Y-93155380D01*
X140428387Y-93189623D01*
X140439710Y-93239231D01*
X140496776Y-93310788D01*
X140579237Y-93350500D01*
X140665243Y-93350500D01*
X140670763Y-93350500D01*
X140753224Y-93310788D01*
X140810290Y-93239231D01*
X140830656Y-93150000D01*
X141019344Y-93150000D01*
X141020572Y-93155380D01*
X141028387Y-93189623D01*
X141039710Y-93239231D01*
X141096776Y-93310788D01*
X141179237Y-93350500D01*
X141265243Y-93350500D01*
X141270763Y-93350500D01*
X141353224Y-93310788D01*
X141410290Y-93239231D01*
X141430656Y-93150000D01*
X141619344Y-93150000D01*
X141620572Y-93155380D01*
X141628387Y-93189623D01*
X141639710Y-93239231D01*
X141696776Y-93310788D01*
X141779237Y-93350500D01*
X141865243Y-93350500D01*
X141870763Y-93350500D01*
X141953224Y-93310788D01*
X142010290Y-93239231D01*
X142030656Y-93150000D01*
X142219344Y-93150000D01*
X142220572Y-93155380D01*
X142228387Y-93189623D01*
X142239710Y-93239231D01*
X142296776Y-93310788D01*
X142379237Y-93350500D01*
X142465243Y-93350500D01*
X142470763Y-93350500D01*
X142553224Y-93310788D01*
X142610290Y-93239231D01*
X142630656Y-93150000D01*
X142819344Y-93150000D01*
X142820572Y-93155380D01*
X142828387Y-93189623D01*
X142839710Y-93239231D01*
X142896776Y-93310788D01*
X142979237Y-93350500D01*
X143065243Y-93350500D01*
X143070763Y-93350500D01*
X143153224Y-93310788D01*
X143210290Y-93239231D01*
X143230656Y-93150000D01*
X143419344Y-93150000D01*
X143420572Y-93155380D01*
X143428387Y-93189623D01*
X143439710Y-93239231D01*
X143496776Y-93310788D01*
X143579237Y-93350500D01*
X143665243Y-93350500D01*
X143670763Y-93350500D01*
X143753224Y-93310788D01*
X143810290Y-93239231D01*
X143830656Y-93150000D01*
X144019344Y-93150000D01*
X144020572Y-93155380D01*
X144028387Y-93189623D01*
X144039710Y-93239231D01*
X144096776Y-93310788D01*
X144179237Y-93350500D01*
X144265243Y-93350500D01*
X144270763Y-93350500D01*
X144353224Y-93310788D01*
X144410290Y-93239231D01*
X144430656Y-93150000D01*
X144619344Y-93150000D01*
X144620572Y-93155380D01*
X144628387Y-93189623D01*
X144639710Y-93239231D01*
X144696776Y-93310788D01*
X144779237Y-93350500D01*
X144865243Y-93350500D01*
X144870763Y-93350500D01*
X144953224Y-93310788D01*
X145010290Y-93239231D01*
X145030656Y-93150000D01*
X145010290Y-93060769D01*
X144953224Y-92989212D01*
X144870763Y-92949500D01*
X144779237Y-92949500D01*
X144774264Y-92951894D01*
X144774263Y-92951895D01*
X144701750Y-92986816D01*
X144701748Y-92986817D01*
X144696776Y-92989212D01*
X144693335Y-92993526D01*
X144693332Y-92993529D01*
X144643154Y-93056450D01*
X144639710Y-93060769D01*
X144619344Y-93150000D01*
X144430656Y-93150000D01*
X144410290Y-93060769D01*
X144353224Y-92989212D01*
X144270763Y-92949500D01*
X144179237Y-92949500D01*
X144174264Y-92951894D01*
X144174263Y-92951895D01*
X144101750Y-92986816D01*
X144101748Y-92986817D01*
X144096776Y-92989212D01*
X144093335Y-92993526D01*
X144093332Y-92993529D01*
X144043154Y-93056450D01*
X144039710Y-93060769D01*
X144019344Y-93150000D01*
X143830656Y-93150000D01*
X143810290Y-93060769D01*
X143753224Y-92989212D01*
X143670763Y-92949500D01*
X143579237Y-92949500D01*
X143574264Y-92951894D01*
X143574263Y-92951895D01*
X143501750Y-92986816D01*
X143501748Y-92986817D01*
X143496776Y-92989212D01*
X143493335Y-92993526D01*
X143493332Y-92993529D01*
X143443154Y-93056450D01*
X143439710Y-93060769D01*
X143419344Y-93150000D01*
X143230656Y-93150000D01*
X143210290Y-93060769D01*
X143153224Y-92989212D01*
X143070763Y-92949500D01*
X142979237Y-92949500D01*
X142974264Y-92951894D01*
X142974263Y-92951895D01*
X142901750Y-92986816D01*
X142901748Y-92986817D01*
X142896776Y-92989212D01*
X142893335Y-92993526D01*
X142893332Y-92993529D01*
X142843154Y-93056450D01*
X142839710Y-93060769D01*
X142819344Y-93150000D01*
X142630656Y-93150000D01*
X142610290Y-93060769D01*
X142553224Y-92989212D01*
X142470763Y-92949500D01*
X142379237Y-92949500D01*
X142374264Y-92951894D01*
X142374263Y-92951895D01*
X142301750Y-92986816D01*
X142301748Y-92986817D01*
X142296776Y-92989212D01*
X142293335Y-92993526D01*
X142293332Y-92993529D01*
X142243154Y-93056450D01*
X142239710Y-93060769D01*
X142219344Y-93150000D01*
X142030656Y-93150000D01*
X142010290Y-93060769D01*
X141953224Y-92989212D01*
X141870763Y-92949500D01*
X141779237Y-92949500D01*
X141774264Y-92951894D01*
X141774263Y-92951895D01*
X141701750Y-92986816D01*
X141701748Y-92986817D01*
X141696776Y-92989212D01*
X141693335Y-92993526D01*
X141693332Y-92993529D01*
X141643154Y-93056450D01*
X141639710Y-93060769D01*
X141619344Y-93150000D01*
X141430656Y-93150000D01*
X141410290Y-93060769D01*
X141353224Y-92989212D01*
X141270763Y-92949500D01*
X141179237Y-92949500D01*
X141174264Y-92951894D01*
X141174263Y-92951895D01*
X141101750Y-92986816D01*
X141101748Y-92986817D01*
X141096776Y-92989212D01*
X141093335Y-92993526D01*
X141093332Y-92993529D01*
X141043154Y-93056450D01*
X141039710Y-93060769D01*
X141019344Y-93150000D01*
X140830656Y-93150000D01*
X140810290Y-93060769D01*
X140753224Y-92989212D01*
X140670763Y-92949500D01*
X140579237Y-92949500D01*
X140574264Y-92951894D01*
X140574263Y-92951895D01*
X140501750Y-92986816D01*
X140501748Y-92986817D01*
X140496776Y-92989212D01*
X140493335Y-92993526D01*
X140493332Y-92993529D01*
X140443154Y-93056450D01*
X140439710Y-93060769D01*
X140419344Y-93150000D01*
X140230656Y-93150000D01*
X140210290Y-93060769D01*
X140153224Y-92989212D01*
X140070763Y-92949500D01*
X139979237Y-92949500D01*
X139974264Y-92951894D01*
X139974263Y-92951895D01*
X139901750Y-92986816D01*
X139901748Y-92986817D01*
X139896776Y-92989212D01*
X139893335Y-92993526D01*
X139893332Y-92993529D01*
X139843154Y-93056450D01*
X139839710Y-93060769D01*
X139819344Y-93150000D01*
X137445500Y-93150000D01*
X137445500Y-92527730D01*
X137941939Y-92527730D01*
X137943167Y-92533110D01*
X137960782Y-92610291D01*
X137962305Y-92616961D01*
X137965749Y-92621279D01*
X138005978Y-92671725D01*
X138019371Y-92688518D01*
X138101832Y-92728230D01*
X138187838Y-92728230D01*
X138193358Y-92728230D01*
X138275819Y-92688518D01*
X138332885Y-92616961D01*
X138346551Y-92557084D01*
X138834344Y-92557084D01*
X138835572Y-92562464D01*
X138847034Y-92612686D01*
X138854710Y-92646315D01*
X138874973Y-92671723D01*
X138897501Y-92699973D01*
X138911776Y-92717872D01*
X138994237Y-92757584D01*
X139080243Y-92757584D01*
X139085763Y-92757584D01*
X139168224Y-92717872D01*
X139225290Y-92646315D01*
X139238008Y-92590590D01*
X139258175Y-92561010D01*
X139293081Y-92553042D01*
X139324088Y-92570944D01*
X139348092Y-92601044D01*
X139355467Y-92610291D01*
X139437928Y-92650003D01*
X139523934Y-92650003D01*
X139529454Y-92650003D01*
X139611915Y-92610291D01*
X139614999Y-92606424D01*
X143125768Y-92606424D01*
X143132629Y-92636487D01*
X143144793Y-92689782D01*
X143146134Y-92695655D01*
X143172112Y-92728230D01*
X143196281Y-92758537D01*
X143203200Y-92767212D01*
X143285661Y-92806924D01*
X143371667Y-92806924D01*
X143377187Y-92806924D01*
X143459648Y-92767212D01*
X143516714Y-92695655D01*
X143537080Y-92606424D01*
X143516714Y-92517193D01*
X143476571Y-92466857D01*
X143463091Y-92449953D01*
X143463090Y-92449952D01*
X143459648Y-92445636D01*
X143377187Y-92405924D01*
X143285661Y-92405924D01*
X143280688Y-92408318D01*
X143280687Y-92408319D01*
X143208174Y-92443240D01*
X143208172Y-92443241D01*
X143203200Y-92445636D01*
X143199759Y-92449950D01*
X143199756Y-92449953D01*
X143149578Y-92512874D01*
X143146134Y-92517193D01*
X143144905Y-92522574D01*
X143144905Y-92522576D01*
X143140232Y-92543052D01*
X143125768Y-92606424D01*
X139614999Y-92606424D01*
X139668981Y-92538734D01*
X139689347Y-92449503D01*
X139668981Y-92360272D01*
X139611915Y-92288715D01*
X139529454Y-92249003D01*
X139437928Y-92249003D01*
X139432955Y-92251397D01*
X139432954Y-92251398D01*
X139360441Y-92286319D01*
X139360439Y-92286320D01*
X139355467Y-92288715D01*
X139352026Y-92293029D01*
X139352023Y-92293032D01*
X139301845Y-92355953D01*
X139298401Y-92360272D01*
X139297172Y-92365653D01*
X139297172Y-92365655D01*
X139285683Y-92415994D01*
X139265514Y-92445577D01*
X139230608Y-92453544D01*
X139199602Y-92435642D01*
X139171667Y-92400613D01*
X139171666Y-92400612D01*
X139168224Y-92396296D01*
X139085763Y-92356584D01*
X138994237Y-92356584D01*
X138989264Y-92358978D01*
X138989263Y-92358979D01*
X138916750Y-92393900D01*
X138916748Y-92393901D01*
X138911776Y-92396296D01*
X138908335Y-92400610D01*
X138908332Y-92400613D01*
X138868985Y-92449953D01*
X138854710Y-92467853D01*
X138834344Y-92557084D01*
X138346551Y-92557084D01*
X138353251Y-92527730D01*
X138332885Y-92438499D01*
X138275819Y-92366942D01*
X138193358Y-92327230D01*
X138101832Y-92327230D01*
X138096859Y-92329624D01*
X138096858Y-92329625D01*
X138024345Y-92364546D01*
X138024343Y-92364547D01*
X138019371Y-92366942D01*
X138015930Y-92371256D01*
X138015927Y-92371259D01*
X137967612Y-92431844D01*
X137962305Y-92438499D01*
X137961076Y-92443880D01*
X137961076Y-92443882D01*
X137946023Y-92509835D01*
X137941939Y-92527730D01*
X137445500Y-92527730D01*
X137445500Y-91650500D01*
X144069344Y-91650500D01*
X144089710Y-91739731D01*
X144111229Y-91766714D01*
X144130158Y-91790451D01*
X144146776Y-91811288D01*
X144229237Y-91851000D01*
X144315243Y-91851000D01*
X144320763Y-91851000D01*
X144403224Y-91811288D01*
X144460290Y-91739731D01*
X144480656Y-91650500D01*
X144467383Y-91592347D01*
X145669844Y-91592347D01*
X145690210Y-91681578D01*
X145747276Y-91753135D01*
X145829737Y-91792847D01*
X145915743Y-91792847D01*
X145921263Y-91792847D01*
X146003724Y-91753135D01*
X146060790Y-91681578D01*
X146081156Y-91592347D01*
X146060790Y-91503116D01*
X146003724Y-91431559D01*
X145921263Y-91391847D01*
X145829737Y-91391847D01*
X145824764Y-91394241D01*
X145824763Y-91394242D01*
X145752250Y-91429163D01*
X145752248Y-91429164D01*
X145747276Y-91431559D01*
X145743835Y-91435873D01*
X145743832Y-91435876D01*
X145693654Y-91498797D01*
X145690210Y-91503116D01*
X145688981Y-91508497D01*
X145688981Y-91508499D01*
X145677923Y-91556950D01*
X145669844Y-91592347D01*
X144467383Y-91592347D01*
X144460290Y-91561269D01*
X144403224Y-91489712D01*
X144320763Y-91450000D01*
X144229237Y-91450000D01*
X144224264Y-91452394D01*
X144224263Y-91452395D01*
X144151750Y-91487316D01*
X144151748Y-91487317D01*
X144146776Y-91489712D01*
X144143335Y-91494026D01*
X144143332Y-91494029D01*
X144102070Y-91545770D01*
X144089710Y-91561269D01*
X144088481Y-91566650D01*
X144088481Y-91566652D01*
X144082617Y-91592347D01*
X144069344Y-91650500D01*
X137445500Y-91650500D01*
X137445500Y-91375000D01*
X138364344Y-91375000D01*
X138365572Y-91380380D01*
X138382008Y-91452395D01*
X138384710Y-91464231D01*
X138441776Y-91535788D01*
X138524237Y-91575500D01*
X138610243Y-91575500D01*
X138615763Y-91575500D01*
X138698224Y-91535788D01*
X138755290Y-91464231D01*
X138773356Y-91385075D01*
X144869344Y-91385075D01*
X144889710Y-91474306D01*
X144901996Y-91489712D01*
X144935297Y-91531470D01*
X144946776Y-91545863D01*
X145029237Y-91585575D01*
X145115243Y-91585575D01*
X145120763Y-91585575D01*
X145203224Y-91545863D01*
X145260290Y-91474306D01*
X145280656Y-91385075D01*
X145260290Y-91295844D01*
X145203224Y-91224287D01*
X145120763Y-91184575D01*
X145029237Y-91184575D01*
X145024264Y-91186969D01*
X145024263Y-91186970D01*
X144951750Y-91221891D01*
X144951748Y-91221892D01*
X144946776Y-91224287D01*
X144943335Y-91228601D01*
X144943332Y-91228604D01*
X144893154Y-91291525D01*
X144889710Y-91295844D01*
X144888481Y-91301225D01*
X144888481Y-91301227D01*
X144884889Y-91316966D01*
X144869344Y-91385075D01*
X138773356Y-91385075D01*
X138775656Y-91375000D01*
X138755290Y-91285769D01*
X138713831Y-91233782D01*
X138701667Y-91218529D01*
X138701666Y-91218528D01*
X138698224Y-91214212D01*
X138615763Y-91174500D01*
X138524237Y-91174500D01*
X138519264Y-91176894D01*
X138519263Y-91176895D01*
X138446750Y-91211816D01*
X138446748Y-91211817D01*
X138441776Y-91214212D01*
X138438335Y-91218526D01*
X138438332Y-91218529D01*
X138388154Y-91281450D01*
X138384710Y-91285769D01*
X138383481Y-91291150D01*
X138383481Y-91291152D01*
X138369951Y-91350435D01*
X138364344Y-91375000D01*
X137445500Y-91375000D01*
X137445500Y-91016076D01*
X138778844Y-91016076D01*
X138799210Y-91105307D01*
X138802654Y-91109625D01*
X138842159Y-91159163D01*
X138856276Y-91176864D01*
X138938737Y-91216576D01*
X139024743Y-91216576D01*
X139030263Y-91216576D01*
X139112724Y-91176864D01*
X139134200Y-91149935D01*
X144249409Y-91149935D01*
X144250637Y-91155315D01*
X144264079Y-91214212D01*
X144269775Y-91239166D01*
X144326841Y-91310723D01*
X144409302Y-91350435D01*
X144495308Y-91350435D01*
X144500828Y-91350435D01*
X144583289Y-91310723D01*
X144640355Y-91239166D01*
X144659843Y-91153783D01*
X145333666Y-91153783D01*
X145334894Y-91159163D01*
X145348443Y-91218529D01*
X145354032Y-91243014D01*
X145357476Y-91247332D01*
X145404585Y-91306405D01*
X145411098Y-91314571D01*
X145493559Y-91354283D01*
X145579565Y-91354283D01*
X145585085Y-91354283D01*
X145667546Y-91314571D01*
X145724612Y-91243014D01*
X145744978Y-91153783D01*
X145724612Y-91064552D01*
X145667546Y-90992995D01*
X145654580Y-90986751D01*
X145590058Y-90955678D01*
X145585085Y-90953283D01*
X145493559Y-90953283D01*
X145488586Y-90955677D01*
X145488585Y-90955678D01*
X145416072Y-90990599D01*
X145416070Y-90990600D01*
X145411098Y-90992995D01*
X145407657Y-90997309D01*
X145407654Y-90997312D01*
X145360545Y-91056385D01*
X145354032Y-91064552D01*
X145352803Y-91069933D01*
X145352803Y-91069935D01*
X145337750Y-91135888D01*
X145333666Y-91153783D01*
X144659843Y-91153783D01*
X144660721Y-91149935D01*
X144640355Y-91060704D01*
X144583289Y-90989147D01*
X144570292Y-90982888D01*
X144505801Y-90951830D01*
X144500828Y-90949435D01*
X144409302Y-90949435D01*
X144404329Y-90951829D01*
X144404328Y-90951830D01*
X144331815Y-90986751D01*
X144331813Y-90986752D01*
X144326841Y-90989147D01*
X144323400Y-90993461D01*
X144323397Y-90993464D01*
X144282973Y-91044154D01*
X144269775Y-91060704D01*
X144249409Y-91149935D01*
X139134200Y-91149935D01*
X139169790Y-91105307D01*
X139190156Y-91016076D01*
X139169790Y-90926845D01*
X139112724Y-90855288D01*
X139030263Y-90815576D01*
X138938737Y-90815576D01*
X138933764Y-90817970D01*
X138933763Y-90817971D01*
X138861250Y-90852892D01*
X138861248Y-90852893D01*
X138856276Y-90855288D01*
X138852835Y-90859602D01*
X138852832Y-90859605D01*
X138804270Y-90920500D01*
X138799210Y-90926845D01*
X138778844Y-91016076D01*
X137445500Y-91016076D01*
X137445500Y-90625000D01*
X140419344Y-90625000D01*
X140439710Y-90714231D01*
X140496776Y-90785788D01*
X140579237Y-90825500D01*
X140665243Y-90825500D01*
X140670763Y-90825500D01*
X140753224Y-90785788D01*
X140810290Y-90714231D01*
X140830656Y-90625000D01*
X140810290Y-90535769D01*
X140753224Y-90464212D01*
X140725349Y-90450788D01*
X140675736Y-90426895D01*
X140670763Y-90424500D01*
X140579237Y-90424500D01*
X140574264Y-90426894D01*
X140574263Y-90426895D01*
X140501750Y-90461816D01*
X140501748Y-90461817D01*
X140496776Y-90464212D01*
X140493335Y-90468526D01*
X140493332Y-90468529D01*
X140447204Y-90526372D01*
X140439710Y-90535769D01*
X140419344Y-90625000D01*
X137445500Y-90625000D01*
X137445500Y-90210000D01*
X141419344Y-90210000D01*
X141439710Y-90299231D01*
X141496776Y-90370788D01*
X141579237Y-90410500D01*
X141665243Y-90410500D01*
X141670763Y-90410500D01*
X141753224Y-90370788D01*
X141810290Y-90299231D01*
X141830656Y-90210000D01*
X141810290Y-90120769D01*
X141753224Y-90049212D01*
X141670763Y-90009500D01*
X141579237Y-90009500D01*
X141574264Y-90011894D01*
X141574263Y-90011895D01*
X141501750Y-90046816D01*
X141501748Y-90046817D01*
X141496776Y-90049212D01*
X141493335Y-90053526D01*
X141493332Y-90053529D01*
X141443154Y-90116450D01*
X141439710Y-90120769D01*
X141438481Y-90126150D01*
X141438481Y-90126152D01*
X141423795Y-90190500D01*
X141419344Y-90210000D01*
X137445500Y-90210000D01*
X137445500Y-89990000D01*
X138009344Y-89990000D01*
X138029710Y-90079231D01*
X138086776Y-90150788D01*
X138169237Y-90190500D01*
X138255243Y-90190500D01*
X138260763Y-90190500D01*
X138343224Y-90150788D01*
X138400290Y-90079231D01*
X138419292Y-89995974D01*
X141916722Y-89995974D01*
X141937088Y-90085205D01*
X141994154Y-90156762D01*
X142009043Y-90163932D01*
X142031928Y-90186817D01*
X142035553Y-90218981D01*
X142019344Y-90290000D01*
X142020572Y-90295380D01*
X142038329Y-90373183D01*
X142039710Y-90379231D01*
X142062736Y-90408104D01*
X142077721Y-90426895D01*
X142096776Y-90450788D01*
X142179237Y-90490500D01*
X142265243Y-90490500D01*
X142270763Y-90490500D01*
X142353224Y-90450788D01*
X142385752Y-90410000D01*
X145568845Y-90410000D01*
X145589211Y-90499231D01*
X145646277Y-90570788D01*
X145651254Y-90573185D01*
X145655059Y-90576219D01*
X145672279Y-90603625D01*
X145669233Y-90630660D01*
X145669710Y-90630769D01*
X145668483Y-90636144D01*
X145668481Y-90636149D01*
X145651890Y-90708847D01*
X145649344Y-90720000D01*
X145669710Y-90809231D01*
X145726776Y-90880788D01*
X145809237Y-90920500D01*
X145895243Y-90920500D01*
X145900763Y-90920500D01*
X145983224Y-90880788D01*
X146040290Y-90809231D01*
X146060656Y-90720000D01*
X146040290Y-90630769D01*
X145983224Y-90559212D01*
X145978249Y-90556816D01*
X145974441Y-90553779D01*
X145957221Y-90526372D01*
X145960268Y-90499339D01*
X145959791Y-90499231D01*
X145959791Y-90499230D01*
X145980157Y-90410000D01*
X145959791Y-90320769D01*
X145917493Y-90267730D01*
X145906939Y-90240841D01*
X145913367Y-90212679D01*
X145934542Y-90193032D01*
X145944775Y-90188104D01*
X145999374Y-90161810D01*
X146056440Y-90090253D01*
X146076806Y-90001022D01*
X146075645Y-89995936D01*
X146084092Y-89968551D01*
X146106677Y-89950541D01*
X146134927Y-89948424D01*
X146139237Y-89950500D01*
X146225243Y-89950500D01*
X146230763Y-89950500D01*
X146313224Y-89910788D01*
X146370290Y-89839231D01*
X146390656Y-89750000D01*
X146370290Y-89660769D01*
X146313224Y-89589212D01*
X146230763Y-89549500D01*
X146139237Y-89549500D01*
X146134266Y-89551893D01*
X146134265Y-89551894D01*
X146062826Y-89586298D01*
X146030663Y-89589922D01*
X146003257Y-89572701D01*
X145951897Y-89508299D01*
X145951896Y-89508298D01*
X145948454Y-89503982D01*
X145865993Y-89464270D01*
X145774467Y-89464270D01*
X145769494Y-89466664D01*
X145769493Y-89466665D01*
X145696980Y-89501586D01*
X145696978Y-89501587D01*
X145692006Y-89503982D01*
X145688565Y-89508296D01*
X145688562Y-89508299D01*
X145638384Y-89571220D01*
X145634940Y-89575539D01*
X145633711Y-89580920D01*
X145633711Y-89580922D01*
X145631819Y-89589212D01*
X145614574Y-89664770D01*
X145634940Y-89754001D01*
X145692006Y-89825558D01*
X145693749Y-89826397D01*
X145710881Y-89857396D01*
X145700500Y-89893432D01*
X145689300Y-89907477D01*
X145685860Y-89911791D01*
X145684633Y-89917166D01*
X145684632Y-89917169D01*
X145672905Y-89968551D01*
X145665494Y-90001022D01*
X145666722Y-90006402D01*
X145682115Y-90073847D01*
X145685860Y-90090253D01*
X145728158Y-90143292D01*
X145738711Y-90170180D01*
X145732284Y-90198341D01*
X145711109Y-90217989D01*
X145663659Y-90240841D01*
X145646277Y-90249212D01*
X145642836Y-90253526D01*
X145642833Y-90253529D01*
X145592655Y-90316450D01*
X145589211Y-90320769D01*
X145587982Y-90326150D01*
X145587982Y-90326152D01*
X145575868Y-90379231D01*
X145568845Y-90410000D01*
X142385752Y-90410000D01*
X142410290Y-90379231D01*
X142430656Y-90290000D01*
X142410290Y-90200769D01*
X142353224Y-90129212D01*
X142338334Y-90122041D01*
X142315449Y-90099155D01*
X142311825Y-90066991D01*
X142326806Y-90001357D01*
X142326806Y-90001354D01*
X142328034Y-89995974D01*
X142307668Y-89906743D01*
X142260301Y-89847348D01*
X142254045Y-89839503D01*
X142254044Y-89839502D01*
X142250602Y-89835186D01*
X142228566Y-89824574D01*
X142173114Y-89797869D01*
X142168141Y-89795474D01*
X142076615Y-89795474D01*
X142071642Y-89797868D01*
X142071641Y-89797869D01*
X141999128Y-89832790D01*
X141999126Y-89832791D01*
X141994154Y-89835186D01*
X141990713Y-89839500D01*
X141990710Y-89839503D01*
X141941852Y-89900769D01*
X141937088Y-89906743D01*
X141935859Y-89912124D01*
X141935859Y-89912126D01*
X141922981Y-89968551D01*
X141916722Y-89995974D01*
X138419292Y-89995974D01*
X138420656Y-89990000D01*
X138400290Y-89900769D01*
X138347988Y-89835186D01*
X138346667Y-89833529D01*
X138346666Y-89833528D01*
X138343224Y-89829212D01*
X138333593Y-89824574D01*
X138265736Y-89791895D01*
X138260763Y-89789500D01*
X138169237Y-89789500D01*
X138164264Y-89791894D01*
X138164263Y-89791895D01*
X138091750Y-89826816D01*
X138091748Y-89826817D01*
X138086776Y-89829212D01*
X138083335Y-89833526D01*
X138083332Y-89833529D01*
X138035561Y-89893432D01*
X138029710Y-89900769D01*
X138028481Y-89906150D01*
X138028481Y-89906152D01*
X138018359Y-89950500D01*
X138009344Y-89990000D01*
X137445500Y-89990000D01*
X137445500Y-89672090D01*
X141028405Y-89672090D01*
X141048771Y-89761321D01*
X141076008Y-89795474D01*
X141101002Y-89826816D01*
X141105837Y-89832878D01*
X141188298Y-89872590D01*
X141274304Y-89872590D01*
X141279824Y-89872590D01*
X141362285Y-89832878D01*
X141419351Y-89761321D01*
X141439717Y-89672090D01*
X141419351Y-89582859D01*
X141362285Y-89511302D01*
X141356049Y-89508299D01*
X141284797Y-89473985D01*
X141279824Y-89471590D01*
X141188298Y-89471590D01*
X141183325Y-89473984D01*
X141183324Y-89473985D01*
X141110811Y-89508906D01*
X141110809Y-89508907D01*
X141105837Y-89511302D01*
X141102396Y-89515616D01*
X141102393Y-89515619D01*
X141052215Y-89578540D01*
X141048771Y-89582859D01*
X141047542Y-89588240D01*
X141047542Y-89588242D01*
X141036610Y-89636139D01*
X141028405Y-89672090D01*
X137445500Y-89672090D01*
X137445500Y-89250000D01*
X138819344Y-89250000D01*
X138839710Y-89339231D01*
X138896776Y-89410788D01*
X138979237Y-89450500D01*
X139065243Y-89450500D01*
X139070763Y-89450500D01*
X139153224Y-89410788D01*
X139210290Y-89339231D01*
X139230656Y-89250000D01*
X139210290Y-89160769D01*
X139201702Y-89150000D01*
X141419344Y-89150000D01*
X141420572Y-89155380D01*
X141437427Y-89229231D01*
X141439710Y-89239231D01*
X141452589Y-89255380D01*
X141485357Y-89296470D01*
X141496776Y-89310788D01*
X141579237Y-89350500D01*
X141665243Y-89350500D01*
X141670763Y-89350500D01*
X141724751Y-89324500D01*
X142029344Y-89324500D01*
X142049710Y-89413731D01*
X142106776Y-89485288D01*
X142189237Y-89525000D01*
X142275243Y-89525000D01*
X142280763Y-89525000D01*
X142363224Y-89485288D01*
X142420290Y-89413731D01*
X142440656Y-89324500D01*
X142420290Y-89235269D01*
X142363224Y-89163712D01*
X142280763Y-89124000D01*
X142189237Y-89124000D01*
X142184264Y-89126394D01*
X142184263Y-89126395D01*
X142111750Y-89161316D01*
X142111748Y-89161317D01*
X142106776Y-89163712D01*
X142103335Y-89168026D01*
X142103332Y-89168029D01*
X142054525Y-89229231D01*
X142049710Y-89235269D01*
X142048481Y-89240650D01*
X142048481Y-89240652D01*
X142034756Y-89300788D01*
X142029344Y-89324500D01*
X141724751Y-89324500D01*
X141753224Y-89310788D01*
X141810290Y-89239231D01*
X141830656Y-89150000D01*
X141810290Y-89060769D01*
X141753224Y-88989212D01*
X141741423Y-88983529D01*
X141733057Y-88979500D01*
X145568845Y-88979500D01*
X145570073Y-88984880D01*
X145584125Y-89046450D01*
X145589211Y-89068731D01*
X145608987Y-89093529D01*
X145641756Y-89134620D01*
X145646277Y-89140288D01*
X145728738Y-89180000D01*
X145814744Y-89180000D01*
X145820264Y-89180000D01*
X145902725Y-89140288D01*
X145902955Y-89140000D01*
X146199344Y-89140000D01*
X146219710Y-89229231D01*
X146276776Y-89300788D01*
X146359237Y-89340500D01*
X146445243Y-89340500D01*
X146450763Y-89340500D01*
X146533224Y-89300788D01*
X146590290Y-89229231D01*
X146610656Y-89140000D01*
X146590290Y-89050769D01*
X146533224Y-88979212D01*
X146471528Y-88949500D01*
X146456202Y-88942119D01*
X146434577Y-88921674D01*
X146428771Y-88892485D01*
X146440927Y-88865320D01*
X146466049Y-88850502D01*
X146470763Y-88850502D01*
X146553224Y-88810790D01*
X146610290Y-88739233D01*
X146630656Y-88650002D01*
X146610290Y-88560771D01*
X146553224Y-88489214D01*
X146470763Y-88449502D01*
X146379237Y-88449502D01*
X146374264Y-88451896D01*
X146374263Y-88451897D01*
X146301750Y-88486818D01*
X146301748Y-88486819D01*
X146296776Y-88489214D01*
X146293335Y-88493528D01*
X146293332Y-88493531D01*
X146243154Y-88556452D01*
X146239710Y-88560771D01*
X146219344Y-88650002D01*
X146239710Y-88739233D01*
X146296776Y-88810790D01*
X146373797Y-88847882D01*
X146395422Y-88868326D01*
X146401228Y-88897514D01*
X146389074Y-88924679D01*
X146363951Y-88939500D01*
X146359237Y-88939500D01*
X146354265Y-88941894D01*
X146354262Y-88941895D01*
X146281750Y-88976816D01*
X146281748Y-88976817D01*
X146276776Y-88979212D01*
X146273335Y-88983526D01*
X146273332Y-88983529D01*
X146223154Y-89046450D01*
X146219710Y-89050769D01*
X146218481Y-89056150D01*
X146218481Y-89056152D01*
X146210936Y-89089212D01*
X146199344Y-89140000D01*
X145902955Y-89140000D01*
X145959791Y-89068731D01*
X145980157Y-88979500D01*
X145959791Y-88890269D01*
X145902725Y-88818712D01*
X145891248Y-88813185D01*
X145825237Y-88781395D01*
X145820264Y-88779000D01*
X145728738Y-88779000D01*
X145723765Y-88781394D01*
X145723764Y-88781395D01*
X145651251Y-88816316D01*
X145651249Y-88816317D01*
X145646277Y-88818712D01*
X145642836Y-88823026D01*
X145642833Y-88823029D01*
X145606710Y-88868326D01*
X145589211Y-88890269D01*
X145587982Y-88895650D01*
X145587982Y-88895652D01*
X145572929Y-88961605D01*
X145568845Y-88979500D01*
X141733057Y-88979500D01*
X141675736Y-88951895D01*
X141670763Y-88949500D01*
X141579237Y-88949500D01*
X141574264Y-88951894D01*
X141574263Y-88951895D01*
X141501750Y-88986816D01*
X141501748Y-88986817D01*
X141496776Y-88989212D01*
X141493335Y-88993526D01*
X141493332Y-88993529D01*
X141446787Y-89051895D01*
X141439710Y-89060769D01*
X141438481Y-89066150D01*
X141438481Y-89066152D01*
X141436907Y-89073049D01*
X141419344Y-89150000D01*
X139201702Y-89150000D01*
X139153224Y-89089212D01*
X139070763Y-89049500D01*
X138979237Y-89049500D01*
X138974264Y-89051894D01*
X138974263Y-89051895D01*
X138901750Y-89086816D01*
X138901748Y-89086817D01*
X138896776Y-89089212D01*
X138893335Y-89093526D01*
X138893332Y-89093529D01*
X138843154Y-89156450D01*
X138839710Y-89160769D01*
X138838481Y-89166150D01*
X138838481Y-89166152D01*
X138825313Y-89223847D01*
X138819344Y-89250000D01*
X137445500Y-89250000D01*
X137445500Y-88099352D01*
X138414634Y-88099352D01*
X138415862Y-88104732D01*
X138426818Y-88152737D01*
X138435000Y-88188583D01*
X138492066Y-88260140D01*
X138574527Y-88299852D01*
X138660533Y-88299852D01*
X138666053Y-88299852D01*
X138748514Y-88260140D01*
X138805580Y-88188583D01*
X138825946Y-88099352D01*
X138816779Y-88059188D01*
X141971606Y-88059188D01*
X141972834Y-88064568D01*
X141990164Y-88140500D01*
X141991972Y-88148419D01*
X142049038Y-88219976D01*
X142131499Y-88259688D01*
X142217505Y-88259688D01*
X142223025Y-88259688D01*
X142305486Y-88219976D01*
X142362552Y-88148419D01*
X142382918Y-88059188D01*
X142362552Y-87969957D01*
X142338662Y-87940000D01*
X145689344Y-87940000D01*
X145690572Y-87945380D01*
X145704362Y-88005802D01*
X145709710Y-88029231D01*
X145766776Y-88100788D01*
X145849237Y-88140500D01*
X145935243Y-88140500D01*
X145940763Y-88140500D01*
X146023224Y-88100788D01*
X146080290Y-88029231D01*
X146100656Y-87940000D01*
X146080290Y-87850769D01*
X146023224Y-87779212D01*
X145940763Y-87739500D01*
X145849237Y-87739500D01*
X145844264Y-87741894D01*
X145844263Y-87741895D01*
X145771750Y-87776816D01*
X145771748Y-87776817D01*
X145766776Y-87779212D01*
X145763335Y-87783526D01*
X145763332Y-87783529D01*
X145713154Y-87846450D01*
X145709710Y-87850769D01*
X145708481Y-87856150D01*
X145708481Y-87856152D01*
X145698189Y-87901247D01*
X145689344Y-87940000D01*
X142338662Y-87940000D01*
X142305486Y-87898400D01*
X142223025Y-87858688D01*
X142131499Y-87858688D01*
X142126526Y-87861082D01*
X142126525Y-87861083D01*
X142054012Y-87896004D01*
X142054010Y-87896005D01*
X142049038Y-87898400D01*
X142045597Y-87902714D01*
X142045594Y-87902717D01*
X141995416Y-87965638D01*
X141991972Y-87969957D01*
X141971606Y-88059188D01*
X138816779Y-88059188D01*
X138805580Y-88010121D01*
X138748514Y-87938564D01*
X138740324Y-87934620D01*
X138700257Y-87915324D01*
X138666053Y-87898852D01*
X138574527Y-87898852D01*
X138569554Y-87901246D01*
X138569553Y-87901247D01*
X138497040Y-87936168D01*
X138497038Y-87936169D01*
X138492066Y-87938564D01*
X138488625Y-87942878D01*
X138488622Y-87942881D01*
X138438444Y-88005802D01*
X138435000Y-88010121D01*
X138414634Y-88099352D01*
X137445500Y-88099352D01*
X137445500Y-87650000D01*
X141419344Y-87650000D01*
X141439710Y-87739231D01*
X141496776Y-87810788D01*
X141579237Y-87850500D01*
X141665243Y-87850500D01*
X141670763Y-87850500D01*
X141753224Y-87810788D01*
X141810290Y-87739231D01*
X141830542Y-87650499D01*
X142969594Y-87650499D01*
X142989960Y-87739730D01*
X142993404Y-87744048D01*
X143021446Y-87779212D01*
X143047026Y-87811287D01*
X143129487Y-87850999D01*
X143215493Y-87850999D01*
X143221013Y-87850999D01*
X143303474Y-87811287D01*
X143360540Y-87739730D01*
X143380906Y-87650499D01*
X144639344Y-87650499D01*
X144659710Y-87739730D01*
X144663154Y-87744048D01*
X144691196Y-87779212D01*
X144716776Y-87811287D01*
X144799237Y-87850999D01*
X144885243Y-87850999D01*
X144890763Y-87850999D01*
X144973224Y-87811287D01*
X145030290Y-87739730D01*
X145050656Y-87650499D01*
X145030290Y-87561268D01*
X144973224Y-87489711D01*
X144937369Y-87472444D01*
X144895736Y-87452394D01*
X144890763Y-87449999D01*
X144799237Y-87449999D01*
X144794264Y-87452393D01*
X144794263Y-87452394D01*
X144721750Y-87487315D01*
X144721748Y-87487316D01*
X144716776Y-87489711D01*
X144713335Y-87494025D01*
X144713332Y-87494028D01*
X144663552Y-87556450D01*
X144659710Y-87561268D01*
X144639344Y-87650499D01*
X143380906Y-87650499D01*
X143360540Y-87561268D01*
X143303474Y-87489711D01*
X143267619Y-87472444D01*
X143225986Y-87452394D01*
X143221013Y-87449999D01*
X143129487Y-87449999D01*
X143124514Y-87452393D01*
X143124513Y-87452394D01*
X143052000Y-87487315D01*
X143051998Y-87487316D01*
X143047026Y-87489711D01*
X143043585Y-87494025D01*
X143043582Y-87494028D01*
X142993802Y-87556450D01*
X142989960Y-87561268D01*
X142969594Y-87650499D01*
X141830542Y-87650499D01*
X141830656Y-87650000D01*
X141810290Y-87560769D01*
X141753224Y-87489212D01*
X141670763Y-87449500D01*
X141579237Y-87449500D01*
X141574264Y-87451894D01*
X141574263Y-87451895D01*
X141501750Y-87486816D01*
X141501748Y-87486817D01*
X141496776Y-87489212D01*
X141493335Y-87493526D01*
X141493332Y-87493529D01*
X141443154Y-87556450D01*
X141439710Y-87560769D01*
X141419344Y-87650000D01*
X137445500Y-87650000D01*
X137445500Y-86900000D01*
X140519592Y-86900000D01*
X140520534Y-86904736D01*
X140538092Y-86993007D01*
X140538093Y-86993009D01*
X140539034Y-86997740D01*
X140541713Y-87001750D01*
X140541714Y-87001751D01*
X140588280Y-87071444D01*
X140594399Y-87080601D01*
X140677260Y-87135966D01*
X140775000Y-87155408D01*
X140872740Y-87135966D01*
X140955601Y-87080601D01*
X141010966Y-86997740D01*
X141030408Y-86900000D01*
X141020462Y-86850000D01*
X145769844Y-86850000D01*
X145790210Y-86939231D01*
X145793654Y-86943549D01*
X145834029Y-86994178D01*
X145847276Y-87010788D01*
X145852968Y-87013529D01*
X145924759Y-87048103D01*
X145924760Y-87048103D01*
X145929737Y-87050500D01*
X145932307Y-87050500D01*
X145958028Y-87066662D01*
X145968719Y-87097213D01*
X145958029Y-87127764D01*
X145917650Y-87178396D01*
X145917648Y-87178398D01*
X145914208Y-87182713D01*
X145893842Y-87271944D01*
X145914208Y-87361175D01*
X145971274Y-87432732D01*
X146053735Y-87472444D01*
X146139741Y-87472444D01*
X146145261Y-87472444D01*
X146227722Y-87432732D01*
X146284788Y-87361175D01*
X146305154Y-87271944D01*
X146284788Y-87182713D01*
X146274650Y-87170000D01*
X146449344Y-87170000D01*
X146469710Y-87259231D01*
X146526776Y-87330788D01*
X146609237Y-87370500D01*
X146695243Y-87370500D01*
X146700763Y-87370500D01*
X146783224Y-87330788D01*
X146840290Y-87259231D01*
X146860656Y-87170000D01*
X146840290Y-87080769D01*
X146783224Y-87009212D01*
X146777530Y-87006470D01*
X146705736Y-86971895D01*
X146700763Y-86969500D01*
X146609237Y-86969500D01*
X146604264Y-86971894D01*
X146604263Y-86971895D01*
X146531750Y-87006816D01*
X146531748Y-87006817D01*
X146526776Y-87009212D01*
X146523335Y-87013526D01*
X146523332Y-87013529D01*
X146473154Y-87076450D01*
X146469710Y-87080769D01*
X146449344Y-87170000D01*
X146274650Y-87170000D01*
X146227722Y-87111156D01*
X146175802Y-87086152D01*
X146150235Y-87073839D01*
X146150233Y-87073838D01*
X146145261Y-87071444D01*
X146142690Y-87071444D01*
X146116967Y-87055279D01*
X146106278Y-87024729D01*
X146116967Y-86994180D01*
X146160790Y-86939231D01*
X146181156Y-86850000D01*
X146160790Y-86760769D01*
X146114077Y-86702194D01*
X146107167Y-86693529D01*
X146107166Y-86693528D01*
X146103724Y-86689212D01*
X146021263Y-86649500D01*
X145929737Y-86649500D01*
X145924764Y-86651894D01*
X145924763Y-86651895D01*
X145852250Y-86686816D01*
X145852248Y-86686817D01*
X145847276Y-86689212D01*
X145843835Y-86693526D01*
X145843832Y-86693529D01*
X145820003Y-86723410D01*
X145790210Y-86760769D01*
X145788981Y-86766150D01*
X145788981Y-86766152D01*
X145787247Y-86773751D01*
X145769844Y-86850000D01*
X141020462Y-86850000D01*
X141010966Y-86802260D01*
X140955601Y-86719399D01*
X140929851Y-86702194D01*
X140876751Y-86666714D01*
X140876750Y-86666713D01*
X140872740Y-86664034D01*
X140868009Y-86663093D01*
X140868007Y-86663092D01*
X140779736Y-86645534D01*
X140775000Y-86644592D01*
X140770264Y-86645534D01*
X140681992Y-86663092D01*
X140681988Y-86663093D01*
X140677260Y-86664034D01*
X140673250Y-86666712D01*
X140673248Y-86666714D01*
X140598410Y-86716718D01*
X140598407Y-86716720D01*
X140594399Y-86719399D01*
X140591720Y-86723407D01*
X140591718Y-86723410D01*
X140541714Y-86798248D01*
X140541712Y-86798250D01*
X140539034Y-86802260D01*
X140538093Y-86806988D01*
X140538092Y-86806992D01*
X140520534Y-86895264D01*
X140519592Y-86900000D01*
X137445500Y-86900000D01*
X137445500Y-86400000D01*
X140119592Y-86400000D01*
X140120534Y-86404736D01*
X140138092Y-86493007D01*
X140138093Y-86493009D01*
X140139034Y-86497740D01*
X140194399Y-86580601D01*
X140277260Y-86635966D01*
X140375000Y-86655408D01*
X140472740Y-86635966D01*
X140507167Y-86612963D01*
X142952307Y-86612963D01*
X142972673Y-86702194D01*
X142976117Y-86706512D01*
X143023678Y-86766152D01*
X143029739Y-86773751D01*
X143112200Y-86813463D01*
X143198206Y-86813463D01*
X143203726Y-86813463D01*
X143286187Y-86773751D01*
X143343253Y-86702194D01*
X143363619Y-86612963D01*
X143343253Y-86523732D01*
X143286187Y-86452175D01*
X143280632Y-86449500D01*
X144219344Y-86449500D01*
X144239710Y-86538731D01*
X144296776Y-86610288D01*
X144379237Y-86650000D01*
X144465243Y-86650000D01*
X144470763Y-86650000D01*
X144553224Y-86610288D01*
X144610290Y-86538731D01*
X144630656Y-86449500D01*
X144610290Y-86360269D01*
X144566302Y-86305111D01*
X144556667Y-86293029D01*
X144556666Y-86293028D01*
X144553224Y-86288712D01*
X144540688Y-86282675D01*
X144475736Y-86251395D01*
X144470763Y-86249000D01*
X144379237Y-86249000D01*
X144374264Y-86251394D01*
X144374263Y-86251395D01*
X144301750Y-86286316D01*
X144301748Y-86286317D01*
X144296776Y-86288712D01*
X144293335Y-86293026D01*
X144293332Y-86293029D01*
X144252039Y-86344809D01*
X144239710Y-86360269D01*
X144238481Y-86365650D01*
X144238481Y-86365652D01*
X144231723Y-86395264D01*
X144219344Y-86449500D01*
X143280632Y-86449500D01*
X143208699Y-86414858D01*
X143203726Y-86412463D01*
X143112200Y-86412463D01*
X143107227Y-86414857D01*
X143107226Y-86414858D01*
X143034713Y-86449779D01*
X143034711Y-86449780D01*
X143029739Y-86452175D01*
X143026298Y-86456489D01*
X143026295Y-86456492D01*
X142976117Y-86519413D01*
X142972673Y-86523732D01*
X142971444Y-86529113D01*
X142971444Y-86529115D01*
X142968264Y-86543049D01*
X142952307Y-86612963D01*
X140507167Y-86612963D01*
X140555601Y-86580601D01*
X140610966Y-86497740D01*
X140630408Y-86400000D01*
X140610966Y-86302260D01*
X140555601Y-86219399D01*
X140550340Y-86215884D01*
X140476751Y-86166714D01*
X140476750Y-86166713D01*
X140472740Y-86164034D01*
X140468009Y-86163093D01*
X140468007Y-86163092D01*
X140379736Y-86145534D01*
X140375000Y-86144592D01*
X140370264Y-86145534D01*
X140281992Y-86163092D01*
X140281988Y-86163093D01*
X140277260Y-86164034D01*
X140273250Y-86166712D01*
X140273248Y-86166714D01*
X140198410Y-86216718D01*
X140198407Y-86216720D01*
X140194399Y-86219399D01*
X140191720Y-86223407D01*
X140191718Y-86223410D01*
X140141714Y-86298248D01*
X140141712Y-86298250D01*
X140139034Y-86302260D01*
X140138093Y-86306988D01*
X140138092Y-86306992D01*
X140122686Y-86384447D01*
X140119592Y-86400000D01*
X137445500Y-86400000D01*
X137445500Y-86204110D01*
X137445500Y-86201969D01*
X137445166Y-86200079D01*
X137445000Y-86196251D01*
X137445000Y-85890001D01*
X137869591Y-85890001D01*
X137870533Y-85894737D01*
X137888091Y-85983008D01*
X137888092Y-85983010D01*
X137889033Y-85987741D01*
X137891712Y-85991751D01*
X137891713Y-85991752D01*
X137940516Y-86064793D01*
X137944398Y-86070602D01*
X138027259Y-86125967D01*
X138124999Y-86145409D01*
X138222739Y-86125967D01*
X138305600Y-86070602D01*
X138360965Y-85987741D01*
X138380407Y-85890001D01*
X138360965Y-85792261D01*
X138305600Y-85709400D01*
X138291532Y-85700000D01*
X144709344Y-85700000D01*
X144729710Y-85789231D01*
X144754207Y-85819949D01*
X144781491Y-85854162D01*
X144786776Y-85860788D01*
X144869237Y-85900500D01*
X144874757Y-85900500D01*
X144875898Y-85900500D01*
X144877484Y-85901122D01*
X144880141Y-85901729D01*
X144880049Y-85902129D01*
X144909227Y-85913581D01*
X144924761Y-85945838D01*
X144914208Y-85980049D01*
X144889710Y-86010769D01*
X144888481Y-86016150D01*
X144888481Y-86016152D01*
X144887412Y-86020837D01*
X144869344Y-86100000D01*
X144889710Y-86189231D01*
X144946776Y-86260788D01*
X145029237Y-86300500D01*
X145115243Y-86300500D01*
X145120763Y-86300500D01*
X145203224Y-86260788D01*
X145260290Y-86189231D01*
X145261479Y-86184021D01*
X145651502Y-86184021D01*
X145671868Y-86273252D01*
X145728934Y-86344809D01*
X145811395Y-86384521D01*
X145897401Y-86384521D01*
X145902921Y-86384521D01*
X145985382Y-86344809D01*
X146042448Y-86273252D01*
X146054314Y-86221264D01*
X146228612Y-86221264D01*
X146229840Y-86226644D01*
X146244991Y-86293029D01*
X146248978Y-86310495D01*
X146306044Y-86382052D01*
X146388505Y-86421764D01*
X146474511Y-86421764D01*
X146480031Y-86421764D01*
X146562492Y-86382052D01*
X146619558Y-86310495D01*
X146639924Y-86221264D01*
X146619558Y-86132033D01*
X146572705Y-86073282D01*
X146565935Y-86064793D01*
X146565934Y-86064792D01*
X146562492Y-86060476D01*
X146480031Y-86020764D01*
X146388505Y-86020764D01*
X146383532Y-86023158D01*
X146383531Y-86023159D01*
X146311018Y-86058080D01*
X146311016Y-86058081D01*
X146306044Y-86060476D01*
X146302603Y-86064790D01*
X146302600Y-86064793D01*
X146253065Y-86126908D01*
X146248978Y-86132033D01*
X146247749Y-86137414D01*
X146247749Y-86137416D01*
X146241889Y-86163092D01*
X146228612Y-86221264D01*
X146054314Y-86221264D01*
X146062814Y-86184021D01*
X146042448Y-86094790D01*
X145985382Y-86023233D01*
X145970678Y-86016152D01*
X145907894Y-85985916D01*
X145902921Y-85983521D01*
X145811395Y-85983521D01*
X145806422Y-85985915D01*
X145806421Y-85985916D01*
X145733908Y-86020837D01*
X145733906Y-86020838D01*
X145728934Y-86023233D01*
X145725493Y-86027547D01*
X145725490Y-86027550D01*
X145689020Y-86073282D01*
X145671868Y-86094790D01*
X145670639Y-86100171D01*
X145670639Y-86100173D01*
X145662139Y-86137416D01*
X145651502Y-86184021D01*
X145261479Y-86184021D01*
X145280656Y-86100000D01*
X145260290Y-86010769D01*
X145203224Y-85939212D01*
X145120763Y-85899500D01*
X145114102Y-85899500D01*
X145112515Y-85898877D01*
X145109859Y-85898271D01*
X145109950Y-85897870D01*
X145080773Y-85886419D01*
X145065239Y-85854162D01*
X145075791Y-85819950D01*
X145100290Y-85789231D01*
X145120656Y-85700000D01*
X145100290Y-85610769D01*
X145043224Y-85539212D01*
X145037530Y-85536470D01*
X144965736Y-85501895D01*
X144960763Y-85499500D01*
X144869237Y-85499500D01*
X144864264Y-85501894D01*
X144864263Y-85501895D01*
X144791750Y-85536816D01*
X144791748Y-85536817D01*
X144786776Y-85539212D01*
X144783335Y-85543526D01*
X144783332Y-85543529D01*
X144753849Y-85580500D01*
X144729710Y-85610769D01*
X144728481Y-85616150D01*
X144728481Y-85616152D01*
X144724272Y-85634593D01*
X144709344Y-85700000D01*
X138291532Y-85700000D01*
X138222739Y-85654035D01*
X138218008Y-85653094D01*
X138218006Y-85653093D01*
X138129735Y-85635535D01*
X138124999Y-85634593D01*
X138120263Y-85635535D01*
X138031991Y-85653093D01*
X138031987Y-85653094D01*
X138027259Y-85654035D01*
X138023249Y-85656713D01*
X138023247Y-85656715D01*
X137948409Y-85706719D01*
X137948406Y-85706721D01*
X137944398Y-85709400D01*
X137941719Y-85713408D01*
X137941717Y-85713411D01*
X137891713Y-85788249D01*
X137891711Y-85788251D01*
X137889033Y-85792261D01*
X137888092Y-85796989D01*
X137888091Y-85796993D01*
X137870533Y-85885265D01*
X137869591Y-85890001D01*
X137445000Y-85890001D01*
X137445000Y-85475200D01*
X138434763Y-85475200D01*
X138455129Y-85564431D01*
X138512195Y-85635988D01*
X138594656Y-85675700D01*
X138680662Y-85675700D01*
X138686182Y-85675700D01*
X138768643Y-85635988D01*
X138825709Y-85564431D01*
X138846075Y-85475200D01*
X138825709Y-85385969D01*
X138820949Y-85380000D01*
X143819344Y-85380000D01*
X143839710Y-85469231D01*
X143896776Y-85540788D01*
X143979237Y-85580500D01*
X144065243Y-85580500D01*
X144070763Y-85580500D01*
X144153224Y-85540788D01*
X144210290Y-85469231D01*
X144230656Y-85380000D01*
X144210290Y-85290769D01*
X144153224Y-85219212D01*
X144070763Y-85179500D01*
X143979237Y-85179500D01*
X143974264Y-85181894D01*
X143974263Y-85181895D01*
X143901750Y-85216816D01*
X143901748Y-85216817D01*
X143896776Y-85219212D01*
X143893335Y-85223526D01*
X143893332Y-85223529D01*
X143843154Y-85286450D01*
X143839710Y-85290769D01*
X143838481Y-85296150D01*
X143838481Y-85296152D01*
X143833328Y-85318729D01*
X143819344Y-85380000D01*
X138820949Y-85380000D01*
X138768643Y-85314412D01*
X138686182Y-85274700D01*
X138594656Y-85274700D01*
X138589683Y-85277094D01*
X138589682Y-85277095D01*
X138517169Y-85312016D01*
X138517167Y-85312017D01*
X138512195Y-85314412D01*
X138508754Y-85318726D01*
X138508751Y-85318729D01*
X138459889Y-85380000D01*
X138455129Y-85385969D01*
X138434763Y-85475200D01*
X137445000Y-85475200D01*
X137445000Y-84655700D01*
X137716132Y-84655700D01*
X137717360Y-84661080D01*
X137730833Y-84720113D01*
X137736498Y-84744931D01*
X137751054Y-84763183D01*
X137784940Y-84805675D01*
X137793564Y-84816488D01*
X137876025Y-84856200D01*
X137962031Y-84856200D01*
X137967551Y-84856200D01*
X138050012Y-84816488D01*
X138107078Y-84744931D01*
X138108307Y-84739545D01*
X138110703Y-84734572D01*
X138111526Y-84734968D01*
X138128421Y-84710182D01*
X138163329Y-84702211D01*
X138194338Y-84720113D01*
X138217573Y-84749249D01*
X138226776Y-84760788D01*
X138309237Y-84800500D01*
X138395243Y-84800500D01*
X138400763Y-84800500D01*
X138473693Y-84765377D01*
X138502255Y-84761072D01*
X138528280Y-84773605D01*
X138542723Y-84798621D01*
X138544056Y-84804459D01*
X138546801Y-84816488D01*
X138549710Y-84829231D01*
X138566273Y-84850000D01*
X138595357Y-84886470D01*
X138606776Y-84900788D01*
X138689237Y-84940500D01*
X138775243Y-84940500D01*
X138780763Y-84940500D01*
X138863224Y-84900788D01*
X138875677Y-84885172D01*
X138899543Y-84868899D01*
X138928431Y-84868899D01*
X138952298Y-84885173D01*
X138956776Y-84890788D01*
X139039237Y-84930500D01*
X139125243Y-84930500D01*
X139130763Y-84930500D01*
X139213224Y-84890788D01*
X139221690Y-84880171D01*
X139245557Y-84863900D01*
X139274443Y-84863900D01*
X139298309Y-84880171D01*
X139306776Y-84890788D01*
X139389237Y-84930500D01*
X139475243Y-84930500D01*
X139480763Y-84930500D01*
X139563224Y-84890788D01*
X139620290Y-84819231D01*
X139640656Y-84730000D01*
X139620290Y-84640769D01*
X139563224Y-84569212D01*
X139557370Y-84566393D01*
X139485736Y-84531895D01*
X139480763Y-84529500D01*
X139389237Y-84529500D01*
X139384264Y-84531894D01*
X139384263Y-84531895D01*
X139311750Y-84566816D01*
X139311748Y-84566817D01*
X139306776Y-84569212D01*
X139303335Y-84573526D01*
X139303332Y-84573529D01*
X139298309Y-84579829D01*
X139274443Y-84596101D01*
X139245557Y-84596101D01*
X139221691Y-84579829D01*
X139216667Y-84573529D01*
X139216666Y-84573528D01*
X139213224Y-84569212D01*
X139207370Y-84566393D01*
X139135736Y-84531895D01*
X139130763Y-84529500D01*
X139039237Y-84529500D01*
X139034264Y-84531894D01*
X139034263Y-84531895D01*
X138961750Y-84566816D01*
X138961748Y-84566817D01*
X138956776Y-84569212D01*
X138953335Y-84573526D01*
X138953332Y-84573529D01*
X138944320Y-84584829D01*
X138920453Y-84601100D01*
X138891569Y-84601099D01*
X138867703Y-84584828D01*
X138866667Y-84583529D01*
X138866666Y-84583528D01*
X138863224Y-84579212D01*
X138851423Y-84573529D01*
X138785736Y-84541895D01*
X138780763Y-84539500D01*
X138689237Y-84539500D01*
X138684266Y-84541893D01*
X138684261Y-84541895D01*
X138616307Y-84574621D01*
X138587743Y-84578927D01*
X138561718Y-84566393D01*
X138547276Y-84541378D01*
X138540290Y-84510769D01*
X138511765Y-84475000D01*
X142269592Y-84475000D01*
X142270534Y-84479736D01*
X142288092Y-84568007D01*
X142288093Y-84568009D01*
X142289034Y-84572740D01*
X142291713Y-84576750D01*
X142291714Y-84576751D01*
X142341512Y-84651281D01*
X142344399Y-84655601D01*
X142427260Y-84710966D01*
X142525000Y-84730408D01*
X142622740Y-84710966D01*
X142705601Y-84655601D01*
X142760966Y-84572740D01*
X142780408Y-84475000D01*
X142760966Y-84377260D01*
X142705601Y-84294399D01*
X142622740Y-84239034D01*
X142618009Y-84238093D01*
X142618007Y-84238092D01*
X142529736Y-84220534D01*
X142525000Y-84219592D01*
X142520264Y-84220534D01*
X142431992Y-84238092D01*
X142431988Y-84238093D01*
X142427260Y-84239034D01*
X142423250Y-84241712D01*
X142423248Y-84241714D01*
X142348410Y-84291718D01*
X142348407Y-84291720D01*
X142344399Y-84294399D01*
X142341720Y-84298407D01*
X142341718Y-84298410D01*
X142291714Y-84373248D01*
X142291712Y-84373250D01*
X142289034Y-84377260D01*
X142288093Y-84381988D01*
X142288092Y-84381992D01*
X142273054Y-84457595D01*
X142269592Y-84475000D01*
X138511765Y-84475000D01*
X138483224Y-84439212D01*
X138400763Y-84399500D01*
X138309237Y-84399500D01*
X138304264Y-84401894D01*
X138304263Y-84401895D01*
X138231750Y-84436816D01*
X138231748Y-84436817D01*
X138226776Y-84439212D01*
X138223335Y-84443526D01*
X138223332Y-84443529D01*
X138178913Y-84499229D01*
X138169710Y-84510769D01*
X138168481Y-84516152D01*
X138166085Y-84521128D01*
X138165261Y-84520731D01*
X138148360Y-84545521D01*
X138113455Y-84553488D01*
X138082449Y-84535586D01*
X138079505Y-84531895D01*
X138062658Y-84510769D01*
X138053455Y-84499229D01*
X138053454Y-84499228D01*
X138050012Y-84494912D01*
X137967551Y-84455200D01*
X137876025Y-84455200D01*
X137871052Y-84457594D01*
X137871051Y-84457595D01*
X137798538Y-84492516D01*
X137798536Y-84492517D01*
X137793564Y-84494912D01*
X137790123Y-84499226D01*
X137790120Y-84499229D01*
X137746850Y-84553488D01*
X137736498Y-84566469D01*
X137735269Y-84571850D01*
X137735269Y-84571852D01*
X137729735Y-84596101D01*
X137716132Y-84655700D01*
X137445000Y-84655700D01*
X137445000Y-83453749D01*
X137445166Y-83449920D01*
X137445500Y-83448031D01*
X137445500Y-83350000D01*
X137445500Y-83317712D01*
X137445500Y-82752407D01*
X137445736Y-82747605D01*
X137448985Y-82714618D01*
X137459044Y-82612475D01*
X137460914Y-82603074D01*
X137499631Y-82475443D01*
X137503304Y-82466577D01*
X137536325Y-82404800D01*
X137566172Y-82348959D01*
X137571499Y-82340987D01*
X137656108Y-82237891D01*
X137662891Y-82231108D01*
X137765987Y-82146499D01*
X137773959Y-82141172D01*
X137891579Y-82078302D01*
X137900443Y-82074631D01*
X138028074Y-82035914D01*
X138037475Y-82034044D01*
X138158029Y-82022171D01*
X138172605Y-82020736D01*
X138177407Y-82020500D01*
X138207288Y-82020500D01*
X140388378Y-82020500D01*
X140421707Y-82033581D01*
X140437241Y-82065839D01*
X140426687Y-82100049D01*
X140421669Y-82106342D01*
X140418152Y-82110752D01*
X140418150Y-82110754D01*
X140414710Y-82115069D01*
X140394344Y-82204300D01*
X140414710Y-82293531D01*
X140434015Y-82317738D01*
X140452548Y-82340978D01*
X140471776Y-82365088D01*
X140554237Y-82404800D01*
X140640243Y-82404800D01*
X140645763Y-82404800D01*
X140728224Y-82365088D01*
X140785290Y-82293531D01*
X140805656Y-82204300D01*
X140785290Y-82115069D01*
X140773312Y-82100049D01*
X140762759Y-82065839D01*
X140778293Y-82033581D01*
X140811622Y-82020500D01*
X141920562Y-82020500D01*
X141923777Y-82020500D01*
X142018008Y-81995251D01*
X142102492Y-81946474D01*
X142134614Y-81914352D01*
X142169262Y-81900000D01*
X142880738Y-81900000D01*
X142915386Y-81914352D01*
G37*
%TD.AperFunction*%
%TA.AperFunction,Conductor*%
G36*
X159865148Y-65134852D02*
G01*
X159879500Y-65169500D01*
X159879500Y-124830500D01*
X159865148Y-124865148D01*
X159830500Y-124879500D01*
X100169500Y-124879500D01*
X100134852Y-124865148D01*
X100120500Y-124830500D01*
X100120500Y-98496945D01*
X115387018Y-98496945D01*
X115387312Y-98499122D01*
X115387313Y-98499124D01*
X115417268Y-98720263D01*
X115417269Y-98720268D01*
X115417563Y-98722437D01*
X115418238Y-98724514D01*
X115418240Y-98724523D01*
X115453891Y-98834243D01*
X115487880Y-98938851D01*
X115488917Y-98940779D01*
X115488921Y-98940787D01*
X115594670Y-99137301D01*
X115594674Y-99137308D01*
X115595710Y-99139232D01*
X115737585Y-99317138D01*
X115908948Y-99466853D01*
X116104289Y-99583564D01*
X116317330Y-99663520D01*
X116541224Y-99704150D01*
X116710671Y-99704150D01*
X116711775Y-99704150D01*
X116881635Y-99688862D01*
X117100986Y-99628325D01*
X117306003Y-99529595D01*
X117490095Y-99395843D01*
X117647347Y-99231371D01*
X117772705Y-99041463D01*
X117862138Y-98832223D01*
X117912773Y-98610377D01*
X117917867Y-98496945D01*
X118562018Y-98496945D01*
X118562312Y-98499122D01*
X118562313Y-98499124D01*
X118592268Y-98720263D01*
X118592269Y-98720268D01*
X118592563Y-98722437D01*
X118593238Y-98724514D01*
X118593240Y-98724523D01*
X118628891Y-98834243D01*
X118662880Y-98938851D01*
X118663917Y-98940779D01*
X118663921Y-98940787D01*
X118769670Y-99137301D01*
X118769674Y-99137308D01*
X118770710Y-99139232D01*
X118912585Y-99317138D01*
X119083948Y-99466853D01*
X119279289Y-99583564D01*
X119492330Y-99663520D01*
X119716224Y-99704150D01*
X119885671Y-99704150D01*
X119886775Y-99704150D01*
X120056635Y-99688862D01*
X120275986Y-99628325D01*
X120481003Y-99529595D01*
X120665095Y-99395843D01*
X120822347Y-99231371D01*
X120947705Y-99041463D01*
X121037138Y-98832223D01*
X121087773Y-98610377D01*
X121097982Y-98383055D01*
X121067437Y-98157563D01*
X120997120Y-97941149D01*
X120996078Y-97939212D01*
X120890329Y-97742698D01*
X120890326Y-97742694D01*
X120889290Y-97740768D01*
X120747415Y-97562862D01*
X120576052Y-97413147D01*
X120469443Y-97349451D01*
X120382601Y-97297565D01*
X120382599Y-97297564D01*
X120380711Y-97296436D01*
X120372811Y-97293471D01*
X120169736Y-97217255D01*
X120169732Y-97217253D01*
X120167670Y-97216480D01*
X120165510Y-97216088D01*
X120165503Y-97216086D01*
X119945938Y-97176242D01*
X119945934Y-97176241D01*
X119943776Y-97175850D01*
X119773225Y-97175850D01*
X119772144Y-97175947D01*
X119772128Y-97175948D01*
X119605552Y-97190941D01*
X119605550Y-97190941D01*
X119603365Y-97191138D01*
X119601256Y-97191719D01*
X119601245Y-97191722D01*
X119386131Y-97251090D01*
X119386123Y-97251092D01*
X119384014Y-97251675D01*
X119382046Y-97252622D01*
X119382037Y-97252626D01*
X119180976Y-97349451D01*
X119180967Y-97349456D01*
X119178997Y-97350405D01*
X119177228Y-97351690D01*
X119177220Y-97351695D01*
X118996683Y-97482864D01*
X118996674Y-97482871D01*
X118994905Y-97484157D01*
X118993388Y-97485743D01*
X118993383Y-97485748D01*
X118839175Y-97647036D01*
X118839169Y-97647042D01*
X118837653Y-97648629D01*
X118836443Y-97650461D01*
X118836439Y-97650467D01*
X118713507Y-97836699D01*
X118713501Y-97836709D01*
X118712295Y-97838537D01*
X118711435Y-97840547D01*
X118711429Y-97840560D01*
X118623725Y-98045756D01*
X118623722Y-98045763D01*
X118622862Y-98047777D01*
X118622374Y-98049910D01*
X118622372Y-98049920D01*
X118572717Y-98267475D01*
X118572227Y-98269623D01*
X118572128Y-98271814D01*
X118572128Y-98271819D01*
X118562116Y-98494747D01*
X118562116Y-98494754D01*
X118562018Y-98496945D01*
X117917867Y-98496945D01*
X117922982Y-98383055D01*
X117892437Y-98157563D01*
X117822120Y-97941149D01*
X117821078Y-97939212D01*
X117715329Y-97742698D01*
X117715326Y-97742694D01*
X117714290Y-97740768D01*
X117572415Y-97562862D01*
X117401052Y-97413147D01*
X117294443Y-97349451D01*
X117278625Y-97340000D01*
X117744592Y-97340000D01*
X117745534Y-97344736D01*
X117763092Y-97433007D01*
X117763093Y-97433009D01*
X117764034Y-97437740D01*
X117766713Y-97441750D01*
X117766714Y-97441751D01*
X117788058Y-97473696D01*
X117819399Y-97520601D01*
X117902260Y-97575966D01*
X118000000Y-97595408D01*
X118097740Y-97575966D01*
X118180601Y-97520601D01*
X118235966Y-97437740D01*
X118255408Y-97340000D01*
X118235966Y-97242260D01*
X118180601Y-97159399D01*
X118097740Y-97104034D01*
X118093009Y-97103093D01*
X118093007Y-97103092D01*
X118004736Y-97085534D01*
X118000000Y-97084592D01*
X117995264Y-97085534D01*
X117906992Y-97103092D01*
X117906988Y-97103093D01*
X117902260Y-97104034D01*
X117898250Y-97106712D01*
X117898248Y-97106714D01*
X117823410Y-97156718D01*
X117823407Y-97156720D01*
X117819399Y-97159399D01*
X117816720Y-97163407D01*
X117816718Y-97163410D01*
X117766714Y-97238248D01*
X117766712Y-97238250D01*
X117764034Y-97242260D01*
X117763093Y-97246988D01*
X117763092Y-97246992D01*
X117747395Y-97325910D01*
X117744592Y-97340000D01*
X117278625Y-97340000D01*
X117207601Y-97297565D01*
X117207599Y-97297564D01*
X117205711Y-97296436D01*
X117197811Y-97293471D01*
X116994736Y-97217255D01*
X116994732Y-97217253D01*
X116992670Y-97216480D01*
X116990510Y-97216088D01*
X116990503Y-97216086D01*
X116770938Y-97176242D01*
X116770934Y-97176241D01*
X116768776Y-97175850D01*
X116598225Y-97175850D01*
X116597144Y-97175947D01*
X116597128Y-97175948D01*
X116430552Y-97190941D01*
X116430550Y-97190941D01*
X116428365Y-97191138D01*
X116426256Y-97191719D01*
X116426245Y-97191722D01*
X116211131Y-97251090D01*
X116211123Y-97251092D01*
X116209014Y-97251675D01*
X116207046Y-97252622D01*
X116207037Y-97252626D01*
X116005976Y-97349451D01*
X116005967Y-97349456D01*
X116003997Y-97350405D01*
X116002228Y-97351690D01*
X116002220Y-97351695D01*
X115821683Y-97482864D01*
X115821674Y-97482871D01*
X115819905Y-97484157D01*
X115818388Y-97485743D01*
X115818383Y-97485748D01*
X115664175Y-97647036D01*
X115664169Y-97647042D01*
X115662653Y-97648629D01*
X115661443Y-97650461D01*
X115661439Y-97650467D01*
X115538507Y-97836699D01*
X115538501Y-97836709D01*
X115537295Y-97838537D01*
X115536435Y-97840547D01*
X115536429Y-97840560D01*
X115448725Y-98045756D01*
X115448722Y-98045763D01*
X115447862Y-98047777D01*
X115447374Y-98049910D01*
X115447372Y-98049920D01*
X115397717Y-98267475D01*
X115397227Y-98269623D01*
X115397128Y-98271814D01*
X115397128Y-98271819D01*
X115387116Y-98494747D01*
X115387116Y-98494754D01*
X115387018Y-98496945D01*
X100120500Y-98496945D01*
X100120500Y-96916000D01*
X114173064Y-96916000D01*
X114173483Y-96919183D01*
X114192303Y-97062137D01*
X114192304Y-97062141D01*
X114192723Y-97065322D01*
X114193951Y-97068287D01*
X114193952Y-97068290D01*
X114245079Y-97191722D01*
X114250359Y-97204468D01*
X114252311Y-97207012D01*
X114252314Y-97207017D01*
X114286133Y-97251090D01*
X114342045Y-97323955D01*
X114344593Y-97325910D01*
X114458982Y-97413685D01*
X114458985Y-97413687D01*
X114461532Y-97415641D01*
X114600678Y-97473277D01*
X114712508Y-97488000D01*
X114785892Y-97488000D01*
X114787492Y-97488000D01*
X114899322Y-97473277D01*
X115038468Y-97415641D01*
X115157955Y-97323955D01*
X115249641Y-97204468D01*
X115307277Y-97065322D01*
X115326936Y-96916000D01*
X115307277Y-96766678D01*
X115249641Y-96627532D01*
X115247687Y-96624985D01*
X115247685Y-96624982D01*
X115159910Y-96510593D01*
X115157955Y-96508045D01*
X115155406Y-96506089D01*
X115041017Y-96418314D01*
X115041012Y-96418311D01*
X115038468Y-96416359D01*
X115035499Y-96415129D01*
X114902290Y-96359952D01*
X114902287Y-96359951D01*
X114899322Y-96358723D01*
X114896141Y-96358304D01*
X114896137Y-96358303D01*
X114789076Y-96344208D01*
X114789067Y-96344207D01*
X114787492Y-96344000D01*
X114712508Y-96344000D01*
X114710933Y-96344207D01*
X114710923Y-96344208D01*
X114603862Y-96358303D01*
X114603856Y-96358304D01*
X114600678Y-96358723D01*
X114597714Y-96359950D01*
X114597709Y-96359952D01*
X114464500Y-96415129D01*
X114464496Y-96415131D01*
X114461532Y-96416359D01*
X114458990Y-96418308D01*
X114458982Y-96418314D01*
X114344593Y-96506089D01*
X114344589Y-96506092D01*
X114342045Y-96508045D01*
X114340092Y-96510589D01*
X114340089Y-96510593D01*
X114252314Y-96624982D01*
X114252308Y-96624990D01*
X114250359Y-96627532D01*
X114249131Y-96630496D01*
X114249129Y-96630500D01*
X114193952Y-96763709D01*
X114193950Y-96763714D01*
X114192723Y-96766678D01*
X114192304Y-96769856D01*
X114192303Y-96769862D01*
X114173483Y-96912817D01*
X114173064Y-96916000D01*
X100120500Y-96916000D01*
X100120500Y-95900000D01*
X119253064Y-95900000D01*
X119253483Y-95903183D01*
X119272303Y-96046137D01*
X119272304Y-96046141D01*
X119272723Y-96049322D01*
X119273951Y-96052287D01*
X119273952Y-96052290D01*
X119308937Y-96136751D01*
X119330359Y-96188468D01*
X119332311Y-96191012D01*
X119332314Y-96191017D01*
X119412037Y-96294912D01*
X119422045Y-96307955D01*
X119424593Y-96309910D01*
X119538982Y-96397685D01*
X119538985Y-96397687D01*
X119541532Y-96399641D01*
X119680678Y-96457277D01*
X119792508Y-96472000D01*
X119865892Y-96472000D01*
X119867492Y-96472000D01*
X119979322Y-96457277D01*
X120118468Y-96399641D01*
X120237955Y-96307955D01*
X120329641Y-96188468D01*
X120387277Y-96049322D01*
X120389163Y-96035000D01*
X124999592Y-96035000D01*
X125000534Y-96039736D01*
X125018092Y-96128007D01*
X125018093Y-96128009D01*
X125019034Y-96132740D01*
X125021713Y-96136750D01*
X125021714Y-96136751D01*
X125056269Y-96188468D01*
X125074399Y-96215601D01*
X125157260Y-96270966D01*
X125255000Y-96290408D01*
X125352740Y-96270966D01*
X125435601Y-96215601D01*
X125490966Y-96132740D01*
X125510408Y-96035000D01*
X125490966Y-95937260D01*
X125435601Y-95854399D01*
X125370331Y-95810788D01*
X125356751Y-95801714D01*
X125356750Y-95801713D01*
X125352740Y-95799034D01*
X125348009Y-95798093D01*
X125348007Y-95798092D01*
X125259736Y-95780534D01*
X125255000Y-95779592D01*
X125250264Y-95780534D01*
X125161992Y-95798092D01*
X125161988Y-95798093D01*
X125157260Y-95799034D01*
X125153250Y-95801712D01*
X125153248Y-95801714D01*
X125078410Y-95851718D01*
X125078407Y-95851720D01*
X125074399Y-95854399D01*
X125071720Y-95858407D01*
X125071718Y-95858410D01*
X125021714Y-95933248D01*
X125021712Y-95933250D01*
X125019034Y-95937260D01*
X125018093Y-95941988D01*
X125018092Y-95941992D01*
X125000534Y-96030264D01*
X124999592Y-96035000D01*
X120389163Y-96035000D01*
X120406936Y-95900000D01*
X120387277Y-95750678D01*
X120329641Y-95611532D01*
X120327687Y-95608985D01*
X120327685Y-95608982D01*
X120239910Y-95494593D01*
X120237955Y-95492045D01*
X120234263Y-95489212D01*
X120121017Y-95402314D01*
X120121012Y-95402311D01*
X120118468Y-95400359D01*
X120115499Y-95399129D01*
X119982290Y-95343952D01*
X119982287Y-95343951D01*
X119979322Y-95342723D01*
X119976141Y-95342304D01*
X119976137Y-95342303D01*
X119869076Y-95328208D01*
X119869067Y-95328207D01*
X119867492Y-95328000D01*
X119792508Y-95328000D01*
X119790933Y-95328207D01*
X119790923Y-95328208D01*
X119683862Y-95342303D01*
X119683856Y-95342304D01*
X119680678Y-95342723D01*
X119677714Y-95343950D01*
X119677709Y-95343952D01*
X119544500Y-95399129D01*
X119544496Y-95399131D01*
X119541532Y-95400359D01*
X119538990Y-95402308D01*
X119538982Y-95402314D01*
X119424593Y-95490089D01*
X119424589Y-95490092D01*
X119422045Y-95492045D01*
X119420092Y-95494589D01*
X119420089Y-95494593D01*
X119332314Y-95608982D01*
X119332308Y-95608990D01*
X119330359Y-95611532D01*
X119329131Y-95614496D01*
X119329129Y-95614500D01*
X119273952Y-95747709D01*
X119273950Y-95747714D01*
X119272723Y-95750678D01*
X119272304Y-95753856D01*
X119272303Y-95753862D01*
X119253483Y-95896817D01*
X119253064Y-95900000D01*
X100120500Y-95900000D01*
X100120500Y-94884000D01*
X114173064Y-94884000D01*
X114173483Y-94887183D01*
X114192303Y-95030137D01*
X114192304Y-95030141D01*
X114192723Y-95033322D01*
X114193951Y-95036287D01*
X114193952Y-95036290D01*
X114235448Y-95136470D01*
X114250359Y-95172468D01*
X114252311Y-95175012D01*
X114252314Y-95175017D01*
X114307508Y-95246946D01*
X114342045Y-95291955D01*
X114344593Y-95293910D01*
X114458982Y-95381685D01*
X114458985Y-95381687D01*
X114461532Y-95383641D01*
X114600678Y-95441277D01*
X114712508Y-95456000D01*
X114785892Y-95456000D01*
X114787492Y-95456000D01*
X114899322Y-95441277D01*
X115038468Y-95383641D01*
X115157955Y-95291955D01*
X115249641Y-95172468D01*
X115307277Y-95033322D01*
X115318905Y-94945000D01*
X119944592Y-94945000D01*
X119945534Y-94949736D01*
X119963092Y-95038007D01*
X119963093Y-95038009D01*
X119964034Y-95042740D01*
X119966713Y-95046750D01*
X119966714Y-95046751D01*
X119984619Y-95073549D01*
X120019399Y-95125601D01*
X120102260Y-95180966D01*
X120200000Y-95200408D01*
X120297740Y-95180966D01*
X120380601Y-95125601D01*
X120435966Y-95042740D01*
X120455408Y-94945000D01*
X120435966Y-94847260D01*
X120380601Y-94764399D01*
X120297740Y-94709034D01*
X120293009Y-94708093D01*
X120293007Y-94708092D01*
X120204736Y-94690534D01*
X120200000Y-94689592D01*
X120195264Y-94690534D01*
X120106992Y-94708092D01*
X120106988Y-94708093D01*
X120102260Y-94709034D01*
X120098250Y-94711712D01*
X120098248Y-94711714D01*
X120023410Y-94761718D01*
X120023407Y-94761720D01*
X120019399Y-94764399D01*
X120016720Y-94768407D01*
X120016718Y-94768410D01*
X119966714Y-94843248D01*
X119966712Y-94843250D01*
X119964034Y-94847260D01*
X119963093Y-94851988D01*
X119963092Y-94851992D01*
X119952260Y-94906450D01*
X119944592Y-94945000D01*
X115318905Y-94945000D01*
X115326936Y-94884000D01*
X115307277Y-94734678D01*
X115249641Y-94595532D01*
X115247687Y-94592985D01*
X115247685Y-94592982D01*
X115159910Y-94478593D01*
X115157955Y-94476045D01*
X115123485Y-94449595D01*
X115041017Y-94386314D01*
X115041012Y-94386311D01*
X115038468Y-94384359D01*
X115035499Y-94383129D01*
X114902290Y-94327952D01*
X114902287Y-94327951D01*
X114899322Y-94326723D01*
X114896141Y-94326304D01*
X114896137Y-94326303D01*
X114789076Y-94312208D01*
X114789067Y-94312207D01*
X114787492Y-94312000D01*
X114712508Y-94312000D01*
X114710933Y-94312207D01*
X114710923Y-94312208D01*
X114603862Y-94326303D01*
X114603856Y-94326304D01*
X114600678Y-94326723D01*
X114597714Y-94327950D01*
X114597709Y-94327952D01*
X114464500Y-94383129D01*
X114464496Y-94383131D01*
X114461532Y-94384359D01*
X114458990Y-94386308D01*
X114458982Y-94386314D01*
X114344593Y-94474089D01*
X114344589Y-94474092D01*
X114342045Y-94476045D01*
X114340092Y-94478589D01*
X114340089Y-94478593D01*
X114252314Y-94592982D01*
X114252308Y-94592990D01*
X114250359Y-94595532D01*
X114249131Y-94598496D01*
X114249129Y-94598500D01*
X114193952Y-94731709D01*
X114193950Y-94731714D01*
X114192723Y-94734678D01*
X114192304Y-94737856D01*
X114192303Y-94737862D01*
X114177278Y-94851992D01*
X114173064Y-94884000D01*
X100120500Y-94884000D01*
X100120500Y-93416945D01*
X115387018Y-93416945D01*
X115387312Y-93419122D01*
X115387313Y-93419124D01*
X115417268Y-93640263D01*
X115417269Y-93640268D01*
X115417563Y-93642437D01*
X115418238Y-93644514D01*
X115418240Y-93644523D01*
X115465759Y-93790769D01*
X115487880Y-93858851D01*
X115488917Y-93860779D01*
X115488921Y-93860787D01*
X115594670Y-94057301D01*
X115594674Y-94057308D01*
X115595710Y-94059232D01*
X115597075Y-94060944D01*
X115597076Y-94060945D01*
X115657535Y-94136759D01*
X115737585Y-94237138D01*
X115908948Y-94386853D01*
X116104289Y-94503564D01*
X116317330Y-94583520D01*
X116541224Y-94624150D01*
X116710671Y-94624150D01*
X116711775Y-94624150D01*
X116881635Y-94608862D01*
X117100986Y-94548325D01*
X117306003Y-94449595D01*
X117490095Y-94315843D01*
X117647347Y-94151371D01*
X117772705Y-93961463D01*
X117862138Y-93752223D01*
X117912773Y-93530377D01*
X117917867Y-93416945D01*
X118562018Y-93416945D01*
X118562312Y-93419122D01*
X118562313Y-93419124D01*
X118592268Y-93640263D01*
X118592269Y-93640268D01*
X118592563Y-93642437D01*
X118593238Y-93644514D01*
X118593240Y-93644523D01*
X118640759Y-93790769D01*
X118662880Y-93858851D01*
X118663917Y-93860779D01*
X118663921Y-93860787D01*
X118769670Y-94057301D01*
X118769674Y-94057308D01*
X118770710Y-94059232D01*
X118772075Y-94060944D01*
X118772076Y-94060945D01*
X118832535Y-94136759D01*
X118912585Y-94237138D01*
X119083948Y-94386853D01*
X119279289Y-94503564D01*
X119492330Y-94583520D01*
X119716224Y-94624150D01*
X119885671Y-94624150D01*
X119886775Y-94624150D01*
X120056635Y-94608862D01*
X120275986Y-94548325D01*
X120481003Y-94449595D01*
X120665095Y-94315843D01*
X120822347Y-94151371D01*
X120947705Y-93961463D01*
X121037138Y-93752223D01*
X121087773Y-93530377D01*
X121097982Y-93303055D01*
X121067437Y-93077563D01*
X120997120Y-92861149D01*
X120996078Y-92859212D01*
X120890329Y-92662698D01*
X120890326Y-92662694D01*
X120889290Y-92660768D01*
X120747415Y-92482862D01*
X120709232Y-92449503D01*
X120577707Y-92334593D01*
X120576052Y-92333147D01*
X120445939Y-92255408D01*
X120382601Y-92217565D01*
X120382599Y-92217564D01*
X120380711Y-92216436D01*
X120372811Y-92213471D01*
X120169736Y-92137255D01*
X120169732Y-92137253D01*
X120167670Y-92136480D01*
X120165510Y-92136088D01*
X120165503Y-92136086D01*
X119945938Y-92096242D01*
X119945934Y-92096241D01*
X119943776Y-92095850D01*
X119773225Y-92095850D01*
X119772144Y-92095947D01*
X119772128Y-92095948D01*
X119605552Y-92110941D01*
X119605550Y-92110941D01*
X119603365Y-92111138D01*
X119601256Y-92111719D01*
X119601245Y-92111722D01*
X119386131Y-92171090D01*
X119386123Y-92171092D01*
X119384014Y-92171675D01*
X119382046Y-92172622D01*
X119382037Y-92172626D01*
X119180976Y-92269451D01*
X119180967Y-92269456D01*
X119178997Y-92270405D01*
X119177228Y-92271690D01*
X119177220Y-92271695D01*
X118996683Y-92402864D01*
X118996674Y-92402871D01*
X118994905Y-92404157D01*
X118993388Y-92405743D01*
X118993383Y-92405748D01*
X118839175Y-92567036D01*
X118839169Y-92567042D01*
X118837653Y-92568629D01*
X118836443Y-92570461D01*
X118836439Y-92570467D01*
X118713507Y-92756699D01*
X118713501Y-92756709D01*
X118712295Y-92758537D01*
X118711435Y-92760547D01*
X118711429Y-92760560D01*
X118623725Y-92965756D01*
X118623722Y-92965763D01*
X118622862Y-92967777D01*
X118622374Y-92969910D01*
X118622372Y-92969920D01*
X118572717Y-93187475D01*
X118572227Y-93189623D01*
X118572128Y-93191814D01*
X118572128Y-93191819D01*
X118562116Y-93414747D01*
X118562116Y-93414754D01*
X118562018Y-93416945D01*
X117917867Y-93416945D01*
X117922982Y-93303055D01*
X117892437Y-93077563D01*
X117822120Y-92861149D01*
X117821078Y-92859212D01*
X117715329Y-92662698D01*
X117715326Y-92662694D01*
X117714290Y-92660768D01*
X117572415Y-92482862D01*
X117534232Y-92449503D01*
X117402707Y-92334593D01*
X117401052Y-92333147D01*
X117270939Y-92255408D01*
X117207601Y-92217565D01*
X117207599Y-92217564D01*
X117205711Y-92216436D01*
X117197811Y-92213471D01*
X116994736Y-92137255D01*
X116994732Y-92137253D01*
X116992670Y-92136480D01*
X116990510Y-92136088D01*
X116990503Y-92136086D01*
X116770938Y-92096242D01*
X116770934Y-92096241D01*
X116768776Y-92095850D01*
X116598225Y-92095850D01*
X116597144Y-92095947D01*
X116597128Y-92095948D01*
X116430552Y-92110941D01*
X116430550Y-92110941D01*
X116428365Y-92111138D01*
X116426256Y-92111719D01*
X116426245Y-92111722D01*
X116211131Y-92171090D01*
X116211123Y-92171092D01*
X116209014Y-92171675D01*
X116207046Y-92172622D01*
X116207037Y-92172626D01*
X116005976Y-92269451D01*
X116005967Y-92269456D01*
X116003997Y-92270405D01*
X116002228Y-92271690D01*
X116002220Y-92271695D01*
X115821683Y-92402864D01*
X115821674Y-92402871D01*
X115819905Y-92404157D01*
X115818388Y-92405743D01*
X115818383Y-92405748D01*
X115664175Y-92567036D01*
X115664169Y-92567042D01*
X115662653Y-92568629D01*
X115661443Y-92570461D01*
X115661439Y-92570467D01*
X115538507Y-92756699D01*
X115538501Y-92756709D01*
X115537295Y-92758537D01*
X115536435Y-92760547D01*
X115536429Y-92760560D01*
X115448725Y-92965756D01*
X115448722Y-92965763D01*
X115447862Y-92967777D01*
X115447374Y-92969910D01*
X115447372Y-92969920D01*
X115397717Y-93187475D01*
X115397227Y-93189623D01*
X115397128Y-93191814D01*
X115397128Y-93191819D01*
X115387116Y-93414747D01*
X115387116Y-93414754D01*
X115387018Y-93416945D01*
X100120500Y-93416945D01*
X100120500Y-92000000D01*
X122944592Y-92000000D01*
X122945534Y-92004736D01*
X122963092Y-92093007D01*
X122963093Y-92093009D01*
X122964034Y-92097740D01*
X122966713Y-92101750D01*
X122966714Y-92101751D01*
X122990436Y-92137255D01*
X123019399Y-92180601D01*
X123102260Y-92235966D01*
X123200000Y-92255408D01*
X123297740Y-92235966D01*
X123380601Y-92180601D01*
X123435966Y-92097740D01*
X123455408Y-92000000D01*
X123435966Y-91902260D01*
X123380601Y-91819399D01*
X123372046Y-91813683D01*
X123301751Y-91766714D01*
X123301750Y-91766713D01*
X123297740Y-91764034D01*
X123293009Y-91763093D01*
X123293007Y-91763092D01*
X123204736Y-91745534D01*
X123200000Y-91744592D01*
X123195264Y-91745534D01*
X123106992Y-91763092D01*
X123106988Y-91763093D01*
X123102260Y-91764034D01*
X123098250Y-91766712D01*
X123098248Y-91766714D01*
X123023410Y-91816718D01*
X123023407Y-91816720D01*
X123019399Y-91819399D01*
X123016720Y-91823407D01*
X123016718Y-91823410D01*
X122966714Y-91898248D01*
X122966712Y-91898250D01*
X122964034Y-91902260D01*
X122963093Y-91906988D01*
X122963092Y-91906992D01*
X122945534Y-91995264D01*
X122944592Y-92000000D01*
X100120500Y-92000000D01*
X100120500Y-84850000D01*
X134699941Y-84850000D01*
X134718037Y-84952626D01*
X134720180Y-84956338D01*
X134721646Y-84960365D01*
X134720439Y-84960804D01*
X134725000Y-84977815D01*
X134725000Y-86081419D01*
X134724256Y-86089928D01*
X134705985Y-86193549D01*
X134704500Y-86201969D01*
X134704500Y-86264618D01*
X134704500Y-97667712D01*
X134704500Y-97700000D01*
X134704500Y-97798031D01*
X134704870Y-97800134D01*
X134704871Y-97800136D01*
X134738174Y-97989009D01*
X134738176Y-97989018D01*
X134738546Y-97991114D01*
X134739275Y-97993118D01*
X134739277Y-97993124D01*
X134759169Y-98047777D01*
X134805603Y-98175353D01*
X134903634Y-98345147D01*
X134905011Y-98346789D01*
X134905016Y-98346795D01*
X134975906Y-98431278D01*
X135029660Y-98495340D01*
X135031300Y-98496716D01*
X135178204Y-98619983D01*
X135178208Y-98619986D01*
X135179853Y-98621366D01*
X135349647Y-98719397D01*
X135533886Y-98786454D01*
X135726969Y-98820500D01*
X135789618Y-98820500D01*
X135825000Y-98820500D01*
X135857288Y-98820500D01*
X141297712Y-98820500D01*
X141347325Y-98820500D01*
X141425890Y-98820500D01*
X141428031Y-98820500D01*
X141540071Y-98800744D01*
X141548581Y-98800000D01*
X143931419Y-98800000D01*
X143939928Y-98800744D01*
X144051969Y-98820500D01*
X144114618Y-98820500D01*
X144150000Y-98820500D01*
X144182288Y-98820500D01*
X148992712Y-98820500D01*
X149042325Y-98820500D01*
X149120890Y-98820500D01*
X149123031Y-98820500D01*
X149316114Y-98786454D01*
X149500353Y-98719397D01*
X149670147Y-98621366D01*
X149820340Y-98495340D01*
X149946366Y-98345147D01*
X150044397Y-98175353D01*
X150111454Y-97991114D01*
X150145500Y-97798031D01*
X150145500Y-97700000D01*
X150145500Y-97667712D01*
X150145500Y-92689782D01*
X150145495Y-92689766D01*
X150145493Y-92689732D01*
X150145493Y-92650003D01*
X150145494Y-92609077D01*
X150115743Y-92440352D01*
X150115000Y-92431844D01*
X150115000Y-91668444D01*
X150115744Y-91659935D01*
X150124315Y-91611326D01*
X150125059Y-91607107D01*
X150117926Y-91566652D01*
X150115744Y-91554279D01*
X150115000Y-91545770D01*
X150115000Y-91048444D01*
X150115744Y-91039935D01*
X150124315Y-90991326D01*
X150125059Y-90987107D01*
X150115744Y-90934279D01*
X150115000Y-90925770D01*
X150115000Y-90162390D01*
X150115744Y-90153881D01*
X150120516Y-90126817D01*
X150145499Y-89985138D01*
X150145500Y-89887108D01*
X150145500Y-89854820D01*
X150145500Y-80057675D01*
X150145500Y-79976969D01*
X150111454Y-79783886D01*
X150044397Y-79599647D01*
X149946366Y-79429853D01*
X149944986Y-79428208D01*
X149944983Y-79428204D01*
X149821716Y-79281300D01*
X149820340Y-79279660D01*
X149818699Y-79278283D01*
X149671795Y-79155016D01*
X149671789Y-79155011D01*
X149670147Y-79153634D01*
X149500353Y-79055603D01*
X149498345Y-79054872D01*
X149318124Y-78989277D01*
X149318118Y-78989275D01*
X149316114Y-78988546D01*
X149314018Y-78988176D01*
X149314009Y-78988174D01*
X149125136Y-78954871D01*
X149125134Y-78954870D01*
X149123031Y-78954500D01*
X149120890Y-78954500D01*
X142992161Y-78954500D01*
X142982338Y-78953505D01*
X142973847Y-78951767D01*
X142973844Y-78951767D01*
X142967525Y-78950474D01*
X142961405Y-78952514D01*
X142939838Y-78959703D01*
X142938150Y-78960232D01*
X142911825Y-78967962D01*
X142911822Y-78967963D01*
X142907103Y-78969349D01*
X142905823Y-78970825D01*
X142904993Y-78971221D01*
X142884645Y-78977943D01*
X142851598Y-78977116D01*
X142826596Y-78955489D01*
X142821020Y-78922905D01*
X142824315Y-78904222D01*
X142824315Y-78904219D01*
X142825059Y-78900000D01*
X142806963Y-78797374D01*
X142754859Y-78707126D01*
X142751575Y-78704370D01*
X142751574Y-78704369D01*
X142678312Y-78642895D01*
X142675030Y-78640141D01*
X142671004Y-78638675D01*
X142671003Y-78638675D01*
X142598731Y-78612371D01*
X142577105Y-78604500D01*
X142472895Y-78604500D01*
X142468864Y-78605966D01*
X142468864Y-78605967D01*
X142378997Y-78638675D01*
X142378993Y-78638676D01*
X142374971Y-78640141D01*
X142371690Y-78642893D01*
X142371688Y-78642895D01*
X142298425Y-78704369D01*
X142298421Y-78704373D01*
X142295141Y-78707126D01*
X142292998Y-78710837D01*
X142292996Y-78710840D01*
X142245180Y-78793661D01*
X142245178Y-78793664D01*
X142243037Y-78797374D01*
X142224941Y-78900000D01*
X142225685Y-78904219D01*
X142225685Y-78904221D01*
X142228980Y-78922910D01*
X142223402Y-78955493D01*
X142198399Y-78977119D01*
X142165352Y-78977944D01*
X142133196Y-78967320D01*
X142122079Y-78962017D01*
X142116309Y-78958309D01*
X142116306Y-78958308D01*
X142110382Y-78954501D01*
X142103336Y-78954500D01*
X142103335Y-78954500D01*
X142102500Y-78954500D01*
X142091232Y-78952671D01*
X142088591Y-78952512D01*
X142082475Y-78950474D01*
X142076158Y-78951766D01*
X142076156Y-78951766D01*
X142067654Y-78953506D01*
X142057833Y-78954500D01*
X135857288Y-78954500D01*
X135825000Y-78954500D01*
X135726969Y-78954500D01*
X135724866Y-78954870D01*
X135724863Y-78954871D01*
X135535990Y-78988174D01*
X135535979Y-78988176D01*
X135533886Y-78988546D01*
X135531884Y-78989274D01*
X135531875Y-78989277D01*
X135351654Y-79054872D01*
X135351648Y-79054874D01*
X135349647Y-79055603D01*
X135347797Y-79056670D01*
X135347795Y-79056672D01*
X135181714Y-79152559D01*
X135181709Y-79152562D01*
X135179853Y-79153634D01*
X135178215Y-79155007D01*
X135178204Y-79155016D01*
X135031300Y-79278283D01*
X135031294Y-79278288D01*
X135029660Y-79279660D01*
X135028288Y-79281294D01*
X135028283Y-79281300D01*
X134905016Y-79428204D01*
X134905007Y-79428215D01*
X134903634Y-79429853D01*
X134902562Y-79431709D01*
X134902559Y-79431714D01*
X134845312Y-79530869D01*
X134805603Y-79599647D01*
X134804874Y-79601648D01*
X134804872Y-79601654D01*
X134739277Y-79781875D01*
X134739274Y-79781884D01*
X134738546Y-79783886D01*
X134738176Y-79785979D01*
X134738174Y-79785990D01*
X134710366Y-79943700D01*
X134704500Y-79976969D01*
X134704500Y-80039618D01*
X134704500Y-83317712D01*
X134704500Y-83350000D01*
X134704500Y-83448031D01*
X134704870Y-83450134D01*
X134704871Y-83450136D01*
X134724256Y-83560072D01*
X134725000Y-83568581D01*
X134725000Y-84722185D01*
X134720439Y-84739195D01*
X134721646Y-84739635D01*
X134720179Y-84743662D01*
X134718037Y-84747374D01*
X134699941Y-84850000D01*
X100120500Y-84850000D01*
X100120500Y-79724411D01*
X112291259Y-79724411D01*
X112294348Y-79728874D01*
X112376627Y-79796399D01*
X112380614Y-79799063D01*
X112544871Y-79886860D01*
X112549310Y-79888699D01*
X112727546Y-79942767D01*
X112732239Y-79943700D01*
X112917604Y-79961957D01*
X112922396Y-79961957D01*
X113107760Y-79943700D01*
X113112453Y-79942767D01*
X113290689Y-79888699D01*
X113295128Y-79886860D01*
X113459386Y-79799062D01*
X113463369Y-79796401D01*
X113545653Y-79728871D01*
X113548739Y-79724412D01*
X113548738Y-79724411D01*
X114831259Y-79724411D01*
X114834348Y-79728874D01*
X114916627Y-79796399D01*
X114920614Y-79799063D01*
X115084871Y-79886860D01*
X115089310Y-79888699D01*
X115267546Y-79942767D01*
X115272239Y-79943700D01*
X115457604Y-79961957D01*
X115462396Y-79961957D01*
X115647760Y-79943700D01*
X115652453Y-79942767D01*
X115830689Y-79888699D01*
X115835128Y-79886860D01*
X115999386Y-79799062D01*
X116003369Y-79796401D01*
X116085653Y-79728871D01*
X116088739Y-79724412D01*
X116086104Y-79719670D01*
X115466892Y-79100458D01*
X115460000Y-79097603D01*
X115453107Y-79100458D01*
X114833894Y-79719670D01*
X114831259Y-79724411D01*
X113548738Y-79724411D01*
X113546104Y-79719670D01*
X112926892Y-79100458D01*
X112920000Y-79097603D01*
X112913107Y-79100458D01*
X112293894Y-79719670D01*
X112291259Y-79724411D01*
X100120500Y-79724411D01*
X100120500Y-78989896D01*
X111945543Y-78989896D01*
X111963799Y-79175260D01*
X111964732Y-79179953D01*
X112018800Y-79358189D01*
X112020639Y-79362628D01*
X112108436Y-79526885D01*
X112111100Y-79530872D01*
X112178624Y-79613150D01*
X112183087Y-79616239D01*
X112187828Y-79613604D01*
X112809372Y-78992061D01*
X112812005Y-78987500D01*
X112812004Y-78987499D01*
X113030103Y-78987499D01*
X113032958Y-78994392D01*
X113652170Y-79613604D01*
X113656912Y-79616239D01*
X113661371Y-79613153D01*
X113728901Y-79530869D01*
X113731562Y-79526886D01*
X113819360Y-79362628D01*
X113821199Y-79358189D01*
X113875267Y-79179953D01*
X113876200Y-79175260D01*
X113894457Y-78989896D01*
X114485543Y-78989896D01*
X114503799Y-79175260D01*
X114504732Y-79179953D01*
X114558800Y-79358189D01*
X114560639Y-79362628D01*
X114648436Y-79526885D01*
X114651100Y-79530872D01*
X114718624Y-79613150D01*
X114723087Y-79616239D01*
X114727828Y-79613604D01*
X115349372Y-78992061D01*
X115352005Y-78987500D01*
X115352004Y-78987499D01*
X115570103Y-78987499D01*
X115572958Y-78994392D01*
X116192170Y-79613604D01*
X116196912Y-79616239D01*
X116201371Y-79613153D01*
X116268901Y-79530869D01*
X116271562Y-79526886D01*
X116359360Y-79362628D01*
X116361199Y-79358189D01*
X116415267Y-79179953D01*
X116416200Y-79175260D01*
X116434457Y-78989896D01*
X116434457Y-78987500D01*
X117044901Y-78987500D01*
X117045137Y-78989896D01*
X117061263Y-79153634D01*
X117063253Y-79173831D01*
X117063948Y-79176124D01*
X117063950Y-79176131D01*
X117114789Y-79343722D01*
X117117604Y-79353001D01*
X117205864Y-79518125D01*
X117324643Y-79662857D01*
X117469375Y-79781636D01*
X117634499Y-79869896D01*
X117813669Y-79924247D01*
X118000000Y-79942599D01*
X118186331Y-79924247D01*
X118365501Y-79869896D01*
X118530625Y-79781636D01*
X118675357Y-79662857D01*
X118794136Y-79518125D01*
X118882396Y-79353001D01*
X118936747Y-79173831D01*
X118955099Y-78987500D01*
X119584901Y-78987500D01*
X119585137Y-78989896D01*
X119601263Y-79153634D01*
X119603253Y-79173831D01*
X119603948Y-79176124D01*
X119603950Y-79176131D01*
X119654789Y-79343722D01*
X119657604Y-79353001D01*
X119745864Y-79518125D01*
X119864643Y-79662857D01*
X120009375Y-79781636D01*
X120174499Y-79869896D01*
X120353669Y-79924247D01*
X120540000Y-79942599D01*
X120726331Y-79924247D01*
X120905501Y-79869896D01*
X121070625Y-79781636D01*
X121215357Y-79662857D01*
X121334136Y-79518125D01*
X121422396Y-79353001D01*
X121476747Y-79173831D01*
X121495099Y-78987500D01*
X122124901Y-78987500D01*
X122125137Y-78989896D01*
X122141263Y-79153634D01*
X122143253Y-79173831D01*
X122143948Y-79176124D01*
X122143950Y-79176131D01*
X122194789Y-79343722D01*
X122197604Y-79353001D01*
X122285864Y-79518125D01*
X122404643Y-79662857D01*
X122549375Y-79781636D01*
X122714499Y-79869896D01*
X122893669Y-79924247D01*
X123080000Y-79942599D01*
X123266331Y-79924247D01*
X123445501Y-79869896D01*
X123610625Y-79781636D01*
X123755357Y-79662857D01*
X123874136Y-79518125D01*
X123962396Y-79353001D01*
X124016747Y-79173831D01*
X124035099Y-78987500D01*
X124016747Y-78801169D01*
X123962396Y-78621999D01*
X123874136Y-78456875D01*
X123755357Y-78312143D01*
X123610625Y-78193364D01*
X123583003Y-78178600D01*
X123447630Y-78106242D01*
X123445501Y-78105104D01*
X123443193Y-78104403D01*
X123443191Y-78104403D01*
X123268631Y-78051450D01*
X123268624Y-78051448D01*
X123266331Y-78050753D01*
X123263941Y-78050517D01*
X123263938Y-78050517D01*
X123082396Y-78032637D01*
X123080000Y-78032401D01*
X123077604Y-78032637D01*
X122896061Y-78050517D01*
X122896056Y-78050517D01*
X122893669Y-78050753D01*
X122891377Y-78051448D01*
X122891368Y-78051450D01*
X122716808Y-78104403D01*
X122716802Y-78104405D01*
X122714499Y-78105104D01*
X122712373Y-78106240D01*
X122712369Y-78106242D01*
X122551499Y-78192228D01*
X122551493Y-78192231D01*
X122549375Y-78193364D01*
X122547518Y-78194887D01*
X122547512Y-78194892D01*
X122406505Y-78310614D01*
X122406500Y-78310618D01*
X122404643Y-78312143D01*
X122403118Y-78314000D01*
X122403114Y-78314005D01*
X122287392Y-78455012D01*
X122287387Y-78455018D01*
X122285864Y-78456875D01*
X122284731Y-78458993D01*
X122284728Y-78458999D01*
X122198742Y-78619869D01*
X122198740Y-78619873D01*
X122197604Y-78621999D01*
X122196905Y-78624302D01*
X122196903Y-78624308D01*
X122143950Y-78798868D01*
X122143948Y-78798877D01*
X122143253Y-78801169D01*
X122143017Y-78803556D01*
X122143017Y-78803561D01*
X122129723Y-78938537D01*
X122124901Y-78987500D01*
X121495099Y-78987500D01*
X121476747Y-78801169D01*
X121422396Y-78621999D01*
X121334136Y-78456875D01*
X121215357Y-78312143D01*
X121070625Y-78193364D01*
X121043003Y-78178600D01*
X120907630Y-78106242D01*
X120905501Y-78105104D01*
X120903193Y-78104403D01*
X120903191Y-78104403D01*
X120728631Y-78051450D01*
X120728624Y-78051448D01*
X120726331Y-78050753D01*
X120723941Y-78050517D01*
X120723938Y-78050517D01*
X120542396Y-78032637D01*
X120540000Y-78032401D01*
X120537604Y-78032637D01*
X120356061Y-78050517D01*
X120356056Y-78050517D01*
X120353669Y-78050753D01*
X120351377Y-78051448D01*
X120351368Y-78051450D01*
X120176808Y-78104403D01*
X120176802Y-78104405D01*
X120174499Y-78105104D01*
X120172373Y-78106240D01*
X120172369Y-78106242D01*
X120011499Y-78192228D01*
X120011493Y-78192231D01*
X120009375Y-78193364D01*
X120007518Y-78194887D01*
X120007512Y-78194892D01*
X119866505Y-78310614D01*
X119866500Y-78310618D01*
X119864643Y-78312143D01*
X119863118Y-78314000D01*
X119863114Y-78314005D01*
X119747392Y-78455012D01*
X119747387Y-78455018D01*
X119745864Y-78456875D01*
X119744731Y-78458993D01*
X119744728Y-78458999D01*
X119658742Y-78619869D01*
X119658740Y-78619873D01*
X119657604Y-78621999D01*
X119656905Y-78624302D01*
X119656903Y-78624308D01*
X119603950Y-78798868D01*
X119603948Y-78798877D01*
X119603253Y-78801169D01*
X119603017Y-78803556D01*
X119603017Y-78803561D01*
X119589723Y-78938537D01*
X119584901Y-78987500D01*
X118955099Y-78987500D01*
X118936747Y-78801169D01*
X118882396Y-78621999D01*
X118794136Y-78456875D01*
X118675357Y-78312143D01*
X118530625Y-78193364D01*
X118503003Y-78178600D01*
X118367630Y-78106242D01*
X118365501Y-78105104D01*
X118363193Y-78104403D01*
X118363191Y-78104403D01*
X118188631Y-78051450D01*
X118188624Y-78051448D01*
X118186331Y-78050753D01*
X118183941Y-78050517D01*
X118183938Y-78050517D01*
X118002396Y-78032637D01*
X118000000Y-78032401D01*
X117997604Y-78032637D01*
X117816061Y-78050517D01*
X117816056Y-78050517D01*
X117813669Y-78050753D01*
X117811377Y-78051448D01*
X117811368Y-78051450D01*
X117636808Y-78104403D01*
X117636802Y-78104405D01*
X117634499Y-78105104D01*
X117632373Y-78106240D01*
X117632369Y-78106242D01*
X117471499Y-78192228D01*
X117471493Y-78192231D01*
X117469375Y-78193364D01*
X117467518Y-78194887D01*
X117467512Y-78194892D01*
X117326505Y-78310614D01*
X117326500Y-78310618D01*
X117324643Y-78312143D01*
X117323118Y-78314000D01*
X117323114Y-78314005D01*
X117207392Y-78455012D01*
X117207387Y-78455018D01*
X117205864Y-78456875D01*
X117204731Y-78458993D01*
X117204728Y-78458999D01*
X117118742Y-78619869D01*
X117118740Y-78619873D01*
X117117604Y-78621999D01*
X117116905Y-78624302D01*
X117116903Y-78624308D01*
X117063950Y-78798868D01*
X117063948Y-78798877D01*
X117063253Y-78801169D01*
X117063017Y-78803556D01*
X117063017Y-78803561D01*
X117049723Y-78938537D01*
X117044901Y-78987500D01*
X116434457Y-78987500D01*
X116434457Y-78985104D01*
X116416200Y-78799739D01*
X116415267Y-78795046D01*
X116361199Y-78616810D01*
X116359360Y-78612371D01*
X116271563Y-78448114D01*
X116268899Y-78444127D01*
X116201374Y-78361848D01*
X116196911Y-78358759D01*
X116192170Y-78361394D01*
X115572958Y-78980607D01*
X115570103Y-78987499D01*
X115352004Y-78987499D01*
X115349372Y-78982938D01*
X114727828Y-78361394D01*
X114723087Y-78358759D01*
X114718625Y-78361847D01*
X114651098Y-78444129D01*
X114648436Y-78448115D01*
X114560639Y-78612371D01*
X114558800Y-78616810D01*
X114504732Y-78795046D01*
X114503799Y-78799739D01*
X114485543Y-78985104D01*
X114485543Y-78989896D01*
X113894457Y-78989896D01*
X113894457Y-78985104D01*
X113876200Y-78799739D01*
X113875267Y-78795046D01*
X113821199Y-78616810D01*
X113819360Y-78612371D01*
X113731563Y-78448114D01*
X113728899Y-78444127D01*
X113661374Y-78361848D01*
X113656911Y-78358759D01*
X113652170Y-78361394D01*
X113032958Y-78980607D01*
X113030103Y-78987499D01*
X112812004Y-78987499D01*
X112809372Y-78982938D01*
X112187828Y-78361394D01*
X112183087Y-78358759D01*
X112178625Y-78361847D01*
X112111098Y-78444129D01*
X112108436Y-78448115D01*
X112020639Y-78612371D01*
X112018800Y-78616810D01*
X111964732Y-78795046D01*
X111963799Y-78799739D01*
X111945543Y-78985104D01*
X111945543Y-78989896D01*
X100120500Y-78989896D01*
X100120500Y-78250587D01*
X112291259Y-78250587D01*
X112293894Y-78255328D01*
X112915438Y-78876872D01*
X112920000Y-78879505D01*
X112924561Y-78876872D01*
X113546104Y-78255328D01*
X113548739Y-78250587D01*
X114831259Y-78250587D01*
X114833894Y-78255328D01*
X115455438Y-78876872D01*
X115460000Y-78879505D01*
X115464561Y-78876872D01*
X116086104Y-78255328D01*
X116088739Y-78250587D01*
X116085650Y-78246124D01*
X116003372Y-78178600D01*
X115999385Y-78175936D01*
X115835128Y-78088139D01*
X115830689Y-78086300D01*
X115652453Y-78032232D01*
X115647760Y-78031299D01*
X115462396Y-78013043D01*
X115457604Y-78013043D01*
X115272239Y-78031299D01*
X115267546Y-78032232D01*
X115089310Y-78086300D01*
X115084871Y-78088139D01*
X114920615Y-78175936D01*
X114916629Y-78178598D01*
X114834347Y-78246125D01*
X114831259Y-78250587D01*
X113548739Y-78250587D01*
X113545650Y-78246124D01*
X113463372Y-78178600D01*
X113459385Y-78175936D01*
X113295128Y-78088139D01*
X113290689Y-78086300D01*
X113112453Y-78032232D01*
X113107760Y-78031299D01*
X112922396Y-78013043D01*
X112917604Y-78013043D01*
X112732239Y-78031299D01*
X112727546Y-78032232D01*
X112549310Y-78086300D01*
X112544871Y-78088139D01*
X112380615Y-78175936D01*
X112376629Y-78178598D01*
X112294347Y-78246125D01*
X112291259Y-78250587D01*
X100120500Y-78250587D01*
X100120500Y-77184411D01*
X112291259Y-77184411D01*
X112294348Y-77188874D01*
X112376627Y-77256399D01*
X112380614Y-77259063D01*
X112544871Y-77346860D01*
X112549310Y-77348699D01*
X112727546Y-77402767D01*
X112732239Y-77403700D01*
X112917604Y-77421957D01*
X112922396Y-77421957D01*
X113107760Y-77403700D01*
X113112453Y-77402767D01*
X113290689Y-77348699D01*
X113295128Y-77346860D01*
X113459386Y-77259062D01*
X113463369Y-77256401D01*
X113545653Y-77188871D01*
X113548739Y-77184412D01*
X113548738Y-77184411D01*
X114831259Y-77184411D01*
X114834348Y-77188874D01*
X114916627Y-77256399D01*
X114920614Y-77259063D01*
X115084871Y-77346860D01*
X115089310Y-77348699D01*
X115267546Y-77402767D01*
X115272239Y-77403700D01*
X115457604Y-77421957D01*
X115462396Y-77421957D01*
X115647760Y-77403700D01*
X115652453Y-77402767D01*
X115830689Y-77348699D01*
X115835128Y-77346860D01*
X115999386Y-77259062D01*
X116003369Y-77256401D01*
X116085653Y-77188871D01*
X116088739Y-77184412D01*
X116086104Y-77179670D01*
X115466892Y-76560458D01*
X115460000Y-76557603D01*
X115453107Y-76560458D01*
X114833894Y-77179670D01*
X114831259Y-77184411D01*
X113548738Y-77184411D01*
X113546104Y-77179670D01*
X112926892Y-76560458D01*
X112920000Y-76557603D01*
X112913107Y-76560458D01*
X112293894Y-77179670D01*
X112291259Y-77184411D01*
X100120500Y-77184411D01*
X100120500Y-76449896D01*
X111945543Y-76449896D01*
X111963799Y-76635260D01*
X111964732Y-76639953D01*
X112018800Y-76818189D01*
X112020639Y-76822628D01*
X112108436Y-76986885D01*
X112111100Y-76990872D01*
X112178624Y-77073150D01*
X112183087Y-77076239D01*
X112187828Y-77073604D01*
X112809372Y-76452061D01*
X112812005Y-76447500D01*
X112812004Y-76447499D01*
X113030103Y-76447499D01*
X113032958Y-76454392D01*
X113652170Y-77073604D01*
X113656912Y-77076239D01*
X113661371Y-77073153D01*
X113728901Y-76990869D01*
X113731562Y-76986886D01*
X113819360Y-76822628D01*
X113821199Y-76818189D01*
X113875267Y-76639953D01*
X113876200Y-76635260D01*
X113894457Y-76449896D01*
X114485543Y-76449896D01*
X114503799Y-76635260D01*
X114504732Y-76639953D01*
X114558800Y-76818189D01*
X114560639Y-76822628D01*
X114648436Y-76986885D01*
X114651100Y-76990872D01*
X114718624Y-77073150D01*
X114723087Y-77076239D01*
X114727828Y-77073604D01*
X115349372Y-76452061D01*
X115352005Y-76447500D01*
X115352004Y-76447499D01*
X115570103Y-76447499D01*
X115572958Y-76454392D01*
X116192170Y-77073604D01*
X116196912Y-77076239D01*
X116201371Y-77073153D01*
X116268901Y-76990869D01*
X116271562Y-76986886D01*
X116359360Y-76822628D01*
X116361199Y-76818189D01*
X116415267Y-76639953D01*
X116416200Y-76635260D01*
X116434457Y-76449896D01*
X116434457Y-76447500D01*
X117044901Y-76447500D01*
X117063253Y-76633831D01*
X117063948Y-76636124D01*
X117063950Y-76636131D01*
X117116903Y-76810691D01*
X117117604Y-76813001D01*
X117205864Y-76978125D01*
X117324643Y-77122857D01*
X117469375Y-77241636D01*
X117634499Y-77329896D01*
X117813669Y-77384247D01*
X118000000Y-77402599D01*
X118186331Y-77384247D01*
X118365501Y-77329896D01*
X118530625Y-77241636D01*
X118675357Y-77122857D01*
X118794136Y-76978125D01*
X118882396Y-76813001D01*
X118936747Y-76633831D01*
X118955099Y-76447500D01*
X119584901Y-76447500D01*
X119603253Y-76633831D01*
X119603948Y-76636124D01*
X119603950Y-76636131D01*
X119656903Y-76810691D01*
X119657604Y-76813001D01*
X119745864Y-76978125D01*
X119864643Y-77122857D01*
X120009375Y-77241636D01*
X120174499Y-77329896D01*
X120353669Y-77384247D01*
X120540000Y-77402599D01*
X120726331Y-77384247D01*
X120905501Y-77329896D01*
X121070625Y-77241636D01*
X121215357Y-77122857D01*
X121249905Y-77080760D01*
X122129500Y-77080760D01*
X122129756Y-77082517D01*
X122135633Y-77122857D01*
X122139427Y-77148893D01*
X122141097Y-77152309D01*
X122141098Y-77152312D01*
X122156791Y-77184412D01*
X122190802Y-77253983D01*
X122273517Y-77336698D01*
X122378607Y-77388073D01*
X122446740Y-77398000D01*
X123711484Y-77398000D01*
X123713260Y-77398000D01*
X123781393Y-77388073D01*
X123886483Y-77336698D01*
X123969198Y-77253983D01*
X124020573Y-77148893D01*
X124030500Y-77080760D01*
X124030500Y-75814240D01*
X124020573Y-75746107D01*
X123969198Y-75641017D01*
X123886483Y-75558302D01*
X123838228Y-75534712D01*
X123784812Y-75508598D01*
X123784809Y-75508597D01*
X123781393Y-75506927D01*
X123777628Y-75506378D01*
X123777627Y-75506378D01*
X123715017Y-75497256D01*
X123713260Y-75497000D01*
X122446740Y-75497000D01*
X122444983Y-75497255D01*
X122444982Y-75497256D01*
X122382372Y-75506378D01*
X122382369Y-75506378D01*
X122378607Y-75506927D01*
X122375192Y-75508596D01*
X122375187Y-75508598D01*
X122277166Y-75556518D01*
X122273517Y-75558302D01*
X122270646Y-75561172D01*
X122270643Y-75561175D01*
X122193675Y-75638143D01*
X122193672Y-75638146D01*
X122190802Y-75641017D01*
X122189018Y-75644665D01*
X122189018Y-75644666D01*
X122141098Y-75742687D01*
X122141096Y-75742692D01*
X122139427Y-75746107D01*
X122138878Y-75749869D01*
X122138878Y-75749872D01*
X122135362Y-75774005D01*
X122129500Y-75814240D01*
X122129500Y-77080760D01*
X121249905Y-77080760D01*
X121334136Y-76978125D01*
X121422396Y-76813001D01*
X121476747Y-76633831D01*
X121495099Y-76447500D01*
X121476747Y-76261169D01*
X121422396Y-76081999D01*
X121334136Y-75916875D01*
X121215357Y-75772143D01*
X121070625Y-75653364D01*
X121043003Y-75638600D01*
X120907630Y-75566242D01*
X120905501Y-75565104D01*
X120903193Y-75564403D01*
X120903191Y-75564403D01*
X120728631Y-75511450D01*
X120728624Y-75511448D01*
X120726331Y-75510753D01*
X120723941Y-75510517D01*
X120723938Y-75510517D01*
X120542396Y-75492637D01*
X120540000Y-75492401D01*
X120537604Y-75492637D01*
X120356061Y-75510517D01*
X120356056Y-75510517D01*
X120353669Y-75510753D01*
X120351377Y-75511448D01*
X120351368Y-75511450D01*
X120176808Y-75564403D01*
X120176802Y-75564405D01*
X120174499Y-75565104D01*
X120172373Y-75566240D01*
X120172369Y-75566242D01*
X120011499Y-75652228D01*
X120011493Y-75652231D01*
X120009375Y-75653364D01*
X120007518Y-75654887D01*
X120007512Y-75654892D01*
X119866505Y-75770614D01*
X119866500Y-75770618D01*
X119864643Y-75772143D01*
X119863118Y-75774000D01*
X119863114Y-75774005D01*
X119747392Y-75915012D01*
X119747387Y-75915018D01*
X119745864Y-75916875D01*
X119744731Y-75918993D01*
X119744728Y-75918999D01*
X119658742Y-76079869D01*
X119658740Y-76079873D01*
X119657604Y-76081999D01*
X119656905Y-76084302D01*
X119656903Y-76084308D01*
X119603950Y-76258868D01*
X119603948Y-76258877D01*
X119603253Y-76261169D01*
X119603017Y-76263556D01*
X119603017Y-76263561D01*
X119585754Y-76438832D01*
X119584901Y-76447500D01*
X118955099Y-76447500D01*
X118936747Y-76261169D01*
X118882396Y-76081999D01*
X118794136Y-75916875D01*
X118675357Y-75772143D01*
X118530625Y-75653364D01*
X118503003Y-75638600D01*
X118367630Y-75566242D01*
X118365501Y-75565104D01*
X118363193Y-75564403D01*
X118363191Y-75564403D01*
X118188631Y-75511450D01*
X118188624Y-75511448D01*
X118186331Y-75510753D01*
X118183941Y-75510517D01*
X118183938Y-75510517D01*
X118002396Y-75492637D01*
X118000000Y-75492401D01*
X117997604Y-75492637D01*
X117816061Y-75510517D01*
X117816056Y-75510517D01*
X117813669Y-75510753D01*
X117811377Y-75511448D01*
X117811368Y-75511450D01*
X117636808Y-75564403D01*
X117636802Y-75564405D01*
X117634499Y-75565104D01*
X117632373Y-75566240D01*
X117632369Y-75566242D01*
X117471499Y-75652228D01*
X117471493Y-75652231D01*
X117469375Y-75653364D01*
X117467518Y-75654887D01*
X117467512Y-75654892D01*
X117326505Y-75770614D01*
X117326500Y-75770618D01*
X117324643Y-75772143D01*
X117323118Y-75774000D01*
X117323114Y-75774005D01*
X117207392Y-75915012D01*
X117207387Y-75915018D01*
X117205864Y-75916875D01*
X117204731Y-75918993D01*
X117204728Y-75918999D01*
X117118742Y-76079869D01*
X117118740Y-76079873D01*
X117117604Y-76081999D01*
X117116905Y-76084302D01*
X117116903Y-76084308D01*
X117063950Y-76258868D01*
X117063948Y-76258877D01*
X117063253Y-76261169D01*
X117063017Y-76263556D01*
X117063017Y-76263561D01*
X117045754Y-76438832D01*
X117044901Y-76447500D01*
X116434457Y-76447500D01*
X116434457Y-76445104D01*
X116416200Y-76259739D01*
X116415267Y-76255046D01*
X116361199Y-76076810D01*
X116359360Y-76072371D01*
X116271563Y-75908114D01*
X116268899Y-75904127D01*
X116201374Y-75821848D01*
X116196911Y-75818759D01*
X116192170Y-75821394D01*
X115572958Y-76440607D01*
X115570103Y-76447499D01*
X115352004Y-76447499D01*
X115349372Y-76442938D01*
X114727828Y-75821394D01*
X114723087Y-75818759D01*
X114718625Y-75821847D01*
X114651098Y-75904129D01*
X114648436Y-75908115D01*
X114560639Y-76072371D01*
X114558800Y-76076810D01*
X114504732Y-76255046D01*
X114503799Y-76259739D01*
X114485543Y-76445104D01*
X114485543Y-76449896D01*
X113894457Y-76449896D01*
X113894457Y-76445104D01*
X113876200Y-76259739D01*
X113875267Y-76255046D01*
X113821199Y-76076810D01*
X113819360Y-76072371D01*
X113731563Y-75908114D01*
X113728899Y-75904127D01*
X113661374Y-75821848D01*
X113656911Y-75818759D01*
X113652170Y-75821394D01*
X113032958Y-76440607D01*
X113030103Y-76447499D01*
X112812004Y-76447499D01*
X112809372Y-76442938D01*
X112187828Y-75821394D01*
X112183087Y-75818759D01*
X112178625Y-75821847D01*
X112111098Y-75904129D01*
X112108436Y-75908115D01*
X112020639Y-76072371D01*
X112018800Y-76076810D01*
X111964732Y-76255046D01*
X111963799Y-76259739D01*
X111945543Y-76445104D01*
X111945543Y-76449896D01*
X100120500Y-76449896D01*
X100120500Y-75710587D01*
X112291259Y-75710587D01*
X112293894Y-75715328D01*
X112915438Y-76336872D01*
X112919999Y-76339505D01*
X112924561Y-76336872D01*
X113546104Y-75715328D01*
X113548739Y-75710587D01*
X114831259Y-75710587D01*
X114833894Y-75715328D01*
X115455438Y-76336872D01*
X115459999Y-76339505D01*
X115464561Y-76336872D01*
X116086104Y-75715328D01*
X116088739Y-75710587D01*
X116085650Y-75706124D01*
X116003372Y-75638600D01*
X115999385Y-75635936D01*
X115835128Y-75548139D01*
X115830689Y-75546300D01*
X115652453Y-75492232D01*
X115647760Y-75491299D01*
X115462396Y-75473043D01*
X115457604Y-75473043D01*
X115272239Y-75491299D01*
X115267546Y-75492232D01*
X115089310Y-75546300D01*
X115084871Y-75548139D01*
X114920615Y-75635936D01*
X114916629Y-75638598D01*
X114834347Y-75706125D01*
X114831259Y-75710587D01*
X113548739Y-75710587D01*
X113545650Y-75706124D01*
X113463372Y-75638600D01*
X113459385Y-75635936D01*
X113295128Y-75548139D01*
X113290689Y-75546300D01*
X113112453Y-75492232D01*
X113107760Y-75491299D01*
X112922396Y-75473043D01*
X112917604Y-75473043D01*
X112732239Y-75491299D01*
X112727546Y-75492232D01*
X112549310Y-75546300D01*
X112544871Y-75548139D01*
X112380615Y-75635936D01*
X112376629Y-75638598D01*
X112294347Y-75706125D01*
X112291259Y-75710587D01*
X100120500Y-75710587D01*
X100120500Y-65169500D01*
X100134852Y-65134852D01*
X100169500Y-65120500D01*
X159830500Y-65120500D01*
X159865148Y-65134852D01*
G37*
%TD.AperFunction*%
%TD*%
M02*
