%TF.GenerationSoftware,KiCad,Pcbnew,(7.0.0)*%
%TF.CreationDate,2023-09-15T12:30:04-04:00*%
%TF.ProjectId,headstage-neuropix2e,68656164-7374-4616-9765-2d6e6575726f,B (Beta)*%
%TF.SameCoordinates,Original*%
%TF.FileFunction,Paste,Top*%
%TF.FilePolarity,Positive*%
%FSLAX46Y46*%
G04 Gerber Fmt 4.6, Leading zero omitted, Abs format (unit mm)*
G04 Created by KiCad (PCBNEW (7.0.0)) date 2023-09-15 12:30:04*
%MOMM*%
%LPD*%
G01*
G04 APERTURE LIST*
G04 Aperture macros list*
%AMRoundRect*
0 Rectangle with rounded corners*
0 $1 Rounding radius*
0 $2 $3 $4 $5 $6 $7 $8 $9 X,Y pos of 4 corners*
0 Add a 4 corners polygon primitive as box body*
4,1,4,$2,$3,$4,$5,$6,$7,$8,$9,$2,$3,0*
0 Add four circle primitives for the rounded corners*
1,1,$1+$1,$2,$3*
1,1,$1+$1,$4,$5*
1,1,$1+$1,$6,$7*
1,1,$1+$1,$8,$9*
0 Add four rect primitives between the rounded corners*
20,1,$1+$1,$2,$3,$4,$5,0*
20,1,$1+$1,$4,$5,$6,$7,0*
20,1,$1+$1,$6,$7,$8,$9,0*
20,1,$1+$1,$8,$9,$2,$3,0*%
G04 Aperture macros list end*
%ADD10R,0.500000X0.650000*%
%ADD11R,0.600000X1.500000*%
%ADD12R,0.500000X0.550000*%
%ADD13RoundRect,0.079500X-0.100500X0.079500X-0.100500X-0.079500X0.100500X-0.079500X0.100500X0.079500X0*%
%ADD14RoundRect,0.079500X0.079500X0.100500X-0.079500X0.100500X-0.079500X-0.100500X0.079500X-0.100500X0*%
%ADD15RoundRect,0.079500X-0.079500X-0.100500X0.079500X-0.100500X0.079500X0.100500X-0.079500X0.100500X0*%
%ADD16RoundRect,0.009000X-0.081000X-0.233500X0.081000X-0.233500X0.081000X0.233500X-0.081000X0.233500X0*%
%ADD17RoundRect,0.011500X-0.103500X-0.256000X0.103500X-0.256000X0.103500X0.256000X-0.103500X0.256000X0*%
%ADD18R,0.254000X0.675000*%
%ADD19R,0.675000X0.254000*%
%ADD20RoundRect,0.140000X0.170000X-0.140000X0.170000X0.140000X-0.170000X0.140000X-0.170000X-0.140000X0*%
%ADD21RoundRect,0.079500X0.100500X-0.079500X0.100500X0.079500X-0.100500X0.079500X-0.100500X-0.079500X0*%
%ADD22RoundRect,0.017500X-0.157500X-0.257500X0.157500X-0.257500X0.157500X0.257500X-0.157500X0.257500X0*%
%ADD23RoundRect,0.012500X-0.187500X-0.112500X0.187500X-0.112500X0.187500X0.112500X-0.187500X0.112500X0*%
%ADD24RoundRect,0.015000X0.135000X0.385000X-0.135000X0.385000X-0.135000X-0.385000X0.135000X-0.385000X0*%
%ADD25RoundRect,0.020000X0.180000X0.455000X-0.180000X0.455000X-0.180000X-0.455000X0.180000X-0.455000X0*%
%ADD26RoundRect,0.140000X-0.170000X0.140000X-0.170000X-0.140000X0.170000X-0.140000X0.170000X0.140000X0*%
%ADD27RoundRect,0.140000X0.140000X0.170000X-0.140000X0.170000X-0.140000X-0.170000X0.140000X-0.170000X0*%
%ADD28C,0.225000*%
%ADD29RoundRect,0.050000X-0.200000X-0.250000X0.200000X-0.250000X0.200000X0.250000X-0.200000X0.250000X0*%
G04 APERTURE END LIST*
D10*
%TO.C,J1*%
X142524999Y-84474999D03*
D11*
X141524999Y-83499999D03*
D12*
X142524999Y-82474999D03*
D11*
X143524999Y-83499999D03*
%TD*%
D13*
%TO.C,R6*%
X141225000Y-86855000D03*
X141225000Y-87545000D03*
%TD*%
D14*
%TO.C,C13*%
X142720000Y-87550000D03*
X142030000Y-87550000D03*
%TD*%
D15*
%TO.C,R3*%
X145480000Y-85850000D03*
X146170000Y-85850000D03*
%TD*%
D16*
%TO.C,J6*%
X138735000Y-84340000D03*
X138735000Y-82520000D03*
X139085000Y-84340000D03*
X139085000Y-82520000D03*
X139435000Y-84340000D03*
X139435000Y-82520000D03*
D17*
X138360000Y-84195000D03*
X138360000Y-82665000D03*
X139810000Y-84195000D03*
X139810000Y-82665000D03*
%TD*%
D18*
%TO.C,U7*%
X138362499Y-88587499D03*
D19*
X138224999Y-89499999D03*
X138224999Y-89999999D03*
X138224999Y-90499999D03*
X138224999Y-90999999D03*
D18*
X138362499Y-91912499D03*
X138862499Y-91912499D03*
X139362499Y-91912499D03*
X139862499Y-91912499D03*
X140362499Y-91912499D03*
X140862499Y-91912499D03*
X141362499Y-91912499D03*
X141862499Y-91912499D03*
X142362499Y-91912499D03*
X142862499Y-91912499D03*
D19*
X142999999Y-90999999D03*
X142999999Y-90499999D03*
X142999999Y-89999999D03*
X142999999Y-89499999D03*
D18*
X142862499Y-88587499D03*
X142362499Y-88587499D03*
X141862499Y-88587499D03*
X141362499Y-88587499D03*
X140862499Y-88587499D03*
X140362499Y-88587499D03*
X139862499Y-88587499D03*
X139362499Y-88587499D03*
X138862499Y-88587499D03*
%TD*%
D20*
%TO.C,C15*%
X142125000Y-86730000D03*
X142125000Y-85770000D03*
%TD*%
D14*
%TO.C,R1*%
X138720000Y-85350000D03*
X138030000Y-85350000D03*
%TD*%
D13*
%TO.C,C17*%
X143685000Y-86865000D03*
X143685000Y-87555000D03*
%TD*%
D21*
%TO.C,C14*%
X142975000Y-86795000D03*
X142975000Y-86105000D03*
%TD*%
%TO.C,C22*%
X146875000Y-89595000D03*
X146875000Y-88905000D03*
%TD*%
D13*
%TO.C,C9*%
X144725000Y-91655000D03*
X144725000Y-92345000D03*
%TD*%
D15*
%TO.C,C7*%
X146200000Y-90300000D03*
X146890000Y-90300000D03*
%TD*%
D14*
%TO.C,C2*%
X140250000Y-85400000D03*
X139560000Y-85400000D03*
%TD*%
D22*
%TO.C,U1*%
X139725000Y-86550000D03*
X139725000Y-87250000D03*
D23*
X139075000Y-86400000D03*
X139075000Y-86900000D03*
X139075000Y-87400000D03*
X140375000Y-87400000D03*
X140375000Y-86900000D03*
X140375000Y-86400000D03*
%TD*%
D24*
%TO.C,J2*%
X138525000Y-95635000D03*
X138825000Y-93165000D03*
X139125000Y-95635000D03*
X139425000Y-93165000D03*
X139725000Y-95635000D03*
X140025000Y-93165000D03*
X140325000Y-95635000D03*
X140625000Y-93165000D03*
X140925000Y-95635000D03*
X141225000Y-93165000D03*
X141525000Y-95635000D03*
X141825000Y-93165000D03*
X142125000Y-95635000D03*
X142425000Y-93165000D03*
X142725000Y-95635000D03*
X143025000Y-93165000D03*
X143325000Y-95635000D03*
X143625000Y-93165000D03*
X143925000Y-95635000D03*
X144225000Y-93165000D03*
X144525000Y-95635000D03*
X144825000Y-93165000D03*
X145125000Y-95635000D03*
X145425000Y-93165000D03*
X145725000Y-95635000D03*
X146025000Y-93165000D03*
X146325000Y-95635000D03*
D25*
X137790000Y-95590000D03*
X147060000Y-95590000D03*
%TD*%
D13*
%TO.C,R10*%
X143985000Y-90045000D03*
X143985000Y-90735000D03*
%TD*%
D21*
%TO.C,L4*%
X146855000Y-88195000D03*
X146855000Y-87505000D03*
%TD*%
%TO.C,C19*%
X144475000Y-86045000D03*
X144475000Y-85355000D03*
%TD*%
D15*
%TO.C,C6*%
X146200000Y-91000000D03*
X146890000Y-91000000D03*
%TD*%
D13*
%TO.C,C16*%
X144385000Y-86865000D03*
X144385000Y-87555000D03*
%TD*%
D26*
%TO.C,C3*%
X138125000Y-86420000D03*
X138125000Y-87380000D03*
%TD*%
D21*
%TO.C,C1*%
X141225000Y-86145000D03*
X141225000Y-85455000D03*
%TD*%
D13*
%TO.C,C8*%
X144025000Y-91655000D03*
X144025000Y-92345000D03*
%TD*%
D27*
%TO.C,C18*%
X145735000Y-88470000D03*
X144775000Y-88470000D03*
%TD*%
D13*
%TO.C,R7*%
X143725000Y-85405000D03*
X143725000Y-86095000D03*
%TD*%
D28*
%TO.C,U4*%
X144815000Y-89610000D03*
X145315000Y-89610000D03*
X144815000Y-90110000D03*
X145315000Y-90110000D03*
X144815000Y-90610000D03*
X145315000Y-90610000D03*
%TD*%
D29*
%TO.C,D1*%
X145525000Y-86650000D03*
X146425000Y-86650000D03*
%TD*%
D14*
%TO.C,R4*%
X146120000Y-87500000D03*
X145430000Y-87500000D03*
%TD*%
D21*
%TO.C,R9*%
X143975000Y-89315000D03*
X143975000Y-88625000D03*
%TD*%
M02*
