%TF.GenerationSoftware,KiCad,Pcbnew,(7.0.0)*%
%TF.CreationDate,2023-03-09T15:34:52-05:00*%
%TF.ProjectId,headstage-neuropix2e,68656164-7374-4616-9765-2d6e6575726f,A*%
%TF.SameCoordinates,Original*%
%TF.FileFunction,Component,L1,Top*%
%TF.FilePolarity,Positive*%
%FSLAX46Y46*%
G04 Gerber Fmt 4.6, Leading zero omitted, Abs format (unit mm)*
G04 Created by KiCad (PCBNEW (7.0.0)) date 2023-03-09 15:34:52*
%MOMM*%
%LPD*%
G01*
G04 APERTURE LIST*
%TA.AperFunction,ComponentMain*%
%ADD10C,0.300000*%
%TD*%
%TA.AperFunction,ComponentOutline,Courtyard*%
%ADD11C,0.100000*%
%TD*%
%TA.AperFunction,ComponentPin*%
%ADD12P,0.360000X4X0.000000*%
%TD*%
%TA.AperFunction,ComponentPin*%
%ADD13C,0.000000*%
%TD*%
G04 APERTURE END LIST*
D10*
%TO.C,"J2"*%
%TO.CFtp,"KYOCERA_046844727002846+"*%
%TO.CVal,"2013496-9"*%
%TO.CLbN,"jonnew"*%
%TO.CMnt,SMD*%
%TO.CRot,0*%
X142425000Y-94400000D03*
D11*
X147624999Y-96125399D02*
X137225001Y-96125399D01*
X137225001Y-92700001D01*
X147624999Y-92700001D01*
X147624999Y-96125399D01*
D12*
%TO.P,"J2","1","Pin_1"*%
X138525000Y-95635000D03*
D13*
%TO.P,"J2","2","Pin_2"*%
X138825000Y-93165000D03*
%TO.P,"J2","3","Pin_3"*%
X139125000Y-95635000D03*
%TO.P,"J2","4","Pin_4"*%
X139425000Y-93165000D03*
%TO.P,"J2","5","Pin_5"*%
X139725000Y-95635000D03*
%TO.P,"J2","6","Pin_6"*%
X140025000Y-93165000D03*
%TO.P,"J2","7","Pin_7"*%
X140325000Y-95635000D03*
%TO.P,"J2","8","Pin_8"*%
X140625000Y-93165000D03*
%TO.P,"J2","9","Pin_9"*%
X140925000Y-95635000D03*
%TO.P,"J2","10","Pin_10"*%
X141225000Y-93165000D03*
%TO.P,"J2","11","Pin_11"*%
X141525000Y-95635000D03*
%TO.P,"J2","12","Pin_12"*%
X141825000Y-93165000D03*
%TO.P,"J2","13","Pin_13"*%
X142125000Y-95635000D03*
%TO.P,"J2","14","Pin_14"*%
X142425000Y-93165000D03*
%TO.P,"J2","15","Pin_15"*%
X142725000Y-95635000D03*
%TO.P,"J2","16","Pin_16"*%
X143025000Y-93165000D03*
%TO.P,"J2","17","Pin_17"*%
X143325000Y-95635000D03*
%TO.P,"J2","18","Pin_18"*%
X143625000Y-93165000D03*
%TO.P,"J2","19","Pin_19"*%
X143925000Y-95635000D03*
%TO.P,"J2","20","Pin_20"*%
X144225000Y-93165000D03*
%TO.P,"J2","21","Pin_21"*%
X144525000Y-95635000D03*
%TO.P,"J2","22","Pin_22"*%
X144825000Y-93165000D03*
%TO.P,"J2","23","Pin_23"*%
X145125000Y-95635000D03*
%TO.P,"J2","24","Pin_24"*%
X145425000Y-93165000D03*
%TO.P,"J2","25","Pin_25"*%
X145725000Y-95635000D03*
%TO.P,"J2","26","Pin_26"*%
X146025000Y-93165000D03*
%TO.P,"J2","27","Pin_27"*%
X146325000Y-95635000D03*
%TO.P,"J2","MP","MountPin"*%
X137790000Y-95590000D03*
X147060000Y-95590000D03*
%TD*%
D10*
%TO.C,"R6"*%
%TO.CFtp,"R_0201_0603Metric"*%
%TO.CVal,"10k"*%
%TO.CLbN,"Resistor_SMD"*%
%TO.CMnt,SMD*%
%TO.CRot,-90*%
X141225000Y-87200000D03*
D11*
X141574999Y-87899999D02*
X140875001Y-87899999D01*
X140875001Y-86500001D01*
X141574999Y-86500001D01*
X141574999Y-87899999D01*
D12*
%TO.P,"R6","1"*%
X141225000Y-86880000D03*
D13*
%TO.P,"R6","2"*%
X141225000Y-87520000D03*
%TD*%
D10*
%TO.C,"C13"*%
%TO.CFtp,"C_0201_0603Metric"*%
%TO.CVal,"10nF"*%
%TO.CLbN,"Capacitor_SMD"*%
%TO.CMnt,SMD*%
%TO.CRot,180*%
X142375000Y-87550000D03*
D11*
X143074999Y-87899999D02*
X141675001Y-87899999D01*
X141675001Y-87200001D01*
X143074999Y-87200001D01*
X143074999Y-87899999D01*
D12*
%TO.P,"C13","1"*%
X142695000Y-87550000D03*
D13*
%TO.P,"C13","2"*%
X142055000Y-87550000D03*
%TD*%
D10*
%TO.C,"R3"*%
%TO.CFtp,"R_0201_0603Metric"*%
%TO.CVal,"1k"*%
%TO.CLbN,"Resistor_SMD"*%
%TO.CMnt,SMD*%
%TO.CRot,0*%
X145825000Y-85850000D03*
D11*
X146524999Y-86199999D02*
X145125001Y-86199999D01*
X145125001Y-85500001D01*
X146524999Y-85500001D01*
X146524999Y-86199999D01*
D12*
%TO.P,"R3","1"*%
X145505000Y-85850000D03*
D13*
%TO.P,"R3","2"*%
X146145000Y-85850000D03*
%TD*%
D10*
%TO.C,"J6"*%
%TO.CFtp,"MOLEX_5050700622"*%
%TO.CVal,"050700622"*%
%TO.CLbN,"jonnew"*%
%TO.CMnt,SMD*%
%TO.CRot,0*%
X139085000Y-83430000D03*
D11*
X140934999Y-84629999D02*
X137235001Y-84629999D01*
X137235001Y-82230001D01*
X140934999Y-82230001D01*
X140934999Y-84629999D01*
D12*
%TO.P,"J6","1","Pin_1"*%
X138735000Y-84340000D03*
D13*
%TO.P,"J6","2","Pin_2"*%
X138735000Y-82520000D03*
%TO.P,"J6","3","Pin_3"*%
X139085000Y-84340000D03*
%TO.P,"J6","4","Pin_4"*%
X139085000Y-82520000D03*
%TO.P,"J6","5","Pin_5"*%
X139435000Y-84340000D03*
%TO.P,"J6","6","Pin_6"*%
X139435000Y-82520000D03*
%TO.P,"J6","MP1","MountPin1"*%
X138360000Y-84195000D03*
%TO.P,"J6","MP2","MountPin2"*%
X138360000Y-82665000D03*
%TO.P,"J6","MP3","MountPin3"*%
X139810000Y-84195000D03*
%TO.P,"J6","MP4","MountPin4"*%
X139810000Y-82665000D03*
%TD*%
D10*
%TO.C,"U7"*%
%TO.CFtp,"LGA-28_5.2x3.8mm_P0.5mm"*%
%TO.CVal,"BNO055"*%
%TO.CLbN,"Package_LGA"*%
%TO.CMnt,SMD*%
%TO.CRot,0*%
X140612500Y-90250000D03*
D11*
X143592499Y-92499999D02*
X137632501Y-92499999D01*
X137632501Y-88000001D01*
X143592499Y-88000001D01*
X143592499Y-92499999D01*
D12*
%TO.P,"U7","1","PIN1"*%
X138362500Y-88587500D03*
D13*
%TO.P,"U7","2","GND"*%
X138225000Y-89500000D03*
%TO.P,"U7","3","VDD"*%
X138225000Y-90000000D03*
%TO.P,"U7","4","~{BOOT_LOAD_PIN}"*%
X138225000Y-90500000D03*
%TO.P,"U7","5","PS1"*%
X138225000Y-91000000D03*
%TO.P,"U7","6","PS0"*%
X138362500Y-91912500D03*
%TO.P,"U7","7","PIN7"*%
X138862500Y-91912500D03*
%TO.P,"U7","8","PIN8"*%
X139362500Y-91912500D03*
%TO.P,"U7","9","CAP"*%
X139862500Y-91912500D03*
%TO.P,"U7","10","BL_IND"*%
X140362500Y-91912500D03*
%TO.P,"U7","11","~{RESET}"*%
X140862500Y-91912500D03*
%TO.P,"U7","12","PIN12"*%
X141362500Y-91912500D03*
%TO.P,"U7","13","PIN13"*%
X141862500Y-91912500D03*
%TO.P,"U7","14","INT"*%
X142362500Y-91912500D03*
%TO.P,"U7","15","GNDIO"*%
X142862500Y-91912500D03*
%TO.P,"U7","16","GNDIO"*%
X143000000Y-91000000D03*
%TO.P,"U7","17","COM3"*%
X143000000Y-90500000D03*
%TO.P,"U7","18","COM2"*%
X143000000Y-90000000D03*
%TO.P,"U7","19","COM1"*%
X143000000Y-89500000D03*
%TO.P,"U7","20","COM0"*%
X142862500Y-88587500D03*
%TO.P,"U7","21","PIN21"*%
X142362500Y-88587500D03*
%TO.P,"U7","22","PIN22"*%
X141862500Y-88587500D03*
%TO.P,"U7","23","PIN23"*%
X141362500Y-88587500D03*
%TO.P,"U7","24","PIN24"*%
X140862500Y-88587500D03*
%TO.P,"U7","25","GNDIO"*%
X140362500Y-88587500D03*
%TO.P,"U7","26","XOUT32"*%
X139862500Y-88587500D03*
%TO.P,"U7","27","XIN32"*%
X139362500Y-88587500D03*
%TO.P,"U7","28","VDDIO"*%
X138862500Y-88587500D03*
%TD*%
D10*
%TO.C,"J1"*%
%TO.CFtp,"HIROSE_X.FL-R-SMT-1"*%
%TO.CVal,"X.FL-R-SMT-1(02)"*%
%TO.CLbN,"jonnew"*%
%TO.CMnt,SMD*%
%TO.CRot,0*%
X142525000Y-83500000D03*
D11*
X144024999Y-84999999D02*
X141025001Y-84999999D01*
X141025001Y-82000001D01*
X144024999Y-82000001D01*
X144024999Y-84999999D01*
D12*
%TO.P,"J1","1","In"*%
X142525000Y-84475000D03*
D13*
%TO.P,"J1","2","Ext"*%
X141525000Y-83500000D03*
X142525000Y-82475000D03*
X143525000Y-83500000D03*
%TD*%
D10*
%TO.C,"C15"*%
%TO.CFtp,"C_0402_1005Metric"*%
%TO.CVal,"10uF"*%
%TO.CLbN,"Capacitor_SMD"*%
%TO.CMnt,SMD*%
%TO.CRot,90*%
X142125000Y-86250000D03*
D11*
X142584999Y-87159999D02*
X141665001Y-87159999D01*
X141665001Y-85340001D01*
X142584999Y-85340001D01*
X142584999Y-87159999D01*
D12*
%TO.P,"C15","1"*%
X142125000Y-86730000D03*
D13*
%TO.P,"C15","2"*%
X142125000Y-85770000D03*
%TD*%
D10*
%TO.C,"R1"*%
%TO.CFtp,"R_0201_0603Metric"*%
%TO.CVal,"2k"*%
%TO.CLbN,"Resistor_SMD"*%
%TO.CMnt,SMD*%
%TO.CRot,180*%
X138375000Y-85350000D03*
D11*
X139074999Y-85699999D02*
X137675001Y-85699999D01*
X137675001Y-85000001D01*
X139074999Y-85000001D01*
X139074999Y-85699999D01*
D12*
%TO.P,"R1","1"*%
X138695000Y-85350000D03*
D13*
%TO.P,"R1","2"*%
X138055000Y-85350000D03*
%TD*%
D10*
%TO.C,"C17"*%
%TO.CFtp,"C_0201_0603Metric"*%
%TO.CVal,"0.1uF"*%
%TO.CLbN,"Capacitor_SMD"*%
%TO.CMnt,SMD*%
%TO.CRot,-90*%
X143685000Y-87210000D03*
D11*
X144034999Y-87909999D02*
X143335001Y-87909999D01*
X143335001Y-86510001D01*
X144034999Y-86510001D01*
X144034999Y-87909999D01*
D12*
%TO.P,"C17","1"*%
X143685000Y-86890000D03*
D13*
%TO.P,"C17","2"*%
X143685000Y-87530000D03*
%TD*%
D10*
%TO.C,"C14"*%
%TO.CFtp,"C_0201_0603Metric"*%
%TO.CVal,"0.1uF"*%
%TO.CLbN,"Capacitor_SMD"*%
%TO.CMnt,SMD*%
%TO.CRot,90*%
X142975000Y-86450000D03*
D11*
X143324999Y-87149999D02*
X142625001Y-87149999D01*
X142625001Y-85750001D01*
X143324999Y-85750001D01*
X143324999Y-87149999D01*
D12*
%TO.P,"C14","1"*%
X142975000Y-86770000D03*
D13*
%TO.P,"C14","2"*%
X142975000Y-86130000D03*
%TD*%
D10*
%TO.C,"C22"*%
%TO.CFtp,"C_0201_0603Metric"*%
%TO.CVal,"0.1uF"*%
%TO.CLbN,"Capacitor_SMD"*%
%TO.CMnt,SMD*%
%TO.CRot,90*%
X146875000Y-89250000D03*
D11*
X147224999Y-89949999D02*
X146525001Y-89949999D01*
X146525001Y-88550001D01*
X147224999Y-88550001D01*
X147224999Y-89949999D01*
D12*
%TO.P,"C22","1"*%
X146875000Y-89570000D03*
D13*
%TO.P,"C22","2"*%
X146875000Y-88930000D03*
%TD*%
D10*
%TO.C,"C9"*%
%TO.CFtp,"C_0201_0603Metric"*%
%TO.CVal,"0.1uF"*%
%TO.CLbN,"Capacitor_SMD"*%
%TO.CMnt,SMD*%
%TO.CRot,-90*%
X144725000Y-92000000D03*
D11*
X145074999Y-92699999D02*
X144375001Y-92699999D01*
X144375001Y-91300001D01*
X145074999Y-91300001D01*
X145074999Y-92699999D01*
D12*
%TO.P,"C9","1"*%
X144725000Y-91680000D03*
D13*
%TO.P,"C9","2"*%
X144725000Y-92320000D03*
%TD*%
D10*
%TO.C,"C7"*%
%TO.CFtp,"C_0201_0603Metric"*%
%TO.CVal,"0.1uF"*%
%TO.CLbN,"Capacitor_SMD"*%
%TO.CMnt,SMD*%
%TO.CRot,0*%
X146545000Y-90300000D03*
D11*
X147244999Y-90649999D02*
X145845001Y-90649999D01*
X145845001Y-89950001D01*
X147244999Y-89950001D01*
X147244999Y-90649999D01*
D12*
%TO.P,"C7","1"*%
X146225000Y-90300000D03*
D13*
%TO.P,"C7","2"*%
X146865000Y-90300000D03*
%TD*%
D10*
%TO.C,"C2"*%
%TO.CFtp,"C_0201_0603Metric"*%
%TO.CVal,"1uF"*%
%TO.CLbN,"Capacitor_SMD"*%
%TO.CMnt,SMD*%
%TO.CRot,180*%
X139905000Y-85400000D03*
D11*
X140604999Y-85749999D02*
X139205001Y-85749999D01*
X139205001Y-85050001D01*
X140604999Y-85050001D01*
X140604999Y-85749999D01*
D12*
%TO.P,"C2","1"*%
X140225000Y-85400000D03*
D13*
%TO.P,"C2","2"*%
X139585000Y-85400000D03*
%TD*%
D10*
%TO.C,"U1"*%
%TO.CFtp,"MICROCHIP_TDFN-6-1EP_1.6x1.6mm_P0.5mm_EP0.5x1.4mm"*%
%TO.CVal,"MIC5335-JGYMT"*%
%TO.CLbN,"jonnew"*%
%TO.CMnt,SMD*%
%TO.CRot,0*%
X139725000Y-86900000D03*
D11*
X140724999Y-87899999D02*
X138725001Y-87899999D01*
X138725001Y-85900001D01*
X140724999Y-85900001D01*
X140724999Y-87899999D01*
D12*
%TO.P,"U1","1","VIN"*%
X139075000Y-86400000D03*
D13*
%TO.P,"U1","2","GND"*%
X139075000Y-86900000D03*
%TO.P,"U1","3","EN2"*%
X139075000Y-87400000D03*
%TO.P,"U1","4","EN1"*%
X140375000Y-87400000D03*
%TO.P,"U1","5","VOUT2"*%
X140375000Y-86900000D03*
%TO.P,"U1","6","VOUT1"*%
X140375000Y-86400000D03*
%TO.P,"U1","7","GND"*%
X139725000Y-86900000D03*
%TD*%
D10*
%TO.C,"R10"*%
%TO.CFtp,"R_0201_0603Metric"*%
%TO.CVal,"1k"*%
%TO.CLbN,"Resistor_SMD"*%
%TO.CMnt,SMD*%
%TO.CRot,90*%
X143985000Y-90390000D03*
D11*
X144334999Y-91089999D02*
X143635001Y-91089999D01*
X143635001Y-89690001D01*
X144334999Y-89690001D01*
X144334999Y-91089999D01*
D12*
%TO.P,"R10","1"*%
X143985000Y-90710000D03*
D13*
%TO.P,"R10","2"*%
X143985000Y-90070000D03*
%TD*%
D10*
%TO.C,"L4"*%
%TO.CFtp,"L_0201_0603Metric"*%
%TO.CVal,"BLF03RD501GZED"*%
%TO.CLbN,"Inductor_SMD"*%
%TO.CMnt,SMD*%
%TO.CRot,90*%
X146855000Y-87850000D03*
D11*
X147204999Y-88549999D02*
X146505001Y-88549999D01*
X146505001Y-87150001D01*
X147204999Y-87150001D01*
X147204999Y-88549999D01*
D12*
%TO.P,"L4","1","1"*%
X146855000Y-88170000D03*
D13*
%TO.P,"L4","2","2"*%
X146855000Y-87530000D03*
%TD*%
D10*
%TO.C,"C19"*%
%TO.CFtp,"C_0201_0603Metric"*%
%TO.CVal,"0.1uF"*%
%TO.CLbN,"Capacitor_SMD"*%
%TO.CMnt,SMD*%
%TO.CRot,90*%
X144475000Y-85700000D03*
D11*
X144824999Y-86399999D02*
X144125001Y-86399999D01*
X144125001Y-85000001D01*
X144824999Y-85000001D01*
X144824999Y-86399999D01*
D12*
%TO.P,"C19","1"*%
X144475000Y-86020000D03*
D13*
%TO.P,"C19","2"*%
X144475000Y-85380000D03*
%TD*%
D10*
%TO.C,"C6"*%
%TO.CFtp,"C_0201_0603Metric"*%
%TO.CVal,"10nF"*%
%TO.CLbN,"Capacitor_SMD"*%
%TO.CMnt,SMD*%
%TO.CRot,0*%
X146545000Y-91000000D03*
D11*
X147244999Y-91349999D02*
X145845001Y-91349999D01*
X145845001Y-90650001D01*
X147244999Y-90650001D01*
X147244999Y-91349999D01*
D12*
%TO.P,"C6","1"*%
X146225000Y-91000000D03*
D13*
%TO.P,"C6","2"*%
X146865000Y-91000000D03*
%TD*%
D10*
%TO.C,"C16"*%
%TO.CFtp,"C_0201_0603Metric"*%
%TO.CVal,"10nF"*%
%TO.CLbN,"Capacitor_SMD"*%
%TO.CMnt,SMD*%
%TO.CRot,-90*%
X144385000Y-87210000D03*
D11*
X144734999Y-87909999D02*
X144035001Y-87909999D01*
X144035001Y-86510001D01*
X144734999Y-86510001D01*
X144734999Y-87909999D01*
D12*
%TO.P,"C16","1"*%
X144385000Y-86890000D03*
D13*
%TO.P,"C16","2"*%
X144385000Y-87530000D03*
%TD*%
D10*
%TO.C,"C3"*%
%TO.CFtp,"C_0402_1005Metric"*%
%TO.CVal,"10uF"*%
%TO.CLbN,"Capacitor_SMD"*%
%TO.CMnt,SMD*%
%TO.CRot,-90*%
X138125000Y-86900000D03*
D11*
X138584999Y-87809999D02*
X137665001Y-87809999D01*
X137665001Y-85990001D01*
X138584999Y-85990001D01*
X138584999Y-87809999D01*
D12*
%TO.P,"C3","1"*%
X138125000Y-86420000D03*
D13*
%TO.P,"C3","2"*%
X138125000Y-87380000D03*
%TD*%
D10*
%TO.C,"C1"*%
%TO.CFtp,"C_0201_0603Metric"*%
%TO.CVal,"1uF"*%
%TO.CLbN,"Capacitor_SMD"*%
%TO.CMnt,SMD*%
%TO.CRot,90*%
X141225000Y-85800000D03*
D11*
X141574999Y-86499999D02*
X140875001Y-86499999D01*
X140875001Y-85100001D01*
X141574999Y-85100001D01*
X141574999Y-86499999D01*
D12*
%TO.P,"C1","1"*%
X141225000Y-86120000D03*
D13*
%TO.P,"C1","2"*%
X141225000Y-85480000D03*
%TD*%
D10*
%TO.C,"C8"*%
%TO.CFtp,"C_0201_0603Metric"*%
%TO.CVal,"10nF"*%
%TO.CLbN,"Capacitor_SMD"*%
%TO.CMnt,SMD*%
%TO.CRot,-90*%
X144025000Y-92000000D03*
D11*
X144374999Y-92699999D02*
X143675001Y-92699999D01*
X143675001Y-91300001D01*
X144374999Y-91300001D01*
X144374999Y-92699999D01*
D12*
%TO.P,"C8","1"*%
X144025000Y-91680000D03*
D13*
%TO.P,"C8","2"*%
X144025000Y-92320000D03*
%TD*%
D10*
%TO.C,"C18"*%
%TO.CFtp,"C_0402_1005Metric"*%
%TO.CVal,"10uF"*%
%TO.CLbN,"Capacitor_SMD"*%
%TO.CMnt,SMD*%
%TO.CRot,180*%
X145255000Y-88470000D03*
D11*
X146164999Y-88929999D02*
X144345001Y-88929999D01*
X144345001Y-88010001D01*
X146164999Y-88010001D01*
X146164999Y-88929999D01*
D12*
%TO.P,"C18","1"*%
X145735000Y-88470000D03*
D13*
%TO.P,"C18","2"*%
X144775000Y-88470000D03*
%TD*%
D10*
%TO.C,"R7"*%
%TO.CFtp,"R_0201_0603Metric"*%
%TO.CVal,"49.9"*%
%TO.CLbN,"Resistor_SMD"*%
%TO.CMnt,SMD*%
%TO.CRot,-90*%
X143725000Y-85750000D03*
D11*
X144074999Y-86449999D02*
X143375001Y-86449999D01*
X143375001Y-85050001D01*
X144074999Y-85050001D01*
X144074999Y-86449999D01*
D12*
%TO.P,"R7","1"*%
X143725000Y-85430000D03*
D13*
%TO.P,"R7","2"*%
X143725000Y-86070000D03*
%TD*%
D10*
%TO.C,"J4"*%
%TO.CFtp,"IDC-Header_2x05_P2.54mm_Vertical"*%
%TO.CVal,"SBH11-PBPC-D05-ST-BK"*%
%TO.CLbN,"Connector_IDC"*%
%TO.CMnt,TH*%
%TO.CRot,-90*%
X123080000Y-76447500D03*
D11*
X128679999Y-82667499D02*
X107320001Y-82667499D01*
X107320001Y-72767501D01*
X128679999Y-72767501D01*
X128679999Y-82667499D01*
D12*
%TO.P,"J4","1","Pin_1"*%
X123080000Y-76447500D03*
D13*
%TO.P,"J4","2","Pin_2"*%
X123080000Y-78987500D03*
%TO.P,"J4","3","Pin_3"*%
X120540000Y-76447500D03*
%TO.P,"J4","4","Pin_4"*%
X120540000Y-78987500D03*
%TO.P,"J4","5","Pin_5"*%
X118000000Y-76447500D03*
%TO.P,"J4","6","Pin_6"*%
X118000000Y-78987500D03*
%TO.P,"J4","7","Pin_7"*%
X115460000Y-76447500D03*
%TO.P,"J4","8","Pin_8"*%
X115460000Y-78987500D03*
%TO.P,"J4","9","Pin_9"*%
X112920000Y-76447500D03*
%TO.P,"J4","10","Pin_10"*%
X112920000Y-78987500D03*
%TD*%
D10*
%TO.C,"U4"*%
%TO.CFtp,"TI_YZP0006"*%
%TO.CVal,"TS5A3159AYZPR "*%
%TO.CLbN,"jonnew"*%
%TO.CMnt,SMD*%
%TO.CRot,0*%
X145065000Y-90110000D03*
D11*
X145764999Y-91059999D02*
X144365001Y-91059999D01*
X144365001Y-89160001D01*
X145764999Y-89160001D01*
X145764999Y-91059999D01*
D12*
%TO.P,"U4","A1","NO"*%
X144815000Y-89610000D03*
D13*
%TO.P,"U4","A2","IN"*%
X145315000Y-89610000D03*
%TO.P,"U4","B1","GND"*%
X144815000Y-90110000D03*
%TO.P,"U4","B2","V+"*%
X145315000Y-90110000D03*
%TO.P,"U4","C1","NC"*%
X144815000Y-90610000D03*
%TO.P,"U4","C2","COM"*%
X145315000Y-90610000D03*
%TD*%
D10*
%TO.C,"D1"*%
%TO.CFtp,"ROHM_SML-P11MTT86R"*%
%TO.CVal,"SML-P11UTT86R"*%
%TO.CLbN,"jonnew"*%
%TO.CMnt,SMD*%
%TO.CRot,0*%
X145975000Y-86650000D03*
D11*
X146774999Y-87049999D02*
X145175001Y-87049999D01*
X145175001Y-86250001D01*
X146774999Y-86250001D01*
X146774999Y-87049999D01*
D12*
%TO.P,"D1","1","K"*%
X145525000Y-86650000D03*
D13*
%TO.P,"D1","2","A"*%
X146425000Y-86650000D03*
%TD*%
D10*
%TO.C,"R4"*%
%TO.CFtp,"R_0201_0603Metric"*%
%TO.CVal,"10k"*%
%TO.CLbN,"Resistor_SMD"*%
%TO.CMnt,SMD*%
%TO.CRot,180*%
X145775000Y-87500000D03*
D11*
X146474999Y-87849999D02*
X145075001Y-87849999D01*
X145075001Y-87150001D01*
X146474999Y-87150001D01*
X146474999Y-87849999D01*
D12*
%TO.P,"R4","1"*%
X146095000Y-87500000D03*
D13*
%TO.P,"R4","2"*%
X145455000Y-87500000D03*
%TD*%
D10*
%TO.C,"R9"*%
%TO.CFtp,"R_0201_0603Metric"*%
%TO.CVal,"1k"*%
%TO.CLbN,"Resistor_SMD"*%
%TO.CMnt,SMD*%
%TO.CRot,90*%
X143975000Y-88970000D03*
D11*
X144324999Y-89669999D02*
X143625001Y-89669999D01*
X143625001Y-88270001D01*
X144324999Y-88270001D01*
X144324999Y-89669999D01*
D12*
%TO.P,"R9","1"*%
X143975000Y-89290000D03*
D13*
%TO.P,"R9","2"*%
X143975000Y-88650000D03*
%TD*%
M02*
