%TF.GenerationSoftware,KiCad,Pcbnew,(7.0.0)*%
%TF.CreationDate,2023-09-15T12:30:04-04:00*%
%TF.ProjectId,headstage-neuropix2e,68656164-7374-4616-9765-2d6e6575726f,B (Beta)*%
%TF.SameCoordinates,Original*%
%TF.FileFunction,Copper,L3,Inr*%
%TF.FilePolarity,Positive*%
%FSLAX46Y46*%
G04 Gerber Fmt 4.6, Leading zero omitted, Abs format (unit mm)*
G04 Created by KiCad (PCBNEW (7.0.0)) date 2023-09-15 12:30:04*
%MOMM*%
%LPD*%
G01*
G04 APERTURE LIST*
G04 Aperture macros list*
%AMRoundRect*
0 Rectangle with rounded corners*
0 $1 Rounding radius*
0 $2 $3 $4 $5 $6 $7 $8 $9 X,Y pos of 4 corners*
0 Add a 4 corners polygon primitive as box body*
4,1,4,$2,$3,$4,$5,$6,$7,$8,$9,$2,$3,0*
0 Add four circle primitives for the rounded corners*
1,1,$1+$1,$2,$3*
1,1,$1+$1,$4,$5*
1,1,$1+$1,$6,$7*
1,1,$1+$1,$8,$9*
0 Add four rect primitives between the rounded corners*
20,1,$1+$1,$2,$3,$4,$5,0*
20,1,$1+$1,$4,$5,$6,$7,0*
20,1,$1+$1,$6,$7,$8,$9,0*
20,1,$1+$1,$8,$9,$2,$3,0*%
G04 Aperture macros list end*
%TA.AperFunction,ComponentPad*%
%ADD10O,1.400000X2.600000*%
%TD*%
%TA.AperFunction,ComponentPad*%
%ADD11RoundRect,0.250000X-0.600000X0.600000X-0.600000X-0.600000X0.600000X-0.600000X0.600000X0.600000X0*%
%TD*%
%TA.AperFunction,ComponentPad*%
%ADD12C,1.700000*%
%TD*%
%TA.AperFunction,ViaPad*%
%ADD13C,0.250000*%
%TD*%
%TA.AperFunction,ViaPad*%
%ADD14C,0.300000*%
%TD*%
%TA.AperFunction,Conductor*%
%ADD15C,0.200000*%
%TD*%
%TA.AperFunction,Conductor*%
%ADD16C,0.100000*%
%TD*%
G04 APERTURE END LIST*
D10*
%TO.N,/Neuropixels 2.0/NP_{TP0}*%
%TO.C,TP2*%
X146634999Y-83419999D03*
%TD*%
%TO.N,GND*%
%TO.C,TP1*%
X144954999Y-83419999D03*
%TD*%
D11*
%TO.N,+4V*%
%TO.C,J4*%
X123080000Y-76447500D03*
D12*
X123080000Y-78987500D03*
%TO.N,/Neuropixels 2.0/SCL*%
X120540000Y-76447500D03*
X120540000Y-78987500D03*
%TO.N,/Neuropixels 2.0/SDA*%
X118000000Y-76447500D03*
X118000000Y-78987500D03*
%TO.N,GND*%
X115460000Y-76447500D03*
X115460000Y-78987500D03*
X112920000Y-76447500D03*
X112920000Y-78987500D03*
%TD*%
D13*
%TO.N,GND*%
X146329500Y-85430109D03*
X137890500Y-88930000D03*
X142125000Y-95650000D03*
X142725000Y-94725500D03*
D14*
X156300000Y-121900000D03*
D13*
X142040000Y-94725500D03*
X139816562Y-87440904D03*
X139800000Y-88025498D03*
X145475000Y-87550000D03*
X143970000Y-94720000D03*
X139445000Y-90900000D03*
D14*
X139900000Y-106500000D03*
D13*
X143960000Y-88180000D03*
X142525000Y-82475000D03*
X137915500Y-87943311D03*
X139470000Y-89250000D03*
D14*
X135640000Y-73600000D03*
D13*
X144458000Y-90722000D03*
X143050000Y-84559500D03*
X137790000Y-95590000D03*
X147060000Y-95590000D03*
X143636000Y-83830000D03*
X141530000Y-93780000D03*
X140033000Y-83672000D03*
X145953000Y-93861000D03*
X144880000Y-94720000D03*
X138859000Y-83670000D03*
X145765000Y-84891000D03*
X143152225Y-85674051D03*
X144755000Y-88270000D03*
X147064500Y-85492000D03*
X138360000Y-91900000D03*
X139025000Y-90250000D03*
X141610000Y-88040000D03*
X144465000Y-89370000D03*
X144525000Y-95650000D03*
X143025000Y-90500000D03*
X143925000Y-95650000D03*
X139620000Y-94750000D03*
X139150000Y-86900000D03*
X140925000Y-95650000D03*
X140111601Y-92511601D03*
X142019000Y-82599300D03*
X143845000Y-93830000D03*
X140310000Y-93780000D03*
X137880000Y-89500000D03*
X137810700Y-83680000D03*
X139925000Y-90200000D03*
X144755000Y-88610000D03*
X140325000Y-95650000D03*
X138525000Y-94750000D03*
D14*
X126680000Y-71747500D03*
X156700000Y-69100000D03*
X155800000Y-87500000D03*
D13*
X141313000Y-84798000D03*
X143725000Y-87600000D03*
X144565000Y-93780000D03*
X144815000Y-90110000D03*
X142775000Y-85400000D03*
X141395000Y-84090000D03*
X140450500Y-87830000D03*
X147070000Y-94510000D03*
X139395000Y-83656000D03*
X143285000Y-88250000D03*
X144385000Y-87530000D03*
X147067500Y-86488000D03*
D14*
X107600000Y-104500000D03*
D13*
X140869000Y-90928000D03*
D14*
X103100000Y-122100000D03*
D13*
X142264000Y-93877000D03*
X139463000Y-89867000D03*
X143000000Y-91244500D03*
X140880000Y-94720000D03*
X143385000Y-88770000D03*
X144909000Y-84978000D03*
X139020000Y-94380000D03*
D14*
X105450000Y-70470000D03*
D13*
X142725000Y-95650000D03*
X137955000Y-94170000D03*
X142355000Y-91170000D03*
D14*
X145200000Y-72300000D03*
D13*
X137975000Y-87440000D03*
D14*
X154200000Y-101500000D03*
D13*
X141625000Y-87249500D03*
D14*
X103900000Y-84800000D03*
X130200000Y-99700000D03*
D13*
X142238584Y-85504971D03*
X141925000Y-85020000D03*
X137764181Y-91279454D03*
X137947000Y-93305000D03*
X139859264Y-86450000D03*
%TO.N,+1V8*%
X139435000Y-84730000D03*
X139025000Y-89250000D03*
X146390891Y-86253101D03*
X138636680Y-88080474D03*
X144248000Y-91774000D03*
X143157963Y-86612963D03*
X140775000Y-86900000D03*
X146425000Y-86940000D03*
X145957485Y-89396611D03*
X139017000Y-90668000D03*
%TO.N,/Neuropixels 2.0/PCLK*%
X141580000Y-90270000D03*
X142425000Y-93150000D03*
%TO.N,/Neuropixels 2.0/SDA_{A}*%
X138980000Y-92530000D03*
X141070000Y-89460000D03*
%TO.N,+4V*%
X138640419Y-85475200D03*
X138124999Y-85890001D03*
D14*
X120200000Y-94945000D03*
D13*
X138355000Y-84600000D03*
D14*
%TO.N,/Neuropixels 2.0/SCL*%
X118000000Y-97340000D03*
D13*
X140165000Y-90820000D03*
X145087061Y-86139374D03*
X138735000Y-84740000D03*
X139642609Y-93772609D03*
X140890500Y-89857389D03*
X141846000Y-89545500D03*
%TO.N,/Neuropixels 2.0/D7*%
X144039000Y-91196000D03*
X140025000Y-93150000D03*
%TO.N,Net-(L1-Pad2)*%
X137921788Y-84655700D03*
%TO.N,/Neuropixels 2.0/D6*%
X144657623Y-91183377D03*
X140625000Y-93150000D03*
%TO.N,/Neuropixels 2.0/D5*%
X141225000Y-93150000D03*
X145581000Y-91166314D03*
%TO.N,/Neuropixels 2.0/D4*%
X141825000Y-93150000D03*
X145855500Y-90672278D03*
%TO.N,/Neuropixels 2.0/D3*%
X143025000Y-93150000D03*
X145945500Y-89880356D03*
%TO.N,/Neuropixels 2.0/D2*%
X146316587Y-89669500D03*
X143625000Y-93150000D03*
%TO.N,/Neuropixels 2.0/D1*%
X146450500Y-89020000D03*
X144225000Y-93150000D03*
%TO.N,/Neuropixels 2.0/D0*%
X146558524Y-88558259D03*
X144834000Y-93406000D03*
%TO.N,/DC Tap & Regulation/RF+DC*%
X142525000Y-84475000D03*
%TO.N,/Neuropixels 2.0/NP_{TP0}*%
X138875000Y-94980000D03*
X146460000Y-95000000D03*
%TO.N,/Neuropixels 2.0/SDA_{B}*%
X146544000Y-93341000D03*
%TO.N,/Neuropixels 2.0/SDA*%
X142220000Y-90550000D03*
X143175250Y-87580000D03*
X142169964Y-88035277D03*
X145162623Y-91188377D03*
X139085000Y-84730000D03*
D14*
X123200000Y-92000000D03*
D13*
X145033000Y-85713000D03*
D14*
X125255000Y-96035000D03*
D13*
%TO.N,Net-(#FLG04-pwr)*%
X144809500Y-87580498D03*
%TO.N,/Neuropixels 2.0/NP_{Select}*%
X145801000Y-89004500D03*
X146074000Y-87516000D03*
%TO.N,+2V5*%
X140375000Y-86400000D03*
X140893349Y-84655502D03*
X140610000Y-82204300D03*
X138215000Y-89990000D03*
%TO.N,Net-(U3-DOUTP)*%
X144610474Y-86416271D03*
%TO.N,Net-(U7-CAP)*%
X139440000Y-92527000D03*
%TO.N,Net-(U3-GPIO3{slash}CLKIN)*%
X145893368Y-86146332D03*
X145799500Y-87935500D03*
%TO.N,Net-(U3-MODE)*%
X141477000Y-87650000D03*
%TO.N,+1.8VA*%
X141525000Y-95650000D03*
X138573327Y-91366735D03*
X143325000Y-95650000D03*
%TO.N,/Neuropixels 2.0/NP_{TP1}*%
X145417601Y-93890601D03*
%TO.N,/Serializer/Dout-*%
X144025000Y-85380000D03*
%TO.N,/Neuropixels 2.0/NP_{~{RST}}*%
X145725000Y-95650000D03*
X139125000Y-95650000D03*
X145675000Y-95046446D03*
%TO.N,/Neuropixels 2.0/NP_{~{MUXRST}}*%
X139725000Y-95650000D03*
X145125000Y-95650000D03*
%TD*%
D15*
%TO.N,+1V8*%
X138636680Y-88115742D02*
X139320938Y-88800000D01*
X139435000Y-84730000D02*
X139435000Y-84855000D01*
X140775000Y-88790000D02*
X140775000Y-86900000D01*
X141415500Y-89613500D02*
X141415500Y-89345880D01*
X141672500Y-89870500D02*
X141415500Y-89613500D01*
X140775000Y-86195000D02*
X140775000Y-86900000D01*
X141415500Y-89345880D02*
X140859620Y-88790000D01*
X140765000Y-88800000D02*
X140775000Y-88790000D01*
X146125500Y-88519500D02*
X146425000Y-88220000D01*
X140859620Y-88790000D02*
X140775000Y-88790000D01*
X138636680Y-88080474D02*
X138636680Y-88115742D01*
X145957485Y-89396611D02*
X146125500Y-89228596D01*
X139320938Y-88800000D02*
X139025000Y-89095938D01*
X139320938Y-88800000D02*
X140765000Y-88800000D01*
D16*
X138715000Y-90366000D02*
X138715000Y-89560000D01*
D15*
X139435000Y-84855000D02*
X140775000Y-86195000D01*
X146425000Y-88220000D02*
X146425000Y-86940000D01*
X146125500Y-89228596D02*
X146125500Y-88519500D01*
D16*
X139017000Y-90668000D02*
X138715000Y-90366000D01*
D15*
X144898009Y-89396611D02*
X144424120Y-89870500D01*
X139025000Y-89095938D02*
X139025000Y-89250000D01*
X145957485Y-89396611D02*
X144898009Y-89396611D01*
X144424120Y-89870500D02*
X141672500Y-89870500D01*
D16*
X138715000Y-89560000D02*
X139025000Y-89250000D01*
%TO.N,/Neuropixels 2.0/PCLK*%
X139920500Y-93445500D02*
X142129500Y-93445500D01*
X139733691Y-92501309D02*
X139733691Y-93258691D01*
X141580000Y-90270000D02*
X141580000Y-90655000D01*
X141580000Y-90655000D02*
X139733691Y-92501309D01*
X139733691Y-93258691D02*
X139920500Y-93445500D01*
X142129500Y-93445500D02*
X142425000Y-93150000D01*
%TO.N,/Neuropixels 2.0/SDA_{A}*%
X141165500Y-90197000D02*
X141165500Y-89555500D01*
X138980000Y-92513000D02*
X140471500Y-91021500D01*
X141165500Y-89555500D02*
X141070000Y-89460000D01*
X138980000Y-92530000D02*
X138980000Y-92513000D01*
X140471500Y-90891000D02*
X141165500Y-90197000D01*
X140471500Y-91021500D02*
X140471500Y-90891000D01*
%TO.N,/Neuropixels 2.0/SCL*%
X139950000Y-84120000D02*
X142780000Y-86950000D01*
X142230000Y-88495000D02*
X142785000Y-87940000D01*
X143248000Y-87905000D02*
X142820000Y-87905000D01*
X137814179Y-84937000D02*
X138538000Y-84937000D01*
X143902000Y-86783000D02*
X143450250Y-87234750D01*
X145087061Y-86139374D02*
X145087061Y-86436939D01*
X143450250Y-87234750D02*
X143450250Y-87702750D01*
D15*
X132850000Y-84850000D02*
X126402500Y-84850000D01*
D16*
X140165000Y-90820000D02*
X140165000Y-90582889D01*
X138538000Y-84937000D02*
X138735000Y-84740000D01*
X137425000Y-84275000D02*
X137564000Y-84414000D01*
X140165000Y-90820000D02*
X140165000Y-90845000D01*
X138630000Y-92380000D02*
X138630000Y-93335000D01*
X141846000Y-89545500D02*
X142230000Y-89161500D01*
X135408105Y-84750000D02*
X136605013Y-84750000D01*
X137564000Y-84686821D02*
X137814179Y-84937000D01*
X140165000Y-90845000D02*
X138630000Y-92380000D01*
X140165000Y-90582889D02*
X140890500Y-89857389D01*
D15*
X120860000Y-96840000D02*
X132850000Y-84850000D01*
D16*
X137080013Y-84275000D02*
X137425000Y-84275000D01*
D15*
X118000000Y-97340000D02*
X118700000Y-97340000D01*
D16*
X142230000Y-89161500D02*
X142230000Y-88495000D01*
D15*
X119200000Y-96840000D02*
X120860000Y-96840000D01*
D16*
X133625000Y-84800000D02*
X133936557Y-84488443D01*
X142780000Y-86950000D02*
X142780000Y-87935000D01*
X138735000Y-84740000D02*
X138735000Y-84545000D01*
X139160000Y-84120000D02*
X139950000Y-84120000D01*
X139067609Y-93772609D02*
X139642609Y-93772609D01*
X136605013Y-84750000D02*
X137080013Y-84275000D01*
X144741000Y-86783000D02*
X143902000Y-86783000D01*
X143450250Y-87702750D02*
X143248000Y-87905000D01*
D15*
X126402500Y-84850000D02*
X120540000Y-78987500D01*
D16*
X145087061Y-86436939D02*
X144741000Y-86783000D01*
D15*
X120540000Y-76447500D02*
X120540000Y-78987500D01*
D16*
X142780000Y-87935000D02*
X142785000Y-87940000D01*
X133936557Y-84488443D02*
X135146548Y-84488443D01*
D15*
X118700000Y-97340000D02*
X119200000Y-96840000D01*
D16*
X137564000Y-84414000D02*
X137564000Y-84686821D01*
D15*
X132900000Y-84800000D02*
X132850000Y-84850000D01*
D16*
X138735000Y-84545000D02*
X139160000Y-84120000D01*
X138630000Y-93335000D02*
X139067609Y-93772609D01*
X135146548Y-84488443D02*
X135408105Y-84750000D01*
X142820000Y-87905000D02*
X142785000Y-87940000D01*
D15*
X132900000Y-84800000D02*
X133625000Y-84800000D01*
D16*
%TO.N,/Neuropixels 2.0/D7*%
X141015000Y-91860000D02*
X141015000Y-92140000D01*
X140025000Y-93130000D02*
X140025000Y-93150000D01*
X141015000Y-92140000D02*
X140025000Y-93130000D01*
X143689435Y-90846435D02*
X142028565Y-90846435D01*
X142028565Y-90846435D02*
X141015000Y-91860000D01*
X144039000Y-91196000D02*
X143689435Y-90846435D01*
%TO.N,/Neuropixels 2.0/D6*%
X144449714Y-91183377D02*
X144114091Y-91519000D01*
X142256000Y-91519000D02*
X140625000Y-93150000D01*
X144657623Y-91183377D02*
X144449714Y-91183377D01*
X144114091Y-91519000D02*
X142256000Y-91519000D01*
%TO.N,/Neuropixels 2.0/D5*%
X145581000Y-91166314D02*
X145581000Y-91921000D01*
X145418000Y-92084000D02*
X142291000Y-92084000D01*
X142291000Y-92084000D02*
X141225000Y-93150000D01*
X145581000Y-91921000D02*
X145418000Y-92084000D01*
%TO.N,/Neuropixels 2.0/D4*%
X141825000Y-93150000D02*
X142582000Y-92393000D01*
X145855500Y-92019500D02*
X145855500Y-90672278D01*
X142582000Y-92393000D02*
X145482000Y-92393000D01*
X145482000Y-92393000D02*
X145855500Y-92019500D01*
%TO.N,/Neuropixels 2.0/D3*%
X146130000Y-90064856D02*
X146130000Y-92121000D01*
X145945500Y-89880356D02*
X146130000Y-90064856D01*
X145626000Y-92625000D02*
X143550000Y-92625000D01*
X146130000Y-92121000D02*
X145626000Y-92625000D01*
X143550000Y-92625000D02*
X143025000Y-93150000D01*
%TO.N,/Neuropixels 2.0/D2*%
X143908000Y-92867000D02*
X143625000Y-93150000D01*
X146316587Y-89669500D02*
X146385000Y-89737913D01*
X145734000Y-92867000D02*
X143908000Y-92867000D01*
X146385000Y-89737913D02*
X146385000Y-92216000D01*
X146385000Y-92216000D02*
X145734000Y-92867000D01*
%TO.N,/Neuropixels 2.0/D1*%
X146450500Y-89020000D02*
X146625000Y-89194500D01*
X145912000Y-93131000D02*
X144244000Y-93131000D01*
X144244000Y-93131000D02*
X144225000Y-93150000D01*
X146625000Y-89194500D02*
X146625000Y-92418000D01*
X146625000Y-92418000D02*
X145912000Y-93131000D01*
%TO.N,/Neuropixels 2.0/D0*%
X146875000Y-88874735D02*
X146558524Y-88558259D01*
X146875000Y-92564000D02*
X146875000Y-88874735D01*
X144834000Y-93406000D02*
X146033000Y-93406000D01*
X146033000Y-93406000D02*
X146875000Y-92564000D01*
%TO.N,/Neuropixels 2.0/NP_{TP0}*%
X139455000Y-94400000D02*
X145799500Y-94400000D01*
X146793000Y-88378000D02*
X147105000Y-88690000D01*
X138875000Y-94980000D02*
X139455000Y-94400000D01*
X146648000Y-83433000D02*
X146648000Y-85843000D01*
X146793000Y-85988000D02*
X146793000Y-88378000D01*
X146460000Y-95000000D02*
X146399500Y-95000000D01*
X147105000Y-93374500D02*
X145939500Y-94540000D01*
X145799500Y-94400000D02*
X145939500Y-94540000D01*
X147105000Y-88690000D02*
X147105000Y-93374500D01*
X146399500Y-95000000D02*
X145939500Y-94540000D01*
X146635000Y-83420000D02*
X146648000Y-83433000D01*
X146648000Y-85843000D02*
X146793000Y-85988000D01*
%TO.N,/Neuropixels 2.0/SDA*%
X142169964Y-88035277D02*
X142169964Y-86693964D01*
D15*
X123200000Y-92000000D02*
X118200000Y-87000000D01*
X118000000Y-76447500D02*
X118000000Y-78987500D01*
D16*
X133425000Y-85400000D02*
X133325000Y-85500000D01*
X134950000Y-85400000D02*
X133425000Y-85400000D01*
X144459000Y-85713000D02*
X143175250Y-86996750D01*
X142400000Y-90500000D02*
X142700000Y-90200000D01*
X142200000Y-90500000D02*
X142400000Y-90500000D01*
X145162623Y-91019623D02*
X144553000Y-90410000D01*
X143175250Y-86996750D02*
X143175250Y-87580000D01*
D15*
X118200000Y-87000000D02*
X118200000Y-79187500D01*
D16*
X139085000Y-84950000D02*
X138843000Y-85192000D01*
X139085000Y-84730000D02*
X139085000Y-84950000D01*
X137441092Y-85400000D02*
X137135013Y-85400000D01*
X143385000Y-90200000D02*
X143595000Y-90410000D01*
X143595000Y-90410000D02*
X144553000Y-90410000D01*
X139085000Y-84615000D02*
X139085000Y-84730000D01*
X137649092Y-85192000D02*
X137441092Y-85400000D01*
X137135013Y-85400000D02*
X136685013Y-84950000D01*
X136685013Y-84950000D02*
X135400000Y-84950000D01*
X139280000Y-84420000D02*
X139085000Y-84615000D01*
X135400000Y-84950000D02*
X134950000Y-85400000D01*
D15*
X125255000Y-96035000D02*
X125255000Y-93570000D01*
D16*
X145162623Y-91188377D02*
X145162623Y-91019623D01*
X142700000Y-90200000D02*
X143385000Y-90200000D01*
D15*
X125255000Y-93570000D02*
X133325000Y-85500000D01*
D16*
X142169964Y-86693964D02*
X139896000Y-84420000D01*
X139896000Y-84420000D02*
X139280000Y-84420000D01*
X145033000Y-85713000D02*
X144459000Y-85713000D01*
D15*
X118200000Y-79187500D02*
X118000000Y-78987500D01*
D16*
X138843000Y-85192000D02*
X137649092Y-85192000D01*
%TO.N,/Neuropixels 2.0/NP_{Select}*%
X146074000Y-88049909D02*
X146074000Y-87516000D01*
X145913409Y-88210500D02*
X146074000Y-88049909D01*
X145906500Y-88210500D02*
X145913409Y-88210500D01*
X145801000Y-88316000D02*
X145906500Y-88210500D01*
X145801000Y-89004500D02*
X145801000Y-88316000D01*
D15*
%TO.N,+2V5*%
X140720000Y-84482153D02*
X140720000Y-82314300D01*
X140720000Y-82314300D02*
X140610000Y-82204300D01*
X140893349Y-84655502D02*
X140720000Y-84482153D01*
X138295290Y-87689710D02*
X138315000Y-87670000D01*
X138805000Y-85890000D02*
X139865000Y-85890000D01*
X138315000Y-86380000D02*
X138805000Y-85890000D01*
X138315000Y-87670000D02*
X138315000Y-86380000D01*
X138295290Y-88604710D02*
X138295290Y-87689710D01*
X138215000Y-88685000D02*
X138295290Y-88604710D01*
X139865000Y-85890000D02*
X140375000Y-86400000D01*
X138215000Y-89990000D02*
X138215000Y-88685000D01*
D16*
%TO.N,Net-(U3-GPIO3{slash}CLKIN)*%
X145893368Y-86146332D02*
X145799500Y-86240200D01*
X145799500Y-86240200D02*
X145799500Y-87935500D01*
%TO.N,/Neuropixels 2.0/NP_{~{RST}}*%
X145671446Y-95050000D02*
X139725000Y-95050000D01*
X145675000Y-95046446D02*
X145671446Y-95050000D01*
X139725000Y-95050000D02*
X139125000Y-95650000D01*
%TD*%
%TA.AperFunction,Conductor*%
%TO.N,GND*%
G36*
X147394652Y-84440574D02*
G01*
X147404500Y-84470039D01*
X147404500Y-89887082D01*
X147404497Y-89887108D01*
X147404493Y-89887108D01*
X147404493Y-89887133D01*
X147404493Y-89887134D01*
X147404493Y-89982996D01*
X147404493Y-89983007D01*
X147404494Y-89985139D01*
X147404831Y-89987051D01*
X147405000Y-89990925D01*
X147405000Y-92603353D01*
X147404832Y-92607186D01*
X147404499Y-92609076D01*
X147404499Y-92671725D01*
X147404500Y-92671725D01*
X147404500Y-92671727D01*
X147404500Y-96030500D01*
X147390148Y-96065148D01*
X147355500Y-96079500D01*
X144182288Y-96079500D01*
X144150000Y-96079500D01*
X144051969Y-96079500D01*
X144050079Y-96079833D01*
X144046251Y-96080000D01*
X141433749Y-96080000D01*
X141429920Y-96079833D01*
X141428031Y-96079500D01*
X141425890Y-96079500D01*
X137494500Y-96079500D01*
X137459852Y-96065148D01*
X137445500Y-96030500D01*
X137445500Y-95650000D01*
X138895082Y-95650000D01*
X138896023Y-95654731D01*
X138911641Y-95733253D01*
X138911642Y-95733255D01*
X138912583Y-95737986D01*
X138962423Y-95812577D01*
X139037014Y-95862417D01*
X139125000Y-95879918D01*
X139212986Y-95862417D01*
X139287577Y-95812577D01*
X139337417Y-95737986D01*
X139354918Y-95650000D01*
X139354860Y-95649713D01*
X139357704Y-95635410D01*
X139368325Y-95619512D01*
X139419907Y-95567930D01*
X139447363Y-95554110D01*
X139477651Y-95559366D01*
X139498848Y-95581629D01*
X139502612Y-95612138D01*
X139496023Y-95645268D01*
X139495082Y-95650000D01*
X139496023Y-95654731D01*
X139511641Y-95733253D01*
X139511642Y-95733255D01*
X139512583Y-95737986D01*
X139562423Y-95812577D01*
X139637014Y-95862417D01*
X139725000Y-95879918D01*
X139812986Y-95862417D01*
X139887577Y-95812577D01*
X139937417Y-95737986D01*
X139954918Y-95650000D01*
X141295082Y-95650000D01*
X141296023Y-95654731D01*
X141311641Y-95733253D01*
X141311642Y-95733255D01*
X141312583Y-95737986D01*
X141362423Y-95812577D01*
X141437014Y-95862417D01*
X141525000Y-95879918D01*
X141612986Y-95862417D01*
X141687577Y-95812577D01*
X141737417Y-95737986D01*
X141754918Y-95650000D01*
X143095082Y-95650000D01*
X143096023Y-95654731D01*
X143111641Y-95733253D01*
X143111642Y-95733255D01*
X143112583Y-95737986D01*
X143162423Y-95812577D01*
X143237014Y-95862417D01*
X143325000Y-95879918D01*
X143412986Y-95862417D01*
X143487577Y-95812577D01*
X143537417Y-95737986D01*
X143554918Y-95650000D01*
X144895082Y-95650000D01*
X144896023Y-95654731D01*
X144911641Y-95733253D01*
X144911642Y-95733255D01*
X144912583Y-95737986D01*
X144962423Y-95812577D01*
X145037014Y-95862417D01*
X145125000Y-95879918D01*
X145212986Y-95862417D01*
X145287577Y-95812577D01*
X145337417Y-95737986D01*
X145354918Y-95650000D01*
X145495082Y-95650000D01*
X145496023Y-95654731D01*
X145511641Y-95733253D01*
X145511642Y-95733255D01*
X145512583Y-95737986D01*
X145562423Y-95812577D01*
X145637014Y-95862417D01*
X145725000Y-95879918D01*
X145812986Y-95862417D01*
X145887577Y-95812577D01*
X145937417Y-95737986D01*
X145954918Y-95650000D01*
X145937417Y-95562014D01*
X145887577Y-95487423D01*
X145812986Y-95437583D01*
X145808255Y-95436642D01*
X145808253Y-95436641D01*
X145729731Y-95421023D01*
X145725000Y-95420082D01*
X145720269Y-95421023D01*
X145641746Y-95436641D01*
X145641742Y-95436642D01*
X145637014Y-95437583D01*
X145633002Y-95440263D01*
X145633001Y-95440264D01*
X145566434Y-95484742D01*
X145566431Y-95484744D01*
X145562423Y-95487423D01*
X145559744Y-95491431D01*
X145559742Y-95491434D01*
X145517864Y-95554110D01*
X145512583Y-95562014D01*
X145511642Y-95566742D01*
X145511641Y-95566746D01*
X145502613Y-95612138D01*
X145495082Y-95650000D01*
X145354918Y-95650000D01*
X145337417Y-95562014D01*
X145287577Y-95487423D01*
X145212986Y-95437583D01*
X145208255Y-95436642D01*
X145208253Y-95436641D01*
X145129731Y-95421023D01*
X145125000Y-95420082D01*
X145120269Y-95421023D01*
X145041746Y-95436641D01*
X145041742Y-95436642D01*
X145037014Y-95437583D01*
X145033002Y-95440263D01*
X145033001Y-95440264D01*
X144966434Y-95484742D01*
X144966431Y-95484744D01*
X144962423Y-95487423D01*
X144959744Y-95491431D01*
X144959742Y-95491434D01*
X144917864Y-95554110D01*
X144912583Y-95562014D01*
X144911642Y-95566742D01*
X144911641Y-95566746D01*
X144902613Y-95612138D01*
X144895082Y-95650000D01*
X143554918Y-95650000D01*
X143537417Y-95562014D01*
X143487577Y-95487423D01*
X143412986Y-95437583D01*
X143408255Y-95436642D01*
X143408253Y-95436641D01*
X143329731Y-95421023D01*
X143325000Y-95420082D01*
X143320269Y-95421023D01*
X143241746Y-95436641D01*
X143241742Y-95436642D01*
X143237014Y-95437583D01*
X143233002Y-95440263D01*
X143233001Y-95440264D01*
X143166434Y-95484742D01*
X143166431Y-95484744D01*
X143162423Y-95487423D01*
X143159744Y-95491431D01*
X143159742Y-95491434D01*
X143117864Y-95554110D01*
X143112583Y-95562014D01*
X143111642Y-95566742D01*
X143111641Y-95566746D01*
X143102613Y-95612138D01*
X143095082Y-95650000D01*
X141754918Y-95650000D01*
X141737417Y-95562014D01*
X141687577Y-95487423D01*
X141612986Y-95437583D01*
X141608255Y-95436642D01*
X141608253Y-95436641D01*
X141529731Y-95421023D01*
X141525000Y-95420082D01*
X141520269Y-95421023D01*
X141441746Y-95436641D01*
X141441742Y-95436642D01*
X141437014Y-95437583D01*
X141433002Y-95440263D01*
X141433001Y-95440264D01*
X141366434Y-95484742D01*
X141366431Y-95484744D01*
X141362423Y-95487423D01*
X141359744Y-95491431D01*
X141359742Y-95491434D01*
X141317864Y-95554110D01*
X141312583Y-95562014D01*
X141311642Y-95566742D01*
X141311641Y-95566746D01*
X141302613Y-95612138D01*
X141295082Y-95650000D01*
X139954918Y-95650000D01*
X139937417Y-95562014D01*
X139887577Y-95487423D01*
X139812986Y-95437583D01*
X139808255Y-95436642D01*
X139808253Y-95436641D01*
X139729731Y-95421023D01*
X139725000Y-95420082D01*
X139720269Y-95421023D01*
X139720268Y-95421023D01*
X139687139Y-95427612D01*
X139656630Y-95423848D01*
X139634367Y-95402651D01*
X139629111Y-95372363D01*
X139642932Y-95344906D01*
X139772986Y-95214852D01*
X139807635Y-95200500D01*
X145484935Y-95200500D01*
X145510924Y-95211265D01*
X145512423Y-95209023D01*
X145587014Y-95258863D01*
X145675000Y-95276364D01*
X145762986Y-95258863D01*
X145837577Y-95209023D01*
X145887417Y-95134432D01*
X145904918Y-95046446D01*
X145887417Y-94958460D01*
X145837577Y-94883869D01*
X145833560Y-94881185D01*
X145800281Y-94858949D01*
X145762986Y-94834029D01*
X145758255Y-94833088D01*
X145758253Y-94833087D01*
X145679731Y-94817469D01*
X145675000Y-94816528D01*
X145670269Y-94817469D01*
X145591746Y-94833087D01*
X145591742Y-94833088D01*
X145587014Y-94834029D01*
X145583002Y-94836709D01*
X145583001Y-94836710D01*
X145516438Y-94881185D01*
X145516434Y-94881188D01*
X145512423Y-94883869D01*
X145510836Y-94886243D01*
X145496581Y-94895769D01*
X145477828Y-94899500D01*
X139765327Y-94899500D01*
X139684673Y-94899500D01*
X139679088Y-94902723D01*
X139679085Y-94902725D01*
X139672492Y-94906532D01*
X139660679Y-94911425D01*
X139647096Y-94915065D01*
X139642538Y-94919622D01*
X139642536Y-94919624D01*
X139155489Y-95406671D01*
X139124856Y-95419359D01*
X139125000Y-95420082D01*
X139121369Y-95420804D01*
X139121367Y-95420804D01*
X139120269Y-95421023D01*
X139041746Y-95436641D01*
X139041742Y-95436642D01*
X139037014Y-95437583D01*
X139033002Y-95440263D01*
X139033001Y-95440264D01*
X138966434Y-95484742D01*
X138966431Y-95484744D01*
X138962423Y-95487423D01*
X138959744Y-95491431D01*
X138959742Y-95491434D01*
X138917864Y-95554110D01*
X138912583Y-95562014D01*
X138911642Y-95566742D01*
X138911641Y-95566746D01*
X138902613Y-95612138D01*
X138895082Y-95650000D01*
X137445500Y-95650000D01*
X137445500Y-91366735D01*
X138343409Y-91366735D01*
X138344350Y-91371466D01*
X138359968Y-91449988D01*
X138359969Y-91449990D01*
X138360910Y-91454721D01*
X138410750Y-91529312D01*
X138485341Y-91579152D01*
X138573327Y-91596653D01*
X138661313Y-91579152D01*
X138735904Y-91529312D01*
X138785744Y-91454721D01*
X138803245Y-91366735D01*
X138785744Y-91278749D01*
X138735904Y-91204158D01*
X138730775Y-91200731D01*
X138665325Y-91156999D01*
X138665326Y-91156999D01*
X138661313Y-91154318D01*
X138656582Y-91153377D01*
X138656580Y-91153376D01*
X138578058Y-91137758D01*
X138573327Y-91136817D01*
X138568596Y-91137758D01*
X138490073Y-91153376D01*
X138490069Y-91153377D01*
X138485341Y-91154318D01*
X138481329Y-91156998D01*
X138481328Y-91156999D01*
X138414761Y-91201477D01*
X138414758Y-91201479D01*
X138410750Y-91204158D01*
X138408071Y-91208166D01*
X138408069Y-91208169D01*
X138368889Y-91266807D01*
X138360910Y-91278749D01*
X138359969Y-91283477D01*
X138359968Y-91283481D01*
X138351532Y-91325895D01*
X138343409Y-91366735D01*
X137445500Y-91366735D01*
X137445500Y-86204110D01*
X137445500Y-86201969D01*
X137445166Y-86200079D01*
X137445000Y-86196251D01*
X137445000Y-85596129D01*
X137455125Y-85566300D01*
X137478770Y-85550500D01*
X137481419Y-85550500D01*
X137493597Y-85543467D01*
X137505413Y-85538573D01*
X137518996Y-85534935D01*
X137576027Y-85477905D01*
X137576027Y-85477903D01*
X137697080Y-85356850D01*
X137731727Y-85342500D01*
X138377189Y-85342500D01*
X138404412Y-85350758D01*
X138422459Y-85372748D01*
X138425248Y-85401059D01*
X138410501Y-85475200D01*
X138411442Y-85479931D01*
X138427060Y-85558453D01*
X138427061Y-85558455D01*
X138428002Y-85563186D01*
X138448162Y-85593358D01*
X138473213Y-85630850D01*
X138477842Y-85637777D01*
X138552433Y-85687617D01*
X138593995Y-85695884D01*
X138605483Y-85698169D01*
X138634798Y-85716399D01*
X138644819Y-85749433D01*
X138630572Y-85780876D01*
X138427787Y-85983662D01*
X138400329Y-85997484D01*
X138370041Y-85992228D01*
X138348844Y-85969964D01*
X138345081Y-85939455D01*
X138353976Y-85894737D01*
X138353976Y-85894732D01*
X138354917Y-85890001D01*
X138353589Y-85883327D01*
X138338357Y-85806747D01*
X138337416Y-85802015D01*
X138287576Y-85727424D01*
X138273069Y-85717731D01*
X138240373Y-85695884D01*
X138212985Y-85677584D01*
X138208254Y-85676643D01*
X138208252Y-85676642D01*
X138129730Y-85661024D01*
X138124999Y-85660083D01*
X138120268Y-85661024D01*
X138041745Y-85676642D01*
X138041741Y-85676643D01*
X138037013Y-85677584D01*
X138033001Y-85680264D01*
X138033000Y-85680265D01*
X137966433Y-85724743D01*
X137966430Y-85724745D01*
X137962422Y-85727424D01*
X137959743Y-85731432D01*
X137959741Y-85731435D01*
X137916432Y-85796253D01*
X137912582Y-85802015D01*
X137911641Y-85806743D01*
X137911640Y-85806747D01*
X137896022Y-85885270D01*
X137895081Y-85890001D01*
X137896022Y-85894732D01*
X137911640Y-85973254D01*
X137911641Y-85973256D01*
X137912582Y-85977987D01*
X137926580Y-85998936D01*
X137954474Y-86040684D01*
X137962422Y-86052578D01*
X138037013Y-86102418D01*
X138124999Y-86119919D01*
X138129730Y-86118978D01*
X138129735Y-86118978D01*
X138174453Y-86110083D01*
X138204962Y-86113846D01*
X138227226Y-86135043D01*
X138232482Y-86165331D01*
X138218660Y-86192789D01*
X138203199Y-86208250D01*
X138196033Y-86213336D01*
X138196064Y-86213375D01*
X138191745Y-86216818D01*
X138186776Y-86219212D01*
X138183338Y-86223522D01*
X138183334Y-86223526D01*
X138166973Y-86244041D01*
X138163319Y-86248131D01*
X138159197Y-86252253D01*
X138159194Y-86252256D01*
X138157252Y-86254199D01*
X138155787Y-86256529D01*
X138155786Y-86256531D01*
X138152685Y-86261465D01*
X138149512Y-86265936D01*
X138136164Y-86282675D01*
X138129710Y-86290769D01*
X138128481Y-86296151D01*
X138126086Y-86301125D01*
X138126041Y-86301103D01*
X138125597Y-86302174D01*
X138125644Y-86302191D01*
X138123820Y-86307402D01*
X138120884Y-86312076D01*
X138120266Y-86317556D01*
X138120265Y-86317561D01*
X138117328Y-86343631D01*
X138116409Y-86349038D01*
X138115112Y-86354721D01*
X138115110Y-86354734D01*
X138114500Y-86357410D01*
X138114500Y-86360161D01*
X138114500Y-86365993D01*
X138114191Y-86371478D01*
X138110638Y-86403026D01*
X138112461Y-86408238D01*
X138113080Y-86413723D01*
X138113028Y-86413728D01*
X138114500Y-86422388D01*
X138114500Y-87582781D01*
X138110644Y-87599670D01*
X138110000Y-87600479D01*
X138108771Y-87605859D01*
X138106376Y-87610834D01*
X138106331Y-87610812D01*
X138105887Y-87611884D01*
X138105934Y-87611901D01*
X138104110Y-87617112D01*
X138101174Y-87621786D01*
X138100556Y-87627266D01*
X138100555Y-87627271D01*
X138097618Y-87653341D01*
X138096699Y-87658748D01*
X138095402Y-87664431D01*
X138095400Y-87664444D01*
X138094790Y-87667120D01*
X138094790Y-87669871D01*
X138094790Y-87675703D01*
X138094482Y-87681188D01*
X138093198Y-87692590D01*
X138090928Y-87712736D01*
X138092751Y-87717948D01*
X138093370Y-87723433D01*
X138093318Y-87723438D01*
X138094790Y-87732098D01*
X138094790Y-88497017D01*
X138084098Y-88527569D01*
X138077911Y-88535328D01*
X138066973Y-88549042D01*
X138063319Y-88553131D01*
X138059197Y-88557253D01*
X138059194Y-88557256D01*
X138057252Y-88559199D01*
X138055787Y-88561529D01*
X138055786Y-88561531D01*
X138052685Y-88566465D01*
X138049512Y-88570936D01*
X138036568Y-88587169D01*
X138029710Y-88595769D01*
X138028481Y-88601151D01*
X138026086Y-88606125D01*
X138026041Y-88606103D01*
X138025597Y-88607174D01*
X138025644Y-88607191D01*
X138023820Y-88612402D01*
X138020884Y-88617076D01*
X138020266Y-88622556D01*
X138020265Y-88622561D01*
X138017328Y-88648631D01*
X138016409Y-88654038D01*
X138015112Y-88659721D01*
X138015110Y-88659734D01*
X138014500Y-88662410D01*
X138014500Y-88665161D01*
X138014500Y-88670993D01*
X138014192Y-88676478D01*
X138011739Y-88698256D01*
X138010638Y-88708026D01*
X138012461Y-88713238D01*
X138013080Y-88718723D01*
X138013028Y-88718728D01*
X138014500Y-88727388D01*
X138014500Y-89869315D01*
X138006242Y-89896537D01*
X138002583Y-89902014D01*
X138001642Y-89906742D01*
X138001641Y-89906746D01*
X137997032Y-89929920D01*
X137985082Y-89990000D01*
X137986023Y-89994731D01*
X138001641Y-90073253D01*
X138001642Y-90073255D01*
X138002583Y-90077986D01*
X138023434Y-90109192D01*
X138048845Y-90147223D01*
X138052423Y-90152577D01*
X138127014Y-90202417D01*
X138215000Y-90219918D01*
X138302986Y-90202417D01*
X138377577Y-90152577D01*
X138427417Y-90077986D01*
X138444918Y-89990000D01*
X138427417Y-89902014D01*
X138423757Y-89896537D01*
X138415500Y-89869315D01*
X138415500Y-88792693D01*
X138426189Y-88762143D01*
X138443319Y-88740661D01*
X138446957Y-88736592D01*
X138453038Y-88730512D01*
X138457603Y-88723246D01*
X138460787Y-88718758D01*
X138460815Y-88718723D01*
X138480580Y-88693941D01*
X138481808Y-88688557D01*
X138484205Y-88683582D01*
X138484251Y-88683604D01*
X138484692Y-88682539D01*
X138484644Y-88682522D01*
X138486468Y-88677308D01*
X138489406Y-88672634D01*
X138492960Y-88641077D01*
X138493879Y-88635670D01*
X138495790Y-88627300D01*
X138495790Y-88618717D01*
X138496098Y-88613232D01*
X138499034Y-88587169D01*
X138499652Y-88581684D01*
X138497828Y-88576472D01*
X138497210Y-88570987D01*
X138497261Y-88570981D01*
X138495790Y-88562322D01*
X138495790Y-88376697D01*
X138510142Y-88342049D01*
X138544790Y-88327697D01*
X138579438Y-88342049D01*
X139002740Y-88765351D01*
X139017092Y-88799999D01*
X139002740Y-88834647D01*
X138913199Y-88924188D01*
X138906033Y-88929274D01*
X138906064Y-88929313D01*
X138901745Y-88932756D01*
X138896776Y-88935150D01*
X138893338Y-88939460D01*
X138893334Y-88939464D01*
X138876973Y-88959979D01*
X138873319Y-88964069D01*
X138869197Y-88968191D01*
X138869194Y-88968194D01*
X138867252Y-88970137D01*
X138865787Y-88972467D01*
X138865786Y-88972469D01*
X138862685Y-88977403D01*
X138859512Y-88981874D01*
X138843386Y-89002097D01*
X138839710Y-89006707D01*
X138838481Y-89012089D01*
X138836086Y-89017063D01*
X138836041Y-89017041D01*
X138835597Y-89018112D01*
X138835644Y-89018129D01*
X138833820Y-89023340D01*
X138830884Y-89028014D01*
X138830266Y-89033494D01*
X138830265Y-89033499D01*
X138827328Y-89059569D01*
X138826409Y-89064976D01*
X138825112Y-89070659D01*
X138825110Y-89070672D01*
X138824500Y-89073348D01*
X138824500Y-89076099D01*
X138824500Y-89081931D01*
X138824192Y-89087416D01*
X138821255Y-89113479D01*
X138821255Y-89113483D01*
X138820638Y-89118964D01*
X138822460Y-89124171D01*
X138822677Y-89126095D01*
X138816111Y-89153128D01*
X138817111Y-89153543D01*
X138815263Y-89158002D01*
X138812583Y-89162014D01*
X138811642Y-89166742D01*
X138811641Y-89166746D01*
X138796910Y-89240808D01*
X138795804Y-89246367D01*
X138795804Y-89246369D01*
X138795082Y-89250000D01*
X138794359Y-89249856D01*
X138781671Y-89280489D01*
X138637096Y-89425065D01*
X138584626Y-89477534D01*
X138584624Y-89477536D01*
X138580065Y-89482096D01*
X138578396Y-89488323D01*
X138578395Y-89488326D01*
X138576425Y-89495680D01*
X138571532Y-89507492D01*
X138567725Y-89514085D01*
X138567723Y-89514088D01*
X138564500Y-89519673D01*
X138564499Y-89526119D01*
X138564499Y-89526123D01*
X138564499Y-89560364D01*
X138564499Y-89600326D01*
X138564500Y-89600328D01*
X138564500Y-90325673D01*
X138564500Y-90406327D01*
X138567724Y-90411911D01*
X138567725Y-90411914D01*
X138571531Y-90418506D01*
X138576426Y-90430323D01*
X138578395Y-90437674D01*
X138578396Y-90437676D01*
X138580065Y-90443904D01*
X138584624Y-90448463D01*
X138637094Y-90500934D01*
X138637100Y-90500939D01*
X138773671Y-90637510D01*
X138786360Y-90668143D01*
X138787082Y-90668000D01*
X138787803Y-90671628D01*
X138787804Y-90671630D01*
X138788023Y-90672731D01*
X138803641Y-90751253D01*
X138803642Y-90751255D01*
X138804583Y-90755986D01*
X138810122Y-90764276D01*
X138847355Y-90820000D01*
X138854423Y-90830577D01*
X138929014Y-90880417D01*
X139017000Y-90897918D01*
X139104986Y-90880417D01*
X139179577Y-90830577D01*
X139229417Y-90755986D01*
X139246918Y-90668000D01*
X139229417Y-90580014D01*
X139179577Y-90505423D01*
X139172866Y-90500939D01*
X139142281Y-90480502D01*
X139104986Y-90455583D01*
X139100255Y-90454642D01*
X139100253Y-90454641D01*
X139021731Y-90439023D01*
X139020630Y-90438804D01*
X139020628Y-90438803D01*
X139017000Y-90438082D01*
X139017143Y-90437360D01*
X138986510Y-90424671D01*
X138879852Y-90318013D01*
X138865500Y-90283365D01*
X138865500Y-89642635D01*
X138879850Y-89607988D01*
X138994514Y-89493323D01*
X139010410Y-89482704D01*
X139024713Y-89479860D01*
X139025000Y-89479918D01*
X139112986Y-89462417D01*
X139187577Y-89412577D01*
X139237417Y-89337986D01*
X139254918Y-89250000D01*
X139243364Y-89191915D01*
X139244532Y-89168135D01*
X139256770Y-89147715D01*
X139389637Y-89014850D01*
X139424284Y-89000500D01*
X140722612Y-89000500D01*
X140731271Y-89001971D01*
X140731277Y-89001920D01*
X140736760Y-89002537D01*
X140741974Y-89004362D01*
X140762078Y-89002097D01*
X140783748Y-89004539D01*
X140802212Y-89016141D01*
X140970750Y-89184679D01*
X140984160Y-89209767D01*
X140981372Y-89238078D01*
X140963326Y-89260069D01*
X140926301Y-89284809D01*
X140907423Y-89297423D01*
X140904744Y-89301431D01*
X140904742Y-89301434D01*
X140864002Y-89362407D01*
X140857583Y-89372014D01*
X140856642Y-89376742D01*
X140856641Y-89376746D01*
X140846811Y-89426171D01*
X140840082Y-89460000D01*
X140841023Y-89464731D01*
X140856641Y-89543253D01*
X140856642Y-89543255D01*
X140857583Y-89547986D01*
X140860264Y-89551998D01*
X140867582Y-89562951D01*
X140875734Y-89593379D01*
X140863679Y-89622481D01*
X140836398Y-89638231D01*
X140807251Y-89644028D01*
X140807242Y-89644031D01*
X140802514Y-89644972D01*
X140798502Y-89647652D01*
X140798501Y-89647653D01*
X140731934Y-89692131D01*
X140731931Y-89692133D01*
X140727923Y-89694812D01*
X140725244Y-89698820D01*
X140725242Y-89698823D01*
X140680764Y-89765390D01*
X140678083Y-89769403D01*
X140677142Y-89774131D01*
X140677141Y-89774135D01*
X140663807Y-89841173D01*
X140661304Y-89853756D01*
X140661304Y-89853758D01*
X140660582Y-89857389D01*
X140659859Y-89857245D01*
X140647171Y-89887878D01*
X140087096Y-90447954D01*
X140034626Y-90500423D01*
X140034624Y-90500425D01*
X140030065Y-90504985D01*
X140028396Y-90511212D01*
X140028395Y-90511215D01*
X140026425Y-90518569D01*
X140021532Y-90530381D01*
X140017725Y-90536974D01*
X140017723Y-90536977D01*
X140014500Y-90542562D01*
X140014499Y-90549008D01*
X140014499Y-90549012D01*
X140014499Y-90584292D01*
X140014499Y-90623215D01*
X140014500Y-90623217D01*
X140014500Y-90626381D01*
X140001811Y-90657014D01*
X140002423Y-90657423D01*
X140000367Y-90660499D01*
X140000365Y-90660501D01*
X139999744Y-90661431D01*
X139999742Y-90661434D01*
X139956598Y-90726005D01*
X139952583Y-90732014D01*
X139951642Y-90736742D01*
X139951641Y-90736746D01*
X139936023Y-90815269D01*
X139935082Y-90820000D01*
X139936023Y-90824731D01*
X139936023Y-90824736D01*
X139936953Y-90829413D01*
X139935784Y-90853195D01*
X139923542Y-90873617D01*
X138552096Y-92245065D01*
X138499626Y-92297534D01*
X138499624Y-92297536D01*
X138495065Y-92302096D01*
X138493396Y-92308323D01*
X138493395Y-92308326D01*
X138491425Y-92315680D01*
X138486532Y-92327492D01*
X138482725Y-92334085D01*
X138482723Y-92334088D01*
X138479500Y-92339673D01*
X138479499Y-92346119D01*
X138479499Y-92346123D01*
X138479499Y-92397489D01*
X138479499Y-92420326D01*
X138479500Y-92420328D01*
X138479500Y-93294673D01*
X138479500Y-93375327D01*
X138482724Y-93380911D01*
X138482725Y-93380914D01*
X138486531Y-93387506D01*
X138491426Y-93399323D01*
X138493395Y-93406674D01*
X138493396Y-93406676D01*
X138495065Y-93412904D01*
X138526359Y-93444199D01*
X138552094Y-93469934D01*
X138552100Y-93469939D01*
X138932674Y-93850512D01*
X138932674Y-93850513D01*
X138989705Y-93907544D01*
X139003286Y-93911182D01*
X139015106Y-93916078D01*
X139027282Y-93923109D01*
X139107936Y-93923110D01*
X139107938Y-93923109D01*
X139448990Y-93923109D01*
X139479623Y-93935797D01*
X139480032Y-93935186D01*
X139554623Y-93985026D01*
X139642609Y-94002527D01*
X139730595Y-93985026D01*
X139805186Y-93935186D01*
X139834977Y-93890601D01*
X145187683Y-93890601D01*
X145188624Y-93895332D01*
X145204242Y-93973854D01*
X145204243Y-93973856D01*
X145205184Y-93978587D01*
X145255024Y-94053178D01*
X145329615Y-94103018D01*
X145417601Y-94120519D01*
X145505587Y-94103018D01*
X145580178Y-94053178D01*
X145630018Y-93978587D01*
X145647519Y-93890601D01*
X145630018Y-93802615D01*
X145580178Y-93728024D01*
X145505587Y-93678184D01*
X145500856Y-93677243D01*
X145500854Y-93677242D01*
X145422332Y-93661624D01*
X145417601Y-93660683D01*
X145412870Y-93661624D01*
X145334347Y-93677242D01*
X145334343Y-93677243D01*
X145329615Y-93678184D01*
X145325603Y-93680864D01*
X145325602Y-93680865D01*
X145259035Y-93725343D01*
X145259032Y-93725345D01*
X145255024Y-93728024D01*
X145252345Y-93732032D01*
X145252343Y-93732035D01*
X145228394Y-93767878D01*
X145205184Y-93802615D01*
X145204243Y-93807343D01*
X145204242Y-93807347D01*
X145195656Y-93850515D01*
X145187683Y-93890601D01*
X139834977Y-93890601D01*
X139855026Y-93860595D01*
X139872527Y-93772609D01*
X139855026Y-93684623D01*
X139846740Y-93672223D01*
X139838901Y-93638605D01*
X139855174Y-93608160D01*
X139887482Y-93596000D01*
X139960826Y-93596001D01*
X139960828Y-93596000D01*
X142089173Y-93596000D01*
X142149314Y-93596000D01*
X142169827Y-93596000D01*
X142182005Y-93588967D01*
X142193821Y-93584073D01*
X142207404Y-93580435D01*
X142264435Y-93523405D01*
X142264435Y-93523403D01*
X142394512Y-93393325D01*
X142410410Y-93382704D01*
X142424713Y-93379860D01*
X142425000Y-93379918D01*
X142512986Y-93362417D01*
X142587577Y-93312577D01*
X142637417Y-93237986D01*
X142654918Y-93150000D01*
X142637417Y-93062014D01*
X142587577Y-92987423D01*
X142512986Y-92937583D01*
X142508255Y-92936642D01*
X142508253Y-92936641D01*
X142429731Y-92921023D01*
X142425000Y-92920082D01*
X142420269Y-92921023D01*
X142420268Y-92921023D01*
X142387138Y-92927612D01*
X142356629Y-92923848D01*
X142334366Y-92902651D01*
X142329110Y-92872363D01*
X142342930Y-92844908D01*
X142629986Y-92557852D01*
X142664635Y-92543500D01*
X143300364Y-92543500D01*
X143335012Y-92557852D01*
X143349364Y-92592500D01*
X143335012Y-92627148D01*
X143055489Y-92906671D01*
X143024856Y-92919359D01*
X143025000Y-92920082D01*
X143021369Y-92920804D01*
X143021367Y-92920804D01*
X143020269Y-92921023D01*
X142941746Y-92936641D01*
X142941742Y-92936642D01*
X142937014Y-92937583D01*
X142933002Y-92940263D01*
X142933001Y-92940264D01*
X142866434Y-92984742D01*
X142866431Y-92984744D01*
X142862423Y-92987423D01*
X142859744Y-92991431D01*
X142859742Y-92991434D01*
X142825310Y-93042966D01*
X142812583Y-93062014D01*
X142811642Y-93066742D01*
X142811641Y-93066746D01*
X142800306Y-93123736D01*
X142795082Y-93150000D01*
X142796023Y-93154731D01*
X142811641Y-93233253D01*
X142811642Y-93233255D01*
X142812583Y-93237986D01*
X142835752Y-93272661D01*
X142857528Y-93305252D01*
X142862423Y-93312577D01*
X142937014Y-93362417D01*
X143025000Y-93379918D01*
X143112986Y-93362417D01*
X143187577Y-93312577D01*
X143237417Y-93237986D01*
X143254918Y-93150000D01*
X143254860Y-93149713D01*
X143257704Y-93135410D01*
X143268325Y-93119512D01*
X143319907Y-93067930D01*
X143347363Y-93054110D01*
X143377651Y-93059366D01*
X143398848Y-93081629D01*
X143402612Y-93112138D01*
X143396123Y-93144764D01*
X143395082Y-93150000D01*
X143396023Y-93154731D01*
X143411641Y-93233253D01*
X143411642Y-93233255D01*
X143412583Y-93237986D01*
X143435752Y-93272661D01*
X143457528Y-93305252D01*
X143462423Y-93312577D01*
X143537014Y-93362417D01*
X143625000Y-93379918D01*
X143712986Y-93362417D01*
X143787577Y-93312577D01*
X143837417Y-93237986D01*
X143854918Y-93150000D01*
X143854860Y-93149713D01*
X143857704Y-93135410D01*
X143868325Y-93119512D01*
X143919908Y-93067930D01*
X143947363Y-93054110D01*
X143977651Y-93059366D01*
X143998848Y-93081629D01*
X144002612Y-93112138D01*
X143996123Y-93144764D01*
X143995082Y-93150000D01*
X143996023Y-93154731D01*
X144011641Y-93233253D01*
X144011642Y-93233255D01*
X144012583Y-93237986D01*
X144035752Y-93272661D01*
X144057528Y-93305252D01*
X144062423Y-93312577D01*
X144137014Y-93362417D01*
X144225000Y-93379918D01*
X144312986Y-93362417D01*
X144387577Y-93312577D01*
X144393791Y-93303276D01*
X144411434Y-93287286D01*
X144434533Y-93281500D01*
X144569139Y-93281500D01*
X144596362Y-93289758D01*
X144614409Y-93311748D01*
X144617198Y-93340059D01*
X144605500Y-93398870D01*
X144604082Y-93406000D01*
X144605023Y-93410731D01*
X144620641Y-93489253D01*
X144620642Y-93489255D01*
X144621583Y-93493986D01*
X144629782Y-93506257D01*
X144667611Y-93562873D01*
X144671423Y-93568577D01*
X144746014Y-93618417D01*
X144834000Y-93635918D01*
X144921986Y-93618417D01*
X144996577Y-93568577D01*
X144996985Y-93569188D01*
X145027619Y-93556500D01*
X146066876Y-93556500D01*
X146073327Y-93556500D01*
X146085505Y-93549467D01*
X146097321Y-93544573D01*
X146110904Y-93540935D01*
X146167935Y-93483905D01*
X146167935Y-93483903D01*
X146248721Y-93403116D01*
X146280146Y-93388871D01*
X146313170Y-93398870D01*
X146326736Y-93420645D01*
X146328794Y-93419793D01*
X146330641Y-93424253D01*
X146331583Y-93428986D01*
X146349590Y-93455936D01*
X146376502Y-93496213D01*
X146381423Y-93503577D01*
X146456014Y-93553417D01*
X146544000Y-93570918D01*
X146548731Y-93569977D01*
X146548735Y-93569977D01*
X146574992Y-93564754D01*
X146605502Y-93568516D01*
X146627766Y-93589713D01*
X146633022Y-93620002D01*
X146619200Y-93647460D01*
X145974148Y-94292513D01*
X145952182Y-94305195D01*
X145926818Y-94305195D01*
X145904852Y-94292513D01*
X145881965Y-94269626D01*
X145877404Y-94265065D01*
X145871172Y-94263395D01*
X145863823Y-94261426D01*
X145852006Y-94256531D01*
X145845414Y-94252725D01*
X145845411Y-94252724D01*
X145839827Y-94249500D01*
X145833379Y-94249499D01*
X145833376Y-94249499D01*
X145759179Y-94249499D01*
X145759178Y-94249499D01*
X145759174Y-94249499D01*
X145759172Y-94249499D01*
X145759171Y-94249500D01*
X139495327Y-94249500D01*
X139414673Y-94249500D01*
X139409088Y-94252723D01*
X139409085Y-94252725D01*
X139402492Y-94256532D01*
X139390680Y-94261425D01*
X139387002Y-94262410D01*
X139377096Y-94265065D01*
X139372538Y-94269622D01*
X139372536Y-94269624D01*
X138905489Y-94736671D01*
X138874856Y-94749359D01*
X138875000Y-94750082D01*
X138871369Y-94750804D01*
X138871367Y-94750804D01*
X138870269Y-94751023D01*
X138791746Y-94766641D01*
X138791742Y-94766642D01*
X138787014Y-94767583D01*
X138783002Y-94770263D01*
X138783001Y-94770264D01*
X138716434Y-94814742D01*
X138716431Y-94814744D01*
X138712423Y-94817423D01*
X138709744Y-94821431D01*
X138709742Y-94821434D01*
X138667172Y-94885146D01*
X138662583Y-94892014D01*
X138661642Y-94896742D01*
X138661641Y-94896746D01*
X138649366Y-94958460D01*
X138645082Y-94980000D01*
X138646023Y-94984731D01*
X138661641Y-95063253D01*
X138661642Y-95063255D01*
X138662583Y-95067986D01*
X138665264Y-95071998D01*
X138706980Y-95134432D01*
X138712423Y-95142577D01*
X138787014Y-95192417D01*
X138875000Y-95209918D01*
X138962986Y-95192417D01*
X139037577Y-95142577D01*
X139087417Y-95067986D01*
X139104918Y-94980000D01*
X139104860Y-94979713D01*
X139107704Y-94965410D01*
X139118325Y-94949512D01*
X139502986Y-94564852D01*
X139537635Y-94550500D01*
X145716865Y-94550500D01*
X145751513Y-94564852D01*
X145814506Y-94627845D01*
X145822291Y-94637989D01*
X145829326Y-94650174D01*
X145841508Y-94657207D01*
X145851653Y-94664992D01*
X146230352Y-95043691D01*
X146243762Y-95068778D01*
X146247583Y-95087986D01*
X146250264Y-95091998D01*
X146250265Y-95092000D01*
X146275454Y-95129699D01*
X146297423Y-95162577D01*
X146372014Y-95212417D01*
X146460000Y-95229918D01*
X146547986Y-95212417D01*
X146622577Y-95162577D01*
X146672417Y-95087986D01*
X146689918Y-95000000D01*
X146672417Y-94912014D01*
X146622577Y-94837423D01*
X146547986Y-94787583D01*
X146543255Y-94786642D01*
X146543253Y-94786641D01*
X146464731Y-94771023D01*
X146460000Y-94770082D01*
X146455269Y-94771023D01*
X146420977Y-94777843D01*
X146397194Y-94776674D01*
X146376771Y-94764432D01*
X146186987Y-94574648D01*
X146172635Y-94540000D01*
X146186987Y-94505352D01*
X146690753Y-94001586D01*
X147225430Y-93466909D01*
X147225430Y-93466908D01*
X147239935Y-93452404D01*
X147243573Y-93438821D01*
X147248467Y-93427005D01*
X147255500Y-93414827D01*
X147255501Y-93334174D01*
X147255500Y-93334172D01*
X147255500Y-88670186D01*
X147255500Y-88649673D01*
X147248469Y-88637497D01*
X147243573Y-88625676D01*
X147243270Y-88624546D01*
X147239935Y-88612096D01*
X147235376Y-88607537D01*
X147235375Y-88607535D01*
X147182905Y-88555065D01*
X147182903Y-88555064D01*
X146957852Y-88330013D01*
X146943500Y-88295365D01*
X146943500Y-85954124D01*
X146943500Y-85947673D01*
X146936469Y-85935497D01*
X146931573Y-85923676D01*
X146927935Y-85910096D01*
X146923376Y-85905537D01*
X146923375Y-85905535D01*
X146870905Y-85853065D01*
X146870903Y-85853064D01*
X146812852Y-85795013D01*
X146798500Y-85760365D01*
X146798500Y-84845648D01*
X146807538Y-84817293D01*
X146831316Y-84799398D01*
X146984522Y-84745789D01*
X147137262Y-84649816D01*
X147264816Y-84522262D01*
X147307071Y-84455014D01*
X147314011Y-84443969D01*
X147338026Y-84424261D01*
X147369065Y-84422954D01*
X147394652Y-84440574D01*
G37*
%TD.AperFunction*%
%TA.AperFunction,Conductor*%
G36*
X142532512Y-90085352D02*
G01*
X142546864Y-90120000D01*
X142532512Y-90154648D01*
X142359826Y-90327334D01*
X142334737Y-90340745D01*
X142308909Y-90338199D01*
X142307986Y-90337583D01*
X142220000Y-90320082D01*
X142215269Y-90321023D01*
X142136746Y-90336641D01*
X142136742Y-90336642D01*
X142132014Y-90337583D01*
X142128002Y-90340263D01*
X142128001Y-90340264D01*
X142061434Y-90384742D01*
X142061431Y-90384744D01*
X142057423Y-90387423D01*
X142054744Y-90391431D01*
X142054742Y-90391434D01*
X142016637Y-90448463D01*
X142007583Y-90462014D01*
X142006642Y-90466742D01*
X142006641Y-90466746D01*
X141997300Y-90513712D01*
X141990082Y-90550000D01*
X141991023Y-90554731D01*
X141998567Y-90592661D01*
X142007583Y-90637986D01*
X142007682Y-90638135D01*
X142008726Y-90670067D01*
X141986826Y-90696750D01*
X141976059Y-90702966D01*
X141964245Y-90707860D01*
X141960567Y-90708845D01*
X141950661Y-90711500D01*
X141946103Y-90716057D01*
X141946101Y-90716059D01*
X141893629Y-90768531D01*
X140937096Y-91725065D01*
X140884626Y-91777534D01*
X140884624Y-91777536D01*
X140880065Y-91782096D01*
X140878396Y-91788323D01*
X140878395Y-91788326D01*
X140876425Y-91795680D01*
X140871532Y-91807492D01*
X140867725Y-91814085D01*
X140867723Y-91814088D01*
X140864500Y-91819673D01*
X140864499Y-91826119D01*
X140864499Y-91826123D01*
X140864499Y-91861986D01*
X140864499Y-91900326D01*
X140864500Y-91900328D01*
X140864500Y-92057365D01*
X140860770Y-92076117D01*
X140850148Y-92092013D01*
X140031863Y-92910296D01*
X140006775Y-92923706D01*
X139956766Y-92933654D01*
X139942750Y-92936441D01*
X139914440Y-92933654D01*
X139892449Y-92915607D01*
X139884191Y-92888384D01*
X139884191Y-92583944D01*
X139898543Y-92549296D01*
X140787904Y-91659935D01*
X141700430Y-90747409D01*
X141714935Y-90732904D01*
X141718573Y-90719321D01*
X141723467Y-90707505D01*
X141730500Y-90695327D01*
X141730500Y-90614674D01*
X141730500Y-90463619D01*
X141743188Y-90432985D01*
X141742577Y-90432577D01*
X141742577Y-90432576D01*
X141792417Y-90357986D01*
X141809918Y-90270000D01*
X141792417Y-90182014D01*
X141769169Y-90147221D01*
X141761331Y-90113604D01*
X141777604Y-90083160D01*
X141809912Y-90071000D01*
X142497864Y-90071000D01*
X142532512Y-90085352D01*
G37*
%TD.AperFunction*%
%TA.AperFunction,Conductor*%
G36*
X143641448Y-91011287D02*
G01*
X143795671Y-91165510D01*
X143808360Y-91196143D01*
X143809082Y-91196000D01*
X143809803Y-91199628D01*
X143809804Y-91199630D01*
X143810023Y-91200731D01*
X143825641Y-91279253D01*
X143825642Y-91279255D01*
X143826583Y-91283986D01*
X143829264Y-91287998D01*
X143832123Y-91292277D01*
X143839962Y-91325895D01*
X143823689Y-91356340D01*
X143791381Y-91368500D01*
X142296327Y-91368500D01*
X142215673Y-91368500D01*
X142210088Y-91371723D01*
X142210085Y-91371725D01*
X142203492Y-91375532D01*
X142191679Y-91380425D01*
X142178096Y-91384065D01*
X142173538Y-91388622D01*
X142173536Y-91388624D01*
X140655489Y-92906671D01*
X140624856Y-92919359D01*
X140625000Y-92920082D01*
X140621369Y-92920804D01*
X140621367Y-92920804D01*
X140620269Y-92921023D01*
X140562173Y-92932578D01*
X140531663Y-92928814D01*
X140509400Y-92907617D01*
X140504144Y-92877329D01*
X140517964Y-92849873D01*
X141135430Y-92232409D01*
X141135430Y-92232408D01*
X141149935Y-92217904D01*
X141153573Y-92204321D01*
X141158467Y-92192505D01*
X141165500Y-92180327D01*
X141165500Y-92099674D01*
X141165500Y-91942635D01*
X141179852Y-91907987D01*
X142076552Y-91011287D01*
X142111200Y-90996935D01*
X143606800Y-90996935D01*
X143641448Y-91011287D01*
G37*
%TD.AperFunction*%
%TA.AperFunction,Conductor*%
G36*
X141342312Y-90293276D02*
G01*
X141360541Y-90322591D01*
X141366639Y-90353249D01*
X141366642Y-90353257D01*
X141367583Y-90357986D01*
X141370264Y-90361998D01*
X141400545Y-90407318D01*
X141415366Y-90429499D01*
X141415367Y-90429500D01*
X141417423Y-90432577D01*
X141416811Y-90432985D01*
X141429500Y-90463619D01*
X141429500Y-90572365D01*
X141425770Y-90591116D01*
X141415148Y-90607013D01*
X139664078Y-92358082D01*
X139634233Y-92372198D01*
X139602207Y-92364176D01*
X139593087Y-92358082D01*
X139527986Y-92314583D01*
X139523257Y-92313642D01*
X139523249Y-92313639D01*
X139503850Y-92309781D01*
X139474535Y-92291552D01*
X139464515Y-92258518D01*
X139478761Y-92227077D01*
X140591931Y-91113909D01*
X140591932Y-91113906D01*
X140606435Y-91099404D01*
X140610073Y-91085824D01*
X140614970Y-91074003D01*
X140615283Y-91073460D01*
X140622000Y-91061827D01*
X140622001Y-90981173D01*
X140622000Y-90981171D01*
X140622000Y-90973635D01*
X140636352Y-90938987D01*
X140952129Y-90623210D01*
X141277836Y-90297502D01*
X141309278Y-90283256D01*
X141342312Y-90293276D01*
G37*
%TD.AperFunction*%
%TA.AperFunction,Conductor*%
G36*
X143337013Y-90364852D02*
G01*
X143400727Y-90428565D01*
X143460065Y-90487903D01*
X143460065Y-90487904D01*
X143517096Y-90544935D01*
X143530677Y-90548573D01*
X143542497Y-90553469D01*
X143554673Y-90560500D01*
X143635326Y-90560501D01*
X143635328Y-90560500D01*
X144470365Y-90560500D01*
X144505013Y-90574852D01*
X144862482Y-90932321D01*
X144876670Y-90964328D01*
X144908678Y-90978517D01*
X144953952Y-91023791D01*
X144968068Y-91053635D01*
X144960047Y-91085660D01*
X144952299Y-91097257D01*
X144924242Y-91117365D01*
X144889888Y-91113985D01*
X144871533Y-91094392D01*
X144870040Y-91095391D01*
X144833287Y-91040387D01*
X144827295Y-91013703D01*
X144800611Y-91007711D01*
X144767739Y-90985747D01*
X144745609Y-90970960D01*
X144740878Y-90970019D01*
X144740876Y-90970018D01*
X144662354Y-90954400D01*
X144657623Y-90953459D01*
X144652892Y-90954400D01*
X144574369Y-90970018D01*
X144574365Y-90970019D01*
X144569637Y-90970960D01*
X144565625Y-90973640D01*
X144565624Y-90973641D01*
X144499057Y-91018119D01*
X144499054Y-91018121D01*
X144498124Y-91018742D01*
X144498122Y-91018744D01*
X144495046Y-91020800D01*
X144494637Y-91020188D01*
X144464004Y-91032877D01*
X144409387Y-91032877D01*
X144403802Y-91036100D01*
X144403799Y-91036102D01*
X144397206Y-91039909D01*
X144385393Y-91044802D01*
X144371810Y-91048442D01*
X144367253Y-91052998D01*
X144367249Y-91053001D01*
X144317996Y-91102254D01*
X144292907Y-91115664D01*
X144264596Y-91112875D01*
X144242606Y-91094828D01*
X144236590Y-91085825D01*
X144201577Y-91033423D01*
X144195565Y-91029406D01*
X144146969Y-90996935D01*
X144126986Y-90983583D01*
X144122255Y-90982642D01*
X144122253Y-90982641D01*
X144043731Y-90967023D01*
X144042630Y-90966804D01*
X144042628Y-90966803D01*
X144039000Y-90966082D01*
X144039143Y-90965360D01*
X144008510Y-90952671D01*
X143771900Y-90716061D01*
X143767339Y-90711500D01*
X143761107Y-90709830D01*
X143753758Y-90707861D01*
X143741941Y-90702966D01*
X143735349Y-90699160D01*
X143735346Y-90699159D01*
X143729762Y-90695935D01*
X143723314Y-90695934D01*
X143723311Y-90695934D01*
X143649114Y-90695934D01*
X143649113Y-90695934D01*
X143649109Y-90695934D01*
X143649107Y-90695934D01*
X143649106Y-90695935D01*
X142535201Y-90695935D01*
X142507978Y-90687677D01*
X142489931Y-90665686D01*
X142487143Y-90637375D01*
X142500553Y-90612286D01*
X142505826Y-90607013D01*
X142534935Y-90577905D01*
X142534935Y-90577903D01*
X142747986Y-90364852D01*
X142782635Y-90350500D01*
X143302365Y-90350500D01*
X143337013Y-90364852D01*
G37*
%TD.AperFunction*%
%TA.AperFunction,Conductor*%
G36*
X145831173Y-89606754D02*
G01*
X145848874Y-89631887D01*
X145848120Y-89662619D01*
X145829207Y-89686853D01*
X145786934Y-89715098D01*
X145786931Y-89715100D01*
X145782923Y-89717779D01*
X145780244Y-89721787D01*
X145780242Y-89721790D01*
X145745267Y-89774135D01*
X145733083Y-89792370D01*
X145732142Y-89797098D01*
X145732141Y-89797102D01*
X145717317Y-89871634D01*
X145715582Y-89880356D01*
X145716523Y-89885087D01*
X145732141Y-89963609D01*
X145732142Y-89963611D01*
X145733083Y-89968342D01*
X145750716Y-89994731D01*
X145777140Y-90034279D01*
X145782923Y-90042933D01*
X145857514Y-90092773D01*
X145882194Y-90097682D01*
X145940059Y-90109192D01*
X145968377Y-90126166D01*
X145979500Y-90157251D01*
X145979500Y-90407318D01*
X145971242Y-90434541D01*
X145949251Y-90452588D01*
X145920941Y-90455376D01*
X145860236Y-90443301D01*
X145860231Y-90443301D01*
X145855500Y-90442360D01*
X145850769Y-90443301D01*
X145772246Y-90458919D01*
X145772242Y-90458920D01*
X145767514Y-90459861D01*
X145763502Y-90462541D01*
X145763501Y-90462542D01*
X145696934Y-90507020D01*
X145696931Y-90507022D01*
X145692923Y-90509701D01*
X145690244Y-90513709D01*
X145690242Y-90513712D01*
X145647348Y-90577909D01*
X145643083Y-90584292D01*
X145642142Y-90589020D01*
X145642141Y-90589024D01*
X145627739Y-90661434D01*
X145625582Y-90672278D01*
X145626523Y-90677009D01*
X145642141Y-90755531D01*
X145642142Y-90755533D01*
X145643083Y-90760264D01*
X145645764Y-90764276D01*
X145690064Y-90830577D01*
X145690866Y-90831777D01*
X145690867Y-90831778D01*
X145692923Y-90834855D01*
X145692311Y-90835263D01*
X145705000Y-90865897D01*
X145705000Y-90901354D01*
X145696742Y-90928577D01*
X145674751Y-90946624D01*
X145646441Y-90949412D01*
X145585736Y-90937337D01*
X145585731Y-90937337D01*
X145581000Y-90936396D01*
X145576269Y-90937337D01*
X145497746Y-90952955D01*
X145497742Y-90952956D01*
X145493014Y-90953897D01*
X145489002Y-90956577D01*
X145489001Y-90956578D01*
X145422434Y-91001056D01*
X145422431Y-91001058D01*
X145418423Y-91003737D01*
X145415744Y-91007745D01*
X145415743Y-91007747D01*
X145404882Y-91024001D01*
X145382891Y-91042047D01*
X145354581Y-91044834D01*
X145329493Y-91031424D01*
X145327880Y-91029811D01*
X145327255Y-91028876D01*
X145313123Y-90994758D01*
X145313123Y-90985747D01*
X145313123Y-90979296D01*
X145306092Y-90967120D01*
X145301196Y-90955299D01*
X145300955Y-90954400D01*
X145297558Y-90941719D01*
X145292999Y-90937160D01*
X145292998Y-90937158D01*
X145240528Y-90884688D01*
X145240526Y-90884687D01*
X144645409Y-90289570D01*
X144630904Y-90275065D01*
X144624672Y-90273395D01*
X144617323Y-90271426D01*
X144605506Y-90266531D01*
X144598914Y-90262725D01*
X144598911Y-90262724D01*
X144593327Y-90259500D01*
X144586879Y-90259499D01*
X144586876Y-90259499D01*
X144512679Y-90259499D01*
X144512678Y-90259499D01*
X144512674Y-90259499D01*
X144512672Y-90259499D01*
X144512671Y-90259500D01*
X143677635Y-90259500D01*
X143642987Y-90245148D01*
X143552487Y-90154648D01*
X143538135Y-90120000D01*
X143552487Y-90085352D01*
X143587135Y-90071000D01*
X144381732Y-90071000D01*
X144390391Y-90072471D01*
X144390397Y-90072420D01*
X144395880Y-90073037D01*
X144401094Y-90074862D01*
X144432641Y-90071308D01*
X144438127Y-90071000D01*
X144443956Y-90071000D01*
X144446710Y-90071000D01*
X144455080Y-90069089D01*
X144460487Y-90068170D01*
X144492044Y-90064616D01*
X144496718Y-90061678D01*
X144501932Y-90059854D01*
X144501949Y-90059902D01*
X144503014Y-90059461D01*
X144502992Y-90059414D01*
X144507964Y-90057019D01*
X144513351Y-90055790D01*
X144538184Y-90035985D01*
X144542657Y-90032812D01*
X144549921Y-90028248D01*
X144555997Y-90022171D01*
X144560066Y-90018533D01*
X144584908Y-89998724D01*
X144587303Y-89993749D01*
X144590746Y-89989432D01*
X144590785Y-89989463D01*
X144595867Y-89982300D01*
X144966706Y-89611463D01*
X145001355Y-89597111D01*
X145801984Y-89597111D01*
X145831173Y-89606754D01*
G37*
%TD.AperFunction*%
%TA.AperFunction,Conductor*%
G36*
X143005172Y-81910691D02*
G01*
X143044170Y-81941792D01*
X143044179Y-81941797D01*
X143046325Y-81943509D01*
X143152002Y-81994400D01*
X143266354Y-82020500D01*
X143289618Y-82020500D01*
X143325000Y-82020500D01*
X143357288Y-82020500D01*
X146232706Y-82020500D01*
X146262171Y-82030348D01*
X146279791Y-82055935D01*
X146278484Y-82086974D01*
X146258776Y-82110989D01*
X146135069Y-82188718D01*
X146135061Y-82188724D01*
X146132738Y-82190184D01*
X146130794Y-82192127D01*
X146130790Y-82192131D01*
X146007131Y-82315790D01*
X146007127Y-82315794D01*
X146005184Y-82317738D01*
X146003724Y-82320061D01*
X146003718Y-82320069D01*
X145910675Y-82468147D01*
X145910672Y-82468151D01*
X145909211Y-82470478D01*
X145908302Y-82473072D01*
X145908302Y-82473075D01*
X145850540Y-82638147D01*
X145850537Y-82638155D01*
X145849632Y-82640745D01*
X145849324Y-82643477D01*
X145849324Y-82643478D01*
X145834653Y-82773679D01*
X145834651Y-82773696D01*
X145834500Y-82775046D01*
X145834500Y-84064954D01*
X145834652Y-84066303D01*
X145834653Y-84066320D01*
X145842963Y-84140065D01*
X145849632Y-84199255D01*
X145850538Y-84201846D01*
X145850540Y-84201852D01*
X145899694Y-84342325D01*
X145909211Y-84369522D01*
X145910674Y-84371851D01*
X145910675Y-84371852D01*
X146003718Y-84519930D01*
X146003721Y-84519934D01*
X146005184Y-84522262D01*
X146132738Y-84649816D01*
X146135067Y-84651279D01*
X146135069Y-84651281D01*
X146193417Y-84687943D01*
X146285478Y-84745789D01*
X146455745Y-84805368D01*
X146458478Y-84805676D01*
X146459407Y-84805888D01*
X146486811Y-84823109D01*
X146497500Y-84853659D01*
X146497500Y-85802673D01*
X146497500Y-85883327D01*
X146500724Y-85888911D01*
X146500725Y-85888914D01*
X146504531Y-85895506D01*
X146509426Y-85907323D01*
X146511395Y-85914674D01*
X146511396Y-85914676D01*
X146513065Y-85920904D01*
X146517624Y-85925463D01*
X146570094Y-85977934D01*
X146570100Y-85977939D01*
X146591097Y-85998936D01*
X146605390Y-86031180D01*
X146594327Y-86064669D01*
X146563639Y-86082054D01*
X146529226Y-86074326D01*
X146505310Y-86058346D01*
X146478877Y-86040684D01*
X146474146Y-86039743D01*
X146474144Y-86039742D01*
X146395622Y-86024124D01*
X146390891Y-86023183D01*
X146386160Y-86024124D01*
X146307637Y-86039742D01*
X146307633Y-86039743D01*
X146302905Y-86040684D01*
X146298893Y-86043364D01*
X146298892Y-86043365D01*
X146232325Y-86087843D01*
X146232322Y-86087845D01*
X146228314Y-86090524D01*
X146225635Y-86094532D01*
X146225632Y-86094536D01*
X146204546Y-86126093D01*
X146173363Y-86146928D01*
X146136581Y-86139610D01*
X146115746Y-86108429D01*
X146105785Y-86058346D01*
X146055945Y-85983755D01*
X146051534Y-85980808D01*
X146018649Y-85958835D01*
X145981354Y-85933915D01*
X145976623Y-85932974D01*
X145976621Y-85932973D01*
X145898099Y-85917355D01*
X145893368Y-85916414D01*
X145888637Y-85917355D01*
X145810114Y-85932973D01*
X145810110Y-85932974D01*
X145805382Y-85933915D01*
X145801370Y-85936595D01*
X145801369Y-85936596D01*
X145734802Y-85981074D01*
X145734799Y-85981076D01*
X145730791Y-85983755D01*
X145728112Y-85987763D01*
X145728110Y-85987766D01*
X145686301Y-86050339D01*
X145680951Y-86058346D01*
X145680010Y-86063074D01*
X145680009Y-86063078D01*
X145667280Y-86127076D01*
X145663450Y-86146332D01*
X145664391Y-86151064D01*
X145664391Y-86155890D01*
X145663217Y-86155890D01*
X145662789Y-86168923D01*
X145660924Y-86175881D01*
X145656032Y-86187692D01*
X145652225Y-86194285D01*
X145652223Y-86194288D01*
X145649000Y-86199873D01*
X145648999Y-86206319D01*
X145648999Y-86206323D01*
X145648999Y-86244041D01*
X145648999Y-86280526D01*
X145649000Y-86280527D01*
X145649000Y-86280528D01*
X145649000Y-87741881D01*
X145636311Y-87772514D01*
X145636923Y-87772923D01*
X145634867Y-87775999D01*
X145634865Y-87776001D01*
X145634244Y-87776931D01*
X145634242Y-87776934D01*
X145589764Y-87843501D01*
X145587083Y-87847514D01*
X145586142Y-87852242D01*
X145586141Y-87852246D01*
X145570523Y-87930769D01*
X145569582Y-87935500D01*
X145570523Y-87940231D01*
X145586141Y-88018753D01*
X145586142Y-88018755D01*
X145587083Y-88023486D01*
X145636923Y-88098077D01*
X145640934Y-88100757D01*
X145688683Y-88132662D01*
X145706730Y-88154652D01*
X145709519Y-88182963D01*
X145696109Y-88208052D01*
X145666065Y-88238096D01*
X145664396Y-88244323D01*
X145664395Y-88244326D01*
X145662425Y-88251680D01*
X145657532Y-88263492D01*
X145653725Y-88270085D01*
X145653723Y-88270088D01*
X145650500Y-88275673D01*
X145650499Y-88282119D01*
X145650499Y-88282123D01*
X145650499Y-88327697D01*
X145650499Y-88356326D01*
X145650500Y-88356328D01*
X145650500Y-88810881D01*
X145637811Y-88841514D01*
X145638423Y-88841923D01*
X145636367Y-88844999D01*
X145636365Y-88845001D01*
X145635744Y-88845931D01*
X145635742Y-88845934D01*
X145591264Y-88912501D01*
X145588583Y-88916514D01*
X145587642Y-88921242D01*
X145587641Y-88921246D01*
X145579510Y-88962126D01*
X145571082Y-89004500D01*
X145572023Y-89009231D01*
X145587641Y-89087753D01*
X145587642Y-89087755D01*
X145588583Y-89092486D01*
X145591263Y-89096498D01*
X145591265Y-89096501D01*
X145606892Y-89119889D01*
X145614731Y-89153507D01*
X145598458Y-89183951D01*
X145566150Y-89196111D01*
X144940397Y-89196111D01*
X144931737Y-89194639D01*
X144931732Y-89194691D01*
X144926247Y-89194072D01*
X144921035Y-89192249D01*
X144915548Y-89192867D01*
X144889491Y-89195803D01*
X144884005Y-89196111D01*
X144875419Y-89196111D01*
X144872738Y-89196722D01*
X144872735Y-89196723D01*
X144867047Y-89198021D01*
X144861638Y-89198940D01*
X144835569Y-89201877D01*
X144835564Y-89201878D01*
X144830085Y-89202496D01*
X144825411Y-89205432D01*
X144820201Y-89207256D01*
X144820184Y-89207209D01*
X144819113Y-89207652D01*
X144819135Y-89207697D01*
X144814161Y-89210092D01*
X144808778Y-89211321D01*
X144804461Y-89214763D01*
X144804460Y-89214764D01*
X144783955Y-89231116D01*
X144779480Y-89234292D01*
X144774540Y-89237396D01*
X144774533Y-89237401D01*
X144772207Y-89238863D01*
X144770264Y-89240805D01*
X144770261Y-89240808D01*
X144766135Y-89244934D01*
X144762045Y-89248588D01*
X144741537Y-89264944D01*
X144741535Y-89264946D01*
X144737221Y-89268387D01*
X144734826Y-89273358D01*
X144731384Y-89277675D01*
X144731344Y-89277643D01*
X144726259Y-89284809D01*
X144355423Y-89655648D01*
X144339527Y-89666270D01*
X144320775Y-89670000D01*
X142110861Y-89670000D01*
X142083638Y-89661742D01*
X142065591Y-89639752D01*
X142062802Y-89611441D01*
X142072961Y-89560364D01*
X142075918Y-89545500D01*
X142075860Y-89545213D01*
X142078704Y-89530910D01*
X142089325Y-89515012D01*
X142350430Y-89253909D01*
X142350429Y-89253909D01*
X142364935Y-89239404D01*
X142368573Y-89225821D01*
X142373467Y-89214005D01*
X142380500Y-89201827D01*
X142380501Y-89121174D01*
X142380500Y-89121172D01*
X142380500Y-88577635D01*
X142394852Y-88542987D01*
X142867987Y-88069852D01*
X142902635Y-88055500D01*
X143281876Y-88055500D01*
X143288327Y-88055500D01*
X143300505Y-88048467D01*
X143312321Y-88043573D01*
X143325904Y-88039935D01*
X143382935Y-87982905D01*
X143382935Y-87982903D01*
X143570680Y-87795159D01*
X143570680Y-87795158D01*
X143585185Y-87780654D01*
X143588823Y-87767071D01*
X143593717Y-87755255D01*
X143600750Y-87743077D01*
X143600751Y-87662423D01*
X143600750Y-87662421D01*
X143600750Y-87580498D01*
X144579582Y-87580498D01*
X144580523Y-87585229D01*
X144596141Y-87663751D01*
X144596142Y-87663753D01*
X144597083Y-87668484D01*
X144599764Y-87672496D01*
X144643522Y-87737986D01*
X144646923Y-87743075D01*
X144721514Y-87792915D01*
X144809500Y-87810416D01*
X144897486Y-87792915D01*
X144972077Y-87743075D01*
X145021917Y-87668484D01*
X145039418Y-87580498D01*
X145021917Y-87492512D01*
X144972077Y-87417921D01*
X144897486Y-87368081D01*
X144892755Y-87367140D01*
X144892753Y-87367139D01*
X144814231Y-87351521D01*
X144809500Y-87350580D01*
X144804769Y-87351521D01*
X144726246Y-87367139D01*
X144726242Y-87367140D01*
X144721514Y-87368081D01*
X144717502Y-87370761D01*
X144717501Y-87370762D01*
X144650934Y-87415240D01*
X144650931Y-87415242D01*
X144646923Y-87417921D01*
X144644244Y-87421929D01*
X144644242Y-87421932D01*
X144600483Y-87487423D01*
X144597083Y-87492512D01*
X144596142Y-87497240D01*
X144596141Y-87497244D01*
X144582317Y-87566746D01*
X144579582Y-87580498D01*
X143600750Y-87580498D01*
X143600750Y-87317385D01*
X143615102Y-87282737D01*
X143949987Y-86947852D01*
X143984635Y-86933500D01*
X144774876Y-86933500D01*
X144781327Y-86933500D01*
X144793505Y-86926467D01*
X144805321Y-86921573D01*
X144818904Y-86917935D01*
X144875935Y-86860905D01*
X144875935Y-86860903D01*
X145207491Y-86529348D01*
X145221996Y-86514843D01*
X145225634Y-86501260D01*
X145230528Y-86489444D01*
X145237561Y-86477266D01*
X145237561Y-86396613D01*
X145237561Y-86332993D01*
X145250249Y-86302359D01*
X145249638Y-86301951D01*
X145250190Y-86301125D01*
X145299478Y-86227360D01*
X145316979Y-86139374D01*
X145299478Y-86051388D01*
X145249638Y-85976797D01*
X145205398Y-85947236D01*
X145187351Y-85925246D01*
X145184564Y-85896932D01*
X145195875Y-85875776D01*
X145195577Y-85875577D01*
X145195577Y-85875576D01*
X145245417Y-85800986D01*
X145262918Y-85713000D01*
X145245417Y-85625014D01*
X145195577Y-85550423D01*
X145190864Y-85547274D01*
X145124998Y-85503264D01*
X145124999Y-85503264D01*
X145120986Y-85500583D01*
X145116255Y-85499642D01*
X145116253Y-85499641D01*
X145037731Y-85484023D01*
X145033000Y-85483082D01*
X145028269Y-85484023D01*
X144949746Y-85499641D01*
X144949742Y-85499642D01*
X144945014Y-85500583D01*
X144941002Y-85503263D01*
X144941001Y-85503264D01*
X144874434Y-85547742D01*
X144874431Y-85547744D01*
X144873501Y-85548365D01*
X144873499Y-85548367D01*
X144870423Y-85550423D01*
X144870014Y-85549811D01*
X144839381Y-85562500D01*
X144499327Y-85562500D01*
X144418673Y-85562500D01*
X144413088Y-85565723D01*
X144413085Y-85565725D01*
X144406492Y-85569532D01*
X144394679Y-85574425D01*
X144381096Y-85578065D01*
X144376538Y-85582622D01*
X144376536Y-85582624D01*
X144324064Y-85635096D01*
X143438154Y-86521005D01*
X143413065Y-86534416D01*
X143384754Y-86531627D01*
X143362765Y-86513581D01*
X143320540Y-86450386D01*
X143310400Y-86443611D01*
X143276564Y-86421002D01*
X143245949Y-86400546D01*
X143241218Y-86399605D01*
X143241216Y-86399604D01*
X143162694Y-86383986D01*
X143157963Y-86383045D01*
X143153232Y-86383986D01*
X143074709Y-86399604D01*
X143074705Y-86399605D01*
X143069977Y-86400546D01*
X143065965Y-86403226D01*
X143065964Y-86403227D01*
X142999397Y-86447705D01*
X142999394Y-86447707D01*
X142995386Y-86450386D01*
X142992707Y-86454394D01*
X142992705Y-86454397D01*
X142948227Y-86520964D01*
X142945546Y-86524977D01*
X142944605Y-86529705D01*
X142944604Y-86529709D01*
X142934403Y-86580997D01*
X142928045Y-86612963D01*
X142928986Y-86617694D01*
X142944604Y-86696216D01*
X142944605Y-86696218D01*
X142945546Y-86700949D01*
X142952277Y-86711023D01*
X142992372Y-86771030D01*
X142995386Y-86775540D01*
X142999397Y-86778220D01*
X143058580Y-86817765D01*
X143076627Y-86839755D01*
X143079416Y-86868066D01*
X143066006Y-86893154D01*
X143040315Y-86918846D01*
X143038646Y-86925073D01*
X143038645Y-86925076D01*
X143036675Y-86932430D01*
X143031782Y-86944242D01*
X143027975Y-86950835D01*
X143027973Y-86950838D01*
X143024750Y-86956423D01*
X143024749Y-86958013D01*
X143006722Y-86983170D01*
X142973104Y-86991009D01*
X142942660Y-86974736D01*
X142930500Y-86942428D01*
X142930500Y-86916124D01*
X142930500Y-86909673D01*
X142923469Y-86897497D01*
X142918573Y-86885676D01*
X142914935Y-86872096D01*
X142910376Y-86867537D01*
X142910375Y-86867535D01*
X142857905Y-86815065D01*
X142857903Y-86815064D01*
X141422839Y-85380000D01*
X143795082Y-85380000D01*
X143796023Y-85384731D01*
X143811641Y-85463253D01*
X143811642Y-85463255D01*
X143812583Y-85467986D01*
X143822670Y-85483082D01*
X143858430Y-85536602D01*
X143862423Y-85542577D01*
X143937014Y-85592417D01*
X144025000Y-85609918D01*
X144112986Y-85592417D01*
X144187577Y-85542577D01*
X144237417Y-85467986D01*
X144254918Y-85380000D01*
X144237417Y-85292014D01*
X144187577Y-85217423D01*
X144112986Y-85167583D01*
X144108255Y-85166642D01*
X144108253Y-85166641D01*
X144029731Y-85151023D01*
X144025000Y-85150082D01*
X144020269Y-85151023D01*
X143941746Y-85166641D01*
X143941742Y-85166642D01*
X143937014Y-85167583D01*
X143933002Y-85170263D01*
X143933001Y-85170264D01*
X143866434Y-85214742D01*
X143866431Y-85214744D01*
X143862423Y-85217423D01*
X143859744Y-85221431D01*
X143859742Y-85221434D01*
X143827353Y-85269909D01*
X143812583Y-85292014D01*
X143811642Y-85296742D01*
X143811641Y-85296746D01*
X143796524Y-85372748D01*
X143795082Y-85380000D01*
X141422839Y-85380000D01*
X140981246Y-84938407D01*
X140967836Y-84913318D01*
X140970624Y-84885007D01*
X140988671Y-84863017D01*
X141055926Y-84818079D01*
X141105766Y-84743488D01*
X141123267Y-84655502D01*
X141105766Y-84567516D01*
X141055926Y-84492925D01*
X141046922Y-84486909D01*
X141029099Y-84475000D01*
X142295082Y-84475000D01*
X142296023Y-84479731D01*
X142311641Y-84558253D01*
X142311642Y-84558255D01*
X142312583Y-84562986D01*
X142317604Y-84570500D01*
X142345404Y-84612107D01*
X142362423Y-84637577D01*
X142437014Y-84687417D01*
X142525000Y-84704918D01*
X142612986Y-84687417D01*
X142687577Y-84637577D01*
X142737417Y-84562986D01*
X142754918Y-84475000D01*
X142737417Y-84387014D01*
X142687577Y-84312423D01*
X142612986Y-84262583D01*
X142608255Y-84261642D01*
X142608253Y-84261641D01*
X142529731Y-84246023D01*
X142525000Y-84245082D01*
X142520269Y-84246023D01*
X142441746Y-84261641D01*
X142441742Y-84261642D01*
X142437014Y-84262583D01*
X142433002Y-84265263D01*
X142433001Y-84265264D01*
X142366434Y-84309742D01*
X142366431Y-84309744D01*
X142362423Y-84312423D01*
X142359744Y-84316431D01*
X142359742Y-84316434D01*
X142315264Y-84383001D01*
X142312583Y-84387014D01*
X142311642Y-84391742D01*
X142311641Y-84391746D01*
X142299057Y-84455014D01*
X142295082Y-84475000D01*
X141029099Y-84475000D01*
X140985346Y-84445765D01*
X140985345Y-84445764D01*
X140981335Y-84443085D01*
X140974868Y-84441798D01*
X140949785Y-84428389D01*
X140934852Y-84413456D01*
X140920500Y-84378808D01*
X140920500Y-82356688D01*
X140921971Y-82348028D01*
X140921920Y-82348023D01*
X140922537Y-82342539D01*
X140924362Y-82337326D01*
X140920807Y-82305781D01*
X140920500Y-82300296D01*
X140920500Y-82294465D01*
X140920500Y-82291710D01*
X140918588Y-82283338D01*
X140917669Y-82277924D01*
X140914733Y-82251865D01*
X140914115Y-82246376D01*
X140911174Y-82241697D01*
X140909353Y-82236491D01*
X140909402Y-82236473D01*
X140908960Y-82235405D01*
X140908914Y-82235428D01*
X140906518Y-82230453D01*
X140905290Y-82225069D01*
X140885489Y-82200241D01*
X140882309Y-82195758D01*
X140879214Y-82190832D01*
X140877748Y-82188498D01*
X140871680Y-82182430D01*
X140868019Y-82178334D01*
X140851665Y-82157827D01*
X140848224Y-82153512D01*
X140843250Y-82151116D01*
X140840727Y-82149104D01*
X140826127Y-82125125D01*
X140825206Y-82125507D01*
X140823358Y-82121046D01*
X140822417Y-82116314D01*
X140809327Y-82096723D01*
X140801488Y-82063104D01*
X140817761Y-82032660D01*
X140850069Y-82020500D01*
X141780889Y-82020500D01*
X141783646Y-82020500D01*
X141897998Y-81994400D01*
X142003675Y-81943509D01*
X142005824Y-81941794D01*
X142005829Y-81941792D01*
X142044828Y-81910691D01*
X142075379Y-81900000D01*
X142974621Y-81900000D01*
X143005172Y-81910691D01*
G37*
%TD.AperFunction*%
%TA.AperFunction,Conductor*%
G36*
X139848013Y-84584852D02*
G01*
X142005112Y-86741951D01*
X142019464Y-86776599D01*
X142019464Y-87841658D01*
X142006775Y-87872291D01*
X142007387Y-87872700D01*
X142005331Y-87875776D01*
X142005329Y-87875778D01*
X142004708Y-87876708D01*
X142004706Y-87876711D01*
X141965425Y-87935500D01*
X141957547Y-87947291D01*
X141956606Y-87952019D01*
X141956605Y-87952023D01*
X141945155Y-88009590D01*
X141940046Y-88035277D01*
X141940987Y-88040008D01*
X141956605Y-88118530D01*
X141956606Y-88118532D01*
X141957547Y-88123263D01*
X142007387Y-88197854D01*
X142081978Y-88247694D01*
X142144280Y-88260086D01*
X142173593Y-88278314D01*
X142183614Y-88311347D01*
X142169368Y-88342791D01*
X142152096Y-88360064D01*
X142152094Y-88360066D01*
X142152095Y-88360066D01*
X142095065Y-88417096D01*
X142093396Y-88423323D01*
X142093395Y-88423326D01*
X142091425Y-88430680D01*
X142086532Y-88442492D01*
X142082725Y-88449085D01*
X142082723Y-88449088D01*
X142079500Y-88454673D01*
X142079499Y-88461119D01*
X142079499Y-88461123D01*
X142079499Y-88497017D01*
X142079499Y-88535326D01*
X142079500Y-88535328D01*
X142079500Y-89078865D01*
X142075770Y-89097617D01*
X142065148Y-89113513D01*
X141876489Y-89302171D01*
X141845856Y-89314859D01*
X141846000Y-89315582D01*
X141842369Y-89316304D01*
X141842367Y-89316304D01*
X141841269Y-89316523D01*
X141762746Y-89332141D01*
X141762742Y-89332142D01*
X141758014Y-89333083D01*
X141754002Y-89335763D01*
X141754001Y-89335764D01*
X141692686Y-89376733D01*
X141660884Y-89384777D01*
X141631135Y-89370956D01*
X141616771Y-89341468D01*
X141616307Y-89337348D01*
X141616000Y-89331873D01*
X141616000Y-89326045D01*
X141616000Y-89323290D01*
X141614087Y-89314913D01*
X141613171Y-89309517D01*
X141609616Y-89277956D01*
X141606678Y-89273281D01*
X141604855Y-89268070D01*
X141604903Y-89268053D01*
X141604460Y-89266983D01*
X141604414Y-89267006D01*
X141602018Y-89262030D01*
X141600790Y-89256649D01*
X141591448Y-89244934D01*
X141580986Y-89231815D01*
X141577816Y-89227348D01*
X141573248Y-89220079D01*
X141567181Y-89214012D01*
X141563528Y-89209925D01*
X141543724Y-89185092D01*
X141538749Y-89182696D01*
X141534433Y-89179254D01*
X141534464Y-89179214D01*
X141527298Y-89174129D01*
X141031369Y-88678200D01*
X141026286Y-88671035D01*
X141026246Y-88671068D01*
X141022804Y-88666751D01*
X141020408Y-88661776D01*
X141016090Y-88658332D01*
X141016089Y-88658331D01*
X140995584Y-88641979D01*
X140991487Y-88638318D01*
X140989852Y-88636683D01*
X140975500Y-88602035D01*
X140975500Y-87650000D01*
X141247082Y-87650000D01*
X141248023Y-87654731D01*
X141263641Y-87733253D01*
X141263642Y-87733255D01*
X141264583Y-87737986D01*
X141314423Y-87812577D01*
X141389014Y-87862417D01*
X141477000Y-87879918D01*
X141564986Y-87862417D01*
X141639577Y-87812577D01*
X141689417Y-87737986D01*
X141706918Y-87650000D01*
X141689417Y-87562014D01*
X141639577Y-87487423D01*
X141564986Y-87437583D01*
X141560255Y-87436642D01*
X141560253Y-87436641D01*
X141481731Y-87421023D01*
X141477000Y-87420082D01*
X141472269Y-87421023D01*
X141393746Y-87436641D01*
X141393742Y-87436642D01*
X141389014Y-87437583D01*
X141385002Y-87440263D01*
X141385001Y-87440264D01*
X141318434Y-87484742D01*
X141318431Y-87484744D01*
X141314423Y-87487423D01*
X141311744Y-87491431D01*
X141311742Y-87491434D01*
X141267264Y-87558001D01*
X141264583Y-87562014D01*
X141263642Y-87566742D01*
X141263641Y-87566746D01*
X141248023Y-87645269D01*
X141247082Y-87650000D01*
X140975500Y-87650000D01*
X140975500Y-87020685D01*
X140983758Y-86993462D01*
X140987417Y-86987986D01*
X141004918Y-86900000D01*
X141003556Y-86893155D01*
X140997323Y-86861815D01*
X140987417Y-86812014D01*
X140983757Y-86806537D01*
X140975500Y-86779315D01*
X140975500Y-86237388D01*
X140976971Y-86228728D01*
X140976920Y-86228723D01*
X140977537Y-86223239D01*
X140979362Y-86218026D01*
X140975808Y-86186478D01*
X140975500Y-86180993D01*
X140975500Y-86175165D01*
X140975500Y-86172410D01*
X140973587Y-86164033D01*
X140972671Y-86158637D01*
X140969116Y-86127076D01*
X140966178Y-86122401D01*
X140964355Y-86117190D01*
X140964403Y-86117173D01*
X140963960Y-86116103D01*
X140963914Y-86116126D01*
X140961518Y-86111150D01*
X140960290Y-86105769D01*
X140948133Y-86090524D01*
X140940486Y-86080935D01*
X140937316Y-86076468D01*
X140932748Y-86069199D01*
X140926681Y-86063132D01*
X140923028Y-86059045D01*
X140903224Y-86034212D01*
X140898249Y-86031816D01*
X140893933Y-86028374D01*
X140893964Y-86028334D01*
X140886798Y-86023249D01*
X139671596Y-84808047D01*
X139659354Y-84787622D01*
X139658186Y-84763842D01*
X139664918Y-84730000D01*
X139647417Y-84642014D01*
X139644833Y-84638147D01*
X139642780Y-84606818D01*
X139660281Y-84580626D01*
X139690110Y-84570500D01*
X139813365Y-84570500D01*
X139848013Y-84584852D01*
G37*
%TD.AperFunction*%
%TA.AperFunction,Conductor*%
G36*
X139780407Y-86094230D02*
G01*
X139796302Y-86104851D01*
X139974125Y-86282675D01*
X140147887Y-86456437D01*
X140161296Y-86481520D01*
X140161640Y-86483250D01*
X140161641Y-86483254D01*
X140162583Y-86487986D01*
X140165262Y-86491996D01*
X140165263Y-86491997D01*
X140187299Y-86524977D01*
X140212423Y-86562577D01*
X140287014Y-86612417D01*
X140375000Y-86629918D01*
X140462986Y-86612417D01*
X140498277Y-86588835D01*
X140531896Y-86580997D01*
X140562340Y-86597270D01*
X140574500Y-86629578D01*
X140574500Y-86779315D01*
X140566242Y-86806537D01*
X140562583Y-86812014D01*
X140561642Y-86816742D01*
X140561641Y-86816746D01*
X140546023Y-86895269D01*
X140545082Y-86900000D01*
X140546023Y-86904731D01*
X140561641Y-86983253D01*
X140561642Y-86983255D01*
X140562583Y-86987986D01*
X140565264Y-86991998D01*
X140566242Y-86993462D01*
X140574500Y-87020685D01*
X140574500Y-88550500D01*
X140560148Y-88585148D01*
X140525500Y-88599500D01*
X139424283Y-88599500D01*
X139389635Y-88585148D01*
X138872549Y-88068062D01*
X138859138Y-88042972D01*
X138858866Y-88041602D01*
X138849097Y-87992488D01*
X138799257Y-87917897D01*
X138724666Y-87868057D01*
X138719935Y-87867116D01*
X138719933Y-87867115D01*
X138641411Y-87851497D01*
X138636680Y-87850556D01*
X138631949Y-87851497D01*
X138554349Y-87866932D01*
X138526038Y-87864143D01*
X138504048Y-87846096D01*
X138495790Y-87818873D01*
X138495790Y-87776927D01*
X138499643Y-87760041D01*
X138500290Y-87759231D01*
X138501518Y-87753848D01*
X138503914Y-87748873D01*
X138503961Y-87748895D01*
X138504402Y-87747829D01*
X138504354Y-87747812D01*
X138506178Y-87742598D01*
X138509116Y-87737924D01*
X138512670Y-87706367D01*
X138513589Y-87700960D01*
X138515500Y-87692590D01*
X138515500Y-87684007D01*
X138515808Y-87678522D01*
X138518744Y-87652459D01*
X138519362Y-87646974D01*
X138517538Y-87641762D01*
X138516920Y-87636277D01*
X138516971Y-87636271D01*
X138515500Y-87627612D01*
X138515500Y-86483345D01*
X138519230Y-86464593D01*
X138529852Y-86448697D01*
X138873698Y-86104852D01*
X138908346Y-86090500D01*
X139761655Y-86090500D01*
X139780407Y-86094230D01*
G37*
%TD.AperFunction*%
%TA.AperFunction,Conductor*%
G36*
X140402239Y-82032660D02*
G01*
X140418512Y-82063104D01*
X140410673Y-82096723D01*
X140400264Y-82112300D01*
X140400262Y-82112304D01*
X140397583Y-82116314D01*
X140396642Y-82121042D01*
X140396641Y-82121046D01*
X140382890Y-82190184D01*
X140380082Y-82204300D01*
X140381023Y-82209031D01*
X140396641Y-82287553D01*
X140396642Y-82287555D01*
X140397583Y-82292286D01*
X140416147Y-82320069D01*
X140435454Y-82348965D01*
X140447423Y-82366877D01*
X140451434Y-82369557D01*
X140497723Y-82400486D01*
X140513714Y-82418129D01*
X140519500Y-82441228D01*
X140519500Y-84358365D01*
X140505148Y-84393013D01*
X140470500Y-84407365D01*
X140435852Y-84393013D01*
X140042409Y-83999570D01*
X140042409Y-83999569D01*
X140027904Y-83985065D01*
X140014323Y-83981426D01*
X140002506Y-83976531D01*
X139995914Y-83972725D01*
X139995911Y-83972724D01*
X139990327Y-83969500D01*
X139983879Y-83969499D01*
X139983876Y-83969499D01*
X139909679Y-83969499D01*
X139909678Y-83969499D01*
X139909674Y-83969499D01*
X139909672Y-83969499D01*
X139909671Y-83969500D01*
X139200327Y-83969500D01*
X139119673Y-83969500D01*
X139114088Y-83972723D01*
X139114085Y-83972725D01*
X139107492Y-83976532D01*
X139095680Y-83981425D01*
X139092002Y-83982410D01*
X139082096Y-83985065D01*
X139077538Y-83989622D01*
X139077536Y-83989624D01*
X139025065Y-84042094D01*
X139025065Y-84042095D01*
X139025064Y-84042096D01*
X138657096Y-84410065D01*
X138629738Y-84437423D01*
X138604721Y-84462440D01*
X138579632Y-84475850D01*
X138551321Y-84473061D01*
X138529331Y-84455014D01*
X138521951Y-84443969D01*
X138517577Y-84437423D01*
X138501563Y-84426723D01*
X138452868Y-84394186D01*
X138442986Y-84387583D01*
X138438255Y-84386642D01*
X138438253Y-84386641D01*
X138359731Y-84371023D01*
X138355000Y-84370082D01*
X138350269Y-84371023D01*
X138271746Y-84386641D01*
X138271742Y-84386642D01*
X138267014Y-84387583D01*
X138263002Y-84390263D01*
X138263001Y-84390264D01*
X138196434Y-84434742D01*
X138196431Y-84434744D01*
X138192423Y-84437423D01*
X138189744Y-84441431D01*
X138189744Y-84441432D01*
X138159468Y-84486743D01*
X138137477Y-84504789D01*
X138109166Y-84507577D01*
X138085609Y-84494985D01*
X138084365Y-84493123D01*
X138080056Y-84490244D01*
X138040230Y-84463633D01*
X138009774Y-84443283D01*
X138005043Y-84442342D01*
X138005041Y-84442341D01*
X137926519Y-84426723D01*
X137921788Y-84425782D01*
X137917057Y-84426723D01*
X137838534Y-84442341D01*
X137838530Y-84442342D01*
X137833802Y-84443283D01*
X137829790Y-84445963D01*
X137829789Y-84445964D01*
X137790723Y-84472067D01*
X137757104Y-84479906D01*
X137726660Y-84463633D01*
X137714500Y-84431325D01*
X137714500Y-84380124D01*
X137714500Y-84373673D01*
X137707469Y-84361497D01*
X137702573Y-84349676D01*
X137702177Y-84348199D01*
X137698935Y-84336096D01*
X137694376Y-84331537D01*
X137694375Y-84331535D01*
X137641905Y-84279065D01*
X137641903Y-84279064D01*
X137517409Y-84154570D01*
X137517409Y-84154569D01*
X137502904Y-84140065D01*
X137489323Y-84136426D01*
X137477507Y-84131532D01*
X137469501Y-84126910D01*
X137451565Y-84108975D01*
X137445000Y-84084474D01*
X137445000Y-83453749D01*
X137445166Y-83449920D01*
X137445500Y-83448031D01*
X137445500Y-83350000D01*
X137445500Y-83317712D01*
X137445500Y-82752407D01*
X137445736Y-82747605D01*
X137448985Y-82714618D01*
X137459044Y-82612475D01*
X137460914Y-82603074D01*
X137499631Y-82475443D01*
X137503304Y-82466577D01*
X137566172Y-82348959D01*
X137571499Y-82340987D01*
X137656108Y-82237891D01*
X137662891Y-82231108D01*
X137765987Y-82146499D01*
X137773959Y-82141172D01*
X137891579Y-82078302D01*
X137900443Y-82074631D01*
X138028074Y-82035914D01*
X138037475Y-82034044D01*
X138158029Y-82022171D01*
X138172605Y-82020736D01*
X138177407Y-82020500D01*
X138207288Y-82020500D01*
X140369931Y-82020500D01*
X140402239Y-82032660D01*
G37*
%TD.AperFunction*%
%TA.AperFunction,Conductor*%
G36*
X159865148Y-65134852D02*
G01*
X159879500Y-65169500D01*
X159879500Y-124830500D01*
X159865148Y-124865148D01*
X159830500Y-124879500D01*
X100169500Y-124879500D01*
X100134852Y-124865148D01*
X100120500Y-124830500D01*
X100120500Y-98496945D01*
X115387018Y-98496945D01*
X115387312Y-98499122D01*
X115387313Y-98499124D01*
X115417268Y-98720263D01*
X115417269Y-98720268D01*
X115417563Y-98722437D01*
X115418238Y-98724514D01*
X115418240Y-98724523D01*
X115453891Y-98834243D01*
X115487880Y-98938851D01*
X115488917Y-98940779D01*
X115488921Y-98940787D01*
X115594670Y-99137301D01*
X115594674Y-99137308D01*
X115595710Y-99139232D01*
X115737585Y-99317138D01*
X115908948Y-99466853D01*
X116104289Y-99583564D01*
X116317330Y-99663520D01*
X116541224Y-99704150D01*
X116710671Y-99704150D01*
X116711775Y-99704150D01*
X116881635Y-99688862D01*
X117100986Y-99628325D01*
X117306003Y-99529595D01*
X117490095Y-99395843D01*
X117647347Y-99231371D01*
X117772705Y-99041463D01*
X117862138Y-98832223D01*
X117912773Y-98610377D01*
X117917867Y-98496945D01*
X118562018Y-98496945D01*
X118562312Y-98499122D01*
X118562313Y-98499124D01*
X118592268Y-98720263D01*
X118592269Y-98720268D01*
X118592563Y-98722437D01*
X118593238Y-98724514D01*
X118593240Y-98724523D01*
X118628891Y-98834243D01*
X118662880Y-98938851D01*
X118663917Y-98940779D01*
X118663921Y-98940787D01*
X118769670Y-99137301D01*
X118769674Y-99137308D01*
X118770710Y-99139232D01*
X118912585Y-99317138D01*
X119083948Y-99466853D01*
X119279289Y-99583564D01*
X119492330Y-99663520D01*
X119716224Y-99704150D01*
X119885671Y-99704150D01*
X119886775Y-99704150D01*
X120056635Y-99688862D01*
X120275986Y-99628325D01*
X120481003Y-99529595D01*
X120665095Y-99395843D01*
X120822347Y-99231371D01*
X120947705Y-99041463D01*
X121037138Y-98832223D01*
X121087773Y-98610377D01*
X121097982Y-98383055D01*
X121067437Y-98157563D01*
X120997120Y-97941149D01*
X120996078Y-97939212D01*
X120890329Y-97742698D01*
X120890326Y-97742694D01*
X120889290Y-97740768D01*
X120747415Y-97562862D01*
X120725531Y-97543743D01*
X120577707Y-97414593D01*
X120576052Y-97413147D01*
X120469443Y-97349451D01*
X120382601Y-97297565D01*
X120382599Y-97297564D01*
X120380711Y-97296436D01*
X120372811Y-97293471D01*
X120169736Y-97217255D01*
X120169732Y-97217253D01*
X120167670Y-97216480D01*
X120165510Y-97216088D01*
X120165503Y-97216086D01*
X119945938Y-97176242D01*
X119945934Y-97176241D01*
X119943776Y-97175850D01*
X119773225Y-97175850D01*
X119772144Y-97175947D01*
X119772128Y-97175948D01*
X119605552Y-97190941D01*
X119605550Y-97190941D01*
X119603365Y-97191138D01*
X119601256Y-97191719D01*
X119601245Y-97191722D01*
X119386131Y-97251090D01*
X119386123Y-97251092D01*
X119384014Y-97251675D01*
X119382046Y-97252622D01*
X119382037Y-97252626D01*
X119180976Y-97349451D01*
X119180967Y-97349456D01*
X119178997Y-97350405D01*
X119177228Y-97351690D01*
X119177220Y-97351695D01*
X118996683Y-97482864D01*
X118996674Y-97482871D01*
X118994905Y-97484157D01*
X118993388Y-97485743D01*
X118993383Y-97485748D01*
X118839175Y-97647036D01*
X118839169Y-97647042D01*
X118837653Y-97648629D01*
X118836443Y-97650461D01*
X118836439Y-97650467D01*
X118713507Y-97836699D01*
X118713501Y-97836709D01*
X118712295Y-97838537D01*
X118711435Y-97840547D01*
X118711429Y-97840560D01*
X118623725Y-98045756D01*
X118623722Y-98045763D01*
X118622862Y-98047777D01*
X118622374Y-98049910D01*
X118622372Y-98049920D01*
X118572717Y-98267475D01*
X118572227Y-98269623D01*
X118572128Y-98271814D01*
X118572128Y-98271819D01*
X118562116Y-98494747D01*
X118562116Y-98494754D01*
X118562018Y-98496945D01*
X117917867Y-98496945D01*
X117922982Y-98383055D01*
X117892437Y-98157563D01*
X117822120Y-97941149D01*
X117821078Y-97939212D01*
X117715329Y-97742698D01*
X117715326Y-97742694D01*
X117714290Y-97740768D01*
X117572415Y-97562862D01*
X117550531Y-97543743D01*
X117402707Y-97414593D01*
X117401052Y-97413147D01*
X117294443Y-97349451D01*
X117278625Y-97340000D01*
X117744592Y-97340000D01*
X117745534Y-97344736D01*
X117763092Y-97433007D01*
X117763093Y-97433009D01*
X117764034Y-97437740D01*
X117766713Y-97441750D01*
X117766714Y-97441751D01*
X117809303Y-97505492D01*
X117819399Y-97520601D01*
X117902260Y-97575966D01*
X118000000Y-97595408D01*
X118097740Y-97575966D01*
X118138460Y-97548758D01*
X118165683Y-97540500D01*
X118657612Y-97540500D01*
X118666271Y-97541971D01*
X118666277Y-97541920D01*
X118671760Y-97542537D01*
X118676974Y-97544362D01*
X118708521Y-97540808D01*
X118714007Y-97540500D01*
X118719836Y-97540500D01*
X118722590Y-97540500D01*
X118730960Y-97538589D01*
X118736367Y-97537670D01*
X118767924Y-97534116D01*
X118772598Y-97531178D01*
X118777812Y-97529354D01*
X118777829Y-97529402D01*
X118778894Y-97528961D01*
X118778872Y-97528914D01*
X118783844Y-97526519D01*
X118789231Y-97525290D01*
X118814064Y-97505485D01*
X118818537Y-97502312D01*
X118825801Y-97497748D01*
X118831877Y-97491671D01*
X118835946Y-97488033D01*
X118860788Y-97468224D01*
X118863183Y-97463249D01*
X118866626Y-97458932D01*
X118866665Y-97458963D01*
X118871747Y-97451800D01*
X119268697Y-97054852D01*
X119303346Y-97040500D01*
X120817612Y-97040500D01*
X120826271Y-97041971D01*
X120826277Y-97041920D01*
X120831760Y-97042537D01*
X120836974Y-97044362D01*
X120868521Y-97040808D01*
X120874007Y-97040500D01*
X120879836Y-97040500D01*
X120882590Y-97040500D01*
X120890960Y-97038589D01*
X120896367Y-97037670D01*
X120927924Y-97034116D01*
X120932598Y-97031178D01*
X120937812Y-97029354D01*
X120937829Y-97029402D01*
X120938894Y-97028961D01*
X120938872Y-97028914D01*
X120943844Y-97026519D01*
X120949231Y-97025290D01*
X120974064Y-97005485D01*
X120978537Y-97002312D01*
X120985801Y-96997748D01*
X120991877Y-96991671D01*
X120995946Y-96988033D01*
X121020788Y-96968224D01*
X121023183Y-96963249D01*
X121026626Y-96958932D01*
X121026665Y-96958963D01*
X121031747Y-96951800D01*
X132968697Y-85014852D01*
X133003346Y-85000500D01*
X133644841Y-85000500D01*
X133647590Y-85000500D01*
X133714231Y-84985290D01*
X133785788Y-84928224D01*
X133825500Y-84845763D01*
X133825500Y-84832635D01*
X133839852Y-84797987D01*
X133984544Y-84653295D01*
X134019192Y-84638943D01*
X134676000Y-84638943D01*
X134710648Y-84653295D01*
X134725000Y-84687943D01*
X134725000Y-84722185D01*
X134720439Y-84739195D01*
X134721646Y-84739635D01*
X134720179Y-84743662D01*
X134718037Y-84747374D01*
X134699941Y-84850000D01*
X134718037Y-84952626D01*
X134720180Y-84956338D01*
X134721646Y-84960365D01*
X134720439Y-84960804D01*
X134725000Y-84977815D01*
X134725000Y-85200500D01*
X134710648Y-85235148D01*
X134676000Y-85249500D01*
X133465327Y-85249500D01*
X133384673Y-85249500D01*
X133379088Y-85252723D01*
X133379085Y-85252725D01*
X133372492Y-85256532D01*
X133360679Y-85261425D01*
X133347096Y-85265065D01*
X133342537Y-85269623D01*
X133342535Y-85269625D01*
X133324644Y-85287515D01*
X133295484Y-85301557D01*
X133262559Y-85305267D01*
X133262557Y-85305267D01*
X133257076Y-85305885D01*
X133252407Y-85308818D01*
X133252403Y-85308820D01*
X133201528Y-85340787D01*
X133201522Y-85340791D01*
X133199198Y-85342252D01*
X133197254Y-85344195D01*
X133197250Y-85344199D01*
X125143199Y-93398250D01*
X125136033Y-93403336D01*
X125136064Y-93403375D01*
X125131745Y-93406818D01*
X125126776Y-93409212D01*
X125123338Y-93413522D01*
X125123334Y-93413526D01*
X125106973Y-93434041D01*
X125103319Y-93438131D01*
X125099197Y-93442253D01*
X125099194Y-93442256D01*
X125097252Y-93444199D01*
X125095787Y-93446529D01*
X125095786Y-93446531D01*
X125092685Y-93451465D01*
X125089512Y-93455936D01*
X125080766Y-93466904D01*
X125069710Y-93480769D01*
X125068481Y-93486151D01*
X125066086Y-93491125D01*
X125066041Y-93491103D01*
X125065597Y-93492174D01*
X125065644Y-93492191D01*
X125063820Y-93497402D01*
X125060884Y-93502076D01*
X125060266Y-93507556D01*
X125060265Y-93507561D01*
X125057328Y-93533631D01*
X125056409Y-93539038D01*
X125055112Y-93544721D01*
X125055110Y-93544734D01*
X125054500Y-93547410D01*
X125054500Y-93550161D01*
X125054500Y-93555993D01*
X125054192Y-93561478D01*
X125051869Y-93582102D01*
X125050638Y-93593026D01*
X125052461Y-93598238D01*
X125053080Y-93603723D01*
X125053028Y-93603728D01*
X125054500Y-93612388D01*
X125054500Y-95869317D01*
X125046242Y-95896539D01*
X125021716Y-95933245D01*
X125021714Y-95933247D01*
X125019034Y-95937260D01*
X124999592Y-96035000D01*
X125000534Y-96039736D01*
X125018092Y-96128007D01*
X125018093Y-96128009D01*
X125019034Y-96132740D01*
X125021713Y-96136750D01*
X125021714Y-96136751D01*
X125056269Y-96188468D01*
X125074399Y-96215601D01*
X125157260Y-96270966D01*
X125255000Y-96290408D01*
X125352740Y-96270966D01*
X125435601Y-96215601D01*
X125490966Y-96132740D01*
X125510408Y-96035000D01*
X125490966Y-95937260D01*
X125463758Y-95896539D01*
X125455500Y-95869317D01*
X125455500Y-93673345D01*
X125459230Y-93654594D01*
X125469852Y-93638697D01*
X129468797Y-89639752D01*
X133482748Y-85625802D01*
X133493320Y-85608977D01*
X133515656Y-85573430D01*
X133533443Y-85556614D01*
X133557145Y-85550500D01*
X134676000Y-85550500D01*
X134710648Y-85564852D01*
X134725000Y-85599500D01*
X134725000Y-86081419D01*
X134724256Y-86089928D01*
X134706119Y-86192789D01*
X134704500Y-86201969D01*
X134704500Y-86264618D01*
X134704500Y-97667712D01*
X134704500Y-97700000D01*
X134704500Y-97798031D01*
X134704870Y-97800134D01*
X134704871Y-97800136D01*
X134738174Y-97989009D01*
X134738176Y-97989018D01*
X134738546Y-97991114D01*
X134739275Y-97993118D01*
X134739277Y-97993124D01*
X134759169Y-98047777D01*
X134805603Y-98175353D01*
X134903634Y-98345147D01*
X134905011Y-98346789D01*
X134905016Y-98346795D01*
X134975906Y-98431278D01*
X135029660Y-98495340D01*
X135031300Y-98496716D01*
X135178204Y-98619983D01*
X135178208Y-98619986D01*
X135179853Y-98621366D01*
X135349647Y-98719397D01*
X135533886Y-98786454D01*
X135726969Y-98820500D01*
X135789618Y-98820500D01*
X135825000Y-98820500D01*
X135857288Y-98820500D01*
X141297712Y-98820500D01*
X141347325Y-98820500D01*
X141425890Y-98820500D01*
X141428031Y-98820500D01*
X141540071Y-98800744D01*
X141548581Y-98800000D01*
X143931419Y-98800000D01*
X143939928Y-98800744D01*
X144051969Y-98820500D01*
X144114618Y-98820500D01*
X144150000Y-98820500D01*
X144182288Y-98820500D01*
X148992712Y-98820500D01*
X149042325Y-98820500D01*
X149120890Y-98820500D01*
X149123031Y-98820500D01*
X149316114Y-98786454D01*
X149500353Y-98719397D01*
X149670147Y-98621366D01*
X149820340Y-98495340D01*
X149946366Y-98345147D01*
X150044397Y-98175353D01*
X150111454Y-97991114D01*
X150145500Y-97798031D01*
X150145500Y-97700000D01*
X150145500Y-97667712D01*
X150145500Y-92689782D01*
X150145495Y-92689766D01*
X150145493Y-92689732D01*
X150145493Y-92651145D01*
X150145494Y-92609077D01*
X150115743Y-92440352D01*
X150115000Y-92431844D01*
X150115000Y-91668444D01*
X150115744Y-91659935D01*
X150124315Y-91611326D01*
X150125059Y-91607107D01*
X150115744Y-91554279D01*
X150115000Y-91545770D01*
X150115000Y-91048444D01*
X150115744Y-91039935D01*
X150124315Y-90991326D01*
X150125059Y-90987107D01*
X150115744Y-90934279D01*
X150115000Y-90925770D01*
X150115000Y-90162390D01*
X150115744Y-90153881D01*
X150119709Y-90131397D01*
X150145499Y-89985138D01*
X150145500Y-89887108D01*
X150145500Y-89854820D01*
X150145500Y-80057675D01*
X150145500Y-79976969D01*
X150111454Y-79783886D01*
X150044397Y-79599647D01*
X149946366Y-79429853D01*
X149944986Y-79428208D01*
X149944983Y-79428204D01*
X149821716Y-79281300D01*
X149820340Y-79279660D01*
X149818699Y-79278283D01*
X149671795Y-79155016D01*
X149671789Y-79155011D01*
X149670147Y-79153634D01*
X149500353Y-79055603D01*
X149498345Y-79054872D01*
X149318124Y-78989277D01*
X149318118Y-78989275D01*
X149316114Y-78988546D01*
X149314018Y-78988176D01*
X149314009Y-78988174D01*
X149125136Y-78954871D01*
X149125134Y-78954870D01*
X149123031Y-78954500D01*
X149120890Y-78954500D01*
X149025032Y-78954500D01*
X144933262Y-78949657D01*
X144905696Y-78941128D01*
X144887711Y-78918568D01*
X144823048Y-78753871D01*
X144714646Y-78578651D01*
X144713167Y-78577011D01*
X144578120Y-78427296D01*
X144578115Y-78427292D01*
X144576640Y-78425656D01*
X144563010Y-78415144D01*
X144415226Y-78301166D01*
X144413486Y-78299824D01*
X144349471Y-78266736D01*
X144232410Y-78206229D01*
X144232404Y-78206226D01*
X144230449Y-78205216D01*
X144228345Y-78204571D01*
X144228336Y-78204568D01*
X144035552Y-78145533D01*
X144035548Y-78145532D01*
X144033438Y-78144886D01*
X144031254Y-78144628D01*
X144031246Y-78144627D01*
X143831000Y-78121039D01*
X143830991Y-78121038D01*
X143828812Y-78120782D01*
X143826611Y-78120920D01*
X143625375Y-78133542D01*
X143625364Y-78133543D01*
X143623175Y-78133681D01*
X143621040Y-78134209D01*
X143621035Y-78134210D01*
X143425300Y-78182638D01*
X143425294Y-78182639D01*
X143423164Y-78183167D01*
X143421162Y-78184066D01*
X143421153Y-78184070D01*
X143237251Y-78266736D01*
X143237244Y-78266739D01*
X143235237Y-78267642D01*
X143233421Y-78268890D01*
X143233415Y-78268894D01*
X143067277Y-78383128D01*
X143067265Y-78383137D01*
X143065457Y-78384381D01*
X143063898Y-78385930D01*
X143063891Y-78385936D01*
X142920872Y-78528058D01*
X142920867Y-78528062D01*
X142919306Y-78529615D01*
X142918047Y-78531420D01*
X142918044Y-78531425D01*
X142849696Y-78629500D01*
X142802698Y-78696938D01*
X142802697Y-78696940D01*
X142801501Y-78698657D01*
X142801149Y-78698412D01*
X142782300Y-78716337D01*
X142754559Y-78721296D01*
X142728674Y-78710154D01*
X142722838Y-78705257D01*
X142675030Y-78665141D01*
X142671004Y-78663675D01*
X142671003Y-78663675D01*
X142602132Y-78638609D01*
X142577105Y-78629500D01*
X142472895Y-78629500D01*
X142468864Y-78630966D01*
X142468864Y-78630967D01*
X142378997Y-78663675D01*
X142378993Y-78663676D01*
X142374971Y-78665141D01*
X142371690Y-78667893D01*
X142371688Y-78667895D01*
X142314096Y-78716220D01*
X142289612Y-78727179D01*
X142263026Y-78723603D01*
X142242306Y-78706565D01*
X142139183Y-78557538D01*
X142137934Y-78555733D01*
X142130504Y-78548290D01*
X141997584Y-78415144D01*
X141997580Y-78415140D01*
X141996031Y-78413589D01*
X141994225Y-78412335D01*
X141994223Y-78412333D01*
X141852641Y-78314005D01*
X141831061Y-78299018D01*
X141829059Y-78298105D01*
X141650312Y-78216604D01*
X141650309Y-78216603D01*
X141648309Y-78215691D01*
X141646185Y-78215152D01*
X141646177Y-78215149D01*
X141455756Y-78166816D01*
X141455751Y-78166815D01*
X141453631Y-78166277D01*
X141451450Y-78166125D01*
X141451441Y-78166124D01*
X141255457Y-78152511D01*
X141255451Y-78152511D01*
X141253261Y-78152359D01*
X141251077Y-78152599D01*
X141251071Y-78152600D01*
X141055804Y-78174143D01*
X141055802Y-78174143D01*
X141053621Y-78174384D01*
X141051531Y-78175005D01*
X141051519Y-78175008D01*
X140863204Y-78231020D01*
X140863200Y-78231021D01*
X140861104Y-78231645D01*
X140859156Y-78232630D01*
X140859147Y-78232634D01*
X140683836Y-78321318D01*
X140683827Y-78321323D01*
X140681879Y-78322309D01*
X140680134Y-78323628D01*
X140680132Y-78323630D01*
X140523434Y-78442148D01*
X140523429Y-78442151D01*
X140521687Y-78443470D01*
X140520202Y-78445082D01*
X140520200Y-78445085D01*
X140395525Y-78580529D01*
X140385659Y-78591247D01*
X140384488Y-78593094D01*
X140384481Y-78593104D01*
X140279328Y-78759054D01*
X140279323Y-78759063D01*
X140278155Y-78760907D01*
X140277332Y-78762932D01*
X140277328Y-78762942D01*
X140213955Y-78919075D01*
X140195944Y-78941276D01*
X140168608Y-78949646D01*
X135824548Y-78954500D01*
X135726969Y-78954500D01*
X135724866Y-78954870D01*
X135724863Y-78954871D01*
X135535990Y-78988174D01*
X135535979Y-78988176D01*
X135533886Y-78988546D01*
X135531884Y-78989274D01*
X135531875Y-78989277D01*
X135351654Y-79054872D01*
X135351648Y-79054874D01*
X135349647Y-79055603D01*
X135347797Y-79056670D01*
X135347795Y-79056672D01*
X135181714Y-79152559D01*
X135181709Y-79152562D01*
X135179853Y-79153634D01*
X135178215Y-79155007D01*
X135178204Y-79155016D01*
X135031300Y-79278283D01*
X135031294Y-79278288D01*
X135029660Y-79279660D01*
X135028288Y-79281294D01*
X135028283Y-79281300D01*
X134905016Y-79428204D01*
X134905007Y-79428215D01*
X134903634Y-79429853D01*
X134902562Y-79431709D01*
X134902559Y-79431714D01*
X134845373Y-79530763D01*
X134805603Y-79599647D01*
X134804874Y-79601648D01*
X134804872Y-79601654D01*
X134739277Y-79781875D01*
X134739274Y-79781884D01*
X134738546Y-79783886D01*
X134738176Y-79785979D01*
X134738174Y-79785990D01*
X134710366Y-79943700D01*
X134704500Y-79976969D01*
X134704500Y-80039618D01*
X134704500Y-83317712D01*
X134704500Y-83350000D01*
X134704500Y-83448031D01*
X134704870Y-83450134D01*
X134704871Y-83450136D01*
X134724256Y-83560072D01*
X134725000Y-83568581D01*
X134725000Y-84288943D01*
X134710648Y-84323591D01*
X134676000Y-84337943D01*
X133976884Y-84337943D01*
X133896230Y-84337943D01*
X133890645Y-84341166D01*
X133890642Y-84341168D01*
X133884049Y-84344975D01*
X133872236Y-84349868D01*
X133858653Y-84353508D01*
X133854095Y-84358065D01*
X133854093Y-84358067D01*
X133829159Y-84383001D01*
X133801622Y-84410538D01*
X133801621Y-84410539D01*
X133707372Y-84504789D01*
X133627013Y-84585148D01*
X133611117Y-84595770D01*
X133592365Y-84599500D01*
X132942390Y-84599500D01*
X132933727Y-84598028D01*
X132933722Y-84598079D01*
X132928238Y-84597461D01*
X132923026Y-84595637D01*
X132917539Y-84596255D01*
X132891473Y-84599192D01*
X132885987Y-84599500D01*
X132877410Y-84599500D01*
X132874731Y-84600111D01*
X132874724Y-84600112D01*
X132869045Y-84601408D01*
X132863637Y-84602327D01*
X132837558Y-84605266D01*
X132837556Y-84605266D01*
X132832076Y-84605884D01*
X132827404Y-84608819D01*
X132822192Y-84610643D01*
X132822175Y-84610597D01*
X132821103Y-84611041D01*
X132821125Y-84611086D01*
X132816150Y-84613481D01*
X132810769Y-84614710D01*
X132806453Y-84618151D01*
X132806450Y-84618153D01*
X132785947Y-84634503D01*
X132781476Y-84637676D01*
X132774623Y-84641984D01*
X132748545Y-84649500D01*
X126505845Y-84649500D01*
X126471197Y-84635148D01*
X121366812Y-79530763D01*
X121352990Y-79503305D01*
X121358246Y-79473016D01*
X121422396Y-79353001D01*
X121476747Y-79173831D01*
X121495099Y-78987500D01*
X122124901Y-78987500D01*
X122125137Y-78989896D01*
X122141263Y-79153634D01*
X122143253Y-79173831D01*
X122143948Y-79176124D01*
X122143950Y-79176131D01*
X122194789Y-79343722D01*
X122197604Y-79353001D01*
X122198742Y-79355130D01*
X122277942Y-79503305D01*
X122285864Y-79518125D01*
X122404643Y-79662857D01*
X122549375Y-79781636D01*
X122714499Y-79869896D01*
X122893669Y-79924247D01*
X123080000Y-79942599D01*
X123266331Y-79924247D01*
X123445501Y-79869896D01*
X123610625Y-79781636D01*
X123755357Y-79662857D01*
X123874136Y-79518125D01*
X123962396Y-79353001D01*
X124016747Y-79173831D01*
X124035099Y-78987500D01*
X124016747Y-78801169D01*
X123962396Y-78621999D01*
X123874136Y-78456875D01*
X123755357Y-78312143D01*
X123739364Y-78299018D01*
X123612487Y-78194892D01*
X123612486Y-78194891D01*
X123610625Y-78193364D01*
X123583003Y-78178600D01*
X123447630Y-78106242D01*
X123445501Y-78105104D01*
X123443193Y-78104403D01*
X123443191Y-78104403D01*
X123268631Y-78051450D01*
X123268624Y-78051448D01*
X123266331Y-78050753D01*
X123263941Y-78050517D01*
X123263938Y-78050517D01*
X123082396Y-78032637D01*
X123080000Y-78032401D01*
X123077604Y-78032637D01*
X122896061Y-78050517D01*
X122896056Y-78050517D01*
X122893669Y-78050753D01*
X122891377Y-78051448D01*
X122891368Y-78051450D01*
X122716808Y-78104403D01*
X122716802Y-78104405D01*
X122714499Y-78105104D01*
X122712373Y-78106240D01*
X122712369Y-78106242D01*
X122551499Y-78192228D01*
X122551493Y-78192231D01*
X122549375Y-78193364D01*
X122547518Y-78194887D01*
X122547512Y-78194892D01*
X122406505Y-78310614D01*
X122406500Y-78310618D01*
X122404643Y-78312143D01*
X122403118Y-78314000D01*
X122403114Y-78314005D01*
X122287392Y-78455012D01*
X122287387Y-78455018D01*
X122285864Y-78456875D01*
X122284731Y-78458993D01*
X122284728Y-78458999D01*
X122198742Y-78619869D01*
X122198740Y-78619873D01*
X122197604Y-78621999D01*
X122196905Y-78624302D01*
X122196903Y-78624308D01*
X122143950Y-78798868D01*
X122143948Y-78798877D01*
X122143253Y-78801169D01*
X122143017Y-78803556D01*
X122143017Y-78803561D01*
X122131642Y-78919055D01*
X122124901Y-78987500D01*
X121495099Y-78987500D01*
X121476747Y-78801169D01*
X121422396Y-78621999D01*
X121334136Y-78456875D01*
X121215357Y-78312143D01*
X121199364Y-78299018D01*
X121072487Y-78194892D01*
X121072486Y-78194891D01*
X121070625Y-78193364D01*
X121043003Y-78178600D01*
X120907630Y-78106242D01*
X120905501Y-78105104D01*
X120903193Y-78104403D01*
X120903191Y-78104403D01*
X120775276Y-78065600D01*
X120750143Y-78047899D01*
X120740500Y-78018710D01*
X120740500Y-77416290D01*
X120750143Y-77387101D01*
X120775276Y-77369400D01*
X120843516Y-77348699D01*
X120905501Y-77329896D01*
X121070625Y-77241636D01*
X121215357Y-77122857D01*
X121249905Y-77080760D01*
X122129500Y-77080760D01*
X122129756Y-77082517D01*
X122135633Y-77122857D01*
X122139427Y-77148893D01*
X122141097Y-77152309D01*
X122141098Y-77152312D01*
X122156791Y-77184412D01*
X122190802Y-77253983D01*
X122273517Y-77336698D01*
X122378607Y-77388073D01*
X122446740Y-77398000D01*
X123711484Y-77398000D01*
X123713260Y-77398000D01*
X123781393Y-77388073D01*
X123886483Y-77336698D01*
X123969198Y-77253983D01*
X124020573Y-77148893D01*
X124030500Y-77080760D01*
X124030500Y-75814240D01*
X124020573Y-75746107D01*
X123969198Y-75641017D01*
X123886483Y-75558302D01*
X123838228Y-75534712D01*
X123784812Y-75508598D01*
X123784809Y-75508597D01*
X123781393Y-75506927D01*
X123777628Y-75506378D01*
X123777627Y-75506378D01*
X123715017Y-75497256D01*
X123713260Y-75497000D01*
X122446740Y-75497000D01*
X122444983Y-75497255D01*
X122444982Y-75497256D01*
X122382372Y-75506378D01*
X122382369Y-75506378D01*
X122378607Y-75506927D01*
X122375192Y-75508596D01*
X122375187Y-75508598D01*
X122277166Y-75556518D01*
X122273517Y-75558302D01*
X122270646Y-75561172D01*
X122270643Y-75561175D01*
X122193675Y-75638143D01*
X122193672Y-75638146D01*
X122190802Y-75641017D01*
X122189018Y-75644665D01*
X122189018Y-75644666D01*
X122141098Y-75742687D01*
X122141096Y-75742692D01*
X122139427Y-75746107D01*
X122138878Y-75749869D01*
X122138878Y-75749872D01*
X122135362Y-75774005D01*
X122129500Y-75814240D01*
X122129500Y-77080760D01*
X121249905Y-77080760D01*
X121334136Y-76978125D01*
X121422396Y-76813001D01*
X121476747Y-76633831D01*
X121495099Y-76447500D01*
X121476747Y-76261169D01*
X121422396Y-76081999D01*
X121334136Y-75916875D01*
X121215357Y-75772143D01*
X121070625Y-75653364D01*
X121043003Y-75638600D01*
X120907630Y-75566242D01*
X120905501Y-75565104D01*
X120903193Y-75564403D01*
X120903191Y-75564403D01*
X120728631Y-75511450D01*
X120728624Y-75511448D01*
X120726331Y-75510753D01*
X120723941Y-75510517D01*
X120723938Y-75510517D01*
X120542396Y-75492637D01*
X120540000Y-75492401D01*
X120537604Y-75492637D01*
X120356061Y-75510517D01*
X120356056Y-75510517D01*
X120353669Y-75510753D01*
X120351377Y-75511448D01*
X120351368Y-75511450D01*
X120176808Y-75564403D01*
X120176802Y-75564405D01*
X120174499Y-75565104D01*
X120172373Y-75566240D01*
X120172369Y-75566242D01*
X120011499Y-75652228D01*
X120011493Y-75652231D01*
X120009375Y-75653364D01*
X120007518Y-75654887D01*
X120007512Y-75654892D01*
X119866505Y-75770614D01*
X119866500Y-75770618D01*
X119864643Y-75772143D01*
X119863118Y-75774000D01*
X119863114Y-75774005D01*
X119747392Y-75915012D01*
X119747387Y-75915018D01*
X119745864Y-75916875D01*
X119744731Y-75918993D01*
X119744728Y-75918999D01*
X119658742Y-76079869D01*
X119658740Y-76079873D01*
X119657604Y-76081999D01*
X119656905Y-76084302D01*
X119656903Y-76084308D01*
X119603950Y-76258868D01*
X119603948Y-76258877D01*
X119603253Y-76261169D01*
X119603017Y-76263556D01*
X119603017Y-76263561D01*
X119585754Y-76438832D01*
X119584901Y-76447500D01*
X119603253Y-76633831D01*
X119603948Y-76636124D01*
X119603950Y-76636131D01*
X119656903Y-76810691D01*
X119657604Y-76813001D01*
X119745864Y-76978125D01*
X119864643Y-77122857D01*
X120009375Y-77241636D01*
X120174499Y-77329896D01*
X120236484Y-77348699D01*
X120304724Y-77369400D01*
X120329857Y-77387101D01*
X120339500Y-77416290D01*
X120339500Y-78018710D01*
X120329857Y-78047899D01*
X120304724Y-78065600D01*
X120176808Y-78104403D01*
X120176802Y-78104405D01*
X120174499Y-78105104D01*
X120172373Y-78106240D01*
X120172369Y-78106242D01*
X120011499Y-78192228D01*
X120011493Y-78192231D01*
X120009375Y-78193364D01*
X120007518Y-78194887D01*
X120007512Y-78194892D01*
X119866505Y-78310614D01*
X119866500Y-78310618D01*
X119864643Y-78312143D01*
X119863118Y-78314000D01*
X119863114Y-78314005D01*
X119747392Y-78455012D01*
X119747387Y-78455018D01*
X119745864Y-78456875D01*
X119744731Y-78458993D01*
X119744728Y-78458999D01*
X119658742Y-78619869D01*
X119658740Y-78619873D01*
X119657604Y-78621999D01*
X119656905Y-78624302D01*
X119656903Y-78624308D01*
X119603950Y-78798868D01*
X119603948Y-78798877D01*
X119603253Y-78801169D01*
X119603017Y-78803556D01*
X119603017Y-78803561D01*
X119591642Y-78919055D01*
X119584901Y-78987500D01*
X119585137Y-78989896D01*
X119601263Y-79153634D01*
X119603253Y-79173831D01*
X119603948Y-79176124D01*
X119603950Y-79176131D01*
X119654789Y-79343722D01*
X119657604Y-79353001D01*
X119658742Y-79355130D01*
X119737942Y-79503305D01*
X119745864Y-79518125D01*
X119864643Y-79662857D01*
X120009375Y-79781636D01*
X120174499Y-79869896D01*
X120353669Y-79924247D01*
X120540000Y-79942599D01*
X120726331Y-79924247D01*
X120905501Y-79869896D01*
X121025516Y-79805745D01*
X121055805Y-79800490D01*
X121083263Y-79814312D01*
X126230749Y-84961798D01*
X126235834Y-84968964D01*
X126235874Y-84968933D01*
X126239316Y-84973249D01*
X126241712Y-84978224D01*
X126266545Y-84998028D01*
X126270632Y-85001681D01*
X126276699Y-85007748D01*
X126283968Y-85012316D01*
X126288435Y-85015486D01*
X126302559Y-85026749D01*
X126313269Y-85035290D01*
X126318650Y-85036518D01*
X126323626Y-85038914D01*
X126323603Y-85038960D01*
X126324673Y-85039403D01*
X126324690Y-85039355D01*
X126329901Y-85041178D01*
X126334576Y-85044116D01*
X126366137Y-85047671D01*
X126371533Y-85048587D01*
X126379910Y-85050500D01*
X126388493Y-85050500D01*
X126393978Y-85050808D01*
X126425526Y-85054362D01*
X126430739Y-85052537D01*
X126436223Y-85051920D01*
X126436228Y-85051971D01*
X126444888Y-85050500D01*
X132247654Y-85050500D01*
X132282302Y-85064852D01*
X132296654Y-85099500D01*
X132282302Y-85134148D01*
X120791303Y-96625148D01*
X120775406Y-96635770D01*
X120756655Y-96639500D01*
X119242388Y-96639500D01*
X119233728Y-96638028D01*
X119233723Y-96638080D01*
X119228238Y-96637461D01*
X119223026Y-96635638D01*
X119217539Y-96636256D01*
X119191478Y-96639192D01*
X119185993Y-96639500D01*
X119177410Y-96639500D01*
X119174734Y-96640110D01*
X119174721Y-96640112D01*
X119169038Y-96641409D01*
X119163631Y-96642328D01*
X119137561Y-96645265D01*
X119137556Y-96645266D01*
X119132076Y-96645884D01*
X119127402Y-96648820D01*
X119122191Y-96650644D01*
X119122174Y-96650597D01*
X119121103Y-96651041D01*
X119121125Y-96651086D01*
X119116150Y-96653481D01*
X119110769Y-96654710D01*
X119106453Y-96658151D01*
X119106450Y-96658153D01*
X119085947Y-96674503D01*
X119081476Y-96677676D01*
X119076529Y-96680785D01*
X119076519Y-96680792D01*
X119074199Y-96682251D01*
X119072260Y-96684189D01*
X119072257Y-96684192D01*
X119068126Y-96688323D01*
X119064036Y-96691977D01*
X119043528Y-96708333D01*
X119043526Y-96708335D01*
X119039212Y-96711776D01*
X119036817Y-96716747D01*
X119033375Y-96721064D01*
X119033335Y-96721032D01*
X119028250Y-96728198D01*
X118631303Y-97125148D01*
X118615407Y-97135770D01*
X118596655Y-97139500D01*
X118165683Y-97139500D01*
X118138461Y-97131242D01*
X118101754Y-97106716D01*
X118097740Y-97104034D01*
X118000000Y-97084592D01*
X117995264Y-97085534D01*
X117906992Y-97103092D01*
X117906988Y-97103093D01*
X117902260Y-97104034D01*
X117898250Y-97106712D01*
X117898248Y-97106714D01*
X117823410Y-97156718D01*
X117823407Y-97156720D01*
X117819399Y-97159399D01*
X117816720Y-97163407D01*
X117816718Y-97163410D01*
X117766714Y-97238248D01*
X117766712Y-97238250D01*
X117764034Y-97242260D01*
X117763093Y-97246988D01*
X117763092Y-97246992D01*
X117747395Y-97325910D01*
X117744592Y-97340000D01*
X117278625Y-97340000D01*
X117207601Y-97297565D01*
X117207599Y-97297564D01*
X117205711Y-97296436D01*
X117197811Y-97293471D01*
X116994736Y-97217255D01*
X116994732Y-97217253D01*
X116992670Y-97216480D01*
X116990510Y-97216088D01*
X116990503Y-97216086D01*
X116770938Y-97176242D01*
X116770934Y-97176241D01*
X116768776Y-97175850D01*
X116598225Y-97175850D01*
X116597144Y-97175947D01*
X116597128Y-97175948D01*
X116430552Y-97190941D01*
X116430550Y-97190941D01*
X116428365Y-97191138D01*
X116426256Y-97191719D01*
X116426245Y-97191722D01*
X116211131Y-97251090D01*
X116211123Y-97251092D01*
X116209014Y-97251675D01*
X116207046Y-97252622D01*
X116207037Y-97252626D01*
X116005976Y-97349451D01*
X116005967Y-97349456D01*
X116003997Y-97350405D01*
X116002228Y-97351690D01*
X116002220Y-97351695D01*
X115821683Y-97482864D01*
X115821674Y-97482871D01*
X115819905Y-97484157D01*
X115818388Y-97485743D01*
X115818383Y-97485748D01*
X115664175Y-97647036D01*
X115664169Y-97647042D01*
X115662653Y-97648629D01*
X115661443Y-97650461D01*
X115661439Y-97650467D01*
X115538507Y-97836699D01*
X115538501Y-97836709D01*
X115537295Y-97838537D01*
X115536435Y-97840547D01*
X115536429Y-97840560D01*
X115448725Y-98045756D01*
X115448722Y-98045763D01*
X115447862Y-98047777D01*
X115447374Y-98049910D01*
X115447372Y-98049920D01*
X115397717Y-98267475D01*
X115397227Y-98269623D01*
X115397128Y-98271814D01*
X115397128Y-98271819D01*
X115387116Y-98494747D01*
X115387116Y-98494754D01*
X115387018Y-98496945D01*
X100120500Y-98496945D01*
X100120500Y-96916000D01*
X114173064Y-96916000D01*
X114173483Y-96919183D01*
X114192303Y-97062137D01*
X114192304Y-97062141D01*
X114192723Y-97065322D01*
X114193951Y-97068287D01*
X114193952Y-97068290D01*
X114245079Y-97191722D01*
X114250359Y-97204468D01*
X114252311Y-97207012D01*
X114252314Y-97207017D01*
X114286133Y-97251090D01*
X114342045Y-97323955D01*
X114344593Y-97325910D01*
X114458982Y-97413685D01*
X114458985Y-97413687D01*
X114461532Y-97415641D01*
X114600678Y-97473277D01*
X114712508Y-97488000D01*
X114785892Y-97488000D01*
X114787492Y-97488000D01*
X114899322Y-97473277D01*
X115038468Y-97415641D01*
X115157955Y-97323955D01*
X115249641Y-97204468D01*
X115307277Y-97065322D01*
X115326936Y-96916000D01*
X115307277Y-96766678D01*
X115249641Y-96627532D01*
X115247687Y-96624985D01*
X115247685Y-96624982D01*
X115159910Y-96510593D01*
X115157955Y-96508045D01*
X115155406Y-96506089D01*
X115041017Y-96418314D01*
X115041012Y-96418311D01*
X115038468Y-96416359D01*
X115035499Y-96415129D01*
X114902290Y-96359952D01*
X114902287Y-96359951D01*
X114899322Y-96358723D01*
X114896141Y-96358304D01*
X114896137Y-96358303D01*
X114789076Y-96344208D01*
X114789067Y-96344207D01*
X114787492Y-96344000D01*
X114712508Y-96344000D01*
X114710933Y-96344207D01*
X114710923Y-96344208D01*
X114603862Y-96358303D01*
X114603856Y-96358304D01*
X114600678Y-96358723D01*
X114597714Y-96359950D01*
X114597709Y-96359952D01*
X114464500Y-96415129D01*
X114464496Y-96415131D01*
X114461532Y-96416359D01*
X114458990Y-96418308D01*
X114458982Y-96418314D01*
X114344593Y-96506089D01*
X114344589Y-96506092D01*
X114342045Y-96508045D01*
X114340092Y-96510589D01*
X114340089Y-96510593D01*
X114252314Y-96624982D01*
X114252308Y-96624990D01*
X114250359Y-96627532D01*
X114249131Y-96630496D01*
X114249129Y-96630500D01*
X114193952Y-96763709D01*
X114193950Y-96763714D01*
X114192723Y-96766678D01*
X114192304Y-96769856D01*
X114192303Y-96769862D01*
X114173483Y-96912817D01*
X114173064Y-96916000D01*
X100120500Y-96916000D01*
X100120500Y-95900000D01*
X119253064Y-95900000D01*
X119253483Y-95903183D01*
X119272303Y-96046137D01*
X119272304Y-96046141D01*
X119272723Y-96049322D01*
X119273951Y-96052287D01*
X119273952Y-96052290D01*
X119308937Y-96136751D01*
X119330359Y-96188468D01*
X119332311Y-96191012D01*
X119332314Y-96191017D01*
X119412037Y-96294912D01*
X119422045Y-96307955D01*
X119424593Y-96309910D01*
X119538982Y-96397685D01*
X119538985Y-96397687D01*
X119541532Y-96399641D01*
X119680678Y-96457277D01*
X119792508Y-96472000D01*
X119865892Y-96472000D01*
X119867492Y-96472000D01*
X119979322Y-96457277D01*
X120118468Y-96399641D01*
X120237955Y-96307955D01*
X120329641Y-96188468D01*
X120387277Y-96049322D01*
X120406936Y-95900000D01*
X120387277Y-95750678D01*
X120329641Y-95611532D01*
X120327687Y-95608985D01*
X120327685Y-95608982D01*
X120239910Y-95494593D01*
X120237955Y-95492045D01*
X120228438Y-95484742D01*
X120121017Y-95402314D01*
X120121012Y-95402311D01*
X120118468Y-95400359D01*
X120115499Y-95399129D01*
X119982290Y-95343952D01*
X119982287Y-95343951D01*
X119979322Y-95342723D01*
X119976141Y-95342304D01*
X119976137Y-95342303D01*
X119869076Y-95328208D01*
X119869067Y-95328207D01*
X119867492Y-95328000D01*
X119792508Y-95328000D01*
X119790933Y-95328207D01*
X119790923Y-95328208D01*
X119683862Y-95342303D01*
X119683856Y-95342304D01*
X119680678Y-95342723D01*
X119677714Y-95343950D01*
X119677709Y-95343952D01*
X119544500Y-95399129D01*
X119544496Y-95399131D01*
X119541532Y-95400359D01*
X119538990Y-95402308D01*
X119538982Y-95402314D01*
X119424593Y-95490089D01*
X119424589Y-95490092D01*
X119422045Y-95492045D01*
X119420092Y-95494589D01*
X119420089Y-95494593D01*
X119332314Y-95608982D01*
X119332308Y-95608990D01*
X119330359Y-95611532D01*
X119329131Y-95614496D01*
X119329129Y-95614500D01*
X119273952Y-95747709D01*
X119273950Y-95747714D01*
X119272723Y-95750678D01*
X119272304Y-95753856D01*
X119272303Y-95753862D01*
X119255832Y-95878977D01*
X119253064Y-95900000D01*
X100120500Y-95900000D01*
X100120500Y-94884000D01*
X114173064Y-94884000D01*
X114173483Y-94887183D01*
X114192303Y-95030137D01*
X114192304Y-95030141D01*
X114192723Y-95033322D01*
X114193951Y-95036287D01*
X114193952Y-95036290D01*
X114234604Y-95134432D01*
X114250359Y-95172468D01*
X114252311Y-95175012D01*
X114252314Y-95175017D01*
X114340089Y-95289406D01*
X114342045Y-95291955D01*
X114344593Y-95293910D01*
X114458982Y-95381685D01*
X114458985Y-95381687D01*
X114461532Y-95383641D01*
X114600678Y-95441277D01*
X114712508Y-95456000D01*
X114785892Y-95456000D01*
X114787492Y-95456000D01*
X114899322Y-95441277D01*
X115038468Y-95383641D01*
X115157955Y-95291955D01*
X115249641Y-95172468D01*
X115307277Y-95033322D01*
X115318905Y-94945000D01*
X119944592Y-94945000D01*
X119945534Y-94949736D01*
X119963092Y-95038007D01*
X119963093Y-95038009D01*
X119964034Y-95042740D01*
X119966713Y-95046750D01*
X119966714Y-95046751D01*
X119996946Y-95091998D01*
X120019399Y-95125601D01*
X120102260Y-95180966D01*
X120200000Y-95200408D01*
X120297740Y-95180966D01*
X120380601Y-95125601D01*
X120435966Y-95042740D01*
X120455408Y-94945000D01*
X120435966Y-94847260D01*
X120380601Y-94764399D01*
X120360254Y-94750804D01*
X120301751Y-94711714D01*
X120301750Y-94711713D01*
X120297740Y-94709034D01*
X120293009Y-94708093D01*
X120293007Y-94708092D01*
X120204736Y-94690534D01*
X120200000Y-94689592D01*
X120195264Y-94690534D01*
X120106992Y-94708092D01*
X120106988Y-94708093D01*
X120102260Y-94709034D01*
X120098250Y-94711712D01*
X120098248Y-94711714D01*
X120023410Y-94761718D01*
X120023407Y-94761720D01*
X120019399Y-94764399D01*
X120016720Y-94768407D01*
X120016718Y-94768410D01*
X119966714Y-94843248D01*
X119966712Y-94843250D01*
X119964034Y-94847260D01*
X119963093Y-94851988D01*
X119963092Y-94851992D01*
X119945534Y-94940264D01*
X119944592Y-94945000D01*
X115318905Y-94945000D01*
X115326936Y-94884000D01*
X115307277Y-94734678D01*
X115249641Y-94595532D01*
X115247687Y-94592985D01*
X115247685Y-94592982D01*
X115159910Y-94478593D01*
X115157955Y-94476045D01*
X115123485Y-94449595D01*
X115041017Y-94386314D01*
X115041012Y-94386311D01*
X115038468Y-94384359D01*
X115035499Y-94383129D01*
X114902290Y-94327952D01*
X114902287Y-94327951D01*
X114899322Y-94326723D01*
X114896141Y-94326304D01*
X114896137Y-94326303D01*
X114789076Y-94312208D01*
X114789067Y-94312207D01*
X114787492Y-94312000D01*
X114712508Y-94312000D01*
X114710933Y-94312207D01*
X114710923Y-94312208D01*
X114603862Y-94326303D01*
X114603856Y-94326304D01*
X114600678Y-94326723D01*
X114597714Y-94327950D01*
X114597709Y-94327952D01*
X114464500Y-94383129D01*
X114464496Y-94383131D01*
X114461532Y-94384359D01*
X114458990Y-94386308D01*
X114458982Y-94386314D01*
X114344593Y-94474089D01*
X114344589Y-94474092D01*
X114342045Y-94476045D01*
X114340092Y-94478589D01*
X114340089Y-94478593D01*
X114252314Y-94592982D01*
X114252308Y-94592990D01*
X114250359Y-94595532D01*
X114249131Y-94598496D01*
X114249129Y-94598500D01*
X114193952Y-94731709D01*
X114193950Y-94731714D01*
X114192723Y-94734678D01*
X114192304Y-94737856D01*
X114192303Y-94737862D01*
X114182182Y-94814742D01*
X114173064Y-94884000D01*
X100120500Y-94884000D01*
X100120500Y-93416945D01*
X115387018Y-93416945D01*
X115387312Y-93419122D01*
X115387313Y-93419124D01*
X115417268Y-93640263D01*
X115417269Y-93640268D01*
X115417563Y-93642437D01*
X115418238Y-93644514D01*
X115418240Y-93644523D01*
X115468304Y-93798602D01*
X115487880Y-93858851D01*
X115488917Y-93860779D01*
X115488921Y-93860787D01*
X115594670Y-94057301D01*
X115594674Y-94057308D01*
X115595710Y-94059232D01*
X115597075Y-94060944D01*
X115597076Y-94060945D01*
X115631378Y-94103959D01*
X115737585Y-94237138D01*
X115908948Y-94386853D01*
X116104289Y-94503564D01*
X116317330Y-94583520D01*
X116541224Y-94624150D01*
X116710671Y-94624150D01*
X116711775Y-94624150D01*
X116881635Y-94608862D01*
X117100986Y-94548325D01*
X117306003Y-94449595D01*
X117490095Y-94315843D01*
X117647347Y-94151371D01*
X117772705Y-93961463D01*
X117862138Y-93752223D01*
X117912773Y-93530377D01*
X117917867Y-93416945D01*
X118562018Y-93416945D01*
X118562312Y-93419122D01*
X118562313Y-93419124D01*
X118592268Y-93640263D01*
X118592269Y-93640268D01*
X118592563Y-93642437D01*
X118593238Y-93644514D01*
X118593240Y-93644523D01*
X118643304Y-93798602D01*
X118662880Y-93858851D01*
X118663917Y-93860779D01*
X118663921Y-93860787D01*
X118769670Y-94057301D01*
X118769674Y-94057308D01*
X118770710Y-94059232D01*
X118772075Y-94060944D01*
X118772076Y-94060945D01*
X118806378Y-94103959D01*
X118912585Y-94237138D01*
X119083948Y-94386853D01*
X119279289Y-94503564D01*
X119492330Y-94583520D01*
X119716224Y-94624150D01*
X119885671Y-94624150D01*
X119886775Y-94624150D01*
X120056635Y-94608862D01*
X120275986Y-94548325D01*
X120481003Y-94449595D01*
X120665095Y-94315843D01*
X120822347Y-94151371D01*
X120947705Y-93961463D01*
X121037138Y-93752223D01*
X121087773Y-93530377D01*
X121097982Y-93303055D01*
X121067437Y-93077563D01*
X120997120Y-92861149D01*
X120996078Y-92859212D01*
X120890329Y-92662698D01*
X120890326Y-92662694D01*
X120889290Y-92660768D01*
X120747415Y-92482862D01*
X120576052Y-92333147D01*
X120445939Y-92255408D01*
X120382601Y-92217565D01*
X120382599Y-92217564D01*
X120380711Y-92216436D01*
X120348450Y-92204328D01*
X120169736Y-92137255D01*
X120169732Y-92137253D01*
X120167670Y-92136480D01*
X120165510Y-92136088D01*
X120165503Y-92136086D01*
X119945938Y-92096242D01*
X119945934Y-92096241D01*
X119943776Y-92095850D01*
X119773225Y-92095850D01*
X119772144Y-92095947D01*
X119772128Y-92095948D01*
X119605552Y-92110941D01*
X119605550Y-92110941D01*
X119603365Y-92111138D01*
X119601256Y-92111719D01*
X119601245Y-92111722D01*
X119386131Y-92171090D01*
X119386123Y-92171092D01*
X119384014Y-92171675D01*
X119382046Y-92172622D01*
X119382037Y-92172626D01*
X119180976Y-92269451D01*
X119180967Y-92269456D01*
X119178997Y-92270405D01*
X119177228Y-92271690D01*
X119177220Y-92271695D01*
X118996683Y-92402864D01*
X118996674Y-92402871D01*
X118994905Y-92404157D01*
X118993388Y-92405743D01*
X118993383Y-92405748D01*
X118839175Y-92567036D01*
X118839169Y-92567042D01*
X118837653Y-92568629D01*
X118836443Y-92570461D01*
X118836439Y-92570467D01*
X118713507Y-92756699D01*
X118713501Y-92756709D01*
X118712295Y-92758537D01*
X118711435Y-92760547D01*
X118711429Y-92760560D01*
X118623725Y-92965756D01*
X118623722Y-92965763D01*
X118622862Y-92967777D01*
X118622374Y-92969910D01*
X118622372Y-92969920D01*
X118573868Y-93182434D01*
X118572227Y-93189623D01*
X118572128Y-93191814D01*
X118572128Y-93191819D01*
X118562116Y-93414747D01*
X118562116Y-93414754D01*
X118562018Y-93416945D01*
X117917867Y-93416945D01*
X117922982Y-93303055D01*
X117892437Y-93077563D01*
X117822120Y-92861149D01*
X117821078Y-92859212D01*
X117715329Y-92662698D01*
X117715326Y-92662694D01*
X117714290Y-92660768D01*
X117572415Y-92482862D01*
X117401052Y-92333147D01*
X117270939Y-92255408D01*
X117207601Y-92217565D01*
X117207599Y-92217564D01*
X117205711Y-92216436D01*
X117173450Y-92204328D01*
X116994736Y-92137255D01*
X116994732Y-92137253D01*
X116992670Y-92136480D01*
X116990510Y-92136088D01*
X116990503Y-92136086D01*
X116770938Y-92096242D01*
X116770934Y-92096241D01*
X116768776Y-92095850D01*
X116598225Y-92095850D01*
X116597144Y-92095947D01*
X116597128Y-92095948D01*
X116430552Y-92110941D01*
X116430550Y-92110941D01*
X116428365Y-92111138D01*
X116426256Y-92111719D01*
X116426245Y-92111722D01*
X116211131Y-92171090D01*
X116211123Y-92171092D01*
X116209014Y-92171675D01*
X116207046Y-92172622D01*
X116207037Y-92172626D01*
X116005976Y-92269451D01*
X116005967Y-92269456D01*
X116003997Y-92270405D01*
X116002228Y-92271690D01*
X116002220Y-92271695D01*
X115821683Y-92402864D01*
X115821674Y-92402871D01*
X115819905Y-92404157D01*
X115818388Y-92405743D01*
X115818383Y-92405748D01*
X115664175Y-92567036D01*
X115664169Y-92567042D01*
X115662653Y-92568629D01*
X115661443Y-92570461D01*
X115661439Y-92570467D01*
X115538507Y-92756699D01*
X115538501Y-92756709D01*
X115537295Y-92758537D01*
X115536435Y-92760547D01*
X115536429Y-92760560D01*
X115448725Y-92965756D01*
X115448722Y-92965763D01*
X115447862Y-92967777D01*
X115447374Y-92969910D01*
X115447372Y-92969920D01*
X115398868Y-93182434D01*
X115397227Y-93189623D01*
X115397128Y-93191814D01*
X115397128Y-93191819D01*
X115387116Y-93414747D01*
X115387116Y-93414754D01*
X115387018Y-93416945D01*
X100120500Y-93416945D01*
X100120500Y-79724411D01*
X112291259Y-79724411D01*
X112294348Y-79728874D01*
X112376627Y-79796399D01*
X112380614Y-79799063D01*
X112544871Y-79886860D01*
X112549310Y-79888699D01*
X112727546Y-79942767D01*
X112732239Y-79943700D01*
X112917604Y-79961957D01*
X112922396Y-79961957D01*
X113107760Y-79943700D01*
X113112453Y-79942767D01*
X113290689Y-79888699D01*
X113295128Y-79886860D01*
X113459386Y-79799062D01*
X113463369Y-79796401D01*
X113545653Y-79728871D01*
X113548739Y-79724412D01*
X113548738Y-79724411D01*
X114831259Y-79724411D01*
X114834348Y-79728874D01*
X114916627Y-79796399D01*
X114920614Y-79799063D01*
X115084871Y-79886860D01*
X115089310Y-79888699D01*
X115267546Y-79942767D01*
X115272239Y-79943700D01*
X115457604Y-79961957D01*
X115462396Y-79961957D01*
X115647760Y-79943700D01*
X115652453Y-79942767D01*
X115830689Y-79888699D01*
X115835128Y-79886860D01*
X115999386Y-79799062D01*
X116003369Y-79796401D01*
X116085653Y-79728871D01*
X116088739Y-79724412D01*
X116086104Y-79719670D01*
X115466892Y-79100458D01*
X115460000Y-79097603D01*
X115453107Y-79100458D01*
X114833894Y-79719670D01*
X114831259Y-79724411D01*
X113548738Y-79724411D01*
X113546104Y-79719670D01*
X112926892Y-79100458D01*
X112920000Y-79097603D01*
X112913107Y-79100458D01*
X112293894Y-79719670D01*
X112291259Y-79724411D01*
X100120500Y-79724411D01*
X100120500Y-78989896D01*
X111945543Y-78989896D01*
X111963799Y-79175260D01*
X111964732Y-79179953D01*
X112018800Y-79358189D01*
X112020639Y-79362628D01*
X112108436Y-79526885D01*
X112111100Y-79530872D01*
X112178624Y-79613150D01*
X112183087Y-79616239D01*
X112187828Y-79613604D01*
X112809372Y-78992061D01*
X112812005Y-78987500D01*
X112812004Y-78987499D01*
X113030103Y-78987499D01*
X113032958Y-78994392D01*
X113652170Y-79613604D01*
X113656912Y-79616239D01*
X113661371Y-79613153D01*
X113728901Y-79530869D01*
X113731562Y-79526886D01*
X113819360Y-79362628D01*
X113821199Y-79358189D01*
X113875267Y-79179953D01*
X113876200Y-79175260D01*
X113894457Y-78989896D01*
X114485543Y-78989896D01*
X114503799Y-79175260D01*
X114504732Y-79179953D01*
X114558800Y-79358189D01*
X114560639Y-79362628D01*
X114648436Y-79526885D01*
X114651100Y-79530872D01*
X114718624Y-79613150D01*
X114723087Y-79616239D01*
X114727828Y-79613604D01*
X115349372Y-78992061D01*
X115352005Y-78987500D01*
X115352004Y-78987499D01*
X115570103Y-78987499D01*
X115572958Y-78994392D01*
X116192170Y-79613604D01*
X116196912Y-79616239D01*
X116201371Y-79613153D01*
X116268901Y-79530869D01*
X116271562Y-79526886D01*
X116359360Y-79362628D01*
X116361199Y-79358189D01*
X116415267Y-79179953D01*
X116416200Y-79175260D01*
X116434457Y-78989896D01*
X116434457Y-78987500D01*
X117044901Y-78987500D01*
X117045137Y-78989896D01*
X117061263Y-79153634D01*
X117063253Y-79173831D01*
X117063948Y-79176124D01*
X117063950Y-79176131D01*
X117114789Y-79343722D01*
X117117604Y-79353001D01*
X117118742Y-79355130D01*
X117197942Y-79503305D01*
X117205864Y-79518125D01*
X117324643Y-79662857D01*
X117469375Y-79781636D01*
X117634499Y-79869896D01*
X117813669Y-79924247D01*
X117938320Y-79936524D01*
X117955303Y-79938197D01*
X117986807Y-79954055D01*
X117999500Y-79986961D01*
X117999500Y-86957612D01*
X117998028Y-86966271D01*
X117998080Y-86966277D01*
X117997461Y-86971762D01*
X117995638Y-86976974D01*
X117996255Y-86982459D01*
X117996256Y-86982459D01*
X117999192Y-87008522D01*
X117999500Y-87014007D01*
X117999500Y-87022590D01*
X118000110Y-87025264D01*
X118000111Y-87025270D01*
X118001409Y-87030955D01*
X118002329Y-87036371D01*
X118004888Y-87059089D01*
X118005884Y-87067924D01*
X118008819Y-87072596D01*
X118010644Y-87077810D01*
X118010597Y-87077826D01*
X118011041Y-87078897D01*
X118011086Y-87078876D01*
X118013481Y-87083850D01*
X118014710Y-87089231D01*
X118032889Y-87112028D01*
X118034507Y-87114056D01*
X118037684Y-87118534D01*
X118040784Y-87123466D01*
X118040786Y-87123469D01*
X118042252Y-87125801D01*
X118044198Y-87127747D01*
X118044199Y-87127748D01*
X118048318Y-87131867D01*
X118051979Y-87135964D01*
X118068331Y-87156469D01*
X118068332Y-87156470D01*
X118071776Y-87160788D01*
X118076751Y-87163184D01*
X118081068Y-87166626D01*
X118081035Y-87166666D01*
X118088200Y-87171749D01*
X122941068Y-92024618D01*
X122954478Y-92049705D01*
X122963092Y-92093007D01*
X122964034Y-92097740D01*
X122966713Y-92101750D01*
X122966714Y-92101751D01*
X123014905Y-92173876D01*
X123019399Y-92180601D01*
X123102260Y-92235966D01*
X123200000Y-92255408D01*
X123297740Y-92235966D01*
X123380601Y-92180601D01*
X123435966Y-92097740D01*
X123455408Y-92000000D01*
X123435966Y-91902260D01*
X123380601Y-91819399D01*
X123345102Y-91795680D01*
X123301751Y-91766714D01*
X123301750Y-91766713D01*
X123297740Y-91764034D01*
X123293009Y-91763092D01*
X123293007Y-91763092D01*
X123249705Y-91754478D01*
X123224618Y-91741068D01*
X120820898Y-89337348D01*
X118414851Y-86931302D01*
X118404230Y-86915406D01*
X118400500Y-86896655D01*
X118400500Y-79880558D01*
X118407471Y-79855367D01*
X118426402Y-79837344D01*
X118530625Y-79781636D01*
X118675357Y-79662857D01*
X118794136Y-79518125D01*
X118882396Y-79353001D01*
X118936747Y-79173831D01*
X118955099Y-78987500D01*
X118936747Y-78801169D01*
X118882396Y-78621999D01*
X118794136Y-78456875D01*
X118675357Y-78312143D01*
X118659364Y-78299018D01*
X118532487Y-78194892D01*
X118532486Y-78194891D01*
X118530625Y-78193364D01*
X118503003Y-78178600D01*
X118367630Y-78106242D01*
X118365501Y-78105104D01*
X118363193Y-78104403D01*
X118363191Y-78104403D01*
X118235276Y-78065600D01*
X118210143Y-78047899D01*
X118200500Y-78018710D01*
X118200500Y-77416290D01*
X118210143Y-77387101D01*
X118235276Y-77369400D01*
X118303516Y-77348699D01*
X118365501Y-77329896D01*
X118530625Y-77241636D01*
X118675357Y-77122857D01*
X118794136Y-76978125D01*
X118882396Y-76813001D01*
X118936747Y-76633831D01*
X118955099Y-76447500D01*
X118936747Y-76261169D01*
X118882396Y-76081999D01*
X118794136Y-75916875D01*
X118675357Y-75772143D01*
X118530625Y-75653364D01*
X118503003Y-75638600D01*
X118367630Y-75566242D01*
X118365501Y-75565104D01*
X118363193Y-75564403D01*
X118363191Y-75564403D01*
X118188631Y-75511450D01*
X118188624Y-75511448D01*
X118186331Y-75510753D01*
X118183941Y-75510517D01*
X118183938Y-75510517D01*
X118002396Y-75492637D01*
X118000000Y-75492401D01*
X117997604Y-75492637D01*
X117816061Y-75510517D01*
X117816056Y-75510517D01*
X117813669Y-75510753D01*
X117811377Y-75511448D01*
X117811368Y-75511450D01*
X117636808Y-75564403D01*
X117636802Y-75564405D01*
X117634499Y-75565104D01*
X117632373Y-75566240D01*
X117632369Y-75566242D01*
X117471499Y-75652228D01*
X117471493Y-75652231D01*
X117469375Y-75653364D01*
X117467518Y-75654887D01*
X117467512Y-75654892D01*
X117326505Y-75770614D01*
X117326500Y-75770618D01*
X117324643Y-75772143D01*
X117323118Y-75774000D01*
X117323114Y-75774005D01*
X117207392Y-75915012D01*
X117207387Y-75915018D01*
X117205864Y-75916875D01*
X117204731Y-75918993D01*
X117204728Y-75918999D01*
X117118742Y-76079869D01*
X117118740Y-76079873D01*
X117117604Y-76081999D01*
X117116905Y-76084302D01*
X117116903Y-76084308D01*
X117063950Y-76258868D01*
X117063948Y-76258877D01*
X117063253Y-76261169D01*
X117063017Y-76263556D01*
X117063017Y-76263561D01*
X117045754Y-76438832D01*
X117044901Y-76447500D01*
X117063253Y-76633831D01*
X117063948Y-76636124D01*
X117063950Y-76636131D01*
X117116903Y-76810691D01*
X117117604Y-76813001D01*
X117205864Y-76978125D01*
X117324643Y-77122857D01*
X117469375Y-77241636D01*
X117634499Y-77329896D01*
X117696484Y-77348699D01*
X117764724Y-77369400D01*
X117789857Y-77387101D01*
X117799500Y-77416290D01*
X117799500Y-78018710D01*
X117789857Y-78047899D01*
X117764724Y-78065600D01*
X117636808Y-78104403D01*
X117636802Y-78104405D01*
X117634499Y-78105104D01*
X117632373Y-78106240D01*
X117632369Y-78106242D01*
X117471499Y-78192228D01*
X117471493Y-78192231D01*
X117469375Y-78193364D01*
X117467518Y-78194887D01*
X117467512Y-78194892D01*
X117326505Y-78310614D01*
X117326500Y-78310618D01*
X117324643Y-78312143D01*
X117323118Y-78314000D01*
X117323114Y-78314005D01*
X117207392Y-78455012D01*
X117207387Y-78455018D01*
X117205864Y-78456875D01*
X117204731Y-78458993D01*
X117204728Y-78458999D01*
X117118742Y-78619869D01*
X117118740Y-78619873D01*
X117117604Y-78621999D01*
X117116905Y-78624302D01*
X117116903Y-78624308D01*
X117063950Y-78798868D01*
X117063948Y-78798877D01*
X117063253Y-78801169D01*
X117063017Y-78803556D01*
X117063017Y-78803561D01*
X117051642Y-78919055D01*
X117044901Y-78987500D01*
X116434457Y-78987500D01*
X116434457Y-78985104D01*
X116416200Y-78799739D01*
X116415267Y-78795046D01*
X116361199Y-78616810D01*
X116359360Y-78612371D01*
X116271563Y-78448114D01*
X116268899Y-78444127D01*
X116201374Y-78361848D01*
X116196911Y-78358759D01*
X116192170Y-78361394D01*
X115572958Y-78980607D01*
X115570103Y-78987499D01*
X115352004Y-78987499D01*
X115349372Y-78982938D01*
X114727828Y-78361394D01*
X114723087Y-78358759D01*
X114718625Y-78361847D01*
X114651098Y-78444129D01*
X114648436Y-78448115D01*
X114560639Y-78612371D01*
X114558800Y-78616810D01*
X114504732Y-78795046D01*
X114503799Y-78799739D01*
X114485543Y-78985104D01*
X114485543Y-78989896D01*
X113894457Y-78989896D01*
X113894457Y-78985104D01*
X113876200Y-78799739D01*
X113875267Y-78795046D01*
X113821199Y-78616810D01*
X113819360Y-78612371D01*
X113731563Y-78448114D01*
X113728899Y-78444127D01*
X113661374Y-78361848D01*
X113656911Y-78358759D01*
X113652170Y-78361394D01*
X113032958Y-78980607D01*
X113030103Y-78987499D01*
X112812004Y-78987499D01*
X112809372Y-78982938D01*
X112187828Y-78361394D01*
X112183087Y-78358759D01*
X112178625Y-78361847D01*
X112111098Y-78444129D01*
X112108436Y-78448115D01*
X112020639Y-78612371D01*
X112018800Y-78616810D01*
X111964732Y-78795046D01*
X111963799Y-78799739D01*
X111945543Y-78985104D01*
X111945543Y-78989896D01*
X100120500Y-78989896D01*
X100120500Y-78250587D01*
X112291259Y-78250587D01*
X112293894Y-78255328D01*
X112915438Y-78876872D01*
X112920000Y-78879505D01*
X112924561Y-78876872D01*
X113546104Y-78255328D01*
X113548739Y-78250587D01*
X114831259Y-78250587D01*
X114833894Y-78255328D01*
X115455438Y-78876872D01*
X115460000Y-78879505D01*
X115464561Y-78876872D01*
X116086104Y-78255328D01*
X116088739Y-78250587D01*
X116085650Y-78246124D01*
X116003372Y-78178600D01*
X115999385Y-78175936D01*
X115835128Y-78088139D01*
X115830689Y-78086300D01*
X115652453Y-78032232D01*
X115647760Y-78031299D01*
X115462396Y-78013043D01*
X115457604Y-78013043D01*
X115272239Y-78031299D01*
X115267546Y-78032232D01*
X115089310Y-78086300D01*
X115084871Y-78088139D01*
X114920615Y-78175936D01*
X114916629Y-78178598D01*
X114834347Y-78246125D01*
X114831259Y-78250587D01*
X113548739Y-78250587D01*
X113545650Y-78246124D01*
X113463372Y-78178600D01*
X113459385Y-78175936D01*
X113295128Y-78088139D01*
X113290689Y-78086300D01*
X113112453Y-78032232D01*
X113107760Y-78031299D01*
X112922396Y-78013043D01*
X112917604Y-78013043D01*
X112732239Y-78031299D01*
X112727546Y-78032232D01*
X112549310Y-78086300D01*
X112544871Y-78088139D01*
X112380615Y-78175936D01*
X112376629Y-78178598D01*
X112294347Y-78246125D01*
X112291259Y-78250587D01*
X100120500Y-78250587D01*
X100120500Y-77184411D01*
X112291259Y-77184411D01*
X112294348Y-77188874D01*
X112376627Y-77256399D01*
X112380614Y-77259063D01*
X112544871Y-77346860D01*
X112549310Y-77348699D01*
X112727546Y-77402767D01*
X112732239Y-77403700D01*
X112917604Y-77421957D01*
X112922396Y-77421957D01*
X113107760Y-77403700D01*
X113112453Y-77402767D01*
X113290689Y-77348699D01*
X113295128Y-77346860D01*
X113459386Y-77259062D01*
X113463369Y-77256401D01*
X113545653Y-77188871D01*
X113548739Y-77184412D01*
X113548738Y-77184411D01*
X114831259Y-77184411D01*
X114834348Y-77188874D01*
X114916627Y-77256399D01*
X114920614Y-77259063D01*
X115084871Y-77346860D01*
X115089310Y-77348699D01*
X115267546Y-77402767D01*
X115272239Y-77403700D01*
X115457604Y-77421957D01*
X115462396Y-77421957D01*
X115647760Y-77403700D01*
X115652453Y-77402767D01*
X115830689Y-77348699D01*
X115835128Y-77346860D01*
X115999386Y-77259062D01*
X116003369Y-77256401D01*
X116085653Y-77188871D01*
X116088739Y-77184412D01*
X116086104Y-77179670D01*
X115466892Y-76560458D01*
X115460000Y-76557603D01*
X115453107Y-76560458D01*
X114833894Y-77179670D01*
X114831259Y-77184411D01*
X113548738Y-77184411D01*
X113546104Y-77179670D01*
X112926892Y-76560458D01*
X112920000Y-76557603D01*
X112913107Y-76560458D01*
X112293894Y-77179670D01*
X112291259Y-77184411D01*
X100120500Y-77184411D01*
X100120500Y-76449896D01*
X111945543Y-76449896D01*
X111963799Y-76635260D01*
X111964732Y-76639953D01*
X112018800Y-76818189D01*
X112020639Y-76822628D01*
X112108436Y-76986885D01*
X112111100Y-76990872D01*
X112178624Y-77073150D01*
X112183087Y-77076239D01*
X112187828Y-77073604D01*
X112809372Y-76452061D01*
X112812005Y-76447500D01*
X112812004Y-76447499D01*
X113030103Y-76447499D01*
X113032958Y-76454392D01*
X113652170Y-77073604D01*
X113656912Y-77076239D01*
X113661371Y-77073153D01*
X113728901Y-76990869D01*
X113731562Y-76986886D01*
X113819360Y-76822628D01*
X113821199Y-76818189D01*
X113875267Y-76639953D01*
X113876200Y-76635260D01*
X113894457Y-76449896D01*
X114485543Y-76449896D01*
X114503799Y-76635260D01*
X114504732Y-76639953D01*
X114558800Y-76818189D01*
X114560639Y-76822628D01*
X114648436Y-76986885D01*
X114651100Y-76990872D01*
X114718624Y-77073150D01*
X114723087Y-77076239D01*
X114727828Y-77073604D01*
X115349372Y-76452061D01*
X115352005Y-76447500D01*
X115352004Y-76447499D01*
X115570103Y-76447499D01*
X115572958Y-76454392D01*
X116192170Y-77073604D01*
X116196912Y-77076239D01*
X116201371Y-77073153D01*
X116268901Y-76990869D01*
X116271562Y-76986886D01*
X116359360Y-76822628D01*
X116361199Y-76818189D01*
X116415267Y-76639953D01*
X116416200Y-76635260D01*
X116434457Y-76449896D01*
X116434457Y-76445104D01*
X116416200Y-76259739D01*
X116415267Y-76255046D01*
X116361199Y-76076810D01*
X116359360Y-76072371D01*
X116271563Y-75908114D01*
X116268899Y-75904127D01*
X116201374Y-75821848D01*
X116196911Y-75818759D01*
X116192170Y-75821394D01*
X115572958Y-76440607D01*
X115570103Y-76447499D01*
X115352004Y-76447499D01*
X115349372Y-76442938D01*
X114727828Y-75821394D01*
X114723087Y-75818759D01*
X114718625Y-75821847D01*
X114651098Y-75904129D01*
X114648436Y-75908115D01*
X114560639Y-76072371D01*
X114558800Y-76076810D01*
X114504732Y-76255046D01*
X114503799Y-76259739D01*
X114485543Y-76445104D01*
X114485543Y-76449896D01*
X113894457Y-76449896D01*
X113894457Y-76445104D01*
X113876200Y-76259739D01*
X113875267Y-76255046D01*
X113821199Y-76076810D01*
X113819360Y-76072371D01*
X113731563Y-75908114D01*
X113728899Y-75904127D01*
X113661374Y-75821848D01*
X113656911Y-75818759D01*
X113652170Y-75821394D01*
X113032958Y-76440607D01*
X113030103Y-76447499D01*
X112812004Y-76447499D01*
X112809372Y-76442938D01*
X112187828Y-75821394D01*
X112183087Y-75818759D01*
X112178625Y-75821847D01*
X112111098Y-75904129D01*
X112108436Y-75908115D01*
X112020639Y-76072371D01*
X112018800Y-76076810D01*
X111964732Y-76255046D01*
X111963799Y-76259739D01*
X111945543Y-76445104D01*
X111945543Y-76449896D01*
X100120500Y-76449896D01*
X100120500Y-75710587D01*
X112291259Y-75710587D01*
X112293894Y-75715328D01*
X112915438Y-76336872D01*
X112919999Y-76339505D01*
X112924561Y-76336872D01*
X113546104Y-75715328D01*
X113548739Y-75710587D01*
X114831259Y-75710587D01*
X114833894Y-75715328D01*
X115455438Y-76336872D01*
X115459999Y-76339505D01*
X115464561Y-76336872D01*
X116086104Y-75715328D01*
X116088739Y-75710587D01*
X116085650Y-75706124D01*
X116003372Y-75638600D01*
X115999385Y-75635936D01*
X115835128Y-75548139D01*
X115830689Y-75546300D01*
X115652453Y-75492232D01*
X115647760Y-75491299D01*
X115462396Y-75473043D01*
X115457604Y-75473043D01*
X115272239Y-75491299D01*
X115267546Y-75492232D01*
X115089310Y-75546300D01*
X115084871Y-75548139D01*
X114920615Y-75635936D01*
X114916629Y-75638598D01*
X114834347Y-75706125D01*
X114831259Y-75710587D01*
X113548739Y-75710587D01*
X113545650Y-75706124D01*
X113463372Y-75638600D01*
X113459385Y-75635936D01*
X113295128Y-75548139D01*
X113290689Y-75546300D01*
X113112453Y-75492232D01*
X113107760Y-75491299D01*
X112922396Y-75473043D01*
X112917604Y-75473043D01*
X112732239Y-75491299D01*
X112727546Y-75492232D01*
X112549310Y-75546300D01*
X112544871Y-75548139D01*
X112380615Y-75635936D01*
X112376629Y-75638598D01*
X112294347Y-75706125D01*
X112291259Y-75710587D01*
X100120500Y-75710587D01*
X100120500Y-65169500D01*
X100134852Y-65134852D01*
X100169500Y-65120500D01*
X159830500Y-65120500D01*
X159865148Y-65134852D01*
G37*
%TD.AperFunction*%
%TD*%
M02*
