%TF.GenerationSoftware,KiCad,Pcbnew,(7.0.0)*%
%TF.CreationDate,2023-02-26T18:00:26-05:00*%
%TF.ProjectId,headstage-neuropix2e,68656164-7374-4616-9765-2d6e6575726f,A*%
%TF.SameCoordinates,Original*%
%TF.FileFunction,Soldermask,Bot*%
%TF.FilePolarity,Negative*%
%FSLAX46Y46*%
G04 Gerber Fmt 4.6, Leading zero omitted, Abs format (unit mm)*
G04 Created by KiCad (PCBNEW (7.0.0)) date 2023-02-26 18:00:26*
%MOMM*%
%LPD*%
G01*
G04 APERTURE LIST*
G04 Aperture macros list*
%AMRoundRect*
0 Rectangle with rounded corners*
0 $1 Rounding radius*
0 $2 $3 $4 $5 $6 $7 $8 $9 X,Y pos of 4 corners*
0 Add a 4 corners polygon primitive as box body*
4,1,4,$2,$3,$4,$5,$6,$7,$8,$9,$2,$3,0*
0 Add four circle primitives for the rounded corners*
1,1,$1+$1,$2,$3*
1,1,$1+$1,$4,$5*
1,1,$1+$1,$6,$7*
1,1,$1+$1,$8,$9*
0 Add four rect primitives between the rounded corners*
20,1,$1+$1,$2,$3,$4,$5,0*
20,1,$1+$1,$4,$5,$6,$7,0*
20,1,$1+$1,$6,$7,$8,$9,0*
20,1,$1+$1,$8,$9,$2,$3,0*%
%AMFreePoly0*
4,1,13,-0.200000,0.080000,-0.190866,0.125922,-0.164853,0.164853,-0.125922,0.190866,-0.080000,0.200000,0.200000,0.200000,0.200000,-0.200000,-0.080000,-0.200000,-0.125922,-0.190866,-0.164853,-0.164853,-0.190866,-0.125922,-0.200000,-0.080000,-0.200000,0.080000,-0.200000,0.080000,$1*%
%AMFreePoly1*
4,1,13,-0.200000,0.200000,0.080000,0.200000,0.125922,0.190866,0.164853,0.164853,0.190866,0.125922,0.200000,0.080000,0.200000,-0.080000,0.190866,-0.125922,0.164853,-0.164853,0.125922,-0.190866,0.080000,-0.200000,-0.200000,-0.200000,-0.200000,0.200000,-0.200000,0.200000,$1*%
%AMFreePoly2*
4,1,6,0.350000,-0.250000,-0.225000,-0.250000,-0.350000,-0.125000,-0.350000,0.250000,0.350000,0.250000,0.350000,-0.250000,0.350000,-0.250000,$1*%
G04 Aperture macros list end*
%ADD10O,1.400000X2.600000*%
%ADD11C,0.990600*%
%ADD12C,2.374900*%
%ADD13FreePoly0,90.000000*%
%ADD14R,0.400000X0.400000*%
%ADD15FreePoly1,90.000000*%
%ADD16RoundRect,0.218750X0.218750X0.381250X-0.218750X0.381250X-0.218750X-0.381250X0.218750X-0.381250X0*%
%ADD17RoundRect,0.015000X-0.135000X-0.310000X0.135000X-0.310000X0.135000X0.310000X-0.135000X0.310000X0*%
%ADD18RoundRect,0.020000X-0.180000X-0.480000X0.180000X-0.480000X0.180000X0.480000X-0.180000X0.480000X0*%
%ADD19C,0.180000*%
%ADD20RoundRect,0.100000X0.130000X0.100000X-0.130000X0.100000X-0.130000X-0.100000X0.130000X-0.100000X0*%
%ADD21C,0.200000*%
%ADD22RoundRect,0.100000X-0.130000X-0.100000X0.130000X-0.100000X0.130000X0.100000X-0.130000X0.100000X0*%
%ADD23RoundRect,0.140000X0.170000X-0.140000X0.170000X0.140000X-0.170000X0.140000X-0.170000X-0.140000X0*%
%ADD24RoundRect,0.100000X0.100000X-0.130000X0.100000X0.130000X-0.100000X0.130000X-0.100000X-0.130000X0*%
%ADD25RoundRect,0.100000X-0.100000X0.130000X-0.100000X-0.130000X0.100000X-0.130000X0.100000X0.130000X0*%
%ADD26FreePoly2,270.000000*%
%ADD27R,0.400000X0.700000*%
%ADD28R,0.599999X0.249999*%
%ADD29R,0.249999X0.599999*%
%ADD30R,3.099999X3.099999*%
%ADD31RoundRect,0.250000X1.075000X-0.375000X1.075000X0.375000X-1.075000X0.375000X-1.075000X-0.375000X0*%
G04 APERTURE END LIST*
%TO.C,G\u002A\u002A\u002A*%
G36*
X143586448Y-83722998D02*
G01*
X143588605Y-83720915D01*
X143596673Y-83713599D01*
X143603344Y-83708113D01*
X143608863Y-83704221D01*
X143613477Y-83701690D01*
X143617434Y-83700283D01*
X143620979Y-83699767D01*
X143624359Y-83699905D01*
X143627822Y-83700462D01*
X143631614Y-83701206D01*
X143636833Y-83702666D01*
X143649042Y-83709634D01*
X143659452Y-83720254D01*
X143666385Y-83732993D01*
X143666843Y-83734201D01*
X143669468Y-83740712D01*
X143674165Y-83752142D01*
X143680797Y-83768158D01*
X143689221Y-83788426D01*
X143693231Y-83798050D01*
X143699300Y-83812615D01*
X143710892Y-83840390D01*
X143723859Y-83871420D01*
X143738060Y-83905372D01*
X143753356Y-83941914D01*
X143769607Y-83980711D01*
X143786673Y-84021433D01*
X143804415Y-84063745D01*
X143822692Y-84107316D01*
X143841366Y-84151812D01*
X143860296Y-84196901D01*
X143879342Y-84242251D01*
X143898365Y-84287527D01*
X143917224Y-84332399D01*
X143935782Y-84376532D01*
X143953896Y-84419595D01*
X143971428Y-84461254D01*
X143988239Y-84501177D01*
X144004187Y-84539032D01*
X144019134Y-84574484D01*
X144032940Y-84607203D01*
X144045465Y-84636854D01*
X144056569Y-84663106D01*
X144066112Y-84685625D01*
X144073955Y-84704079D01*
X144079958Y-84718136D01*
X144083981Y-84727461D01*
X144085885Y-84731723D01*
X144087269Y-84734754D01*
X144091346Y-84750101D01*
X144091060Y-84765169D01*
X144086749Y-84778776D01*
X144078748Y-84789735D01*
X144067394Y-84796862D01*
X144065515Y-84797490D01*
X144058172Y-84799786D01*
X144046078Y-84803486D01*
X144029772Y-84808428D01*
X144009797Y-84814449D01*
X143986695Y-84821385D01*
X143961007Y-84829073D01*
X143933274Y-84837350D01*
X143904039Y-84846054D01*
X143886925Y-84851149D01*
X143858425Y-84859665D01*
X143831707Y-84867687D01*
X143807320Y-84875046D01*
X143785810Y-84881579D01*
X143767726Y-84887116D01*
X143753613Y-84891494D01*
X143744020Y-84894544D01*
X143739493Y-84896100D01*
X143730122Y-84898953D01*
X143714471Y-84899149D01*
X143697690Y-84893819D01*
X143697521Y-84893743D01*
X143692743Y-84891705D01*
X143682912Y-84887608D01*
X143668364Y-84881589D01*
X143649437Y-84873786D01*
X143626469Y-84864338D01*
X143599795Y-84853384D01*
X143569755Y-84841061D01*
X143536684Y-84827507D01*
X143500920Y-84812862D01*
X143462800Y-84797264D01*
X143422661Y-84780850D01*
X143380841Y-84763759D01*
X143364371Y-84757032D01*
X143756553Y-84757032D01*
X143757223Y-84766045D01*
X143758447Y-84776009D01*
X143760001Y-84785225D01*
X143761665Y-84791995D01*
X143763218Y-84794619D01*
X143764689Y-84794360D01*
X143771131Y-84792723D01*
X143781550Y-84789829D01*
X143794900Y-84785972D01*
X143810136Y-84781444D01*
X143818906Y-84778788D01*
X143832889Y-84774477D01*
X143844220Y-84770886D01*
X143851913Y-84768329D01*
X143854981Y-84767122D01*
X143855195Y-84766864D01*
X143855021Y-84766348D01*
X143853443Y-84765702D01*
X143849735Y-84764769D01*
X143843173Y-84763391D01*
X143833031Y-84761412D01*
X143818584Y-84758675D01*
X143799108Y-84755022D01*
X143793813Y-84754044D01*
X143779795Y-84751593D01*
X143768315Y-84749788D01*
X143760443Y-84748789D01*
X143757247Y-84748755D01*
X143756655Y-84750670D01*
X143756553Y-84757032D01*
X143364371Y-84757032D01*
X143337676Y-84746129D01*
X143333291Y-84744339D01*
X143290312Y-84726782D01*
X143248751Y-84709789D01*
X143208942Y-84693497D01*
X143194388Y-84687535D01*
X143432120Y-84687535D01*
X143433131Y-84688240D01*
X143436522Y-84689872D01*
X143442630Y-84692571D01*
X143451794Y-84696479D01*
X143464353Y-84701735D01*
X143480646Y-84708482D01*
X143501011Y-84716859D01*
X143525787Y-84727009D01*
X143555312Y-84739071D01*
X143589926Y-84753188D01*
X143592071Y-84753067D01*
X143590880Y-84749406D01*
X143586160Y-84741900D01*
X143577758Y-84730260D01*
X143563569Y-84711235D01*
X143498317Y-84698908D01*
X143488229Y-84697016D01*
X143470451Y-84693750D01*
X143455130Y-84691025D01*
X143443087Y-84688983D01*
X143435147Y-84687766D01*
X143432131Y-84687514D01*
X143432120Y-84687535D01*
X143194388Y-84687535D01*
X143171219Y-84678044D01*
X143135915Y-84663568D01*
X143103363Y-84650204D01*
X143073897Y-84638090D01*
X143047851Y-84627363D01*
X143025559Y-84618161D01*
X143007352Y-84610620D01*
X142993566Y-84604877D01*
X142984534Y-84601070D01*
X142980589Y-84599336D01*
X142978709Y-84598308D01*
X142968452Y-84589252D01*
X142961593Y-84577059D01*
X142958520Y-84563298D01*
X142959619Y-84549534D01*
X142965277Y-84537335D01*
X142967949Y-84534048D01*
X142977925Y-84525144D01*
X142989042Y-84518953D01*
X142999315Y-84516682D01*
X143000898Y-84516845D01*
X143008029Y-84517943D01*
X143020228Y-84520007D01*
X143037050Y-84522957D01*
X143058052Y-84526711D01*
X143082789Y-84531190D01*
X143110816Y-84536312D01*
X143141690Y-84541997D01*
X143174964Y-84548165D01*
X143210196Y-84554733D01*
X143246941Y-84561623D01*
X143268166Y-84565609D01*
X143303769Y-84572275D01*
X143337449Y-84578555D01*
X143368781Y-84584370D01*
X143397338Y-84589644D01*
X143422696Y-84594298D01*
X143432131Y-84596015D01*
X143444429Y-84598254D01*
X143462112Y-84601434D01*
X143475319Y-84603760D01*
X143483625Y-84605155D01*
X143486605Y-84605539D01*
X143485794Y-84604127D01*
X143481901Y-84598337D01*
X143475018Y-84588399D01*
X143465390Y-84574659D01*
X143453263Y-84557463D01*
X143438880Y-84537157D01*
X143422488Y-84514087D01*
X143404330Y-84488598D01*
X143384654Y-84461036D01*
X143363702Y-84431747D01*
X143341721Y-84401078D01*
X143326191Y-84379415D01*
X143317586Y-84367394D01*
X143427264Y-84367394D01*
X143427713Y-84368008D01*
X143431141Y-84372773D01*
X143437516Y-84381677D01*
X143446508Y-84394256D01*
X143457787Y-84410049D01*
X143471023Y-84428593D01*
X143485884Y-84449425D01*
X143502042Y-84472083D01*
X143519166Y-84496105D01*
X143525295Y-84504701D01*
X143542179Y-84528341D01*
X143558026Y-84550474D01*
X143572501Y-84570635D01*
X143585267Y-84588357D01*
X143595988Y-84603173D01*
X143604326Y-84614617D01*
X143609946Y-84622222D01*
X143612512Y-84625523D01*
X143617371Y-84628523D01*
X143626216Y-84631862D01*
X143636956Y-84634678D01*
X143656713Y-84638810D01*
X143656327Y-84628191D01*
X143656155Y-84625125D01*
X143655442Y-84615860D01*
X143654304Y-84602774D01*
X143653576Y-84594922D01*
X143742604Y-84594922D01*
X143742827Y-84601026D01*
X143743603Y-84610467D01*
X143744759Y-84621723D01*
X143746124Y-84633274D01*
X143747523Y-84643599D01*
X143748785Y-84651175D01*
X143749738Y-84654483D01*
X143752320Y-84655382D01*
X143757247Y-84656587D01*
X143759880Y-84657231D01*
X143771404Y-84659733D01*
X143785922Y-84662681D01*
X143802462Y-84665863D01*
X143816779Y-84668495D01*
X143831446Y-84671067D01*
X143843195Y-84672990D01*
X143851081Y-84674108D01*
X143854163Y-84674270D01*
X143853422Y-84673399D01*
X143848755Y-84669554D01*
X143840369Y-84663107D01*
X143828909Y-84654543D01*
X143815017Y-84644345D01*
X143799335Y-84632997D01*
X143789180Y-84625716D01*
X143774403Y-84615191D01*
X143761714Y-84606242D01*
X143751778Y-84599331D01*
X143745258Y-84594924D01*
X143742817Y-84593483D01*
X143742604Y-84594922D01*
X143653576Y-84594922D01*
X143652854Y-84587144D01*
X143651204Y-84570250D01*
X143646468Y-84522928D01*
X143549879Y-84453548D01*
X143543759Y-84449151D01*
X143522349Y-84433771D01*
X143502062Y-84419197D01*
X143483503Y-84405862D01*
X143467278Y-84394202D01*
X143453991Y-84384653D01*
X143444249Y-84377648D01*
X143438655Y-84373623D01*
X143431825Y-84368964D01*
X143427656Y-84366673D01*
X143427264Y-84367394D01*
X143317586Y-84367394D01*
X143304639Y-84349308D01*
X143284172Y-84320664D01*
X143265050Y-84293849D01*
X143247530Y-84269228D01*
X143231873Y-84247166D01*
X143218338Y-84228029D01*
X143207184Y-84212183D01*
X143198671Y-84199993D01*
X143193057Y-84191824D01*
X143190602Y-84188042D01*
X143187974Y-84182059D01*
X143185835Y-84167519D01*
X143187084Y-84162303D01*
X143301089Y-84162303D01*
X143302892Y-84163883D01*
X143309003Y-84168601D01*
X143318992Y-84176107D01*
X143332394Y-84186063D01*
X143348748Y-84198134D01*
X143367589Y-84211982D01*
X143388456Y-84227271D01*
X143410885Y-84243664D01*
X143427656Y-84255896D01*
X143434414Y-84260825D01*
X143458578Y-84278416D01*
X143482915Y-84296101D01*
X143506963Y-84313544D01*
X143530258Y-84330407D01*
X143552337Y-84346354D01*
X143572738Y-84361048D01*
X143590996Y-84374153D01*
X143606650Y-84385331D01*
X143619236Y-84394246D01*
X143628292Y-84400562D01*
X143633353Y-84403941D01*
X143633710Y-84404154D01*
X143634467Y-84404408D01*
X143635047Y-84403946D01*
X143635422Y-84402343D01*
X143635562Y-84399172D01*
X143635439Y-84394007D01*
X143635022Y-84386422D01*
X143634284Y-84375990D01*
X143633194Y-84362286D01*
X143631724Y-84344882D01*
X143629845Y-84323353D01*
X143627528Y-84297273D01*
X143624743Y-84266215D01*
X143621461Y-84229753D01*
X143619066Y-84203144D01*
X143615337Y-84161717D01*
X143612063Y-84125317D01*
X143609200Y-84093436D01*
X143606701Y-84065566D01*
X143604522Y-84041199D01*
X143603759Y-84032631D01*
X143692284Y-84032631D01*
X143692810Y-84038038D01*
X143693186Y-84041024D01*
X143694067Y-84049635D01*
X143695364Y-84063204D01*
X143697032Y-84081244D01*
X143699029Y-84103267D01*
X143701310Y-84128788D01*
X143703831Y-84157318D01*
X143706549Y-84188370D01*
X143709420Y-84221459D01*
X143712400Y-84256095D01*
X143714825Y-84284201D01*
X143717741Y-84317481D01*
X143720531Y-84348758D01*
X143723150Y-84377554D01*
X143725551Y-84403389D01*
X143727690Y-84425786D01*
X143729522Y-84444265D01*
X143731001Y-84458346D01*
X143732082Y-84467553D01*
X143732721Y-84471404D01*
X143733908Y-84472820D01*
X143739397Y-84477641D01*
X143742817Y-84480389D01*
X143748851Y-84485237D01*
X143761768Y-84495226D01*
X143777646Y-84507227D01*
X143795985Y-84520858D01*
X143816281Y-84535738D01*
X143838034Y-84551485D01*
X143852144Y-84561618D01*
X143872862Y-84576430D01*
X143891771Y-84589868D01*
X143908380Y-84601588D01*
X143922202Y-84611248D01*
X143932747Y-84618505D01*
X143939527Y-84623016D01*
X143942053Y-84624438D01*
X143941784Y-84623503D01*
X143939622Y-84617863D01*
X143935459Y-84607489D01*
X143929470Y-84592803D01*
X143921832Y-84574226D01*
X143912722Y-84552180D01*
X143902317Y-84527086D01*
X143890792Y-84499365D01*
X143878326Y-84469438D01*
X143865094Y-84437726D01*
X143851273Y-84404652D01*
X143837039Y-84370635D01*
X143822570Y-84336098D01*
X143808042Y-84301461D01*
X143793632Y-84267146D01*
X143779515Y-84233574D01*
X143765869Y-84201166D01*
X143752871Y-84170344D01*
X143740697Y-84141529D01*
X143729524Y-84115142D01*
X143719528Y-84091604D01*
X143710886Y-84071336D01*
X143703774Y-84054761D01*
X143698370Y-84042298D01*
X143694850Y-84034370D01*
X143693390Y-84031397D01*
X143693231Y-84031264D01*
X143692284Y-84032631D01*
X143603759Y-84032631D01*
X143602618Y-84019829D01*
X143600943Y-84000945D01*
X143599453Y-83984042D01*
X143598101Y-83968611D01*
X143596844Y-83954143D01*
X143595637Y-83940132D01*
X143594433Y-83926070D01*
X143593187Y-83911448D01*
X143592811Y-83907068D01*
X143591212Y-83889619D01*
X143589678Y-83874538D01*
X143588307Y-83862694D01*
X143587197Y-83854951D01*
X143586448Y-83852177D01*
X143585415Y-83853024D01*
X143580801Y-83857638D01*
X143572872Y-83865898D01*
X143562012Y-83877388D01*
X143548605Y-83891689D01*
X143533035Y-83908385D01*
X143515686Y-83927057D01*
X143496942Y-83947289D01*
X143477187Y-83968663D01*
X143456806Y-83990762D01*
X143436182Y-84013168D01*
X143415699Y-84035464D01*
X143395742Y-84057233D01*
X143376694Y-84078056D01*
X143358940Y-84097518D01*
X143342864Y-84115199D01*
X143328849Y-84130684D01*
X143317280Y-84143554D01*
X143308541Y-84153392D01*
X143303016Y-84159781D01*
X143301089Y-84162303D01*
X143187084Y-84162303D01*
X143189266Y-84153190D01*
X143190621Y-84151329D01*
X143195745Y-84145253D01*
X143204387Y-84135396D01*
X143216278Y-84122055D01*
X143231149Y-84105528D01*
X143248729Y-84086111D01*
X143268747Y-84064103D01*
X143290935Y-84039801D01*
X143315021Y-84013501D01*
X143340737Y-83985501D01*
X143367812Y-83956098D01*
X143395975Y-83925591D01*
X143412358Y-83907864D01*
X143444113Y-83873508D01*
X143472250Y-83843096D01*
X143497014Y-83816393D01*
X143518653Y-83793165D01*
X143537414Y-83773176D01*
X143553542Y-83756192D01*
X143567286Y-83741977D01*
X143578891Y-83730296D01*
X143586448Y-83722998D01*
G37*
%TD*%
D10*
%TO.C,TP2*%
X146634999Y-83419999D03*
%TD*%
%TO.C,TP1*%
X144954999Y-83419999D03*
%TD*%
D11*
%TO.C,J4*%
X114745000Y-89444000D03*
D12*
X116650000Y-93000000D03*
X116650000Y-87920000D03*
D11*
X114745000Y-91476000D03*
X119825000Y-90460000D03*
D12*
X119825000Y-93000000D03*
X119825000Y-87920000D03*
%TD*%
D13*
%TO.C,JP1*%
X140824999Y-92329999D03*
D14*
X140824999Y-91789999D03*
D15*
X140824999Y-91249999D03*
%TD*%
D16*
%TO.C,L2*%
X143450000Y-82900000D03*
X141325000Y-82900000D03*
%TD*%
D17*
%TO.C,J3*%
X146325000Y-95650000D03*
X146025000Y-93150000D03*
X145725000Y-95650000D03*
X145425000Y-93150000D03*
X145125000Y-95650000D03*
X144825000Y-93150000D03*
X144525000Y-95650000D03*
X144225000Y-93150000D03*
X143925000Y-95650000D03*
X143625000Y-93150000D03*
X143325000Y-95650000D03*
X143025000Y-93150000D03*
X142725000Y-95650000D03*
X142425000Y-93150000D03*
X142125000Y-95650000D03*
X141825000Y-93150000D03*
X141525000Y-95650000D03*
X141225000Y-93150000D03*
X140925000Y-95650000D03*
X140625000Y-93150000D03*
X140325000Y-95650000D03*
X140025000Y-93150000D03*
X139725000Y-95650000D03*
X139425000Y-93150000D03*
X139125000Y-95650000D03*
X138825000Y-93150000D03*
X138525000Y-95650000D03*
D18*
X146925000Y-95175000D03*
X137925000Y-95175000D03*
%TD*%
D19*
%TO.C,U6*%
X145475000Y-86100000D03*
X145475000Y-85700000D03*
X145075000Y-86100000D03*
X145075000Y-85700000D03*
%TD*%
D20*
%TO.C,C25*%
X146895000Y-85950000D03*
X146255000Y-85950000D03*
%TD*%
D21*
%TO.C,U2*%
X138570000Y-91025000D03*
X138570000Y-91375000D03*
X138920000Y-91025000D03*
X138920000Y-91375000D03*
%TD*%
D22*
%TO.C,R5*%
X138055000Y-86900000D03*
X138695000Y-86900000D03*
%TD*%
D20*
%TO.C,C28*%
X140065000Y-92300000D03*
X139425000Y-92300000D03*
%TD*%
D23*
%TO.C,C12*%
X141925000Y-85980000D03*
X141925000Y-85020000D03*
%TD*%
D24*
%TO.C,C11*%
X143475000Y-86040000D03*
X143475000Y-85400000D03*
%TD*%
%TO.C,R11*%
X140165000Y-91570000D03*
X140165000Y-90930000D03*
%TD*%
D25*
%TO.C,L3*%
X141055000Y-85460000D03*
X141055000Y-86100000D03*
%TD*%
D24*
%TO.C,C4*%
X139445000Y-91570000D03*
X139445000Y-90930000D03*
%TD*%
D20*
%TO.C,R12*%
X140545000Y-89500000D03*
X139905000Y-89500000D03*
%TD*%
D22*
%TO.C,C21*%
X139615000Y-86860000D03*
X140255000Y-86860000D03*
%TD*%
D26*
%TO.C,U5*%
X139100000Y-87725000D03*
D27*
X140599999Y-87724999D03*
X140599999Y-88674999D03*
X139049999Y-88674999D03*
%TD*%
D24*
%TO.C,C27*%
X139055000Y-90160000D03*
X139055000Y-89520000D03*
%TD*%
D20*
%TO.C,C24*%
X140545000Y-90200000D03*
X139905000Y-90200000D03*
%TD*%
D22*
%TO.C,R8*%
X138015000Y-92300000D03*
X138655000Y-92300000D03*
%TD*%
%TO.C,R2*%
X142005000Y-84100000D03*
X142645000Y-84100000D03*
%TD*%
D25*
%TO.C,C5*%
X138045000Y-90880000D03*
X138045000Y-91520000D03*
%TD*%
%TO.C,C26*%
X138125000Y-89300000D03*
X138125000Y-89940000D03*
%TD*%
D24*
%TO.C,C10*%
X142775000Y-86020000D03*
X142775000Y-85380000D03*
%TD*%
D28*
%TO.C,U3*%
X141624999Y-91149998D03*
X141624999Y-90649999D03*
X141624999Y-90150000D03*
X141624999Y-89649999D03*
X141624999Y-89149999D03*
X141624999Y-88650001D03*
X141624999Y-88149999D03*
X141624999Y-87650000D03*
D29*
X142275000Y-86999999D03*
X142774999Y-86999999D03*
X143274998Y-86999999D03*
X143774999Y-86999999D03*
X144274999Y-86999999D03*
X144774997Y-86999999D03*
X145274999Y-86999999D03*
X145774998Y-86999999D03*
D28*
X146424999Y-87650000D03*
X146424999Y-88149999D03*
X146424999Y-88650001D03*
X146424999Y-89149999D03*
X146424999Y-89649999D03*
X146424999Y-90150000D03*
X146424999Y-90649999D03*
X146424999Y-91149998D03*
D29*
X145774998Y-91799999D03*
X145274999Y-91799999D03*
X144774997Y-91799999D03*
X144274999Y-91799999D03*
X143774999Y-91799999D03*
X143274998Y-91799999D03*
X142774999Y-91799999D03*
X142275000Y-91799999D03*
D30*
X144024999Y-89399999D03*
%TD*%
D31*
%TO.C,L1*%
X139025000Y-85600000D03*
X139025000Y-82800000D03*
%TD*%
D24*
%TO.C,C23*%
X138145000Y-88490000D03*
X138145000Y-87850000D03*
%TD*%
%TO.C,C20*%
X144325000Y-86020000D03*
X144325000Y-85380000D03*
%TD*%
M02*
