M48
; DRILL file {KiCad (7.0.0)} date Wed Mar  1 11:35:50 2023
; FORMAT={-:-/ absolute / inch / decimal}
; #@! TF.CreationDate,2023-03-01T11:35:50-05:00
; #@! TF.GenerationSoftware,Kicad,Pcbnew,(7.0.0)
; #@! TF.FileFunction,Plated,1,4,PTH
FMAT,2
INCH
; #@! TA.AperFunction,Plated,PTH,ViaDrill
T1C0.0039
; #@! TA.AperFunction,Plated,PTH,ViaDrill
T2C0.0079
; #@! TA.AperFunction,Plated,PTH,ComponentDrill
T3C0.0315
; #@! TA.AperFunction,Plated,PTH,ComponentDrill
T4C0.0394
%
G90
G05
T1
X5.4245Y-3.5929
X5.4246Y-3.5283
X5.4256Y-3.2945
X5.4291Y-3.4993
X5.4297Y-3.6685
X5.4297Y-3.4623
X5.43Y-3.3329
X5.4301Y-3.748
X5.4313Y-3.7075
X5.4321Y-3.4425
X5.4389Y-3.6428
X5.4415Y-3.5429
X5.4451Y-3.6164
X5.447Y-3.3307
X5.4537Y-3.7421
X5.4555Y-3.5974
X5.4575Y-3.4685
X5.4583Y-3.3652
X5.4604Y-3.4398
X5.462Y-3.3362
X5.4624Y-3.4024
X5.4659Y-3.2933
X5.4675Y-3.7394
X5.4718Y-3.5833
X5.4719Y-3.6467
X5.4734Y-3.5138
X5.4734Y-3.5531
X5.4758Y-3.3358
X5.4767Y-3.7134
X5.4774Y-3.7657
X5.4789Y-3.4213
X5.4888Y-3.2929
X5.4896Y-3.3358
X5.49Y-3.5787
X5.4904Y-3.5508
X5.4915Y-3.6397
X5.4923Y-3.6894
X5.4955Y-3.5102
X5.4965Y-3.4682
X5.4998Y-3.4437
X5.501Y-3.4035
X5.501Y-3.7657
X5.5089Y-3.5512
X5.512Y-3.2953
X5.5128Y-3.6673
X5.5183Y-3.4681
X5.5195Y-3.4445
X5.5197Y-3.4843
X5.5207Y-3.6421
X5.5238Y-3.7343
X5.5246Y-3.7657
X5.5354Y-3.2364
X5.5364Y-3.5679
X5.5364Y-3.6673
X5.5384Y-3.6898
X5.5474Y-3.7339
X5.5482Y-3.7657
X5.56Y-3.3398
X5.56Y-3.6673
X5.5604Y-3.5304
X5.5667Y-3.3106
X5.5719Y-3.7657
X5.5751Y-3.4681
X5.5754Y-3.3287
X5.5758Y-3.435
X5.5758Y-3.4508
X5.5758Y-3.5098
X5.5758Y-3.5516
X5.5789Y-3.6898
X5.5837Y-3.6673
X5.5896Y-3.2528
X5.5915Y-3.3642
X5.5954Y-3.5431
X5.5955Y-3.7335
X5.5955Y-3.7657
X5.597Y-3.5681
X5.5975Y-3.4669
X5.5994Y-3.5547
X5.5998Y-3.5167
X5.6045Y-3.5894
X5.6073Y-3.6673
X5.6093Y-3.3484
X5.6132Y-3.247
X5.614Y-3.6894
X5.6191Y-3.7657
X5.6195Y-3.7335
X5.6211Y-3.3622
X5.6309Y-3.5433
X5.6309Y-3.563
X5.6309Y-3.5886
X5.6309Y-3.6673
X5.6361Y-3.41
X5.6368Y-3.4508
X5.6372Y-3.3283
X5.638Y-3.6961
X5.6388Y-3.3622
X5.6411Y-3.4744
X5.6427Y-3.6497
X5.6427Y-3.7657
X5.6451Y-3.4949
X5.6522Y-3.3098
X5.6545Y-3.6673
X5.6577Y-3.3276
X5.6585Y-3.4488
X5.6632Y-3.6941
X5.6646Y-3.4732
X5.6663Y-3.7657
X5.6691Y-3.7327
X5.6695Y-3.5886
X5.6703Y-3.3614
X5.6766Y-3.45
X5.6781Y-3.6673
X5.6801Y-3.6083
X5.686Y-3.4035
X5.6872Y-3.5732
X5.6872Y-3.5886
X5.6876Y-3.5185
X5.69Y-3.7657
X5.6915Y-3.6921
X5.699Y-3.4752
X5.699Y-3.4886
X5.7014Y-3.5476
X5.7018Y-3.6673
X5.7026Y-3.4508
X5.7053Y-3.374
X5.7116Y-3.3898
X5.7116Y-3.5978
X5.7136Y-3.3594
X5.7136Y-3.7657
X5.7211Y-3.7339
X5.7274Y-3.4469
X5.7299Y-3.5887
X5.7333Y-3.7047
X5.7352Y-3.7433
X5.7372Y-3.7657
X5.7392Y-3.5031
X5.7392Y-3.5594
X5.741Y-3.5301
X5.7423Y-3.5717
X5.7424Y-3.3931
X5.743Y-3.5433
X5.7431Y-3.606
X5.7439Y-3.4622
X5.7471Y-3.4193
X5.749Y-3.3516
X5.7507Y-3.6997
X5.7519Y-3.4359
X5.7553Y-3.5335
X5.7608Y-3.7451
X5.762Y-3.6831
X5.764Y-3.5094
X5.7648Y-3.4902
X5.7651Y-3.3945
X5.7738Y-3.4319
X5.7789Y-3.7783
X5.7841Y-3.3437
X5.7844Y-3.748
X5.788Y-3.7031
X5.7888Y-3.3646
X5.7927Y-3.4047
T2
X4.0591Y-4.8071
X4.0906Y-3.3386
X4.1516Y-2.7744
X4.2362Y-4.1142
X4.6457Y-3.8323
X4.7323Y-3.738
X4.8504Y-3.622
X4.9313Y-3.7809
X4.9874Y-2.8247
X5.126Y-3.9252
X5.3402Y-2.8976
X5.438Y-3.3815
X5.5079Y-4.1929
X5.5266Y-3.4016
X5.5423Y-3.4213
X5.6112Y-3.3258
X5.7165Y-2.8465
X6.0709Y-3.9961
X6.1339Y-3.4449
X6.1535Y-4.7992
X6.1693Y-2.7205
T4
X4.4457Y-3.0097
X4.4457Y-3.1097
X4.5457Y-3.0097
X4.5457Y-3.1097
X4.6457Y-3.0097
X4.6457Y-3.1097
X4.7457Y-3.0097
X4.7457Y-3.1097
X4.8457Y-3.0097
X4.8457Y-3.1097
T3
G00X5.7069Y-3.3079
M15
G01X5.7069Y-3.2606
M16
G05
G00X5.773Y-3.3079
M15
G01X5.773Y-3.2606
M16
G05
T0
M30
