%TF.GenerationSoftware,KiCad,Pcbnew,(7.0.0)*%
%TF.CreationDate,2023-03-01T11:35:52-05:00*%
%TF.ProjectId,headstage-neuropix2e,68656164-7374-4616-9765-2d6e6575726f,A*%
%TF.SameCoordinates,Original*%
%TF.FileFunction,Paste,Bot*%
%TF.FilePolarity,Positive*%
%FSLAX46Y46*%
G04 Gerber Fmt 4.6, Leading zero omitted, Abs format (unit mm)*
G04 Created by KiCad (PCBNEW (7.0.0)) date 2023-03-01 11:35:52*
%MOMM*%
%LPD*%
G01*
G04 APERTURE LIST*
G04 Aperture macros list*
%AMRoundRect*
0 Rectangle with rounded corners*
0 $1 Rounding radius*
0 $2 $3 $4 $5 $6 $7 $8 $9 X,Y pos of 4 corners*
0 Add a 4 corners polygon primitive as box body*
4,1,4,$2,$3,$4,$5,$6,$7,$8,$9,$2,$3,0*
0 Add four circle primitives for the rounded corners*
1,1,$1+$1,$2,$3*
1,1,$1+$1,$4,$5*
1,1,$1+$1,$6,$7*
1,1,$1+$1,$8,$9*
0 Add four rect primitives between the rounded corners*
20,1,$1+$1,$2,$3,$4,$5,0*
20,1,$1+$1,$4,$5,$6,$7,0*
20,1,$1+$1,$6,$7,$8,$9,0*
20,1,$1+$1,$8,$9,$2,$3,0*%
%AMFreePoly0*
4,1,6,0.350000,-0.250000,-0.225000,-0.250000,-0.350000,-0.125000,-0.350000,0.250000,0.350000,0.250000,0.350000,-0.250000,0.350000,-0.250000,$1*%
G04 Aperture macros list end*
%ADD10C,0.100000*%
%ADD11RoundRect,0.218750X0.218750X0.381250X-0.218750X0.381250X-0.218750X-0.381250X0.218750X-0.381250X0*%
%ADD12RoundRect,0.015000X-0.135000X-0.310000X0.135000X-0.310000X0.135000X0.310000X-0.135000X0.310000X0*%
%ADD13RoundRect,0.020000X-0.180000X-0.480000X0.180000X-0.480000X0.180000X0.480000X-0.180000X0.480000X0*%
%ADD14C,0.180000*%
%ADD15RoundRect,0.079500X0.079500X0.100500X-0.079500X0.100500X-0.079500X-0.100500X0.079500X-0.100500X0*%
%ADD16C,0.200000*%
%ADD17RoundRect,0.079500X-0.079500X-0.100500X0.079500X-0.100500X0.079500X0.100500X-0.079500X0.100500X0*%
%ADD18RoundRect,0.140000X0.170000X-0.140000X0.170000X0.140000X-0.170000X0.140000X-0.170000X-0.140000X0*%
%ADD19RoundRect,0.079500X0.100500X-0.079500X0.100500X0.079500X-0.100500X0.079500X-0.100500X-0.079500X0*%
%ADD20RoundRect,0.079500X-0.100500X0.079500X-0.100500X-0.079500X0.100500X-0.079500X0.100500X0.079500X0*%
%ADD21FreePoly0,270.000000*%
%ADD22R,0.400000X0.700000*%
%ADD23RoundRect,0.250000X1.075000X-0.375000X1.075000X0.375000X-1.075000X0.375000X-1.075000X-0.375000X0*%
G04 APERTURE END LIST*
%TO.C,U3*%
G36*
X141125000Y-91275000D02*
G01*
X141725000Y-91275000D01*
X141725000Y-91025000D01*
X141125000Y-91025000D01*
X141125000Y-91275000D01*
G37*
G36*
X141125000Y-90775000D02*
G01*
X141725000Y-90775000D01*
X141725000Y-90525000D01*
X141125000Y-90525000D01*
X141125000Y-90775000D01*
G37*
G36*
X141125000Y-90275000D02*
G01*
X141725000Y-90275000D01*
X141725000Y-90025000D01*
X141125000Y-90025000D01*
X141125000Y-90275000D01*
G37*
G36*
X141125000Y-89775000D02*
G01*
X141725000Y-89775000D01*
X141725000Y-89525000D01*
X141125000Y-89525000D01*
X141125000Y-89775000D01*
G37*
G36*
X141125000Y-89275000D02*
G01*
X141725000Y-89275000D01*
X141725000Y-89025000D01*
X141125000Y-89025000D01*
X141125000Y-89275000D01*
G37*
G36*
X141125000Y-88775000D02*
G01*
X141725000Y-88775000D01*
X141725000Y-88525000D01*
X141125000Y-88525000D01*
X141125000Y-88775000D01*
G37*
G36*
X141125000Y-88275000D02*
G01*
X141725000Y-88275000D01*
X141725000Y-88025000D01*
X141125000Y-88025000D01*
X141125000Y-88275000D01*
G37*
G36*
X141125000Y-87775000D02*
G01*
X141725000Y-87775000D01*
X141725000Y-87525000D01*
X141125000Y-87525000D01*
X141125000Y-87775000D01*
G37*
G36*
X142150000Y-91700000D02*
G01*
X142400000Y-91700000D01*
X142400000Y-92300000D01*
X142150000Y-92300000D01*
X142150000Y-91700000D01*
G37*
G36*
X142150000Y-86500000D02*
G01*
X142400000Y-86500000D01*
X142400000Y-87100000D01*
X142150000Y-87100000D01*
X142150000Y-86500000D01*
G37*
G36*
X142650000Y-91700000D02*
G01*
X142900000Y-91700000D01*
X142900000Y-92300000D01*
X142650000Y-92300000D01*
X142650000Y-91700000D01*
G37*
G36*
X142650000Y-86500000D02*
G01*
X142900000Y-86500000D01*
X142900000Y-87100000D01*
X142650000Y-87100000D01*
X142650000Y-86500000D01*
G37*
G36*
X143150000Y-91700000D02*
G01*
X143400000Y-91700000D01*
X143400000Y-92300000D01*
X143150000Y-92300000D01*
X143150000Y-91700000D01*
G37*
G36*
X143150000Y-86500000D02*
G01*
X143400000Y-86500000D01*
X143400000Y-87100000D01*
X143150000Y-87100000D01*
X143150000Y-86500000D01*
G37*
G36*
X143650000Y-91700000D02*
G01*
X143900000Y-91700000D01*
X143900000Y-92300000D01*
X143650000Y-92300000D01*
X143650000Y-91700000D01*
G37*
G36*
X143650000Y-86500000D02*
G01*
X143900000Y-86500000D01*
X143900000Y-87100000D01*
X143650000Y-87100000D01*
X143650000Y-86500000D01*
G37*
G36*
X144150000Y-91700000D02*
G01*
X144400000Y-91700000D01*
X144400000Y-92300000D01*
X144150000Y-92300000D01*
X144150000Y-91700000D01*
G37*
G36*
X144150000Y-86500000D02*
G01*
X144400000Y-86500000D01*
X144400000Y-87100000D01*
X144150000Y-87100000D01*
X144150000Y-86500000D01*
G37*
G36*
X144650000Y-91700000D02*
G01*
X144900000Y-91700000D01*
X144900000Y-92300000D01*
X144650000Y-92300000D01*
X144650000Y-91700000D01*
G37*
G36*
X144650000Y-86500000D02*
G01*
X144900000Y-86500000D01*
X144900000Y-87100000D01*
X144650000Y-87100000D01*
X144650000Y-86500000D01*
G37*
G36*
X145150000Y-91700000D02*
G01*
X145400000Y-91700000D01*
X145400000Y-92300000D01*
X145150000Y-92300000D01*
X145150000Y-91700000D01*
G37*
G36*
X145150000Y-86500000D02*
G01*
X145400000Y-86500000D01*
X145400000Y-87100000D01*
X145150000Y-87100000D01*
X145150000Y-86500000D01*
G37*
G36*
X145650000Y-91700000D02*
G01*
X145900000Y-91700000D01*
X145900000Y-92300000D01*
X145650000Y-92300000D01*
X145650000Y-91700000D01*
G37*
G36*
X145650000Y-86500000D02*
G01*
X145900000Y-86500000D01*
X145900000Y-87100000D01*
X145650000Y-87100000D01*
X145650000Y-86500000D01*
G37*
G36*
X146325000Y-91275000D02*
G01*
X146925000Y-91275000D01*
X146925000Y-91025000D01*
X146325000Y-91025000D01*
X146325000Y-91275000D01*
G37*
G36*
X146325000Y-90775000D02*
G01*
X146925000Y-90775000D01*
X146925000Y-90525000D01*
X146325000Y-90525000D01*
X146325000Y-90775000D01*
G37*
G36*
X146325000Y-90275000D02*
G01*
X146925000Y-90275000D01*
X146925000Y-90025000D01*
X146325000Y-90025000D01*
X146325000Y-90275000D01*
G37*
G36*
X146325000Y-89775000D02*
G01*
X146925000Y-89775000D01*
X146925000Y-89525000D01*
X146325000Y-89525000D01*
X146325000Y-89775000D01*
G37*
G36*
X146325000Y-89275000D02*
G01*
X146925000Y-89275000D01*
X146925000Y-89025000D01*
X146325000Y-89025000D01*
X146325000Y-89275000D01*
G37*
G36*
X146325000Y-88775000D02*
G01*
X146925000Y-88775000D01*
X146925000Y-88525000D01*
X146325000Y-88525000D01*
X146325000Y-88775000D01*
G37*
G36*
X146325000Y-88275000D02*
G01*
X146925000Y-88275000D01*
X146925000Y-88025000D01*
X146325000Y-88025000D01*
X146325000Y-88275000D01*
G37*
G36*
X146325000Y-87775000D02*
G01*
X146925000Y-87775000D01*
X146925000Y-87525000D01*
X146325000Y-87525000D01*
X146325000Y-87775000D01*
G37*
G36*
X143925003Y-90800000D02*
G01*
X142625003Y-90800000D01*
X142625003Y-89500000D01*
X143925003Y-89500000D01*
X143925003Y-90800000D01*
G37*
D10*
X143925003Y-90800000D02*
X142625003Y-90800000D01*
X142625003Y-89500000D01*
X143925003Y-89500000D01*
X143925003Y-90800000D01*
G36*
X143925003Y-89300003D02*
G01*
X142625003Y-89300003D01*
X142625003Y-88000003D01*
X143925003Y-88000003D01*
X143925003Y-89300003D01*
G37*
X143925003Y-89300003D02*
X142625003Y-89300003D01*
X142625003Y-88000003D01*
X143925003Y-88000003D01*
X143925003Y-89300003D01*
G36*
X145425000Y-90800000D02*
G01*
X144125000Y-90800000D01*
X144125000Y-89500000D01*
X145425000Y-89500000D01*
X145425000Y-90800000D01*
G37*
X145425000Y-90800000D02*
X144125000Y-90800000D01*
X144125000Y-89500000D01*
X145425000Y-89500000D01*
X145425000Y-90800000D01*
G36*
X145425000Y-89300003D02*
G01*
X144125000Y-89300003D01*
X144125000Y-88000003D01*
X145425000Y-88000003D01*
X145425000Y-89300003D01*
G37*
X145425000Y-89300003D02*
X144125000Y-89300003D01*
X144125000Y-88000003D01*
X145425000Y-88000003D01*
X145425000Y-89300003D01*
%TD*%
D11*
%TO.C,L2*%
X143450000Y-82900000D03*
X141325000Y-82900000D03*
%TD*%
D12*
%TO.C,J3*%
X146325000Y-95650000D03*
X146025000Y-93150000D03*
X145725000Y-95650000D03*
X145425000Y-93150000D03*
X145125000Y-95650000D03*
X144825000Y-93150000D03*
X144525000Y-95650000D03*
X144225000Y-93150000D03*
X143925000Y-95650000D03*
X143625000Y-93150000D03*
X143325000Y-95650000D03*
X143025000Y-93150000D03*
X142725000Y-95650000D03*
X142425000Y-93150000D03*
X142125000Y-95650000D03*
X141825000Y-93150000D03*
X141525000Y-95650000D03*
X141225000Y-93150000D03*
X140925000Y-95650000D03*
X140625000Y-93150000D03*
X140325000Y-95650000D03*
X140025000Y-93150000D03*
X139725000Y-95650000D03*
X139425000Y-93150000D03*
X139125000Y-95650000D03*
X138825000Y-93150000D03*
X138525000Y-95650000D03*
D13*
X146925000Y-95175000D03*
X137925000Y-95175000D03*
%TD*%
D14*
%TO.C,U6*%
X145475000Y-86100000D03*
X145475000Y-85700000D03*
X145075000Y-86100000D03*
X145075000Y-85700000D03*
%TD*%
D15*
%TO.C,C25*%
X146920000Y-85950000D03*
X146230000Y-85950000D03*
%TD*%
D16*
%TO.C,U2*%
X138570000Y-91025000D03*
X138570000Y-91375000D03*
X138920000Y-91025000D03*
X138920000Y-91375000D03*
%TD*%
D17*
%TO.C,R5*%
X138030000Y-86900000D03*
X138720000Y-86900000D03*
%TD*%
D15*
%TO.C,C28*%
X140090000Y-92300000D03*
X139400000Y-92300000D03*
%TD*%
D18*
%TO.C,C12*%
X141925000Y-85980000D03*
X141925000Y-85020000D03*
%TD*%
D19*
%TO.C,C11*%
X143475000Y-86065000D03*
X143475000Y-85375000D03*
%TD*%
%TO.C,R11*%
X140165000Y-91595000D03*
X140165000Y-90905000D03*
%TD*%
D20*
%TO.C,L3*%
X141055000Y-85435000D03*
X141055000Y-86125000D03*
%TD*%
D19*
%TO.C,C4*%
X139445000Y-91595000D03*
X139445000Y-90905000D03*
%TD*%
D15*
%TO.C,R12*%
X140570000Y-89500000D03*
X139880000Y-89500000D03*
%TD*%
D17*
%TO.C,C21*%
X139590000Y-86860000D03*
X140280000Y-86860000D03*
%TD*%
D21*
%TO.C,U5*%
X139100000Y-87725000D03*
D22*
X140599999Y-87724999D03*
X140599999Y-88674999D03*
X139049999Y-88674999D03*
%TD*%
D19*
%TO.C,C27*%
X139055000Y-90185000D03*
X139055000Y-89495000D03*
%TD*%
D15*
%TO.C,C24*%
X140570000Y-90200000D03*
X139880000Y-90200000D03*
%TD*%
D17*
%TO.C,R8*%
X137990000Y-92300000D03*
X138680000Y-92300000D03*
%TD*%
%TO.C,R2*%
X141980000Y-84100000D03*
X142670000Y-84100000D03*
%TD*%
D20*
%TO.C,C5*%
X138045000Y-90855000D03*
X138045000Y-91545000D03*
%TD*%
%TO.C,C26*%
X138125000Y-89275000D03*
X138125000Y-89965000D03*
%TD*%
D19*
%TO.C,C10*%
X142775000Y-86045000D03*
X142775000Y-85355000D03*
%TD*%
D23*
%TO.C,L1*%
X139025000Y-85600000D03*
X139025000Y-82800000D03*
%TD*%
D19*
%TO.C,C23*%
X138145000Y-88515000D03*
X138145000Y-87825000D03*
%TD*%
%TO.C,C20*%
X144325000Y-86045000D03*
X144325000Y-85355000D03*
%TD*%
M02*
