M48
; DRILL file {KiCad (7.0.0)} date Thu Nov  9 16:36:12 2023
; FORMAT={-:-/ absolute / metric / decimal}
; #@! TF.CreationDate,2023-11-09T16:36:12-05:00
; #@! TF.GenerationSoftware,Kicad,Pcbnew,(7.0.0)
; #@! TF.FileFunction,Plated,1,4,PTH
FMAT,2
METRIC
; #@! TA.AperFunction,Plated,PTH,ViaDrill
T1C0.150
; #@! TA.AperFunction,Plated,PTH,ViaDrill
T2C0.200
; #@! TA.AperFunction,Plated,PTH,ComponentDrill
T3C0.800
; #@! TA.AperFunction,Plated,PTH,ComponentDrill
T4C1.000
%
G90
G05
T1
X137.86Y-87.684
X137.86Y-88.312
X137.896Y-86.703
X137.992Y-87.26
X138.028Y-92.132
X138.04Y-93.85
X138.096Y-84.622
X138.184Y-89.804
X138.24Y-93.32
X138.325Y-91.389
X138.556Y-92.203
X138.602Y-90.609
X138.758Y-84.425
X138.782Y-88.691
X138.82Y-85.377
X138.833Y-89.686
X139.025Y-90.25
X139.079Y-93.71
X139.09Y-84.111
X139.1Y-86.75
X139.26Y-91.85
X139.29Y-92.59
X139.42Y-82.21
X139.43Y-84.38
X139.456Y-89.982
X139.499Y-90.586
X139.575Y-88.5
X139.68Y-93.04
X139.71Y-94.09
X139.78Y-95.01
X139.784Y-84.045
X139.825Y-91.15
X139.9Y-89.0
X139.936Y-90.381
X140.175Y-88.45
X140.225Y-84.881
X140.255Y-87.13
X140.325Y-87.85
X140.325Y-92.795
X140.4Y-94.41
X140.489Y-91.75
X140.53Y-92.16
X140.614Y-85.677
X140.7Y-90.45
X140.709Y-87.019
X140.87Y-95.05
X140.995Y-85.97
X140.995Y-86.674
X141.086Y-83.935
X141.125Y-92.575
X141.15Y-92.1
X141.254Y-94.606
X141.503Y-93.45
X141.525Y-87.05
X141.53Y-91.87
X141.615Y-84.55
X141.689Y-83.7
X141.69Y-95.045
X141.859Y-92.154
X142.078Y-90.494
X142.089Y-95.049
X142.094Y-89.063
X142.13Y-88.552
X142.17Y-89.66
X142.35Y-92.04
X142.429Y-95.37
X142.43Y-93.31
X142.46Y-86.94
X142.49Y-94.74
X142.54Y-90.2
X142.575Y-82.475
X142.625Y-84.925
X142.69Y-92.21
X142.827Y-95.023
X142.92Y-89.73
X142.97Y-89.23
X143.01Y-91.97
X143.06Y-88.37
X143.094Y-84.328
X143.129Y-86.256
X143.15Y-86.93
X143.18Y-87.55
X143.223Y-95.03
X143.24Y-84.96
X143.407Y-91.711
X143.477Y-93.794
X143.53Y-88.42
X143.53Y-94.73
X143.608Y-92.248
X143.761Y-83.774
X143.768Y-85.105
X143.81Y-84.43
X143.83Y-95.02
X143.87Y-87.97
X143.93Y-87.47
X144.12Y-90.28
X144.17Y-93.475
X144.175Y-91.2
X144.207Y-92.182
X144.223Y-94.937
X144.32Y-86.92
X144.331Y-86.147
X144.383Y-91.88
X144.42Y-89.28
X144.512Y-93.255
X144.56Y-87.94
X144.667Y-92.117
X144.69Y-87.46
X144.695Y-90.674
X144.933Y-95.045
X144.98Y-89.27
X144.984Y-85.875
X145.074Y-87.014
X145.173Y-92.087
X145.349Y-90.691
X145.36Y-85.31
X145.39Y-90.27
X145.392Y-87.608
X145.4Y-94.48
X145.43Y-93.2
X145.68Y-91.178
X145.7Y-88.313
X145.7Y-89.26
X145.783Y-90.629
X145.796Y-87.967
X145.93Y-85.13
X146.003Y-86.235
X146.361Y-93.456
X146.37Y-93.95
X146.41Y-92.316
X146.55Y-91.73
X146.666Y-86.126
X146.73Y-94.72
X146.76Y-86.6
X146.76Y-87.192
X146.827Y-90.24
X146.829Y-87.864
X146.837Y-90.715
X146.964Y-89.27
T2
X103.1Y-122.1
X103.9Y-84.8
X105.45Y-70.47
X107.6Y-104.5
X118.0Y-97.34
X120.2Y-94.945
X123.2Y-92.0
X126.68Y-71.748
X130.2Y-99.7
X135.64Y-73.6
X139.9Y-106.5
X145.2Y-72.3
X154.2Y-101.5
X155.8Y-87.5
X156.3Y-121.9
X156.7Y-69.1
T4
X112.92Y-76.447
X112.92Y-78.987
X115.46Y-76.447
X115.46Y-78.987
X118.0Y-76.447
X118.0Y-78.987
X120.54Y-76.447
X120.54Y-78.987
X123.08Y-76.447
X123.08Y-78.987
T3
G00X144.955Y-83.9
M15
G01X144.955Y-82.7
M16
G05
G00X146.575Y-83.9
M15
G01X146.575Y-82.7
M16
G05
T0
M30
