%TF.GenerationSoftware,KiCad,Pcbnew,(7.0.0)*%
%TF.CreationDate,2023-11-09T16:42:31-05:00*%
%TF.ProjectId,headstage-neuropix2e,68656164-7374-4616-9765-2d6e6575726f,B*%
%TF.SameCoordinates,Original*%
%TF.FileFunction,Component,L1,Top*%
%TF.FilePolarity,Positive*%
%FSLAX46Y46*%
G04 Gerber Fmt 4.6, Leading zero omitted, Abs format (unit mm)*
G04 Created by KiCad (PCBNEW (7.0.0)) date 2023-11-09 16:42:31*
%MOMM*%
%LPD*%
G01*
G04 APERTURE LIST*
%TA.AperFunction,ComponentMain*%
%ADD10C,0.300000*%
%TD*%
%TA.AperFunction,ComponentOutline,Courtyard*%
%ADD11C,0.100000*%
%TD*%
%TA.AperFunction,ComponentPin*%
%ADD12P,0.360000X4X0.000000*%
%TD*%
%TA.AperFunction,ComponentPin*%
%ADD13C,0.000000*%
%TD*%
G04 APERTURE END LIST*
D10*
%TO.C,"R7"*%
%TO.CFtp,"R_0201_0603Metric"*%
%TO.CVal,"10k"*%
%TO.CLbN,"Resistor_SMD"*%
%TO.CMnt,SMD*%
%TO.CRot,-90*%
X141705000Y-86530000D03*
D11*
X142054999Y-87229999D02*
X141355001Y-87229999D01*
X141355001Y-85830001D01*
X142054999Y-85830001D01*
X142054999Y-87229999D01*
D12*
%TO.P,"R7","1"*%
X141705000Y-86210000D03*
D13*
%TO.P,"R7","2"*%
X141705000Y-86850000D03*
%TD*%
D10*
%TO.C,"C13"*%
%TO.CFtp,"C_0201_0603Metric"*%
%TO.CVal,"10nF"*%
%TO.CLbN,"Capacitor_SMD"*%
%TO.CMnt,SMD*%
%TO.CRot,-90*%
X143105000Y-86530000D03*
D11*
X143454999Y-87229999D02*
X142755001Y-87229999D01*
X142755001Y-85830001D01*
X143454999Y-85830001D01*
X143454999Y-87229999D01*
D12*
%TO.P,"C13","1"*%
X143105000Y-86210000D03*
D13*
%TO.P,"C13","2"*%
X143105000Y-86850000D03*
%TD*%
D10*
%TO.C,"J6"*%
%TO.CFtp,"MOLEX_5050700622"*%
%TO.CVal,"050700622"*%
%TO.CLbN,"jonnew"*%
%TO.CMnt,SMD*%
%TO.CRot,0*%
X139085000Y-83280000D03*
D11*
X140934999Y-84479999D02*
X137235001Y-84479999D01*
X137235001Y-82080001D01*
X140934999Y-82080001D01*
X140934999Y-84479999D01*
D12*
%TO.P,"J6","1","Pin_1"*%
X138735000Y-84190000D03*
D13*
%TO.P,"J6","2","Pin_2"*%
X138735000Y-82370000D03*
%TO.P,"J6","3","Pin_3"*%
X139085000Y-84190000D03*
%TO.P,"J6","4","Pin_4"*%
X139085000Y-82370000D03*
%TO.P,"J6","5","Pin_5"*%
X139435000Y-84190000D03*
%TO.P,"J6","6","Pin_6"*%
X139435000Y-82370000D03*
%TO.P,"J6","MP1","MountPin1"*%
X138360000Y-84045000D03*
%TO.P,"J6","MP2","MountPin2"*%
X138360000Y-82515000D03*
%TO.P,"J6","MP3","MountPin3"*%
X139810000Y-84045000D03*
%TO.P,"J6","MP4","MountPin4"*%
X139810000Y-82515000D03*
%TD*%
D10*
%TO.C,"U7"*%
%TO.CFtp,"LGA-28_5.2x3.8mm_P0.5mm"*%
%TO.CVal,"BNO055"*%
%TO.CLbN,"Package_LGA"*%
%TO.CMnt,SMD*%
%TO.CRot,0*%
X140575000Y-89487500D03*
D11*
X143554999Y-91737499D02*
X137595001Y-91737499D01*
X137595001Y-87237501D01*
X143554999Y-87237501D01*
X143554999Y-91737499D01*
D12*
%TO.P,"U7","1","PIN1"*%
X138325000Y-87825000D03*
D13*
%TO.P,"U7","2","GND"*%
X138187500Y-88737500D03*
%TO.P,"U7","3","VDD"*%
X138187500Y-89237500D03*
%TO.P,"U7","4","~{BOOT_LOAD_PIN}"*%
X138187500Y-89737500D03*
%TO.P,"U7","5","PS1"*%
X138187500Y-90237500D03*
%TO.P,"U7","6","PS0"*%
X138325000Y-91150000D03*
%TO.P,"U7","7","PIN7"*%
X138825000Y-91150000D03*
%TO.P,"U7","8","PIN8"*%
X139325000Y-91150000D03*
%TO.P,"U7","9","CAP"*%
X139825000Y-91150000D03*
%TO.P,"U7","10","BL_IND"*%
X140325000Y-91150000D03*
%TO.P,"U7","11","~{RESET}"*%
X140825000Y-91150000D03*
%TO.P,"U7","12","PIN12"*%
X141325000Y-91150000D03*
%TO.P,"U7","13","PIN13"*%
X141825000Y-91150000D03*
%TO.P,"U7","14","INT"*%
X142325000Y-91150000D03*
%TO.P,"U7","15","GNDIO"*%
X142825000Y-91150000D03*
%TO.P,"U7","16","GNDIO"*%
X142962500Y-90237500D03*
%TO.P,"U7","17","COM3"*%
X142962500Y-89737500D03*
%TO.P,"U7","18","COM2"*%
X142962500Y-89237500D03*
%TO.P,"U7","19","COM1"*%
X142962500Y-88737500D03*
%TO.P,"U7","20","COM0"*%
X142825000Y-87825000D03*
%TO.P,"U7","21","PIN21"*%
X142325000Y-87825000D03*
%TO.P,"U7","22","PIN22"*%
X141825000Y-87825000D03*
%TO.P,"U7","23","PIN23"*%
X141325000Y-87825000D03*
%TO.P,"U7","24","PIN24"*%
X140825000Y-87825000D03*
%TO.P,"U7","25","GNDIO"*%
X140325000Y-87825000D03*
%TO.P,"U7","26","XOUT32"*%
X139825000Y-87825000D03*
%TO.P,"U7","27","XIN32"*%
X139325000Y-87825000D03*
%TO.P,"U7","28","VDDIO"*%
X138825000Y-87825000D03*
%TD*%
D10*
%TO.C,"J1"*%
%TO.CFtp,"HIROSE_X.FL-R-SMT-1"*%
%TO.CVal,"X.FL-R-SMT-1(02)"*%
%TO.CLbN,"jonnew"*%
%TO.CMnt,SMD*%
%TO.CRot,0*%
X142530000Y-83400000D03*
D11*
X144029999Y-84899999D02*
X141030001Y-84899999D01*
X141030001Y-81900001D01*
X144029999Y-81900001D01*
X144029999Y-84899999D01*
D12*
%TO.P,"J1","1","In"*%
X142530000Y-84375000D03*
D13*
%TO.P,"J1","2","Ext"*%
X141530000Y-83400000D03*
X142530000Y-82375000D03*
X143530000Y-83400000D03*
%TD*%
D10*
%TO.C,"C15"*%
%TO.CFtp,"C_0402_1005Metric"*%
%TO.CVal,"10uF"*%
%TO.CLbN,"Capacitor_SMD"*%
%TO.CMnt,SMD*%
%TO.CRot,0*%
X142275000Y-85360000D03*
D11*
X143184999Y-85819999D02*
X141365001Y-85819999D01*
X141365001Y-84900001D01*
X143184999Y-84900001D01*
X143184999Y-85819999D01*
D12*
%TO.P,"C15","1"*%
X141795000Y-85360000D03*
D13*
%TO.P,"C15","2"*%
X142755000Y-85360000D03*
%TD*%
D10*
%TO.C,"U4"*%
%TO.CFtp,"ST_QFN12L_2.2x1.4x0.55mm_P0.4mm"*%
%TO.CVal,"STG3856"*%
%TO.CLbN,"open-ephys"*%
%TO.CMnt,SMD*%
%TO.CRot,-90*%
X144840000Y-89285000D03*
D11*
X146089999Y-90134999D02*
X143590001Y-90134999D01*
X143590001Y-88435001D01*
X146089999Y-88435001D01*
X146089999Y-90134999D01*
D12*
%TO.P,"U4","1","1S1"*%
X145240000Y-88760000D03*
D13*
%TO.P,"U4","2","1S2"*%
X144840000Y-88760000D03*
%TO.P,"U4","3","1S3"*%
X144440000Y-88760000D03*
%TO.P,"U4","4","D1"*%
X143915000Y-88885000D03*
%TO.P,"U4","5","GND"*%
X143915000Y-89285000D03*
%TO.P,"U4","6","D2"*%
X143915000Y-89685000D03*
%TO.P,"U4","7","2S3"*%
X144440000Y-89810000D03*
%TO.P,"U4","8","2S2"*%
X144840000Y-89810000D03*
%TO.P,"U4","9","2S1"*%
X145240000Y-89810000D03*
%TO.P,"U4","10","IN2"*%
X145765000Y-89685000D03*
%TO.P,"U4","11","VCC"*%
X145765000Y-89285000D03*
%TO.P,"U4","12","IN1"*%
X145765000Y-88885000D03*
%TD*%
D10*
%TO.C,"R3"*%
%TO.CFtp,"R_0201_0603Metric"*%
%TO.CVal,"2k"*%
%TO.CLbN,"Resistor_SMD"*%
%TO.CMnt,SMD*%
%TO.CRot,180*%
X138500000Y-84850000D03*
D11*
X139199999Y-85199999D02*
X137800001Y-85199999D01*
X137800001Y-84500001D01*
X139199999Y-84500001D01*
X139199999Y-85199999D01*
D12*
%TO.P,"R3","1"*%
X138820000Y-84850000D03*
D13*
%TO.P,"R3","2"*%
X138180000Y-84850000D03*
%TD*%
D10*
%TO.C,"C17"*%
%TO.CFtp,"C_0201_0603Metric"*%
%TO.CVal,"0.1uF"*%
%TO.CLbN,"Capacitor_SMD"*%
%TO.CMnt,SMD*%
%TO.CRot,-90*%
X143914000Y-87071000D03*
D11*
X144263999Y-87770999D02*
X143564001Y-87770999D01*
X143564001Y-86371001D01*
X144263999Y-86371001D01*
X144263999Y-87770999D01*
D12*
%TO.P,"C17","1"*%
X143914000Y-86751000D03*
D13*
%TO.P,"C17","2"*%
X143914000Y-87391000D03*
%TD*%
D10*
%TO.C,"C14"*%
%TO.CFtp,"C_0201_0603Metric"*%
%TO.CVal,"0.1uF"*%
%TO.CLbN,"Capacitor_SMD"*%
%TO.CMnt,SMD*%
%TO.CRot,-90*%
X142405000Y-86530000D03*
D11*
X142754999Y-87229999D02*
X142055001Y-87229999D01*
X142055001Y-85830001D01*
X142754999Y-85830001D01*
X142754999Y-87229999D01*
D12*
%TO.P,"C14","1"*%
X142405000Y-86210000D03*
D13*
%TO.P,"C14","2"*%
X142405000Y-86850000D03*
%TD*%
D10*
%TO.C,"C22"*%
%TO.CFtp,"C_0201_0603Metric"*%
%TO.CVal,"0.1uF"*%
%TO.CLbN,"Capacitor_SMD"*%
%TO.CMnt,SMD*%
%TO.CRot,-90*%
X146450000Y-89430000D03*
D11*
X146799999Y-90129999D02*
X146100001Y-90129999D01*
X146100001Y-88730001D01*
X146799999Y-88730001D01*
X146799999Y-90129999D01*
D12*
%TO.P,"C22","1"*%
X146450000Y-89110000D03*
D13*
%TO.P,"C22","2"*%
X146450000Y-89750000D03*
%TD*%
D10*
%TO.C,"C9"*%
%TO.CFtp,"C_0201_0603Metric"*%
%TO.CVal,"0.1uF"*%
%TO.CLbN,"Capacitor_SMD"*%
%TO.CMnt,SMD*%
%TO.CRot,90*%
X144695000Y-90880000D03*
D11*
X145044999Y-91579999D02*
X144345001Y-91579999D01*
X144345001Y-90180001D01*
X145044999Y-90180001D01*
X145044999Y-91579999D01*
D12*
%TO.P,"C9","1"*%
X144695000Y-91200000D03*
D13*
%TO.P,"C9","2"*%
X144695000Y-90560000D03*
%TD*%
D10*
%TO.C,"C7"*%
%TO.CFtp,"C_0201_0603Metric"*%
%TO.CVal,"0.1uF"*%
%TO.CLbN,"Capacitor_SMD"*%
%TO.CMnt,SMD*%
%TO.CRot,0*%
X146123000Y-90636000D03*
D11*
X146822999Y-90985999D02*
X145423001Y-90985999D01*
X145423001Y-90286001D01*
X146822999Y-90286001D01*
X146822999Y-90985999D01*
D12*
%TO.P,"C7","1"*%
X145803000Y-90636000D03*
D13*
%TO.P,"C7","2"*%
X146443000Y-90636000D03*
%TD*%
D10*
%TO.C,"C2"*%
%TO.CFtp,"C_0201_0603Metric"*%
%TO.CVal,"1uF"*%
%TO.CLbN,"Capacitor_SMD"*%
%TO.CMnt,SMD*%
%TO.CRot,180*%
X140025000Y-84850000D03*
D11*
X140724999Y-85199999D02*
X139325001Y-85199999D01*
X139325001Y-84500001D01*
X140724999Y-84500001D01*
X140724999Y-85199999D01*
D12*
%TO.P,"C2","1"*%
X140345000Y-84850000D03*
D13*
%TO.P,"C2","2"*%
X139705000Y-84850000D03*
%TD*%
D10*
%TO.C,"U1"*%
%TO.CFtp,"MICROCHIP_TDFN-6-1EP_1.6x1.6mm_P0.5mm_EP0.5x1.4mm"*%
%TO.CVal,"MIC5335-JGYMT"*%
%TO.CLbN,"jonnew"*%
%TO.CMnt,SMD*%
%TO.CRot,0*%
X139625000Y-86225000D03*
D11*
X140624999Y-87224999D02*
X138625001Y-87224999D01*
X138625001Y-85225001D01*
X140624999Y-85225001D01*
X140624999Y-87224999D01*
D12*
%TO.P,"U1","1","VIN"*%
X138975000Y-85725000D03*
D13*
%TO.P,"U1","2","GND"*%
X138975000Y-86225000D03*
%TO.P,"U1","3","EN2"*%
X138975000Y-86725000D03*
%TO.P,"U1","4","EN1"*%
X140275000Y-86725000D03*
%TO.P,"U1","5","VOUT2"*%
X140275000Y-86225000D03*
%TO.P,"U1","6","VOUT1"*%
X140275000Y-85725000D03*
%TO.P,"U1","7","GND"*%
X139625000Y-86225000D03*
%TD*%
D10*
%TO.C,"L4"*%
%TO.CFtp,"L_0201_0603Metric"*%
%TO.CVal,"BLF03RD501GZED"*%
%TO.CLbN,"Inductor_SMD"*%
%TO.CMnt,SMD*%
%TO.CRot,90*%
X146335000Y-86928000D03*
D11*
X146684999Y-87627999D02*
X145985001Y-87627999D01*
X145985001Y-86228001D01*
X146684999Y-86228001D01*
X146684999Y-87627999D01*
D12*
%TO.P,"L4","1","1"*%
X146335000Y-87248000D03*
D13*
%TO.P,"L4","2","2"*%
X146335000Y-86608000D03*
%TD*%
D10*
%TO.C,"J2"*%
%TO.CFtp,"HIROSE_FH35C-17S-0.3SHW(99)"*%
%TO.CVal,"FH35C-17S-0.3SHW(99)"*%
%TO.CLbN,"open-ephys"*%
%TO.CMnt,SMD*%
%TO.CRot,0*%
X142425000Y-94270000D03*
D11*
X145874999Y-96169999D02*
X138975001Y-96169999D01*
X138975001Y-91744601D01*
X145874999Y-91744601D01*
X145874999Y-96169999D01*
D12*
%TO.P,"J2","1","Pin_1"*%
X144825000Y-95670000D03*
D13*
%TO.P,"J2","2","Pin_2"*%
X144525000Y-92795000D03*
%TO.P,"J2","3","Pin_3"*%
X144225000Y-95670000D03*
%TO.P,"J2","4","Pin_4"*%
X143925000Y-92795000D03*
%TO.P,"J2","5","Pin_5"*%
X143625000Y-95670000D03*
%TO.P,"J2","6","Pin_6"*%
X143325000Y-92795000D03*
%TO.P,"J2","7","Pin_7"*%
X143025000Y-95670000D03*
%TO.P,"J2","8","Pin_8"*%
X142725000Y-92795000D03*
%TO.P,"J2","9","Pin_9"*%
X142425000Y-95670000D03*
%TO.P,"J2","10","Pin_10"*%
X142125000Y-92795000D03*
%TO.P,"J2","11","Pin_11"*%
X141825000Y-95670000D03*
%TO.P,"J2","12","Pin_12"*%
X141525000Y-92795000D03*
%TO.P,"J2","13","Pin_13"*%
X141225000Y-95670000D03*
%TO.P,"J2","14","Pin_14"*%
X140925000Y-92795000D03*
%TO.P,"J2","15","Pin_15"*%
X140625000Y-95670000D03*
%TO.P,"J2","16","Pin_16"*%
X140325000Y-92795000D03*
%TO.P,"J2","17","Pin_17"*%
X140025000Y-95670000D03*
%TO.P,"J2","MP","MountPin"*%
X139325000Y-95395000D03*
X145525000Y-95395000D03*
%TD*%
D10*
%TO.C,"C19"*%
%TO.CFtp,"C_0201_0603Metric"*%
%TO.CVal,"0.1uF"*%
%TO.CLbN,"Capacitor_SMD"*%
%TO.CMnt,SMD*%
%TO.CRot,90*%
X144511000Y-85670000D03*
D11*
X144860999Y-86369999D02*
X144161001Y-86369999D01*
X144161001Y-84970001D01*
X144860999Y-84970001D01*
X144860999Y-86369999D01*
D12*
%TO.P,"C19","1"*%
X144511000Y-85990000D03*
D13*
%TO.P,"C19","2"*%
X144511000Y-85350000D03*
%TD*%
D10*
%TO.C,"C6"*%
%TO.CFtp,"C_0201_0603Metric"*%
%TO.CVal,"10nF"*%
%TO.CLbN,"Capacitor_SMD"*%
%TO.CMnt,SMD*%
%TO.CRot,0*%
X146123000Y-91336000D03*
D11*
X146822999Y-91685999D02*
X145423001Y-91685999D01*
X145423001Y-90986001D01*
X146822999Y-90986001D01*
X146822999Y-91685999D01*
D12*
%TO.P,"C6","1"*%
X145803000Y-91336000D03*
D13*
%TO.P,"C6","2"*%
X146443000Y-91336000D03*
%TD*%
D10*
%TO.C,"R11"*%
%TO.CFtp,"R_0201_0603Metric"*%
%TO.CVal,"10k"*%
%TO.CLbN,"Resistor_SMD"*%
%TO.CMnt,SMD*%
%TO.CRot,-90*%
X146410000Y-92640000D03*
D11*
X146759999Y-93339999D02*
X146060001Y-93339999D01*
X146060001Y-91940001D01*
X146759999Y-91940001D01*
X146759999Y-93339999D01*
D12*
%TO.P,"R11","1"*%
X146410000Y-92320000D03*
D13*
%TO.P,"R11","2"*%
X146410000Y-92960000D03*
%TD*%
D10*
%TO.C,"C16"*%
%TO.CFtp,"C_0201_0603Metric"*%
%TO.CVal,"10nF"*%
%TO.CLbN,"Capacitor_SMD"*%
%TO.CMnt,SMD*%
%TO.CRot,-90*%
X144676000Y-87074000D03*
D11*
X145025999Y-87773999D02*
X144326001Y-87773999D01*
X144326001Y-86374001D01*
X145025999Y-86374001D01*
X145025999Y-87773999D01*
D12*
%TO.P,"C16","1"*%
X144676000Y-86754000D03*
D13*
%TO.P,"C16","2"*%
X144676000Y-87394000D03*
%TD*%
D10*
%TO.C,"C3"*%
%TO.CFtp,"C_0402_1005Metric"*%
%TO.CVal,"10uF"*%
%TO.CLbN,"Capacitor_SMD"*%
%TO.CMnt,SMD*%
%TO.CRot,-90*%
X138100000Y-86275000D03*
D11*
X138559999Y-87184999D02*
X137640001Y-87184999D01*
X137640001Y-85365001D01*
X138559999Y-85365001D01*
X138559999Y-87184999D01*
D12*
%TO.P,"C3","1"*%
X138100000Y-85795000D03*
D13*
%TO.P,"C3","2"*%
X138100000Y-86755000D03*
%TD*%
D10*
%TO.C,"C1"*%
%TO.CFtp,"C_0201_0603Metric"*%
%TO.CVal,"1uF"*%
%TO.CLbN,"Capacitor_SMD"*%
%TO.CMnt,SMD*%
%TO.CRot,-90*%
X140995000Y-86290000D03*
D11*
X141344999Y-86989999D02*
X140645001Y-86989999D01*
X140645001Y-85590001D01*
X141344999Y-85590001D01*
X141344999Y-86989999D01*
D12*
%TO.P,"C1","1"*%
X140995000Y-85970000D03*
D13*
%TO.P,"C1","2"*%
X140995000Y-86610000D03*
%TD*%
D10*
%TO.C,"C8"*%
%TO.CFtp,"C_0201_0603Metric"*%
%TO.CVal,"10nF"*%
%TO.CLbN,"Capacitor_SMD"*%
%TO.CMnt,SMD*%
%TO.CRot,90*%
X143965000Y-90880000D03*
D11*
X144314999Y-91579999D02*
X143615001Y-91579999D01*
X143615001Y-90180001D01*
X144314999Y-90180001D01*
X144314999Y-91579999D01*
D12*
%TO.P,"C8","1"*%
X143965000Y-91200000D03*
D13*
%TO.P,"C8","2"*%
X143965000Y-90560000D03*
%TD*%
D10*
%TO.C,"C18"*%
%TO.CFtp,"C_0402_1005Metric"*%
%TO.CVal,"10uF"*%
%TO.CLbN,"Capacitor_SMD"*%
%TO.CMnt,SMD*%
%TO.CRot,-90*%
X145500000Y-87005000D03*
D11*
X145959999Y-87914999D02*
X145040001Y-87914999D01*
X145040001Y-86095001D01*
X145959999Y-86095001D01*
X145959999Y-87914999D01*
D12*
%TO.P,"C18","1"*%
X145500000Y-86525000D03*
D13*
%TO.P,"C18","2"*%
X145500000Y-87485000D03*
%TD*%
D10*
%TO.C,"R8"*%
%TO.CFtp,"R_0201_0603Metric"*%
%TO.CVal,"49.9"*%
%TO.CLbN,"Resistor_SMD"*%
%TO.CMnt,SMD*%
%TO.CRot,-90*%
X143808000Y-85667000D03*
D11*
X144157999Y-86366999D02*
X143458001Y-86366999D01*
X143458001Y-84967001D01*
X144157999Y-84967001D01*
X144157999Y-86366999D01*
D12*
%TO.P,"R8","1"*%
X143808000Y-85347000D03*
D13*
%TO.P,"R8","2"*%
X143808000Y-85987000D03*
%TD*%
D10*
%TO.C,"J4"*%
%TO.CFtp,"IDC-Header_2x05_P2.54mm_Vertical"*%
%TO.CVal,"SBH11-PBPC-D05-ST-BK"*%
%TO.CLbN,"Connector_IDC"*%
%TO.CMnt,TH*%
%TO.CRot,-90*%
X123080000Y-76447500D03*
D11*
X128679999Y-82667499D02*
X107320001Y-82667499D01*
X107320001Y-72767501D01*
X128679999Y-72767501D01*
X128679999Y-82667499D01*
D12*
%TO.P,"J4","1","Pin_1"*%
X123080000Y-76447500D03*
D13*
%TO.P,"J4","2","Pin_2"*%
X123080000Y-78987500D03*
%TO.P,"J4","3","Pin_3"*%
X120540000Y-76447500D03*
%TO.P,"J4","4","Pin_4"*%
X120540000Y-78987500D03*
%TO.P,"J4","5","Pin_5"*%
X118000000Y-76447500D03*
%TO.P,"J4","6","Pin_6"*%
X118000000Y-78987500D03*
%TO.P,"J4","7","Pin_7"*%
X115460000Y-76447500D03*
%TO.P,"J4","8","Pin_8"*%
X115460000Y-78987500D03*
%TO.P,"J4","9","Pin_9"*%
X112920000Y-76447500D03*
%TO.P,"J4","10","Pin_10"*%
X112920000Y-78987500D03*
%TD*%
D10*
%TO.C,"R2"*%
%TO.CFtp,"R_0201_0603Metric"*%
%TO.CVal,"1k"*%
%TO.CLbN,"Resistor_SMD"*%
%TO.CMnt,SMD*%
%TO.CRot,180*%
X145567000Y-85750000D03*
D11*
X146266999Y-86099999D02*
X144867001Y-86099999D01*
X144867001Y-85400001D01*
X146266999Y-85400001D01*
X146266999Y-86099999D01*
D12*
%TO.P,"R2","1"*%
X145887000Y-85750000D03*
D13*
%TO.P,"R2","2"*%
X145247000Y-85750000D03*
%TD*%
D10*
%TO.C,"R9"*%
%TO.CFtp,"R_0201_0603Metric"*%
%TO.CVal,"10k"*%
%TO.CLbN,"Resistor_SMD"*%
%TO.CMnt,SMD*%
%TO.CRot,-90*%
X138560000Y-92520000D03*
D11*
X138909999Y-93219999D02*
X138210001Y-93219999D01*
X138210001Y-91820001D01*
X138909999Y-91820001D01*
X138909999Y-93219999D01*
D12*
%TO.P,"R9","1"*%
X138560000Y-92200000D03*
D13*
%TO.P,"R9","2"*%
X138560000Y-92840000D03*
%TD*%
D10*
%TO.C,"R5"*%
%TO.CFtp,"R_0201_0603Metric"*%
%TO.CVal,"10k"*%
%TO.CLbN,"Resistor_SMD"*%
%TO.CMnt,SMD*%
%TO.CRot,90*%
X146664000Y-85467000D03*
D11*
X147013999Y-86166999D02*
X146314001Y-86166999D01*
X146314001Y-84767001D01*
X147013999Y-84767001D01*
X147013999Y-86166999D01*
D12*
%TO.P,"R5","1"*%
X146664000Y-85787000D03*
D13*
%TO.P,"R5","2"*%
X146664000Y-85147000D03*
%TD*%
D10*
%TO.C,"R1"*%
%TO.CFtp,"R_0201_0603Metric"*%
%TO.CVal,"1k"*%
%TO.CLbN,"Resistor_SMD"*%
%TO.CMnt,SMD*%
%TO.CRot,180*%
X145577000Y-85050000D03*
D11*
X146276999Y-85399999D02*
X144877001Y-85399999D01*
X144877001Y-84700001D01*
X146276999Y-84700001D01*
X146276999Y-85399999D01*
D12*
%TO.P,"R1","1"*%
X145897000Y-85050000D03*
D13*
%TO.P,"R1","2"*%
X145257000Y-85050000D03*
%TD*%
M02*
