M48
; DRILL file {KiCad (7.0.0)} date Fri Sep 15 12:27:38 2023
; FORMAT={-:-/ absolute / inch / decimal}
; #@! TF.CreationDate,2023-09-15T12:27:38-04:00
; #@! TF.GenerationSoftware,Kicad,Pcbnew,(7.0.0)
; #@! TF.FileFunction,Plated,1,4,PTH
FMAT,2
INCH
; #@! TA.AperFunction,Plated,PTH,ViaDrill
T1C0.0059
; #@! TA.AperFunction,Plated,PTH,ViaDrill
T2C0.0079
; #@! TA.AperFunction,Plated,PTH,ComponentDrill
T3C0.0315
; #@! TA.AperFunction,Plated,PTH,ComponentDrill
T4C0.0394
%
G90
G05
T1
X5.4275Y-3.4521
X5.4275Y-3.4769
X5.4328Y-3.4354
X5.4342Y-3.6272
X5.4346Y-3.6949
X5.4369Y-3.3316
X5.4403Y-3.5356
X5.4425Y-3.674
X5.4459Y-3.598
X5.455Y-3.63
X5.4568Y-3.5673
X5.4629Y-3.3238
X5.4639Y-3.4918
X5.4654Y-3.3613
X5.4659Y-3.5309
X5.4734Y-3.5531
X5.4756Y-3.6894
X5.4758Y-3.3146
X5.4764Y-3.4154
X5.4791Y-3.6465
X5.4827Y-3.6161
X5.489Y-3.2366
X5.4896Y-3.3146
X5.4904Y-3.5426
X5.4921Y-3.5664
X5.4951Y-3.4843
X5.4992Y-3.663
X5.5004Y-3.7043
X5.5031Y-3.7406
X5.5041Y-3.3096
X5.5049Y-3.5886
X5.5079Y-3.5039
X5.5093Y-3.5583
X5.5187Y-3.4823
X5.5207Y-3.3418
X5.5219Y-3.4303
X5.5246Y-3.4587
X5.5246Y-3.6533
X5.5276Y-3.7169
X5.5311Y-3.6122
X5.5327Y-3.6283
X5.536Y-3.3731
X5.5394Y-3.561
X5.5397Y-3.4259
X5.5461Y-3.7421
X5.551Y-3.3846
X5.551Y-3.4124
X5.5546Y-3.3045
X5.5561Y-3.6447
X5.5591Y-3.6261
X5.5612Y-3.7246
X5.571Y-3.6791
X5.5719Y-3.4272
X5.5724Y-3.6181
X5.5754Y-3.3287
X5.5783Y-3.2953
X5.5783Y-3.7419
X5.585Y-3.6281
X5.5936Y-3.5628
X5.5941Y-3.7421
X5.5943Y-3.5064
X5.5957Y-3.4863
X5.5972Y-3.5299
X5.6064Y-3.6328
X5.6074Y-3.7547
X5.6075Y-3.6736
X5.6087Y-3.4228
X5.6098Y-3.7299
X5.6118Y-3.5512
X5.6132Y-3.247
X5.6152Y-3.3435
X5.6201Y-3.6293
X5.6231Y-3.7411
X5.6268Y-3.5327
X5.6287Y-3.513
X5.6336Y-3.32
X5.635Y-3.3959
X5.6358Y-3.4224
X5.6358Y-3.4756
X5.637Y-3.4469
X5.6387Y-3.7413
X5.6394Y-3.3449
X5.6408Y-3.6116
X5.6487Y-3.6927
X5.6508Y-3.7295
X5.6538Y-3.6318
X5.6575Y-3.4752
X5.6599Y-3.2982
X5.6602Y-3.3506
X5.6618Y-3.324
X5.6626Y-3.7409
X5.6654Y-3.4969
X5.6665Y-3.4437
X5.676Y-3.6801
X5.6762Y-3.5906
X5.6775Y-3.6292
X5.6781Y-3.7377
X5.6819Y-3.422
X5.6823Y-3.3916
X5.6844Y-3.6173
X5.6894Y-3.6715
X5.6929Y-3.4669
X5.6956Y-3.6267
X5.6965Y-3.4433
X5.6967Y-3.5699
X5.706Y-3.7419
X5.708Y-3.3809
X5.7116Y-3.4258
X5.7116Y-3.5532
X5.7155Y-3.6255
X5.7224Y-3.5659
X5.7228Y-3.3587
X5.7241Y-3.4491
X5.7244Y-3.7197
X5.7256Y-3.6693
X5.7354Y-3.5897
X5.7362Y-3.4769
X5.7362Y-3.5142
X5.7393Y-3.5515
X5.7395Y-3.5681
X5.74Y-3.4633
X5.7453Y-3.3516
X5.7482Y-3.3951
X5.7622Y-3.6794
X5.7626Y-3.6988
X5.7642Y-3.6345
X5.7743Y-3.3908
X5.7779Y-3.4094
X5.7779Y-3.4328
X5.7787Y-3.7252
X5.7832Y-3.5302
T2
X4.0591Y-4.8071
X4.0906Y-3.3386
X4.1516Y-2.7744
X4.2362Y-4.1142
X4.6457Y-3.8323
X4.7323Y-3.738
X4.8504Y-3.622
X4.9874Y-2.8247
X5.126Y-3.9252
X5.3402Y-2.8976
X5.5079Y-4.1929
X5.7165Y-2.8465
X6.0709Y-3.9961
X6.1339Y-3.4449
X6.1535Y-4.7992
X6.1693Y-2.7205
T4
X4.4457Y-3.0097
X4.4457Y-3.1097
X4.5457Y-3.0097
X4.5457Y-3.1097
X4.6457Y-3.0097
X4.6457Y-3.1097
X4.7457Y-3.0097
X4.7457Y-3.1097
X4.8457Y-3.0097
X4.8457Y-3.1097
T3
G00X5.7069Y-3.3031
M15
G01X5.7069Y-3.2559
M16
G05
G00X5.7707Y-3.3031
M15
G01X5.7707Y-3.2559
M16
G05
T0
M30
