%TF.GenerationSoftware,KiCad,Pcbnew,(7.0.0)*%
%TF.CreationDate,2023-03-01T11:35:52-05:00*%
%TF.ProjectId,headstage-neuropix2e,68656164-7374-4616-9765-2d6e6575726f,A*%
%TF.SameCoordinates,Original*%
%TF.FileFunction,Soldermask,Bot*%
%TF.FilePolarity,Negative*%
%FSLAX46Y46*%
G04 Gerber Fmt 4.6, Leading zero omitted, Abs format (unit mm)*
G04 Created by KiCad (PCBNEW (7.0.0)) date 2023-03-01 11:35:52*
%MOMM*%
%LPD*%
G01*
G04 APERTURE LIST*
G04 Aperture macros list*
%AMRoundRect*
0 Rectangle with rounded corners*
0 $1 Rounding radius*
0 $2 $3 $4 $5 $6 $7 $8 $9 X,Y pos of 4 corners*
0 Add a 4 corners polygon primitive as box body*
4,1,4,$2,$3,$4,$5,$6,$7,$8,$9,$2,$3,0*
0 Add four circle primitives for the rounded corners*
1,1,$1+$1,$2,$3*
1,1,$1+$1,$4,$5*
1,1,$1+$1,$6,$7*
1,1,$1+$1,$8,$9*
0 Add four rect primitives between the rounded corners*
20,1,$1+$1,$2,$3,$4,$5,0*
20,1,$1+$1,$4,$5,$6,$7,0*
20,1,$1+$1,$6,$7,$8,$9,0*
20,1,$1+$1,$8,$9,$2,$3,0*%
%AMFreePoly0*
4,1,13,-0.200000,0.080000,-0.190866,0.125922,-0.164853,0.164853,-0.125922,0.190866,-0.080000,0.200000,0.200000,0.200000,0.200000,-0.200000,-0.080000,-0.200000,-0.125922,-0.190866,-0.164853,-0.164853,-0.190866,-0.125922,-0.200000,-0.080000,-0.200000,0.080000,-0.200000,0.080000,$1*%
%AMFreePoly1*
4,1,13,-0.200000,0.200000,0.080000,0.200000,0.125922,0.190866,0.164853,0.164853,0.190866,0.125922,0.200000,0.080000,0.200000,-0.080000,0.190866,-0.125922,0.164853,-0.164853,0.125922,-0.190866,0.080000,-0.200000,-0.200000,-0.200000,-0.200000,0.200000,-0.200000,0.200000,$1*%
%AMFreePoly2*
4,1,6,0.350000,-0.250000,-0.225000,-0.250000,-0.350000,-0.125000,-0.350000,0.250000,0.350000,0.250000,0.350000,-0.250000,0.350000,-0.250000,$1*%
G04 Aperture macros list end*
%ADD10R,0.599999X0.249999*%
%ADD11R,0.249999X0.599999*%
%ADD12R,3.099999X3.099999*%
%ADD13C,2.374900*%
%ADD14C,0.990600*%
%ADD15O,1.400000X2.600000*%
%ADD16RoundRect,0.250000X-0.600000X0.600000X-0.600000X-0.600000X0.600000X-0.600000X0.600000X0.600000X0*%
%ADD17C,1.700000*%
%ADD18FreePoly0,90.000000*%
%ADD19R,0.400000X0.400000*%
%ADD20FreePoly1,90.000000*%
%ADD21RoundRect,0.218750X0.218750X0.381250X-0.218750X0.381250X-0.218750X-0.381250X0.218750X-0.381250X0*%
%ADD22RoundRect,0.015000X-0.135000X-0.310000X0.135000X-0.310000X0.135000X0.310000X-0.135000X0.310000X0*%
%ADD23RoundRect,0.020000X-0.180000X-0.480000X0.180000X-0.480000X0.180000X0.480000X-0.180000X0.480000X0*%
%ADD24C,0.180000*%
%ADD25RoundRect,0.100000X0.130000X0.100000X-0.130000X0.100000X-0.130000X-0.100000X0.130000X-0.100000X0*%
%ADD26C,0.200000*%
%ADD27RoundRect,0.100000X-0.130000X-0.100000X0.130000X-0.100000X0.130000X0.100000X-0.130000X0.100000X0*%
%ADD28RoundRect,0.140000X0.170000X-0.140000X0.170000X0.140000X-0.170000X0.140000X-0.170000X-0.140000X0*%
%ADD29RoundRect,0.100000X0.100000X-0.130000X0.100000X0.130000X-0.100000X0.130000X-0.100000X-0.130000X0*%
%ADD30RoundRect,0.100000X-0.100000X0.130000X-0.100000X-0.130000X0.100000X-0.130000X0.100000X0.130000X0*%
%ADD31FreePoly2,270.000000*%
%ADD32R,0.400000X0.700000*%
%ADD33RoundRect,0.250000X1.075000X-0.375000X1.075000X0.375000X-1.075000X0.375000X-1.075000X-0.375000X0*%
G04 APERTURE END LIST*
%TO.C,G\u002A\u002A\u002A*%
G36*
X143353985Y-84267131D02*
G01*
X143351746Y-84279429D01*
X143348566Y-84297112D01*
X143346240Y-84310319D01*
X143344845Y-84318625D01*
X143344461Y-84321605D01*
X143345873Y-84320794D01*
X143351663Y-84316901D01*
X143361601Y-84310018D01*
X143375341Y-84300390D01*
X143392537Y-84288263D01*
X143412843Y-84273880D01*
X143435913Y-84257488D01*
X143461402Y-84239330D01*
X143488964Y-84219654D01*
X143518253Y-84198702D01*
X143548922Y-84176721D01*
X143570585Y-84161191D01*
X143600692Y-84139639D01*
X143629336Y-84119172D01*
X143656151Y-84100050D01*
X143680772Y-84082530D01*
X143702834Y-84066873D01*
X143721971Y-84053338D01*
X143737817Y-84042184D01*
X143750007Y-84033671D01*
X143758176Y-84028057D01*
X143761958Y-84025602D01*
X143767941Y-84022974D01*
X143782481Y-84020835D01*
X143796810Y-84024266D01*
X143798671Y-84025621D01*
X143804747Y-84030745D01*
X143814604Y-84039387D01*
X143827945Y-84051278D01*
X143844472Y-84066149D01*
X143863889Y-84083729D01*
X143885897Y-84103747D01*
X143910199Y-84125935D01*
X143936499Y-84150021D01*
X143964499Y-84175737D01*
X143993902Y-84202812D01*
X144024409Y-84230975D01*
X144042136Y-84247358D01*
X144076492Y-84279113D01*
X144106904Y-84307250D01*
X144133607Y-84332014D01*
X144156835Y-84353653D01*
X144176824Y-84372414D01*
X144193808Y-84388542D01*
X144208023Y-84402286D01*
X144219704Y-84413891D01*
X144227002Y-84421448D01*
X144229085Y-84423605D01*
X144236401Y-84431673D01*
X144241887Y-84438344D01*
X144245779Y-84443863D01*
X144248310Y-84448477D01*
X144249717Y-84452434D01*
X144250233Y-84455979D01*
X144250095Y-84459359D01*
X144249538Y-84462822D01*
X144248794Y-84466614D01*
X144247334Y-84471833D01*
X144240366Y-84484042D01*
X144229746Y-84494452D01*
X144217007Y-84501385D01*
X144215799Y-84501843D01*
X144209288Y-84504468D01*
X144197858Y-84509165D01*
X144181842Y-84515797D01*
X144161574Y-84524221D01*
X144151950Y-84528231D01*
X144137385Y-84534300D01*
X144109610Y-84545892D01*
X144078580Y-84558859D01*
X144044628Y-84573060D01*
X144008086Y-84588356D01*
X143969289Y-84604607D01*
X143928567Y-84621673D01*
X143886255Y-84639415D01*
X143842684Y-84657692D01*
X143798188Y-84676366D01*
X143753099Y-84695296D01*
X143707749Y-84714342D01*
X143662473Y-84733365D01*
X143617601Y-84752224D01*
X143573468Y-84770782D01*
X143530405Y-84788896D01*
X143488746Y-84806428D01*
X143448823Y-84823239D01*
X143410968Y-84839187D01*
X143375516Y-84854134D01*
X143342797Y-84867940D01*
X143313146Y-84880465D01*
X143286894Y-84891569D01*
X143264375Y-84901112D01*
X143245921Y-84908955D01*
X143231864Y-84914958D01*
X143222539Y-84918981D01*
X143218277Y-84920885D01*
X143215246Y-84922269D01*
X143199899Y-84926346D01*
X143184831Y-84926060D01*
X143171224Y-84921749D01*
X143160265Y-84913748D01*
X143153138Y-84902394D01*
X143152510Y-84900515D01*
X143150214Y-84893172D01*
X143146514Y-84881078D01*
X143141572Y-84864772D01*
X143135551Y-84844797D01*
X143128615Y-84821695D01*
X143120927Y-84796007D01*
X143115270Y-84777053D01*
X143325562Y-84777053D01*
X143326497Y-84776784D01*
X143332137Y-84774622D01*
X143342511Y-84770459D01*
X143357197Y-84764470D01*
X143375774Y-84756832D01*
X143397820Y-84747722D01*
X143422914Y-84737317D01*
X143450635Y-84725792D01*
X143480562Y-84713326D01*
X143512274Y-84700094D01*
X143545348Y-84686273D01*
X143579365Y-84672039D01*
X143613902Y-84657570D01*
X143648539Y-84643042D01*
X143682854Y-84628632D01*
X143716426Y-84614515D01*
X143748834Y-84600869D01*
X143779656Y-84587871D01*
X143808471Y-84575697D01*
X143834858Y-84564524D01*
X143858396Y-84554528D01*
X143878664Y-84545886D01*
X143895239Y-84538774D01*
X143907702Y-84533370D01*
X143915630Y-84529850D01*
X143918603Y-84528390D01*
X143918736Y-84528231D01*
X143917369Y-84527284D01*
X143911962Y-84527810D01*
X143908976Y-84528186D01*
X143900365Y-84529067D01*
X143886796Y-84530364D01*
X143868756Y-84532032D01*
X143846733Y-84534029D01*
X143821212Y-84536310D01*
X143792682Y-84538831D01*
X143761630Y-84541549D01*
X143728541Y-84544420D01*
X143693905Y-84547400D01*
X143665799Y-84549825D01*
X143632519Y-84552741D01*
X143601242Y-84555531D01*
X143572446Y-84558150D01*
X143546611Y-84560551D01*
X143524214Y-84562690D01*
X143505735Y-84564522D01*
X143491654Y-84566001D01*
X143482447Y-84567082D01*
X143478596Y-84567721D01*
X143477180Y-84568908D01*
X143472359Y-84574397D01*
X143469611Y-84577817D01*
X143464763Y-84583851D01*
X143454774Y-84596768D01*
X143442773Y-84612646D01*
X143429142Y-84630985D01*
X143414262Y-84651281D01*
X143398515Y-84673034D01*
X143388382Y-84687144D01*
X143373570Y-84707862D01*
X143360132Y-84726771D01*
X143348412Y-84743380D01*
X143338752Y-84757202D01*
X143331495Y-84767747D01*
X143326984Y-84774527D01*
X143325562Y-84777053D01*
X143115270Y-84777053D01*
X143112650Y-84768274D01*
X143103946Y-84739039D01*
X143098851Y-84721925D01*
X143090335Y-84693425D01*
X143082313Y-84666707D01*
X143074954Y-84642320D01*
X143068421Y-84620810D01*
X143062884Y-84602726D01*
X143061486Y-84598218D01*
X143155381Y-84598218D01*
X143155640Y-84599689D01*
X143157277Y-84606131D01*
X143160171Y-84616550D01*
X143164028Y-84629900D01*
X143168556Y-84645136D01*
X143171212Y-84653906D01*
X143175523Y-84667889D01*
X143179114Y-84679220D01*
X143181671Y-84686913D01*
X143182878Y-84689981D01*
X143183136Y-84690195D01*
X143183652Y-84690021D01*
X143184003Y-84689163D01*
X143275730Y-84689163D01*
X143276601Y-84688422D01*
X143280446Y-84683755D01*
X143286893Y-84675369D01*
X143295457Y-84663909D01*
X143305655Y-84650017D01*
X143317003Y-84634335D01*
X143324284Y-84624180D01*
X143334809Y-84609403D01*
X143343758Y-84596714D01*
X143350669Y-84586778D01*
X143355076Y-84580258D01*
X143356517Y-84577817D01*
X143355078Y-84577604D01*
X143348974Y-84577827D01*
X143339533Y-84578603D01*
X143328277Y-84579759D01*
X143316726Y-84581124D01*
X143306401Y-84582523D01*
X143298825Y-84583785D01*
X143295517Y-84584738D01*
X143294618Y-84587320D01*
X143293413Y-84592247D01*
X143292769Y-84594880D01*
X143290267Y-84606404D01*
X143287319Y-84620922D01*
X143284137Y-84637462D01*
X143281505Y-84651779D01*
X143278933Y-84666446D01*
X143277010Y-84678195D01*
X143275892Y-84686081D01*
X143275730Y-84689163D01*
X143184003Y-84689163D01*
X143184298Y-84688443D01*
X143185231Y-84684735D01*
X143186609Y-84678173D01*
X143188588Y-84668031D01*
X143191325Y-84653584D01*
X143194978Y-84634108D01*
X143195956Y-84628813D01*
X143198407Y-84614795D01*
X143200212Y-84603315D01*
X143201211Y-84595443D01*
X143201245Y-84592247D01*
X143199330Y-84591655D01*
X143192968Y-84591553D01*
X143183955Y-84592223D01*
X143173991Y-84593447D01*
X143164775Y-84595001D01*
X143158005Y-84596665D01*
X143155381Y-84598218D01*
X143061486Y-84598218D01*
X143058506Y-84588613D01*
X143055456Y-84579020D01*
X143053900Y-84574493D01*
X143051047Y-84565122D01*
X143050851Y-84549471D01*
X143056181Y-84532690D01*
X143056257Y-84532521D01*
X143058295Y-84527743D01*
X143062392Y-84517912D01*
X143068411Y-84503364D01*
X143073214Y-84491713D01*
X143311190Y-84491713D01*
X143321809Y-84491327D01*
X143324875Y-84491155D01*
X143334140Y-84490442D01*
X143347226Y-84489304D01*
X143362856Y-84487854D01*
X143379750Y-84486204D01*
X143427072Y-84481468D01*
X143435692Y-84469467D01*
X143545592Y-84469467D01*
X143546054Y-84470047D01*
X143547657Y-84470422D01*
X143550828Y-84470562D01*
X143555993Y-84470439D01*
X143563578Y-84470022D01*
X143574010Y-84469284D01*
X143587714Y-84468194D01*
X143605118Y-84466724D01*
X143626647Y-84464845D01*
X143652727Y-84462528D01*
X143683785Y-84459743D01*
X143720247Y-84456461D01*
X143746856Y-84454066D01*
X143788283Y-84450337D01*
X143824683Y-84447063D01*
X143856564Y-84444200D01*
X143884434Y-84441701D01*
X143908801Y-84439522D01*
X143930171Y-84437618D01*
X143949055Y-84435943D01*
X143965958Y-84434453D01*
X143981389Y-84433101D01*
X143995857Y-84431844D01*
X144009868Y-84430637D01*
X144023930Y-84429433D01*
X144038552Y-84428187D01*
X144042932Y-84427811D01*
X144060381Y-84426212D01*
X144075462Y-84424678D01*
X144087306Y-84423307D01*
X144095049Y-84422197D01*
X144097823Y-84421448D01*
X144096976Y-84420415D01*
X144092362Y-84415801D01*
X144084102Y-84407872D01*
X144072612Y-84397012D01*
X144058311Y-84383605D01*
X144041615Y-84368035D01*
X144022943Y-84350686D01*
X144002711Y-84331942D01*
X143981337Y-84312187D01*
X143959238Y-84291806D01*
X143936832Y-84271182D01*
X143914536Y-84250699D01*
X143892767Y-84230742D01*
X143871944Y-84211694D01*
X143852482Y-84193940D01*
X143834801Y-84177864D01*
X143819316Y-84163849D01*
X143806446Y-84152280D01*
X143796608Y-84143541D01*
X143790219Y-84138016D01*
X143787697Y-84136089D01*
X143786117Y-84137892D01*
X143781399Y-84144003D01*
X143773893Y-84153992D01*
X143763937Y-84167394D01*
X143751866Y-84183748D01*
X143738018Y-84202589D01*
X143722729Y-84223456D01*
X143706336Y-84245885D01*
X143694104Y-84262656D01*
X143689175Y-84269414D01*
X143671584Y-84293578D01*
X143653899Y-84317915D01*
X143636456Y-84341963D01*
X143619593Y-84365258D01*
X143603646Y-84387337D01*
X143588952Y-84407738D01*
X143575847Y-84425996D01*
X143564669Y-84441650D01*
X143555754Y-84454236D01*
X143549438Y-84463292D01*
X143546059Y-84468353D01*
X143545846Y-84468710D01*
X143545592Y-84469467D01*
X143435692Y-84469467D01*
X143496452Y-84384879D01*
X143500849Y-84378759D01*
X143516229Y-84357349D01*
X143530803Y-84337062D01*
X143544138Y-84318503D01*
X143555798Y-84302278D01*
X143565347Y-84288991D01*
X143572352Y-84279249D01*
X143576377Y-84273655D01*
X143581036Y-84266825D01*
X143583327Y-84262656D01*
X143582606Y-84262264D01*
X143581992Y-84262713D01*
X143577227Y-84266141D01*
X143568323Y-84272516D01*
X143555744Y-84281508D01*
X143539951Y-84292787D01*
X143521407Y-84306023D01*
X143500575Y-84320884D01*
X143477917Y-84337042D01*
X143453895Y-84354166D01*
X143445299Y-84360295D01*
X143421659Y-84377179D01*
X143399526Y-84393026D01*
X143379365Y-84407501D01*
X143361643Y-84420267D01*
X143346827Y-84430988D01*
X143335383Y-84439326D01*
X143327778Y-84444946D01*
X143324477Y-84447512D01*
X143321477Y-84452371D01*
X143318138Y-84461216D01*
X143315322Y-84471956D01*
X143311190Y-84491713D01*
X143073214Y-84491713D01*
X143076214Y-84484437D01*
X143085662Y-84461469D01*
X143096616Y-84434795D01*
X143100664Y-84424926D01*
X143196812Y-84424926D01*
X143196933Y-84427071D01*
X143200594Y-84425880D01*
X143208100Y-84421160D01*
X143219740Y-84412758D01*
X143238765Y-84398569D01*
X143251092Y-84333317D01*
X143252984Y-84323229D01*
X143256250Y-84305451D01*
X143258975Y-84290130D01*
X143261017Y-84278087D01*
X143262234Y-84270147D01*
X143262486Y-84267131D01*
X143262465Y-84267120D01*
X143261760Y-84268131D01*
X143260128Y-84271522D01*
X143257429Y-84277630D01*
X143253521Y-84286794D01*
X143248265Y-84299353D01*
X143241518Y-84315646D01*
X143233141Y-84336011D01*
X143222991Y-84360787D01*
X143210929Y-84390312D01*
X143196812Y-84424926D01*
X143100664Y-84424926D01*
X143108939Y-84404755D01*
X143122493Y-84371684D01*
X143137138Y-84335920D01*
X143152736Y-84297800D01*
X143169150Y-84257661D01*
X143186241Y-84215841D01*
X143203871Y-84172676D01*
X143205661Y-84168291D01*
X143223218Y-84125312D01*
X143240211Y-84083751D01*
X143256503Y-84043942D01*
X143271956Y-84006219D01*
X143286432Y-83970915D01*
X143299796Y-83938363D01*
X143311910Y-83908897D01*
X143322637Y-83882851D01*
X143331839Y-83860559D01*
X143339380Y-83842352D01*
X143345123Y-83828566D01*
X143348930Y-83819534D01*
X143350664Y-83815589D01*
X143351692Y-83813709D01*
X143360748Y-83803452D01*
X143372941Y-83796593D01*
X143386702Y-83793520D01*
X143400466Y-83794619D01*
X143412665Y-83800277D01*
X143415952Y-83802949D01*
X143424856Y-83812925D01*
X143431047Y-83824042D01*
X143433318Y-83834315D01*
X143433155Y-83835898D01*
X143432057Y-83843029D01*
X143429993Y-83855228D01*
X143427043Y-83872050D01*
X143423289Y-83893052D01*
X143418810Y-83917789D01*
X143413688Y-83945816D01*
X143408003Y-83976690D01*
X143401835Y-84009964D01*
X143395267Y-84045196D01*
X143388377Y-84081941D01*
X143384391Y-84103166D01*
X143377725Y-84138769D01*
X143371445Y-84172449D01*
X143365630Y-84203781D01*
X143360356Y-84232338D01*
X143355702Y-84257696D01*
X143353985Y-84267131D01*
G37*
%TD*%
D10*
%TO.C,U3*%
X141624999Y-91149998D03*
X141624999Y-90649999D03*
X141624999Y-90150000D03*
X141624999Y-89649999D03*
X141624999Y-89149999D03*
X141624999Y-88650001D03*
X141624999Y-88149999D03*
X141624999Y-87650000D03*
D11*
X142275000Y-86999999D03*
X142774999Y-86999999D03*
X143274998Y-86999999D03*
X143774999Y-86999999D03*
X144274999Y-86999999D03*
X144774997Y-86999999D03*
X145274999Y-86999999D03*
X145774998Y-86999999D03*
D10*
X146424999Y-87650000D03*
X146424999Y-88149999D03*
X146424999Y-88650001D03*
X146424999Y-89149999D03*
X146424999Y-89649999D03*
X146424999Y-90150000D03*
X146424999Y-90649999D03*
X146424999Y-91149998D03*
D11*
X145774998Y-91799999D03*
X145274999Y-91799999D03*
X144774997Y-91799999D03*
X144274999Y-91799999D03*
X143774999Y-91799999D03*
X143274998Y-91799999D03*
X142774999Y-91799999D03*
X142275000Y-91799999D03*
D12*
X144024999Y-89399999D03*
%TD*%
D13*
%TO.C,J5*%
X119830000Y-98440000D03*
D14*
X119830000Y-95900000D03*
D13*
X119830000Y-93360000D03*
X116655000Y-98440000D03*
X116655000Y-93360000D03*
D14*
X114750000Y-96916000D03*
X114750000Y-94884000D03*
%TD*%
D15*
%TO.C,TP2*%
X146634999Y-83419999D03*
%TD*%
%TO.C,TP1*%
X144954999Y-83419999D03*
%TD*%
D16*
%TO.C,J4*%
X123080000Y-76447500D03*
D17*
X123080000Y-78987500D03*
X120540000Y-76447500D03*
X120540000Y-78987500D03*
X118000000Y-76447500D03*
X118000000Y-78987500D03*
X115460000Y-76447500D03*
X115460000Y-78987500D03*
X112920000Y-76447500D03*
X112920000Y-78987500D03*
%TD*%
D18*
%TO.C,JP1*%
X140824999Y-92329999D03*
D19*
X140824999Y-91789999D03*
D20*
X140824999Y-91249999D03*
%TD*%
D21*
%TO.C,L2*%
X143450000Y-82900000D03*
X141325000Y-82900000D03*
%TD*%
D22*
%TO.C,J3*%
X146325000Y-95650000D03*
X146025000Y-93150000D03*
X145725000Y-95650000D03*
X145425000Y-93150000D03*
X145125000Y-95650000D03*
X144825000Y-93150000D03*
X144525000Y-95650000D03*
X144225000Y-93150000D03*
X143925000Y-95650000D03*
X143625000Y-93150000D03*
X143325000Y-95650000D03*
X143025000Y-93150000D03*
X142725000Y-95650000D03*
X142425000Y-93150000D03*
X142125000Y-95650000D03*
X141825000Y-93150000D03*
X141525000Y-95650000D03*
X141225000Y-93150000D03*
X140925000Y-95650000D03*
X140625000Y-93150000D03*
X140325000Y-95650000D03*
X140025000Y-93150000D03*
X139725000Y-95650000D03*
X139425000Y-93150000D03*
X139125000Y-95650000D03*
X138825000Y-93150000D03*
X138525000Y-95650000D03*
D23*
X146925000Y-95175000D03*
X137925000Y-95175000D03*
%TD*%
D24*
%TO.C,U6*%
X145475000Y-86100000D03*
X145475000Y-85700000D03*
X145075000Y-86100000D03*
X145075000Y-85700000D03*
%TD*%
D25*
%TO.C,C25*%
X146895000Y-85950000D03*
X146255000Y-85950000D03*
%TD*%
D26*
%TO.C,U2*%
X138570000Y-91025000D03*
X138570000Y-91375000D03*
X138920000Y-91025000D03*
X138920000Y-91375000D03*
%TD*%
D27*
%TO.C,R5*%
X138055000Y-86900000D03*
X138695000Y-86900000D03*
%TD*%
D25*
%TO.C,C28*%
X140065000Y-92300000D03*
X139425000Y-92300000D03*
%TD*%
D28*
%TO.C,C12*%
X141925000Y-85980000D03*
X141925000Y-85020000D03*
%TD*%
D29*
%TO.C,C11*%
X143475000Y-86040000D03*
X143475000Y-85400000D03*
%TD*%
%TO.C,R11*%
X140165000Y-91570000D03*
X140165000Y-90930000D03*
%TD*%
D30*
%TO.C,L3*%
X141055000Y-85460000D03*
X141055000Y-86100000D03*
%TD*%
D29*
%TO.C,C4*%
X139445000Y-91570000D03*
X139445000Y-90930000D03*
%TD*%
D25*
%TO.C,R12*%
X140545000Y-89500000D03*
X139905000Y-89500000D03*
%TD*%
D27*
%TO.C,C21*%
X139615000Y-86860000D03*
X140255000Y-86860000D03*
%TD*%
D31*
%TO.C,U5*%
X139100000Y-87725000D03*
D32*
X140599999Y-87724999D03*
X140599999Y-88674999D03*
X139049999Y-88674999D03*
%TD*%
D29*
%TO.C,C27*%
X139055000Y-90160000D03*
X139055000Y-89520000D03*
%TD*%
D25*
%TO.C,C24*%
X140545000Y-90200000D03*
X139905000Y-90200000D03*
%TD*%
D27*
%TO.C,R8*%
X138015000Y-92300000D03*
X138655000Y-92300000D03*
%TD*%
%TO.C,R2*%
X142005000Y-84100000D03*
X142645000Y-84100000D03*
%TD*%
D30*
%TO.C,C5*%
X138045000Y-90880000D03*
X138045000Y-91520000D03*
%TD*%
%TO.C,C26*%
X138125000Y-89300000D03*
X138125000Y-89940000D03*
%TD*%
D29*
%TO.C,C10*%
X142775000Y-86020000D03*
X142775000Y-85380000D03*
%TD*%
D33*
%TO.C,L1*%
X139025000Y-85600000D03*
X139025000Y-82800000D03*
%TD*%
D29*
%TO.C,C23*%
X138145000Y-88490000D03*
X138145000Y-87850000D03*
%TD*%
%TO.C,C20*%
X144325000Y-86020000D03*
X144325000Y-85380000D03*
%TD*%
M02*
