%TF.GenerationSoftware,KiCad,Pcbnew,(7.0.0)*%
%TF.CreationDate,2023-09-15T12:27:41-04:00*%
%TF.ProjectId,headstage-neuropix2e,68656164-7374-4616-9765-2d6e6575726f,A*%
%TF.SameCoordinates,Original*%
%TF.FileFunction,Soldermask,Bot*%
%TF.FilePolarity,Negative*%
%FSLAX46Y46*%
G04 Gerber Fmt 4.6, Leading zero omitted, Abs format (unit mm)*
G04 Created by KiCad (PCBNEW (7.0.0)) date 2023-09-15 12:27:41*
%MOMM*%
%LPD*%
G01*
G04 APERTURE LIST*
G04 Aperture macros list*
%AMRoundRect*
0 Rectangle with rounded corners*
0 $1 Rounding radius*
0 $2 $3 $4 $5 $6 $7 $8 $9 X,Y pos of 4 corners*
0 Add a 4 corners polygon primitive as box body*
4,1,4,$2,$3,$4,$5,$6,$7,$8,$9,$2,$3,0*
0 Add four circle primitives for the rounded corners*
1,1,$1+$1,$2,$3*
1,1,$1+$1,$4,$5*
1,1,$1+$1,$6,$7*
1,1,$1+$1,$8,$9*
0 Add four rect primitives between the rounded corners*
20,1,$1+$1,$2,$3,$4,$5,0*
20,1,$1+$1,$4,$5,$6,$7,0*
20,1,$1+$1,$6,$7,$8,$9,0*
20,1,$1+$1,$8,$9,$2,$3,0*%
%AMFreePoly0*
4,1,6,0.350000,-0.250000,-0.225000,-0.250000,-0.350000,-0.125000,-0.350000,0.250000,0.350000,0.250000,0.350000,-0.250000,0.350000,-0.250000,$1*%
G04 Aperture macros list end*
%ADD10C,0.120000*%
%ADD11C,2.374900*%
%ADD12C,0.990600*%
%ADD13O,1.400000X2.600000*%
%ADD14RoundRect,0.250000X-0.600000X0.600000X-0.600000X-0.600000X0.600000X-0.600000X0.600000X0.600000X0*%
%ADD15C,1.700000*%
%ADD16RoundRect,0.218750X0.218750X0.381250X-0.218750X0.381250X-0.218750X-0.381250X0.218750X-0.381250X0*%
%ADD17C,0.216000*%
%ADD18RoundRect,0.100000X0.130000X0.100000X-0.130000X0.100000X-0.130000X-0.100000X0.130000X-0.100000X0*%
%ADD19RoundRect,0.100000X-0.100000X0.130000X-0.100000X-0.130000X0.100000X-0.130000X0.100000X0.130000X0*%
%ADD20C,0.200000*%
%ADD21RoundRect,0.100000X-0.130000X-0.100000X0.130000X-0.100000X0.130000X0.100000X-0.130000X0.100000X0*%
%ADD22RoundRect,0.140000X0.170000X-0.140000X0.170000X0.140000X-0.170000X0.140000X-0.170000X-0.140000X0*%
%ADD23RoundRect,0.100000X0.100000X-0.130000X0.100000X0.130000X-0.100000X0.130000X-0.100000X-0.130000X0*%
%ADD24FreePoly0,270.000000*%
%ADD25R,0.400000X0.700000*%
%ADD26RoundRect,0.036000X-0.264000X0.084000X-0.264000X-0.084000X0.264000X-0.084000X0.264000X0.084000X0*%
%ADD27RoundRect,0.036000X0.084000X0.264000X-0.084000X0.264000X-0.084000X-0.264000X0.084000X-0.264000X0*%
%ADD28RoundRect,0.036000X-0.084000X-0.264000X0.084000X-0.264000X0.084000X0.264000X-0.084000X0.264000X0*%
%ADD29RoundRect,0.062000X-1.488000X-1.488000X1.488000X-1.488000X1.488000X1.488000X-1.488000X1.488000X0*%
%ADD30RoundRect,0.250000X1.075000X-0.375000X1.075000X0.375000X-1.075000X0.375000X-1.075000X-0.375000X0*%
%ADD31R,0.300000X0.800000*%
%ADD32R,0.300000X0.650000*%
%ADD33R,0.400000X0.950000*%
G04 APERTURE END LIST*
D10*
X138507142Y-95694428D02*
X138507142Y-95294428D01*
X138507142Y-95408714D02*
X138478571Y-95351571D01*
X138478571Y-95351571D02*
X138450000Y-95323000D01*
X138450000Y-95323000D02*
X138392857Y-95294428D01*
X138392857Y-95294428D02*
X138335714Y-95294428D01*
X138164285Y-95523000D02*
X137878571Y-95523000D01*
X138221428Y-95694428D02*
X138021428Y-95094428D01*
X138021428Y-95094428D02*
X137821428Y-95694428D01*
%TO.C,G\u002A\u002A\u002A*%
G36*
X146393985Y-95197131D02*
G01*
X146391746Y-95209429D01*
X146388566Y-95227112D01*
X146386240Y-95240319D01*
X146384845Y-95248625D01*
X146384461Y-95251605D01*
X146385873Y-95250794D01*
X146391663Y-95246901D01*
X146401601Y-95240018D01*
X146415341Y-95230390D01*
X146432537Y-95218263D01*
X146452843Y-95203880D01*
X146475913Y-95187488D01*
X146501402Y-95169330D01*
X146528964Y-95149654D01*
X146558253Y-95128702D01*
X146588922Y-95106721D01*
X146610585Y-95091191D01*
X146640692Y-95069639D01*
X146669336Y-95049172D01*
X146696151Y-95030050D01*
X146720772Y-95012530D01*
X146742834Y-94996873D01*
X146761971Y-94983338D01*
X146777817Y-94972184D01*
X146790007Y-94963671D01*
X146798176Y-94958057D01*
X146801958Y-94955602D01*
X146807941Y-94952974D01*
X146822481Y-94950835D01*
X146836810Y-94954266D01*
X146838671Y-94955621D01*
X146844747Y-94960745D01*
X146854604Y-94969387D01*
X146867945Y-94981278D01*
X146884472Y-94996149D01*
X146903889Y-95013729D01*
X146925897Y-95033747D01*
X146950199Y-95055935D01*
X146976499Y-95080021D01*
X147004499Y-95105737D01*
X147033902Y-95132812D01*
X147064409Y-95160975D01*
X147082136Y-95177358D01*
X147116492Y-95209113D01*
X147146904Y-95237250D01*
X147173607Y-95262014D01*
X147196835Y-95283653D01*
X147216824Y-95302414D01*
X147233808Y-95318542D01*
X147248023Y-95332286D01*
X147259704Y-95343891D01*
X147267002Y-95351448D01*
X147269085Y-95353605D01*
X147276401Y-95361673D01*
X147281887Y-95368344D01*
X147285779Y-95373863D01*
X147288310Y-95378477D01*
X147289717Y-95382434D01*
X147290233Y-95385979D01*
X147290095Y-95389359D01*
X147289538Y-95392822D01*
X147288794Y-95396614D01*
X147287334Y-95401833D01*
X147280366Y-95414042D01*
X147269746Y-95424452D01*
X147257007Y-95431385D01*
X147255799Y-95431843D01*
X147249288Y-95434468D01*
X147237858Y-95439165D01*
X147221842Y-95445797D01*
X147201574Y-95454221D01*
X147191950Y-95458231D01*
X147177385Y-95464300D01*
X147149610Y-95475892D01*
X147118580Y-95488859D01*
X147084628Y-95503060D01*
X147048086Y-95518356D01*
X147009289Y-95534607D01*
X146968567Y-95551673D01*
X146926255Y-95569415D01*
X146882684Y-95587692D01*
X146838188Y-95606366D01*
X146793099Y-95625296D01*
X146747749Y-95644342D01*
X146702473Y-95663365D01*
X146657601Y-95682224D01*
X146613468Y-95700782D01*
X146570405Y-95718896D01*
X146528746Y-95736428D01*
X146488823Y-95753239D01*
X146450968Y-95769187D01*
X146415516Y-95784134D01*
X146382797Y-95797940D01*
X146353146Y-95810465D01*
X146326894Y-95821569D01*
X146304375Y-95831112D01*
X146285921Y-95838955D01*
X146271864Y-95844958D01*
X146262539Y-95848981D01*
X146258277Y-95850885D01*
X146255246Y-95852269D01*
X146239899Y-95856346D01*
X146224831Y-95856060D01*
X146211224Y-95851749D01*
X146200265Y-95843748D01*
X146193138Y-95832394D01*
X146192510Y-95830515D01*
X146190214Y-95823172D01*
X146186514Y-95811078D01*
X146181572Y-95794772D01*
X146175551Y-95774797D01*
X146168615Y-95751695D01*
X146160927Y-95726007D01*
X146155270Y-95707053D01*
X146365562Y-95707053D01*
X146366497Y-95706784D01*
X146372137Y-95704622D01*
X146382511Y-95700459D01*
X146397197Y-95694470D01*
X146415774Y-95686832D01*
X146437820Y-95677722D01*
X146462914Y-95667317D01*
X146490635Y-95655792D01*
X146520562Y-95643326D01*
X146552274Y-95630094D01*
X146585348Y-95616273D01*
X146619365Y-95602039D01*
X146653902Y-95587570D01*
X146688539Y-95573042D01*
X146722854Y-95558632D01*
X146756426Y-95544515D01*
X146788834Y-95530869D01*
X146819656Y-95517871D01*
X146848471Y-95505697D01*
X146874858Y-95494524D01*
X146898396Y-95484528D01*
X146918664Y-95475886D01*
X146935239Y-95468774D01*
X146947702Y-95463370D01*
X146955630Y-95459850D01*
X146958603Y-95458390D01*
X146958736Y-95458231D01*
X146957369Y-95457284D01*
X146951962Y-95457810D01*
X146948976Y-95458186D01*
X146940365Y-95459067D01*
X146926796Y-95460364D01*
X146908756Y-95462032D01*
X146886733Y-95464029D01*
X146861212Y-95466310D01*
X146832682Y-95468831D01*
X146801630Y-95471549D01*
X146768541Y-95474420D01*
X146733905Y-95477400D01*
X146705799Y-95479825D01*
X146672519Y-95482741D01*
X146641242Y-95485531D01*
X146612446Y-95488150D01*
X146586611Y-95490551D01*
X146564214Y-95492690D01*
X146545735Y-95494522D01*
X146531654Y-95496001D01*
X146522447Y-95497082D01*
X146518596Y-95497721D01*
X146517180Y-95498908D01*
X146512359Y-95504397D01*
X146509611Y-95507817D01*
X146504763Y-95513851D01*
X146494774Y-95526768D01*
X146482773Y-95542646D01*
X146469142Y-95560985D01*
X146454262Y-95581281D01*
X146438515Y-95603034D01*
X146428382Y-95617144D01*
X146413570Y-95637862D01*
X146400132Y-95656771D01*
X146388412Y-95673380D01*
X146378752Y-95687202D01*
X146371495Y-95697747D01*
X146366984Y-95704527D01*
X146365562Y-95707053D01*
X146155270Y-95707053D01*
X146152650Y-95698274D01*
X146143946Y-95669039D01*
X146138851Y-95651925D01*
X146130335Y-95623425D01*
X146122313Y-95596707D01*
X146114954Y-95572320D01*
X146108421Y-95550810D01*
X146102884Y-95532726D01*
X146101486Y-95528218D01*
X146195381Y-95528218D01*
X146195640Y-95529689D01*
X146197277Y-95536131D01*
X146200171Y-95546550D01*
X146204028Y-95559900D01*
X146208556Y-95575136D01*
X146211212Y-95583906D01*
X146215523Y-95597889D01*
X146219114Y-95609220D01*
X146221671Y-95616913D01*
X146222878Y-95619981D01*
X146223136Y-95620195D01*
X146223652Y-95620021D01*
X146224003Y-95619163D01*
X146315730Y-95619163D01*
X146316601Y-95618422D01*
X146320446Y-95613755D01*
X146326893Y-95605369D01*
X146335457Y-95593909D01*
X146345655Y-95580017D01*
X146357003Y-95564335D01*
X146364284Y-95554180D01*
X146374809Y-95539403D01*
X146383758Y-95526714D01*
X146390669Y-95516778D01*
X146395076Y-95510258D01*
X146396517Y-95507817D01*
X146395078Y-95507604D01*
X146388974Y-95507827D01*
X146379533Y-95508603D01*
X146368277Y-95509759D01*
X146356726Y-95511124D01*
X146346401Y-95512523D01*
X146338825Y-95513785D01*
X146335517Y-95514738D01*
X146334618Y-95517320D01*
X146333413Y-95522247D01*
X146332769Y-95524880D01*
X146330267Y-95536404D01*
X146327319Y-95550922D01*
X146324137Y-95567462D01*
X146321505Y-95581779D01*
X146318933Y-95596446D01*
X146317010Y-95608195D01*
X146315892Y-95616081D01*
X146315730Y-95619163D01*
X146224003Y-95619163D01*
X146224298Y-95618443D01*
X146225231Y-95614735D01*
X146226609Y-95608173D01*
X146228588Y-95598031D01*
X146231325Y-95583584D01*
X146234978Y-95564108D01*
X146235956Y-95558813D01*
X146238407Y-95544795D01*
X146240212Y-95533315D01*
X146241211Y-95525443D01*
X146241245Y-95522247D01*
X146239330Y-95521655D01*
X146232968Y-95521553D01*
X146223955Y-95522223D01*
X146213991Y-95523447D01*
X146204775Y-95525001D01*
X146198005Y-95526665D01*
X146195381Y-95528218D01*
X146101486Y-95528218D01*
X146098506Y-95518613D01*
X146095456Y-95509020D01*
X146093900Y-95504493D01*
X146091047Y-95495122D01*
X146090851Y-95479471D01*
X146096181Y-95462690D01*
X146096257Y-95462521D01*
X146098295Y-95457743D01*
X146102392Y-95447912D01*
X146108411Y-95433364D01*
X146113214Y-95421713D01*
X146351190Y-95421713D01*
X146361809Y-95421327D01*
X146364875Y-95421155D01*
X146374140Y-95420442D01*
X146387226Y-95419304D01*
X146402856Y-95417854D01*
X146419750Y-95416204D01*
X146467072Y-95411468D01*
X146475692Y-95399467D01*
X146585592Y-95399467D01*
X146586054Y-95400047D01*
X146587657Y-95400422D01*
X146590828Y-95400562D01*
X146595993Y-95400439D01*
X146603578Y-95400022D01*
X146614010Y-95399284D01*
X146627714Y-95398194D01*
X146645118Y-95396724D01*
X146666647Y-95394845D01*
X146692727Y-95392528D01*
X146723785Y-95389743D01*
X146760247Y-95386461D01*
X146786856Y-95384066D01*
X146828283Y-95380337D01*
X146864683Y-95377063D01*
X146896564Y-95374200D01*
X146924434Y-95371701D01*
X146948801Y-95369522D01*
X146970171Y-95367618D01*
X146989055Y-95365943D01*
X147005958Y-95364453D01*
X147021389Y-95363101D01*
X147035857Y-95361844D01*
X147049868Y-95360637D01*
X147063930Y-95359433D01*
X147078552Y-95358187D01*
X147082932Y-95357811D01*
X147100381Y-95356212D01*
X147115462Y-95354678D01*
X147127306Y-95353307D01*
X147135049Y-95352197D01*
X147137823Y-95351448D01*
X147136976Y-95350415D01*
X147132362Y-95345801D01*
X147124102Y-95337872D01*
X147112612Y-95327012D01*
X147098311Y-95313605D01*
X147081615Y-95298035D01*
X147062943Y-95280686D01*
X147042711Y-95261942D01*
X147021337Y-95242187D01*
X146999238Y-95221806D01*
X146976832Y-95201182D01*
X146954536Y-95180699D01*
X146932767Y-95160742D01*
X146911944Y-95141694D01*
X146892482Y-95123940D01*
X146874801Y-95107864D01*
X146859316Y-95093849D01*
X146846446Y-95082280D01*
X146836608Y-95073541D01*
X146830219Y-95068016D01*
X146827697Y-95066089D01*
X146826117Y-95067892D01*
X146821399Y-95074003D01*
X146813893Y-95083992D01*
X146803937Y-95097394D01*
X146791866Y-95113748D01*
X146778018Y-95132589D01*
X146762729Y-95153456D01*
X146746336Y-95175885D01*
X146734104Y-95192656D01*
X146729175Y-95199414D01*
X146711584Y-95223578D01*
X146693899Y-95247915D01*
X146676456Y-95271963D01*
X146659593Y-95295258D01*
X146643646Y-95317337D01*
X146628952Y-95337738D01*
X146615847Y-95355996D01*
X146604669Y-95371650D01*
X146595754Y-95384236D01*
X146589438Y-95393292D01*
X146586059Y-95398353D01*
X146585846Y-95398710D01*
X146585592Y-95399467D01*
X146475692Y-95399467D01*
X146536452Y-95314879D01*
X146540849Y-95308759D01*
X146556229Y-95287349D01*
X146570803Y-95267062D01*
X146584138Y-95248503D01*
X146595798Y-95232278D01*
X146605347Y-95218991D01*
X146612352Y-95209249D01*
X146616377Y-95203655D01*
X146621036Y-95196825D01*
X146623327Y-95192656D01*
X146622606Y-95192264D01*
X146621992Y-95192713D01*
X146617227Y-95196141D01*
X146608323Y-95202516D01*
X146595744Y-95211508D01*
X146579951Y-95222787D01*
X146561407Y-95236023D01*
X146540575Y-95250884D01*
X146517917Y-95267042D01*
X146493895Y-95284166D01*
X146485299Y-95290295D01*
X146461659Y-95307179D01*
X146439526Y-95323026D01*
X146419365Y-95337501D01*
X146401643Y-95350267D01*
X146386827Y-95360988D01*
X146375383Y-95369326D01*
X146367778Y-95374946D01*
X146364477Y-95377512D01*
X146361477Y-95382371D01*
X146358138Y-95391216D01*
X146355322Y-95401956D01*
X146351190Y-95421713D01*
X146113214Y-95421713D01*
X146116214Y-95414437D01*
X146125662Y-95391469D01*
X146136616Y-95364795D01*
X146140664Y-95354926D01*
X146236812Y-95354926D01*
X146236933Y-95357071D01*
X146240594Y-95355880D01*
X146248100Y-95351160D01*
X146259740Y-95342758D01*
X146278765Y-95328569D01*
X146291092Y-95263317D01*
X146292984Y-95253229D01*
X146296250Y-95235451D01*
X146298975Y-95220130D01*
X146301017Y-95208087D01*
X146302234Y-95200147D01*
X146302486Y-95197131D01*
X146302465Y-95197120D01*
X146301760Y-95198131D01*
X146300128Y-95201522D01*
X146297429Y-95207630D01*
X146293521Y-95216794D01*
X146288265Y-95229353D01*
X146281518Y-95245646D01*
X146273141Y-95266011D01*
X146262991Y-95290787D01*
X146250929Y-95320312D01*
X146236812Y-95354926D01*
X146140664Y-95354926D01*
X146148939Y-95334755D01*
X146162493Y-95301684D01*
X146177138Y-95265920D01*
X146192736Y-95227800D01*
X146209150Y-95187661D01*
X146226241Y-95145841D01*
X146243871Y-95102676D01*
X146245661Y-95098291D01*
X146263218Y-95055312D01*
X146280211Y-95013751D01*
X146296503Y-94973942D01*
X146311956Y-94936219D01*
X146326432Y-94900915D01*
X146339796Y-94868363D01*
X146351910Y-94838897D01*
X146362637Y-94812851D01*
X146371839Y-94790559D01*
X146379380Y-94772352D01*
X146385123Y-94758566D01*
X146388930Y-94749534D01*
X146390664Y-94745589D01*
X146391692Y-94743709D01*
X146400748Y-94733452D01*
X146412941Y-94726593D01*
X146426702Y-94723520D01*
X146440466Y-94724619D01*
X146452665Y-94730277D01*
X146455952Y-94732949D01*
X146464856Y-94742925D01*
X146471047Y-94754042D01*
X146473318Y-94764315D01*
X146473155Y-94765898D01*
X146472057Y-94773029D01*
X146469993Y-94785228D01*
X146467043Y-94802050D01*
X146463289Y-94823052D01*
X146458810Y-94847789D01*
X146453688Y-94875816D01*
X146448003Y-94906690D01*
X146441835Y-94939964D01*
X146435267Y-94975196D01*
X146428377Y-95011941D01*
X146424391Y-95033166D01*
X146417725Y-95068769D01*
X146411445Y-95102449D01*
X146405630Y-95133781D01*
X146400356Y-95162338D01*
X146395702Y-95187696D01*
X146393985Y-95197131D01*
G37*
%TD*%
D11*
%TO.C,J5*%
X119830000Y-98440000D03*
D12*
X119830000Y-95900000D03*
D11*
X119830000Y-93360000D03*
X116655000Y-98440000D03*
X116655000Y-93360000D03*
D12*
X114750000Y-96916000D03*
X114750000Y-94884000D03*
%TD*%
D13*
%TO.C,TP2*%
X146574999Y-83299999D03*
%TD*%
%TO.C,TP1*%
X144954999Y-83299999D03*
%TD*%
D14*
%TO.C,J4*%
X123080000Y-76447500D03*
D15*
X123080000Y-78987500D03*
X120540000Y-76447500D03*
X120540000Y-78987500D03*
X118000000Y-76447500D03*
X118000000Y-78987500D03*
X115460000Y-76447500D03*
X115460000Y-78987500D03*
X112920000Y-76447500D03*
X112920000Y-78987500D03*
%TD*%
D16*
%TO.C,L2*%
X143450000Y-82900000D03*
X141325000Y-82900000D03*
%TD*%
D17*
%TO.C,U6*%
X145225000Y-84953500D03*
X144825000Y-84953500D03*
X145025000Y-85300000D03*
X145225000Y-85646500D03*
X144825000Y-85646500D03*
%TD*%
D18*
%TO.C,C25*%
X146745000Y-85250000D03*
X146105000Y-85250000D03*
%TD*%
D19*
%TO.C,R10*%
X138548000Y-93601000D03*
X138548000Y-94241000D03*
%TD*%
D20*
%TO.C,U2*%
X138850000Y-90925000D03*
X138850000Y-91275000D03*
X139200000Y-90925000D03*
X139200000Y-91275000D03*
%TD*%
D21*
%TO.C,R6*%
X138030000Y-87130000D03*
X138670000Y-87130000D03*
%TD*%
D18*
%TO.C,C28*%
X140490000Y-91110000D03*
X139850000Y-91110000D03*
%TD*%
D22*
%TO.C,C12*%
X141800000Y-85410000D03*
X141800000Y-84450000D03*
%TD*%
D23*
%TO.C,C11*%
X143325000Y-85520000D03*
X143325000Y-84880000D03*
%TD*%
D19*
%TO.C,L3*%
X140984000Y-84524000D03*
X140984000Y-85164000D03*
%TD*%
%TO.C,C4*%
X138553000Y-92199000D03*
X138553000Y-92839000D03*
%TD*%
D18*
%TO.C,R13*%
X140574000Y-89681000D03*
X139934000Y-89681000D03*
%TD*%
D21*
%TO.C,C21*%
X139615000Y-87130000D03*
X140255000Y-87130000D03*
%TD*%
D24*
%TO.C,U5*%
X139135000Y-87955000D03*
D25*
X140634999Y-87954999D03*
X140634999Y-88904999D03*
X139084999Y-88904999D03*
%TD*%
D23*
%TO.C,C27*%
X139034000Y-90352000D03*
X139034000Y-89712000D03*
%TD*%
D18*
%TO.C,C24*%
X140576000Y-90381000D03*
X139936000Y-90381000D03*
%TD*%
D21*
%TO.C,R4*%
X142640000Y-84110000D03*
X143280000Y-84110000D03*
%TD*%
D19*
%TO.C,C5*%
X138283000Y-90768000D03*
X138283000Y-91408000D03*
%TD*%
%TO.C,C26*%
X138300000Y-89350000D03*
X138300000Y-89990000D03*
%TD*%
D23*
%TO.C,C10*%
X142625000Y-85495000D03*
X142625000Y-84855000D03*
%TD*%
D26*
%TO.C,U3*%
X141525000Y-90550000D03*
X141525000Y-90050000D03*
X141525000Y-89550000D03*
X141525000Y-89050000D03*
X141525000Y-88550000D03*
X141525000Y-88050000D03*
X141525000Y-87550000D03*
X141525000Y-87050000D03*
D27*
X142175000Y-86400000D03*
X142675000Y-86400000D03*
X143175000Y-86400000D03*
X143675000Y-86400000D03*
X144175000Y-86400000D03*
X144675000Y-86400000D03*
D28*
X145175000Y-86400000D03*
D27*
X145675000Y-86400000D03*
D26*
X146325000Y-87050000D03*
X146325000Y-87550000D03*
X146325000Y-88050000D03*
X146325000Y-88550000D03*
X146325000Y-89050000D03*
X146325000Y-89550001D03*
X146325000Y-90050000D03*
X146325000Y-90550000D03*
D27*
X145675000Y-91200000D03*
X145175000Y-91200000D03*
X144675000Y-91200000D03*
X144175000Y-91200000D03*
X143675000Y-91200000D03*
X143175000Y-91200000D03*
X142675000Y-91200000D03*
X142175000Y-91200000D03*
D29*
X143925000Y-88800000D03*
%TD*%
D30*
%TO.C,L1*%
X139050000Y-85860000D03*
X139050000Y-83060000D03*
%TD*%
D23*
%TO.C,C23*%
X138300000Y-88570000D03*
X138300000Y-87930000D03*
%TD*%
D19*
%TO.C,R12*%
X146410000Y-92316000D03*
X146410000Y-92956000D03*
%TD*%
D23*
%TO.C,C20*%
X144040000Y-85510000D03*
X144040000Y-84870000D03*
%TD*%
D31*
%TO.C,J3*%
X140024999Y-95669999D03*
D32*
X140324999Y-92794999D03*
D31*
X140624999Y-95669999D03*
D32*
X140924999Y-92794999D03*
D31*
X141224999Y-95669999D03*
D32*
X141524999Y-92794999D03*
D31*
X141824999Y-95669999D03*
D32*
X142124999Y-92794999D03*
D31*
X142424999Y-95669999D03*
D32*
X142724999Y-92794999D03*
D31*
X143024999Y-95669999D03*
D32*
X143324999Y-92794999D03*
D31*
X143624999Y-95669999D03*
D32*
X143924999Y-92794999D03*
D31*
X144224999Y-95669999D03*
D32*
X144524999Y-92794999D03*
D31*
X144824999Y-95669999D03*
D33*
X145524999Y-95394999D03*
X139324999Y-95394999D03*
%TD*%
M02*
