%TF.GenerationSoftware,KiCad,Pcbnew,(7.0.0)*%
%TF.CreationDate,2023-09-15T12:14:05-04:00*%
%TF.ProjectId,headstage-neuropix2e,68656164-7374-4616-9765-2d6e6575726f,A*%
%TF.SameCoordinates,Original*%
%TF.FileFunction,AssemblyDrawing,Top*%
%FSLAX46Y46*%
G04 Gerber Fmt 4.6, Leading zero omitted, Abs format (unit mm)*
G04 Created by KiCad (PCBNEW (7.0.0)) date 2023-09-15 12:14:05*
%MOMM*%
%LPD*%
G01*
G04 APERTURE LIST*
%ADD10C,0.040000*%
%ADD11C,0.150000*%
%ADD12C,0.100000*%
G04 APERTURE END LIST*
D10*
%TO.C,TP4*%
X146354524Y-95011845D02*
X146497381Y-95011845D01*
X146425953Y-95261845D02*
X146425953Y-95011845D01*
X146580714Y-95261845D02*
X146580714Y-95011845D01*
X146580714Y-95011845D02*
X146675952Y-95011845D01*
X146675952Y-95011845D02*
X146699762Y-95023750D01*
X146699762Y-95023750D02*
X146711667Y-95035654D01*
X146711667Y-95035654D02*
X146723571Y-95059464D01*
X146723571Y-95059464D02*
X146723571Y-95095178D01*
X146723571Y-95095178D02*
X146711667Y-95118988D01*
X146711667Y-95118988D02*
X146699762Y-95130892D01*
X146699762Y-95130892D02*
X146675952Y-95142797D01*
X146675952Y-95142797D02*
X146580714Y-95142797D01*
X146937857Y-95095178D02*
X146937857Y-95261845D01*
X146878333Y-94999940D02*
X146818810Y-95178511D01*
X146818810Y-95178511D02*
X146973571Y-95178511D01*
%TO.C,J1*%
X142441667Y-83241845D02*
X142441667Y-83420416D01*
X142441667Y-83420416D02*
X142429762Y-83456130D01*
X142429762Y-83456130D02*
X142405953Y-83479940D01*
X142405953Y-83479940D02*
X142370238Y-83491845D01*
X142370238Y-83491845D02*
X142346429Y-83491845D01*
X142691667Y-83491845D02*
X142548810Y-83491845D01*
X142620238Y-83491845D02*
X142620238Y-83241845D01*
X142620238Y-83241845D02*
X142596429Y-83277559D01*
X142596429Y-83277559D02*
X142572619Y-83301369D01*
X142572619Y-83301369D02*
X142548810Y-83313273D01*
%TO.C,R7*%
X141578333Y-86121845D02*
X141495000Y-86002797D01*
X141435476Y-86121845D02*
X141435476Y-85871845D01*
X141435476Y-85871845D02*
X141530714Y-85871845D01*
X141530714Y-85871845D02*
X141554524Y-85883750D01*
X141554524Y-85883750D02*
X141566429Y-85895654D01*
X141566429Y-85895654D02*
X141578333Y-85919464D01*
X141578333Y-85919464D02*
X141578333Y-85955178D01*
X141578333Y-85955178D02*
X141566429Y-85978988D01*
X141566429Y-85978988D02*
X141554524Y-85990892D01*
X141554524Y-85990892D02*
X141530714Y-86002797D01*
X141530714Y-86002797D02*
X141435476Y-86002797D01*
X141661667Y-85871845D02*
X141828333Y-85871845D01*
X141828333Y-85871845D02*
X141721191Y-86121845D01*
D11*
%TO.C,J5*%
X116956666Y-95267380D02*
X116956666Y-95981666D01*
X116956666Y-95981666D02*
X116909047Y-96124523D01*
X116909047Y-96124523D02*
X116813809Y-96219761D01*
X116813809Y-96219761D02*
X116670952Y-96267380D01*
X116670952Y-96267380D02*
X116575714Y-96267380D01*
X117909047Y-95267380D02*
X117432857Y-95267380D01*
X117432857Y-95267380D02*
X117385238Y-95743571D01*
X117385238Y-95743571D02*
X117432857Y-95695952D01*
X117432857Y-95695952D02*
X117528095Y-95648333D01*
X117528095Y-95648333D02*
X117766190Y-95648333D01*
X117766190Y-95648333D02*
X117861428Y-95695952D01*
X117861428Y-95695952D02*
X117909047Y-95743571D01*
X117909047Y-95743571D02*
X117956666Y-95838809D01*
X117956666Y-95838809D02*
X117956666Y-96076904D01*
X117956666Y-96076904D02*
X117909047Y-96172142D01*
X117909047Y-96172142D02*
X117861428Y-96219761D01*
X117861428Y-96219761D02*
X117766190Y-96267380D01*
X117766190Y-96267380D02*
X117528095Y-96267380D01*
X117528095Y-96267380D02*
X117432857Y-96219761D01*
X117432857Y-96219761D02*
X117385238Y-96172142D01*
D10*
%TO.C,TP2*%
X146421845Y-83615475D02*
X146421845Y-83472618D01*
X146671845Y-83544046D02*
X146421845Y-83544046D01*
X146671845Y-83389285D02*
X146421845Y-83389285D01*
X146421845Y-83389285D02*
X146421845Y-83294047D01*
X146421845Y-83294047D02*
X146433750Y-83270237D01*
X146433750Y-83270237D02*
X146445654Y-83258332D01*
X146445654Y-83258332D02*
X146469464Y-83246428D01*
X146469464Y-83246428D02*
X146505178Y-83246428D01*
X146505178Y-83246428D02*
X146528988Y-83258332D01*
X146528988Y-83258332D02*
X146540892Y-83270237D01*
X146540892Y-83270237D02*
X146552797Y-83294047D01*
X146552797Y-83294047D02*
X146552797Y-83389285D01*
X146445654Y-83151189D02*
X146433750Y-83139285D01*
X146433750Y-83139285D02*
X146421845Y-83115475D01*
X146421845Y-83115475D02*
X146421845Y-83055951D01*
X146421845Y-83055951D02*
X146433750Y-83032142D01*
X146433750Y-83032142D02*
X146445654Y-83020237D01*
X146445654Y-83020237D02*
X146469464Y-83008332D01*
X146469464Y-83008332D02*
X146493273Y-83008332D01*
X146493273Y-83008332D02*
X146528988Y-83020237D01*
X146528988Y-83020237D02*
X146671845Y-83163094D01*
X146671845Y-83163094D02*
X146671845Y-83008332D01*
%TO.C,C13*%
X142999285Y-86088035D02*
X142987381Y-86099940D01*
X142987381Y-86099940D02*
X142951666Y-86111845D01*
X142951666Y-86111845D02*
X142927857Y-86111845D01*
X142927857Y-86111845D02*
X142892143Y-86099940D01*
X142892143Y-86099940D02*
X142868333Y-86076130D01*
X142868333Y-86076130D02*
X142856428Y-86052321D01*
X142856428Y-86052321D02*
X142844524Y-86004702D01*
X142844524Y-86004702D02*
X142844524Y-85968988D01*
X142844524Y-85968988D02*
X142856428Y-85921369D01*
X142856428Y-85921369D02*
X142868333Y-85897559D01*
X142868333Y-85897559D02*
X142892143Y-85873750D01*
X142892143Y-85873750D02*
X142927857Y-85861845D01*
X142927857Y-85861845D02*
X142951666Y-85861845D01*
X142951666Y-85861845D02*
X142987381Y-85873750D01*
X142987381Y-85873750D02*
X142999285Y-85885654D01*
X143237381Y-86111845D02*
X143094524Y-86111845D01*
X143165952Y-86111845D02*
X143165952Y-85861845D01*
X143165952Y-85861845D02*
X143142143Y-85897559D01*
X143142143Y-85897559D02*
X143118333Y-85921369D01*
X143118333Y-85921369D02*
X143094524Y-85933273D01*
X143320714Y-85861845D02*
X143475476Y-85861845D01*
X143475476Y-85861845D02*
X143392142Y-85957083D01*
X143392142Y-85957083D02*
X143427857Y-85957083D01*
X143427857Y-85957083D02*
X143451666Y-85968988D01*
X143451666Y-85968988D02*
X143463571Y-85980892D01*
X143463571Y-85980892D02*
X143475476Y-86004702D01*
X143475476Y-86004702D02*
X143475476Y-86064226D01*
X143475476Y-86064226D02*
X143463571Y-86088035D01*
X143463571Y-86088035D02*
X143451666Y-86099940D01*
X143451666Y-86099940D02*
X143427857Y-86111845D01*
X143427857Y-86111845D02*
X143356428Y-86111845D01*
X143356428Y-86111845D02*
X143332619Y-86099940D01*
X143332619Y-86099940D02*
X143320714Y-86088035D01*
%TO.C,J6*%
X138996667Y-83121845D02*
X138996667Y-83300416D01*
X138996667Y-83300416D02*
X138984762Y-83336130D01*
X138984762Y-83336130D02*
X138960953Y-83359940D01*
X138960953Y-83359940D02*
X138925238Y-83371845D01*
X138925238Y-83371845D02*
X138901429Y-83371845D01*
X139222857Y-83121845D02*
X139175238Y-83121845D01*
X139175238Y-83121845D02*
X139151429Y-83133750D01*
X139151429Y-83133750D02*
X139139524Y-83145654D01*
X139139524Y-83145654D02*
X139115714Y-83181369D01*
X139115714Y-83181369D02*
X139103810Y-83228988D01*
X139103810Y-83228988D02*
X139103810Y-83324226D01*
X139103810Y-83324226D02*
X139115714Y-83348035D01*
X139115714Y-83348035D02*
X139127619Y-83359940D01*
X139127619Y-83359940D02*
X139151429Y-83371845D01*
X139151429Y-83371845D02*
X139199048Y-83371845D01*
X139199048Y-83371845D02*
X139222857Y-83359940D01*
X139222857Y-83359940D02*
X139234762Y-83348035D01*
X139234762Y-83348035D02*
X139246667Y-83324226D01*
X139246667Y-83324226D02*
X139246667Y-83264702D01*
X139246667Y-83264702D02*
X139234762Y-83240892D01*
X139234762Y-83240892D02*
X139222857Y-83228988D01*
X139222857Y-83228988D02*
X139199048Y-83217083D01*
X139199048Y-83217083D02*
X139151429Y-83217083D01*
X139151429Y-83217083D02*
X139127619Y-83228988D01*
X139127619Y-83228988D02*
X139115714Y-83240892D01*
X139115714Y-83240892D02*
X139103810Y-83264702D01*
%TO.C,U7*%
X140384523Y-89329345D02*
X140384523Y-89531726D01*
X140384523Y-89531726D02*
X140396428Y-89555535D01*
X140396428Y-89555535D02*
X140408333Y-89567440D01*
X140408333Y-89567440D02*
X140432142Y-89579345D01*
X140432142Y-89579345D02*
X140479761Y-89579345D01*
X140479761Y-89579345D02*
X140503571Y-89567440D01*
X140503571Y-89567440D02*
X140515476Y-89555535D01*
X140515476Y-89555535D02*
X140527380Y-89531726D01*
X140527380Y-89531726D02*
X140527380Y-89329345D01*
X140622619Y-89329345D02*
X140789285Y-89329345D01*
X140789285Y-89329345D02*
X140682143Y-89579345D01*
%TO.C,C15*%
X142114285Y-85453035D02*
X142102381Y-85464940D01*
X142102381Y-85464940D02*
X142066666Y-85476845D01*
X142066666Y-85476845D02*
X142042857Y-85476845D01*
X142042857Y-85476845D02*
X142007143Y-85464940D01*
X142007143Y-85464940D02*
X141983333Y-85441130D01*
X141983333Y-85441130D02*
X141971428Y-85417321D01*
X141971428Y-85417321D02*
X141959524Y-85369702D01*
X141959524Y-85369702D02*
X141959524Y-85333988D01*
X141959524Y-85333988D02*
X141971428Y-85286369D01*
X141971428Y-85286369D02*
X141983333Y-85262559D01*
X141983333Y-85262559D02*
X142007143Y-85238750D01*
X142007143Y-85238750D02*
X142042857Y-85226845D01*
X142042857Y-85226845D02*
X142066666Y-85226845D01*
X142066666Y-85226845D02*
X142102381Y-85238750D01*
X142102381Y-85238750D02*
X142114285Y-85250654D01*
X142352381Y-85476845D02*
X142209524Y-85476845D01*
X142280952Y-85476845D02*
X142280952Y-85226845D01*
X142280952Y-85226845D02*
X142257143Y-85262559D01*
X142257143Y-85262559D02*
X142233333Y-85286369D01*
X142233333Y-85286369D02*
X142209524Y-85298273D01*
X142578571Y-85226845D02*
X142459523Y-85226845D01*
X142459523Y-85226845D02*
X142447619Y-85345892D01*
X142447619Y-85345892D02*
X142459523Y-85333988D01*
X142459523Y-85333988D02*
X142483333Y-85322083D01*
X142483333Y-85322083D02*
X142542857Y-85322083D01*
X142542857Y-85322083D02*
X142566666Y-85333988D01*
X142566666Y-85333988D02*
X142578571Y-85345892D01*
X142578571Y-85345892D02*
X142590476Y-85369702D01*
X142590476Y-85369702D02*
X142590476Y-85429226D01*
X142590476Y-85429226D02*
X142578571Y-85453035D01*
X142578571Y-85453035D02*
X142566666Y-85464940D01*
X142566666Y-85464940D02*
X142542857Y-85476845D01*
X142542857Y-85476845D02*
X142483333Y-85476845D01*
X142483333Y-85476845D02*
X142459523Y-85464940D01*
X142459523Y-85464940D02*
X142447619Y-85453035D01*
%TO.C,TP1*%
X144801845Y-83615475D02*
X144801845Y-83472618D01*
X145051845Y-83544046D02*
X144801845Y-83544046D01*
X145051845Y-83389285D02*
X144801845Y-83389285D01*
X144801845Y-83389285D02*
X144801845Y-83294047D01*
X144801845Y-83294047D02*
X144813750Y-83270237D01*
X144813750Y-83270237D02*
X144825654Y-83258332D01*
X144825654Y-83258332D02*
X144849464Y-83246428D01*
X144849464Y-83246428D02*
X144885178Y-83246428D01*
X144885178Y-83246428D02*
X144908988Y-83258332D01*
X144908988Y-83258332D02*
X144920892Y-83270237D01*
X144920892Y-83270237D02*
X144932797Y-83294047D01*
X144932797Y-83294047D02*
X144932797Y-83389285D01*
X145051845Y-83008332D02*
X145051845Y-83151189D01*
X145051845Y-83079761D02*
X144801845Y-83079761D01*
X144801845Y-83079761D02*
X144837559Y-83103570D01*
X144837559Y-83103570D02*
X144861369Y-83127380D01*
X144861369Y-83127380D02*
X144873273Y-83151189D01*
%TO.C,U4*%
X145333523Y-89113845D02*
X145333523Y-89316226D01*
X145333523Y-89316226D02*
X145345428Y-89340035D01*
X145345428Y-89340035D02*
X145357333Y-89351940D01*
X145357333Y-89351940D02*
X145381142Y-89363845D01*
X145381142Y-89363845D02*
X145428761Y-89363845D01*
X145428761Y-89363845D02*
X145452571Y-89351940D01*
X145452571Y-89351940D02*
X145464476Y-89340035D01*
X145464476Y-89340035D02*
X145476380Y-89316226D01*
X145476380Y-89316226D02*
X145476380Y-89113845D01*
X145702571Y-89197178D02*
X145702571Y-89363845D01*
X145643047Y-89101940D02*
X145583524Y-89280511D01*
X145583524Y-89280511D02*
X145738285Y-89280511D01*
%TO.C,R3*%
X138453333Y-84591845D02*
X138370000Y-84472797D01*
X138310476Y-84591845D02*
X138310476Y-84341845D01*
X138310476Y-84341845D02*
X138405714Y-84341845D01*
X138405714Y-84341845D02*
X138429524Y-84353750D01*
X138429524Y-84353750D02*
X138441429Y-84365654D01*
X138441429Y-84365654D02*
X138453333Y-84389464D01*
X138453333Y-84389464D02*
X138453333Y-84425178D01*
X138453333Y-84425178D02*
X138441429Y-84448988D01*
X138441429Y-84448988D02*
X138429524Y-84460892D01*
X138429524Y-84460892D02*
X138405714Y-84472797D01*
X138405714Y-84472797D02*
X138310476Y-84472797D01*
X138536667Y-84341845D02*
X138691429Y-84341845D01*
X138691429Y-84341845D02*
X138608095Y-84437083D01*
X138608095Y-84437083D02*
X138643810Y-84437083D01*
X138643810Y-84437083D02*
X138667619Y-84448988D01*
X138667619Y-84448988D02*
X138679524Y-84460892D01*
X138679524Y-84460892D02*
X138691429Y-84484702D01*
X138691429Y-84484702D02*
X138691429Y-84544226D01*
X138691429Y-84544226D02*
X138679524Y-84568035D01*
X138679524Y-84568035D02*
X138667619Y-84579940D01*
X138667619Y-84579940D02*
X138643810Y-84591845D01*
X138643810Y-84591845D02*
X138572381Y-84591845D01*
X138572381Y-84591845D02*
X138548572Y-84579940D01*
X138548572Y-84579940D02*
X138536667Y-84568035D01*
%TO.C,C17*%
X143749285Y-86588035D02*
X143737381Y-86599940D01*
X143737381Y-86599940D02*
X143701666Y-86611845D01*
X143701666Y-86611845D02*
X143677857Y-86611845D01*
X143677857Y-86611845D02*
X143642143Y-86599940D01*
X143642143Y-86599940D02*
X143618333Y-86576130D01*
X143618333Y-86576130D02*
X143606428Y-86552321D01*
X143606428Y-86552321D02*
X143594524Y-86504702D01*
X143594524Y-86504702D02*
X143594524Y-86468988D01*
X143594524Y-86468988D02*
X143606428Y-86421369D01*
X143606428Y-86421369D02*
X143618333Y-86397559D01*
X143618333Y-86397559D02*
X143642143Y-86373750D01*
X143642143Y-86373750D02*
X143677857Y-86361845D01*
X143677857Y-86361845D02*
X143701666Y-86361845D01*
X143701666Y-86361845D02*
X143737381Y-86373750D01*
X143737381Y-86373750D02*
X143749285Y-86385654D01*
X143987381Y-86611845D02*
X143844524Y-86611845D01*
X143915952Y-86611845D02*
X143915952Y-86361845D01*
X143915952Y-86361845D02*
X143892143Y-86397559D01*
X143892143Y-86397559D02*
X143868333Y-86421369D01*
X143868333Y-86421369D02*
X143844524Y-86433273D01*
X144070714Y-86361845D02*
X144237380Y-86361845D01*
X144237380Y-86361845D02*
X144130238Y-86611845D01*
%TO.C,C14*%
X142199285Y-86098035D02*
X142187381Y-86109940D01*
X142187381Y-86109940D02*
X142151666Y-86121845D01*
X142151666Y-86121845D02*
X142127857Y-86121845D01*
X142127857Y-86121845D02*
X142092143Y-86109940D01*
X142092143Y-86109940D02*
X142068333Y-86086130D01*
X142068333Y-86086130D02*
X142056428Y-86062321D01*
X142056428Y-86062321D02*
X142044524Y-86014702D01*
X142044524Y-86014702D02*
X142044524Y-85978988D01*
X142044524Y-85978988D02*
X142056428Y-85931369D01*
X142056428Y-85931369D02*
X142068333Y-85907559D01*
X142068333Y-85907559D02*
X142092143Y-85883750D01*
X142092143Y-85883750D02*
X142127857Y-85871845D01*
X142127857Y-85871845D02*
X142151666Y-85871845D01*
X142151666Y-85871845D02*
X142187381Y-85883750D01*
X142187381Y-85883750D02*
X142199285Y-85895654D01*
X142437381Y-86121845D02*
X142294524Y-86121845D01*
X142365952Y-86121845D02*
X142365952Y-85871845D01*
X142365952Y-85871845D02*
X142342143Y-85907559D01*
X142342143Y-85907559D02*
X142318333Y-85931369D01*
X142318333Y-85931369D02*
X142294524Y-85943273D01*
X142651666Y-85955178D02*
X142651666Y-86121845D01*
X142592142Y-85859940D02*
X142532619Y-86038511D01*
X142532619Y-86038511D02*
X142687380Y-86038511D01*
%TO.C,C22*%
X143759285Y-88678035D02*
X143747381Y-88689940D01*
X143747381Y-88689940D02*
X143711666Y-88701845D01*
X143711666Y-88701845D02*
X143687857Y-88701845D01*
X143687857Y-88701845D02*
X143652143Y-88689940D01*
X143652143Y-88689940D02*
X143628333Y-88666130D01*
X143628333Y-88666130D02*
X143616428Y-88642321D01*
X143616428Y-88642321D02*
X143604524Y-88594702D01*
X143604524Y-88594702D02*
X143604524Y-88558988D01*
X143604524Y-88558988D02*
X143616428Y-88511369D01*
X143616428Y-88511369D02*
X143628333Y-88487559D01*
X143628333Y-88487559D02*
X143652143Y-88463750D01*
X143652143Y-88463750D02*
X143687857Y-88451845D01*
X143687857Y-88451845D02*
X143711666Y-88451845D01*
X143711666Y-88451845D02*
X143747381Y-88463750D01*
X143747381Y-88463750D02*
X143759285Y-88475654D01*
X143854524Y-88475654D02*
X143866428Y-88463750D01*
X143866428Y-88463750D02*
X143890238Y-88451845D01*
X143890238Y-88451845D02*
X143949762Y-88451845D01*
X143949762Y-88451845D02*
X143973571Y-88463750D01*
X143973571Y-88463750D02*
X143985476Y-88475654D01*
X143985476Y-88475654D02*
X143997381Y-88499464D01*
X143997381Y-88499464D02*
X143997381Y-88523273D01*
X143997381Y-88523273D02*
X143985476Y-88558988D01*
X143985476Y-88558988D02*
X143842619Y-88701845D01*
X143842619Y-88701845D02*
X143997381Y-88701845D01*
X144092619Y-88475654D02*
X144104523Y-88463750D01*
X144104523Y-88463750D02*
X144128333Y-88451845D01*
X144128333Y-88451845D02*
X144187857Y-88451845D01*
X144187857Y-88451845D02*
X144211666Y-88463750D01*
X144211666Y-88463750D02*
X144223571Y-88475654D01*
X144223571Y-88475654D02*
X144235476Y-88499464D01*
X144235476Y-88499464D02*
X144235476Y-88523273D01*
X144235476Y-88523273D02*
X144223571Y-88558988D01*
X144223571Y-88558988D02*
X144080714Y-88701845D01*
X144080714Y-88701845D02*
X144235476Y-88701845D01*
%TO.C,C9*%
X144638333Y-90398035D02*
X144626429Y-90409940D01*
X144626429Y-90409940D02*
X144590714Y-90421845D01*
X144590714Y-90421845D02*
X144566905Y-90421845D01*
X144566905Y-90421845D02*
X144531191Y-90409940D01*
X144531191Y-90409940D02*
X144507381Y-90386130D01*
X144507381Y-90386130D02*
X144495476Y-90362321D01*
X144495476Y-90362321D02*
X144483572Y-90314702D01*
X144483572Y-90314702D02*
X144483572Y-90278988D01*
X144483572Y-90278988D02*
X144495476Y-90231369D01*
X144495476Y-90231369D02*
X144507381Y-90207559D01*
X144507381Y-90207559D02*
X144531191Y-90183750D01*
X144531191Y-90183750D02*
X144566905Y-90171845D01*
X144566905Y-90171845D02*
X144590714Y-90171845D01*
X144590714Y-90171845D02*
X144626429Y-90183750D01*
X144626429Y-90183750D02*
X144638333Y-90195654D01*
X144757381Y-90421845D02*
X144805000Y-90421845D01*
X144805000Y-90421845D02*
X144828810Y-90409940D01*
X144828810Y-90409940D02*
X144840714Y-90398035D01*
X144840714Y-90398035D02*
X144864524Y-90362321D01*
X144864524Y-90362321D02*
X144876429Y-90314702D01*
X144876429Y-90314702D02*
X144876429Y-90219464D01*
X144876429Y-90219464D02*
X144864524Y-90195654D01*
X144864524Y-90195654D02*
X144852619Y-90183750D01*
X144852619Y-90183750D02*
X144828810Y-90171845D01*
X144828810Y-90171845D02*
X144781191Y-90171845D01*
X144781191Y-90171845D02*
X144757381Y-90183750D01*
X144757381Y-90183750D02*
X144745476Y-90195654D01*
X144745476Y-90195654D02*
X144733572Y-90219464D01*
X144733572Y-90219464D02*
X144733572Y-90278988D01*
X144733572Y-90278988D02*
X144745476Y-90302797D01*
X144745476Y-90302797D02*
X144757381Y-90314702D01*
X144757381Y-90314702D02*
X144781191Y-90326607D01*
X144781191Y-90326607D02*
X144828810Y-90326607D01*
X144828810Y-90326607D02*
X144852619Y-90314702D01*
X144852619Y-90314702D02*
X144864524Y-90302797D01*
X144864524Y-90302797D02*
X144876429Y-90278988D01*
%TO.C,C7*%
X146066333Y-90364035D02*
X146054429Y-90375940D01*
X146054429Y-90375940D02*
X146018714Y-90387845D01*
X146018714Y-90387845D02*
X145994905Y-90387845D01*
X145994905Y-90387845D02*
X145959191Y-90375940D01*
X145959191Y-90375940D02*
X145935381Y-90352130D01*
X145935381Y-90352130D02*
X145923476Y-90328321D01*
X145923476Y-90328321D02*
X145911572Y-90280702D01*
X145911572Y-90280702D02*
X145911572Y-90244988D01*
X145911572Y-90244988D02*
X145923476Y-90197369D01*
X145923476Y-90197369D02*
X145935381Y-90173559D01*
X145935381Y-90173559D02*
X145959191Y-90149750D01*
X145959191Y-90149750D02*
X145994905Y-90137845D01*
X145994905Y-90137845D02*
X146018714Y-90137845D01*
X146018714Y-90137845D02*
X146054429Y-90149750D01*
X146054429Y-90149750D02*
X146066333Y-90161654D01*
X146149667Y-90137845D02*
X146316333Y-90137845D01*
X146316333Y-90137845D02*
X146209191Y-90387845D01*
%TO.C,C2*%
X139988333Y-84568035D02*
X139976429Y-84579940D01*
X139976429Y-84579940D02*
X139940714Y-84591845D01*
X139940714Y-84591845D02*
X139916905Y-84591845D01*
X139916905Y-84591845D02*
X139881191Y-84579940D01*
X139881191Y-84579940D02*
X139857381Y-84556130D01*
X139857381Y-84556130D02*
X139845476Y-84532321D01*
X139845476Y-84532321D02*
X139833572Y-84484702D01*
X139833572Y-84484702D02*
X139833572Y-84448988D01*
X139833572Y-84448988D02*
X139845476Y-84401369D01*
X139845476Y-84401369D02*
X139857381Y-84377559D01*
X139857381Y-84377559D02*
X139881191Y-84353750D01*
X139881191Y-84353750D02*
X139916905Y-84341845D01*
X139916905Y-84341845D02*
X139940714Y-84341845D01*
X139940714Y-84341845D02*
X139976429Y-84353750D01*
X139976429Y-84353750D02*
X139988333Y-84365654D01*
X140083572Y-84365654D02*
X140095476Y-84353750D01*
X140095476Y-84353750D02*
X140119286Y-84341845D01*
X140119286Y-84341845D02*
X140178810Y-84341845D01*
X140178810Y-84341845D02*
X140202619Y-84353750D01*
X140202619Y-84353750D02*
X140214524Y-84365654D01*
X140214524Y-84365654D02*
X140226429Y-84389464D01*
X140226429Y-84389464D02*
X140226429Y-84413273D01*
X140226429Y-84413273D02*
X140214524Y-84448988D01*
X140214524Y-84448988D02*
X140071667Y-84591845D01*
X140071667Y-84591845D02*
X140226429Y-84591845D01*
%TO.C,U1*%
X139434523Y-86066845D02*
X139434523Y-86269226D01*
X139434523Y-86269226D02*
X139446428Y-86293035D01*
X139446428Y-86293035D02*
X139458333Y-86304940D01*
X139458333Y-86304940D02*
X139482142Y-86316845D01*
X139482142Y-86316845D02*
X139529761Y-86316845D01*
X139529761Y-86316845D02*
X139553571Y-86304940D01*
X139553571Y-86304940D02*
X139565476Y-86293035D01*
X139565476Y-86293035D02*
X139577380Y-86269226D01*
X139577380Y-86269226D02*
X139577380Y-86066845D01*
X139827381Y-86316845D02*
X139684524Y-86316845D01*
X139755952Y-86316845D02*
X139755952Y-86066845D01*
X139755952Y-86066845D02*
X139732143Y-86102559D01*
X139732143Y-86102559D02*
X139708333Y-86126369D01*
X139708333Y-86126369D02*
X139684524Y-86138273D01*
%TO.C,L4*%
X146288333Y-86449845D02*
X146169285Y-86449845D01*
X146169285Y-86449845D02*
X146169285Y-86199845D01*
X146478809Y-86283178D02*
X146478809Y-86449845D01*
X146419285Y-86187940D02*
X146359762Y-86366511D01*
X146359762Y-86366511D02*
X146514523Y-86366511D01*
%TO.C,J2*%
X142341667Y-94111845D02*
X142341667Y-94290416D01*
X142341667Y-94290416D02*
X142329762Y-94326130D01*
X142329762Y-94326130D02*
X142305953Y-94349940D01*
X142305953Y-94349940D02*
X142270238Y-94361845D01*
X142270238Y-94361845D02*
X142246429Y-94361845D01*
X142448810Y-94135654D02*
X142460714Y-94123750D01*
X142460714Y-94123750D02*
X142484524Y-94111845D01*
X142484524Y-94111845D02*
X142544048Y-94111845D01*
X142544048Y-94111845D02*
X142567857Y-94123750D01*
X142567857Y-94123750D02*
X142579762Y-94135654D01*
X142579762Y-94135654D02*
X142591667Y-94159464D01*
X142591667Y-94159464D02*
X142591667Y-94183273D01*
X142591667Y-94183273D02*
X142579762Y-94218988D01*
X142579762Y-94218988D02*
X142436905Y-94361845D01*
X142436905Y-94361845D02*
X142591667Y-94361845D01*
%TO.C,C19*%
X144594035Y-85100714D02*
X144605940Y-85112618D01*
X144605940Y-85112618D02*
X144617845Y-85148333D01*
X144617845Y-85148333D02*
X144617845Y-85172142D01*
X144617845Y-85172142D02*
X144605940Y-85207856D01*
X144605940Y-85207856D02*
X144582130Y-85231666D01*
X144582130Y-85231666D02*
X144558321Y-85243571D01*
X144558321Y-85243571D02*
X144510702Y-85255475D01*
X144510702Y-85255475D02*
X144474988Y-85255475D01*
X144474988Y-85255475D02*
X144427369Y-85243571D01*
X144427369Y-85243571D02*
X144403559Y-85231666D01*
X144403559Y-85231666D02*
X144379750Y-85207856D01*
X144379750Y-85207856D02*
X144367845Y-85172142D01*
X144367845Y-85172142D02*
X144367845Y-85148333D01*
X144367845Y-85148333D02*
X144379750Y-85112618D01*
X144379750Y-85112618D02*
X144391654Y-85100714D01*
X144617845Y-84862618D02*
X144617845Y-85005475D01*
X144617845Y-84934047D02*
X144367845Y-84934047D01*
X144367845Y-84934047D02*
X144403559Y-84957856D01*
X144403559Y-84957856D02*
X144427369Y-84981666D01*
X144427369Y-84981666D02*
X144439273Y-85005475D01*
X144617845Y-84743571D02*
X144617845Y-84695952D01*
X144617845Y-84695952D02*
X144605940Y-84672142D01*
X144605940Y-84672142D02*
X144594035Y-84660238D01*
X144594035Y-84660238D02*
X144558321Y-84636428D01*
X144558321Y-84636428D02*
X144510702Y-84624523D01*
X144510702Y-84624523D02*
X144415464Y-84624523D01*
X144415464Y-84624523D02*
X144391654Y-84636428D01*
X144391654Y-84636428D02*
X144379750Y-84648333D01*
X144379750Y-84648333D02*
X144367845Y-84672142D01*
X144367845Y-84672142D02*
X144367845Y-84719761D01*
X144367845Y-84719761D02*
X144379750Y-84743571D01*
X144379750Y-84743571D02*
X144391654Y-84755476D01*
X144391654Y-84755476D02*
X144415464Y-84767380D01*
X144415464Y-84767380D02*
X144474988Y-84767380D01*
X144474988Y-84767380D02*
X144498797Y-84755476D01*
X144498797Y-84755476D02*
X144510702Y-84743571D01*
X144510702Y-84743571D02*
X144522607Y-84719761D01*
X144522607Y-84719761D02*
X144522607Y-84672142D01*
X144522607Y-84672142D02*
X144510702Y-84648333D01*
X144510702Y-84648333D02*
X144498797Y-84636428D01*
X144498797Y-84636428D02*
X144474988Y-84624523D01*
%TO.C,C6*%
X146058333Y-91088035D02*
X146046429Y-91099940D01*
X146046429Y-91099940D02*
X146010714Y-91111845D01*
X146010714Y-91111845D02*
X145986905Y-91111845D01*
X145986905Y-91111845D02*
X145951191Y-91099940D01*
X145951191Y-91099940D02*
X145927381Y-91076130D01*
X145927381Y-91076130D02*
X145915476Y-91052321D01*
X145915476Y-91052321D02*
X145903572Y-91004702D01*
X145903572Y-91004702D02*
X145903572Y-90968988D01*
X145903572Y-90968988D02*
X145915476Y-90921369D01*
X145915476Y-90921369D02*
X145927381Y-90897559D01*
X145927381Y-90897559D02*
X145951191Y-90873750D01*
X145951191Y-90873750D02*
X145986905Y-90861845D01*
X145986905Y-90861845D02*
X146010714Y-90861845D01*
X146010714Y-90861845D02*
X146046429Y-90873750D01*
X146046429Y-90873750D02*
X146058333Y-90885654D01*
X146272619Y-90861845D02*
X146225000Y-90861845D01*
X146225000Y-90861845D02*
X146201191Y-90873750D01*
X146201191Y-90873750D02*
X146189286Y-90885654D01*
X146189286Y-90885654D02*
X146165476Y-90921369D01*
X146165476Y-90921369D02*
X146153572Y-90968988D01*
X146153572Y-90968988D02*
X146153572Y-91064226D01*
X146153572Y-91064226D02*
X146165476Y-91088035D01*
X146165476Y-91088035D02*
X146177381Y-91099940D01*
X146177381Y-91099940D02*
X146201191Y-91111845D01*
X146201191Y-91111845D02*
X146248810Y-91111845D01*
X146248810Y-91111845D02*
X146272619Y-91099940D01*
X146272619Y-91099940D02*
X146284524Y-91088035D01*
X146284524Y-91088035D02*
X146296429Y-91064226D01*
X146296429Y-91064226D02*
X146296429Y-91004702D01*
X146296429Y-91004702D02*
X146284524Y-90980892D01*
X146284524Y-90980892D02*
X146272619Y-90968988D01*
X146272619Y-90968988D02*
X146248810Y-90957083D01*
X146248810Y-90957083D02*
X146201191Y-90957083D01*
X146201191Y-90957083D02*
X146177381Y-90968988D01*
X146177381Y-90968988D02*
X146165476Y-90980892D01*
X146165476Y-90980892D02*
X146153572Y-91004702D01*
%TO.C,R11*%
X138399285Y-92031845D02*
X138315952Y-91912797D01*
X138256428Y-92031845D02*
X138256428Y-91781845D01*
X138256428Y-91781845D02*
X138351666Y-91781845D01*
X138351666Y-91781845D02*
X138375476Y-91793750D01*
X138375476Y-91793750D02*
X138387381Y-91805654D01*
X138387381Y-91805654D02*
X138399285Y-91829464D01*
X138399285Y-91829464D02*
X138399285Y-91865178D01*
X138399285Y-91865178D02*
X138387381Y-91888988D01*
X138387381Y-91888988D02*
X138375476Y-91900892D01*
X138375476Y-91900892D02*
X138351666Y-91912797D01*
X138351666Y-91912797D02*
X138256428Y-91912797D01*
X138637381Y-92031845D02*
X138494524Y-92031845D01*
X138565952Y-92031845D02*
X138565952Y-91781845D01*
X138565952Y-91781845D02*
X138542143Y-91817559D01*
X138542143Y-91817559D02*
X138518333Y-91841369D01*
X138518333Y-91841369D02*
X138494524Y-91853273D01*
X138875476Y-92031845D02*
X138732619Y-92031845D01*
X138804047Y-92031845D02*
X138804047Y-91781845D01*
X138804047Y-91781845D02*
X138780238Y-91817559D01*
X138780238Y-91817559D02*
X138756428Y-91841369D01*
X138756428Y-91841369D02*
X138732619Y-91853273D01*
%TO.C,C16*%
X144519285Y-86618035D02*
X144507381Y-86629940D01*
X144507381Y-86629940D02*
X144471666Y-86641845D01*
X144471666Y-86641845D02*
X144447857Y-86641845D01*
X144447857Y-86641845D02*
X144412143Y-86629940D01*
X144412143Y-86629940D02*
X144388333Y-86606130D01*
X144388333Y-86606130D02*
X144376428Y-86582321D01*
X144376428Y-86582321D02*
X144364524Y-86534702D01*
X144364524Y-86534702D02*
X144364524Y-86498988D01*
X144364524Y-86498988D02*
X144376428Y-86451369D01*
X144376428Y-86451369D02*
X144388333Y-86427559D01*
X144388333Y-86427559D02*
X144412143Y-86403750D01*
X144412143Y-86403750D02*
X144447857Y-86391845D01*
X144447857Y-86391845D02*
X144471666Y-86391845D01*
X144471666Y-86391845D02*
X144507381Y-86403750D01*
X144507381Y-86403750D02*
X144519285Y-86415654D01*
X144757381Y-86641845D02*
X144614524Y-86641845D01*
X144685952Y-86641845D02*
X144685952Y-86391845D01*
X144685952Y-86391845D02*
X144662143Y-86427559D01*
X144662143Y-86427559D02*
X144638333Y-86451369D01*
X144638333Y-86451369D02*
X144614524Y-86463273D01*
X144971666Y-86391845D02*
X144924047Y-86391845D01*
X144924047Y-86391845D02*
X144900238Y-86403750D01*
X144900238Y-86403750D02*
X144888333Y-86415654D01*
X144888333Y-86415654D02*
X144864523Y-86451369D01*
X144864523Y-86451369D02*
X144852619Y-86498988D01*
X144852619Y-86498988D02*
X144852619Y-86594226D01*
X144852619Y-86594226D02*
X144864523Y-86618035D01*
X144864523Y-86618035D02*
X144876428Y-86629940D01*
X144876428Y-86629940D02*
X144900238Y-86641845D01*
X144900238Y-86641845D02*
X144947857Y-86641845D01*
X144947857Y-86641845D02*
X144971666Y-86629940D01*
X144971666Y-86629940D02*
X144983571Y-86618035D01*
X144983571Y-86618035D02*
X144995476Y-86594226D01*
X144995476Y-86594226D02*
X144995476Y-86534702D01*
X144995476Y-86534702D02*
X144983571Y-86510892D01*
X144983571Y-86510892D02*
X144971666Y-86498988D01*
X144971666Y-86498988D02*
X144947857Y-86487083D01*
X144947857Y-86487083D02*
X144900238Y-86487083D01*
X144900238Y-86487083D02*
X144876428Y-86498988D01*
X144876428Y-86498988D02*
X144864523Y-86510892D01*
X144864523Y-86510892D02*
X144852619Y-86534702D01*
%TO.C,C3*%
X138213035Y-86316666D02*
X138224940Y-86328570D01*
X138224940Y-86328570D02*
X138236845Y-86364285D01*
X138236845Y-86364285D02*
X138236845Y-86388094D01*
X138236845Y-86388094D02*
X138224940Y-86423808D01*
X138224940Y-86423808D02*
X138201130Y-86447618D01*
X138201130Y-86447618D02*
X138177321Y-86459523D01*
X138177321Y-86459523D02*
X138129702Y-86471427D01*
X138129702Y-86471427D02*
X138093988Y-86471427D01*
X138093988Y-86471427D02*
X138046369Y-86459523D01*
X138046369Y-86459523D02*
X138022559Y-86447618D01*
X138022559Y-86447618D02*
X137998750Y-86423808D01*
X137998750Y-86423808D02*
X137986845Y-86388094D01*
X137986845Y-86388094D02*
X137986845Y-86364285D01*
X137986845Y-86364285D02*
X137998750Y-86328570D01*
X137998750Y-86328570D02*
X138010654Y-86316666D01*
X137986845Y-86233332D02*
X137986845Y-86078570D01*
X137986845Y-86078570D02*
X138082083Y-86161904D01*
X138082083Y-86161904D02*
X138082083Y-86126189D01*
X138082083Y-86126189D02*
X138093988Y-86102380D01*
X138093988Y-86102380D02*
X138105892Y-86090475D01*
X138105892Y-86090475D02*
X138129702Y-86078570D01*
X138129702Y-86078570D02*
X138189226Y-86078570D01*
X138189226Y-86078570D02*
X138213035Y-86090475D01*
X138213035Y-86090475D02*
X138224940Y-86102380D01*
X138224940Y-86102380D02*
X138236845Y-86126189D01*
X138236845Y-86126189D02*
X138236845Y-86197618D01*
X138236845Y-86197618D02*
X138224940Y-86221427D01*
X138224940Y-86221427D02*
X138213035Y-86233332D01*
%TO.C,C1*%
X140978333Y-85838035D02*
X140966429Y-85849940D01*
X140966429Y-85849940D02*
X140930714Y-85861845D01*
X140930714Y-85861845D02*
X140906905Y-85861845D01*
X140906905Y-85861845D02*
X140871191Y-85849940D01*
X140871191Y-85849940D02*
X140847381Y-85826130D01*
X140847381Y-85826130D02*
X140835476Y-85802321D01*
X140835476Y-85802321D02*
X140823572Y-85754702D01*
X140823572Y-85754702D02*
X140823572Y-85718988D01*
X140823572Y-85718988D02*
X140835476Y-85671369D01*
X140835476Y-85671369D02*
X140847381Y-85647559D01*
X140847381Y-85647559D02*
X140871191Y-85623750D01*
X140871191Y-85623750D02*
X140906905Y-85611845D01*
X140906905Y-85611845D02*
X140930714Y-85611845D01*
X140930714Y-85611845D02*
X140966429Y-85623750D01*
X140966429Y-85623750D02*
X140978333Y-85635654D01*
X141216429Y-85861845D02*
X141073572Y-85861845D01*
X141145000Y-85861845D02*
X141145000Y-85611845D01*
X141145000Y-85611845D02*
X141121191Y-85647559D01*
X141121191Y-85647559D02*
X141097381Y-85671369D01*
X141097381Y-85671369D02*
X141073572Y-85683273D01*
%TO.C,TP3*%
X137774524Y-95011845D02*
X137917381Y-95011845D01*
X137845953Y-95261845D02*
X137845953Y-95011845D01*
X138000714Y-95261845D02*
X138000714Y-95011845D01*
X138000714Y-95011845D02*
X138095952Y-95011845D01*
X138095952Y-95011845D02*
X138119762Y-95023750D01*
X138119762Y-95023750D02*
X138131667Y-95035654D01*
X138131667Y-95035654D02*
X138143571Y-95059464D01*
X138143571Y-95059464D02*
X138143571Y-95095178D01*
X138143571Y-95095178D02*
X138131667Y-95118988D01*
X138131667Y-95118988D02*
X138119762Y-95130892D01*
X138119762Y-95130892D02*
X138095952Y-95142797D01*
X138095952Y-95142797D02*
X138000714Y-95142797D01*
X138226905Y-95011845D02*
X138381667Y-95011845D01*
X138381667Y-95011845D02*
X138298333Y-95107083D01*
X138298333Y-95107083D02*
X138334048Y-95107083D01*
X138334048Y-95107083D02*
X138357857Y-95118988D01*
X138357857Y-95118988D02*
X138369762Y-95130892D01*
X138369762Y-95130892D02*
X138381667Y-95154702D01*
X138381667Y-95154702D02*
X138381667Y-95214226D01*
X138381667Y-95214226D02*
X138369762Y-95238035D01*
X138369762Y-95238035D02*
X138357857Y-95249940D01*
X138357857Y-95249940D02*
X138334048Y-95261845D01*
X138334048Y-95261845D02*
X138262619Y-95261845D01*
X138262619Y-95261845D02*
X138238810Y-95249940D01*
X138238810Y-95249940D02*
X138226905Y-95238035D01*
%TO.C,C8*%
X143938333Y-90398035D02*
X143926429Y-90409940D01*
X143926429Y-90409940D02*
X143890714Y-90421845D01*
X143890714Y-90421845D02*
X143866905Y-90421845D01*
X143866905Y-90421845D02*
X143831191Y-90409940D01*
X143831191Y-90409940D02*
X143807381Y-90386130D01*
X143807381Y-90386130D02*
X143795476Y-90362321D01*
X143795476Y-90362321D02*
X143783572Y-90314702D01*
X143783572Y-90314702D02*
X143783572Y-90278988D01*
X143783572Y-90278988D02*
X143795476Y-90231369D01*
X143795476Y-90231369D02*
X143807381Y-90207559D01*
X143807381Y-90207559D02*
X143831191Y-90183750D01*
X143831191Y-90183750D02*
X143866905Y-90171845D01*
X143866905Y-90171845D02*
X143890714Y-90171845D01*
X143890714Y-90171845D02*
X143926429Y-90183750D01*
X143926429Y-90183750D02*
X143938333Y-90195654D01*
X144081191Y-90278988D02*
X144057381Y-90267083D01*
X144057381Y-90267083D02*
X144045476Y-90255178D01*
X144045476Y-90255178D02*
X144033572Y-90231369D01*
X144033572Y-90231369D02*
X144033572Y-90219464D01*
X144033572Y-90219464D02*
X144045476Y-90195654D01*
X144045476Y-90195654D02*
X144057381Y-90183750D01*
X144057381Y-90183750D02*
X144081191Y-90171845D01*
X144081191Y-90171845D02*
X144128810Y-90171845D01*
X144128810Y-90171845D02*
X144152619Y-90183750D01*
X144152619Y-90183750D02*
X144164524Y-90195654D01*
X144164524Y-90195654D02*
X144176429Y-90219464D01*
X144176429Y-90219464D02*
X144176429Y-90231369D01*
X144176429Y-90231369D02*
X144164524Y-90255178D01*
X144164524Y-90255178D02*
X144152619Y-90267083D01*
X144152619Y-90267083D02*
X144128810Y-90278988D01*
X144128810Y-90278988D02*
X144081191Y-90278988D01*
X144081191Y-90278988D02*
X144057381Y-90290892D01*
X144057381Y-90290892D02*
X144045476Y-90302797D01*
X144045476Y-90302797D02*
X144033572Y-90326607D01*
X144033572Y-90326607D02*
X144033572Y-90374226D01*
X144033572Y-90374226D02*
X144045476Y-90398035D01*
X144045476Y-90398035D02*
X144057381Y-90409940D01*
X144057381Y-90409940D02*
X144081191Y-90421845D01*
X144081191Y-90421845D02*
X144128810Y-90421845D01*
X144128810Y-90421845D02*
X144152619Y-90409940D01*
X144152619Y-90409940D02*
X144164524Y-90398035D01*
X144164524Y-90398035D02*
X144176429Y-90374226D01*
X144176429Y-90374226D02*
X144176429Y-90326607D01*
X144176429Y-90326607D02*
X144164524Y-90302797D01*
X144164524Y-90302797D02*
X144152619Y-90290892D01*
X144152619Y-90290892D02*
X144128810Y-90278988D01*
%TO.C,C18*%
X145578035Y-87180714D02*
X145589940Y-87192618D01*
X145589940Y-87192618D02*
X145601845Y-87228333D01*
X145601845Y-87228333D02*
X145601845Y-87252142D01*
X145601845Y-87252142D02*
X145589940Y-87287856D01*
X145589940Y-87287856D02*
X145566130Y-87311666D01*
X145566130Y-87311666D02*
X145542321Y-87323571D01*
X145542321Y-87323571D02*
X145494702Y-87335475D01*
X145494702Y-87335475D02*
X145458988Y-87335475D01*
X145458988Y-87335475D02*
X145411369Y-87323571D01*
X145411369Y-87323571D02*
X145387559Y-87311666D01*
X145387559Y-87311666D02*
X145363750Y-87287856D01*
X145363750Y-87287856D02*
X145351845Y-87252142D01*
X145351845Y-87252142D02*
X145351845Y-87228333D01*
X145351845Y-87228333D02*
X145363750Y-87192618D01*
X145363750Y-87192618D02*
X145375654Y-87180714D01*
X145601845Y-86942618D02*
X145601845Y-87085475D01*
X145601845Y-87014047D02*
X145351845Y-87014047D01*
X145351845Y-87014047D02*
X145387559Y-87037856D01*
X145387559Y-87037856D02*
X145411369Y-87061666D01*
X145411369Y-87061666D02*
X145423273Y-87085475D01*
X145458988Y-86799761D02*
X145447083Y-86823571D01*
X145447083Y-86823571D02*
X145435178Y-86835476D01*
X145435178Y-86835476D02*
X145411369Y-86847380D01*
X145411369Y-86847380D02*
X145399464Y-86847380D01*
X145399464Y-86847380D02*
X145375654Y-86835476D01*
X145375654Y-86835476D02*
X145363750Y-86823571D01*
X145363750Y-86823571D02*
X145351845Y-86799761D01*
X145351845Y-86799761D02*
X145351845Y-86752142D01*
X145351845Y-86752142D02*
X145363750Y-86728333D01*
X145363750Y-86728333D02*
X145375654Y-86716428D01*
X145375654Y-86716428D02*
X145399464Y-86704523D01*
X145399464Y-86704523D02*
X145411369Y-86704523D01*
X145411369Y-86704523D02*
X145435178Y-86716428D01*
X145435178Y-86716428D02*
X145447083Y-86728333D01*
X145447083Y-86728333D02*
X145458988Y-86752142D01*
X145458988Y-86752142D02*
X145458988Y-86799761D01*
X145458988Y-86799761D02*
X145470892Y-86823571D01*
X145470892Y-86823571D02*
X145482797Y-86835476D01*
X145482797Y-86835476D02*
X145506607Y-86847380D01*
X145506607Y-86847380D02*
X145554226Y-86847380D01*
X145554226Y-86847380D02*
X145578035Y-86835476D01*
X145578035Y-86835476D02*
X145589940Y-86823571D01*
X145589940Y-86823571D02*
X145601845Y-86799761D01*
X145601845Y-86799761D02*
X145601845Y-86752142D01*
X145601845Y-86752142D02*
X145589940Y-86728333D01*
X145589940Y-86728333D02*
X145578035Y-86716428D01*
X145578035Y-86716428D02*
X145554226Y-86704523D01*
X145554226Y-86704523D02*
X145506607Y-86704523D01*
X145506607Y-86704523D02*
X145482797Y-86716428D01*
X145482797Y-86716428D02*
X145470892Y-86728333D01*
X145470892Y-86728333D02*
X145458988Y-86752142D01*
%TO.C,R8*%
X143924845Y-85098666D02*
X143805797Y-85181999D01*
X143924845Y-85241523D02*
X143674845Y-85241523D01*
X143674845Y-85241523D02*
X143674845Y-85146285D01*
X143674845Y-85146285D02*
X143686750Y-85122475D01*
X143686750Y-85122475D02*
X143698654Y-85110570D01*
X143698654Y-85110570D02*
X143722464Y-85098666D01*
X143722464Y-85098666D02*
X143758178Y-85098666D01*
X143758178Y-85098666D02*
X143781988Y-85110570D01*
X143781988Y-85110570D02*
X143793892Y-85122475D01*
X143793892Y-85122475D02*
X143805797Y-85146285D01*
X143805797Y-85146285D02*
X143805797Y-85241523D01*
X143781988Y-84955808D02*
X143770083Y-84979618D01*
X143770083Y-84979618D02*
X143758178Y-84991523D01*
X143758178Y-84991523D02*
X143734369Y-85003427D01*
X143734369Y-85003427D02*
X143722464Y-85003427D01*
X143722464Y-85003427D02*
X143698654Y-84991523D01*
X143698654Y-84991523D02*
X143686750Y-84979618D01*
X143686750Y-84979618D02*
X143674845Y-84955808D01*
X143674845Y-84955808D02*
X143674845Y-84908189D01*
X143674845Y-84908189D02*
X143686750Y-84884380D01*
X143686750Y-84884380D02*
X143698654Y-84872475D01*
X143698654Y-84872475D02*
X143722464Y-84860570D01*
X143722464Y-84860570D02*
X143734369Y-84860570D01*
X143734369Y-84860570D02*
X143758178Y-84872475D01*
X143758178Y-84872475D02*
X143770083Y-84884380D01*
X143770083Y-84884380D02*
X143781988Y-84908189D01*
X143781988Y-84908189D02*
X143781988Y-84955808D01*
X143781988Y-84955808D02*
X143793892Y-84979618D01*
X143793892Y-84979618D02*
X143805797Y-84991523D01*
X143805797Y-84991523D02*
X143829607Y-85003427D01*
X143829607Y-85003427D02*
X143877226Y-85003427D01*
X143877226Y-85003427D02*
X143901035Y-84991523D01*
X143901035Y-84991523D02*
X143912940Y-84979618D01*
X143912940Y-84979618D02*
X143924845Y-84955808D01*
X143924845Y-84955808D02*
X143924845Y-84908189D01*
X143924845Y-84908189D02*
X143912940Y-84884380D01*
X143912940Y-84884380D02*
X143901035Y-84872475D01*
X143901035Y-84872475D02*
X143877226Y-84860570D01*
X143877226Y-84860570D02*
X143829607Y-84860570D01*
X143829607Y-84860570D02*
X143805797Y-84872475D01*
X143805797Y-84872475D02*
X143793892Y-84884380D01*
X143793892Y-84884380D02*
X143781988Y-84908189D01*
D11*
%TO.C,J4*%
X117546666Y-77234880D02*
X117546666Y-77949166D01*
X117546666Y-77949166D02*
X117499047Y-78092023D01*
X117499047Y-78092023D02*
X117403809Y-78187261D01*
X117403809Y-78187261D02*
X117260952Y-78234880D01*
X117260952Y-78234880D02*
X117165714Y-78234880D01*
X118451428Y-77568214D02*
X118451428Y-78234880D01*
X118213333Y-77187261D02*
X117975238Y-77901547D01*
X117975238Y-77901547D02*
X118594285Y-77901547D01*
D10*
%TO.C,R2*%
X145508333Y-85521845D02*
X145425000Y-85402797D01*
X145365476Y-85521845D02*
X145365476Y-85271845D01*
X145365476Y-85271845D02*
X145460714Y-85271845D01*
X145460714Y-85271845D02*
X145484524Y-85283750D01*
X145484524Y-85283750D02*
X145496429Y-85295654D01*
X145496429Y-85295654D02*
X145508333Y-85319464D01*
X145508333Y-85319464D02*
X145508333Y-85355178D01*
X145508333Y-85355178D02*
X145496429Y-85378988D01*
X145496429Y-85378988D02*
X145484524Y-85390892D01*
X145484524Y-85390892D02*
X145460714Y-85402797D01*
X145460714Y-85402797D02*
X145365476Y-85402797D01*
X145603572Y-85295654D02*
X145615476Y-85283750D01*
X145615476Y-85283750D02*
X145639286Y-85271845D01*
X145639286Y-85271845D02*
X145698810Y-85271845D01*
X145698810Y-85271845D02*
X145722619Y-85283750D01*
X145722619Y-85283750D02*
X145734524Y-85295654D01*
X145734524Y-85295654D02*
X145746429Y-85319464D01*
X145746429Y-85319464D02*
X145746429Y-85343273D01*
X145746429Y-85343273D02*
X145734524Y-85378988D01*
X145734524Y-85378988D02*
X145591667Y-85521845D01*
X145591667Y-85521845D02*
X145746429Y-85521845D01*
%TO.C,R9*%
X146141845Y-92651666D02*
X146022797Y-92734999D01*
X146141845Y-92794523D02*
X145891845Y-92794523D01*
X145891845Y-92794523D02*
X145891845Y-92699285D01*
X145891845Y-92699285D02*
X145903750Y-92675475D01*
X145903750Y-92675475D02*
X145915654Y-92663570D01*
X145915654Y-92663570D02*
X145939464Y-92651666D01*
X145939464Y-92651666D02*
X145975178Y-92651666D01*
X145975178Y-92651666D02*
X145998988Y-92663570D01*
X145998988Y-92663570D02*
X146010892Y-92675475D01*
X146010892Y-92675475D02*
X146022797Y-92699285D01*
X146022797Y-92699285D02*
X146022797Y-92794523D01*
X146141845Y-92532618D02*
X146141845Y-92484999D01*
X146141845Y-92484999D02*
X146129940Y-92461189D01*
X146129940Y-92461189D02*
X146118035Y-92449285D01*
X146118035Y-92449285D02*
X146082321Y-92425475D01*
X146082321Y-92425475D02*
X146034702Y-92413570D01*
X146034702Y-92413570D02*
X145939464Y-92413570D01*
X145939464Y-92413570D02*
X145915654Y-92425475D01*
X145915654Y-92425475D02*
X145903750Y-92437380D01*
X145903750Y-92437380D02*
X145891845Y-92461189D01*
X145891845Y-92461189D02*
X145891845Y-92508808D01*
X145891845Y-92508808D02*
X145903750Y-92532618D01*
X145903750Y-92532618D02*
X145915654Y-92544523D01*
X145915654Y-92544523D02*
X145939464Y-92556427D01*
X145939464Y-92556427D02*
X145998988Y-92556427D01*
X145998988Y-92556427D02*
X146022797Y-92544523D01*
X146022797Y-92544523D02*
X146034702Y-92532618D01*
X146034702Y-92532618D02*
X146046607Y-92508808D01*
X146046607Y-92508808D02*
X146046607Y-92461189D01*
X146046607Y-92461189D02*
X146034702Y-92437380D01*
X146034702Y-92437380D02*
X146022797Y-92425475D01*
X146022797Y-92425475D02*
X145998988Y-92413570D01*
%TO.C,R5*%
X146628333Y-85011845D02*
X146545000Y-84892797D01*
X146485476Y-85011845D02*
X146485476Y-84761845D01*
X146485476Y-84761845D02*
X146580714Y-84761845D01*
X146580714Y-84761845D02*
X146604524Y-84773750D01*
X146604524Y-84773750D02*
X146616429Y-84785654D01*
X146616429Y-84785654D02*
X146628333Y-84809464D01*
X146628333Y-84809464D02*
X146628333Y-84845178D01*
X146628333Y-84845178D02*
X146616429Y-84868988D01*
X146616429Y-84868988D02*
X146604524Y-84880892D01*
X146604524Y-84880892D02*
X146580714Y-84892797D01*
X146580714Y-84892797D02*
X146485476Y-84892797D01*
X146854524Y-84761845D02*
X146735476Y-84761845D01*
X146735476Y-84761845D02*
X146723572Y-84880892D01*
X146723572Y-84880892D02*
X146735476Y-84868988D01*
X146735476Y-84868988D02*
X146759286Y-84857083D01*
X146759286Y-84857083D02*
X146818810Y-84857083D01*
X146818810Y-84857083D02*
X146842619Y-84868988D01*
X146842619Y-84868988D02*
X146854524Y-84880892D01*
X146854524Y-84880892D02*
X146866429Y-84904702D01*
X146866429Y-84904702D02*
X146866429Y-84964226D01*
X146866429Y-84964226D02*
X146854524Y-84988035D01*
X146854524Y-84988035D02*
X146842619Y-84999940D01*
X146842619Y-84999940D02*
X146818810Y-85011845D01*
X146818810Y-85011845D02*
X146759286Y-85011845D01*
X146759286Y-85011845D02*
X146735476Y-84999940D01*
X146735476Y-84999940D02*
X146723572Y-84988035D01*
%TO.C,R1*%
X145538333Y-84761845D02*
X145455000Y-84642797D01*
X145395476Y-84761845D02*
X145395476Y-84511845D01*
X145395476Y-84511845D02*
X145490714Y-84511845D01*
X145490714Y-84511845D02*
X145514524Y-84523750D01*
X145514524Y-84523750D02*
X145526429Y-84535654D01*
X145526429Y-84535654D02*
X145538333Y-84559464D01*
X145538333Y-84559464D02*
X145538333Y-84595178D01*
X145538333Y-84595178D02*
X145526429Y-84618988D01*
X145526429Y-84618988D02*
X145514524Y-84630892D01*
X145514524Y-84630892D02*
X145490714Y-84642797D01*
X145490714Y-84642797D02*
X145395476Y-84642797D01*
X145776429Y-84761845D02*
X145633572Y-84761845D01*
X145705000Y-84761845D02*
X145705000Y-84511845D01*
X145705000Y-84511845D02*
X145681191Y-84547559D01*
X145681191Y-84547559D02*
X145657381Y-84571369D01*
X145657381Y-84571369D02*
X145633572Y-84583273D01*
D12*
%TO.C,J1*%
X141530000Y-82400000D02*
X143530000Y-82400000D01*
X143530000Y-82400000D02*
X143530000Y-84400000D01*
X143530000Y-84400000D02*
X141530000Y-84400000D01*
X141530000Y-84400000D02*
X141530000Y-82400000D01*
X142671421Y-84100000D02*
G75*
G03*
X142671421Y-84100000I-141421J0D01*
G01*
%TO.C,R7*%
X141855000Y-86230000D02*
X141855000Y-86830000D01*
X141555000Y-86230000D02*
X141855000Y-86230000D01*
X141855000Y-86830000D02*
X141555000Y-86830000D01*
X141555000Y-86830000D02*
X141555000Y-86230000D01*
%TO.C,C13*%
X143255000Y-86230000D02*
X143255000Y-86830000D01*
X142955000Y-86230000D02*
X143255000Y-86230000D01*
X143255000Y-86830000D02*
X142955000Y-86830000D01*
X142955000Y-86830000D02*
X142955000Y-86230000D01*
%TO.C,J6*%
X137885000Y-82680000D02*
X140185000Y-82680000D01*
X140185000Y-82680000D02*
X140185000Y-83880000D01*
X140185000Y-83880000D02*
X137885000Y-83880000D01*
X137885000Y-83880000D02*
X137885000Y-82680000D01*
%TO.C,U7*%
X137975000Y-88087500D02*
X137975000Y-91387500D01*
X137975000Y-88087500D02*
X138475000Y-87587500D01*
X137975000Y-91387500D02*
X143175000Y-91387500D01*
X143175000Y-87587500D02*
X138475000Y-87587500D01*
X143175000Y-91387500D02*
X143175000Y-87587500D01*
%TO.C,C15*%
X141775000Y-85110000D02*
X142775000Y-85110000D01*
X141775000Y-85610000D02*
X141775000Y-85110000D01*
X142775000Y-85110000D02*
X142775000Y-85610000D01*
X142775000Y-85610000D02*
X141775000Y-85610000D01*
%TO.C,U4*%
X145124000Y-89972000D02*
X144424000Y-89272000D01*
X146624000Y-89972000D02*
X145124000Y-89972000D01*
X144424000Y-89272000D02*
X144424000Y-88572000D01*
X144424000Y-88572000D02*
X146624000Y-88572000D01*
X146624000Y-88572000D02*
X146624000Y-89972000D01*
%TO.C,R3*%
X138800000Y-85000000D02*
X138200000Y-85000000D01*
X138800000Y-84700000D02*
X138800000Y-85000000D01*
X138200000Y-85000000D02*
X138200000Y-84700000D01*
X138200000Y-84700000D02*
X138800000Y-84700000D01*
%TO.C,C17*%
X144064000Y-86771000D02*
X144064000Y-87371000D01*
X143764000Y-86771000D02*
X144064000Y-86771000D01*
X144064000Y-87371000D02*
X143764000Y-87371000D01*
X143764000Y-87371000D02*
X143764000Y-86771000D01*
%TO.C,C14*%
X142555000Y-86230000D02*
X142555000Y-86830000D01*
X142255000Y-86230000D02*
X142555000Y-86230000D01*
X142555000Y-86830000D02*
X142255000Y-86830000D01*
X142255000Y-86830000D02*
X142255000Y-86230000D01*
%TO.C,C22*%
X143764000Y-89445000D02*
X143764000Y-88845000D01*
X144064000Y-89445000D02*
X143764000Y-89445000D01*
X143764000Y-88845000D02*
X144064000Y-88845000D01*
X144064000Y-88845000D02*
X144064000Y-89445000D01*
%TO.C,C9*%
X144845000Y-90580000D02*
X144845000Y-91180000D01*
X144545000Y-90580000D02*
X144845000Y-90580000D01*
X144845000Y-91180000D02*
X144545000Y-91180000D01*
X144545000Y-91180000D02*
X144545000Y-90580000D01*
%TO.C,C7*%
X145823000Y-90486000D02*
X146423000Y-90486000D01*
X145823000Y-90786000D02*
X145823000Y-90486000D01*
X146423000Y-90486000D02*
X146423000Y-90786000D01*
X146423000Y-90786000D02*
X145823000Y-90786000D01*
%TO.C,C2*%
X140325000Y-85000000D02*
X139725000Y-85000000D01*
X140325000Y-84700000D02*
X140325000Y-85000000D01*
X139725000Y-85000000D02*
X139725000Y-84700000D01*
X139725000Y-84700000D02*
X140325000Y-84700000D01*
%TO.C,U1*%
X138825000Y-85825000D02*
X139225000Y-85425000D01*
X138825000Y-87025000D02*
X138825000Y-85825000D01*
X139225000Y-85425000D02*
X140425000Y-85425000D01*
X140425000Y-85425000D02*
X140425000Y-87025000D01*
X140425000Y-87025000D02*
X138825000Y-87025000D01*
%TO.C,L4*%
X146185000Y-87228000D02*
X146185000Y-86628000D01*
X146485000Y-87228000D02*
X146185000Y-87228000D01*
X146185000Y-86628000D02*
X146485000Y-86628000D01*
X146485000Y-86628000D02*
X146485000Y-87228000D01*
%TO.C,J2*%
X139125000Y-92770000D02*
X139125000Y-94970000D01*
X139125000Y-94970000D02*
X139475000Y-94970000D01*
X139475000Y-94970000D02*
X139475000Y-95870000D01*
X139475000Y-95870000D02*
X145325000Y-95870000D01*
X145325000Y-94970000D02*
X145725000Y-94970000D01*
X145325000Y-95870000D02*
X145325000Y-94970000D01*
X145375000Y-92770000D02*
X139125000Y-92770000D01*
X145725000Y-93120000D02*
X145375000Y-92770000D01*
X145725000Y-94970000D02*
X145725000Y-93120000D01*
%TO.C,C19*%
X144361000Y-85970000D02*
X144361000Y-85370000D01*
X144661000Y-85970000D02*
X144361000Y-85970000D01*
X144361000Y-85370000D02*
X144661000Y-85370000D01*
X144661000Y-85370000D02*
X144661000Y-85970000D01*
%TO.C,C6*%
X145823000Y-91186000D02*
X146423000Y-91186000D01*
X145823000Y-91486000D02*
X145823000Y-91186000D01*
X146423000Y-91186000D02*
X146423000Y-91486000D01*
X146423000Y-91486000D02*
X145823000Y-91486000D01*
%TO.C,R11*%
X138706000Y-92223000D02*
X138706000Y-92823000D01*
X138406000Y-92223000D02*
X138706000Y-92223000D01*
X138706000Y-92823000D02*
X138406000Y-92823000D01*
X138406000Y-92823000D02*
X138406000Y-92223000D01*
%TO.C,C16*%
X144826000Y-86774000D02*
X144826000Y-87374000D01*
X144526000Y-86774000D02*
X144826000Y-86774000D01*
X144826000Y-87374000D02*
X144526000Y-87374000D01*
X144526000Y-87374000D02*
X144526000Y-86774000D01*
%TO.C,C3*%
X138350000Y-85775000D02*
X138350000Y-86775000D01*
X137850000Y-85775000D02*
X138350000Y-85775000D01*
X138350000Y-86775000D02*
X137850000Y-86775000D01*
X137850000Y-86775000D02*
X137850000Y-85775000D01*
%TO.C,C1*%
X141145000Y-85990000D02*
X141145000Y-86590000D01*
X140845000Y-85990000D02*
X141145000Y-85990000D01*
X141145000Y-86590000D02*
X140845000Y-86590000D01*
X140845000Y-86590000D02*
X140845000Y-85990000D01*
%TO.C,C8*%
X144115000Y-90580000D02*
X144115000Y-91180000D01*
X143815000Y-90580000D02*
X144115000Y-90580000D01*
X144115000Y-91180000D02*
X143815000Y-91180000D01*
X143815000Y-91180000D02*
X143815000Y-90580000D01*
%TO.C,C18*%
X145750000Y-86505000D02*
X145750000Y-87505000D01*
X145250000Y-86505000D02*
X145750000Y-86505000D01*
X145750000Y-87505000D02*
X145250000Y-87505000D01*
X145250000Y-87505000D02*
X145250000Y-86505000D01*
%TO.C,R8*%
X143958000Y-85367000D02*
X143958000Y-85967000D01*
X143658000Y-85367000D02*
X143958000Y-85367000D01*
X143958000Y-85967000D02*
X143658000Y-85967000D01*
X143658000Y-85967000D02*
X143658000Y-85367000D01*
%TO.C,J4*%
X127180000Y-73267500D02*
X128180000Y-74267500D01*
X120050000Y-73267500D02*
X120050000Y-74467500D01*
X107820000Y-73267500D02*
X127180000Y-73267500D01*
X128180000Y-74267500D02*
X128180000Y-82167500D01*
X126990000Y-74467500D02*
X126990000Y-80967500D01*
X120050000Y-74467500D02*
X126990000Y-74467500D01*
X115950000Y-74467500D02*
X115950000Y-73267500D01*
X115950000Y-74467500D02*
X115950000Y-74467500D01*
X109010000Y-74467500D02*
X115950000Y-74467500D01*
X126990000Y-80967500D02*
X109010000Y-80967500D01*
X109010000Y-80967500D02*
X109010000Y-74467500D01*
X128180000Y-82167500D02*
X107820000Y-82167500D01*
X107820000Y-82167500D02*
X107820000Y-73267500D01*
%TO.C,R2*%
X145867000Y-85900000D02*
X145267000Y-85900000D01*
X145867000Y-85600000D02*
X145867000Y-85900000D01*
X145267000Y-85900000D02*
X145267000Y-85600000D01*
X145267000Y-85600000D02*
X145867000Y-85600000D01*
%TO.C,R9*%
X146560000Y-92340000D02*
X146560000Y-92940000D01*
X146260000Y-92340000D02*
X146560000Y-92340000D01*
X146560000Y-92940000D02*
X146260000Y-92940000D01*
X146260000Y-92940000D02*
X146260000Y-92340000D01*
%TO.C,R5*%
X146514000Y-85767000D02*
X146514000Y-85167000D01*
X146814000Y-85767000D02*
X146514000Y-85767000D01*
X146514000Y-85167000D02*
X146814000Y-85167000D01*
X146814000Y-85167000D02*
X146814000Y-85767000D01*
%TO.C,R1*%
X145877000Y-85200000D02*
X145277000Y-85200000D01*
X145877000Y-84900000D02*
X145877000Y-85200000D01*
X145277000Y-85200000D02*
X145277000Y-84900000D01*
X145277000Y-84900000D02*
X145877000Y-84900000D01*
%TD*%
M02*
