%TF.GenerationSoftware,KiCad,Pcbnew,(7.0.0)*%
%TF.CreationDate,2023-09-15T12:15:57-04:00*%
%TF.ProjectId,headstage-neuropix2e,68656164-7374-4616-9765-2d6e6575726f,A*%
%TF.SameCoordinates,Original*%
%TF.FileFunction,Component,L4,Bot*%
%TF.FilePolarity,Positive*%
%FSLAX46Y46*%
G04 Gerber Fmt 4.6, Leading zero omitted, Abs format (unit mm)*
G04 Created by KiCad (PCBNEW (7.0.0)) date 2023-09-15 12:15:57*
%MOMM*%
%LPD*%
G01*
G04 APERTURE LIST*
%TA.AperFunction,ComponentMain*%
%ADD10C,0.300000*%
%TD*%
%TA.AperFunction,ComponentOutline,Courtyard*%
%ADD11C,0.100000*%
%TD*%
%TA.AperFunction,ComponentPin*%
%ADD12P,0.360000X4X0.000000*%
%TD*%
%TA.AperFunction,ComponentPin*%
%ADD13C,0.000000*%
%TD*%
G04 APERTURE END LIST*
D10*
%TO.C,"L2"*%
%TO.CFtp,"L_0805_2012Metric"*%
%TO.CVal,"ASMPH-0805-4R7M-T"*%
%TO.CLbN,"Inductor_SMD"*%
%TO.CMnt,SMD*%
%TO.CRot,0*%
X142387500Y-82900000D03*
D11*
X144137499Y-83749999D02*
X140637501Y-83749999D01*
X140637501Y-82050001D01*
X144137499Y-82050001D01*
X144137499Y-83749999D01*
D12*
%TO.P,"L2","1","1"*%
X143450000Y-82900000D03*
D13*
%TO.P,"L2","2","2"*%
X141325000Y-82900000D03*
%TD*%
D10*
%TO.C,"U6"*%
%TO.CFtp,"ST_WLCSP5-0.959x1.073"*%
%TO.CVal,"M24C64-FCS6TP/K"*%
%TO.CLbN,"jonnew"*%
%TO.CMnt,SMD*%
%TO.CRot,0*%
X145025000Y-85300000D03*
D11*
X145624999Y-85899999D02*
X144425001Y-85899999D01*
X144425001Y-84700001D01*
X145624999Y-84700001D01*
X145624999Y-85899999D01*
D12*
%TO.P,"U6","A1","VCC"*%
X145225000Y-84953500D03*
D13*
%TO.P,"U6","A3","VSS"*%
X144825000Y-84953500D03*
%TO.P,"U6","B2","SDA"*%
X145025000Y-85300000D03*
%TO.P,"U6","C1","~{WC}"*%
X145225000Y-85646500D03*
%TO.P,"U6","C3","SCL"*%
X144825000Y-85646500D03*
%TD*%
D10*
%TO.C,"C25"*%
%TO.CFtp,"C_0201_0603Metric"*%
%TO.CVal,"0.1uF"*%
%TO.CLbN,"Capacitor_SMD"*%
%TO.CMnt,SMD*%
%TO.CRot,0*%
X146425000Y-85250000D03*
D11*
X147124999Y-85599999D02*
X145725001Y-85599999D01*
X145725001Y-84900001D01*
X147124999Y-84900001D01*
X147124999Y-85599999D01*
D12*
%TO.P,"C25","1"*%
X146745000Y-85250000D03*
D13*
%TO.P,"C25","2"*%
X146105000Y-85250000D03*
%TD*%
D10*
%TO.C,"R10"*%
%TO.CFtp,"R_0201_0603Metric"*%
%TO.CVal,"10k"*%
%TO.CLbN,"Resistor_SMD"*%
%TO.CMnt,SMD*%
%TO.CRot,90*%
X138548000Y-93921000D03*
D11*
X138897999Y-94620999D02*
X138198001Y-94620999D01*
X138198001Y-93221001D01*
X138897999Y-93221001D01*
X138897999Y-94620999D01*
D12*
%TO.P,"R10","1"*%
X138548000Y-93601000D03*
D13*
%TO.P,"R10","2"*%
X138548000Y-94241000D03*
%TD*%
D10*
%TO.C,"U2"*%
%TO.CFtp,"ONSEMI_567JZ_WLCSP4-0.64x0.64"*%
%TO.CVal,"NCP163AFCT180T2G"*%
%TO.CLbN,"jonnew"*%
%TO.CMnt,SMD*%
%TO.CRot,90*%
X139025000Y-91100000D03*
D11*
X139374999Y-91449999D02*
X138675001Y-91449999D01*
X138675001Y-90750001D01*
X139374999Y-90750001D01*
X139374999Y-91449999D01*
D12*
%TO.P,"U2","A1","VIN"*%
X138850000Y-90925000D03*
D13*
%TO.P,"U2","A2","VOUT"*%
X138850000Y-91275000D03*
%TO.P,"U2","B1","EN"*%
X139200000Y-90925000D03*
%TO.P,"U2","B2","GND"*%
X139200000Y-91275000D03*
%TD*%
D10*
%TO.C,"R6"*%
%TO.CFtp,"R_0201_0603Metric"*%
%TO.CVal,"10k"*%
%TO.CLbN,"Resistor_SMD"*%
%TO.CMnt,SMD*%
%TO.CRot,180*%
X138350000Y-87130000D03*
D11*
X139049999Y-87479999D02*
X137650001Y-87479999D01*
X137650001Y-86780001D01*
X139049999Y-86780001D01*
X139049999Y-87479999D01*
D12*
%TO.P,"R6","1"*%
X138030000Y-87130000D03*
D13*
%TO.P,"R6","2"*%
X138670000Y-87130000D03*
%TD*%
D10*
%TO.C,"C28"*%
%TO.CFtp,"C_0201_0603Metric"*%
%TO.CVal,"0.1uF"*%
%TO.CLbN,"Capacitor_SMD"*%
%TO.CMnt,SMD*%
%TO.CRot,0*%
X140170000Y-91110000D03*
D11*
X140869999Y-91459999D02*
X139470001Y-91459999D01*
X139470001Y-90760001D01*
X140869999Y-90760001D01*
X140869999Y-91459999D01*
D12*
%TO.P,"C28","1"*%
X140490000Y-91110000D03*
D13*
%TO.P,"C28","2"*%
X139850000Y-91110000D03*
%TD*%
D10*
%TO.C,"C12"*%
%TO.CFtp,"C_0402_1005Metric"*%
%TO.CVal,"10uF"*%
%TO.CLbN,"Capacitor_SMD"*%
%TO.CMnt,SMD*%
%TO.CRot,-90*%
X141800000Y-84930000D03*
D11*
X142259999Y-85839999D02*
X141340001Y-85839999D01*
X141340001Y-84020001D01*
X142259999Y-84020001D01*
X142259999Y-85839999D01*
D12*
%TO.P,"C12","1"*%
X141800000Y-85410000D03*
D13*
%TO.P,"C12","2"*%
X141800000Y-84450000D03*
%TD*%
D10*
%TO.C,"C11"*%
%TO.CFtp,"C_0201_0603Metric"*%
%TO.CVal,"0.1uF"*%
%TO.CLbN,"Capacitor_SMD"*%
%TO.CMnt,SMD*%
%TO.CRot,-90*%
X143325000Y-85200000D03*
D11*
X143674999Y-85899999D02*
X142975001Y-85899999D01*
X142975001Y-84500001D01*
X143674999Y-84500001D01*
X143674999Y-85899999D01*
D12*
%TO.P,"C11","1"*%
X143325000Y-85520000D03*
D13*
%TO.P,"C11","2"*%
X143325000Y-84880000D03*
%TD*%
D10*
%TO.C,"L3"*%
%TO.CFtp,"L_0201_0603Metric"*%
%TO.CVal,"BLF03RD501GZED"*%
%TO.CLbN,"Inductor_SMD"*%
%TO.CMnt,SMD*%
%TO.CRot,90*%
X140984000Y-84844000D03*
D11*
X141333999Y-85543999D02*
X140634001Y-85543999D01*
X140634001Y-84144001D01*
X141333999Y-84144001D01*
X141333999Y-85543999D01*
D12*
%TO.P,"L3","1","1"*%
X140984000Y-84524000D03*
D13*
%TO.P,"L3","2","2"*%
X140984000Y-85164000D03*
%TD*%
D10*
%TO.C,"C4"*%
%TO.CFtp,"C_0201_0603Metric"*%
%TO.CVal,"1uF"*%
%TO.CLbN,"Capacitor_SMD"*%
%TO.CMnt,SMD*%
%TO.CRot,90*%
X138553000Y-92519000D03*
D11*
X138902999Y-93218999D02*
X138203001Y-93218999D01*
X138203001Y-91819001D01*
X138902999Y-91819001D01*
X138902999Y-93218999D01*
D12*
%TO.P,"C4","1"*%
X138553000Y-92199000D03*
D13*
%TO.P,"C4","2"*%
X138553000Y-92839000D03*
%TD*%
D10*
%TO.C,"R13"*%
%TO.CFtp,"R_0201_0603Metric"*%
%TO.CVal,"10"*%
%TO.CLbN,"Resistor_SMD"*%
%TO.CMnt,SMD*%
%TO.CRot,0*%
X140254000Y-89681000D03*
D11*
X140953999Y-90030999D02*
X139554001Y-90030999D01*
X139554001Y-89331001D01*
X140953999Y-89331001D01*
X140953999Y-90030999D01*
D12*
%TO.P,"R13","1"*%
X140574000Y-89681000D03*
D13*
%TO.P,"R13","2"*%
X139934000Y-89681000D03*
%TD*%
D10*
%TO.C,"C21"*%
%TO.CFtp,"C_0201_0603Metric"*%
%TO.CVal,"1uF"*%
%TO.CLbN,"Capacitor_SMD"*%
%TO.CMnt,SMD*%
%TO.CRot,180*%
X139935000Y-87130000D03*
D11*
X140634999Y-87479999D02*
X139235001Y-87479999D01*
X139235001Y-86780001D01*
X140634999Y-86780001D01*
X140634999Y-87479999D01*
D12*
%TO.P,"C21","1"*%
X139615000Y-87130000D03*
D13*
%TO.P,"C21","2"*%
X140255000Y-87130000D03*
%TD*%
D10*
%TO.C,"U5"*%
%TO.CFtp,"MICROCHIP_VFLGA4-2.0x1.6"*%
%TO.CVal,"ECS-2016MV-480-CN-TR"*%
%TO.CLbN,"jonnew"*%
%TO.CMnt,SMD*%
%TO.CRot,90*%
X139860000Y-88430000D03*
D11*
X140959999Y-89329999D02*
X138760001Y-89329999D01*
X138760001Y-87530001D01*
X140959999Y-87530001D01*
X140959999Y-89329999D01*
D12*
%TO.P,"U5","1","EN"*%
X139135000Y-87955000D03*
D13*
%TO.P,"U5","2","GND"*%
X140635000Y-87955000D03*
%TO.P,"U5","3","OUT"*%
X140635000Y-88905000D03*
%TO.P,"U5","4","VCC"*%
X139085000Y-88905000D03*
%TD*%
D10*
%TO.C,"C27"*%
%TO.CFtp,"C_0201_0603Metric"*%
%TO.CVal,"0.1uF"*%
%TO.CLbN,"Capacitor_SMD"*%
%TO.CMnt,SMD*%
%TO.CRot,-90*%
X139034000Y-90032000D03*
D11*
X139383999Y-90731999D02*
X138684001Y-90731999D01*
X138684001Y-89332001D01*
X139383999Y-89332001D01*
X139383999Y-90731999D01*
D12*
%TO.P,"C27","1"*%
X139034000Y-90352000D03*
D13*
%TO.P,"C27","2"*%
X139034000Y-89712000D03*
%TD*%
D10*
%TO.C,"C24"*%
%TO.CFtp,"C_0201_0603Metric"*%
%TO.CVal,"27pF"*%
%TO.CLbN,"Capacitor_SMD"*%
%TO.CMnt,SMD*%
%TO.CRot,0*%
X140256000Y-90381000D03*
D11*
X140955999Y-90730999D02*
X139556001Y-90730999D01*
X139556001Y-90031001D01*
X140955999Y-90031001D01*
X140955999Y-90730999D01*
D12*
%TO.P,"C24","1"*%
X140576000Y-90381000D03*
D13*
%TO.P,"C24","2"*%
X139936000Y-90381000D03*
%TD*%
D10*
%TO.C,"R4"*%
%TO.CFtp,"R_0201_0603Metric"*%
%TO.CVal,"2k"*%
%TO.CLbN,"Resistor_SMD"*%
%TO.CMnt,SMD*%
%TO.CRot,180*%
X142960000Y-84110000D03*
D11*
X143659999Y-84459999D02*
X142260001Y-84459999D01*
X142260001Y-83760001D01*
X143659999Y-83760001D01*
X143659999Y-84459999D01*
D12*
%TO.P,"R4","1"*%
X142640000Y-84110000D03*
D13*
%TO.P,"R4","2"*%
X143280000Y-84110000D03*
%TD*%
D10*
%TO.C,"C5"*%
%TO.CFtp,"C_0201_0603Metric"*%
%TO.CVal,"1uF"*%
%TO.CLbN,"Capacitor_SMD"*%
%TO.CMnt,SMD*%
%TO.CRot,90*%
X138283000Y-91088000D03*
D11*
X138632999Y-91787999D02*
X137933001Y-91787999D01*
X137933001Y-90388001D01*
X138632999Y-90388001D01*
X138632999Y-91787999D01*
D12*
%TO.P,"C5","1"*%
X138283000Y-90768000D03*
D13*
%TO.P,"C5","2"*%
X138283000Y-91408000D03*
%TD*%
D10*
%TO.C,"C26"*%
%TO.CFtp,"C_0201_0603Metric"*%
%TO.CVal,"0.1uF"*%
%TO.CLbN,"Capacitor_SMD"*%
%TO.CMnt,SMD*%
%TO.CRot,90*%
X138300000Y-89670000D03*
D11*
X138649999Y-90369999D02*
X137950001Y-90369999D01*
X137950001Y-88970001D01*
X138649999Y-88970001D01*
X138649999Y-90369999D01*
D12*
%TO.P,"C26","1"*%
X138300000Y-89350000D03*
D13*
%TO.P,"C26","2"*%
X138300000Y-89990000D03*
%TD*%
D10*
%TO.C,"C10"*%
%TO.CFtp,"C_0201_0603Metric"*%
%TO.CVal,"10nF"*%
%TO.CLbN,"Capacitor_SMD"*%
%TO.CMnt,SMD*%
%TO.CRot,-90*%
X142625000Y-85175000D03*
D11*
X142974999Y-85874999D02*
X142275001Y-85874999D01*
X142275001Y-84475001D01*
X142974999Y-84475001D01*
X142974999Y-85874999D01*
D12*
%TO.P,"C10","1"*%
X142625000Y-85495000D03*
D13*
%TO.P,"C10","2"*%
X142625000Y-84855000D03*
%TD*%
D10*
%TO.C,"U3"*%
%TO.CFtp,"TI_RTV0032A"*%
%TO.CVal,"DS90UB933TRTVTQ1"*%
%TO.CLbN,"jonnew"*%
%TO.CMnt,SMD*%
%TO.CRot,180*%
X143925000Y-88800000D03*
D11*
X146824999Y-91699999D02*
X141025001Y-91699999D01*
X141025001Y-85900001D01*
X146824999Y-85900001D01*
X146824999Y-91699999D01*
D12*
%TO.P,"U3","1","HSYNC"*%
X141525000Y-90550000D03*
D13*
%TO.P,"U3","2","VSYNC"*%
X141525000Y-90050000D03*
%TO.P,"U3","3","PCLK"*%
X141525000Y-89550000D03*
%TO.P,"U3","4","SCL"*%
X141525000Y-89050000D03*
%TO.P,"U3","5","SDA"*%
X141525000Y-88550000D03*
%TO.P,"U3","6","ID[X]"*%
X141525000Y-88050000D03*
%TO.P,"U3","7","RES"*%
X141525000Y-87550000D03*
%TO.P,"U3","8","MODE"*%
X141525000Y-87050000D03*
%TO.P,"U3","9","PDB"*%
X142175000Y-86400000D03*
%TO.P,"U3","10","VDDPLL"*%
X142675000Y-86400000D03*
%TO.P,"U3","11","VDDT"*%
X143175000Y-86400000D03*
%TO.P,"U3","12","DOUTN"*%
X143675000Y-86400000D03*
%TO.P,"U3","13","DOUTP"*%
X144175000Y-86400000D03*
%TO.P,"U3","14","VDDCML"*%
X144675000Y-86400000D03*
%TO.P,"U3","15","GPIO0"*%
X145175000Y-86400000D03*
%TO.P,"U3","16","GPIO1"*%
X145675000Y-86400000D03*
%TO.P,"U3","17","GPIO2/CLK0"*%
X146325000Y-87050000D03*
%TO.P,"U3","18","GPIO3/CLKIN"*%
X146325000Y-87550000D03*
%TO.P,"U3","19","DIN_0"*%
X146325000Y-88050000D03*
%TO.P,"U3","20","DIN_1"*%
X146325000Y-88550000D03*
%TO.P,"U3","21","DIN_2"*%
X146325000Y-89050000D03*
%TO.P,"U3","22","DIN_3"*%
X146325000Y-89550001D03*
%TO.P,"U3","23","DIN_4"*%
X146325000Y-90050000D03*
%TO.P,"U3","24","DIN_5"*%
X146325000Y-90550000D03*
%TO.P,"U3","25","VDDIO"*%
X145675000Y-91200000D03*
%TO.P,"U3","26","DIN_6"*%
X145175000Y-91200000D03*
%TO.P,"U3","27","DIN_7"*%
X144675000Y-91200000D03*
%TO.P,"U3","28","VDDD"*%
X144175000Y-91200000D03*
%TO.P,"U3","29","DIN_8"*%
X143675000Y-91200000D03*
%TO.P,"U3","30","DIN_9"*%
X143175000Y-91200000D03*
%TO.P,"U3","31","DIN_10"*%
X142675000Y-91200000D03*
%TO.P,"U3","32","DIN_11"*%
X142175000Y-91200000D03*
%TO.P,"U3","33","GND(DAP)"*%
X143925000Y-88800000D03*
%TD*%
D10*
%TO.C,"L1"*%
%TO.CFtp,"L_1210_3225Metric"*%
%TO.CVal,"CBC3225T101MR"*%
%TO.CLbN,"Inductor_SMD"*%
%TO.CMnt,SMD*%
%TO.CRot,-90*%
X139050000Y-84460000D03*
D11*
X140629999Y-86739999D02*
X137470001Y-86739999D01*
X137470001Y-82180001D01*
X140629999Y-82180001D01*
X140629999Y-86739999D01*
D12*
%TO.P,"L1","1","1"*%
X139050000Y-85860000D03*
D13*
%TO.P,"L1","2","2"*%
X139050000Y-83060000D03*
%TD*%
D10*
%TO.C,"C23"*%
%TO.CFtp,"C_0201_0603Metric"*%
%TO.CVal,"10nF"*%
%TO.CLbN,"Capacitor_SMD"*%
%TO.CMnt,SMD*%
%TO.CRot,-90*%
X138300000Y-88250000D03*
D11*
X138649999Y-88949999D02*
X137950001Y-88949999D01*
X137950001Y-87550001D01*
X138649999Y-87550001D01*
X138649999Y-88949999D01*
D12*
%TO.P,"C23","1"*%
X138300000Y-88570000D03*
D13*
%TO.P,"C23","2"*%
X138300000Y-87930000D03*
%TD*%
D10*
%TO.C,"R12"*%
%TO.CFtp,"R_0201_0603Metric"*%
%TO.CVal,"10k"*%
%TO.CLbN,"Resistor_SMD"*%
%TO.CMnt,SMD*%
%TO.CRot,90*%
X146410000Y-92636000D03*
D11*
X146759999Y-93335999D02*
X146060001Y-93335999D01*
X146060001Y-91936001D01*
X146759999Y-91936001D01*
X146759999Y-93335999D01*
D12*
%TO.P,"R12","1"*%
X146410000Y-92316000D03*
D13*
%TO.P,"R12","2"*%
X146410000Y-92956000D03*
%TD*%
D10*
%TO.C,"C20"*%
%TO.CFtp,"C_0201_0603Metric"*%
%TO.CVal,"47nF"*%
%TO.CLbN,"Capacitor_SMD"*%
%TO.CMnt,SMD*%
%TO.CRot,-90*%
X144040000Y-85190000D03*
D11*
X144389999Y-85889999D02*
X143690001Y-85889999D01*
X143690001Y-84490001D01*
X144389999Y-84490001D01*
X144389999Y-85889999D01*
D12*
%TO.P,"C20","1"*%
X144040000Y-85510000D03*
D13*
%TO.P,"C20","2"*%
X144040000Y-84870000D03*
%TD*%
D10*
%TO.C,"J3"*%
%TO.CFtp,"HIROSE_FH35C-17S-0.3SHW(99)"*%
%TO.CVal,"FH35C-17S-0.3SHW(99)"*%
%TO.CLbN,"open-ephys"*%
%TO.CMnt,SMD*%
%TO.CRot,0*%
X142425000Y-94270000D03*
D11*
X145874999Y-96169999D02*
X138975001Y-96169999D01*
X138975001Y-91744601D01*
X145874999Y-91744601D01*
X145874999Y-96169999D01*
D12*
%TO.P,"J3","1","Pin_1"*%
X140025000Y-95670000D03*
D13*
%TO.P,"J3","2","Pin_2"*%
X140325000Y-92795000D03*
%TO.P,"J3","3","Pin_3"*%
X140625000Y-95670000D03*
%TO.P,"J3","4","Pin_4"*%
X140925000Y-92795000D03*
%TO.P,"J3","5","Pin_5"*%
X141225000Y-95670000D03*
%TO.P,"J3","6","Pin_6"*%
X141525000Y-92795000D03*
%TO.P,"J3","7","Pin_7"*%
X141825000Y-95670000D03*
%TO.P,"J3","8","Pin_8"*%
X142125000Y-92795000D03*
%TO.P,"J3","9","Pin_9"*%
X142425000Y-95670000D03*
%TO.P,"J3","10","Pin_10"*%
X142725000Y-92795000D03*
%TO.P,"J3","11","Pin_11"*%
X143025000Y-95670000D03*
%TO.P,"J3","12","Pin_12"*%
X143325000Y-92795000D03*
%TO.P,"J3","13","Pin_13"*%
X143625000Y-95670000D03*
%TO.P,"J3","14","Pin_14"*%
X143925000Y-92795000D03*
%TO.P,"J3","15","Pin_15"*%
X144225000Y-95670000D03*
%TO.P,"J3","16","Pin_16"*%
X144525000Y-92795000D03*
%TO.P,"J3","17","Pin_17"*%
X144825000Y-95670000D03*
%TO.P,"J3","MP","MountPin"*%
X145525000Y-95395000D03*
X139325000Y-95395000D03*
%TD*%
M02*
