%TF.GenerationSoftware,KiCad,Pcbnew,(7.0.0)*%
%TF.CreationDate,2023-09-15T12:14:05-04:00*%
%TF.ProjectId,headstage-neuropix2e,68656164-7374-4616-9765-2d6e6575726f,A*%
%TF.SameCoordinates,Original*%
%TF.FileFunction,Copper,L4,Bot*%
%TF.FilePolarity,Positive*%
%FSLAX46Y46*%
G04 Gerber Fmt 4.6, Leading zero omitted, Abs format (unit mm)*
G04 Created by KiCad (PCBNEW (7.0.0)) date 2023-09-15 12:14:05*
%MOMM*%
%LPD*%
G01*
G04 APERTURE LIST*
G04 Aperture macros list*
%AMRoundRect*
0 Rectangle with rounded corners*
0 $1 Rounding radius*
0 $2 $3 $4 $5 $6 $7 $8 $9 X,Y pos of 4 corners*
0 Add a 4 corners polygon primitive as box body*
4,1,4,$2,$3,$4,$5,$6,$7,$8,$9,$2,$3,0*
0 Add four circle primitives for the rounded corners*
1,1,$1+$1,$2,$3*
1,1,$1+$1,$4,$5*
1,1,$1+$1,$6,$7*
1,1,$1+$1,$8,$9*
0 Add four rect primitives between the rounded corners*
20,1,$1+$1,$2,$3,$4,$5,0*
20,1,$1+$1,$4,$5,$6,$7,0*
20,1,$1+$1,$6,$7,$8,$9,0*
20,1,$1+$1,$8,$9,$2,$3,0*%
%AMFreePoly0*
4,1,6,0.350000,-0.250000,-0.225000,-0.250000,-0.350000,-0.125000,-0.350000,0.250000,0.350000,0.250000,0.350000,-0.250000,0.350000,-0.250000,$1*%
G04 Aperture macros list end*
%TA.AperFunction,ComponentPad*%
%ADD10O,1.400000X2.600000*%
%TD*%
%TA.AperFunction,ComponentPad*%
%ADD11RoundRect,0.250000X-0.600000X0.600000X-0.600000X-0.600000X0.600000X-0.600000X0.600000X0.600000X0*%
%TD*%
%TA.AperFunction,ComponentPad*%
%ADD12C,1.700000*%
%TD*%
%TA.AperFunction,SMDPad,CuDef*%
%ADD13RoundRect,0.218750X0.218750X0.381250X-0.218750X0.381250X-0.218750X-0.381250X0.218750X-0.381250X0*%
%TD*%
%TA.AperFunction,SMDPad,CuDef*%
%ADD14C,0.216000*%
%TD*%
%TA.AperFunction,SMDPad,CuDef*%
%ADD15RoundRect,0.100000X0.130000X0.100000X-0.130000X0.100000X-0.130000X-0.100000X0.130000X-0.100000X0*%
%TD*%
%TA.AperFunction,SMDPad,CuDef*%
%ADD16RoundRect,0.100000X-0.100000X0.130000X-0.100000X-0.130000X0.100000X-0.130000X0.100000X0.130000X0*%
%TD*%
%TA.AperFunction,SMDPad,CuDef*%
%ADD17C,0.200000*%
%TD*%
%TA.AperFunction,SMDPad,CuDef*%
%ADD18RoundRect,0.100000X-0.130000X-0.100000X0.130000X-0.100000X0.130000X0.100000X-0.130000X0.100000X0*%
%TD*%
%TA.AperFunction,SMDPad,CuDef*%
%ADD19RoundRect,0.140000X0.170000X-0.140000X0.170000X0.140000X-0.170000X0.140000X-0.170000X-0.140000X0*%
%TD*%
%TA.AperFunction,SMDPad,CuDef*%
%ADD20RoundRect,0.100000X0.100000X-0.130000X0.100000X0.130000X-0.100000X0.130000X-0.100000X-0.130000X0*%
%TD*%
%TA.AperFunction,SMDPad,CuDef*%
%ADD21FreePoly0,270.000000*%
%TD*%
%TA.AperFunction,SMDPad,CuDef*%
%ADD22R,0.400000X0.700000*%
%TD*%
%TA.AperFunction,SMDPad,CuDef*%
%ADD23RoundRect,0.036000X-0.264000X0.084000X-0.264000X-0.084000X0.264000X-0.084000X0.264000X0.084000X0*%
%TD*%
%TA.AperFunction,SMDPad,CuDef*%
%ADD24RoundRect,0.036000X0.084000X0.264000X-0.084000X0.264000X-0.084000X-0.264000X0.084000X-0.264000X0*%
%TD*%
%TA.AperFunction,SMDPad,CuDef*%
%ADD25RoundRect,0.036000X-0.084000X-0.264000X0.084000X-0.264000X0.084000X0.264000X-0.084000X0.264000X0*%
%TD*%
%TA.AperFunction,SMDPad,CuDef*%
%ADD26RoundRect,0.062000X-1.488000X-1.488000X1.488000X-1.488000X1.488000X1.488000X-1.488000X1.488000X0*%
%TD*%
%TA.AperFunction,SMDPad,CuDef*%
%ADD27RoundRect,0.250000X1.075000X-0.375000X1.075000X0.375000X-1.075000X0.375000X-1.075000X-0.375000X0*%
%TD*%
%TA.AperFunction,SMDPad,CuDef*%
%ADD28R,0.300000X0.800000*%
%TD*%
%TA.AperFunction,SMDPad,CuDef*%
%ADD29R,0.300000X0.650000*%
%TD*%
%TA.AperFunction,SMDPad,CuDef*%
%ADD30R,0.400000X0.950000*%
%TD*%
%TA.AperFunction,ViaPad*%
%ADD31C,0.250000*%
%TD*%
%TA.AperFunction,ViaPad*%
%ADD32C,0.300000*%
%TD*%
%TA.AperFunction,Conductor*%
%ADD33C,0.200000*%
%TD*%
%TA.AperFunction,Conductor*%
%ADD34C,0.100000*%
%TD*%
%TA.AperFunction,Conductor*%
%ADD35C,0.172000*%
%TD*%
%TA.AperFunction,Conductor*%
%ADD36C,0.300000*%
%TD*%
%TA.AperFunction,Conductor*%
%ADD37C,0.150000*%
%TD*%
G04 APERTURE END LIST*
D10*
%TO.P,TP2,1,1*%
%TO.N,/Neuropixels 2.0/NP_{TP0}*%
X146574999Y-83299999D03*
%TD*%
%TO.P,TP1,1,1*%
%TO.N,GND*%
X144954999Y-83299999D03*
%TD*%
D11*
%TO.P,J4,1,Pin_1*%
%TO.N,+4V*%
X123080000Y-76447500D03*
D12*
%TO.P,J4,2,Pin_2*%
X123080000Y-78987500D03*
%TO.P,J4,3,Pin_3*%
%TO.N,/Neuropixels 2.0/SCL*%
X120540000Y-76447500D03*
%TO.P,J4,4,Pin_4*%
X120540000Y-78987500D03*
%TO.P,J4,5,Pin_5*%
%TO.N,/Neuropixels 2.0/SDA*%
X118000000Y-76447500D03*
%TO.P,J4,6,Pin_6*%
X118000000Y-78987500D03*
%TO.P,J4,7,Pin_7*%
%TO.N,GND*%
X115460000Y-76447500D03*
%TO.P,J4,8,Pin_8*%
X115460000Y-78987500D03*
%TO.P,J4,9,Pin_9*%
X112920000Y-76447500D03*
%TO.P,J4,10,Pin_10*%
X112920000Y-78987500D03*
%TD*%
D13*
%TO.P,L2,1,1*%
%TO.N,/DC Tap & Regulation/RF+DC*%
X143450000Y-82900000D03*
%TO.P,L2,2,2*%
%TO.N,Net-(L1-Pad2)*%
X141325000Y-82900000D03*
%TD*%
D14*
%TO.P,U6,A1,VCC*%
%TO.N,+1V8*%
X145225000Y-84953500D03*
%TO.P,U6,A3,VSS*%
%TO.N,GND*%
X144825000Y-84953500D03*
%TO.P,U6,B2,SDA*%
%TO.N,/Neuropixels 2.0/SDA*%
X145025000Y-85300000D03*
%TO.P,U6,C1,~{WC}*%
%TO.N,GND*%
X145225000Y-85646500D03*
%TO.P,U6,C3,SCL*%
%TO.N,/Neuropixels 2.0/SCL*%
X144825000Y-85646500D03*
%TD*%
D15*
%TO.P,C25,1*%
%TO.N,GND*%
X146745000Y-85250000D03*
%TO.P,C25,2*%
%TO.N,+1V8*%
X146105000Y-85250000D03*
%TD*%
D16*
%TO.P,R10,1*%
%TO.N,+1.8VA*%
X138548000Y-93601000D03*
%TO.P,R10,2*%
%TO.N,/Neuropixels 2.0/SCL_{B}*%
X138548000Y-94241000D03*
%TD*%
D17*
%TO.P,U2,A1,VIN*%
%TO.N,+2V5*%
X138850000Y-90925000D03*
%TO.P,U2,A2,VOUT*%
%TO.N,+1.8VA*%
X138850000Y-91275000D03*
%TO.P,U2,B1,EN*%
%TO.N,/DC Tap & Regulation/VDDA_{EN}*%
X139200000Y-90925000D03*
%TO.P,U2,B2,GND*%
%TO.N,GND*%
X139200000Y-91275000D03*
%TD*%
D18*
%TO.P,R6,1*%
%TO.N,+1V8*%
X138030000Y-87130000D03*
%TO.P,R6,2*%
%TO.N,Net-(U3-PDB)*%
X138670000Y-87130000D03*
%TD*%
D15*
%TO.P,C28,1*%
%TO.N,GND*%
X140490000Y-91110000D03*
%TO.P,C28,2*%
%TO.N,Net-(U7-CAP)*%
X139850000Y-91110000D03*
%TD*%
D19*
%TO.P,C12,1*%
%TO.N,Net-(U3-VDDPLL)*%
X141800000Y-85410000D03*
%TO.P,C12,2*%
%TO.N,GND*%
X141800000Y-84450000D03*
%TD*%
D20*
%TO.P,C11,1*%
%TO.N,Net-(U3-VDDPLL)*%
X143325000Y-85520000D03*
%TO.P,C11,2*%
%TO.N,GND*%
X143325000Y-84880000D03*
%TD*%
D16*
%TO.P,L3,1,1*%
%TO.N,Net-(U3-VDDPLL)*%
X140984000Y-84524000D03*
%TO.P,L3,2,2*%
%TO.N,+1V8*%
X140984000Y-85164000D03*
%TD*%
%TO.P,C4,1*%
%TO.N,+1.8VA*%
X138553000Y-92199000D03*
%TO.P,C4,2*%
%TO.N,GND*%
X138553000Y-92839000D03*
%TD*%
D15*
%TO.P,R13,1*%
%TO.N,Net-(U5-OUT)*%
X140574000Y-89681000D03*
%TO.P,R13,2*%
%TO.N,/Neuropixels 2.0/PCLK*%
X139934000Y-89681000D03*
%TD*%
D18*
%TO.P,C21,1*%
%TO.N,Net-(U3-PDB)*%
X139615000Y-87130000D03*
%TO.P,C21,2*%
%TO.N,GND*%
X140255000Y-87130000D03*
%TD*%
D21*
%TO.P,U5,1,EN*%
%TO.N,+1V8*%
X139135000Y-87955000D03*
D22*
%TO.P,U5,2,GND*%
%TO.N,GND*%
X140634999Y-87954999D03*
%TO.P,U5,3,OUT*%
%TO.N,Net-(U5-OUT)*%
X140634999Y-88904999D03*
%TO.P,U5,4,VCC*%
%TO.N,+1V8*%
X139084999Y-88904999D03*
%TD*%
D20*
%TO.P,C27,1*%
%TO.N,GND*%
X139034000Y-90352000D03*
%TO.P,C27,2*%
%TO.N,+1V8*%
X139034000Y-89712000D03*
%TD*%
D15*
%TO.P,C24,1*%
%TO.N,/Neuropixels 2.0/PCLK*%
X140576000Y-90381000D03*
%TO.P,C24,2*%
%TO.N,GND*%
X139936000Y-90381000D03*
%TD*%
D18*
%TO.P,R4,1*%
%TO.N,Net-(L1-Pad2)*%
X142640000Y-84110000D03*
%TO.P,R4,2*%
%TO.N,/DC Tap & Regulation/RF+DC*%
X143280000Y-84110000D03*
%TD*%
D16*
%TO.P,C5,1*%
%TO.N,+2V5*%
X138283000Y-90768000D03*
%TO.P,C5,2*%
%TO.N,GND*%
X138283000Y-91408000D03*
%TD*%
%TO.P,C26,1*%
%TO.N,GND*%
X138300000Y-89350000D03*
%TO.P,C26,2*%
%TO.N,+2V5*%
X138300000Y-89990000D03*
%TD*%
D20*
%TO.P,C10,1*%
%TO.N,Net-(U3-VDDPLL)*%
X142625000Y-85495000D03*
%TO.P,C10,2*%
%TO.N,GND*%
X142625000Y-84855000D03*
%TD*%
D23*
%TO.P,U3,1,HSYNC*%
%TO.N,unconnected-(U3-HSYNC-Pad1)*%
X141525000Y-90550000D03*
%TO.P,U3,2,VSYNC*%
%TO.N,unconnected-(U3-VSYNC-Pad2)*%
X141525000Y-90050000D03*
%TO.P,U3,3,PCLK*%
%TO.N,/Neuropixels 2.0/PCLK*%
X141525000Y-89550000D03*
%TO.P,U3,4,SCL*%
%TO.N,/Neuropixels 2.0/SCL*%
X141525000Y-89050000D03*
%TO.P,U3,5,SDA*%
%TO.N,/Neuropixels 2.0/SDA*%
X141525000Y-88550000D03*
%TO.P,U3,6,ID[X]*%
%TO.N,GND*%
X141525000Y-88050000D03*
%TO.P,U3,7,RES*%
X141525000Y-87550000D03*
%TO.P,U3,8,MODE*%
%TO.N,Net-(U3-MODE)*%
X141525000Y-87050000D03*
D24*
%TO.P,U3,9,PDB*%
%TO.N,Net-(U3-PDB)*%
X142175000Y-86400000D03*
%TO.P,U3,10,VDDPLL*%
%TO.N,Net-(U3-VDDPLL)*%
X142675000Y-86400000D03*
%TO.P,U3,11,VDDT*%
%TO.N,+1V8*%
X143175000Y-86400000D03*
%TO.P,U3,12,DOUTN*%
%TO.N,Net-(U3-DOUTN)*%
X143675000Y-86400000D03*
%TO.P,U3,13,DOUTP*%
%TO.N,Net-(U3-DOUTP)*%
X144175000Y-86400000D03*
%TO.P,U3,14,VDDCML*%
%TO.N,Net-(U3-VDDCML)*%
X144675000Y-86400000D03*
D25*
%TO.P,U3,15,GPIO0*%
%TO.N,/DC Tap & Regulation/VDDA_{EN}*%
X145175000Y-86400000D03*
D24*
%TO.P,U3,16,GPIO1*%
%TO.N,/Neuropixels 2.0/NP_{~{MUXRST}}*%
X145675000Y-86400000D03*
D23*
%TO.P,U3,17,GPIO2/CLK0*%
%TO.N,/Neuropixels 2.0/NP_{Sel1}*%
X146325000Y-87050000D03*
%TO.P,U3,18,GPIO3/CLKIN*%
%TO.N,/Neuropixels 2.0/NP_{Sel0}*%
X146325000Y-87550000D03*
%TO.P,U3,19,DIN_0*%
%TO.N,unconnected-(U3-DIN_0-Pad19)*%
X146325000Y-88050000D03*
%TO.P,U3,20,DIN_1*%
%TO.N,unconnected-(U3-DIN_1-Pad20)*%
X146325000Y-88550000D03*
%TO.P,U3,21,DIN_2*%
%TO.N,unconnected-(U3-DIN_2-Pad21)*%
X146325000Y-89050000D03*
%TO.P,U3,22,DIN_3*%
%TO.N,unconnected-(U3-DIN_3-Pad22)*%
X146325000Y-89550001D03*
%TO.P,U3,23,DIN_4*%
%TO.N,unconnected-(U3-DIN_4-Pad23)*%
X146325000Y-90050000D03*
%TO.P,U3,24,DIN_5*%
%TO.N,unconnected-(U3-DIN_5-Pad24)*%
X146325000Y-90550000D03*
D24*
%TO.P,U3,25,VDDIO*%
%TO.N,+1V8*%
X145675000Y-91200000D03*
%TO.P,U3,26,DIN_6*%
%TO.N,/Neuropixels 2.0/D0_{A}*%
X145175000Y-91200000D03*
%TO.P,U3,27,DIN_7*%
%TO.N,/Neuropixels 2.0/D2_{B}*%
X144675000Y-91200000D03*
%TO.P,U3,28,VDDD*%
%TO.N,+1V8*%
X144175000Y-91200000D03*
%TO.P,U3,29,DIN_8*%
%TO.N,/Neuropixels 2.0/D1_{A}*%
X143675000Y-91200000D03*
%TO.P,U3,30,DIN_9*%
%TO.N,/Neuropixels 2.0/D1_{B}*%
X143175000Y-91200000D03*
%TO.P,U3,31,DIN_10*%
%TO.N,/Neuropixels 2.0/D2_{A}*%
X142675000Y-91200000D03*
%TO.P,U3,32,DIN_11*%
%TO.N,/Neuropixels 2.0/D0_{B}*%
X142175000Y-91200000D03*
D26*
%TO.P,U3,33,GND(DAP)*%
%TO.N,GND*%
X143925000Y-88800000D03*
%TD*%
D27*
%TO.P,L1,1,1*%
%TO.N,+4V*%
X139050000Y-85860000D03*
%TO.P,L1,2,2*%
%TO.N,Net-(L1-Pad2)*%
X139050000Y-83060000D03*
%TD*%
D20*
%TO.P,C23,1*%
%TO.N,+1V8*%
X138300000Y-88570000D03*
%TO.P,C23,2*%
%TO.N,GND*%
X138300000Y-87930000D03*
%TD*%
D16*
%TO.P,R12,1*%
%TO.N,+1.8VA*%
X146410000Y-92316000D03*
%TO.P,R12,2*%
%TO.N,/Neuropixels 2.0/SDA_{B}*%
X146410000Y-92956000D03*
%TD*%
D20*
%TO.P,C20,1*%
%TO.N,Net-(U3-DOUTN)*%
X144040000Y-85510000D03*
%TO.P,C20,2*%
%TO.N,/Serializer/Dout-*%
X144040000Y-84870000D03*
%TD*%
D28*
%TO.P,J3,1,Pin_1*%
%TO.N,GND*%
X140024999Y-95669999D03*
D29*
%TO.P,J3,2,Pin_2*%
%TO.N,+1.8VA*%
X140324999Y-92794999D03*
D28*
%TO.P,J3,3,Pin_3*%
X140624999Y-95669999D03*
D29*
%TO.P,J3,4,Pin_4*%
%TO.N,GND*%
X140924999Y-92794999D03*
D28*
%TO.P,J3,5,Pin_5*%
%TO.N,/Neuropixels 2.0/D0_{B}*%
X141224999Y-95669999D03*
D29*
%TO.P,J3,6,Pin_6*%
%TO.N,/Neuropixels 2.0/SCL_{B}*%
X141524999Y-92794999D03*
D28*
%TO.P,J3,7,Pin_7*%
%TO.N,/Neuropixels 2.0/D1_{B}*%
X141824999Y-95669999D03*
D29*
%TO.P,J3,8,Pin_8*%
%TO.N,/Neuropixels 2.0/NP_{~{MUXRST}}*%
X142124999Y-92794999D03*
D28*
%TO.P,J3,9,Pin_9*%
%TO.N,/Neuropixels 2.0/PCLK*%
X142424999Y-95669999D03*
D29*
%TO.P,J3,10,Pin_10*%
%TO.N,GND*%
X142724999Y-92794999D03*
D28*
%TO.P,J3,11,Pin_11*%
%TO.N,/Neuropixels 2.0/D2_{B}*%
X143024999Y-95669999D03*
D29*
%TO.P,J3,12,Pin_12*%
%TO.N,/Neuropixels 2.0/SDA_{B}*%
X143324999Y-92794999D03*
D28*
%TO.P,J3,13,Pin_13*%
%TO.N,/Neuropixels 2.0/NP_{TP0}*%
X143624999Y-95669999D03*
D29*
%TO.P,J3,14,Pin_14*%
%TO.N,GND*%
X143924999Y-92794999D03*
D28*
%TO.P,J3,15,Pin_15*%
%TO.N,/Neuropixels 2.0/NP_{TP1}*%
X144224999Y-95669999D03*
D29*
%TO.P,J3,16,Pin_16*%
%TO.N,+1.8VA*%
X144524999Y-92794999D03*
D28*
%TO.P,J3,17,Pin_17*%
%TO.N,GND*%
X144824999Y-95669999D03*
D30*
%TO.P,J3,MP,MountPin*%
X145524999Y-95394999D03*
X139324999Y-95394999D03*
%TD*%
D31*
%TO.N,/Neuropixels 2.0/NP_{TP1}*%
X144932702Y-95045500D03*
%TO.N,/Neuropixels 2.0/NP_{TP0}*%
X143530000Y-94730000D03*
X140870000Y-95050000D03*
%TO.N,GND*%
X143900000Y-88820000D03*
X139710000Y-94090000D03*
X143180000Y-87550500D03*
X137859766Y-88312000D03*
X142970000Y-89230000D03*
X143240000Y-84960000D03*
X143700000Y-88270000D03*
D32*
X156300000Y-121900000D03*
D31*
X139456000Y-89982000D03*
X141615000Y-84550000D03*
X145392500Y-87608000D03*
D32*
X139900000Y-106500000D03*
D31*
X145400000Y-94480000D03*
X142574999Y-82474998D03*
X139780000Y-95010000D03*
X138325000Y-91389500D03*
X137859766Y-87683520D03*
X146759500Y-86600000D03*
D32*
X135640000Y-73600000D03*
D31*
X141125000Y-92575000D03*
X140175000Y-88450000D03*
X140325000Y-87850000D03*
X144695000Y-90674500D03*
X146370000Y-93950000D03*
X144600000Y-88060000D03*
X138040000Y-93850000D03*
X139025000Y-90250000D03*
X142540000Y-90200000D03*
X139575000Y-88500000D03*
X143150000Y-86930000D03*
X143760500Y-83773729D03*
X141689300Y-83699922D03*
X145074012Y-90250252D03*
X142920000Y-89730000D03*
X139260000Y-91850000D03*
X139936000Y-90381000D03*
X143930000Y-87470000D03*
D32*
X126680000Y-71747500D03*
D31*
X142460000Y-86940000D03*
X144170000Y-93475500D03*
D32*
X156700000Y-69100000D03*
X155800000Y-87500000D03*
D31*
X143810000Y-84430000D03*
X142490000Y-94740000D03*
X142625000Y-84924502D03*
X140255000Y-87130000D03*
D32*
X107600000Y-104500000D03*
D31*
X143150000Y-88280000D03*
D32*
X103100000Y-122100000D03*
D31*
X140995000Y-86674500D03*
X141085700Y-83935000D03*
X139900000Y-89000000D03*
X145430000Y-93200000D03*
X140530000Y-92160000D03*
X142170000Y-89660000D03*
X139170000Y-92620000D03*
X146780000Y-94620000D03*
D32*
X105450000Y-70470000D03*
X145200000Y-72300000D03*
X154200000Y-101500000D03*
X103900000Y-84800000D03*
X130200000Y-99700000D03*
D31*
X138028000Y-92132000D03*
X139803000Y-84064000D03*
X144690000Y-87460000D03*
X139680000Y-93040000D03*
%TO.N,+1V8*%
X138782000Y-88691000D03*
X139435000Y-84190000D03*
X144175000Y-91200000D03*
X145680000Y-91178000D03*
X145930000Y-85130000D03*
X140995000Y-85970000D03*
X143129000Y-86256000D03*
X145699500Y-89260000D03*
X142078000Y-90494000D03*
X145783000Y-90629000D03*
X138833000Y-89686000D03*
X137992123Y-87259500D03*
%TO.N,/Neuropixels 2.0/PCLK*%
X142429000Y-95370000D03*
X140700000Y-90450000D03*
%TO.N,/Neuropixels 2.0/SDA_{A}*%
X141200000Y-92102000D03*
X145699500Y-88312797D03*
%TO.N,+4V*%
X140709307Y-87018774D03*
X139100000Y-86750000D03*
D32*
X120200000Y-94945000D03*
D31*
X138820000Y-85377000D03*
D32*
%TO.N,/Neuropixels 2.0/SCL*%
X118000000Y-97340000D03*
D31*
X142094000Y-89063000D03*
X138758000Y-84425500D03*
X144983802Y-85875370D03*
%TO.N,Net-(U3-VDDCML)*%
X144319823Y-86920000D03*
%TO.N,/Neuropixels 2.0/SCL_{B}*%
X145778000Y-90207000D03*
X141503000Y-93450000D03*
X139079000Y-93710000D03*
X141538529Y-91900000D03*
%TO.N,Net-(L1-Pad2)*%
X138096500Y-84622200D03*
%TO.N,/Neuropixels 2.0/SCL_{A}*%
X143607555Y-92247500D03*
X145348500Y-90574500D03*
%TO.N,/Neuropixels 2.0/D0_{A}*%
X143830000Y-95020000D03*
X145173000Y-92086847D03*
%TO.N,/Neuropixels 2.0/D1_{A}*%
X142827000Y-95023000D03*
X144207478Y-92182320D03*
%TO.N,/Neuropixels 2.0/D2_{A}*%
X142402000Y-92274000D03*
X141690000Y-95045498D03*
%TO.N,/Neuropixels 2.0/D0_{B}*%
X141859248Y-92154005D03*
X141254101Y-94605899D03*
%TO.N,/Neuropixels 2.0/D1_{B}*%
X142089000Y-95049000D03*
X142751237Y-92183561D03*
%TO.N,/Neuropixels 2.0/D2_{B}*%
X143223000Y-95030000D03*
X144667000Y-92117000D03*
%TO.N,/DC Tap & Regulation/RF+DC*%
X143093664Y-84328363D03*
%TO.N,/Neuropixels 2.0/SDA_{B}*%
X145796178Y-87966965D03*
X143477000Y-93794000D03*
X143277000Y-91734000D03*
X146361000Y-93456000D03*
%TO.N,/Neuropixels 2.0/SDA*%
X142130500Y-88552000D03*
X145360000Y-85310000D03*
D32*
X123200000Y-92000000D03*
D31*
X139085000Y-84190000D03*
%TO.N,/DC Tap & Regulation/VDDA_{EN}*%
X139498933Y-90585933D03*
X145073626Y-87014074D03*
%TO.N,/Neuropixels 2.0/NP_{Sel0}*%
X146893000Y-89668000D03*
%TO.N,+2V5*%
X139420000Y-82210500D03*
X140489500Y-91750000D03*
X138602395Y-90609373D03*
X140614119Y-85677500D03*
X140225443Y-84880557D03*
X138184266Y-89804119D03*
%TO.N,Net-(U3-DOUTP)*%
X144330500Y-86147500D03*
%TO.N,Net-(U7-CAP)*%
X139825000Y-91150000D03*
%TO.N,/Neuropixels 2.0/NP_{Sel1}*%
X146666500Y-86126158D03*
X146759500Y-87192000D03*
%TO.N,Net-(U3-MODE)*%
X141525000Y-87050000D03*
%TO.N,+1.8VA*%
X144223000Y-94937000D03*
X144512000Y-93255000D03*
X140325000Y-92795000D03*
X138556000Y-92203000D03*
X138240000Y-93320000D03*
X140400000Y-94410000D03*
X146410000Y-92316000D03*
%TO.N,/Serializer/Dout-*%
X143768354Y-85104613D03*
%TO.N,/Neuropixels 2.0/NP_{~{MUXRST}}*%
X142430000Y-93310000D03*
X144382847Y-91880000D03*
X146003372Y-86234587D03*
%TD*%
D33*
%TO.N,GND*%
X142755000Y-93055000D02*
X143025000Y-93325000D01*
D34*
%TO.N,/Neuropixels 2.0/D0_{B}*%
X141225000Y-94635000D02*
X141225000Y-95670000D01*
X141254101Y-94605899D02*
X141225000Y-94635000D01*
%TO.N,/Neuropixels 2.0/NP_{TP1}*%
X144897202Y-95010000D02*
X144932702Y-95045500D01*
X144890000Y-95010000D02*
X144897202Y-95010000D01*
X144225000Y-95670000D02*
X144225000Y-95420000D01*
X144225000Y-95420000D02*
X144635000Y-95010000D01*
X144635000Y-95010000D02*
X144890000Y-95010000D01*
%TO.N,/Neuropixels 2.0/NP_{TP0}*%
X143530000Y-95130000D02*
X143625000Y-95225000D01*
X143625000Y-95225000D02*
X143625000Y-95670000D01*
X143530000Y-94730000D02*
X143530000Y-95130000D01*
D33*
%TO.N,+1.8VA*%
X140400000Y-95060000D02*
X140625000Y-95285000D01*
X140625000Y-95285000D02*
X140625000Y-95670000D01*
X140400000Y-94410000D02*
X140400000Y-95060000D01*
%TO.N,GND*%
X142755000Y-92825000D02*
X142755000Y-93055000D01*
X142725000Y-92795000D02*
X142755000Y-92825000D01*
X134100000Y-85487157D02*
X134362843Y-85750000D01*
X134362843Y-85750000D02*
X134600000Y-85750000D01*
D34*
X135400000Y-84950000D02*
X134600000Y-85750000D01*
X137575000Y-85829222D02*
X136695778Y-84950000D01*
X136695778Y-84950000D02*
X135400000Y-84950000D01*
X137575000Y-86444000D02*
X137575000Y-85829222D01*
D33*
%TO.N,+1V8*%
X138871000Y-88691000D02*
X139085000Y-88905000D01*
X143780754Y-90624000D02*
X144175000Y-91018246D01*
X141010000Y-85300000D02*
X140980000Y-85270000D01*
X138782000Y-88691000D02*
X138691000Y-88600000D01*
X138691000Y-88600000D02*
X138300000Y-88600000D01*
D35*
X145808500Y-84953500D02*
X146105000Y-85250000D01*
D33*
X142208000Y-90624000D02*
X143780754Y-90624000D01*
D35*
X140671000Y-84961000D02*
X140671000Y-84886293D01*
X140166707Y-84382000D02*
X139627000Y-84382000D01*
D34*
X139135000Y-87955000D02*
X139135000Y-88855000D01*
D35*
X145225000Y-84953500D02*
X145808500Y-84953500D01*
D33*
X141010000Y-85955000D02*
X141010000Y-85300000D01*
X140995000Y-85970000D02*
X141010000Y-85955000D01*
D34*
X137992123Y-87259500D02*
X138030000Y-87221623D01*
D35*
X140671000Y-84886293D02*
X140166707Y-84382000D01*
D33*
X142078000Y-90494000D02*
X142208000Y-90624000D01*
D35*
X140980000Y-85270000D02*
X140671000Y-84961000D01*
D33*
X138782000Y-88691000D02*
X138871000Y-88691000D01*
X144175000Y-91018246D02*
X144175000Y-91200000D01*
D35*
X139627000Y-84382000D02*
X139435000Y-84190000D01*
D34*
X139135000Y-88855000D02*
X139085000Y-88905000D01*
%TO.N,/Neuropixels 2.0/PCLK*%
X140576000Y-90344000D02*
X139902000Y-89670000D01*
X140970000Y-89987000D02*
X140970000Y-89855000D01*
X141275000Y-89550000D02*
X141525000Y-89550000D01*
X140970000Y-89855000D02*
X141275000Y-89550000D01*
X140576000Y-90381000D02*
X140576000Y-90344000D01*
X140576000Y-90381000D02*
X140970000Y-89987000D01*
D33*
%TO.N,Net-(U3-VDDPLL)*%
X141790000Y-85410000D02*
X141790000Y-85315736D01*
X141860000Y-85480000D02*
X142615000Y-85480000D01*
X141790000Y-85410000D02*
X141860000Y-85480000D01*
X141790000Y-85315736D02*
X140998264Y-84524000D01*
X143325000Y-85520000D02*
X143295000Y-85490000D01*
X142675000Y-85520000D02*
X142625000Y-85470000D01*
X142705000Y-85490000D02*
X142675000Y-85520000D01*
X142675000Y-86400000D02*
X142675000Y-85520000D01*
X140998264Y-84524000D02*
X140984000Y-84524000D01*
X143295000Y-85490000D02*
X142705000Y-85490000D01*
X142615000Y-85480000D02*
X142625000Y-85470000D01*
D36*
%TO.N,+4V*%
X123080000Y-76447500D02*
X123080000Y-78987500D01*
X128396250Y-84303750D02*
X128492500Y-84400000D01*
X128396250Y-84303750D02*
X123080000Y-78987500D01*
D34*
X136746095Y-84700000D02*
X135450000Y-84700000D01*
X136921848Y-84524247D02*
X136746095Y-84700000D01*
X138640419Y-85475200D02*
X138279105Y-85475200D01*
X137125000Y-84488443D02*
X136968126Y-84524247D01*
X135450000Y-84700000D02*
X135150000Y-84400000D01*
D36*
X120200000Y-94945000D02*
X121900000Y-94945000D01*
X121900000Y-94945000D02*
X128954058Y-87890942D01*
D34*
X137292348Y-84488443D02*
X137125000Y-84488443D01*
X138279105Y-85475200D02*
X137292348Y-84488443D01*
X136968126Y-84524247D02*
X136921848Y-84524247D01*
D36*
X128492500Y-84400000D02*
X134500000Y-84400000D01*
X128954058Y-87890942D02*
X128954058Y-84557808D01*
D34*
X135150000Y-84400000D02*
X134500000Y-84400000D01*
X139050000Y-86650000D02*
X139050000Y-85860000D01*
X139150000Y-86750000D02*
X139050000Y-86650000D01*
%TO.N,/Neuropixels 2.0/SCL*%
X142081000Y-89050000D02*
X142094000Y-89063000D01*
X144825000Y-85716568D02*
X144825000Y-85646500D01*
X141525000Y-89050000D02*
X142081000Y-89050000D01*
X144983802Y-85875370D02*
X144825000Y-85716568D01*
D35*
%TO.N,Net-(U3-VDDCML)*%
X144319823Y-86920000D02*
X144500000Y-86920000D01*
X144500000Y-86920000D02*
X144675000Y-86745000D01*
X144675000Y-86745000D02*
X144675000Y-86400000D01*
D34*
%TO.N,/Neuropixels 2.0/SCL_{B}*%
X141525000Y-93428000D02*
X141525000Y-92795000D01*
X141503000Y-93450000D02*
X141525000Y-93428000D01*
X138548000Y-94241000D02*
X139079000Y-93710000D01*
X141538529Y-91900000D02*
X141525000Y-91913529D01*
X141525000Y-91913529D02*
X141525000Y-92795000D01*
%TO.N,Net-(L1-Pad2)*%
X138024000Y-84549700D02*
X138024000Y-82891000D01*
X138096500Y-84622200D02*
X138024000Y-84549700D01*
X141379000Y-82900000D02*
X142579000Y-84100000D01*
D33*
X141325000Y-82800000D02*
X139025000Y-82800000D01*
D34*
X141325000Y-82900000D02*
X141379000Y-82900000D01*
%TO.N,/Neuropixels 2.0/D0_{A}*%
X145173000Y-92086847D02*
X145175000Y-92084847D01*
X145175000Y-92084847D02*
X145175000Y-91200000D01*
%TO.N,/Neuropixels 2.0/D1_{A}*%
X143675000Y-91649842D02*
X143675000Y-91200000D01*
X144207478Y-92182320D02*
X143675000Y-91649842D01*
%TO.N,/Neuropixels 2.0/D2_{A}*%
X142402000Y-91706000D02*
X142675000Y-91433000D01*
X142402000Y-92274000D02*
X142402000Y-91706000D01*
X142675000Y-91433000D02*
X142675000Y-91200000D01*
%TO.N,/Neuropixels 2.0/D0_{B}*%
X141859248Y-91872752D02*
X142175000Y-91557000D01*
X142175000Y-91557000D02*
X142175000Y-91200000D01*
X141859248Y-92154005D02*
X141859248Y-91872752D01*
%TO.N,/Neuropixels 2.0/D1_{B}*%
X143175000Y-91416000D02*
X142972000Y-91619000D01*
X142089000Y-95049000D02*
X141825000Y-95313000D01*
X143175000Y-91200000D02*
X143175000Y-91416000D01*
X142972000Y-91619000D02*
X142972000Y-91813000D01*
X142972000Y-91813000D02*
X142751237Y-92033763D01*
X142751237Y-92033763D02*
X142751237Y-92183561D01*
X141825000Y-95313000D02*
X141825000Y-95670000D01*
%TO.N,/Neuropixels 2.0/D2_{B}*%
X143223000Y-95110554D02*
X143025000Y-95308554D01*
X143025000Y-95308554D02*
X143025000Y-95670000D01*
X143223000Y-95030000D02*
X143223000Y-95110554D01*
X144667000Y-92117000D02*
X144675000Y-92109000D01*
X144675000Y-92109000D02*
X144675000Y-91200000D01*
D35*
%TO.N,/DC Tap & Regulation/RF+DC*%
X143280000Y-84142027D02*
X143280000Y-84110000D01*
X143093664Y-84328363D02*
X143280000Y-84142027D01*
X143450000Y-83940000D02*
X143280000Y-84110000D01*
X143450000Y-82900000D02*
X143450000Y-83940000D01*
D34*
%TO.N,/Neuropixels 2.0/NP_{TP1}*%
X144225000Y-95670000D02*
X144225000Y-95375000D01*
%TO.N,/Neuropixels 2.0/SDA_{B}*%
X146410000Y-93407000D02*
X146361000Y-93456000D01*
X143276000Y-92746000D02*
X143325000Y-92795000D01*
X143477000Y-93794000D02*
X143325000Y-93642000D01*
X143277000Y-91734000D02*
X143276000Y-91735000D01*
X143276000Y-91735000D02*
X143276000Y-92746000D01*
X143325000Y-93642000D02*
X143325000Y-92795000D01*
X146410000Y-92956000D02*
X146410000Y-93407000D01*
%TO.N,/Neuropixels 2.0/SDA*%
X145350000Y-85300000D02*
X145025000Y-85300000D01*
X141910000Y-88550000D02*
X141525000Y-88550000D01*
X142130500Y-88552000D02*
X141912000Y-88552000D01*
X145360000Y-85310000D02*
X145350000Y-85300000D01*
X141912000Y-88552000D02*
X141910000Y-88550000D01*
%TO.N,/DC Tap & Regulation/VDDA_{EN}*%
X145175000Y-86912700D02*
X145175000Y-86400000D01*
X139498933Y-90626067D02*
X139200000Y-90925000D01*
X139498933Y-90585933D02*
X139498933Y-90626067D01*
X145073626Y-87014074D02*
X145175000Y-86912700D01*
%TO.N,/Neuropixels 2.0/NP_{Sel0}*%
X146880000Y-89655000D02*
X146842000Y-89655000D01*
X146810040Y-87710131D02*
X146649909Y-87550000D01*
X146810040Y-89623040D02*
X146810040Y-87710131D01*
X146893000Y-89668000D02*
X146880000Y-89655000D01*
X146842000Y-89655000D02*
X146810040Y-89623040D01*
X146649909Y-87550000D02*
X146325000Y-87550000D01*
D37*
%TO.N,+2V5*%
X138850000Y-90925000D02*
X138602395Y-90677395D01*
X138602395Y-90677395D02*
X138602395Y-90609373D01*
D33*
X138300000Y-90200000D02*
X138300000Y-90751000D01*
X138300000Y-90751000D02*
X138283000Y-90768000D01*
X138443768Y-90768000D02*
X138602395Y-90609373D01*
X138283000Y-90768000D02*
X138443768Y-90768000D01*
D35*
%TO.N,Net-(U3-DOUTN)*%
X143675000Y-86105000D02*
X144040000Y-85740000D01*
X144040000Y-85740000D02*
X144040000Y-85510000D01*
X143675000Y-86400000D02*
X143675000Y-86105000D01*
D34*
%TO.N,Net-(U3-PDB)*%
X139992500Y-86752500D02*
X139615000Y-87130000D01*
X140740000Y-86350000D02*
X140337500Y-86752500D01*
X140337500Y-86752500D02*
X139992500Y-86752500D01*
X139615000Y-87130000D02*
X138670000Y-87130000D01*
X142175000Y-86400000D02*
X142125000Y-86350000D01*
X142125000Y-86350000D02*
X140740000Y-86350000D01*
%TO.N,Net-(U7-CAP)*%
X139850000Y-91110000D02*
X139850000Y-91125000D01*
X139850000Y-91125000D02*
X139825000Y-91150000D01*
%TO.N,/Neuropixels 2.0/NP_{Sel1}*%
X146617500Y-87050000D02*
X146325000Y-87050000D01*
X146666500Y-86126158D02*
X146325000Y-86467658D01*
X146759500Y-87192000D02*
X146617500Y-87050000D01*
X146325000Y-86467658D02*
X146325000Y-87050000D01*
%TO.N,Net-(U5-OUT)*%
X140545000Y-89500000D02*
X140545000Y-88770000D01*
D33*
%TO.N,+1.8VA*%
X138560000Y-92206000D02*
X139946000Y-92206000D01*
X139946000Y-92206000D02*
X140325000Y-92585000D01*
D37*
X138850000Y-91275000D02*
X138850000Y-91576000D01*
D33*
X138553000Y-91873000D02*
X138553000Y-92199000D01*
X140325000Y-92585000D02*
X140325000Y-92795000D01*
X138553000Y-92199000D02*
X138560000Y-92206000D01*
D34*
X138240000Y-93320000D02*
X138267000Y-93320000D01*
X138267000Y-93320000D02*
X138548000Y-93601000D01*
X138553000Y-92200000D02*
X138556000Y-92203000D01*
X138553000Y-92199000D02*
X138553000Y-92200000D01*
D33*
X138850000Y-91576000D02*
X138553000Y-91873000D01*
X144512000Y-92808000D02*
X144525000Y-92795000D01*
X144512000Y-93255000D02*
X144512000Y-92808000D01*
D35*
%TO.N,/Serializer/Dout-*%
X143768354Y-85104613D02*
X143805387Y-85104613D01*
X143805387Y-85104613D02*
X144040000Y-84870000D01*
D34*
%TO.N,/Neuropixels 2.0/NP_{~{MUXRST}}*%
X142125000Y-93005000D02*
X142125000Y-92795000D01*
X142430000Y-93310000D02*
X142125000Y-93005000D01*
X146003372Y-86234587D02*
X145970785Y-86202000D01*
X145675000Y-86202000D02*
X145675000Y-86400000D01*
X145970785Y-86202000D02*
X145675000Y-86202000D01*
%TD*%
%TA.AperFunction,Conductor*%
%TO.N,GND*%
G36*
X143005172Y-81910691D02*
G01*
X143044170Y-81941792D01*
X143044179Y-81941797D01*
X143046325Y-81943509D01*
X143152002Y-81994400D01*
X143266354Y-82020500D01*
X143289618Y-82020500D01*
X143325000Y-82020500D01*
X143357288Y-82020500D01*
X146004126Y-82020500D01*
X146038774Y-82034852D01*
X146053126Y-82069500D01*
X146038774Y-82104148D01*
X145947131Y-82195790D01*
X145947127Y-82195794D01*
X145945184Y-82197738D01*
X145943724Y-82200061D01*
X145943718Y-82200069D01*
X145850675Y-82348147D01*
X145850672Y-82348151D01*
X145849211Y-82350478D01*
X145848302Y-82353072D01*
X145848302Y-82353075D01*
X145790540Y-82518147D01*
X145790537Y-82518155D01*
X145789632Y-82520745D01*
X145789324Y-82523477D01*
X145789324Y-82523478D01*
X145774653Y-82653679D01*
X145774651Y-82653696D01*
X145774500Y-82655046D01*
X145774500Y-83944954D01*
X145774652Y-83946303D01*
X145774653Y-83946320D01*
X145788338Y-84067767D01*
X145789632Y-84079255D01*
X145790538Y-84081846D01*
X145790540Y-84081852D01*
X145840151Y-84223630D01*
X145849211Y-84249522D01*
X145850674Y-84251851D01*
X145850675Y-84251852D01*
X145943718Y-84399930D01*
X145943721Y-84399934D01*
X145945184Y-84402262D01*
X146072738Y-84529816D01*
X146075067Y-84531279D01*
X146075069Y-84531281D01*
X146137327Y-84570400D01*
X146225478Y-84625789D01*
X146395745Y-84685368D01*
X146575000Y-84705565D01*
X146754255Y-84685368D01*
X146924522Y-84625789D01*
X147077262Y-84529816D01*
X147204816Y-84402262D01*
X147300789Y-84249522D01*
X147309249Y-84225342D01*
X147330604Y-84199322D01*
X147363708Y-84193218D01*
X147392938Y-84209913D01*
X147404500Y-84241526D01*
X147404500Y-89887082D01*
X147404497Y-89887108D01*
X147404493Y-89887108D01*
X147404493Y-89887133D01*
X147404493Y-89887134D01*
X147404493Y-89982996D01*
X147404493Y-89983007D01*
X147404494Y-89985139D01*
X147404831Y-89987051D01*
X147405000Y-89990925D01*
X147405000Y-92603353D01*
X147404832Y-92607186D01*
X147404499Y-92609076D01*
X147404499Y-92671725D01*
X147404500Y-92671725D01*
X147404500Y-92671727D01*
X147404500Y-96030500D01*
X147390148Y-96065148D01*
X147355500Y-96079500D01*
X145782822Y-96079500D01*
X145751737Y-96068377D01*
X145734763Y-96040059D01*
X145739608Y-96007401D01*
X145764071Y-95985230D01*
X145775831Y-95980358D01*
X145807506Y-95959193D01*
X145814193Y-95952506D01*
X145835358Y-95920831D01*
X145838978Y-95912091D01*
X145844531Y-95884174D01*
X145845000Y-95879417D01*
X145845000Y-95479747D01*
X145842145Y-95472854D01*
X145835253Y-95470000D01*
X145214747Y-95470000D01*
X145207854Y-95472854D01*
X145205000Y-95479747D01*
X145205000Y-95879417D01*
X145205468Y-95884174D01*
X145211021Y-95912091D01*
X145214641Y-95920831D01*
X145235806Y-95952506D01*
X145242493Y-95959193D01*
X145274168Y-95980358D01*
X145285929Y-95985230D01*
X145310392Y-96007401D01*
X145315237Y-96040059D01*
X145298263Y-96068377D01*
X145267178Y-96079500D01*
X145144000Y-96079500D01*
X145109352Y-96065148D01*
X145095000Y-96030500D01*
X145095000Y-95754747D01*
X145092145Y-95747854D01*
X145085253Y-95745000D01*
X144799000Y-95745000D01*
X144764352Y-95730648D01*
X144750000Y-95696000D01*
X144750000Y-95644000D01*
X144764352Y-95609352D01*
X144799000Y-95595000D01*
X145085253Y-95595000D01*
X145092145Y-95592145D01*
X145095000Y-95585253D01*
X145095000Y-95260583D01*
X145094531Y-95255818D01*
X145091344Y-95239798D01*
X145091344Y-95220678D01*
X145098659Y-95203017D01*
X145115258Y-95178175D01*
X145139493Y-95159263D01*
X145170225Y-95158509D01*
X145195357Y-95176210D01*
X145205000Y-95205399D01*
X145205000Y-95310253D01*
X145207854Y-95317145D01*
X145214747Y-95320000D01*
X145440253Y-95320000D01*
X145447145Y-95317145D01*
X145450000Y-95310253D01*
X145600000Y-95310253D01*
X145602854Y-95317145D01*
X145609747Y-95320000D01*
X145835253Y-95320000D01*
X145842145Y-95317145D01*
X145845000Y-95310253D01*
X145845000Y-94910583D01*
X145844531Y-94905825D01*
X145838978Y-94877908D01*
X145835358Y-94869168D01*
X145814193Y-94837493D01*
X145807506Y-94830806D01*
X145775831Y-94809641D01*
X145767091Y-94806021D01*
X145739174Y-94800468D01*
X145734417Y-94800000D01*
X145609747Y-94800000D01*
X145602854Y-94802854D01*
X145600000Y-94809747D01*
X145600000Y-95310253D01*
X145450000Y-95310253D01*
X145450000Y-94809747D01*
X145447145Y-94802854D01*
X145440253Y-94800000D01*
X145315583Y-94800000D01*
X145310825Y-94800468D01*
X145282908Y-94806021D01*
X145274168Y-94809641D01*
X145242493Y-94830806D01*
X145235806Y-94837493D01*
X145214641Y-94869168D01*
X145211019Y-94877911D01*
X145206778Y-94899233D01*
X145185942Y-94930415D01*
X145149160Y-94937730D01*
X145117978Y-94916895D01*
X145115466Y-94913136D01*
X145095279Y-94882923D01*
X145079446Y-94872344D01*
X145041905Y-94847260D01*
X145020688Y-94833083D01*
X145015957Y-94832142D01*
X145015955Y-94832141D01*
X144937433Y-94816523D01*
X144932702Y-94815582D01*
X144927971Y-94816523D01*
X144849448Y-94832141D01*
X144849444Y-94832142D01*
X144844716Y-94833083D01*
X144840704Y-94835763D01*
X144840703Y-94835764D01*
X144817539Y-94851242D01*
X144790316Y-94859500D01*
X144675327Y-94859500D01*
X144594673Y-94859500D01*
X144589088Y-94862723D01*
X144589085Y-94862725D01*
X144582492Y-94866532D01*
X144570679Y-94871425D01*
X144557096Y-94875065D01*
X144552539Y-94879621D01*
X144552535Y-94879624D01*
X144524749Y-94907411D01*
X144493305Y-94921657D01*
X144460271Y-94911636D01*
X144442042Y-94882321D01*
X144437153Y-94857742D01*
X144435417Y-94849014D01*
X144385577Y-94774423D01*
X144370672Y-94764464D01*
X144327721Y-94735765D01*
X144310986Y-94724583D01*
X144306255Y-94723642D01*
X144306253Y-94723641D01*
X144227731Y-94708023D01*
X144223000Y-94707082D01*
X144218269Y-94708023D01*
X144139746Y-94723641D01*
X144139742Y-94723642D01*
X144135014Y-94724583D01*
X144131002Y-94727263D01*
X144131001Y-94727264D01*
X144064434Y-94771742D01*
X144064431Y-94771744D01*
X144060423Y-94774423D01*
X144057744Y-94778431D01*
X144057742Y-94778434D01*
X144028363Y-94822403D01*
X143997180Y-94843239D01*
X143960398Y-94835922D01*
X143960159Y-94835762D01*
X143917986Y-94807583D01*
X143913255Y-94806642D01*
X143913253Y-94806641D01*
X143834731Y-94791023D01*
X143830000Y-94790082D01*
X143825269Y-94791023D01*
X143825265Y-94791023D01*
X143816509Y-94792764D01*
X143785278Y-94788650D01*
X143763005Y-94766374D01*
X143759476Y-94739559D01*
X143758977Y-94739559D01*
X143758977Y-94735765D01*
X143758895Y-94735142D01*
X143758977Y-94734730D01*
X143759918Y-94730000D01*
X143742417Y-94642014D01*
X143692577Y-94567423D01*
X143682678Y-94560809D01*
X143655281Y-94542502D01*
X143617986Y-94517583D01*
X143613255Y-94516642D01*
X143613253Y-94516641D01*
X143534731Y-94501023D01*
X143530000Y-94500082D01*
X143525269Y-94501023D01*
X143446746Y-94516641D01*
X143446742Y-94516642D01*
X143442014Y-94517583D01*
X143438002Y-94520263D01*
X143438001Y-94520264D01*
X143371434Y-94564742D01*
X143371431Y-94564744D01*
X143367423Y-94567423D01*
X143364744Y-94571431D01*
X143364742Y-94571434D01*
X143329585Y-94624051D01*
X143317583Y-94642014D01*
X143316642Y-94646742D01*
X143316641Y-94646746D01*
X143304252Y-94709034D01*
X143300082Y-94730000D01*
X143301023Y-94734730D01*
X143301023Y-94734731D01*
X143303465Y-94747008D01*
X143299353Y-94778239D01*
X143277079Y-94800513D01*
X143245848Y-94804626D01*
X143227732Y-94801023D01*
X143227731Y-94801023D01*
X143223000Y-94800082D01*
X143218269Y-94801023D01*
X143139746Y-94816641D01*
X143139742Y-94816642D01*
X143135014Y-94817583D01*
X143131002Y-94820263D01*
X143131001Y-94820264D01*
X143064434Y-94864742D01*
X143064431Y-94864744D01*
X143061468Y-94866724D01*
X143061467Y-94866725D01*
X143060423Y-94867423D01*
X143060284Y-94867215D01*
X143028500Y-94880381D01*
X142993852Y-94866029D01*
X142992257Y-94864434D01*
X142989577Y-94860423D01*
X142985087Y-94857423D01*
X142932676Y-94822403D01*
X142914986Y-94810583D01*
X142910255Y-94809642D01*
X142910253Y-94809641D01*
X142831731Y-94794023D01*
X142827000Y-94793082D01*
X142822269Y-94794023D01*
X142743746Y-94809641D01*
X142743742Y-94809642D01*
X142739014Y-94810583D01*
X142735002Y-94813263D01*
X142735001Y-94813264D01*
X142668434Y-94857742D01*
X142668431Y-94857744D01*
X142664423Y-94860423D01*
X142661744Y-94864431D01*
X142661742Y-94864434D01*
X142617656Y-94930415D01*
X142614583Y-94935014D01*
X142613642Y-94939742D01*
X142613641Y-94939746D01*
X142608470Y-94965746D01*
X142597082Y-95023000D01*
X142598023Y-95027731D01*
X142614574Y-95110941D01*
X142611785Y-95139252D01*
X142593738Y-95161242D01*
X142566515Y-95169500D01*
X142549685Y-95169500D01*
X142522462Y-95161242D01*
X142516986Y-95157583D01*
X142512255Y-95156642D01*
X142512253Y-95156641D01*
X142433731Y-95141023D01*
X142429000Y-95140082D01*
X142424269Y-95141023D01*
X142424268Y-95141023D01*
X142367443Y-95152325D01*
X142336212Y-95148212D01*
X142313938Y-95125938D01*
X142309827Y-95094706D01*
X142317977Y-95053735D01*
X142317977Y-95053731D01*
X142318918Y-95049000D01*
X142301417Y-94961014D01*
X142251577Y-94886423D01*
X142242534Y-94880381D01*
X142180998Y-94839264D01*
X142180999Y-94839264D01*
X142176986Y-94836583D01*
X142172255Y-94835642D01*
X142172253Y-94835641D01*
X142093731Y-94820023D01*
X142089000Y-94819082D01*
X142084269Y-94820023D01*
X142005746Y-94835641D01*
X142005742Y-94835642D01*
X142001014Y-94836583D01*
X141997002Y-94839263D01*
X141997001Y-94839264D01*
X141930434Y-94883742D01*
X141930431Y-94883744D01*
X141926423Y-94886423D01*
X141924907Y-94888690D01*
X141891247Y-94902629D01*
X141856602Y-94888277D01*
X141855257Y-94886932D01*
X141852577Y-94882921D01*
X141845074Y-94877908D01*
X141799206Y-94847260D01*
X141777986Y-94833081D01*
X141773255Y-94832140D01*
X141773253Y-94832139D01*
X141694731Y-94816521D01*
X141690000Y-94815580D01*
X141685269Y-94816521D01*
X141606746Y-94832139D01*
X141606742Y-94832140D01*
X141602014Y-94833081D01*
X141598002Y-94835761D01*
X141598001Y-94835762D01*
X141531434Y-94880240D01*
X141531431Y-94880242D01*
X141527423Y-94882921D01*
X141524744Y-94886929D01*
X141524742Y-94886932D01*
X141482492Y-94950165D01*
X141477583Y-94957512D01*
X141476642Y-94962240D01*
X141476641Y-94962244D01*
X141472559Y-94982770D01*
X141453689Y-95012568D01*
X141419697Y-95021975D01*
X141388193Y-95006117D01*
X141375500Y-94973211D01*
X141375500Y-94822181D01*
X141381286Y-94799082D01*
X141397278Y-94781439D01*
X141412664Y-94771158D01*
X141412663Y-94771158D01*
X141416678Y-94768476D01*
X141466518Y-94693885D01*
X141484019Y-94605899D01*
X141466518Y-94517913D01*
X141416678Y-94443322D01*
X141342087Y-94393482D01*
X141337356Y-94392541D01*
X141337354Y-94392540D01*
X141258832Y-94376922D01*
X141254101Y-94375981D01*
X141249370Y-94376922D01*
X141170847Y-94392540D01*
X141170843Y-94392541D01*
X141166115Y-94393482D01*
X141162103Y-94396162D01*
X141162102Y-94396163D01*
X141095535Y-94440641D01*
X141095532Y-94440643D01*
X141091524Y-94443322D01*
X141088845Y-94447330D01*
X141088843Y-94447333D01*
X141045942Y-94511540D01*
X141041684Y-94517913D01*
X141040743Y-94522641D01*
X141040742Y-94522645D01*
X141028634Y-94583520D01*
X141024183Y-94605899D01*
X141025124Y-94610630D01*
X141040742Y-94689152D01*
X141040743Y-94689154D01*
X141041684Y-94693885D01*
X141044365Y-94697897D01*
X141066242Y-94730639D01*
X141074500Y-94757862D01*
X141074500Y-94823763D01*
X141062340Y-94856071D01*
X141031896Y-94872344D01*
X140998278Y-94864505D01*
X140957986Y-94837583D01*
X140953255Y-94836642D01*
X140953253Y-94836641D01*
X140874731Y-94821023D01*
X140870000Y-94820082D01*
X140865269Y-94821023D01*
X140786746Y-94836641D01*
X140786742Y-94836642D01*
X140782014Y-94837583D01*
X140778002Y-94840263D01*
X140778001Y-94840264D01*
X140711434Y-94884742D01*
X140711431Y-94884744D01*
X140707423Y-94887423D01*
X140704744Y-94891431D01*
X140704742Y-94891434D01*
X140690242Y-94913136D01*
X140666007Y-94932049D01*
X140635276Y-94932803D01*
X140610143Y-94915102D01*
X140600500Y-94885913D01*
X140600500Y-94530685D01*
X140608758Y-94503462D01*
X140612417Y-94497986D01*
X140629918Y-94410000D01*
X140612417Y-94322014D01*
X140562577Y-94247423D01*
X140547184Y-94237138D01*
X140491998Y-94200264D01*
X140491999Y-94200264D01*
X140487986Y-94197583D01*
X140483255Y-94196642D01*
X140483253Y-94196641D01*
X140404731Y-94181023D01*
X140400000Y-94180082D01*
X140395269Y-94181023D01*
X140316746Y-94196641D01*
X140316742Y-94196642D01*
X140312014Y-94197583D01*
X140308002Y-94200263D01*
X140308001Y-94200264D01*
X140241434Y-94244742D01*
X140241431Y-94244744D01*
X140237423Y-94247423D01*
X140234744Y-94251431D01*
X140234742Y-94251434D01*
X140194274Y-94312000D01*
X140187583Y-94322014D01*
X140186642Y-94326742D01*
X140186641Y-94326746D01*
X140172834Y-94396163D01*
X140170082Y-94410000D01*
X140171023Y-94414731D01*
X140186641Y-94493253D01*
X140186642Y-94493255D01*
X140187583Y-94497986D01*
X140190264Y-94501998D01*
X140191242Y-94503462D01*
X140199500Y-94530685D01*
X140199500Y-95017612D01*
X140198028Y-95026271D01*
X140198080Y-95026277D01*
X140197461Y-95031762D01*
X140195638Y-95036974D01*
X140196739Y-95046751D01*
X140199192Y-95068522D01*
X140199500Y-95074007D01*
X140199500Y-95082590D01*
X140200111Y-95085267D01*
X140200112Y-95085276D01*
X140201213Y-95090100D01*
X140199053Y-95118904D01*
X140181043Y-95141486D01*
X140153441Y-95150000D01*
X140109747Y-95150000D01*
X140102854Y-95152854D01*
X140100000Y-95159747D01*
X140100000Y-95696000D01*
X140085648Y-95730648D01*
X140051000Y-95745000D01*
X139764747Y-95745000D01*
X139757854Y-95747854D01*
X139755000Y-95754747D01*
X139755000Y-96030500D01*
X139740648Y-96065148D01*
X139706000Y-96079500D01*
X139582822Y-96079500D01*
X139551737Y-96068377D01*
X139534763Y-96040059D01*
X139539608Y-96007401D01*
X139564071Y-95985230D01*
X139575831Y-95980358D01*
X139607506Y-95959193D01*
X139614193Y-95952506D01*
X139635358Y-95920831D01*
X139638978Y-95912091D01*
X139644531Y-95884174D01*
X139645000Y-95879417D01*
X139645000Y-95585253D01*
X139755000Y-95585253D01*
X139757854Y-95592145D01*
X139764747Y-95595000D01*
X139940253Y-95595000D01*
X139947145Y-95592145D01*
X139950000Y-95585253D01*
X139950000Y-95159747D01*
X139947145Y-95152854D01*
X139940253Y-95150000D01*
X139865583Y-95150000D01*
X139860825Y-95150468D01*
X139832908Y-95156021D01*
X139824168Y-95159641D01*
X139792493Y-95180806D01*
X139785806Y-95187493D01*
X139764641Y-95219168D01*
X139761021Y-95227908D01*
X139755468Y-95255825D01*
X139755000Y-95260583D01*
X139755000Y-95585253D01*
X139645000Y-95585253D01*
X139645000Y-95479747D01*
X139642145Y-95472854D01*
X139635253Y-95470000D01*
X139014747Y-95470000D01*
X139007854Y-95472854D01*
X139005000Y-95479747D01*
X139005000Y-95879417D01*
X139005468Y-95884174D01*
X139011021Y-95912091D01*
X139014641Y-95920831D01*
X139035806Y-95952506D01*
X139042493Y-95959193D01*
X139074168Y-95980358D01*
X139085929Y-95985230D01*
X139110392Y-96007401D01*
X139115237Y-96040059D01*
X139098263Y-96068377D01*
X139067178Y-96079500D01*
X137494500Y-96079500D01*
X137459852Y-96065148D01*
X137445500Y-96030500D01*
X137445500Y-95310253D01*
X139005000Y-95310253D01*
X139007854Y-95317145D01*
X139014747Y-95320000D01*
X139240253Y-95320000D01*
X139247145Y-95317145D01*
X139250000Y-95310253D01*
X139400000Y-95310253D01*
X139402854Y-95317145D01*
X139409747Y-95320000D01*
X139635253Y-95320000D01*
X139642145Y-95317145D01*
X139645000Y-95310253D01*
X139645000Y-94910583D01*
X139644531Y-94905825D01*
X139638978Y-94877908D01*
X139635358Y-94869168D01*
X139614193Y-94837493D01*
X139607506Y-94830806D01*
X139575831Y-94809641D01*
X139567091Y-94806021D01*
X139539174Y-94800468D01*
X139534417Y-94800000D01*
X139409747Y-94800000D01*
X139402854Y-94802854D01*
X139400000Y-94809747D01*
X139400000Y-95310253D01*
X139250000Y-95310253D01*
X139250000Y-94809747D01*
X139247145Y-94802854D01*
X139240253Y-94800000D01*
X139115583Y-94800000D01*
X139110825Y-94800468D01*
X139082908Y-94806021D01*
X139074168Y-94809641D01*
X139042493Y-94830806D01*
X139035806Y-94837493D01*
X139014641Y-94869168D01*
X139011021Y-94877908D01*
X139005468Y-94905825D01*
X139005000Y-94910583D01*
X139005000Y-95310253D01*
X137445500Y-95310253D01*
X137445500Y-93320000D01*
X138010082Y-93320000D01*
X138011023Y-93324731D01*
X138026641Y-93403253D01*
X138026642Y-93403255D01*
X138027583Y-93407986D01*
X138035025Y-93419124D01*
X138068060Y-93468565D01*
X138077423Y-93482577D01*
X138152014Y-93532417D01*
X138156747Y-93533358D01*
X138156751Y-93533360D01*
X138208059Y-93543566D01*
X138236378Y-93560539D01*
X138247500Y-93591624D01*
X138247500Y-93750748D01*
X138247969Y-93753107D01*
X138247970Y-93753114D01*
X138258190Y-93804494D01*
X138258191Y-93804497D01*
X138259133Y-93809231D01*
X138261814Y-93813244D01*
X138261815Y-93813245D01*
X138292288Y-93858851D01*
X138303448Y-93875552D01*
X138307459Y-93878232D01*
X138307460Y-93878233D01*
X138310493Y-93880260D01*
X138329667Y-93905251D01*
X138329667Y-93936749D01*
X138310493Y-93961740D01*
X138307460Y-93963766D01*
X138307456Y-93963769D01*
X138303448Y-93966448D01*
X138300769Y-93970456D01*
X138300767Y-93970459D01*
X138261815Y-94028754D01*
X138261813Y-94028757D01*
X138259133Y-94032769D01*
X138258191Y-94037500D01*
X138258190Y-94037505D01*
X138247970Y-94088885D01*
X138247969Y-94088893D01*
X138247500Y-94091252D01*
X138247500Y-94390748D01*
X138247969Y-94393107D01*
X138247970Y-94393114D01*
X138258190Y-94444494D01*
X138258191Y-94444497D01*
X138259133Y-94449231D01*
X138261814Y-94453244D01*
X138261815Y-94453245D01*
X138295369Y-94503462D01*
X138303448Y-94515552D01*
X138369769Y-94559867D01*
X138428252Y-94571500D01*
X138665338Y-94571500D01*
X138667748Y-94571500D01*
X138726231Y-94559867D01*
X138792552Y-94515552D01*
X138836867Y-94449231D01*
X138848500Y-94390748D01*
X138848500Y-94173635D01*
X138862852Y-94138987D01*
X138908177Y-94093662D01*
X139048512Y-93953325D01*
X139064410Y-93942704D01*
X139078713Y-93939860D01*
X139079000Y-93939918D01*
X139166986Y-93922417D01*
X139241577Y-93872577D01*
X139291417Y-93797986D01*
X139308918Y-93710000D01*
X139291417Y-93622014D01*
X139241577Y-93547423D01*
X139236433Y-93543986D01*
X139170998Y-93500264D01*
X139170999Y-93500264D01*
X139166986Y-93497583D01*
X139162255Y-93496642D01*
X139162253Y-93496641D01*
X139083731Y-93481023D01*
X139079000Y-93480082D01*
X139074269Y-93481023D01*
X138995746Y-93496641D01*
X138995742Y-93496642D01*
X138991014Y-93497583D01*
X138987002Y-93500263D01*
X138987001Y-93500264D01*
X138924723Y-93541877D01*
X138891104Y-93549716D01*
X138860660Y-93533443D01*
X138848500Y-93501135D01*
X138848500Y-93453662D01*
X138848500Y-93451252D01*
X138836867Y-93392769D01*
X138792552Y-93326448D01*
X138768150Y-93310143D01*
X138730245Y-93284815D01*
X138730244Y-93284814D01*
X138726231Y-93282133D01*
X138707947Y-93278496D01*
X138679629Y-93261523D01*
X138668507Y-93230437D01*
X138679630Y-93199352D01*
X138707949Y-93182379D01*
X138734106Y-93177176D01*
X138742852Y-93173553D01*
X138807599Y-93130291D01*
X138814291Y-93123599D01*
X138857554Y-93058851D01*
X138861176Y-93050107D01*
X138872529Y-92993032D01*
X138873000Y-92988257D01*
X138873000Y-92923747D01*
X138870145Y-92916854D01*
X138863253Y-92914000D01*
X138242748Y-92914000D01*
X138235855Y-92916854D01*
X138233001Y-92923747D01*
X138233001Y-92988263D01*
X138233469Y-92993022D01*
X138242729Y-93039579D01*
X138235412Y-93076360D01*
X138204230Y-93097195D01*
X138156750Y-93106639D01*
X138156740Y-93106642D01*
X138152014Y-93107583D01*
X138148002Y-93110263D01*
X138148001Y-93110264D01*
X138081434Y-93154742D01*
X138081431Y-93154744D01*
X138077423Y-93157423D01*
X138074744Y-93161431D01*
X138074742Y-93161434D01*
X138030264Y-93228001D01*
X138027583Y-93232014D01*
X138026642Y-93236742D01*
X138026641Y-93236746D01*
X138011130Y-93314731D01*
X138010082Y-93320000D01*
X137445500Y-93320000D01*
X137445500Y-91557263D01*
X137963001Y-91557263D01*
X137963469Y-91562020D01*
X137974823Y-91619107D01*
X137978446Y-91627852D01*
X138021708Y-91692599D01*
X138028400Y-91699291D01*
X138093148Y-91742554D01*
X138101892Y-91746176D01*
X138158967Y-91757529D01*
X138163743Y-91758000D01*
X138198253Y-91758000D01*
X138205145Y-91755145D01*
X138208000Y-91748253D01*
X138208000Y-91492747D01*
X138205145Y-91485854D01*
X138198253Y-91483000D01*
X137972748Y-91483000D01*
X137965855Y-91485854D01*
X137963001Y-91492747D01*
X137963001Y-91557263D01*
X137445500Y-91557263D01*
X137445500Y-89265253D01*
X137980000Y-89265253D01*
X137982854Y-89272145D01*
X137989747Y-89275000D01*
X138215253Y-89275000D01*
X138222145Y-89272145D01*
X138225000Y-89265253D01*
X138375000Y-89265253D01*
X138377854Y-89272145D01*
X138384747Y-89275000D01*
X138610252Y-89275000D01*
X138617144Y-89272145D01*
X138619999Y-89265253D01*
X138619999Y-89200737D01*
X138619530Y-89195979D01*
X138608176Y-89138892D01*
X138604553Y-89130147D01*
X138561291Y-89065400D01*
X138554599Y-89058708D01*
X138489851Y-89015445D01*
X138481107Y-89011823D01*
X138424032Y-89000470D01*
X138419257Y-89000000D01*
X138384747Y-89000000D01*
X138377854Y-89002854D01*
X138375000Y-89009747D01*
X138375000Y-89265253D01*
X138225000Y-89265253D01*
X138225000Y-89009748D01*
X138222145Y-89002855D01*
X138215253Y-89000001D01*
X138180737Y-89000001D01*
X138175979Y-89000469D01*
X138118892Y-89011823D01*
X138110147Y-89015446D01*
X138045400Y-89058708D01*
X138038708Y-89065400D01*
X137995445Y-89130148D01*
X137991823Y-89138892D01*
X137980470Y-89195967D01*
X137980000Y-89200743D01*
X137980000Y-89265253D01*
X137445500Y-89265253D01*
X137445500Y-87845253D01*
X137980000Y-87845253D01*
X137982854Y-87852145D01*
X137989747Y-87855000D01*
X138215253Y-87855000D01*
X138222145Y-87852145D01*
X138225000Y-87845253D01*
X138375000Y-87845253D01*
X138377854Y-87852145D01*
X138384747Y-87855000D01*
X138610252Y-87855000D01*
X138617144Y-87852145D01*
X138619999Y-87845253D01*
X138619999Y-87780737D01*
X138619530Y-87775979D01*
X138608176Y-87718892D01*
X138604553Y-87710147D01*
X138561291Y-87645400D01*
X138554599Y-87638708D01*
X138489851Y-87595445D01*
X138481107Y-87591823D01*
X138424032Y-87580470D01*
X138419257Y-87580000D01*
X138384747Y-87580000D01*
X138377854Y-87582854D01*
X138375000Y-87589747D01*
X138375000Y-87845253D01*
X138225000Y-87845253D01*
X138225000Y-87589748D01*
X138222145Y-87582855D01*
X138215253Y-87580001D01*
X138180737Y-87580001D01*
X138175979Y-87580469D01*
X138118892Y-87591823D01*
X138110147Y-87595446D01*
X138045400Y-87638708D01*
X138038708Y-87645400D01*
X137995445Y-87710148D01*
X137991823Y-87718892D01*
X137980470Y-87775967D01*
X137980000Y-87780743D01*
X137980000Y-87845253D01*
X137445500Y-87845253D01*
X137445500Y-86204110D01*
X137445500Y-86201969D01*
X137445166Y-86200079D01*
X137445000Y-86196251D01*
X137445000Y-84972230D01*
X137459352Y-84937582D01*
X137494000Y-84923230D01*
X137528648Y-84937582D01*
X137743044Y-85151978D01*
X137757396Y-85186626D01*
X137743045Y-85221274D01*
X137685802Y-85278517D01*
X137684018Y-85282165D01*
X137684018Y-85282166D01*
X137636098Y-85380187D01*
X137636096Y-85380192D01*
X137634427Y-85383607D01*
X137633878Y-85387369D01*
X137633878Y-85387372D01*
X137624756Y-85449982D01*
X137624500Y-85451740D01*
X137624500Y-86268260D01*
X137624755Y-86270009D01*
X137624756Y-86270017D01*
X137630287Y-86307982D01*
X137634427Y-86336393D01*
X137685802Y-86441483D01*
X137768517Y-86524198D01*
X137873607Y-86575573D01*
X137941740Y-86585500D01*
X138847035Y-86585500D01*
X138879330Y-86597649D01*
X138895611Y-86628070D01*
X138889906Y-86652629D01*
X138892111Y-86653543D01*
X138890263Y-86658002D01*
X138887583Y-86662014D01*
X138886642Y-86666742D01*
X138886641Y-86666746D01*
X138875264Y-86723947D01*
X138870082Y-86750000D01*
X138871023Y-86754731D01*
X138874376Y-86771588D01*
X138870949Y-86801370D01*
X138850817Y-86823582D01*
X138821657Y-86829879D01*
X138819748Y-86829500D01*
X138520252Y-86829500D01*
X138517893Y-86829969D01*
X138517885Y-86829970D01*
X138466505Y-86840190D01*
X138466500Y-86840191D01*
X138461769Y-86841133D01*
X138457757Y-86843813D01*
X138457754Y-86843815D01*
X138399459Y-86882767D01*
X138399456Y-86882769D01*
X138395448Y-86885448D01*
X138392769Y-86889456D01*
X138392766Y-86889460D01*
X138390740Y-86892493D01*
X138365749Y-86911667D01*
X138334251Y-86911667D01*
X138309260Y-86892493D01*
X138307233Y-86889460D01*
X138307232Y-86889459D01*
X138304552Y-86885448D01*
X138283827Y-86871600D01*
X138242245Y-86843815D01*
X138242244Y-86843814D01*
X138238231Y-86841133D01*
X138233497Y-86840191D01*
X138233494Y-86840190D01*
X138182114Y-86829970D01*
X138182107Y-86829969D01*
X138179748Y-86829500D01*
X137880252Y-86829500D01*
X137877893Y-86829969D01*
X137877885Y-86829970D01*
X137826505Y-86840190D01*
X137826500Y-86840191D01*
X137821769Y-86841133D01*
X137817757Y-86843813D01*
X137817754Y-86843815D01*
X137759459Y-86882767D01*
X137759456Y-86882769D01*
X137755448Y-86885448D01*
X137752769Y-86889456D01*
X137752767Y-86889459D01*
X137713815Y-86947754D01*
X137713813Y-86947757D01*
X137711133Y-86951769D01*
X137710191Y-86956500D01*
X137710190Y-86956505D01*
X137699970Y-87007885D01*
X137699969Y-87007893D01*
X137699500Y-87010252D01*
X137699500Y-87249748D01*
X137699969Y-87252107D01*
X137699970Y-87252114D01*
X137710190Y-87303494D01*
X137710191Y-87303497D01*
X137711133Y-87308231D01*
X137713814Y-87312244D01*
X137713815Y-87312245D01*
X137749012Y-87364921D01*
X137755448Y-87374552D01*
X137759459Y-87377232D01*
X137817105Y-87415751D01*
X137821769Y-87418867D01*
X137824573Y-87419424D01*
X137829587Y-87422104D01*
X137904137Y-87471917D01*
X137992123Y-87489418D01*
X138080109Y-87471917D01*
X138129735Y-87438757D01*
X138156958Y-87430500D01*
X138177338Y-87430500D01*
X138179748Y-87430500D01*
X138238231Y-87418867D01*
X138304552Y-87374552D01*
X138309258Y-87367508D01*
X138334249Y-87348332D01*
X138365751Y-87348332D01*
X138390741Y-87367508D01*
X138395448Y-87374552D01*
X138461769Y-87418867D01*
X138520252Y-87430500D01*
X138817338Y-87430500D01*
X138819748Y-87430500D01*
X138878231Y-87418867D01*
X138944552Y-87374552D01*
X138988867Y-87308231D01*
X138988869Y-87308232D01*
X139004851Y-87288758D01*
X139032075Y-87280500D01*
X139252925Y-87280500D01*
X139280149Y-87288758D01*
X139296130Y-87308232D01*
X139296133Y-87308231D01*
X139298814Y-87312244D01*
X139298815Y-87312245D01*
X139334012Y-87364921D01*
X139340448Y-87374552D01*
X139397599Y-87412740D01*
X139397673Y-87412789D01*
X139416586Y-87437024D01*
X139417340Y-87467755D01*
X139399639Y-87492888D01*
X139370450Y-87502531D01*
X139010000Y-87502531D01*
X139007641Y-87503000D01*
X139007633Y-87503001D01*
X138975521Y-87509389D01*
X138975519Y-87509389D01*
X138970787Y-87510331D01*
X138966777Y-87513009D01*
X138966775Y-87513011D01*
X138939543Y-87531206D01*
X138939538Y-87531209D01*
X138937543Y-87532543D01*
X138935844Y-87534241D01*
X138935839Y-87534246D01*
X138814246Y-87655839D01*
X138814241Y-87655844D01*
X138812543Y-87657543D01*
X138811209Y-87659538D01*
X138811206Y-87659543D01*
X138793011Y-87686775D01*
X138793009Y-87686777D01*
X138790331Y-87690787D01*
X138789389Y-87695519D01*
X138789389Y-87695521D01*
X138783001Y-87727633D01*
X138783000Y-87727641D01*
X138782531Y-87730000D01*
X138782531Y-88305000D01*
X138783000Y-88307359D01*
X138783001Y-88307366D01*
X138790331Y-88344213D01*
X138788349Y-88344607D01*
X138789496Y-88369191D01*
X138769514Y-88395739D01*
X138737190Y-88403435D01*
X138727372Y-88402329D01*
X138721955Y-88401409D01*
X138716270Y-88400111D01*
X138716264Y-88400110D01*
X138713590Y-88399500D01*
X138710839Y-88399500D01*
X138705007Y-88399500D01*
X138699522Y-88399192D01*
X138673460Y-88396256D01*
X138667974Y-88395638D01*
X138662761Y-88397461D01*
X138657277Y-88398080D01*
X138657271Y-88398028D01*
X138648612Y-88399500D01*
X138636218Y-88399500D01*
X138608996Y-88391242D01*
X138590949Y-88369253D01*
X138589807Y-88366498D01*
X138588867Y-88361769D01*
X138544552Y-88295448D01*
X138544163Y-88295188D01*
X138532132Y-88272678D01*
X138534923Y-88244365D01*
X138552976Y-88222375D01*
X138554602Y-88221288D01*
X138561291Y-88214599D01*
X138604554Y-88149851D01*
X138608176Y-88141107D01*
X138619529Y-88084032D01*
X138620000Y-88079257D01*
X138620000Y-88014747D01*
X138617145Y-88007854D01*
X138610253Y-88005000D01*
X137989748Y-88005000D01*
X137982855Y-88007854D01*
X137980001Y-88014747D01*
X137980001Y-88079263D01*
X137980469Y-88084020D01*
X137991823Y-88141107D01*
X137995446Y-88149852D01*
X138038708Y-88214599D01*
X138045398Y-88221289D01*
X138047029Y-88222379D01*
X138065076Y-88244367D01*
X138067867Y-88272675D01*
X138055838Y-88295187D01*
X138055448Y-88295448D01*
X138052771Y-88299453D01*
X138052770Y-88299455D01*
X138013815Y-88357754D01*
X138013813Y-88357757D01*
X138011133Y-88361769D01*
X138010191Y-88366500D01*
X138010190Y-88366505D01*
X137999970Y-88417885D01*
X137999969Y-88417893D01*
X137999500Y-88420252D01*
X137999500Y-88719748D01*
X137999969Y-88722107D01*
X137999970Y-88722114D01*
X138010190Y-88773494D01*
X138010191Y-88773497D01*
X138011133Y-88778231D01*
X138055448Y-88844552D01*
X138121769Y-88888867D01*
X138180252Y-88900500D01*
X138417338Y-88900500D01*
X138419748Y-88900500D01*
X138478231Y-88888867D01*
X138544552Y-88844552D01*
X138545216Y-88843557D01*
X138568146Y-88831297D01*
X138596452Y-88834079D01*
X138612357Y-88847123D01*
X138613329Y-88846152D01*
X138616742Y-88849565D01*
X138619423Y-88853577D01*
X138694014Y-88903417D01*
X138745059Y-88913570D01*
X138773377Y-88930543D01*
X138784500Y-88961629D01*
X138784500Y-89262494D01*
X138784500Y-89262504D01*
X138784501Y-89264898D01*
X138784968Y-89267248D01*
X138784969Y-89267254D01*
X138789389Y-89289479D01*
X138789390Y-89289481D01*
X138790331Y-89294213D01*
X138812543Y-89327457D01*
X138822326Y-89333993D01*
X138841503Y-89358983D01*
X138841504Y-89390485D01*
X138822328Y-89415477D01*
X138793460Y-89434766D01*
X138793456Y-89434769D01*
X138789448Y-89437448D01*
X138786769Y-89441456D01*
X138786765Y-89441461D01*
X138779685Y-89452056D01*
X138753650Y-89469455D01*
X138754205Y-89470795D01*
X138749746Y-89472641D01*
X138745014Y-89473583D01*
X138741004Y-89476262D01*
X138741000Y-89476264D01*
X138696223Y-89506184D01*
X138662604Y-89514023D01*
X138632160Y-89497750D01*
X138620000Y-89465442D01*
X138620000Y-89434747D01*
X138617145Y-89427854D01*
X138610253Y-89425000D01*
X137989748Y-89425000D01*
X137982855Y-89427854D01*
X137980001Y-89434747D01*
X137980001Y-89499263D01*
X137980469Y-89504020D01*
X137991823Y-89561107D01*
X137995446Y-89569853D01*
X138014328Y-89598112D01*
X138022586Y-89625335D01*
X138014328Y-89652558D01*
X137977510Y-89707661D01*
X137971849Y-89716133D01*
X137970908Y-89720861D01*
X137970907Y-89720865D01*
X137958300Y-89784248D01*
X137954348Y-89804119D01*
X137955289Y-89808850D01*
X137970907Y-89887372D01*
X137970908Y-89887374D01*
X137971849Y-89892105D01*
X137975733Y-89897918D01*
X137991242Y-89921129D01*
X137999500Y-89948352D01*
X137999500Y-90139748D01*
X137999969Y-90142107D01*
X137999970Y-90142114D01*
X138010190Y-90193494D01*
X138010191Y-90193497D01*
X138011133Y-90198231D01*
X138013814Y-90202244D01*
X138013815Y-90202245D01*
X138051910Y-90259258D01*
X138055448Y-90264552D01*
X138059459Y-90267232D01*
X138077723Y-90279436D01*
X138093714Y-90297080D01*
X138099500Y-90320178D01*
X138099500Y-90426463D01*
X138093714Y-90449561D01*
X138077723Y-90467205D01*
X138042459Y-90490767D01*
X138042456Y-90490769D01*
X138038448Y-90493448D01*
X138035769Y-90497456D01*
X138035767Y-90497459D01*
X137996815Y-90555754D01*
X137996813Y-90555757D01*
X137994133Y-90559769D01*
X137993191Y-90564500D01*
X137993190Y-90564505D01*
X137982970Y-90615885D01*
X137982969Y-90615893D01*
X137982500Y-90618252D01*
X137982500Y-90917748D01*
X137982969Y-90920107D01*
X137982970Y-90920114D01*
X137993190Y-90971494D01*
X137993191Y-90971497D01*
X137994133Y-90976231D01*
X137996814Y-90980244D01*
X137996815Y-90980245D01*
X138000646Y-90985979D01*
X138038448Y-91042552D01*
X138038836Y-91042811D01*
X138050866Y-91065317D01*
X138048078Y-91093628D01*
X138030032Y-91115619D01*
X138028398Y-91116710D01*
X138021708Y-91123400D01*
X137978445Y-91188148D01*
X137974823Y-91196892D01*
X137963470Y-91253967D01*
X137963000Y-91258743D01*
X137963000Y-91323253D01*
X137965854Y-91330145D01*
X137972747Y-91333000D01*
X138309000Y-91333000D01*
X138343648Y-91347352D01*
X138358000Y-91382000D01*
X138358000Y-91748253D01*
X138362849Y-91759960D01*
X138366412Y-91782756D01*
X138362428Y-91794765D01*
X138363644Y-91795191D01*
X138361820Y-91800402D01*
X138358884Y-91805076D01*
X138358266Y-91810556D01*
X138358265Y-91810561D01*
X138355328Y-91836631D01*
X138354409Y-91842038D01*
X138353112Y-91847721D01*
X138353110Y-91847734D01*
X138352500Y-91850410D01*
X138352500Y-91853161D01*
X138352500Y-91858993D01*
X138352192Y-91864481D01*
X138350994Y-91875110D01*
X138344153Y-91895107D01*
X138329526Y-91910363D01*
X138312459Y-91921767D01*
X138312456Y-91921769D01*
X138308448Y-91924448D01*
X138305769Y-91928456D01*
X138305767Y-91928459D01*
X138266815Y-91986754D01*
X138266813Y-91986757D01*
X138264133Y-91990769D01*
X138263191Y-91995500D01*
X138263190Y-91995505D01*
X138252970Y-92046885D01*
X138252969Y-92046893D01*
X138252500Y-92049252D01*
X138252500Y-92348748D01*
X138252969Y-92351107D01*
X138252970Y-92351114D01*
X138263190Y-92402494D01*
X138263191Y-92402497D01*
X138264133Y-92407231D01*
X138266814Y-92411244D01*
X138266815Y-92411245D01*
X138301066Y-92462505D01*
X138308448Y-92473552D01*
X138308836Y-92473811D01*
X138320866Y-92496317D01*
X138318078Y-92524628D01*
X138300032Y-92546619D01*
X138298398Y-92547710D01*
X138291708Y-92554400D01*
X138248445Y-92619148D01*
X138244823Y-92627892D01*
X138233470Y-92684967D01*
X138233000Y-92689743D01*
X138233000Y-92754253D01*
X138235854Y-92761145D01*
X138242747Y-92764000D01*
X138863252Y-92764000D01*
X138870144Y-92761145D01*
X138872999Y-92754253D01*
X138872999Y-92689732D01*
X138872530Y-92684979D01*
X138861176Y-92627892D01*
X138857553Y-92619147D01*
X138814291Y-92554400D01*
X138807600Y-92547709D01*
X138805971Y-92546621D01*
X138787921Y-92524629D01*
X138785133Y-92496315D01*
X138797163Y-92473811D01*
X138797552Y-92473552D01*
X138827804Y-92428276D01*
X138845448Y-92412286D01*
X138868546Y-92406500D01*
X139842655Y-92406500D01*
X139877303Y-92420852D01*
X140060148Y-92603697D01*
X140074500Y-92638345D01*
X140074500Y-93127494D01*
X140074500Y-93127504D01*
X140074501Y-93129898D01*
X140074968Y-93132248D01*
X140074969Y-93132254D01*
X140079389Y-93154479D01*
X140079390Y-93154481D01*
X140080331Y-93159213D01*
X140102543Y-93192457D01*
X140135787Y-93214669D01*
X140165101Y-93220500D01*
X140484898Y-93220499D01*
X140514213Y-93214669D01*
X140547457Y-93192457D01*
X140569669Y-93159213D01*
X140570095Y-93157071D01*
X140587013Y-93136453D01*
X140614236Y-93128193D01*
X140641460Y-93136450D01*
X140659509Y-93158441D01*
X140664642Y-93170832D01*
X140685806Y-93202506D01*
X140692493Y-93209193D01*
X140724168Y-93230358D01*
X140732908Y-93233978D01*
X140760825Y-93239531D01*
X140765583Y-93240000D01*
X140840253Y-93240000D01*
X140847145Y-93237145D01*
X140850000Y-93230253D01*
X140850000Y-92359747D01*
X140847145Y-92352854D01*
X140840253Y-92350000D01*
X140765583Y-92350000D01*
X140760825Y-92350468D01*
X140732908Y-92356021D01*
X140724168Y-92359641D01*
X140692493Y-92380806D01*
X140685806Y-92387493D01*
X140664640Y-92419169D01*
X140659508Y-92431559D01*
X140641460Y-92453549D01*
X140614236Y-92461806D01*
X140587014Y-92453546D01*
X140570094Y-92432926D01*
X140569669Y-92430787D01*
X140547457Y-92397543D01*
X140514213Y-92375331D01*
X140509478Y-92374389D01*
X140487264Y-92369970D01*
X140487259Y-92369969D01*
X140484899Y-92369500D01*
X140482489Y-92369500D01*
X140413345Y-92369500D01*
X140378697Y-92355148D01*
X140117749Y-92094200D01*
X140112666Y-92087035D01*
X140112626Y-92087068D01*
X140109184Y-92082751D01*
X140106788Y-92077776D01*
X140102470Y-92074332D01*
X140102469Y-92074331D01*
X140081964Y-92057979D01*
X140077867Y-92054318D01*
X140073748Y-92050199D01*
X140071801Y-92048252D01*
X140069469Y-92046786D01*
X140069466Y-92046784D01*
X140064534Y-92043684D01*
X140060056Y-92040507D01*
X140045644Y-92029014D01*
X140035231Y-92020710D01*
X140029850Y-92019481D01*
X140024876Y-92017086D01*
X140024897Y-92017041D01*
X140023826Y-92016597D01*
X140023810Y-92016644D01*
X140018596Y-92014819D01*
X140013924Y-92011884D01*
X140008440Y-92011266D01*
X139982371Y-92008329D01*
X139976955Y-92007409D01*
X139971270Y-92006111D01*
X139971264Y-92006110D01*
X139968590Y-92005500D01*
X139965839Y-92005500D01*
X139960007Y-92005500D01*
X139954522Y-92005192D01*
X139928460Y-92002256D01*
X139922974Y-92001638D01*
X139917761Y-92003461D01*
X139912277Y-92004080D01*
X139912271Y-92004028D01*
X139903612Y-92005500D01*
X138877901Y-92005500D01*
X138854803Y-91999714D01*
X138837160Y-91983724D01*
X138818625Y-91955986D01*
X138814905Y-91950419D01*
X138806883Y-91918393D01*
X138820996Y-91888551D01*
X138959549Y-91750000D01*
X140259582Y-91750000D01*
X140260523Y-91754731D01*
X140276141Y-91833253D01*
X140276142Y-91833255D01*
X140277083Y-91837986D01*
X140292958Y-91861744D01*
X140322133Y-91905409D01*
X140326923Y-91912577D01*
X140401514Y-91962417D01*
X140489500Y-91979918D01*
X140577486Y-91962417D01*
X140652077Y-91912577D01*
X140701917Y-91837986D01*
X140719418Y-91750000D01*
X140701917Y-91662014D01*
X140652077Y-91587423D01*
X140577486Y-91537583D01*
X140572755Y-91536642D01*
X140572753Y-91536641D01*
X140494231Y-91521023D01*
X140489500Y-91520082D01*
X140484769Y-91521023D01*
X140406246Y-91536641D01*
X140406242Y-91536642D01*
X140401514Y-91537583D01*
X140397502Y-91540263D01*
X140397501Y-91540264D01*
X140330934Y-91584742D01*
X140330931Y-91584744D01*
X140326923Y-91587423D01*
X140324244Y-91591431D01*
X140324242Y-91591434D01*
X140279764Y-91658001D01*
X140277083Y-91662014D01*
X140276142Y-91666742D01*
X140276141Y-91666746D01*
X140261286Y-91741434D01*
X140259582Y-91750000D01*
X138959549Y-91750000D01*
X139007748Y-91701802D01*
X139044115Y-91643924D01*
X139054362Y-91552974D01*
X139051027Y-91543443D01*
X139052738Y-91506829D01*
X139079374Y-91481646D01*
X139116029Y-91481990D01*
X139118893Y-91483176D01*
X139195264Y-91498368D01*
X139204736Y-91498368D01*
X139281107Y-91483176D01*
X139289258Y-91479800D01*
X139292503Y-91475846D01*
X139289888Y-91470954D01*
X139128582Y-91309648D01*
X139114230Y-91275000D01*
X139310103Y-91275000D01*
X139312958Y-91281892D01*
X139395954Y-91364888D01*
X139400846Y-91367503D01*
X139404800Y-91364258D01*
X139408176Y-91356107D01*
X139423368Y-91279736D01*
X139423368Y-91270264D01*
X139408176Y-91193892D01*
X139404800Y-91185741D01*
X139400845Y-91182495D01*
X139395954Y-91185110D01*
X139312958Y-91268107D01*
X139310103Y-91275000D01*
X139114230Y-91275000D01*
X139128582Y-91240352D01*
X139200001Y-91168933D01*
X139238803Y-91130130D01*
X139263893Y-91116718D01*
X139278231Y-91113867D01*
X139344552Y-91069552D01*
X139388867Y-91003231D01*
X139399439Y-90950075D01*
X139412848Y-90924989D01*
X139447969Y-90889868D01*
X139475425Y-90876048D01*
X139505713Y-90881304D01*
X139526910Y-90903567D01*
X139530673Y-90934076D01*
X139519500Y-90990252D01*
X139519500Y-91229748D01*
X139519969Y-91232107D01*
X139519970Y-91232114D01*
X139530190Y-91283494D01*
X139530191Y-91283497D01*
X139531133Y-91288231D01*
X139533814Y-91292244D01*
X139533815Y-91292245D01*
X139569012Y-91344921D01*
X139575448Y-91354552D01*
X139641769Y-91398867D01*
X139700252Y-91410500D01*
X139997338Y-91410500D01*
X139999748Y-91410500D01*
X140058231Y-91398867D01*
X140124552Y-91354552D01*
X140124811Y-91354163D01*
X140147315Y-91342133D01*
X140175629Y-91344921D01*
X140197621Y-91362971D01*
X140198709Y-91364600D01*
X140205400Y-91371291D01*
X140270148Y-91414554D01*
X140278892Y-91418176D01*
X140335967Y-91429529D01*
X140340743Y-91430000D01*
X140405253Y-91430000D01*
X140412145Y-91427145D01*
X140415000Y-91420253D01*
X140415000Y-91420252D01*
X140565000Y-91420252D01*
X140567854Y-91427144D01*
X140574747Y-91429999D01*
X140639263Y-91429999D01*
X140644020Y-91429530D01*
X140701107Y-91418176D01*
X140709852Y-91414553D01*
X140774599Y-91371291D01*
X140781291Y-91364599D01*
X140824554Y-91299851D01*
X140828176Y-91291107D01*
X140839529Y-91234032D01*
X140840000Y-91229257D01*
X140840000Y-91194747D01*
X140837145Y-91187854D01*
X140830253Y-91185000D01*
X140574747Y-91185000D01*
X140567854Y-91187854D01*
X140565000Y-91194747D01*
X140565000Y-91420252D01*
X140415000Y-91420252D01*
X140415000Y-91025253D01*
X140565000Y-91025253D01*
X140567854Y-91032145D01*
X140574747Y-91035000D01*
X140830252Y-91035000D01*
X140837144Y-91032145D01*
X140839999Y-91025253D01*
X140839999Y-90990737D01*
X140839530Y-90985979D01*
X140828176Y-90928892D01*
X140824553Y-90920147D01*
X140781291Y-90855400D01*
X140774599Y-90848708D01*
X140709851Y-90805445D01*
X140701107Y-90801823D01*
X140644032Y-90790470D01*
X140639257Y-90790000D01*
X140574747Y-90790000D01*
X140567854Y-90792854D01*
X140565000Y-90799747D01*
X140565000Y-91025253D01*
X140415000Y-91025253D01*
X140415000Y-90799748D01*
X140412145Y-90792855D01*
X140405253Y-90790001D01*
X140340737Y-90790001D01*
X140335979Y-90790469D01*
X140278892Y-90801823D01*
X140270147Y-90805446D01*
X140205400Y-90848708D01*
X140198710Y-90855398D01*
X140197619Y-90857032D01*
X140175628Y-90875078D01*
X140147317Y-90877866D01*
X140124811Y-90865836D01*
X140124552Y-90865448D01*
X140109514Y-90855400D01*
X140062245Y-90823815D01*
X140062244Y-90823814D01*
X140058231Y-90821133D01*
X140053497Y-90820191D01*
X140053494Y-90820190D01*
X140002114Y-90809970D01*
X140002107Y-90809969D01*
X139999748Y-90809500D01*
X139712430Y-90809500D01*
X139680122Y-90797340D01*
X139663849Y-90766896D01*
X139671688Y-90733278D01*
X139685750Y-90712232D01*
X139707740Y-90694184D01*
X139736052Y-90691396D01*
X139781967Y-90700529D01*
X139786743Y-90701000D01*
X139851253Y-90701000D01*
X139858145Y-90698145D01*
X139861000Y-90691253D01*
X139861000Y-90355000D01*
X139875352Y-90320352D01*
X139910000Y-90306000D01*
X139962000Y-90306000D01*
X139996648Y-90320352D01*
X140011000Y-90355000D01*
X140011000Y-90691252D01*
X140013854Y-90698144D01*
X140020747Y-90700999D01*
X140085263Y-90700999D01*
X140090020Y-90700530D01*
X140147107Y-90689176D01*
X140155852Y-90685553D01*
X140220599Y-90642291D01*
X140227288Y-90635602D01*
X140228375Y-90633976D01*
X140250365Y-90615923D01*
X140278678Y-90613132D01*
X140301188Y-90625163D01*
X140301448Y-90625552D01*
X140367769Y-90669867D01*
X140426252Y-90681500D01*
X140723338Y-90681500D01*
X140725748Y-90681500D01*
X140784231Y-90669867D01*
X140850552Y-90625552D01*
X140853237Y-90621532D01*
X140854214Y-90620556D01*
X140858558Y-90615263D01*
X140858560Y-90615260D01*
X140862577Y-90612577D01*
X140912417Y-90537986D01*
X140929918Y-90450000D01*
X140912417Y-90362014D01*
X140910102Y-90358550D01*
X140906500Y-90340443D01*
X140906500Y-90283635D01*
X140920852Y-90248987D01*
X140978691Y-90191148D01*
X141042739Y-90127099D01*
X141074181Y-90112853D01*
X141107216Y-90122874D01*
X141125445Y-90152190D01*
X141131478Y-90182528D01*
X141131479Y-90182532D01*
X141132420Y-90187260D01*
X141135099Y-90191270D01*
X141135100Y-90191271D01*
X141159905Y-90228395D01*
X141162589Y-90232411D01*
X141166600Y-90235091D01*
X141202768Y-90259258D01*
X141221945Y-90284250D01*
X141221945Y-90315750D01*
X141202768Y-90340742D01*
X141166600Y-90364908D01*
X141166597Y-90364910D01*
X141162589Y-90367589D01*
X141159910Y-90371597D01*
X141159908Y-90371600D01*
X141141175Y-90399637D01*
X141132420Y-90412740D01*
X141131479Y-90417468D01*
X141131478Y-90417472D01*
X141124968Y-90450202D01*
X141124500Y-90452557D01*
X141124500Y-90454958D01*
X141124500Y-90454959D01*
X141124500Y-90645037D01*
X141124500Y-90645047D01*
X141124501Y-90647442D01*
X141124968Y-90649792D01*
X141124969Y-90649798D01*
X141127493Y-90662486D01*
X141132420Y-90687260D01*
X141135099Y-90691270D01*
X141135100Y-90691271D01*
X141159907Y-90728398D01*
X141162589Y-90732411D01*
X141207740Y-90762580D01*
X141247557Y-90770500D01*
X141802442Y-90770499D01*
X141842260Y-90762580D01*
X141887411Y-90732411D01*
X141903864Y-90707786D01*
X141922935Y-90691061D01*
X141947813Y-90686113D01*
X141971829Y-90694266D01*
X141977633Y-90698144D01*
X141986001Y-90703736D01*
X141986002Y-90703736D01*
X141990014Y-90706417D01*
X141994746Y-90707358D01*
X141996469Y-90707701D01*
X142021563Y-90721113D01*
X142036252Y-90735803D01*
X142045746Y-90749180D01*
X142046542Y-90750832D01*
X142049671Y-90785000D01*
X142029622Y-90812844D01*
X141996600Y-90834908D01*
X141996597Y-90834910D01*
X141992589Y-90837589D01*
X141989910Y-90841597D01*
X141989908Y-90841600D01*
X141965101Y-90878727D01*
X141962420Y-90882740D01*
X141961479Y-90887468D01*
X141961478Y-90887472D01*
X141954968Y-90920202D01*
X141954500Y-90922557D01*
X141954500Y-90924958D01*
X141954500Y-90924959D01*
X141954500Y-91475038D01*
X141954500Y-91475048D01*
X141954501Y-91477442D01*
X141954968Y-91479792D01*
X141954969Y-91479798D01*
X141960017Y-91505177D01*
X141962420Y-91517260D01*
X141962485Y-91517358D01*
X141964962Y-91542521D01*
X141951552Y-91567607D01*
X141781344Y-91737817D01*
X141781336Y-91737820D01*
X141781338Y-91737822D01*
X141775397Y-91743761D01*
X141740751Y-91758107D01*
X141706107Y-91743755D01*
X141703786Y-91741434D01*
X141701106Y-91737423D01*
X141695983Y-91734000D01*
X141647795Y-91701802D01*
X141626515Y-91687583D01*
X141621784Y-91686642D01*
X141621782Y-91686641D01*
X141543260Y-91671023D01*
X141538529Y-91670082D01*
X141533798Y-91671023D01*
X141455275Y-91686641D01*
X141455271Y-91686642D01*
X141450543Y-91687583D01*
X141446531Y-91690263D01*
X141446530Y-91690264D01*
X141379963Y-91734742D01*
X141379960Y-91734744D01*
X141375952Y-91737423D01*
X141373273Y-91741431D01*
X141373271Y-91741434D01*
X141328793Y-91808001D01*
X141326112Y-91812014D01*
X141325171Y-91816740D01*
X141325168Y-91816750D01*
X141319377Y-91845867D01*
X141298542Y-91877049D01*
X141261760Y-91884366D01*
X141204731Y-91873023D01*
X141200000Y-91872082D01*
X141195269Y-91873023D01*
X141116746Y-91888641D01*
X141116742Y-91888642D01*
X141112014Y-91889583D01*
X141108002Y-91892263D01*
X141108001Y-91892264D01*
X141041434Y-91936742D01*
X141041431Y-91936744D01*
X141037423Y-91939423D01*
X141034744Y-91943431D01*
X141034742Y-91943434D01*
X140990264Y-92010001D01*
X140987583Y-92014014D01*
X140986642Y-92018742D01*
X140986641Y-92018746D01*
X140975432Y-92075101D01*
X140970082Y-92102000D01*
X140971023Y-92106731D01*
X140986641Y-92185253D01*
X140986642Y-92185255D01*
X140987583Y-92189986D01*
X141005256Y-92216436D01*
X141026012Y-92247500D01*
X141037423Y-92264577D01*
X141040701Y-92266767D01*
X141054881Y-92301000D01*
X141040529Y-92335648D01*
X141018185Y-92344903D01*
X141018752Y-92346270D01*
X141002854Y-92352854D01*
X141000000Y-92359747D01*
X141000000Y-93230253D01*
X141002854Y-93237145D01*
X141009747Y-93240000D01*
X141084417Y-93240000D01*
X141089174Y-93239531D01*
X141117091Y-93233978D01*
X141125831Y-93230358D01*
X141157506Y-93209193D01*
X141164193Y-93202506D01*
X141185356Y-93170834D01*
X141190489Y-93158443D01*
X141208536Y-93136452D01*
X141235759Y-93128193D01*
X141262983Y-93136451D01*
X141279905Y-93157071D01*
X141280331Y-93159213D01*
X141302543Y-93192457D01*
X141327591Y-93209193D01*
X141333331Y-93213028D01*
X141351378Y-93235018D01*
X141354168Y-93263328D01*
X141341773Y-93286520D01*
X141340423Y-93287423D01*
X141337744Y-93291431D01*
X141337741Y-93291435D01*
X141300616Y-93346998D01*
X141290583Y-93362014D01*
X141289642Y-93366742D01*
X141289641Y-93366746D01*
X141280641Y-93411998D01*
X141273082Y-93450000D01*
X141274023Y-93454731D01*
X141289641Y-93533253D01*
X141289642Y-93533255D01*
X141290583Y-93537986D01*
X141315502Y-93575281D01*
X141319713Y-93581583D01*
X141340423Y-93612577D01*
X141415014Y-93662417D01*
X141503000Y-93679918D01*
X141590986Y-93662417D01*
X141665577Y-93612577D01*
X141715417Y-93537986D01*
X141732918Y-93450000D01*
X141715417Y-93362014D01*
X141683757Y-93314632D01*
X141675500Y-93287410D01*
X141675500Y-93262426D01*
X141683758Y-93235202D01*
X141705750Y-93217155D01*
X141709477Y-93215610D01*
X141714213Y-93214669D01*
X141747457Y-93192457D01*
X141769669Y-93159213D01*
X141775500Y-93129899D01*
X141775499Y-92460102D01*
X141770579Y-92435362D01*
X141774692Y-92404131D01*
X141796968Y-92381857D01*
X141828198Y-92377747D01*
X141829531Y-92378012D01*
X141840438Y-92380182D01*
X141871619Y-92401017D01*
X141878936Y-92437797D01*
X141878428Y-92440353D01*
X141874500Y-92460101D01*
X141874500Y-92462505D01*
X141874500Y-92462510D01*
X141874500Y-93127494D01*
X141874500Y-93127504D01*
X141874501Y-93129898D01*
X141874968Y-93132248D01*
X141874969Y-93132254D01*
X141879389Y-93154479D01*
X141879390Y-93154481D01*
X141880331Y-93159213D01*
X141902543Y-93192457D01*
X141935787Y-93214669D01*
X141965101Y-93220500D01*
X142107364Y-93220499D01*
X142126115Y-93224229D01*
X142142012Y-93234851D01*
X142186671Y-93279510D01*
X142199360Y-93310143D01*
X142200082Y-93310000D01*
X142200803Y-93313628D01*
X142200804Y-93313630D01*
X142201023Y-93314731D01*
X142216641Y-93393253D01*
X142216642Y-93393255D01*
X142217583Y-93397986D01*
X142227993Y-93413565D01*
X142256346Y-93456000D01*
X142267423Y-93472577D01*
X142342014Y-93522417D01*
X142430000Y-93539918D01*
X142517986Y-93522417D01*
X142592577Y-93472577D01*
X142642417Y-93397986D01*
X142659918Y-93310000D01*
X142658103Y-93300875D01*
X142648884Y-93254524D01*
X142650315Y-93240000D01*
X142650000Y-93240000D01*
X142650000Y-92769000D01*
X142664352Y-92734352D01*
X142699000Y-92720000D01*
X142751000Y-92720000D01*
X142785648Y-92734352D01*
X142800000Y-92769000D01*
X142800000Y-93230253D01*
X142802854Y-93237145D01*
X142809747Y-93240000D01*
X142884417Y-93240000D01*
X142889174Y-93239531D01*
X142917091Y-93233978D01*
X142925831Y-93230358D01*
X142957506Y-93209193D01*
X142964193Y-93202506D01*
X142985356Y-93170834D01*
X142990489Y-93158443D01*
X143008536Y-93136452D01*
X143035759Y-93128193D01*
X143062983Y-93136451D01*
X143079905Y-93157071D01*
X143080331Y-93159213D01*
X143102543Y-93192457D01*
X143135787Y-93214669D01*
X143140522Y-93215610D01*
X143144250Y-93217155D01*
X143166242Y-93235202D01*
X143174500Y-93262426D01*
X143174500Y-93601673D01*
X143174500Y-93682327D01*
X143177724Y-93687911D01*
X143177725Y-93687914D01*
X143181531Y-93694506D01*
X143186426Y-93706323D01*
X143188395Y-93713674D01*
X143188396Y-93713676D01*
X143190065Y-93719904D01*
X143194624Y-93724463D01*
X143233672Y-93763512D01*
X143246359Y-93794143D01*
X143247082Y-93794000D01*
X143248023Y-93798731D01*
X143263641Y-93877253D01*
X143263642Y-93877255D01*
X143264583Y-93881986D01*
X143314423Y-93956577D01*
X143389014Y-94006417D01*
X143477000Y-94023918D01*
X143564986Y-94006417D01*
X143639577Y-93956577D01*
X143689417Y-93881986D01*
X143706918Y-93794000D01*
X143689417Y-93706014D01*
X143639577Y-93631423D01*
X143632577Y-93626746D01*
X143568998Y-93584264D01*
X143568999Y-93584264D01*
X143564986Y-93581583D01*
X143560255Y-93580642D01*
X143560253Y-93580641D01*
X143529889Y-93574602D01*
X143514940Y-93571628D01*
X143486623Y-93554655D01*
X143475500Y-93523570D01*
X143475500Y-93262426D01*
X143483758Y-93235202D01*
X143505750Y-93217155D01*
X143509477Y-93215610D01*
X143514213Y-93214669D01*
X143547457Y-93192457D01*
X143569669Y-93159213D01*
X143570095Y-93157071D01*
X143587013Y-93136453D01*
X143614236Y-93128193D01*
X143641460Y-93136450D01*
X143659509Y-93158441D01*
X143664642Y-93170832D01*
X143685806Y-93202506D01*
X143692493Y-93209193D01*
X143724168Y-93230358D01*
X143732908Y-93233978D01*
X143760825Y-93239531D01*
X143765583Y-93240000D01*
X143840253Y-93240000D01*
X143847145Y-93237145D01*
X143850000Y-93230253D01*
X143850000Y-92359747D01*
X143844254Y-92345876D01*
X143831538Y-92334351D01*
X143826694Y-92301693D01*
X143836532Y-92252235D01*
X143836532Y-92252231D01*
X143837473Y-92247500D01*
X143819972Y-92159514D01*
X143790571Y-92115513D01*
X143782844Y-92081101D01*
X143794463Y-92060590D01*
X143773953Y-92072210D01*
X143739540Y-92064482D01*
X143705067Y-92041448D01*
X143695541Y-92035083D01*
X143690810Y-92034142D01*
X143690808Y-92034141D01*
X143612286Y-92018523D01*
X143607555Y-92017582D01*
X143602824Y-92018523D01*
X143524301Y-92034141D01*
X143524297Y-92034142D01*
X143519569Y-92035083D01*
X143515557Y-92037763D01*
X143515556Y-92037764D01*
X143502723Y-92046339D01*
X143469104Y-92054178D01*
X143438660Y-92037905D01*
X143426500Y-92005597D01*
X143426500Y-91928619D01*
X143439730Y-91896679D01*
X143439577Y-91896577D01*
X143440091Y-91895807D01*
X143489417Y-91821986D01*
X143495570Y-91791049D01*
X143513799Y-91761734D01*
X143546833Y-91751713D01*
X143578277Y-91765960D01*
X143597088Y-91784771D01*
X143597100Y-91784781D01*
X143801411Y-91989092D01*
X143815704Y-92021336D01*
X143806817Y-92048237D01*
X143833718Y-92039350D01*
X143865962Y-92053643D01*
X143964149Y-92151830D01*
X143976838Y-92182463D01*
X143977560Y-92182320D01*
X143978281Y-92185948D01*
X143978282Y-92185950D01*
X143978501Y-92187051D01*
X143994119Y-92265573D01*
X143994120Y-92265575D01*
X143995061Y-92270306D01*
X143997741Y-92274317D01*
X143997742Y-92274319D01*
X144006779Y-92287843D01*
X144015038Y-92315049D01*
X144009419Y-92333605D01*
X144010622Y-92334104D01*
X144000000Y-92359747D01*
X144000000Y-93230253D01*
X144002854Y-93237145D01*
X144009747Y-93240000D01*
X144084417Y-93240000D01*
X144089174Y-93239531D01*
X144117091Y-93233978D01*
X144125831Y-93230358D01*
X144157506Y-93209193D01*
X144164193Y-93202506D01*
X144185357Y-93170833D01*
X144190489Y-93158443D01*
X144208535Y-93136451D01*
X144235758Y-93128192D01*
X144262981Y-93136449D01*
X144279904Y-93157069D01*
X144280331Y-93159213D01*
X144283684Y-93164231D01*
X144285087Y-93166331D01*
X144292402Y-93203109D01*
X144283024Y-93250265D01*
X144282082Y-93255000D01*
X144283023Y-93259731D01*
X144298641Y-93338253D01*
X144298642Y-93338255D01*
X144299583Y-93342986D01*
X144315459Y-93366746D01*
X144343014Y-93407986D01*
X144349423Y-93417577D01*
X144424014Y-93467417D01*
X144512000Y-93484918D01*
X144599986Y-93467417D01*
X144674577Y-93417577D01*
X144724417Y-93342986D01*
X144741918Y-93255000D01*
X144737348Y-93232031D01*
X144738518Y-93208243D01*
X144747832Y-93192707D01*
X144747457Y-93192457D01*
X144747883Y-93191819D01*
X144769669Y-93159213D01*
X144775500Y-93129899D01*
X144775500Y-93105748D01*
X146109500Y-93105748D01*
X146109969Y-93108107D01*
X146109970Y-93108114D01*
X146120190Y-93159494D01*
X146120191Y-93159497D01*
X146121133Y-93164231D01*
X146123814Y-93168244D01*
X146123815Y-93168245D01*
X146158730Y-93220499D01*
X146165448Y-93230552D01*
X146176546Y-93237967D01*
X146197380Y-93269150D01*
X146190064Y-93305932D01*
X146151264Y-93364000D01*
X146151262Y-93364004D01*
X146148583Y-93368014D01*
X146147642Y-93372742D01*
X146147641Y-93372746D01*
X146133216Y-93445269D01*
X146131082Y-93456000D01*
X146132023Y-93460731D01*
X146147641Y-93539253D01*
X146147642Y-93539255D01*
X146148583Y-93543986D01*
X146198423Y-93618577D01*
X146273014Y-93668417D01*
X146361000Y-93685918D01*
X146448986Y-93668417D01*
X146523577Y-93618577D01*
X146573417Y-93543986D01*
X146590918Y-93456000D01*
X146573417Y-93368014D01*
X146568756Y-93361039D01*
X146560500Y-93333818D01*
X146560500Y-93318075D01*
X146568758Y-93290851D01*
X146588232Y-93274869D01*
X146588231Y-93274867D01*
X146588231Y-93274866D01*
X146654552Y-93230552D01*
X146698867Y-93164231D01*
X146710500Y-93105748D01*
X146710500Y-92806252D01*
X146698867Y-92747769D01*
X146654552Y-92681448D01*
X146650538Y-92678766D01*
X146647509Y-92676742D01*
X146628332Y-92651751D01*
X146628332Y-92620249D01*
X146647509Y-92595258D01*
X146654552Y-92590552D01*
X146698867Y-92524231D01*
X146710500Y-92465748D01*
X146710500Y-92166252D01*
X146698867Y-92107769D01*
X146654552Y-92041448D01*
X146645026Y-92035083D01*
X146592245Y-91999815D01*
X146592244Y-91999814D01*
X146588231Y-91997133D01*
X146583497Y-91996191D01*
X146583494Y-91996190D01*
X146532114Y-91985970D01*
X146532107Y-91985969D01*
X146529748Y-91985500D01*
X146290252Y-91985500D01*
X146287893Y-91985969D01*
X146287885Y-91985970D01*
X146236505Y-91996190D01*
X146236500Y-91996191D01*
X146231769Y-91997133D01*
X146227757Y-91999813D01*
X146227754Y-91999815D01*
X146169459Y-92038767D01*
X146169456Y-92038769D01*
X146165448Y-92041448D01*
X146162769Y-92045456D01*
X146162767Y-92045459D01*
X146123815Y-92103754D01*
X146123813Y-92103757D01*
X146121133Y-92107769D01*
X146120191Y-92112500D01*
X146120190Y-92112505D01*
X146109970Y-92163885D01*
X146109969Y-92163893D01*
X146109500Y-92166252D01*
X146109500Y-92465748D01*
X146109969Y-92468107D01*
X146109970Y-92468114D01*
X146120190Y-92519494D01*
X146120191Y-92519497D01*
X146121133Y-92524231D01*
X146123814Y-92528244D01*
X146123815Y-92528245D01*
X146141291Y-92554400D01*
X146165448Y-92590552D01*
X146169459Y-92593232D01*
X146169460Y-92593233D01*
X146172493Y-92595260D01*
X146191667Y-92620251D01*
X146191667Y-92651749D01*
X146172493Y-92676740D01*
X146169460Y-92678766D01*
X146169456Y-92678769D01*
X146165448Y-92681448D01*
X146162769Y-92685456D01*
X146162767Y-92685459D01*
X146123815Y-92743754D01*
X146123813Y-92743757D01*
X146121133Y-92747769D01*
X146120191Y-92752500D01*
X146120190Y-92752505D01*
X146109970Y-92803885D01*
X146109969Y-92803893D01*
X146109500Y-92806252D01*
X146109500Y-93105748D01*
X144775500Y-93105748D01*
X144775499Y-92460102D01*
X144769669Y-92430787D01*
X144747457Y-92397543D01*
X144747456Y-92397543D01*
X144748166Y-92397068D01*
X144737645Y-92377383D01*
X144740433Y-92349072D01*
X144758479Y-92327082D01*
X144829577Y-92279577D01*
X144879417Y-92204986D01*
X144880358Y-92200251D01*
X144882206Y-92195793D01*
X144883726Y-92196422D01*
X144892962Y-92179106D01*
X144918053Y-92165673D01*
X144946377Y-92168451D01*
X144968380Y-92186503D01*
X145002059Y-92236907D01*
X145010423Y-92249424D01*
X145085014Y-92299264D01*
X145173000Y-92316765D01*
X145260986Y-92299264D01*
X145335577Y-92249424D01*
X145385417Y-92174833D01*
X145402918Y-92086847D01*
X145385417Y-91998861D01*
X145335577Y-91924270D01*
X145337106Y-91923247D01*
X145325500Y-91895228D01*
X145325500Y-91609924D01*
X145331286Y-91586825D01*
X145347276Y-91569182D01*
X145357411Y-91562411D01*
X145384258Y-91522230D01*
X145409249Y-91503054D01*
X145440751Y-91503054D01*
X145465741Y-91522230D01*
X145492589Y-91562411D01*
X145537740Y-91592580D01*
X145577557Y-91600500D01*
X145772442Y-91600499D01*
X145812260Y-91592580D01*
X145857411Y-91562411D01*
X145887580Y-91517260D01*
X145895500Y-91477443D01*
X145895499Y-91255311D01*
X145896441Y-91245752D01*
X145899625Y-91229748D01*
X145904404Y-91205719D01*
X145908976Y-91182736D01*
X145909918Y-91178000D01*
X145908114Y-91168933D01*
X145900257Y-91129428D01*
X145896440Y-91110245D01*
X145895499Y-91100687D01*
X145895499Y-90924962D01*
X145895499Y-90924959D01*
X145895499Y-90922558D01*
X145887580Y-90882740D01*
X145885153Y-90879109D01*
X145883547Y-90846400D01*
X145903215Y-90819882D01*
X145945577Y-90791577D01*
X145952418Y-90781338D01*
X145978938Y-90761669D01*
X146007640Y-90763080D01*
X146007740Y-90762580D01*
X146047557Y-90770500D01*
X146602442Y-90770499D01*
X146642260Y-90762580D01*
X146687411Y-90732411D01*
X146717580Y-90687260D01*
X146725500Y-90647443D01*
X146725499Y-90452558D01*
X146717580Y-90412740D01*
X146687411Y-90367589D01*
X146679067Y-90362014D01*
X146665815Y-90353159D01*
X146647230Y-90340741D01*
X146628054Y-90315751D01*
X146628054Y-90284249D01*
X146647230Y-90259258D01*
X146687411Y-90232411D01*
X146717580Y-90187260D01*
X146725500Y-90147443D01*
X146725499Y-89952558D01*
X146719840Y-89924105D01*
X146722629Y-89895797D01*
X146740677Y-89873807D01*
X146767900Y-89865549D01*
X146795122Y-89873807D01*
X146805014Y-89880417D01*
X146879159Y-89895165D01*
X146883945Y-89896117D01*
X146893000Y-89897918D01*
X146902055Y-89896117D01*
X146906841Y-89895165D01*
X146980986Y-89880417D01*
X147055577Y-89830577D01*
X147105417Y-89755986D01*
X147122918Y-89668000D01*
X147105417Y-89580014D01*
X147055577Y-89505423D01*
X147050472Y-89502012D01*
X146982317Y-89456472D01*
X146966326Y-89438828D01*
X146960540Y-89415730D01*
X146960540Y-87676255D01*
X146960540Y-87669804D01*
X146953509Y-87657628D01*
X146948613Y-87645807D01*
X146946711Y-87638708D01*
X146944975Y-87632227D01*
X146940416Y-87627668D01*
X146940415Y-87627666D01*
X146887945Y-87575196D01*
X146887943Y-87575195D01*
X146803609Y-87490861D01*
X146789362Y-87459418D01*
X146799383Y-87426383D01*
X146828698Y-87408154D01*
X146847486Y-87404417D01*
X146922077Y-87354577D01*
X146971917Y-87279986D01*
X146989418Y-87192000D01*
X146971917Y-87104014D01*
X146922077Y-87029423D01*
X146906196Y-87018812D01*
X146851498Y-86982264D01*
X146851499Y-86982264D01*
X146847486Y-86979583D01*
X146842755Y-86978642D01*
X146842753Y-86978641D01*
X146759500Y-86962082D01*
X146759876Y-86960189D01*
X146736709Y-86951900D01*
X146719736Y-86923582D01*
X146717580Y-86912740D01*
X146687411Y-86867589D01*
X146642260Y-86837420D01*
X146637529Y-86836479D01*
X146637527Y-86836478D01*
X146604797Y-86829968D01*
X146604794Y-86829967D01*
X146602443Y-86829500D01*
X146600040Y-86829500D01*
X146524500Y-86829500D01*
X146489852Y-86815148D01*
X146475500Y-86780500D01*
X146475500Y-86550293D01*
X146489852Y-86515645D01*
X146522374Y-86483123D01*
X146636012Y-86369483D01*
X146651910Y-86358862D01*
X146666213Y-86356018D01*
X146666500Y-86356076D01*
X146754486Y-86338575D01*
X146829077Y-86288735D01*
X146878917Y-86214144D01*
X146896418Y-86126158D01*
X146878917Y-86038172D01*
X146829077Y-85963581D01*
X146808157Y-85949603D01*
X146762518Y-85919108D01*
X146754486Y-85913741D01*
X146749755Y-85912800D01*
X146749753Y-85912799D01*
X146671231Y-85897181D01*
X146666500Y-85896240D01*
X146661769Y-85897181D01*
X146583246Y-85912799D01*
X146583242Y-85912800D01*
X146578514Y-85913741D01*
X146574502Y-85916421D01*
X146574501Y-85916422D01*
X146507934Y-85960900D01*
X146507931Y-85960902D01*
X146503923Y-85963581D01*
X146501244Y-85967589D01*
X146501242Y-85967592D01*
X146456764Y-86034159D01*
X146454083Y-86038172D01*
X146453142Y-86042900D01*
X146453141Y-86042904D01*
X146442392Y-86096947D01*
X146437304Y-86122525D01*
X146437304Y-86122527D01*
X146436582Y-86126158D01*
X146435859Y-86126014D01*
X146423170Y-86156647D01*
X146345232Y-86234587D01*
X146315997Y-86263822D01*
X146290909Y-86277232D01*
X146262598Y-86274444D01*
X146240607Y-86256397D01*
X146233951Y-86234455D01*
X146233290Y-86234587D01*
X146215789Y-86146601D01*
X146165949Y-86072010D01*
X146154950Y-86064661D01*
X146109301Y-86034159D01*
X146091358Y-86022170D01*
X146086627Y-86021229D01*
X146086625Y-86021228D01*
X146008103Y-86005610D01*
X146003372Y-86004669D01*
X145998641Y-86005610D01*
X145920118Y-86021228D01*
X145920114Y-86021229D01*
X145915386Y-86022170D01*
X145911375Y-86024849D01*
X145911370Y-86024852D01*
X145902081Y-86031059D01*
X145874859Y-86039316D01*
X145847637Y-86031058D01*
X145827618Y-86017682D01*
X145812260Y-86007420D01*
X145807529Y-86006479D01*
X145807527Y-86006478D01*
X145774797Y-85999968D01*
X145774794Y-85999967D01*
X145772443Y-85999500D01*
X145770040Y-85999500D01*
X145579962Y-85999500D01*
X145579951Y-85999500D01*
X145577558Y-85999501D01*
X145575208Y-85999968D01*
X145575201Y-85999969D01*
X145542471Y-86006479D01*
X145537740Y-86007420D01*
X145533730Y-86010098D01*
X145533728Y-86010100D01*
X145496600Y-86034908D01*
X145496597Y-86034910D01*
X145492589Y-86037589D01*
X145489910Y-86041597D01*
X145489908Y-86041600D01*
X145465742Y-86077768D01*
X145440750Y-86096945D01*
X145409250Y-86096945D01*
X145384258Y-86077768D01*
X145360091Y-86041600D01*
X145357411Y-86037589D01*
X145349739Y-86032463D01*
X145327618Y-86017682D01*
X145312260Y-86007420D01*
X145307529Y-86006479D01*
X145307527Y-86006478D01*
X145274797Y-85999968D01*
X145274794Y-85999967D01*
X145272443Y-85999500D01*
X145270040Y-85999500D01*
X145248736Y-85999500D01*
X145221513Y-85991242D01*
X145203466Y-85969252D01*
X145200677Y-85940942D01*
X145200677Y-85940941D01*
X145206123Y-85913561D01*
X145219533Y-85888474D01*
X145244622Y-85875063D01*
X145309230Y-85862212D01*
X145317972Y-85858591D01*
X145319752Y-85857401D01*
X145323271Y-85853114D01*
X145320656Y-85848222D01*
X145153582Y-85681148D01*
X145139230Y-85646500D01*
X145153582Y-85611852D01*
X145190352Y-85575082D01*
X145225000Y-85560730D01*
X145259648Y-85575082D01*
X145426722Y-85742156D01*
X145431614Y-85744771D01*
X145435901Y-85741252D01*
X145437091Y-85739472D01*
X145440712Y-85730730D01*
X145456526Y-85651231D01*
X145456526Y-85641769D01*
X145440956Y-85563492D01*
X145443745Y-85535181D01*
X145461792Y-85513192D01*
X145522577Y-85472577D01*
X145572417Y-85397986D01*
X145589918Y-85310000D01*
X145572417Y-85222014D01*
X145569726Y-85217986D01*
X145568547Y-85216221D01*
X145567965Y-85213728D01*
X145567889Y-85213543D01*
X145567919Y-85213530D01*
X145560709Y-85182603D01*
X145576983Y-85152159D01*
X145609290Y-85140000D01*
X145661857Y-85140000D01*
X145692942Y-85151123D01*
X145709915Y-85179441D01*
X145716639Y-85213248D01*
X145716642Y-85213255D01*
X145717583Y-85217986D01*
X145736510Y-85246312D01*
X145766242Y-85290810D01*
X145774500Y-85318033D01*
X145774500Y-85369748D01*
X145774969Y-85372107D01*
X145774970Y-85372114D01*
X145785190Y-85423494D01*
X145785191Y-85423497D01*
X145786133Y-85428231D01*
X145788814Y-85432244D01*
X145788815Y-85432245D01*
X145824012Y-85484921D01*
X145830448Y-85494552D01*
X145896769Y-85538867D01*
X145955252Y-85550500D01*
X146252338Y-85550500D01*
X146254748Y-85550500D01*
X146313231Y-85538867D01*
X146379552Y-85494552D01*
X146379811Y-85494163D01*
X146402315Y-85482133D01*
X146430629Y-85484921D01*
X146452621Y-85502971D01*
X146453709Y-85504600D01*
X146460400Y-85511291D01*
X146525148Y-85554554D01*
X146533892Y-85558176D01*
X146590967Y-85569529D01*
X146595743Y-85570000D01*
X146660253Y-85570000D01*
X146667145Y-85567145D01*
X146670000Y-85560253D01*
X146670000Y-85560252D01*
X146820000Y-85560252D01*
X146822854Y-85567144D01*
X146829747Y-85569999D01*
X146894263Y-85569999D01*
X146899020Y-85569530D01*
X146956107Y-85558176D01*
X146964852Y-85554553D01*
X147029599Y-85511291D01*
X147036291Y-85504599D01*
X147079554Y-85439851D01*
X147083176Y-85431107D01*
X147094529Y-85374032D01*
X147095000Y-85369257D01*
X147095000Y-85334747D01*
X147092145Y-85327854D01*
X147085253Y-85325000D01*
X146829747Y-85325000D01*
X146822854Y-85327854D01*
X146820000Y-85334747D01*
X146820000Y-85560252D01*
X146670000Y-85560252D01*
X146670000Y-85165253D01*
X146820000Y-85165253D01*
X146822854Y-85172145D01*
X146829747Y-85175000D01*
X147085252Y-85175000D01*
X147092144Y-85172145D01*
X147094999Y-85165253D01*
X147094999Y-85130737D01*
X147094530Y-85125979D01*
X147083176Y-85068892D01*
X147079553Y-85060147D01*
X147036291Y-84995400D01*
X147029599Y-84988708D01*
X146964851Y-84945445D01*
X146956107Y-84941823D01*
X146899032Y-84930470D01*
X146894257Y-84930000D01*
X146829747Y-84930000D01*
X146822854Y-84932854D01*
X146820000Y-84939747D01*
X146820000Y-85165253D01*
X146670000Y-85165253D01*
X146670000Y-84939748D01*
X146667145Y-84932855D01*
X146660253Y-84930001D01*
X146595737Y-84930001D01*
X146590979Y-84930469D01*
X146533892Y-84941823D01*
X146525147Y-84945446D01*
X146460400Y-84988708D01*
X146453710Y-84995398D01*
X146452619Y-84997032D01*
X146430628Y-85015078D01*
X146402317Y-85017866D01*
X146379811Y-85005836D01*
X146379552Y-85005448D01*
X146364514Y-84995400D01*
X146317245Y-84963815D01*
X146317244Y-84963814D01*
X146313231Y-84961133D01*
X146308497Y-84960191D01*
X146308494Y-84960190D01*
X146257114Y-84949970D01*
X146257107Y-84949969D01*
X146254748Y-84949500D01*
X146252338Y-84949500D01*
X146088547Y-84949500D01*
X146053899Y-84935148D01*
X145968668Y-84849917D01*
X145964045Y-84843402D01*
X145963898Y-84843520D01*
X145960457Y-84839205D01*
X145958061Y-84834229D01*
X145953742Y-84830784D01*
X145953740Y-84830782D01*
X145935119Y-84815932D01*
X145931022Y-84812271D01*
X145927464Y-84808713D01*
X145927463Y-84808712D01*
X145925517Y-84806766D01*
X145919810Y-84803180D01*
X145918911Y-84802615D01*
X145914433Y-84799437D01*
X145911757Y-84797303D01*
X145891500Y-84781148D01*
X145886118Y-84779919D01*
X145881353Y-84777624D01*
X145876352Y-84775874D01*
X145871681Y-84772939D01*
X145866201Y-84772321D01*
X145866197Y-84772320D01*
X145842517Y-84769652D01*
X145837116Y-84768734D01*
X145829513Y-84767000D01*
X145826761Y-84767000D01*
X145821723Y-84767000D01*
X145816237Y-84766692D01*
X145792567Y-84764025D01*
X145787082Y-84763407D01*
X145781870Y-84765230D01*
X145776385Y-84765849D01*
X145776363Y-84765661D01*
X145768489Y-84767000D01*
X145336038Y-84767000D01*
X145315216Y-84760683D01*
X145314826Y-84761626D01*
X145310366Y-84759778D01*
X145306353Y-84757097D01*
X145301619Y-84756155D01*
X145301616Y-84756154D01*
X145229736Y-84741857D01*
X145225000Y-84740915D01*
X145220264Y-84741857D01*
X145148383Y-84756154D01*
X145148378Y-84756155D01*
X145143647Y-84757097D01*
X145139635Y-84759777D01*
X145139632Y-84759779D01*
X145078693Y-84800498D01*
X145078691Y-84800499D01*
X145074680Y-84803180D01*
X145072001Y-84807188D01*
X145071995Y-84807195D01*
X145051323Y-84838133D01*
X145033681Y-84854123D01*
X145026722Y-84857842D01*
X144825000Y-85059566D01*
X144729341Y-85155223D01*
X144726727Y-85160114D01*
X144730246Y-85164401D01*
X144732026Y-85165591D01*
X144740769Y-85169212D01*
X144786654Y-85178339D01*
X144809402Y-85189557D01*
X144823494Y-85210647D01*
X144825153Y-85235956D01*
X144812415Y-85300000D01*
X144813357Y-85304736D01*
X144828597Y-85381353D01*
X144827290Y-85381612D01*
X144829320Y-85402214D01*
X144815910Y-85427303D01*
X144790821Y-85440713D01*
X144751560Y-85448523D01*
X144743647Y-85450097D01*
X144739635Y-85452777D01*
X144739632Y-85452779D01*
X144678691Y-85493499D01*
X144678688Y-85493501D01*
X144674680Y-85496180D01*
X144672001Y-85500188D01*
X144671999Y-85500191D01*
X144631279Y-85561132D01*
X144631277Y-85561135D01*
X144628597Y-85565147D01*
X144627655Y-85569878D01*
X144627654Y-85569883D01*
X144613357Y-85641764D01*
X144612415Y-85646500D01*
X144613357Y-85651236D01*
X144627654Y-85723116D01*
X144627655Y-85723119D01*
X144628597Y-85727853D01*
X144631278Y-85731866D01*
X144631279Y-85731867D01*
X144666482Y-85784552D01*
X144674680Y-85796820D01*
X144718626Y-85826184D01*
X144724109Y-85829847D01*
X144731536Y-85835943D01*
X144740475Y-85844883D01*
X144753161Y-85875513D01*
X144753884Y-85875370D01*
X144754825Y-85880101D01*
X144766926Y-85940941D01*
X144764137Y-85969252D01*
X144746090Y-85991242D01*
X144718867Y-85999500D01*
X144579962Y-85999500D01*
X144579951Y-85999500D01*
X144577558Y-85999501D01*
X144575211Y-85999967D01*
X144575198Y-85999969D01*
X144543694Y-86006235D01*
X144515383Y-86003445D01*
X144500384Y-85991134D01*
X144499171Y-85992348D01*
X144495757Y-85988934D01*
X144493077Y-85984923D01*
X144483277Y-85978375D01*
X144430478Y-85943096D01*
X144418486Y-85935083D01*
X144413755Y-85934142D01*
X144413753Y-85934141D01*
X144335231Y-85918523D01*
X144330500Y-85917582D01*
X144325769Y-85918523D01*
X144247246Y-85934141D01*
X144247242Y-85934142D01*
X144242514Y-85935083D01*
X144239310Y-85937223D01*
X144206874Y-85938808D01*
X144180353Y-85919108D01*
X144172365Y-85887051D01*
X144184240Y-85862051D01*
X144183070Y-85861118D01*
X144184790Y-85858960D01*
X144186734Y-85857017D01*
X144190886Y-85850407D01*
X144194053Y-85845943D01*
X144195806Y-85843746D01*
X144214631Y-85829582D01*
X144218231Y-85828867D01*
X144284552Y-85784552D01*
X144328867Y-85718231D01*
X144340500Y-85659748D01*
X144340500Y-85360252D01*
X144328867Y-85301769D01*
X144284552Y-85235448D01*
X144277508Y-85230741D01*
X144258332Y-85205751D01*
X144258332Y-85174249D01*
X144277509Y-85149258D01*
X144284552Y-85144552D01*
X144328867Y-85078231D01*
X144340500Y-85019748D01*
X144340500Y-84958231D01*
X144593474Y-84958231D01*
X144609287Y-85037731D01*
X144612907Y-85046471D01*
X144614098Y-85048254D01*
X144618384Y-85051771D01*
X144623276Y-85049156D01*
X144714372Y-84958061D01*
X144717005Y-84953500D01*
X144714372Y-84948938D01*
X144623276Y-84857842D01*
X144618385Y-84855228D01*
X144614097Y-84858747D01*
X144612907Y-84860528D01*
X144609287Y-84869268D01*
X144593474Y-84948769D01*
X144593474Y-84958231D01*
X144340500Y-84958231D01*
X144340500Y-84746885D01*
X144726728Y-84746885D01*
X144729342Y-84751776D01*
X144820438Y-84842872D01*
X144825000Y-84845505D01*
X144829561Y-84842872D01*
X144920656Y-84751776D01*
X144923271Y-84746884D01*
X144919754Y-84742598D01*
X144917971Y-84741407D01*
X144909231Y-84737787D01*
X144829731Y-84721974D01*
X144820269Y-84721974D01*
X144740768Y-84737787D01*
X144732028Y-84741407D01*
X144730247Y-84742597D01*
X144726728Y-84746885D01*
X144340500Y-84746885D01*
X144340500Y-84720252D01*
X144328867Y-84661769D01*
X144284552Y-84595448D01*
X144272537Y-84587420D01*
X144222245Y-84553815D01*
X144222244Y-84553814D01*
X144218231Y-84551133D01*
X144213497Y-84550191D01*
X144213494Y-84550190D01*
X144162114Y-84539970D01*
X144162107Y-84539969D01*
X144159748Y-84539500D01*
X143920252Y-84539500D01*
X143917893Y-84539969D01*
X143917885Y-84539970D01*
X143866505Y-84550190D01*
X143866500Y-84550191D01*
X143861769Y-84551133D01*
X143857757Y-84553813D01*
X143857754Y-84553815D01*
X143799459Y-84592767D01*
X143799456Y-84592769D01*
X143795448Y-84595448D01*
X143792769Y-84599456D01*
X143792767Y-84599459D01*
X143753815Y-84657754D01*
X143753813Y-84657757D01*
X143751133Y-84661769D01*
X143750190Y-84666505D01*
X143750191Y-84666505D01*
X143739504Y-84720231D01*
X143722531Y-84748549D01*
X143691445Y-84759671D01*
X143660360Y-84748548D01*
X143643387Y-84720230D01*
X143633176Y-84668892D01*
X143629553Y-84660147D01*
X143586291Y-84595400D01*
X143579599Y-84588708D01*
X143514851Y-84545445D01*
X143506107Y-84541823D01*
X143449032Y-84530470D01*
X143444257Y-84530000D01*
X143409747Y-84530000D01*
X143402854Y-84532854D01*
X143400000Y-84539747D01*
X143400000Y-84906000D01*
X143385648Y-84940648D01*
X143351000Y-84955000D01*
X143014748Y-84955000D01*
X143005875Y-84958675D01*
X142968373Y-84958674D01*
X142942844Y-84933144D01*
X142935253Y-84930000D01*
X142314748Y-84930000D01*
X142307855Y-84932854D01*
X142305001Y-84939747D01*
X142305001Y-85004263D01*
X142305469Y-85009020D01*
X142316823Y-85066107D01*
X142320446Y-85074852D01*
X142363708Y-85139599D01*
X142370398Y-85146289D01*
X142372029Y-85147379D01*
X142390076Y-85169367D01*
X142392867Y-85197675D01*
X142380838Y-85220187D01*
X142380448Y-85220448D01*
X142377771Y-85224453D01*
X142377770Y-85224455D01*
X142355541Y-85257723D01*
X142337897Y-85273714D01*
X142314799Y-85279500D01*
X142257314Y-85279500D01*
X142226229Y-85268377D01*
X142209256Y-85240059D01*
X142208697Y-85237251D01*
X142196546Y-85176161D01*
X142143391Y-85096609D01*
X142133938Y-85090293D01*
X142067853Y-85046136D01*
X142067852Y-85046135D01*
X142063839Y-85043454D01*
X142059105Y-85042512D01*
X142059102Y-85042511D01*
X141996054Y-85029970D01*
X141996047Y-85029969D01*
X141993688Y-85029500D01*
X141991278Y-85029500D01*
X141807610Y-85029500D01*
X141772962Y-85015148D01*
X141691227Y-84933413D01*
X141677061Y-84903035D01*
X141685737Y-84870659D01*
X141713193Y-84851434D01*
X141723637Y-84848635D01*
X141725000Y-84843549D01*
X141725000Y-84059748D01*
X141722145Y-84052855D01*
X141715253Y-84050001D01*
X141606795Y-84050001D01*
X141602037Y-84050469D01*
X141533285Y-84064143D01*
X141524540Y-84067766D01*
X141446561Y-84119869D01*
X141439869Y-84126561D01*
X141387767Y-84204538D01*
X141384142Y-84213289D01*
X141370470Y-84282024D01*
X141370000Y-84286801D01*
X141370000Y-84306587D01*
X141357307Y-84339493D01*
X141325803Y-84355351D01*
X141291811Y-84345945D01*
X141277926Y-84324018D01*
X141275654Y-84324960D01*
X141273809Y-84320505D01*
X141272867Y-84315769D01*
X141228552Y-84249448D01*
X141218484Y-84242721D01*
X141166245Y-84207815D01*
X141166244Y-84207814D01*
X141162231Y-84205133D01*
X141157497Y-84204191D01*
X141157494Y-84204190D01*
X141106114Y-84193970D01*
X141106107Y-84193969D01*
X141103748Y-84193500D01*
X140864252Y-84193500D01*
X140861893Y-84193969D01*
X140861885Y-84193970D01*
X140810505Y-84204190D01*
X140810500Y-84204191D01*
X140805769Y-84205133D01*
X140801757Y-84207813D01*
X140801754Y-84207815D01*
X140743459Y-84246767D01*
X140743456Y-84246769D01*
X140739448Y-84249448D01*
X140736769Y-84253456D01*
X140736767Y-84253459D01*
X140697815Y-84311754D01*
X140697813Y-84311757D01*
X140695133Y-84315769D01*
X140694191Y-84320500D01*
X140694190Y-84320505D01*
X140683970Y-84371885D01*
X140683969Y-84371893D01*
X140683500Y-84374252D01*
X140683500Y-84376662D01*
X140683500Y-84516746D01*
X140669148Y-84551394D01*
X140634500Y-84565746D01*
X140599852Y-84551394D01*
X140326875Y-84278417D01*
X140322252Y-84271902D01*
X140322105Y-84272020D01*
X140318664Y-84267705D01*
X140316268Y-84262729D01*
X140311949Y-84259284D01*
X140311947Y-84259282D01*
X140293326Y-84244432D01*
X140289229Y-84240771D01*
X140285671Y-84237213D01*
X140283724Y-84235266D01*
X140281394Y-84233802D01*
X140277118Y-84231115D01*
X140272640Y-84227937D01*
X140269386Y-84225342D01*
X140249707Y-84209648D01*
X140244325Y-84208419D01*
X140239560Y-84206124D01*
X140234559Y-84204374D01*
X140229888Y-84201439D01*
X140224408Y-84200821D01*
X140224404Y-84200820D01*
X140200724Y-84198152D01*
X140195323Y-84197234D01*
X140187720Y-84195500D01*
X140184968Y-84195500D01*
X140179930Y-84195500D01*
X140174444Y-84195192D01*
X140150774Y-84192525D01*
X140145289Y-84191907D01*
X140140077Y-84193730D01*
X140134592Y-84194349D01*
X140134570Y-84194161D01*
X140126696Y-84195500D01*
X139724547Y-84195500D01*
X139689899Y-84181148D01*
X139667028Y-84158277D01*
X139653617Y-84133187D01*
X139648358Y-84106746D01*
X139647417Y-84102014D01*
X139597577Y-84027423D01*
X139590957Y-84023000D01*
X139553081Y-83997692D01*
X139522986Y-83977583D01*
X139518255Y-83976642D01*
X139518253Y-83976641D01*
X139439731Y-83961023D01*
X139435000Y-83960082D01*
X139430269Y-83961023D01*
X139351746Y-83976641D01*
X139351742Y-83976642D01*
X139347014Y-83977583D01*
X139343003Y-83980262D01*
X139342998Y-83980265D01*
X139287222Y-84017533D01*
X139260000Y-84025791D01*
X139232778Y-84017533D01*
X139177001Y-83980265D01*
X139176998Y-83980263D01*
X139172986Y-83977583D01*
X139168255Y-83976642D01*
X139168253Y-83976641D01*
X139089731Y-83961023D01*
X139085000Y-83960082D01*
X139080269Y-83961023D01*
X139001746Y-83976641D01*
X139001742Y-83976642D01*
X138997014Y-83977583D01*
X138993002Y-83980263D01*
X138993001Y-83980264D01*
X138926434Y-84024742D01*
X138926431Y-84024744D01*
X138922423Y-84027423D01*
X138919744Y-84031431D01*
X138919742Y-84031434D01*
X138875264Y-84098001D01*
X138872583Y-84102014D01*
X138871641Y-84106745D01*
X138871640Y-84106750D01*
X138859877Y-84165886D01*
X138839042Y-84197068D01*
X138802260Y-84204385D01*
X138762731Y-84196523D01*
X138758000Y-84195582D01*
X138753269Y-84196523D01*
X138674746Y-84212141D01*
X138674742Y-84212142D01*
X138670014Y-84213083D01*
X138666002Y-84215763D01*
X138666001Y-84215764D01*
X138599434Y-84260242D01*
X138599431Y-84260244D01*
X138595423Y-84262923D01*
X138592744Y-84266931D01*
X138592742Y-84266934D01*
X138553971Y-84324960D01*
X138545583Y-84337514D01*
X138544642Y-84342242D01*
X138544641Y-84342246D01*
X138531007Y-84410796D01*
X138528082Y-84425500D01*
X138529023Y-84430231D01*
X138544641Y-84508753D01*
X138544642Y-84508755D01*
X138545583Y-84513486D01*
X138562965Y-84539500D01*
X138590427Y-84580601D01*
X138595423Y-84588077D01*
X138670014Y-84637917D01*
X138758000Y-84655418D01*
X138845986Y-84637917D01*
X138920577Y-84588077D01*
X138970417Y-84513486D01*
X138983121Y-84449612D01*
X138994340Y-84426865D01*
X139015429Y-84412774D01*
X139040739Y-84411115D01*
X139080264Y-84418977D01*
X139080269Y-84418977D01*
X139085000Y-84419918D01*
X139172986Y-84402417D01*
X139232777Y-84362465D01*
X139260000Y-84354208D01*
X139287222Y-84362465D01*
X139347014Y-84402417D01*
X139378187Y-84408617D01*
X139403277Y-84422028D01*
X139466831Y-84485582D01*
X139471455Y-84492098D01*
X139471602Y-84491981D01*
X139475043Y-84496296D01*
X139477439Y-84501271D01*
X139481754Y-84504712D01*
X139481755Y-84504713D01*
X139500379Y-84519565D01*
X139504476Y-84523227D01*
X139509983Y-84528734D01*
X139512312Y-84530197D01*
X139512313Y-84530198D01*
X139516581Y-84532880D01*
X139521063Y-84536060D01*
X139528289Y-84541823D01*
X139544000Y-84554352D01*
X139549381Y-84555580D01*
X139554151Y-84557877D01*
X139559145Y-84559624D01*
X139563819Y-84562561D01*
X139592975Y-84565846D01*
X139598387Y-84566765D01*
X139605987Y-84568500D01*
X139613777Y-84568500D01*
X139619262Y-84568807D01*
X139648418Y-84572093D01*
X139653631Y-84570268D01*
X139659115Y-84569651D01*
X139659136Y-84569838D01*
X139667011Y-84568500D01*
X140069160Y-84568500D01*
X140103808Y-84582852D01*
X140126193Y-84605237D01*
X140139603Y-84630325D01*
X140136815Y-84658636D01*
X140118768Y-84680627D01*
X140066877Y-84715299D01*
X140066874Y-84715301D01*
X140062866Y-84717980D01*
X140060187Y-84721988D01*
X140060185Y-84721991D01*
X140016443Y-84787457D01*
X140013026Y-84792571D01*
X140012085Y-84797299D01*
X140012084Y-84797303D01*
X140000820Y-84853934D01*
X139995525Y-84880557D01*
X139996466Y-84885288D01*
X140012084Y-84963810D01*
X140012085Y-84963812D01*
X140013026Y-84968543D01*
X140026500Y-84988708D01*
X140056664Y-85033853D01*
X140062866Y-85043134D01*
X140066877Y-85045814D01*
X140070291Y-85049228D01*
X140069445Y-85050073D01*
X140084210Y-85068996D01*
X140084962Y-85099726D01*
X140067261Y-85124858D01*
X140038073Y-85134500D01*
X138171540Y-85134500D01*
X138136892Y-85120148D01*
X137886695Y-84869951D01*
X137875040Y-84843658D01*
X137848748Y-84832004D01*
X137459352Y-84442608D01*
X137445000Y-84407960D01*
X137445000Y-83453749D01*
X137445166Y-83449920D01*
X137445500Y-83448031D01*
X137445500Y-83350000D01*
X137445500Y-83317712D01*
X137445500Y-82752407D01*
X137445736Y-82747605D01*
X137448985Y-82714618D01*
X137459044Y-82612475D01*
X137460914Y-82603074D01*
X137499631Y-82475443D01*
X137503304Y-82466577D01*
X137566172Y-82348959D01*
X137571499Y-82340987D01*
X137656108Y-82237891D01*
X137662891Y-82231108D01*
X137765987Y-82146499D01*
X137773959Y-82141172D01*
X137891579Y-82078302D01*
X137900443Y-82074631D01*
X138028074Y-82035914D01*
X138037475Y-82034044D01*
X138158029Y-82022171D01*
X138172605Y-82020736D01*
X138177407Y-82020500D01*
X138207288Y-82020500D01*
X139184074Y-82020500D01*
X139216382Y-82032660D01*
X139232655Y-82063104D01*
X139224816Y-82096722D01*
X139207583Y-82122514D01*
X139206642Y-82127242D01*
X139206641Y-82127246D01*
X139193917Y-82191218D01*
X139190082Y-82210500D01*
X139191023Y-82215231D01*
X139191023Y-82215236D01*
X139203098Y-82275941D01*
X139200310Y-82304251D01*
X139182263Y-82326242D01*
X139155040Y-82334500D01*
X137941740Y-82334500D01*
X137939983Y-82334755D01*
X137939982Y-82334756D01*
X137877372Y-82343878D01*
X137877369Y-82343878D01*
X137873607Y-82344427D01*
X137870192Y-82346096D01*
X137870187Y-82346098D01*
X137772166Y-82394018D01*
X137768517Y-82395802D01*
X137765646Y-82398672D01*
X137765643Y-82398675D01*
X137688675Y-82475643D01*
X137688672Y-82475646D01*
X137685802Y-82478517D01*
X137684018Y-82482165D01*
X137684018Y-82482166D01*
X137636098Y-82580187D01*
X137636096Y-82580192D01*
X137634427Y-82583607D01*
X137633878Y-82587369D01*
X137633878Y-82587372D01*
X137632111Y-82599500D01*
X137624500Y-82651740D01*
X137624500Y-83468260D01*
X137634427Y-83536393D01*
X137685802Y-83641483D01*
X137768517Y-83724198D01*
X137772167Y-83725982D01*
X137772168Y-83725983D01*
X137846020Y-83762087D01*
X137866066Y-83780161D01*
X137873500Y-83806108D01*
X137873500Y-84582592D01*
X137872559Y-84592150D01*
X137866582Y-84622200D01*
X137867523Y-84626931D01*
X137883141Y-84705453D01*
X137883142Y-84705455D01*
X137884083Y-84710186D01*
X137892419Y-84722662D01*
X137924138Y-84770133D01*
X137928617Y-84790081D01*
X137948565Y-84794560D01*
X138008514Y-84834617D01*
X138064641Y-84845781D01*
X138085434Y-84849917D01*
X138096500Y-84852118D01*
X138184486Y-84834617D01*
X138259077Y-84784777D01*
X138308917Y-84710186D01*
X138326418Y-84622200D01*
X138308917Y-84534214D01*
X138259077Y-84459623D01*
X138251705Y-84454697D01*
X138196277Y-84417661D01*
X138180286Y-84400017D01*
X138174500Y-84376919D01*
X138174500Y-83834500D01*
X138188852Y-83799852D01*
X138223500Y-83785500D01*
X140156484Y-83785500D01*
X140158260Y-83785500D01*
X140226393Y-83775573D01*
X140331483Y-83724198D01*
X140414198Y-83641483D01*
X140465573Y-83536393D01*
X140475500Y-83468260D01*
X140475500Y-83049500D01*
X140489852Y-83014852D01*
X140524500Y-83000500D01*
X140738001Y-83000500D01*
X140772649Y-83014852D01*
X140787001Y-83049500D01*
X140787001Y-83318658D01*
X140787208Y-83320231D01*
X140787209Y-83320245D01*
X140791126Y-83350000D01*
X140793121Y-83365153D01*
X140794703Y-83368545D01*
X140794704Y-83368549D01*
X140838889Y-83463305D01*
X140838891Y-83463308D01*
X140840701Y-83467189D01*
X140920311Y-83546799D01*
X140924192Y-83548609D01*
X140924194Y-83548610D01*
X140948775Y-83560072D01*
X141022347Y-83594379D01*
X141068841Y-83600500D01*
X141581158Y-83600499D01*
X141627653Y-83594379D01*
X141729689Y-83546799D01*
X141736672Y-83539814D01*
X141758637Y-83527130D01*
X141784004Y-83527128D01*
X141805972Y-83539811D01*
X142295148Y-84028987D01*
X142309500Y-84063635D01*
X142309500Y-84193022D01*
X142298378Y-84224107D01*
X142270059Y-84241080D01*
X142237402Y-84236236D01*
X142215230Y-84211774D01*
X142212233Y-84204539D01*
X142160130Y-84126561D01*
X142153438Y-84119869D01*
X142075461Y-84067767D01*
X142066710Y-84064142D01*
X141997975Y-84050470D01*
X141993199Y-84050000D01*
X141884747Y-84050000D01*
X141877854Y-84052854D01*
X141875000Y-84059747D01*
X141875000Y-84365253D01*
X141877854Y-84372145D01*
X141884747Y-84375000D01*
X142220252Y-84375000D01*
X142227144Y-84372145D01*
X142229999Y-84365253D01*
X142229999Y-84312093D01*
X142241122Y-84281007D01*
X142269441Y-84264034D01*
X142302099Y-84268880D01*
X142320201Y-84288853D01*
X142321133Y-84288231D01*
X142365448Y-84354552D01*
X142431769Y-84398867D01*
X142473453Y-84407158D01*
X142480785Y-84408617D01*
X142490252Y-84410500D01*
X142490192Y-84410796D01*
X142519492Y-84425093D01*
X142532948Y-84456477D01*
X142522637Y-84489029D01*
X142493566Y-84506942D01*
X142443897Y-84516821D01*
X142435147Y-84520446D01*
X142370400Y-84563708D01*
X142363708Y-84570400D01*
X142319742Y-84636201D01*
X142295508Y-84655114D01*
X142264776Y-84655868D01*
X142239643Y-84638167D01*
X142230000Y-84608978D01*
X142230000Y-84534747D01*
X142227145Y-84527854D01*
X142220253Y-84525000D01*
X141884747Y-84525000D01*
X141877854Y-84527854D01*
X141875000Y-84534747D01*
X141875000Y-84840252D01*
X141877854Y-84847144D01*
X141884747Y-84849999D01*
X141993205Y-84849999D01*
X141997962Y-84849530D01*
X142066714Y-84835856D01*
X142075459Y-84832233D01*
X142153438Y-84780130D01*
X142160130Y-84773438D01*
X142214915Y-84691447D01*
X142216623Y-84692588D01*
X142232903Y-84674627D01*
X142265560Y-84669784D01*
X142293878Y-84686757D01*
X142305000Y-84717842D01*
X142305000Y-84770253D01*
X142307854Y-84777145D01*
X142314747Y-84780000D01*
X142935251Y-84780000D01*
X142944120Y-84776326D01*
X142969268Y-84773014D01*
X142992702Y-84782720D01*
X143007493Y-84801995D01*
X143014747Y-84805000D01*
X143240253Y-84805000D01*
X143247145Y-84802145D01*
X143250000Y-84795253D01*
X143250000Y-84539751D01*
X143249672Y-84538959D01*
X143246883Y-84510641D01*
X143257107Y-84491519D01*
X143256241Y-84490940D01*
X143295438Y-84432277D01*
X143313081Y-84416286D01*
X143336180Y-84410500D01*
X143427338Y-84410500D01*
X143429748Y-84410500D01*
X143488231Y-84398867D01*
X143554552Y-84354552D01*
X143598867Y-84288231D01*
X143610500Y-84229748D01*
X143610500Y-84055008D01*
X143618169Y-84033091D01*
X143616513Y-84032294D01*
X143618908Y-84027317D01*
X143622352Y-84023000D01*
X143623581Y-84017612D01*
X143625875Y-84012848D01*
X143627620Y-84007861D01*
X143630561Y-84003182D01*
X143633846Y-83974021D01*
X143634767Y-83968603D01*
X143636500Y-83961013D01*
X143636500Y-83953223D01*
X143636808Y-83947737D01*
X143636968Y-83946320D01*
X143640093Y-83918582D01*
X143638268Y-83913368D01*
X143637651Y-83907885D01*
X143637838Y-83907863D01*
X143636500Y-83899989D01*
X143636500Y-83649499D01*
X143650852Y-83614851D01*
X143685500Y-83600499D01*
X143704557Y-83600499D01*
X143706158Y-83600499D01*
X143752653Y-83594379D01*
X143854689Y-83546799D01*
X143934299Y-83467189D01*
X143981879Y-83365153D01*
X143988000Y-83318659D01*
X143987999Y-82481342D01*
X143981879Y-82434847D01*
X143980295Y-82431450D01*
X143936110Y-82336694D01*
X143936109Y-82336692D01*
X143934299Y-82332811D01*
X143854689Y-82253201D01*
X143850808Y-82251391D01*
X143850805Y-82251389D01*
X143756050Y-82207205D01*
X143756049Y-82207204D01*
X143752653Y-82205621D01*
X143748941Y-82205132D01*
X143748937Y-82205131D01*
X143707743Y-82199708D01*
X143707734Y-82199707D01*
X143706159Y-82199500D01*
X143704558Y-82199500D01*
X143195443Y-82199500D01*
X143195427Y-82199500D01*
X143193842Y-82199501D01*
X143192269Y-82199707D01*
X143192254Y-82199709D01*
X143151061Y-82205132D01*
X143151060Y-82205132D01*
X143147347Y-82205621D01*
X143143955Y-82207202D01*
X143143950Y-82207204D01*
X143049194Y-82251389D01*
X143049188Y-82251392D01*
X143045311Y-82253201D01*
X143042283Y-82256228D01*
X143042280Y-82256231D01*
X142968731Y-82329780D01*
X142968728Y-82329783D01*
X142965701Y-82332811D01*
X142963892Y-82336688D01*
X142963889Y-82336694D01*
X142919705Y-82431449D01*
X142919705Y-82431450D01*
X142918121Y-82434847D01*
X142917632Y-82438556D01*
X142917631Y-82438562D01*
X142912208Y-82479756D01*
X142912207Y-82479766D01*
X142912000Y-82481341D01*
X142912000Y-82482940D01*
X142912000Y-82482941D01*
X142912000Y-83317056D01*
X142912000Y-83317071D01*
X142912001Y-83318658D01*
X142912208Y-83320231D01*
X142912209Y-83320245D01*
X142916126Y-83350000D01*
X142918121Y-83365153D01*
X142919703Y-83368545D01*
X142919704Y-83368549D01*
X142963889Y-83463305D01*
X142963891Y-83463308D01*
X142965701Y-83467189D01*
X143045311Y-83546799D01*
X143049192Y-83548609D01*
X143049194Y-83548610D01*
X143073775Y-83560072D01*
X143147347Y-83594379D01*
X143193841Y-83600500D01*
X143214500Y-83600500D01*
X143249148Y-83614852D01*
X143263500Y-83649500D01*
X143263500Y-83760500D01*
X143249148Y-83795148D01*
X143214500Y-83809500D01*
X143130252Y-83809500D01*
X143127893Y-83809969D01*
X143127885Y-83809970D01*
X143076505Y-83820190D01*
X143076500Y-83820191D01*
X143071769Y-83821133D01*
X143067757Y-83823813D01*
X143067754Y-83823815D01*
X143009459Y-83862767D01*
X143009456Y-83862769D01*
X143005448Y-83865448D01*
X143002769Y-83869456D01*
X143002766Y-83869460D01*
X143000740Y-83872493D01*
X142975749Y-83891667D01*
X142944251Y-83891667D01*
X142919260Y-83872493D01*
X142917233Y-83869460D01*
X142917232Y-83869459D01*
X142914552Y-83865448D01*
X142848231Y-83821133D01*
X142843497Y-83820191D01*
X142843494Y-83820190D01*
X142792114Y-83809970D01*
X142792107Y-83809969D01*
X142789748Y-83809500D01*
X142787338Y-83809500D01*
X142521635Y-83809500D01*
X142486987Y-83795148D01*
X141877351Y-83185512D01*
X141862999Y-83150864D01*
X141862999Y-82482943D01*
X141862999Y-82482941D01*
X141862999Y-82481342D01*
X141856879Y-82434847D01*
X141855295Y-82431450D01*
X141811110Y-82336694D01*
X141811109Y-82336692D01*
X141809299Y-82332811D01*
X141729689Y-82253201D01*
X141725808Y-82251391D01*
X141725805Y-82251389D01*
X141631050Y-82207205D01*
X141631049Y-82207204D01*
X141627653Y-82205621D01*
X141623941Y-82205132D01*
X141623937Y-82205131D01*
X141582743Y-82199708D01*
X141582734Y-82199707D01*
X141581159Y-82199500D01*
X141579558Y-82199500D01*
X141070443Y-82199500D01*
X141070427Y-82199500D01*
X141068842Y-82199501D01*
X141067269Y-82199707D01*
X141067254Y-82199709D01*
X141026061Y-82205132D01*
X141026060Y-82205132D01*
X141022347Y-82205621D01*
X141018955Y-82207202D01*
X141018950Y-82207204D01*
X140924194Y-82251389D01*
X140924188Y-82251392D01*
X140920311Y-82253201D01*
X140917283Y-82256228D01*
X140917280Y-82256231D01*
X140843731Y-82329780D01*
X140843728Y-82329783D01*
X140840701Y-82332811D01*
X140838892Y-82336688D01*
X140838889Y-82336694D01*
X140794705Y-82431449D01*
X140794705Y-82431450D01*
X140793121Y-82434847D01*
X140792632Y-82438556D01*
X140792631Y-82438562D01*
X140787208Y-82479756D01*
X140787207Y-82479766D01*
X140787000Y-82481341D01*
X140787000Y-82482941D01*
X140787000Y-82550500D01*
X140772648Y-82585148D01*
X140738000Y-82599500D01*
X140503930Y-82599500D01*
X140477983Y-82592066D01*
X140459909Y-82572021D01*
X140449388Y-82550500D01*
X140414198Y-82478517D01*
X140331483Y-82395802D01*
X140283228Y-82372212D01*
X140229812Y-82346098D01*
X140229809Y-82346097D01*
X140226393Y-82344427D01*
X140222628Y-82343878D01*
X140222627Y-82343878D01*
X140160017Y-82334756D01*
X140158260Y-82334500D01*
X140156484Y-82334500D01*
X139684960Y-82334500D01*
X139657737Y-82326242D01*
X139639690Y-82304251D01*
X139636902Y-82275941D01*
X139648977Y-82215236D01*
X139648977Y-82215231D01*
X139649918Y-82210500D01*
X139632417Y-82122514D01*
X139615183Y-82096722D01*
X139607345Y-82063104D01*
X139623618Y-82032660D01*
X139655926Y-82020500D01*
X141780889Y-82020500D01*
X141783646Y-82020500D01*
X141897998Y-81994400D01*
X142003675Y-81943509D01*
X142005824Y-81941794D01*
X142005829Y-81941792D01*
X142044828Y-81910691D01*
X142075379Y-81900000D01*
X142974621Y-81900000D01*
X143005172Y-81910691D01*
G37*
%TD.AperFunction*%
%TA.AperFunction,Conductor*%
G36*
X145106884Y-90478258D02*
G01*
X145124931Y-90500248D01*
X145127719Y-90528558D01*
X145118582Y-90574500D01*
X145119523Y-90579231D01*
X145135141Y-90657753D01*
X145135142Y-90657755D01*
X145136083Y-90662486D01*
X145155317Y-90691272D01*
X145176702Y-90723277D01*
X145184541Y-90756896D01*
X145168268Y-90787340D01*
X145135961Y-90799500D01*
X145079962Y-90799500D01*
X145079951Y-90799500D01*
X145077558Y-90799501D01*
X145075208Y-90799968D01*
X145075201Y-90799969D01*
X145042471Y-90806479D01*
X145037740Y-90807420D01*
X145033730Y-90810098D01*
X145033728Y-90810100D01*
X144996600Y-90834908D01*
X144996597Y-90834910D01*
X144992589Y-90837589D01*
X144989910Y-90841597D01*
X144989908Y-90841600D01*
X144965742Y-90877768D01*
X144940750Y-90896945D01*
X144909250Y-90896945D01*
X144884258Y-90877768D01*
X144860091Y-90841600D01*
X144857411Y-90837589D01*
X144812260Y-90807420D01*
X144807529Y-90806479D01*
X144807527Y-90806478D01*
X144774797Y-90799968D01*
X144774794Y-90799967D01*
X144772443Y-90799500D01*
X144770040Y-90799500D01*
X144579962Y-90799500D01*
X144579951Y-90799500D01*
X144577558Y-90799501D01*
X144575208Y-90799968D01*
X144575201Y-90799969D01*
X144542471Y-90806479D01*
X144537740Y-90807420D01*
X144533730Y-90810098D01*
X144533728Y-90810100D01*
X144496600Y-90834908D01*
X144496597Y-90834910D01*
X144492589Y-90837589D01*
X144489910Y-90841597D01*
X144489908Y-90841600D01*
X144465742Y-90877768D01*
X144440750Y-90896945D01*
X144409250Y-90896945D01*
X144384258Y-90877768D01*
X144360091Y-90841600D01*
X144357411Y-90837589D01*
X144312260Y-90807420D01*
X144307529Y-90806479D01*
X144307527Y-90806478D01*
X144274797Y-90799968D01*
X144274794Y-90799967D01*
X144272443Y-90799500D01*
X144270040Y-90799500D01*
X144260099Y-90799500D01*
X144225451Y-90785148D01*
X143993951Y-90553648D01*
X143979599Y-90519000D01*
X143993951Y-90484352D01*
X144028599Y-90470000D01*
X145079661Y-90470000D01*
X145106884Y-90478258D01*
G37*
%TD.AperFunction*%
%TA.AperFunction,Conductor*%
G36*
X141940149Y-86514852D02*
G01*
X141954501Y-86549500D01*
X141954501Y-86677442D01*
X141954968Y-86679792D01*
X141954969Y-86679798D01*
X141958533Y-86697715D01*
X141962420Y-86717260D01*
X141965099Y-86721270D01*
X141965100Y-86721271D01*
X141988499Y-86756291D01*
X141992589Y-86762411D01*
X142037740Y-86792580D01*
X142077557Y-86800500D01*
X142272442Y-86800499D01*
X142312260Y-86792580D01*
X142357411Y-86762411D01*
X142384258Y-86722230D01*
X142409249Y-86703054D01*
X142440751Y-86703054D01*
X142465741Y-86722230D01*
X142492589Y-86762411D01*
X142537740Y-86792580D01*
X142577557Y-86800500D01*
X142772442Y-86800499D01*
X142812260Y-86792580D01*
X142857411Y-86762411D01*
X142884258Y-86722230D01*
X142909249Y-86703054D01*
X142940751Y-86703054D01*
X142965741Y-86722230D01*
X142992589Y-86762411D01*
X143037740Y-86792580D01*
X143077557Y-86800500D01*
X143272442Y-86800499D01*
X143312260Y-86792580D01*
X143357411Y-86762411D01*
X143384258Y-86722230D01*
X143409249Y-86703054D01*
X143440751Y-86703054D01*
X143465741Y-86722230D01*
X143492589Y-86762411D01*
X143537740Y-86792580D01*
X143577557Y-86800500D01*
X143772442Y-86800499D01*
X143812260Y-86792580D01*
X143857411Y-86762411D01*
X143884258Y-86722230D01*
X143909249Y-86703054D01*
X143940751Y-86703054D01*
X143965741Y-86722230D01*
X143992589Y-86762411D01*
X144037740Y-86792580D01*
X144064240Y-86797851D01*
X144095423Y-86818687D01*
X144102740Y-86855469D01*
X144094026Y-86899280D01*
X144089905Y-86920000D01*
X144090846Y-86924731D01*
X144106464Y-87003253D01*
X144106465Y-87003255D01*
X144107406Y-87007986D01*
X144110086Y-87011997D01*
X144110087Y-87011999D01*
X144138002Y-87053777D01*
X144145841Y-87087396D01*
X144129568Y-87117840D01*
X144097260Y-87130000D01*
X144009747Y-87130000D01*
X144002854Y-87132854D01*
X144000000Y-87139747D01*
X144000000Y-88715253D01*
X144002854Y-88722145D01*
X144009747Y-88725000D01*
X145585253Y-88725000D01*
X145592145Y-88722145D01*
X145595000Y-88715253D01*
X145595000Y-88581636D01*
X145603258Y-88554413D01*
X145625248Y-88536366D01*
X145653559Y-88533577D01*
X145699500Y-88542715D01*
X145787486Y-88525214D01*
X145848278Y-88484593D01*
X145881895Y-88476755D01*
X145912340Y-88493028D01*
X145924500Y-88525336D01*
X145924500Y-88645037D01*
X145924500Y-88645047D01*
X145924501Y-88647442D01*
X145924968Y-88649792D01*
X145924969Y-88649798D01*
X145930496Y-88677589D01*
X145932420Y-88687260D01*
X145935099Y-88691270D01*
X145935100Y-88691271D01*
X145952517Y-88717338D01*
X145962589Y-88732411D01*
X145966600Y-88735091D01*
X146002768Y-88759258D01*
X146021945Y-88784250D01*
X146021945Y-88815750D01*
X146002768Y-88840742D01*
X145966600Y-88864908D01*
X145966597Y-88864910D01*
X145962589Y-88867589D01*
X145959910Y-88871597D01*
X145959908Y-88871600D01*
X145935101Y-88908727D01*
X145932420Y-88912740D01*
X145931479Y-88917468D01*
X145931478Y-88917472D01*
X145924968Y-88950202D01*
X145924500Y-88952557D01*
X145924500Y-88954959D01*
X145924500Y-88954960D01*
X145924500Y-89047460D01*
X145912340Y-89079768D01*
X145881896Y-89096041D01*
X145848277Y-89088202D01*
X145791498Y-89050264D01*
X145791499Y-89050264D01*
X145787486Y-89047583D01*
X145782755Y-89046642D01*
X145782753Y-89046641D01*
X145704231Y-89031023D01*
X145699500Y-89030082D01*
X145694769Y-89031023D01*
X145653559Y-89039220D01*
X145625248Y-89036431D01*
X145603258Y-89018384D01*
X145595000Y-88991161D01*
X145595000Y-88884747D01*
X145592145Y-88877854D01*
X145585253Y-88875000D01*
X143899000Y-88875000D01*
X143864352Y-88860648D01*
X143850000Y-88826000D01*
X143850000Y-87139747D01*
X143847145Y-87132854D01*
X143840253Y-87130000D01*
X142421475Y-87130000D01*
X142416717Y-87130468D01*
X142370719Y-87139617D01*
X142361974Y-87143240D01*
X142309796Y-87178104D01*
X142303104Y-87184796D01*
X142268240Y-87236974D01*
X142264617Y-87245719D01*
X142255468Y-87291717D01*
X142255000Y-87296475D01*
X142255000Y-88287139D01*
X142246742Y-88314362D01*
X142224752Y-88332409D01*
X142196441Y-88335198D01*
X142135231Y-88323023D01*
X142130500Y-88322082D01*
X142125769Y-88323023D01*
X142047246Y-88338641D01*
X142047242Y-88338642D01*
X142042514Y-88339583D01*
X142038502Y-88342263D01*
X142038501Y-88342264D01*
X141967923Y-88389423D01*
X141966903Y-88387896D01*
X141938881Y-88399499D01*
X141934923Y-88399499D01*
X141911825Y-88393713D01*
X141894181Y-88377722D01*
X141891324Y-88373446D01*
X141887411Y-88367589D01*
X141864781Y-88352468D01*
X141845604Y-88327476D01*
X141845605Y-88295975D01*
X141864782Y-88270984D01*
X141897457Y-88249151D01*
X141904150Y-88242458D01*
X141933267Y-88198880D01*
X141936890Y-88190135D01*
X141944531Y-88151718D01*
X141945000Y-88146961D01*
X141945000Y-88134747D01*
X141942145Y-88127854D01*
X141935253Y-88125000D01*
X141114747Y-88125000D01*
X141107854Y-88127854D01*
X141105000Y-88134747D01*
X141105000Y-88146961D01*
X141105468Y-88151718D01*
X141113109Y-88190135D01*
X141116732Y-88198880D01*
X141145849Y-88242458D01*
X141152541Y-88249150D01*
X141185218Y-88270984D01*
X141204394Y-88295975D01*
X141204395Y-88327476D01*
X141185219Y-88352467D01*
X141166601Y-88364907D01*
X141166597Y-88364910D01*
X141162589Y-88367589D01*
X141159910Y-88371597D01*
X141159908Y-88371600D01*
X141135942Y-88407469D01*
X141132420Y-88412740D01*
X141131479Y-88417468D01*
X141131478Y-88417472D01*
X141124968Y-88450202D01*
X141124500Y-88452557D01*
X141124500Y-88454958D01*
X141124500Y-88454959D01*
X141124500Y-88645037D01*
X141124500Y-88645047D01*
X141124501Y-88647442D01*
X141124968Y-88649792D01*
X141124969Y-88649798D01*
X141130496Y-88677589D01*
X141132420Y-88687260D01*
X141135099Y-88691270D01*
X141135100Y-88691271D01*
X141152517Y-88717338D01*
X141162589Y-88732411D01*
X141166600Y-88735091D01*
X141202768Y-88759258D01*
X141221945Y-88784250D01*
X141221945Y-88815750D01*
X141202768Y-88840742D01*
X141166600Y-88864908D01*
X141166597Y-88864910D01*
X141162589Y-88867589D01*
X141159910Y-88871597D01*
X141159908Y-88871600D01*
X141135101Y-88908727D01*
X141132420Y-88912740D01*
X141131479Y-88917468D01*
X141131478Y-88917472D01*
X141124968Y-88950202D01*
X141124500Y-88952557D01*
X141124500Y-88954958D01*
X141124500Y-88954959D01*
X141124500Y-89145037D01*
X141124500Y-89145047D01*
X141124501Y-89147442D01*
X141124968Y-89149792D01*
X141124969Y-89149798D01*
X141129388Y-89172014D01*
X141132420Y-89187260D01*
X141135099Y-89191270D01*
X141135100Y-89191271D01*
X141158022Y-89225577D01*
X141162589Y-89232411D01*
X141166600Y-89235091D01*
X141202768Y-89259258D01*
X141221945Y-89284250D01*
X141221945Y-89315750D01*
X141202768Y-89340742D01*
X141166600Y-89364908D01*
X141166597Y-89364910D01*
X141162589Y-89367589D01*
X141159910Y-89371597D01*
X141159908Y-89371600D01*
X141144397Y-89394815D01*
X141132420Y-89412740D01*
X141131479Y-89417468D01*
X141131478Y-89417472D01*
X141124968Y-89450202D01*
X141124500Y-89452557D01*
X141124500Y-89454960D01*
X141124500Y-89467364D01*
X141110147Y-89502012D01*
X141020459Y-89591702D01*
X140988148Y-89624013D01*
X140963060Y-89637423D01*
X140934749Y-89634635D01*
X140912758Y-89616588D01*
X140904500Y-89589365D01*
X140904500Y-89563662D01*
X140904500Y-89561252D01*
X140892867Y-89502769D01*
X140848552Y-89436448D01*
X140844540Y-89433767D01*
X140844139Y-89433366D01*
X140829892Y-89401918D01*
X140839918Y-89368882D01*
X140865291Y-89353110D01*
X140865021Y-89352457D01*
X140868986Y-89350814D01*
X140869237Y-89350658D01*
X140874213Y-89349669D01*
X140907457Y-89327457D01*
X140929669Y-89294213D01*
X140935500Y-89264899D01*
X140935499Y-88545102D01*
X140929669Y-88515787D01*
X140907457Y-88482543D01*
X140903446Y-88479863D01*
X140900031Y-88476448D01*
X140901527Y-88474951D01*
X140888114Y-88457315D01*
X140888196Y-88425893D01*
X140907347Y-88400982D01*
X140917504Y-88394195D01*
X140924193Y-88387506D01*
X140945358Y-88355831D01*
X140948978Y-88347091D01*
X140954531Y-88319174D01*
X140955000Y-88314417D01*
X140955000Y-88039747D01*
X140952145Y-88032854D01*
X140945253Y-88030000D01*
X140324747Y-88030000D01*
X140317854Y-88032854D01*
X140315000Y-88039747D01*
X140315000Y-88314417D01*
X140315468Y-88319174D01*
X140321021Y-88347091D01*
X140324641Y-88355831D01*
X140345806Y-88387506D01*
X140352495Y-88394195D01*
X140362654Y-88400983D01*
X140381781Y-88425829D01*
X140381928Y-88457185D01*
X140368496Y-88474975D01*
X140369969Y-88476448D01*
X140366552Y-88479863D01*
X140362543Y-88482543D01*
X140359865Y-88486550D01*
X140359863Y-88486553D01*
X140355537Y-88493028D01*
X140340331Y-88515787D01*
X140339389Y-88520519D01*
X140339389Y-88520521D01*
X140334970Y-88542735D01*
X140334969Y-88542741D01*
X140334500Y-88545101D01*
X140334500Y-88547505D01*
X140334500Y-88547510D01*
X140334500Y-89262494D01*
X140334500Y-89262504D01*
X140334501Y-89264898D01*
X140334968Y-89267248D01*
X140334969Y-89267254D01*
X140339389Y-89289479D01*
X140339390Y-89289481D01*
X140340331Y-89294213D01*
X140362543Y-89327457D01*
X140362665Y-89327538D01*
X140374594Y-89349855D01*
X140371806Y-89378166D01*
X140353760Y-89400156D01*
X140303460Y-89433766D01*
X140303456Y-89433769D01*
X140299448Y-89436448D01*
X140296769Y-89440456D01*
X140296766Y-89440460D01*
X140294740Y-89443493D01*
X140269749Y-89462667D01*
X140238251Y-89462667D01*
X140213260Y-89443493D01*
X140211233Y-89440460D01*
X140211232Y-89440459D01*
X140208552Y-89436448D01*
X140204538Y-89433766D01*
X140146245Y-89394815D01*
X140146244Y-89394814D01*
X140142231Y-89392133D01*
X140137497Y-89391191D01*
X140137494Y-89391190D01*
X140086114Y-89380970D01*
X140086107Y-89380969D01*
X140083748Y-89380500D01*
X139784252Y-89380500D01*
X139781893Y-89380969D01*
X139781885Y-89380970D01*
X139730505Y-89391190D01*
X139730500Y-89391191D01*
X139725769Y-89392133D01*
X139721757Y-89394813D01*
X139721754Y-89394815D01*
X139663459Y-89433767D01*
X139663456Y-89433769D01*
X139659448Y-89436448D01*
X139656769Y-89440456D01*
X139656767Y-89440459D01*
X139617815Y-89498754D01*
X139617813Y-89498757D01*
X139615133Y-89502769D01*
X139614191Y-89507500D01*
X139614190Y-89507505D01*
X139603970Y-89558885D01*
X139603969Y-89558893D01*
X139603500Y-89561252D01*
X139603500Y-89800748D01*
X139603969Y-89803107D01*
X139603970Y-89803114D01*
X139614190Y-89854494D01*
X139614191Y-89854497D01*
X139615133Y-89859231D01*
X139617814Y-89863244D01*
X139617815Y-89863245D01*
X139656492Y-89921129D01*
X139659448Y-89925552D01*
X139725769Y-89969867D01*
X139742525Y-89973200D01*
X139770841Y-89990170D01*
X139781965Y-90021255D01*
X139770843Y-90052341D01*
X139742526Y-90069315D01*
X139724895Y-90072822D01*
X139716147Y-90076446D01*
X139651400Y-90119708D01*
X139644708Y-90126400D01*
X139601445Y-90191148D01*
X139597823Y-90199892D01*
X139586470Y-90256967D01*
X139586000Y-90261743D01*
X139586000Y-90313626D01*
X139577742Y-90340849D01*
X139555752Y-90358896D01*
X139527442Y-90361685D01*
X139503665Y-90356956D01*
X139503664Y-90356956D01*
X139498933Y-90356015D01*
X139494202Y-90356956D01*
X139415679Y-90372574D01*
X139415675Y-90372575D01*
X139410947Y-90373516D01*
X139406935Y-90376196D01*
X139406934Y-90376197D01*
X139343261Y-90418742D01*
X139316038Y-90427000D01*
X138750209Y-90427000D01*
X138722986Y-90418742D01*
X138707999Y-90408728D01*
X138690381Y-90396956D01*
X138685650Y-90396015D01*
X138685648Y-90396014D01*
X138607126Y-90380396D01*
X138602395Y-90379455D01*
X138597664Y-90380396D01*
X138597659Y-90380396D01*
X138559059Y-90388074D01*
X138530748Y-90385286D01*
X138508758Y-90367239D01*
X138500500Y-90340016D01*
X138500500Y-90320178D01*
X138506286Y-90297080D01*
X138522277Y-90279436D01*
X138524766Y-90277772D01*
X138544552Y-90264552D01*
X138588867Y-90198231D01*
X138600500Y-90139748D01*
X138600500Y-89893529D01*
X138612660Y-89861221D01*
X138643104Y-89844948D01*
X138676723Y-89852787D01*
X138723271Y-89883889D01*
X138741616Y-89911341D01*
X138742345Y-89911040D01*
X138743861Y-89914702D01*
X138744105Y-89915066D01*
X138744190Y-89915495D01*
X138744191Y-89915499D01*
X138745133Y-89920231D01*
X138747812Y-89924241D01*
X138747813Y-89924242D01*
X138784432Y-89979046D01*
X138789448Y-89986552D01*
X138789836Y-89986811D01*
X138801866Y-90009317D01*
X138799078Y-90037628D01*
X138781032Y-90059619D01*
X138779398Y-90060710D01*
X138772708Y-90067400D01*
X138729445Y-90132148D01*
X138725823Y-90140892D01*
X138714470Y-90197967D01*
X138714000Y-90202743D01*
X138714000Y-90267253D01*
X138716854Y-90274145D01*
X138723747Y-90277000D01*
X139344252Y-90277000D01*
X139351144Y-90274145D01*
X139353999Y-90267253D01*
X139353999Y-90202737D01*
X139353530Y-90197979D01*
X139342176Y-90140892D01*
X139338553Y-90132147D01*
X139295291Y-90067400D01*
X139288600Y-90060709D01*
X139286971Y-90059621D01*
X139268921Y-90037629D01*
X139266133Y-90009315D01*
X139278163Y-89986811D01*
X139278552Y-89986552D01*
X139322867Y-89920231D01*
X139334500Y-89861748D01*
X139334500Y-89562252D01*
X139322867Y-89503769D01*
X139278552Y-89437448D01*
X139276174Y-89435859D01*
X139262376Y-89405406D01*
X139272398Y-89372371D01*
X139301714Y-89354143D01*
X139324213Y-89349669D01*
X139357457Y-89327457D01*
X139379669Y-89294213D01*
X139385500Y-89264899D01*
X139385499Y-88545102D01*
X139379669Y-88515787D01*
X139357457Y-88482543D01*
X139359371Y-88481264D01*
X139348872Y-88458092D01*
X139358893Y-88425058D01*
X139388205Y-88406831D01*
X139424213Y-88399669D01*
X139457457Y-88377457D01*
X139479669Y-88344213D01*
X139487469Y-88305000D01*
X139487469Y-87965253D01*
X141105000Y-87965253D01*
X141107854Y-87972145D01*
X141114747Y-87975000D01*
X141440253Y-87975000D01*
X141447145Y-87972145D01*
X141450000Y-87965253D01*
X141600000Y-87965253D01*
X141602854Y-87972145D01*
X141609747Y-87975000D01*
X141935253Y-87975000D01*
X141942145Y-87972145D01*
X141945000Y-87965253D01*
X141945000Y-87953039D01*
X141944531Y-87948281D01*
X141936890Y-87909864D01*
X141933267Y-87901119D01*
X141904150Y-87857541D01*
X141897458Y-87850849D01*
X141882331Y-87840742D01*
X141863154Y-87815751D01*
X141863154Y-87784249D01*
X141882331Y-87759258D01*
X141897458Y-87749150D01*
X141904150Y-87742458D01*
X141933267Y-87698880D01*
X141936890Y-87690135D01*
X141944531Y-87651718D01*
X141945000Y-87646961D01*
X141945000Y-87634747D01*
X141942145Y-87627854D01*
X141935253Y-87625000D01*
X141609747Y-87625000D01*
X141602854Y-87627854D01*
X141600000Y-87634747D01*
X141600000Y-87780254D01*
X141600412Y-87781249D01*
X141600412Y-87818751D01*
X141600000Y-87819746D01*
X141600000Y-87965253D01*
X141450000Y-87965253D01*
X141450000Y-87819749D01*
X141449588Y-87818755D01*
X141445857Y-87800000D01*
X141449588Y-87781245D01*
X141450000Y-87780251D01*
X141450000Y-87634747D01*
X141447145Y-87627854D01*
X141440253Y-87625000D01*
X141114747Y-87625000D01*
X141107854Y-87627854D01*
X141105000Y-87634747D01*
X141105000Y-87646961D01*
X141105468Y-87651718D01*
X141113109Y-87690135D01*
X141116732Y-87698880D01*
X141145849Y-87742458D01*
X141152539Y-87749148D01*
X141167669Y-87759258D01*
X141186845Y-87784250D01*
X141186845Y-87815750D01*
X141167669Y-87840742D01*
X141152539Y-87850851D01*
X141145849Y-87857541D01*
X141116732Y-87901119D01*
X141113109Y-87909864D01*
X141105468Y-87948281D01*
X141105000Y-87953039D01*
X141105000Y-87965253D01*
X139487469Y-87965253D01*
X139487469Y-87605000D01*
X139479669Y-87565787D01*
X139457457Y-87532543D01*
X139442415Y-87522493D01*
X139439048Y-87520243D01*
X139420135Y-87496008D01*
X139419380Y-87465276D01*
X139437081Y-87440143D01*
X139466270Y-87430500D01*
X139762338Y-87430500D01*
X139764748Y-87430500D01*
X139823231Y-87418867D01*
X139889552Y-87374552D01*
X139889811Y-87374163D01*
X139912315Y-87362133D01*
X139940629Y-87364921D01*
X139962621Y-87382971D01*
X139963709Y-87384600D01*
X139970400Y-87391291D01*
X140035148Y-87434554D01*
X140043892Y-87438176D01*
X140100967Y-87449529D01*
X140105743Y-87450000D01*
X140170253Y-87450000D01*
X140177145Y-87447145D01*
X140180000Y-87440253D01*
X140180000Y-87104000D01*
X140194352Y-87069352D01*
X140229000Y-87055000D01*
X140281000Y-87055000D01*
X140315648Y-87069352D01*
X140330000Y-87104000D01*
X140330000Y-87440252D01*
X140334453Y-87451004D01*
X140351221Y-87465706D01*
X140357373Y-87496593D01*
X140347057Y-87517531D01*
X140348485Y-87518485D01*
X140324641Y-87554168D01*
X140321021Y-87562908D01*
X140315468Y-87590825D01*
X140315000Y-87595583D01*
X140315000Y-87870253D01*
X140317854Y-87877145D01*
X140324747Y-87880000D01*
X140550253Y-87880000D01*
X140557145Y-87877145D01*
X140560000Y-87870253D01*
X140710000Y-87870253D01*
X140712854Y-87877145D01*
X140719747Y-87880000D01*
X140945253Y-87880000D01*
X140952145Y-87877145D01*
X140955000Y-87870253D01*
X140955000Y-87595583D01*
X140954531Y-87590825D01*
X140948978Y-87562908D01*
X140945358Y-87554168D01*
X140924193Y-87522493D01*
X140917506Y-87515806D01*
X140885831Y-87494641D01*
X140877091Y-87491021D01*
X140849174Y-87485468D01*
X140844417Y-87485000D01*
X140719747Y-87485000D01*
X140712854Y-87487854D01*
X140710000Y-87494747D01*
X140710000Y-87870253D01*
X140560000Y-87870253D01*
X140560000Y-87494747D01*
X140557145Y-87487854D01*
X140541794Y-87481496D01*
X140524452Y-87465253D01*
X141105000Y-87465253D01*
X141107854Y-87472145D01*
X141114747Y-87475000D01*
X141935253Y-87475000D01*
X141942145Y-87472145D01*
X141945000Y-87465253D01*
X141945000Y-87453039D01*
X141944531Y-87448281D01*
X141936890Y-87409864D01*
X141933267Y-87401119D01*
X141904150Y-87357541D01*
X141897458Y-87350849D01*
X141864781Y-87329015D01*
X141845604Y-87304023D01*
X141845605Y-87272522D01*
X141864780Y-87247532D01*
X141887411Y-87232411D01*
X141917580Y-87187260D01*
X141925500Y-87147443D01*
X141925499Y-86952558D01*
X141917580Y-86912740D01*
X141887411Y-86867589D01*
X141842260Y-86837420D01*
X141837529Y-86836479D01*
X141837527Y-86836478D01*
X141804797Y-86829968D01*
X141804794Y-86829967D01*
X141802443Y-86829500D01*
X141800040Y-86829500D01*
X141577178Y-86829500D01*
X141567619Y-86828559D01*
X141529731Y-86821023D01*
X141525000Y-86820082D01*
X141520269Y-86821023D01*
X141482379Y-86828559D01*
X141472820Y-86829500D01*
X141249961Y-86829500D01*
X141249950Y-86829500D01*
X141247558Y-86829501D01*
X141245208Y-86829968D01*
X141245201Y-86829969D01*
X141212471Y-86836479D01*
X141207740Y-86837420D01*
X141203730Y-86840098D01*
X141203728Y-86840100D01*
X141166600Y-86864908D01*
X141166597Y-86864910D01*
X141162589Y-86867589D01*
X141159910Y-86871597D01*
X141159908Y-86871600D01*
X141135101Y-86908727D01*
X141132420Y-86912740D01*
X141131479Y-86917468D01*
X141131478Y-86917472D01*
X141124968Y-86950202D01*
X141124500Y-86952557D01*
X141124500Y-86954958D01*
X141124500Y-86954959D01*
X141124500Y-87145037D01*
X141124500Y-87145047D01*
X141124501Y-87147442D01*
X141124968Y-87149792D01*
X141124969Y-87149798D01*
X141124993Y-87149918D01*
X141132420Y-87187260D01*
X141162589Y-87232411D01*
X141185216Y-87247530D01*
X141185218Y-87247531D01*
X141204394Y-87272522D01*
X141204395Y-87304023D01*
X141185219Y-87329015D01*
X141152539Y-87350851D01*
X141145849Y-87357541D01*
X141116732Y-87401119D01*
X141113109Y-87409864D01*
X141105468Y-87448281D01*
X141105000Y-87453039D01*
X141105000Y-87465253D01*
X140524452Y-87465253D01*
X140516598Y-87457897D01*
X140513216Y-87423541D01*
X140533326Y-87395482D01*
X140539601Y-87391289D01*
X140546291Y-87384599D01*
X140589554Y-87319851D01*
X140593174Y-87311111D01*
X140599978Y-87276906D01*
X140611197Y-87254157D01*
X140632286Y-87240066D01*
X140657596Y-87238407D01*
X140704571Y-87247751D01*
X140704576Y-87247751D01*
X140709307Y-87248692D01*
X140797293Y-87231191D01*
X140871884Y-87181351D01*
X140921724Y-87106760D01*
X140939225Y-87018774D01*
X140921724Y-86930788D01*
X140871884Y-86856197D01*
X140860517Y-86848602D01*
X140832544Y-86829911D01*
X140797293Y-86806357D01*
X140792562Y-86805416D01*
X140792560Y-86805415D01*
X140714038Y-86789797D01*
X140709307Y-86788856D01*
X140704576Y-86789797D01*
X140623909Y-86805842D01*
X140593399Y-86802078D01*
X140571136Y-86780881D01*
X140565880Y-86750593D01*
X140579700Y-86723137D01*
X140787986Y-86514852D01*
X140822635Y-86500500D01*
X141905501Y-86500500D01*
X141940149Y-86514852D01*
G37*
%TD.AperFunction*%
%TA.AperFunction,Conductor*%
G36*
X141941752Y-89232478D02*
G01*
X142006014Y-89275417D01*
X142094000Y-89292918D01*
X142181986Y-89275417D01*
X142185998Y-89272736D01*
X142187247Y-89272219D01*
X142218681Y-89270157D01*
X142244874Y-89287658D01*
X142255000Y-89317488D01*
X142255000Y-90249388D01*
X142242840Y-90281696D01*
X142212395Y-90297969D01*
X142178778Y-90290130D01*
X142165986Y-90281583D01*
X142161255Y-90280642D01*
X142161253Y-90280641D01*
X142082731Y-90265023D01*
X142078000Y-90264082D01*
X142073269Y-90265023D01*
X141994746Y-90280641D01*
X141994742Y-90280642D01*
X141990014Y-90281583D01*
X141986003Y-90284262D01*
X141985998Y-90284265D01*
X141942261Y-90313489D01*
X141907848Y-90321217D01*
X141877161Y-90303831D01*
X141866098Y-90270341D01*
X141880392Y-90238097D01*
X141883392Y-90235095D01*
X141887411Y-90232411D01*
X141917580Y-90187260D01*
X141925500Y-90147443D01*
X141925499Y-89952558D01*
X141917580Y-89912740D01*
X141887411Y-89867589D01*
X141883399Y-89864908D01*
X141847231Y-89840741D01*
X141828054Y-89815749D01*
X141828055Y-89784248D01*
X141847229Y-89759259D01*
X141887411Y-89732411D01*
X141917580Y-89687260D01*
X141925500Y-89647443D01*
X141925499Y-89452558D01*
X141917580Y-89412740D01*
X141887411Y-89367589D01*
X141847230Y-89340741D01*
X141828055Y-89315751D01*
X141828054Y-89284250D01*
X141847228Y-89259260D01*
X141887311Y-89232477D01*
X141914530Y-89224221D01*
X141941752Y-89232478D01*
G37*
%TD.AperFunction*%
%TA.AperFunction,Conductor*%
G36*
X159865148Y-65134852D02*
G01*
X159879500Y-65169500D01*
X159879500Y-124830500D01*
X159865148Y-124865148D01*
X159830500Y-124879500D01*
X100169500Y-124879500D01*
X100134852Y-124865148D01*
X100120500Y-124830500D01*
X100120500Y-98496945D01*
X115387018Y-98496945D01*
X115387312Y-98499122D01*
X115387313Y-98499124D01*
X115417268Y-98720263D01*
X115417269Y-98720268D01*
X115417563Y-98722437D01*
X115418238Y-98724514D01*
X115418240Y-98724523D01*
X115453891Y-98834243D01*
X115487880Y-98938851D01*
X115488917Y-98940779D01*
X115488921Y-98940787D01*
X115594670Y-99137301D01*
X115594674Y-99137308D01*
X115595710Y-99139232D01*
X115737585Y-99317138D01*
X115908948Y-99466853D01*
X116104289Y-99583564D01*
X116317330Y-99663520D01*
X116541224Y-99704150D01*
X116710671Y-99704150D01*
X116711775Y-99704150D01*
X116881635Y-99688862D01*
X117100986Y-99628325D01*
X117306003Y-99529595D01*
X117490095Y-99395843D01*
X117647347Y-99231371D01*
X117772705Y-99041463D01*
X117862138Y-98832223D01*
X117912773Y-98610377D01*
X117917867Y-98496945D01*
X118562018Y-98496945D01*
X118562312Y-98499122D01*
X118562313Y-98499124D01*
X118592268Y-98720263D01*
X118592269Y-98720268D01*
X118592563Y-98722437D01*
X118593238Y-98724514D01*
X118593240Y-98724523D01*
X118628891Y-98834243D01*
X118662880Y-98938851D01*
X118663917Y-98940779D01*
X118663921Y-98940787D01*
X118769670Y-99137301D01*
X118769674Y-99137308D01*
X118770710Y-99139232D01*
X118912585Y-99317138D01*
X119083948Y-99466853D01*
X119279289Y-99583564D01*
X119492330Y-99663520D01*
X119716224Y-99704150D01*
X119885671Y-99704150D01*
X119886775Y-99704150D01*
X120056635Y-99688862D01*
X120275986Y-99628325D01*
X120481003Y-99529595D01*
X120665095Y-99395843D01*
X120822347Y-99231371D01*
X120947705Y-99041463D01*
X121037138Y-98832223D01*
X121087773Y-98610377D01*
X121097982Y-98383055D01*
X121067437Y-98157563D01*
X120997120Y-97941149D01*
X120996078Y-97939212D01*
X120890329Y-97742698D01*
X120890326Y-97742694D01*
X120889290Y-97740768D01*
X120747415Y-97562862D01*
X120576052Y-97413147D01*
X120469443Y-97349451D01*
X120382601Y-97297565D01*
X120382599Y-97297564D01*
X120380711Y-97296436D01*
X120372811Y-97293471D01*
X120169736Y-97217255D01*
X120169732Y-97217253D01*
X120167670Y-97216480D01*
X120165510Y-97216088D01*
X120165503Y-97216086D01*
X119945938Y-97176242D01*
X119945934Y-97176241D01*
X119943776Y-97175850D01*
X119773225Y-97175850D01*
X119772144Y-97175947D01*
X119772128Y-97175948D01*
X119605552Y-97190941D01*
X119605550Y-97190941D01*
X119603365Y-97191138D01*
X119601256Y-97191719D01*
X119601245Y-97191722D01*
X119386131Y-97251090D01*
X119386123Y-97251092D01*
X119384014Y-97251675D01*
X119382046Y-97252622D01*
X119382037Y-97252626D01*
X119180976Y-97349451D01*
X119180967Y-97349456D01*
X119178997Y-97350405D01*
X119177228Y-97351690D01*
X119177220Y-97351695D01*
X118996683Y-97482864D01*
X118996674Y-97482871D01*
X118994905Y-97484157D01*
X118993388Y-97485743D01*
X118993383Y-97485748D01*
X118839175Y-97647036D01*
X118839169Y-97647042D01*
X118837653Y-97648629D01*
X118836443Y-97650461D01*
X118836439Y-97650467D01*
X118713507Y-97836699D01*
X118713501Y-97836709D01*
X118712295Y-97838537D01*
X118711435Y-97840547D01*
X118711429Y-97840560D01*
X118623725Y-98045756D01*
X118623722Y-98045763D01*
X118622862Y-98047777D01*
X118622374Y-98049910D01*
X118622372Y-98049920D01*
X118572717Y-98267475D01*
X118572227Y-98269623D01*
X118572128Y-98271814D01*
X118572128Y-98271819D01*
X118562116Y-98494747D01*
X118562116Y-98494754D01*
X118562018Y-98496945D01*
X117917867Y-98496945D01*
X117922982Y-98383055D01*
X117892437Y-98157563D01*
X117822120Y-97941149D01*
X117821078Y-97939212D01*
X117715329Y-97742698D01*
X117715326Y-97742694D01*
X117714290Y-97740768D01*
X117572415Y-97562862D01*
X117401052Y-97413147D01*
X117294443Y-97349451D01*
X117278625Y-97340000D01*
X117744592Y-97340000D01*
X117745534Y-97344736D01*
X117763092Y-97433007D01*
X117763093Y-97433009D01*
X117764034Y-97437740D01*
X117766713Y-97441750D01*
X117766714Y-97441751D01*
X117788058Y-97473696D01*
X117819399Y-97520601D01*
X117902260Y-97575966D01*
X118000000Y-97595408D01*
X118097740Y-97575966D01*
X118180601Y-97520601D01*
X118235966Y-97437740D01*
X118255408Y-97340000D01*
X118235966Y-97242260D01*
X118180601Y-97159399D01*
X118097740Y-97104034D01*
X118093009Y-97103093D01*
X118093007Y-97103092D01*
X118004736Y-97085534D01*
X118000000Y-97084592D01*
X117995264Y-97085534D01*
X117906992Y-97103092D01*
X117906988Y-97103093D01*
X117902260Y-97104034D01*
X117898250Y-97106712D01*
X117898248Y-97106714D01*
X117823410Y-97156718D01*
X117823407Y-97156720D01*
X117819399Y-97159399D01*
X117816720Y-97163407D01*
X117816718Y-97163410D01*
X117766714Y-97238248D01*
X117766712Y-97238250D01*
X117764034Y-97242260D01*
X117763093Y-97246988D01*
X117763092Y-97246992D01*
X117747395Y-97325910D01*
X117744592Y-97340000D01*
X117278625Y-97340000D01*
X117207601Y-97297565D01*
X117207599Y-97297564D01*
X117205711Y-97296436D01*
X117197811Y-97293471D01*
X116994736Y-97217255D01*
X116994732Y-97217253D01*
X116992670Y-97216480D01*
X116990510Y-97216088D01*
X116990503Y-97216086D01*
X116770938Y-97176242D01*
X116770934Y-97176241D01*
X116768776Y-97175850D01*
X116598225Y-97175850D01*
X116597144Y-97175947D01*
X116597128Y-97175948D01*
X116430552Y-97190941D01*
X116430550Y-97190941D01*
X116428365Y-97191138D01*
X116426256Y-97191719D01*
X116426245Y-97191722D01*
X116211131Y-97251090D01*
X116211123Y-97251092D01*
X116209014Y-97251675D01*
X116207046Y-97252622D01*
X116207037Y-97252626D01*
X116005976Y-97349451D01*
X116005967Y-97349456D01*
X116003997Y-97350405D01*
X116002228Y-97351690D01*
X116002220Y-97351695D01*
X115821683Y-97482864D01*
X115821674Y-97482871D01*
X115819905Y-97484157D01*
X115818388Y-97485743D01*
X115818383Y-97485748D01*
X115664175Y-97647036D01*
X115664169Y-97647042D01*
X115662653Y-97648629D01*
X115661443Y-97650461D01*
X115661439Y-97650467D01*
X115538507Y-97836699D01*
X115538501Y-97836709D01*
X115537295Y-97838537D01*
X115536435Y-97840547D01*
X115536429Y-97840560D01*
X115448725Y-98045756D01*
X115448722Y-98045763D01*
X115447862Y-98047777D01*
X115447374Y-98049910D01*
X115447372Y-98049920D01*
X115397717Y-98267475D01*
X115397227Y-98269623D01*
X115397128Y-98271814D01*
X115397128Y-98271819D01*
X115387116Y-98494747D01*
X115387116Y-98494754D01*
X115387018Y-98496945D01*
X100120500Y-98496945D01*
X100120500Y-96916000D01*
X114173064Y-96916000D01*
X114173483Y-96919183D01*
X114192303Y-97062137D01*
X114192304Y-97062141D01*
X114192723Y-97065322D01*
X114193951Y-97068287D01*
X114193952Y-97068290D01*
X114245079Y-97191722D01*
X114250359Y-97204468D01*
X114252311Y-97207012D01*
X114252314Y-97207017D01*
X114286133Y-97251090D01*
X114342045Y-97323955D01*
X114344593Y-97325910D01*
X114458982Y-97413685D01*
X114458985Y-97413687D01*
X114461532Y-97415641D01*
X114600678Y-97473277D01*
X114712508Y-97488000D01*
X114785892Y-97488000D01*
X114787492Y-97488000D01*
X114899322Y-97473277D01*
X115038468Y-97415641D01*
X115157955Y-97323955D01*
X115249641Y-97204468D01*
X115307277Y-97065322D01*
X115326936Y-96916000D01*
X115307277Y-96766678D01*
X115249641Y-96627532D01*
X115247687Y-96624985D01*
X115247685Y-96624982D01*
X115159910Y-96510593D01*
X115157955Y-96508045D01*
X115155406Y-96506089D01*
X115041017Y-96418314D01*
X115041012Y-96418311D01*
X115038468Y-96416359D01*
X115035499Y-96415129D01*
X114902290Y-96359952D01*
X114902287Y-96359951D01*
X114899322Y-96358723D01*
X114896141Y-96358304D01*
X114896137Y-96358303D01*
X114789076Y-96344208D01*
X114789067Y-96344207D01*
X114787492Y-96344000D01*
X114712508Y-96344000D01*
X114710933Y-96344207D01*
X114710923Y-96344208D01*
X114603862Y-96358303D01*
X114603856Y-96358304D01*
X114600678Y-96358723D01*
X114597714Y-96359950D01*
X114597709Y-96359952D01*
X114464500Y-96415129D01*
X114464496Y-96415131D01*
X114461532Y-96416359D01*
X114458990Y-96418308D01*
X114458982Y-96418314D01*
X114344593Y-96506089D01*
X114344589Y-96506092D01*
X114342045Y-96508045D01*
X114340092Y-96510589D01*
X114340089Y-96510593D01*
X114252314Y-96624982D01*
X114252308Y-96624990D01*
X114250359Y-96627532D01*
X114249131Y-96630496D01*
X114249129Y-96630500D01*
X114193952Y-96763709D01*
X114193950Y-96763714D01*
X114192723Y-96766678D01*
X114192304Y-96769856D01*
X114192303Y-96769862D01*
X114173483Y-96912817D01*
X114173064Y-96916000D01*
X100120500Y-96916000D01*
X100120500Y-95900000D01*
X119253064Y-95900000D01*
X119253483Y-95903183D01*
X119272303Y-96046137D01*
X119272304Y-96046141D01*
X119272723Y-96049322D01*
X119273951Y-96052287D01*
X119273952Y-96052290D01*
X119282711Y-96073435D01*
X119330359Y-96188468D01*
X119332311Y-96191012D01*
X119332314Y-96191017D01*
X119412037Y-96294912D01*
X119422045Y-96307955D01*
X119424593Y-96309910D01*
X119538982Y-96397685D01*
X119538985Y-96397687D01*
X119541532Y-96399641D01*
X119680678Y-96457277D01*
X119792508Y-96472000D01*
X119865892Y-96472000D01*
X119867492Y-96472000D01*
X119979322Y-96457277D01*
X120118468Y-96399641D01*
X120237955Y-96307955D01*
X120329641Y-96188468D01*
X120387277Y-96049322D01*
X120403634Y-95925074D01*
X120406517Y-95903183D01*
X120406936Y-95900000D01*
X120387277Y-95750678D01*
X120329641Y-95611532D01*
X120327687Y-95608985D01*
X120327685Y-95608982D01*
X120239910Y-95494593D01*
X120237955Y-95492045D01*
X120209226Y-95470000D01*
X120121017Y-95402314D01*
X120121012Y-95402311D01*
X120118468Y-95400359D01*
X120115499Y-95399129D01*
X119982290Y-95343952D01*
X119982287Y-95343951D01*
X119979322Y-95342723D01*
X119976141Y-95342304D01*
X119976137Y-95342303D01*
X119869076Y-95328208D01*
X119869067Y-95328207D01*
X119867492Y-95328000D01*
X119792508Y-95328000D01*
X119790933Y-95328207D01*
X119790923Y-95328208D01*
X119683862Y-95342303D01*
X119683856Y-95342304D01*
X119680678Y-95342723D01*
X119677714Y-95343950D01*
X119677709Y-95343952D01*
X119544500Y-95399129D01*
X119544496Y-95399131D01*
X119541532Y-95400359D01*
X119538990Y-95402308D01*
X119538982Y-95402314D01*
X119424593Y-95490089D01*
X119424589Y-95490092D01*
X119422045Y-95492045D01*
X119420092Y-95494589D01*
X119420089Y-95494593D01*
X119332314Y-95608982D01*
X119332308Y-95608990D01*
X119330359Y-95611532D01*
X119329131Y-95614496D01*
X119329129Y-95614500D01*
X119273952Y-95747709D01*
X119273950Y-95747714D01*
X119272723Y-95750678D01*
X119272304Y-95753856D01*
X119272303Y-95753862D01*
X119253483Y-95896817D01*
X119253064Y-95900000D01*
X100120500Y-95900000D01*
X100120500Y-94884000D01*
X114173064Y-94884000D01*
X114173483Y-94887183D01*
X114192303Y-95030137D01*
X114192304Y-95030141D01*
X114192723Y-95033322D01*
X114193951Y-95036287D01*
X114193952Y-95036290D01*
X114245709Y-95161242D01*
X114250359Y-95172468D01*
X114252311Y-95175012D01*
X114252314Y-95175017D01*
X114329980Y-95276232D01*
X114342045Y-95291955D01*
X114344593Y-95293910D01*
X114458982Y-95381685D01*
X114458985Y-95381687D01*
X114461532Y-95383641D01*
X114600678Y-95441277D01*
X114712508Y-95456000D01*
X114785892Y-95456000D01*
X114787492Y-95456000D01*
X114899322Y-95441277D01*
X115038468Y-95383641D01*
X115157955Y-95291955D01*
X115249641Y-95172468D01*
X115307277Y-95033322D01*
X115318905Y-94945000D01*
X119944592Y-94945000D01*
X119945534Y-94949736D01*
X119963092Y-95038007D01*
X119963093Y-95038009D01*
X119964034Y-95042740D01*
X119966713Y-95046750D01*
X119966714Y-95046751D01*
X120009633Y-95110986D01*
X120019399Y-95125601D01*
X120102260Y-95180966D01*
X120135073Y-95187493D01*
X120160631Y-95192577D01*
X120180061Y-95196442D01*
X120200000Y-95200408D01*
X120219939Y-95196441D01*
X120229497Y-95195500D01*
X121870503Y-95195500D01*
X121880060Y-95196441D01*
X121900000Y-95200408D01*
X121997741Y-95180966D01*
X122042766Y-95150881D01*
X122080601Y-95125601D01*
X122091900Y-95108689D01*
X122097989Y-95101269D01*
X129110327Y-88088931D01*
X129117747Y-88082842D01*
X129134659Y-88071543D01*
X129190024Y-87988682D01*
X129204558Y-87915616D01*
X129204558Y-87915615D01*
X129209466Y-87890942D01*
X129205499Y-87871004D01*
X129204558Y-87861445D01*
X129204558Y-84699500D01*
X129218910Y-84664852D01*
X129253558Y-84650500D01*
X134522264Y-84650500D01*
X134524674Y-84650500D01*
X134597740Y-84635966D01*
X134601755Y-84633283D01*
X134648778Y-84601865D01*
X134682396Y-84594026D01*
X134712840Y-84610299D01*
X134725000Y-84642607D01*
X134725000Y-84722185D01*
X134720439Y-84739195D01*
X134721646Y-84739635D01*
X134720179Y-84743662D01*
X134718037Y-84747374D01*
X134717293Y-84751592D01*
X134717293Y-84751593D01*
X134715869Y-84759671D01*
X134699941Y-84850000D01*
X134718037Y-84952626D01*
X134720180Y-84956338D01*
X134721646Y-84960365D01*
X134720439Y-84960804D01*
X134725000Y-84977815D01*
X134725000Y-86081419D01*
X134724256Y-86089928D01*
X134707080Y-86187340D01*
X134704500Y-86201969D01*
X134704500Y-86264618D01*
X134704500Y-97667712D01*
X134704500Y-97700000D01*
X134704500Y-97798031D01*
X134704870Y-97800134D01*
X134704871Y-97800136D01*
X134738174Y-97989009D01*
X134738176Y-97989018D01*
X134738546Y-97991114D01*
X134739275Y-97993118D01*
X134739277Y-97993124D01*
X134759169Y-98047777D01*
X134805603Y-98175353D01*
X134903634Y-98345147D01*
X134905011Y-98346789D01*
X134905016Y-98346795D01*
X134975906Y-98431278D01*
X135029660Y-98495340D01*
X135031300Y-98496716D01*
X135178204Y-98619983D01*
X135178208Y-98619986D01*
X135179853Y-98621366D01*
X135349647Y-98719397D01*
X135533886Y-98786454D01*
X135726969Y-98820500D01*
X135789618Y-98820500D01*
X135825000Y-98820500D01*
X135857288Y-98820500D01*
X141297712Y-98820500D01*
X141347325Y-98820500D01*
X141425890Y-98820500D01*
X141428031Y-98820500D01*
X141540071Y-98800744D01*
X141548581Y-98800000D01*
X143931419Y-98800000D01*
X143939928Y-98800744D01*
X144051969Y-98820500D01*
X144114618Y-98820500D01*
X144150000Y-98820500D01*
X144182288Y-98820500D01*
X148992712Y-98820500D01*
X149042325Y-98820500D01*
X149120890Y-98820500D01*
X149123031Y-98820500D01*
X149316114Y-98786454D01*
X149500353Y-98719397D01*
X149670147Y-98621366D01*
X149820340Y-98495340D01*
X149946366Y-98345147D01*
X150044397Y-98175353D01*
X150111454Y-97991114D01*
X150145500Y-97798031D01*
X150145500Y-97700000D01*
X150145500Y-97667712D01*
X150145500Y-92689782D01*
X150145495Y-92689766D01*
X150145493Y-92689732D01*
X150145493Y-92651749D01*
X150145494Y-92609077D01*
X150115743Y-92440352D01*
X150115000Y-92431844D01*
X150115000Y-91668444D01*
X150115744Y-91659935D01*
X150123041Y-91618551D01*
X150125059Y-91607107D01*
X150115744Y-91554279D01*
X150115000Y-91545770D01*
X150115000Y-91048444D01*
X150115744Y-91039935D01*
X150124315Y-90991326D01*
X150125059Y-90987107D01*
X150115744Y-90934279D01*
X150115000Y-90925770D01*
X150115000Y-90162390D01*
X150115744Y-90153881D01*
X150120590Y-90126400D01*
X150145499Y-89985138D01*
X150145500Y-89887108D01*
X150145500Y-89854820D01*
X150145500Y-80057675D01*
X150145500Y-79976969D01*
X150111454Y-79783886D01*
X150044397Y-79599647D01*
X149946366Y-79429853D01*
X149944986Y-79428208D01*
X149944983Y-79428204D01*
X149821716Y-79281300D01*
X149820340Y-79279660D01*
X149818699Y-79278283D01*
X149671795Y-79155016D01*
X149671789Y-79155011D01*
X149670147Y-79153634D01*
X149500353Y-79055603D01*
X149498345Y-79054872D01*
X149318124Y-78989277D01*
X149318118Y-78989275D01*
X149316114Y-78988546D01*
X149314018Y-78988176D01*
X149314009Y-78988174D01*
X149125136Y-78954871D01*
X149125134Y-78954870D01*
X149123031Y-78954500D01*
X149120890Y-78954500D01*
X149025032Y-78954500D01*
X144933262Y-78949657D01*
X144905696Y-78941128D01*
X144887711Y-78918568D01*
X144823048Y-78753871D01*
X144714646Y-78578651D01*
X144713167Y-78577011D01*
X144578120Y-78427296D01*
X144578115Y-78427292D01*
X144576640Y-78425656D01*
X144563010Y-78415144D01*
X144415226Y-78301166D01*
X144413486Y-78299824D01*
X144349471Y-78266736D01*
X144232410Y-78206229D01*
X144232404Y-78206226D01*
X144230449Y-78205216D01*
X144228345Y-78204571D01*
X144228336Y-78204568D01*
X144035552Y-78145533D01*
X144035548Y-78145532D01*
X144033438Y-78144886D01*
X144031254Y-78144628D01*
X144031246Y-78144627D01*
X143831000Y-78121039D01*
X143830991Y-78121038D01*
X143828812Y-78120782D01*
X143826611Y-78120920D01*
X143625375Y-78133542D01*
X143625364Y-78133543D01*
X143623175Y-78133681D01*
X143621040Y-78134209D01*
X143621035Y-78134210D01*
X143425300Y-78182638D01*
X143425294Y-78182639D01*
X143423164Y-78183167D01*
X143421162Y-78184066D01*
X143421153Y-78184070D01*
X143237251Y-78266736D01*
X143237244Y-78266739D01*
X143235237Y-78267642D01*
X143233421Y-78268890D01*
X143233415Y-78268894D01*
X143067277Y-78383128D01*
X143067265Y-78383137D01*
X143065457Y-78384381D01*
X143063898Y-78385930D01*
X143063891Y-78385936D01*
X142920872Y-78528058D01*
X142920867Y-78528062D01*
X142919306Y-78529615D01*
X142918047Y-78531420D01*
X142918044Y-78531425D01*
X142849696Y-78629500D01*
X142802698Y-78696938D01*
X142802697Y-78696940D01*
X142801501Y-78698657D01*
X142801149Y-78698412D01*
X142782300Y-78716337D01*
X142754559Y-78721296D01*
X142728674Y-78710154D01*
X142722838Y-78705257D01*
X142675030Y-78665141D01*
X142671004Y-78663675D01*
X142671003Y-78663675D01*
X142602132Y-78638609D01*
X142577105Y-78629500D01*
X142472895Y-78629500D01*
X142468864Y-78630966D01*
X142468864Y-78630967D01*
X142378997Y-78663675D01*
X142378993Y-78663676D01*
X142374971Y-78665141D01*
X142371690Y-78667893D01*
X142371688Y-78667895D01*
X142314096Y-78716220D01*
X142289612Y-78727179D01*
X142263026Y-78723603D01*
X142242306Y-78706565D01*
X142139183Y-78557538D01*
X142137934Y-78555733D01*
X142130504Y-78548290D01*
X141997584Y-78415144D01*
X141997580Y-78415140D01*
X141996031Y-78413589D01*
X141994225Y-78412335D01*
X141994223Y-78412333D01*
X141852641Y-78314005D01*
X141831061Y-78299018D01*
X141829059Y-78298105D01*
X141650312Y-78216604D01*
X141650309Y-78216603D01*
X141648309Y-78215691D01*
X141646185Y-78215152D01*
X141646177Y-78215149D01*
X141455756Y-78166816D01*
X141455751Y-78166815D01*
X141453631Y-78166277D01*
X141451450Y-78166125D01*
X141451441Y-78166124D01*
X141255457Y-78152511D01*
X141255451Y-78152511D01*
X141253261Y-78152359D01*
X141251077Y-78152599D01*
X141251071Y-78152600D01*
X141055804Y-78174143D01*
X141055802Y-78174143D01*
X141053621Y-78174384D01*
X141051531Y-78175005D01*
X141051519Y-78175008D01*
X140863204Y-78231020D01*
X140863200Y-78231021D01*
X140861104Y-78231645D01*
X140859156Y-78232630D01*
X140859147Y-78232634D01*
X140683836Y-78321318D01*
X140683827Y-78321323D01*
X140681879Y-78322309D01*
X140680134Y-78323628D01*
X140680132Y-78323630D01*
X140523434Y-78442148D01*
X140523429Y-78442151D01*
X140521687Y-78443470D01*
X140520202Y-78445082D01*
X140520200Y-78445085D01*
X140395525Y-78580529D01*
X140385659Y-78591247D01*
X140384488Y-78593094D01*
X140384481Y-78593104D01*
X140279328Y-78759054D01*
X140279323Y-78759063D01*
X140278155Y-78760907D01*
X140277332Y-78762932D01*
X140277328Y-78762942D01*
X140213955Y-78919075D01*
X140195944Y-78941276D01*
X140168608Y-78949646D01*
X135824548Y-78954500D01*
X135726969Y-78954500D01*
X135724866Y-78954870D01*
X135724863Y-78954871D01*
X135535990Y-78988174D01*
X135535979Y-78988176D01*
X135533886Y-78988546D01*
X135531884Y-78989274D01*
X135531875Y-78989277D01*
X135351654Y-79054872D01*
X135351648Y-79054874D01*
X135349647Y-79055603D01*
X135347797Y-79056670D01*
X135347795Y-79056672D01*
X135181714Y-79152559D01*
X135181709Y-79152562D01*
X135179853Y-79153634D01*
X135178215Y-79155007D01*
X135178204Y-79155016D01*
X135031300Y-79278283D01*
X135031294Y-79278288D01*
X135029660Y-79279660D01*
X135028288Y-79281294D01*
X135028283Y-79281300D01*
X134905016Y-79428204D01*
X134905007Y-79428215D01*
X134903634Y-79429853D01*
X134902562Y-79431709D01*
X134902559Y-79431714D01*
X134845312Y-79530869D01*
X134805603Y-79599647D01*
X134804874Y-79601648D01*
X134804872Y-79601654D01*
X134739277Y-79781875D01*
X134739274Y-79781884D01*
X134738546Y-79783886D01*
X134738176Y-79785979D01*
X134738174Y-79785990D01*
X134710366Y-79943700D01*
X134704500Y-79976969D01*
X134704500Y-80039618D01*
X134704500Y-83317712D01*
X134704500Y-83350000D01*
X134704500Y-83448031D01*
X134704870Y-83450134D01*
X134704871Y-83450136D01*
X134724256Y-83560072D01*
X134725000Y-83568581D01*
X134725000Y-84157393D01*
X134712840Y-84189701D01*
X134682396Y-84205974D01*
X134648778Y-84198135D01*
X134601754Y-84166715D01*
X134601749Y-84166713D01*
X134597740Y-84164034D01*
X134593009Y-84163093D01*
X134593007Y-84163092D01*
X134527039Y-84149970D01*
X134527034Y-84149969D01*
X134524674Y-84149500D01*
X134522264Y-84149500D01*
X128616557Y-84149500D01*
X128581909Y-84135148D01*
X126313830Y-81867069D01*
X123931441Y-79484681D01*
X123917620Y-79457224D01*
X123922875Y-79426939D01*
X123962396Y-79353001D01*
X124016747Y-79173831D01*
X124035099Y-78987500D01*
X124016747Y-78801169D01*
X123962396Y-78621999D01*
X123874136Y-78456875D01*
X123755357Y-78312143D01*
X123739364Y-78299018D01*
X123612487Y-78194892D01*
X123612486Y-78194891D01*
X123610625Y-78193364D01*
X123583003Y-78178600D01*
X123447630Y-78106242D01*
X123445501Y-78105104D01*
X123443193Y-78104404D01*
X123443191Y-78104403D01*
X123365276Y-78080768D01*
X123340143Y-78063067D01*
X123330500Y-78033878D01*
X123330500Y-77447000D01*
X123344852Y-77412352D01*
X123379500Y-77398000D01*
X123711484Y-77398000D01*
X123713260Y-77398000D01*
X123781393Y-77388073D01*
X123886483Y-77336698D01*
X123969198Y-77253983D01*
X124020573Y-77148893D01*
X124030500Y-77080760D01*
X124030500Y-75814240D01*
X124020573Y-75746107D01*
X123969198Y-75641017D01*
X123886483Y-75558302D01*
X123838228Y-75534712D01*
X123784812Y-75508598D01*
X123784809Y-75508597D01*
X123781393Y-75506927D01*
X123777628Y-75506378D01*
X123777627Y-75506378D01*
X123715017Y-75497256D01*
X123713260Y-75497000D01*
X122446740Y-75497000D01*
X122444983Y-75497255D01*
X122444982Y-75497256D01*
X122382372Y-75506378D01*
X122382369Y-75506378D01*
X122378607Y-75506927D01*
X122375192Y-75508596D01*
X122375187Y-75508598D01*
X122277166Y-75556518D01*
X122273517Y-75558302D01*
X122270646Y-75561172D01*
X122270643Y-75561175D01*
X122193675Y-75638143D01*
X122193672Y-75638146D01*
X122190802Y-75641017D01*
X122189018Y-75644665D01*
X122189018Y-75644666D01*
X122141098Y-75742687D01*
X122141096Y-75742692D01*
X122139427Y-75746107D01*
X122138878Y-75749869D01*
X122138878Y-75749872D01*
X122135362Y-75774005D01*
X122129500Y-75814240D01*
X122129500Y-77080760D01*
X122129756Y-77082517D01*
X122135633Y-77122857D01*
X122139427Y-77148893D01*
X122141097Y-77152309D01*
X122141098Y-77152312D01*
X122156791Y-77184412D01*
X122190802Y-77253983D01*
X122273517Y-77336698D01*
X122378607Y-77388073D01*
X122446740Y-77398000D01*
X122780500Y-77398000D01*
X122815148Y-77412352D01*
X122829500Y-77447000D01*
X122829500Y-78033878D01*
X122819857Y-78063067D01*
X122794724Y-78080768D01*
X122716808Y-78104403D01*
X122716802Y-78104405D01*
X122714499Y-78105104D01*
X122712373Y-78106240D01*
X122712369Y-78106242D01*
X122551499Y-78192228D01*
X122551493Y-78192231D01*
X122549375Y-78193364D01*
X122547518Y-78194887D01*
X122547512Y-78194892D01*
X122406505Y-78310614D01*
X122406500Y-78310618D01*
X122404643Y-78312143D01*
X122403118Y-78314000D01*
X122403114Y-78314005D01*
X122287392Y-78455012D01*
X122287387Y-78455018D01*
X122285864Y-78456875D01*
X122284731Y-78458993D01*
X122284728Y-78458999D01*
X122198742Y-78619869D01*
X122198740Y-78619873D01*
X122197604Y-78621999D01*
X122196905Y-78624302D01*
X122196903Y-78624308D01*
X122143950Y-78798868D01*
X122143948Y-78798877D01*
X122143253Y-78801169D01*
X122143017Y-78803556D01*
X122143017Y-78803561D01*
X122131642Y-78919055D01*
X122124901Y-78987500D01*
X122125137Y-78989896D01*
X122141263Y-79153634D01*
X122143253Y-79173831D01*
X122143948Y-79176124D01*
X122143950Y-79176131D01*
X122194789Y-79343722D01*
X122197604Y-79353001D01*
X122285864Y-79518125D01*
X122404643Y-79662857D01*
X122549375Y-79781636D01*
X122714499Y-79869896D01*
X122893669Y-79924247D01*
X123080000Y-79942599D01*
X123266331Y-79924247D01*
X123445501Y-79869896D01*
X123519439Y-79830375D01*
X123549724Y-79825120D01*
X123577181Y-79838941D01*
X128236567Y-84498328D01*
X128236569Y-84498329D01*
X128236572Y-84498332D01*
X128294506Y-84556266D01*
X128300600Y-84563691D01*
X128305800Y-84571474D01*
X128311899Y-84580601D01*
X128364963Y-84616057D01*
X128394759Y-84635966D01*
X128492500Y-84655408D01*
X128512439Y-84651441D01*
X128521997Y-84650500D01*
X128654558Y-84650500D01*
X128689206Y-84664852D01*
X128703558Y-84699500D01*
X128703558Y-87766886D01*
X128689206Y-87801534D01*
X121810592Y-94680148D01*
X121775944Y-94694500D01*
X120229497Y-94694500D01*
X120219939Y-94693558D01*
X120200000Y-94689592D01*
X120195264Y-94690534D01*
X120175326Y-94694500D01*
X120106992Y-94708092D01*
X120106988Y-94708093D01*
X120102260Y-94709034D01*
X120098250Y-94711712D01*
X120098248Y-94711714D01*
X120023410Y-94761718D01*
X120023407Y-94761720D01*
X120019399Y-94764399D01*
X120016720Y-94768407D01*
X120016718Y-94768410D01*
X119966714Y-94843248D01*
X119966712Y-94843250D01*
X119964034Y-94847260D01*
X119963093Y-94851988D01*
X119963092Y-94851992D01*
X119947168Y-94932049D01*
X119944592Y-94945000D01*
X115318905Y-94945000D01*
X115324483Y-94902629D01*
X115326517Y-94887183D01*
X115326936Y-94884000D01*
X115307277Y-94734678D01*
X115249641Y-94595532D01*
X115247687Y-94592985D01*
X115247685Y-94592982D01*
X115159910Y-94478593D01*
X115157955Y-94476045D01*
X115123485Y-94449595D01*
X115041017Y-94386314D01*
X115041012Y-94386311D01*
X115038468Y-94384359D01*
X115035499Y-94383129D01*
X114902290Y-94327952D01*
X114902287Y-94327951D01*
X114899322Y-94326723D01*
X114896141Y-94326304D01*
X114896137Y-94326303D01*
X114789076Y-94312208D01*
X114789067Y-94312207D01*
X114787492Y-94312000D01*
X114712508Y-94312000D01*
X114710933Y-94312207D01*
X114710923Y-94312208D01*
X114603862Y-94326303D01*
X114603856Y-94326304D01*
X114600678Y-94326723D01*
X114597714Y-94327950D01*
X114597709Y-94327952D01*
X114464500Y-94383129D01*
X114464496Y-94383131D01*
X114461532Y-94384359D01*
X114458990Y-94386308D01*
X114458982Y-94386314D01*
X114344593Y-94474089D01*
X114344589Y-94474092D01*
X114342045Y-94476045D01*
X114340092Y-94478589D01*
X114340089Y-94478593D01*
X114252314Y-94592982D01*
X114252308Y-94592990D01*
X114250359Y-94595532D01*
X114249131Y-94598496D01*
X114249129Y-94598500D01*
X114193952Y-94731709D01*
X114193950Y-94731714D01*
X114192723Y-94734678D01*
X114192304Y-94737856D01*
X114192303Y-94737862D01*
X114174460Y-94873396D01*
X114173064Y-94884000D01*
X100120500Y-94884000D01*
X100120500Y-93416945D01*
X115387018Y-93416945D01*
X115387312Y-93419122D01*
X115387313Y-93419124D01*
X115417268Y-93640263D01*
X115417269Y-93640268D01*
X115417563Y-93642437D01*
X115418238Y-93644514D01*
X115418240Y-93644523D01*
X115473062Y-93813245D01*
X115487880Y-93858851D01*
X115488917Y-93860779D01*
X115488921Y-93860787D01*
X115594670Y-94057301D01*
X115594674Y-94057308D01*
X115595710Y-94059232D01*
X115737585Y-94237138D01*
X115908948Y-94386853D01*
X116104289Y-94503564D01*
X116317330Y-94583520D01*
X116541224Y-94624150D01*
X116710671Y-94624150D01*
X116711775Y-94624150D01*
X116881635Y-94608862D01*
X117100986Y-94548325D01*
X117306003Y-94449595D01*
X117490095Y-94315843D01*
X117647347Y-94151371D01*
X117772705Y-93961463D01*
X117862138Y-93752223D01*
X117912773Y-93530377D01*
X117917867Y-93416945D01*
X118562018Y-93416945D01*
X118562312Y-93419122D01*
X118562313Y-93419124D01*
X118592268Y-93640263D01*
X118592269Y-93640268D01*
X118592563Y-93642437D01*
X118593238Y-93644514D01*
X118593240Y-93644523D01*
X118648062Y-93813245D01*
X118662880Y-93858851D01*
X118663917Y-93860779D01*
X118663921Y-93860787D01*
X118769670Y-94057301D01*
X118769674Y-94057308D01*
X118770710Y-94059232D01*
X118912585Y-94237138D01*
X119083948Y-94386853D01*
X119279289Y-94503564D01*
X119492330Y-94583520D01*
X119716224Y-94624150D01*
X119885671Y-94624150D01*
X119886775Y-94624150D01*
X120056635Y-94608862D01*
X120275986Y-94548325D01*
X120481003Y-94449595D01*
X120665095Y-94315843D01*
X120822347Y-94151371D01*
X120947705Y-93961463D01*
X121037138Y-93752223D01*
X121087773Y-93530377D01*
X121097982Y-93303055D01*
X121067437Y-93077563D01*
X120997120Y-92861149D01*
X120996078Y-92859212D01*
X120890329Y-92662698D01*
X120890326Y-92662694D01*
X120889290Y-92660768D01*
X120747415Y-92482862D01*
X120724114Y-92462505D01*
X120601234Y-92355148D01*
X120576052Y-92333147D01*
X120445939Y-92255408D01*
X120382601Y-92217565D01*
X120382599Y-92217564D01*
X120380711Y-92216436D01*
X120325708Y-92195793D01*
X120169736Y-92137255D01*
X120169732Y-92137253D01*
X120167670Y-92136480D01*
X120165510Y-92136088D01*
X120165503Y-92136086D01*
X119945938Y-92096242D01*
X119945934Y-92096241D01*
X119943776Y-92095850D01*
X119773225Y-92095850D01*
X119772144Y-92095947D01*
X119772128Y-92095948D01*
X119605552Y-92110941D01*
X119605550Y-92110941D01*
X119603365Y-92111138D01*
X119601256Y-92111719D01*
X119601245Y-92111722D01*
X119386131Y-92171090D01*
X119386123Y-92171092D01*
X119384014Y-92171675D01*
X119382046Y-92172622D01*
X119382037Y-92172626D01*
X119180976Y-92269451D01*
X119180967Y-92269456D01*
X119178997Y-92270405D01*
X119177228Y-92271690D01*
X119177220Y-92271695D01*
X118996683Y-92402864D01*
X118996674Y-92402871D01*
X118994905Y-92404157D01*
X118993388Y-92405743D01*
X118993383Y-92405748D01*
X118839175Y-92567036D01*
X118839169Y-92567042D01*
X118837653Y-92568629D01*
X118836443Y-92570461D01*
X118836439Y-92570467D01*
X118713507Y-92756699D01*
X118713501Y-92756709D01*
X118712295Y-92758537D01*
X118711435Y-92760547D01*
X118711429Y-92760560D01*
X118623725Y-92965756D01*
X118623722Y-92965763D01*
X118622862Y-92967777D01*
X118622374Y-92969910D01*
X118622372Y-92969920D01*
X118572717Y-93187475D01*
X118572227Y-93189623D01*
X118572128Y-93191814D01*
X118572128Y-93191819D01*
X118562116Y-93414747D01*
X118562116Y-93414754D01*
X118562018Y-93416945D01*
X117917867Y-93416945D01*
X117922982Y-93303055D01*
X117892437Y-93077563D01*
X117822120Y-92861149D01*
X117821078Y-92859212D01*
X117715329Y-92662698D01*
X117715326Y-92662694D01*
X117714290Y-92660768D01*
X117572415Y-92482862D01*
X117549114Y-92462505D01*
X117426234Y-92355148D01*
X117401052Y-92333147D01*
X117270939Y-92255408D01*
X117207601Y-92217565D01*
X117207599Y-92217564D01*
X117205711Y-92216436D01*
X117150708Y-92195793D01*
X116994736Y-92137255D01*
X116994732Y-92137253D01*
X116992670Y-92136480D01*
X116990510Y-92136088D01*
X116990503Y-92136086D01*
X116770938Y-92096242D01*
X116770934Y-92096241D01*
X116768776Y-92095850D01*
X116598225Y-92095850D01*
X116597144Y-92095947D01*
X116597128Y-92095948D01*
X116430552Y-92110941D01*
X116430550Y-92110941D01*
X116428365Y-92111138D01*
X116426256Y-92111719D01*
X116426245Y-92111722D01*
X116211131Y-92171090D01*
X116211123Y-92171092D01*
X116209014Y-92171675D01*
X116207046Y-92172622D01*
X116207037Y-92172626D01*
X116005976Y-92269451D01*
X116005967Y-92269456D01*
X116003997Y-92270405D01*
X116002228Y-92271690D01*
X116002220Y-92271695D01*
X115821683Y-92402864D01*
X115821674Y-92402871D01*
X115819905Y-92404157D01*
X115818388Y-92405743D01*
X115818383Y-92405748D01*
X115664175Y-92567036D01*
X115664169Y-92567042D01*
X115662653Y-92568629D01*
X115661443Y-92570461D01*
X115661439Y-92570467D01*
X115538507Y-92756699D01*
X115538501Y-92756709D01*
X115537295Y-92758537D01*
X115536435Y-92760547D01*
X115536429Y-92760560D01*
X115448725Y-92965756D01*
X115448722Y-92965763D01*
X115447862Y-92967777D01*
X115447374Y-92969910D01*
X115447372Y-92969920D01*
X115397717Y-93187475D01*
X115397227Y-93189623D01*
X115397128Y-93191814D01*
X115397128Y-93191819D01*
X115387116Y-93414747D01*
X115387116Y-93414754D01*
X115387018Y-93416945D01*
X100120500Y-93416945D01*
X100120500Y-92000000D01*
X122944592Y-92000000D01*
X122945534Y-92004736D01*
X122963092Y-92093007D01*
X122963093Y-92093009D01*
X122964034Y-92097740D01*
X122966713Y-92101750D01*
X122966714Y-92101751D01*
X123012382Y-92170100D01*
X123019399Y-92180601D01*
X123102260Y-92235966D01*
X123169917Y-92249424D01*
X123184048Y-92252235D01*
X123200000Y-92255408D01*
X123297740Y-92235966D01*
X123380601Y-92180601D01*
X123435966Y-92097740D01*
X123453806Y-92008054D01*
X123454466Y-92004736D01*
X123455408Y-92000000D01*
X123435966Y-91902260D01*
X123380601Y-91819399D01*
X123369548Y-91812014D01*
X123301751Y-91766714D01*
X123301750Y-91766713D01*
X123297740Y-91764034D01*
X123293009Y-91763093D01*
X123293007Y-91763092D01*
X123204736Y-91745534D01*
X123200000Y-91744592D01*
X123195264Y-91745534D01*
X123106992Y-91763092D01*
X123106988Y-91763093D01*
X123102260Y-91764034D01*
X123098250Y-91766712D01*
X123098248Y-91766714D01*
X123023410Y-91816718D01*
X123023407Y-91816720D01*
X123019399Y-91819399D01*
X123016720Y-91823407D01*
X123016718Y-91823410D01*
X122966714Y-91898248D01*
X122966712Y-91898250D01*
X122964034Y-91902260D01*
X122963093Y-91906988D01*
X122963092Y-91906992D01*
X122947476Y-91985500D01*
X122944592Y-92000000D01*
X100120500Y-92000000D01*
X100120500Y-79724411D01*
X112291259Y-79724411D01*
X112294348Y-79728874D01*
X112376627Y-79796399D01*
X112380614Y-79799063D01*
X112544871Y-79886860D01*
X112549310Y-79888699D01*
X112727546Y-79942767D01*
X112732239Y-79943700D01*
X112917604Y-79961957D01*
X112922396Y-79961957D01*
X113107760Y-79943700D01*
X113112453Y-79942767D01*
X113290689Y-79888699D01*
X113295128Y-79886860D01*
X113459386Y-79799062D01*
X113463369Y-79796401D01*
X113545653Y-79728871D01*
X113548739Y-79724412D01*
X113548738Y-79724411D01*
X114831259Y-79724411D01*
X114834348Y-79728874D01*
X114916627Y-79796399D01*
X114920614Y-79799063D01*
X115084871Y-79886860D01*
X115089310Y-79888699D01*
X115267546Y-79942767D01*
X115272239Y-79943700D01*
X115457604Y-79961957D01*
X115462396Y-79961957D01*
X115647760Y-79943700D01*
X115652453Y-79942767D01*
X115830689Y-79888699D01*
X115835128Y-79886860D01*
X115999386Y-79799062D01*
X116003369Y-79796401D01*
X116085653Y-79728871D01*
X116088739Y-79724412D01*
X116086104Y-79719670D01*
X115466892Y-79100458D01*
X115460000Y-79097603D01*
X115453107Y-79100458D01*
X114833894Y-79719670D01*
X114831259Y-79724411D01*
X113548738Y-79724411D01*
X113546104Y-79719670D01*
X112926892Y-79100458D01*
X112920000Y-79097603D01*
X112913107Y-79100458D01*
X112293894Y-79719670D01*
X112291259Y-79724411D01*
X100120500Y-79724411D01*
X100120500Y-78989896D01*
X111945543Y-78989896D01*
X111963799Y-79175260D01*
X111964732Y-79179953D01*
X112018800Y-79358189D01*
X112020639Y-79362628D01*
X112108436Y-79526885D01*
X112111100Y-79530872D01*
X112178624Y-79613150D01*
X112183087Y-79616239D01*
X112187828Y-79613604D01*
X112809372Y-78992061D01*
X112812005Y-78987500D01*
X112812004Y-78987499D01*
X113030103Y-78987499D01*
X113032958Y-78994392D01*
X113652170Y-79613604D01*
X113656912Y-79616239D01*
X113661371Y-79613153D01*
X113728901Y-79530869D01*
X113731562Y-79526886D01*
X113819360Y-79362628D01*
X113821199Y-79358189D01*
X113875267Y-79179953D01*
X113876200Y-79175260D01*
X113894457Y-78989896D01*
X114485543Y-78989896D01*
X114503799Y-79175260D01*
X114504732Y-79179953D01*
X114558800Y-79358189D01*
X114560639Y-79362628D01*
X114648436Y-79526885D01*
X114651100Y-79530872D01*
X114718624Y-79613150D01*
X114723087Y-79616239D01*
X114727828Y-79613604D01*
X115349372Y-78992061D01*
X115352005Y-78987500D01*
X115352004Y-78987499D01*
X115570103Y-78987499D01*
X115572958Y-78994392D01*
X116192170Y-79613604D01*
X116196912Y-79616239D01*
X116201371Y-79613153D01*
X116268901Y-79530869D01*
X116271562Y-79526886D01*
X116359360Y-79362628D01*
X116361199Y-79358189D01*
X116415267Y-79179953D01*
X116416200Y-79175260D01*
X116434457Y-78989896D01*
X116434457Y-78987500D01*
X117044901Y-78987500D01*
X117045137Y-78989896D01*
X117061263Y-79153634D01*
X117063253Y-79173831D01*
X117063948Y-79176124D01*
X117063950Y-79176131D01*
X117114789Y-79343722D01*
X117117604Y-79353001D01*
X117205864Y-79518125D01*
X117324643Y-79662857D01*
X117469375Y-79781636D01*
X117634499Y-79869896D01*
X117813669Y-79924247D01*
X118000000Y-79942599D01*
X118186331Y-79924247D01*
X118365501Y-79869896D01*
X118530625Y-79781636D01*
X118675357Y-79662857D01*
X118794136Y-79518125D01*
X118882396Y-79353001D01*
X118936747Y-79173831D01*
X118955099Y-78987500D01*
X119584901Y-78987500D01*
X119585137Y-78989896D01*
X119601263Y-79153634D01*
X119603253Y-79173831D01*
X119603948Y-79176124D01*
X119603950Y-79176131D01*
X119654789Y-79343722D01*
X119657604Y-79353001D01*
X119745864Y-79518125D01*
X119864643Y-79662857D01*
X120009375Y-79781636D01*
X120174499Y-79869896D01*
X120353669Y-79924247D01*
X120540000Y-79942599D01*
X120726331Y-79924247D01*
X120905501Y-79869896D01*
X121070625Y-79781636D01*
X121215357Y-79662857D01*
X121334136Y-79518125D01*
X121422396Y-79353001D01*
X121476747Y-79173831D01*
X121495099Y-78987500D01*
X121476747Y-78801169D01*
X121422396Y-78621999D01*
X121334136Y-78456875D01*
X121215357Y-78312143D01*
X121199364Y-78299018D01*
X121072487Y-78194892D01*
X121072486Y-78194891D01*
X121070625Y-78193364D01*
X121043003Y-78178600D01*
X120907630Y-78106242D01*
X120905501Y-78105104D01*
X120903193Y-78104403D01*
X120903191Y-78104403D01*
X120728631Y-78051450D01*
X120728624Y-78051448D01*
X120726331Y-78050753D01*
X120723941Y-78050517D01*
X120723938Y-78050517D01*
X120542396Y-78032637D01*
X120540000Y-78032401D01*
X120537604Y-78032637D01*
X120356061Y-78050517D01*
X120356056Y-78050517D01*
X120353669Y-78050753D01*
X120351377Y-78051448D01*
X120351368Y-78051450D01*
X120176808Y-78104403D01*
X120176802Y-78104405D01*
X120174499Y-78105104D01*
X120172373Y-78106240D01*
X120172369Y-78106242D01*
X120011499Y-78192228D01*
X120011493Y-78192231D01*
X120009375Y-78193364D01*
X120007518Y-78194887D01*
X120007512Y-78194892D01*
X119866505Y-78310614D01*
X119866500Y-78310618D01*
X119864643Y-78312143D01*
X119863118Y-78314000D01*
X119863114Y-78314005D01*
X119747392Y-78455012D01*
X119747387Y-78455018D01*
X119745864Y-78456875D01*
X119744731Y-78458993D01*
X119744728Y-78458999D01*
X119658742Y-78619869D01*
X119658740Y-78619873D01*
X119657604Y-78621999D01*
X119656905Y-78624302D01*
X119656903Y-78624308D01*
X119603950Y-78798868D01*
X119603948Y-78798877D01*
X119603253Y-78801169D01*
X119603017Y-78803556D01*
X119603017Y-78803561D01*
X119591642Y-78919055D01*
X119584901Y-78987500D01*
X118955099Y-78987500D01*
X118936747Y-78801169D01*
X118882396Y-78621999D01*
X118794136Y-78456875D01*
X118675357Y-78312143D01*
X118659364Y-78299018D01*
X118532487Y-78194892D01*
X118532486Y-78194891D01*
X118530625Y-78193364D01*
X118503003Y-78178600D01*
X118367630Y-78106242D01*
X118365501Y-78105104D01*
X118363193Y-78104403D01*
X118363191Y-78104403D01*
X118188631Y-78051450D01*
X118188624Y-78051448D01*
X118186331Y-78050753D01*
X118183941Y-78050517D01*
X118183938Y-78050517D01*
X118002396Y-78032637D01*
X118000000Y-78032401D01*
X117997604Y-78032637D01*
X117816061Y-78050517D01*
X117816056Y-78050517D01*
X117813669Y-78050753D01*
X117811377Y-78051448D01*
X117811368Y-78051450D01*
X117636808Y-78104403D01*
X117636802Y-78104405D01*
X117634499Y-78105104D01*
X117632373Y-78106240D01*
X117632369Y-78106242D01*
X117471499Y-78192228D01*
X117471493Y-78192231D01*
X117469375Y-78193364D01*
X117467518Y-78194887D01*
X117467512Y-78194892D01*
X117326505Y-78310614D01*
X117326500Y-78310618D01*
X117324643Y-78312143D01*
X117323118Y-78314000D01*
X117323114Y-78314005D01*
X117207392Y-78455012D01*
X117207387Y-78455018D01*
X117205864Y-78456875D01*
X117204731Y-78458993D01*
X117204728Y-78458999D01*
X117118742Y-78619869D01*
X117118740Y-78619873D01*
X117117604Y-78621999D01*
X117116905Y-78624302D01*
X117116903Y-78624308D01*
X117063950Y-78798868D01*
X117063948Y-78798877D01*
X117063253Y-78801169D01*
X117063017Y-78803556D01*
X117063017Y-78803561D01*
X117051642Y-78919055D01*
X117044901Y-78987500D01*
X116434457Y-78987500D01*
X116434457Y-78985104D01*
X116416200Y-78799739D01*
X116415267Y-78795046D01*
X116361199Y-78616810D01*
X116359360Y-78612371D01*
X116271563Y-78448114D01*
X116268899Y-78444127D01*
X116201374Y-78361848D01*
X116196911Y-78358759D01*
X116192170Y-78361394D01*
X115572958Y-78980607D01*
X115570103Y-78987499D01*
X115352004Y-78987499D01*
X115349372Y-78982938D01*
X114727828Y-78361394D01*
X114723087Y-78358759D01*
X114718625Y-78361847D01*
X114651098Y-78444129D01*
X114648436Y-78448115D01*
X114560639Y-78612371D01*
X114558800Y-78616810D01*
X114504732Y-78795046D01*
X114503799Y-78799739D01*
X114485543Y-78985104D01*
X114485543Y-78989896D01*
X113894457Y-78989896D01*
X113894457Y-78985104D01*
X113876200Y-78799739D01*
X113875267Y-78795046D01*
X113821199Y-78616810D01*
X113819360Y-78612371D01*
X113731563Y-78448114D01*
X113728899Y-78444127D01*
X113661374Y-78361848D01*
X113656911Y-78358759D01*
X113652170Y-78361394D01*
X113032958Y-78980607D01*
X113030103Y-78987499D01*
X112812004Y-78987499D01*
X112809372Y-78982938D01*
X112187828Y-78361394D01*
X112183087Y-78358759D01*
X112178625Y-78361847D01*
X112111098Y-78444129D01*
X112108436Y-78448115D01*
X112020639Y-78612371D01*
X112018800Y-78616810D01*
X111964732Y-78795046D01*
X111963799Y-78799739D01*
X111945543Y-78985104D01*
X111945543Y-78989896D01*
X100120500Y-78989896D01*
X100120500Y-78250587D01*
X112291259Y-78250587D01*
X112293894Y-78255328D01*
X112915438Y-78876872D01*
X112920000Y-78879505D01*
X112924561Y-78876872D01*
X113546104Y-78255328D01*
X113548739Y-78250587D01*
X114831259Y-78250587D01*
X114833894Y-78255328D01*
X115455438Y-78876872D01*
X115460000Y-78879505D01*
X115464561Y-78876872D01*
X116086104Y-78255328D01*
X116088739Y-78250587D01*
X116085650Y-78246124D01*
X116003372Y-78178600D01*
X115999385Y-78175936D01*
X115835128Y-78088139D01*
X115830689Y-78086300D01*
X115652453Y-78032232D01*
X115647760Y-78031299D01*
X115462396Y-78013043D01*
X115457604Y-78013043D01*
X115272239Y-78031299D01*
X115267546Y-78032232D01*
X115089310Y-78086300D01*
X115084871Y-78088139D01*
X114920615Y-78175936D01*
X114916629Y-78178598D01*
X114834347Y-78246125D01*
X114831259Y-78250587D01*
X113548739Y-78250587D01*
X113545650Y-78246124D01*
X113463372Y-78178600D01*
X113459385Y-78175936D01*
X113295128Y-78088139D01*
X113290689Y-78086300D01*
X113112453Y-78032232D01*
X113107760Y-78031299D01*
X112922396Y-78013043D01*
X112917604Y-78013043D01*
X112732239Y-78031299D01*
X112727546Y-78032232D01*
X112549310Y-78086300D01*
X112544871Y-78088139D01*
X112380615Y-78175936D01*
X112376629Y-78178598D01*
X112294347Y-78246125D01*
X112291259Y-78250587D01*
X100120500Y-78250587D01*
X100120500Y-77184411D01*
X112291259Y-77184411D01*
X112294348Y-77188874D01*
X112376627Y-77256399D01*
X112380614Y-77259063D01*
X112544871Y-77346860D01*
X112549310Y-77348699D01*
X112727546Y-77402767D01*
X112732239Y-77403700D01*
X112917604Y-77421957D01*
X112922396Y-77421957D01*
X113107760Y-77403700D01*
X113112453Y-77402767D01*
X113290689Y-77348699D01*
X113295128Y-77346860D01*
X113459386Y-77259062D01*
X113463369Y-77256401D01*
X113545653Y-77188871D01*
X113548739Y-77184412D01*
X113548738Y-77184411D01*
X114831259Y-77184411D01*
X114834348Y-77188874D01*
X114916627Y-77256399D01*
X114920614Y-77259063D01*
X115084871Y-77346860D01*
X115089310Y-77348699D01*
X115267546Y-77402767D01*
X115272239Y-77403700D01*
X115457604Y-77421957D01*
X115462396Y-77421957D01*
X115647760Y-77403700D01*
X115652453Y-77402767D01*
X115830689Y-77348699D01*
X115835128Y-77346860D01*
X115999386Y-77259062D01*
X116003369Y-77256401D01*
X116085653Y-77188871D01*
X116088739Y-77184412D01*
X116086104Y-77179670D01*
X115466892Y-76560458D01*
X115460000Y-76557603D01*
X115453107Y-76560458D01*
X114833894Y-77179670D01*
X114831259Y-77184411D01*
X113548738Y-77184411D01*
X113546104Y-77179670D01*
X112926892Y-76560458D01*
X112920000Y-76557603D01*
X112913107Y-76560458D01*
X112293894Y-77179670D01*
X112291259Y-77184411D01*
X100120500Y-77184411D01*
X100120500Y-76449896D01*
X111945543Y-76449896D01*
X111963799Y-76635260D01*
X111964732Y-76639953D01*
X112018800Y-76818189D01*
X112020639Y-76822628D01*
X112108436Y-76986885D01*
X112111100Y-76990872D01*
X112178624Y-77073150D01*
X112183087Y-77076239D01*
X112187828Y-77073604D01*
X112809372Y-76452061D01*
X112812005Y-76447500D01*
X112812004Y-76447499D01*
X113030103Y-76447499D01*
X113032958Y-76454392D01*
X113652170Y-77073604D01*
X113656912Y-77076239D01*
X113661371Y-77073153D01*
X113728901Y-76990869D01*
X113731562Y-76986886D01*
X113819360Y-76822628D01*
X113821199Y-76818189D01*
X113875267Y-76639953D01*
X113876200Y-76635260D01*
X113894457Y-76449896D01*
X114485543Y-76449896D01*
X114503799Y-76635260D01*
X114504732Y-76639953D01*
X114558800Y-76818189D01*
X114560639Y-76822628D01*
X114648436Y-76986885D01*
X114651100Y-76990872D01*
X114718624Y-77073150D01*
X114723087Y-77076239D01*
X114727828Y-77073604D01*
X115349372Y-76452061D01*
X115352005Y-76447500D01*
X115352004Y-76447499D01*
X115570103Y-76447499D01*
X115572958Y-76454392D01*
X116192170Y-77073604D01*
X116196912Y-77076239D01*
X116201371Y-77073153D01*
X116268901Y-76990869D01*
X116271562Y-76986886D01*
X116359360Y-76822628D01*
X116361199Y-76818189D01*
X116415267Y-76639953D01*
X116416200Y-76635260D01*
X116434457Y-76449896D01*
X116434457Y-76447500D01*
X117044901Y-76447500D01*
X117063253Y-76633831D01*
X117063948Y-76636124D01*
X117063950Y-76636131D01*
X117116903Y-76810691D01*
X117117604Y-76813001D01*
X117205864Y-76978125D01*
X117324643Y-77122857D01*
X117469375Y-77241636D01*
X117634499Y-77329896D01*
X117813669Y-77384247D01*
X118000000Y-77402599D01*
X118186331Y-77384247D01*
X118365501Y-77329896D01*
X118530625Y-77241636D01*
X118675357Y-77122857D01*
X118794136Y-76978125D01*
X118882396Y-76813001D01*
X118936747Y-76633831D01*
X118955099Y-76447500D01*
X119584901Y-76447500D01*
X119603253Y-76633831D01*
X119603948Y-76636124D01*
X119603950Y-76636131D01*
X119656903Y-76810691D01*
X119657604Y-76813001D01*
X119745864Y-76978125D01*
X119864643Y-77122857D01*
X120009375Y-77241636D01*
X120174499Y-77329896D01*
X120353669Y-77384247D01*
X120540000Y-77402599D01*
X120726331Y-77384247D01*
X120905501Y-77329896D01*
X121070625Y-77241636D01*
X121215357Y-77122857D01*
X121334136Y-76978125D01*
X121422396Y-76813001D01*
X121476747Y-76633831D01*
X121495099Y-76447500D01*
X121476747Y-76261169D01*
X121422396Y-76081999D01*
X121334136Y-75916875D01*
X121215357Y-75772143D01*
X121070625Y-75653364D01*
X121043003Y-75638600D01*
X120907630Y-75566242D01*
X120905501Y-75565104D01*
X120903193Y-75564403D01*
X120903191Y-75564403D01*
X120728631Y-75511450D01*
X120728624Y-75511448D01*
X120726331Y-75510753D01*
X120723941Y-75510517D01*
X120723938Y-75510517D01*
X120542396Y-75492637D01*
X120540000Y-75492401D01*
X120537604Y-75492637D01*
X120356061Y-75510517D01*
X120356056Y-75510517D01*
X120353669Y-75510753D01*
X120351377Y-75511448D01*
X120351368Y-75511450D01*
X120176808Y-75564403D01*
X120176802Y-75564405D01*
X120174499Y-75565104D01*
X120172373Y-75566240D01*
X120172369Y-75566242D01*
X120011499Y-75652228D01*
X120011493Y-75652231D01*
X120009375Y-75653364D01*
X120007518Y-75654887D01*
X120007512Y-75654892D01*
X119866505Y-75770614D01*
X119866500Y-75770618D01*
X119864643Y-75772143D01*
X119863118Y-75774000D01*
X119863114Y-75774005D01*
X119747392Y-75915012D01*
X119747387Y-75915018D01*
X119745864Y-75916875D01*
X119744731Y-75918993D01*
X119744728Y-75918999D01*
X119658742Y-76079869D01*
X119658740Y-76079873D01*
X119657604Y-76081999D01*
X119656905Y-76084302D01*
X119656903Y-76084308D01*
X119603950Y-76258868D01*
X119603948Y-76258877D01*
X119603253Y-76261169D01*
X119603017Y-76263556D01*
X119603017Y-76263561D01*
X119585754Y-76438832D01*
X119584901Y-76447500D01*
X118955099Y-76447500D01*
X118936747Y-76261169D01*
X118882396Y-76081999D01*
X118794136Y-75916875D01*
X118675357Y-75772143D01*
X118530625Y-75653364D01*
X118503003Y-75638600D01*
X118367630Y-75566242D01*
X118365501Y-75565104D01*
X118363193Y-75564403D01*
X118363191Y-75564403D01*
X118188631Y-75511450D01*
X118188624Y-75511448D01*
X118186331Y-75510753D01*
X118183941Y-75510517D01*
X118183938Y-75510517D01*
X118002396Y-75492637D01*
X118000000Y-75492401D01*
X117997604Y-75492637D01*
X117816061Y-75510517D01*
X117816056Y-75510517D01*
X117813669Y-75510753D01*
X117811377Y-75511448D01*
X117811368Y-75511450D01*
X117636808Y-75564403D01*
X117636802Y-75564405D01*
X117634499Y-75565104D01*
X117632373Y-75566240D01*
X117632369Y-75566242D01*
X117471499Y-75652228D01*
X117471493Y-75652231D01*
X117469375Y-75653364D01*
X117467518Y-75654887D01*
X117467512Y-75654892D01*
X117326505Y-75770614D01*
X117326500Y-75770618D01*
X117324643Y-75772143D01*
X117323118Y-75774000D01*
X117323114Y-75774005D01*
X117207392Y-75915012D01*
X117207387Y-75915018D01*
X117205864Y-75916875D01*
X117204731Y-75918993D01*
X117204728Y-75918999D01*
X117118742Y-76079869D01*
X117118740Y-76079873D01*
X117117604Y-76081999D01*
X117116905Y-76084302D01*
X117116903Y-76084308D01*
X117063950Y-76258868D01*
X117063948Y-76258877D01*
X117063253Y-76261169D01*
X117063017Y-76263556D01*
X117063017Y-76263561D01*
X117045754Y-76438832D01*
X117044901Y-76447500D01*
X116434457Y-76447500D01*
X116434457Y-76445104D01*
X116416200Y-76259739D01*
X116415267Y-76255046D01*
X116361199Y-76076810D01*
X116359360Y-76072371D01*
X116271563Y-75908114D01*
X116268899Y-75904127D01*
X116201374Y-75821848D01*
X116196911Y-75818759D01*
X116192170Y-75821394D01*
X115572958Y-76440607D01*
X115570103Y-76447499D01*
X115352004Y-76447499D01*
X115349372Y-76442938D01*
X114727828Y-75821394D01*
X114723087Y-75818759D01*
X114718625Y-75821847D01*
X114651098Y-75904129D01*
X114648436Y-75908115D01*
X114560639Y-76072371D01*
X114558800Y-76076810D01*
X114504732Y-76255046D01*
X114503799Y-76259739D01*
X114485543Y-76445104D01*
X114485543Y-76449896D01*
X113894457Y-76449896D01*
X113894457Y-76445104D01*
X113876200Y-76259739D01*
X113875267Y-76255046D01*
X113821199Y-76076810D01*
X113819360Y-76072371D01*
X113731563Y-75908114D01*
X113728899Y-75904127D01*
X113661374Y-75821848D01*
X113656911Y-75818759D01*
X113652170Y-75821394D01*
X113032958Y-76440607D01*
X113030103Y-76447499D01*
X112812004Y-76447499D01*
X112809372Y-76442938D01*
X112187828Y-75821394D01*
X112183087Y-75818759D01*
X112178625Y-75821847D01*
X112111098Y-75904129D01*
X112108436Y-75908115D01*
X112020639Y-76072371D01*
X112018800Y-76076810D01*
X111964732Y-76255046D01*
X111963799Y-76259739D01*
X111945543Y-76445104D01*
X111945543Y-76449896D01*
X100120500Y-76449896D01*
X100120500Y-75710587D01*
X112291259Y-75710587D01*
X112293894Y-75715328D01*
X112915438Y-76336872D01*
X112919999Y-76339505D01*
X112924561Y-76336872D01*
X113546104Y-75715328D01*
X113548739Y-75710587D01*
X114831259Y-75710587D01*
X114833894Y-75715328D01*
X115455438Y-76336872D01*
X115459999Y-76339505D01*
X115464561Y-76336872D01*
X116086104Y-75715328D01*
X116088739Y-75710587D01*
X116085650Y-75706124D01*
X116003372Y-75638600D01*
X115999385Y-75635936D01*
X115835128Y-75548139D01*
X115830689Y-75546300D01*
X115652453Y-75492232D01*
X115647760Y-75491299D01*
X115462396Y-75473043D01*
X115457604Y-75473043D01*
X115272239Y-75491299D01*
X115267546Y-75492232D01*
X115089310Y-75546300D01*
X115084871Y-75548139D01*
X114920615Y-75635936D01*
X114916629Y-75638598D01*
X114834347Y-75706125D01*
X114831259Y-75710587D01*
X113548739Y-75710587D01*
X113545650Y-75706124D01*
X113463372Y-75638600D01*
X113459385Y-75635936D01*
X113295128Y-75548139D01*
X113290689Y-75546300D01*
X113112453Y-75492232D01*
X113107760Y-75491299D01*
X112922396Y-75473043D01*
X112917604Y-75473043D01*
X112732239Y-75491299D01*
X112727546Y-75492232D01*
X112549310Y-75546300D01*
X112544871Y-75548139D01*
X112380615Y-75635936D01*
X112376629Y-75638598D01*
X112294347Y-75706125D01*
X112291259Y-75710587D01*
X100120500Y-75710587D01*
X100120500Y-65169500D01*
X100134852Y-65134852D01*
X100169500Y-65120500D01*
X159830500Y-65120500D01*
X159865148Y-65134852D01*
G37*
%TD.AperFunction*%
%TD*%
M02*
