%TF.GenerationSoftware,KiCad,Pcbnew,(7.0.0)*%
%TF.CreationDate,2023-02-26T18:00:26-05:00*%
%TF.ProjectId,headstage-neuropix2e,68656164-7374-4616-9765-2d6e6575726f,A*%
%TF.SameCoordinates,Original*%
%TF.FileFunction,Copper,L2,Inr*%
%TF.FilePolarity,Positive*%
%FSLAX46Y46*%
G04 Gerber Fmt 4.6, Leading zero omitted, Abs format (unit mm)*
G04 Created by KiCad (PCBNEW (7.0.0)) date 2023-02-26 18:00:26*
%MOMM*%
%LPD*%
G01*
G04 APERTURE LIST*
%TA.AperFunction,ComponentPad*%
%ADD10O,1.400000X2.600000*%
%TD*%
%TA.AperFunction,ViaPad*%
%ADD11C,0.200000*%
%TD*%
%TA.AperFunction,ViaPad*%
%ADD12C,0.300000*%
%TD*%
G04 APERTURE END LIST*
D10*
%TO.N,/Neuropixels 2.0/NP_{TP0}*%
%TO.C,TP2*%
X146634999Y-83419999D03*
%TD*%
%TO.N,GND*%
%TO.C,TP1*%
X144954999Y-83419999D03*
%TD*%
D11*
%TO.N,GND*%
X146915000Y-84930000D03*
X138835000Y-83649300D03*
X137898663Y-88881316D03*
X142125000Y-95650000D03*
X142735000Y-94830000D03*
X142125000Y-94830000D03*
X139611259Y-88091963D03*
X141615000Y-84550000D03*
X145475000Y-87550000D03*
X143995000Y-94810000D03*
X146785000Y-95970000D03*
X139445000Y-90900000D03*
X145625000Y-94100000D03*
X144005000Y-91150000D03*
X139415000Y-83640000D03*
X142574999Y-82474998D03*
X137915500Y-87943311D03*
X139585000Y-89160000D03*
D12*
X130100000Y-79400000D03*
D11*
X144455000Y-90760000D03*
X143185000Y-84540000D03*
X137925000Y-95200000D03*
X146925000Y-95200000D03*
X141705000Y-93720000D03*
X140005000Y-83700000D03*
X145315000Y-94840000D03*
X146025000Y-85130000D03*
X140200498Y-88500500D03*
X143225000Y-85400000D03*
X147035000Y-85460000D03*
X144755000Y-88270000D03*
X138306076Y-91856076D03*
X139025000Y-90250000D03*
X141607409Y-88089070D03*
X144465000Y-89370000D03*
X144525000Y-95650000D03*
X143025000Y-90500000D03*
X143925000Y-95650000D03*
X140305000Y-94850000D03*
X139165000Y-86900000D03*
X140925000Y-95650000D03*
X143025000Y-90000000D03*
X140225000Y-92510000D03*
X141975000Y-82620000D03*
X143845000Y-93830000D03*
X140675000Y-93720500D03*
X137785000Y-89620000D03*
X137810700Y-83680000D03*
X139925000Y-90200000D03*
X144755000Y-88610000D03*
X140325000Y-95650000D03*
X138525000Y-95050000D03*
D12*
X127600000Y-70300000D03*
X155800000Y-87500000D03*
D11*
X141225000Y-84830000D03*
X143725000Y-87600000D03*
X144565000Y-93780000D03*
X144815000Y-90110000D03*
X142775000Y-85400000D03*
X141395000Y-84090000D03*
X140165000Y-88090000D03*
X143705000Y-84520000D03*
X139695000Y-87470500D03*
X147015000Y-94060000D03*
X143565000Y-84070000D03*
X142475000Y-85050000D03*
X143285000Y-88250000D03*
X144185000Y-87630000D03*
X147135000Y-86480000D03*
D12*
X107600000Y-101500000D03*
D11*
X142595000Y-93710000D03*
X139455000Y-90190000D03*
X143025000Y-91150500D03*
X140905000Y-94840000D03*
X143880840Y-88220500D03*
X143385000Y-88770000D03*
X145125000Y-85330000D03*
X139107347Y-94319500D03*
X142165000Y-90630000D03*
D12*
X112100000Y-75100000D03*
D11*
X142725000Y-95650000D03*
X137955000Y-94170000D03*
X142355000Y-91170000D03*
D12*
X145200000Y-72300000D03*
D11*
X137975000Y-87440000D03*
D12*
X154200000Y-101500000D03*
D11*
X141625000Y-87249500D03*
D12*
X103900000Y-84800000D03*
X130200000Y-99700000D03*
D11*
X142025000Y-85450000D03*
X137781392Y-91260865D03*
X137915000Y-93180000D03*
X139725000Y-86450000D03*
%TO.N,+1V8*%
X145875500Y-91592347D03*
X139435000Y-84730000D03*
X139025000Y-89250000D03*
X146434268Y-86221264D03*
X138620290Y-88099352D03*
X144275000Y-91650500D03*
X143157963Y-86612963D03*
D12*
X140775000Y-86900000D03*
D11*
X138147595Y-92527730D03*
X146655000Y-87170000D03*
X145820230Y-89664770D03*
X138984500Y-91016076D03*
%TO.N,/Neuropixels 2.0/PCLK*%
X141625000Y-90210000D03*
X142425000Y-93150000D03*
%TO.N,/Neuropixels 2.0/SDA_{A}*%
X138985357Y-92627003D03*
X142122378Y-89995974D03*
%TO.N,+4V*%
X138640419Y-85475200D03*
D12*
X138124999Y-85890001D03*
X120945000Y-89505000D03*
D11*
X138695000Y-87370000D03*
X140195000Y-87490000D03*
X138745000Y-86420000D03*
X138355000Y-84600000D03*
D12*
%TO.N,/Neuropixels 2.0/SCL*%
X117857500Y-91667500D03*
D11*
X140625000Y-90790000D03*
X142235000Y-89324500D03*
X145075000Y-86100000D03*
X138735000Y-84740000D03*
X139505000Y-93710000D03*
X141234061Y-89672090D03*
%TO.N,/Neuropixels 2.0/SYNC*%
X139725000Y-95650000D03*
X145125000Y-95650000D03*
%TO.N,/Neuropixels 2.0/D7*%
X144455065Y-91149935D03*
X140025000Y-93150000D03*
%TO.N,Net-(L1-Pad2)*%
X137921788Y-84655700D03*
%TO.N,/Neuropixels 2.0/D6*%
X145075000Y-91385075D03*
X140625000Y-93150000D03*
%TO.N,/Neuropixels 2.0/D5*%
X141225000Y-93150000D03*
X145539322Y-91153783D03*
%TO.N,/Neuropixels 2.0/D4*%
X141825000Y-93150000D03*
X145855000Y-90720000D03*
%TO.N,/Neuropixels 2.0/D3*%
X143025000Y-93150000D03*
X145871150Y-90001022D03*
%TO.N,/Neuropixels 2.0/D2*%
X146185000Y-89750000D03*
X143625000Y-93150000D03*
%TO.N,/Neuropixels 2.0/D1*%
X146405000Y-89140000D03*
X144225000Y-93150000D03*
%TO.N,/Neuropixels 2.0/D0*%
X146425000Y-88650002D03*
X144825000Y-93150000D03*
D12*
%TO.N,/DC Tap & Regulation/RF+DC*%
X142525000Y-84475000D03*
D11*
%TO.N,/Neuropixels 2.0/NP_{TP0}*%
X138875000Y-94980000D03*
X146325000Y-95125500D03*
%TO.N,/Neuropixels 2.0/SDA_{B}*%
X146068576Y-93973576D03*
%TO.N,/Neuropixels 2.0/SDA*%
X142225000Y-90290000D03*
X143175250Y-87650499D03*
X145774501Y-90410000D03*
X142177262Y-88059188D03*
X141625000Y-89150000D03*
X139085000Y-84730000D03*
X144915000Y-85700000D03*
D12*
X125255000Y-90595000D03*
D11*
%TO.N,/Perpherials/GPIO*%
X140600000Y-82204300D03*
X146099498Y-87271944D03*
%TO.N,/Neuropixels 2.0/NP_{Select}*%
X145975500Y-86850000D03*
X145774501Y-88979500D03*
D12*
%TO.N,+2V5*%
X140375000Y-86400000D03*
D11*
X138215000Y-89990000D03*
%TO.N,Net-(U3-VDDCML)*%
X144845000Y-87650499D03*
%TO.N,Net-(U3-DOUTP)*%
X144425000Y-86449500D03*
%TO.N,Net-(U7-CAP)*%
X139483691Y-92449503D03*
%TO.N,Net-(U3-GPIO3{slash}CLKIN)*%
X145857158Y-86184021D03*
X145895000Y-87940000D03*
%TO.N,Net-(U3-MODE)*%
X141625000Y-87650000D03*
%TO.N,/Neuropixels 2.0/NP_{RESET}*%
X145725000Y-95650000D03*
X139125000Y-95650000D03*
X145675000Y-95080000D03*
%TO.N,+1.8VA*%
X143205000Y-93880000D03*
X141525000Y-95650000D03*
X138570000Y-91375000D03*
X143325000Y-95650000D03*
X143325000Y-92702940D03*
%TO.N,/Neuropixels 2.0/NP_{TP1}*%
X146355000Y-93550000D03*
%TO.N,/Serializer/Dout-*%
X144025000Y-85380000D03*
%TD*%
%TA.AperFunction,Conductor*%
%TO.N,GND*%
G36*
X142943671Y-81914352D02*
G01*
X142959788Y-81930469D01*
X143039712Y-81976614D01*
X143128856Y-82000500D01*
X143159083Y-82000500D01*
X143175000Y-82000500D01*
X143201929Y-82000500D01*
X146266098Y-82000500D01*
X146296649Y-82011190D01*
X146313869Y-82038596D01*
X146310246Y-82070759D01*
X146287505Y-82093501D01*
X146285478Y-82094211D01*
X146283147Y-82095675D01*
X146283144Y-82095677D01*
X146135069Y-82188718D01*
X146135061Y-82188724D01*
X146132738Y-82190184D01*
X146130794Y-82192127D01*
X146130790Y-82192131D01*
X146007131Y-82315790D01*
X146007127Y-82315794D01*
X146005184Y-82317738D01*
X146003724Y-82320061D01*
X146003718Y-82320069D01*
X145910675Y-82468147D01*
X145910672Y-82468151D01*
X145909211Y-82470478D01*
X145908302Y-82473072D01*
X145908302Y-82473075D01*
X145850540Y-82638147D01*
X145850537Y-82638155D01*
X145849632Y-82640745D01*
X145849324Y-82643477D01*
X145849324Y-82643478D01*
X145834653Y-82773679D01*
X145834651Y-82773696D01*
X145834500Y-82775046D01*
X145834500Y-84064954D01*
X145834652Y-84066303D01*
X145834653Y-84066320D01*
X145845500Y-84162582D01*
X145849632Y-84199255D01*
X145850538Y-84201846D01*
X145850540Y-84201852D01*
X145863551Y-84239034D01*
X145909211Y-84369522D01*
X145910674Y-84371851D01*
X145910675Y-84371852D01*
X146003718Y-84519930D01*
X146003721Y-84519934D01*
X146005184Y-84522262D01*
X146132738Y-84649816D01*
X146135067Y-84651279D01*
X146135069Y-84651281D01*
X146209107Y-84697802D01*
X146285478Y-84745789D01*
X146455745Y-84805368D01*
X146635000Y-84825565D01*
X146814255Y-84805368D01*
X146984522Y-84745789D01*
X147137262Y-84649816D01*
X147264816Y-84522262D01*
X147334010Y-84412139D01*
X147358026Y-84392431D01*
X147389065Y-84391124D01*
X147414652Y-84408744D01*
X147424500Y-84438209D01*
X147424500Y-89887091D01*
X147424497Y-89887108D01*
X147424493Y-89887108D01*
X147424493Y-89983389D01*
X147424830Y-89985301D01*
X147425000Y-89989180D01*
X147425000Y-90953689D01*
X147424255Y-90962198D01*
X147419864Y-90987107D01*
X147420608Y-90991326D01*
X147420608Y-90991327D01*
X147424256Y-91012016D01*
X147425000Y-91020525D01*
X147425000Y-91573689D01*
X147424256Y-91582198D01*
X147422467Y-91592347D01*
X147419864Y-91607107D01*
X147420608Y-91611326D01*
X147420608Y-91611327D01*
X147424256Y-91632016D01*
X147425000Y-91640525D01*
X147425000Y-92605103D01*
X147424832Y-92608936D01*
X147424499Y-92610826D01*
X147424499Y-92691190D01*
X147424500Y-92691190D01*
X147424500Y-92691192D01*
X147424500Y-96050500D01*
X147410148Y-96085148D01*
X147375500Y-96099500D01*
X137474500Y-96099500D01*
X137439852Y-96085148D01*
X137425500Y-96050500D01*
X137425500Y-95650000D01*
X138919344Y-95650000D01*
X138939710Y-95739231D01*
X138996776Y-95810788D01*
X139079237Y-95850500D01*
X139165243Y-95850500D01*
X139170763Y-95850500D01*
X139253224Y-95810788D01*
X139310290Y-95739231D01*
X139330656Y-95650000D01*
X139519344Y-95650000D01*
X139539710Y-95739231D01*
X139596776Y-95810788D01*
X139679237Y-95850500D01*
X139765243Y-95850500D01*
X139770763Y-95850500D01*
X139853224Y-95810788D01*
X139910290Y-95739231D01*
X139930656Y-95650000D01*
X141319344Y-95650000D01*
X141339710Y-95739231D01*
X141396776Y-95810788D01*
X141479237Y-95850500D01*
X141565243Y-95850500D01*
X141570763Y-95850500D01*
X141653224Y-95810788D01*
X141710290Y-95739231D01*
X141730656Y-95650000D01*
X143119344Y-95650000D01*
X143139710Y-95739231D01*
X143196776Y-95810788D01*
X143279237Y-95850500D01*
X143365243Y-95850500D01*
X143370763Y-95850500D01*
X143453224Y-95810788D01*
X143510290Y-95739231D01*
X143530656Y-95650000D01*
X144919344Y-95650000D01*
X144939710Y-95739231D01*
X144996776Y-95810788D01*
X145079237Y-95850500D01*
X145165243Y-95850500D01*
X145170763Y-95850500D01*
X145253224Y-95810788D01*
X145310290Y-95739231D01*
X145330656Y-95650000D01*
X145519344Y-95650000D01*
X145539710Y-95739231D01*
X145596776Y-95810788D01*
X145679237Y-95850500D01*
X145765243Y-95850500D01*
X145770763Y-95850500D01*
X145853224Y-95810788D01*
X145910290Y-95739231D01*
X145930656Y-95650000D01*
X145910290Y-95560769D01*
X145853224Y-95489212D01*
X145770763Y-95449500D01*
X145679237Y-95449500D01*
X145674264Y-95451894D01*
X145674263Y-95451895D01*
X145601750Y-95486816D01*
X145601748Y-95486817D01*
X145596776Y-95489212D01*
X145593335Y-95493526D01*
X145593332Y-95493529D01*
X145543154Y-95556450D01*
X145539710Y-95560769D01*
X145519344Y-95650000D01*
X145330656Y-95650000D01*
X145310290Y-95560769D01*
X145253224Y-95489212D01*
X145170763Y-95449500D01*
X145079237Y-95449500D01*
X145074264Y-95451894D01*
X145074263Y-95451895D01*
X145001750Y-95486816D01*
X145001748Y-95486817D01*
X144996776Y-95489212D01*
X144993335Y-95493526D01*
X144993332Y-95493529D01*
X144943154Y-95556450D01*
X144939710Y-95560769D01*
X144919344Y-95650000D01*
X143530656Y-95650000D01*
X143510290Y-95560769D01*
X143453224Y-95489212D01*
X143370763Y-95449500D01*
X143279237Y-95449500D01*
X143274264Y-95451894D01*
X143274263Y-95451895D01*
X143201750Y-95486816D01*
X143201748Y-95486817D01*
X143196776Y-95489212D01*
X143193335Y-95493526D01*
X143193332Y-95493529D01*
X143143154Y-95556450D01*
X143139710Y-95560769D01*
X143119344Y-95650000D01*
X141730656Y-95650000D01*
X141710290Y-95560769D01*
X141653224Y-95489212D01*
X141570763Y-95449500D01*
X141479237Y-95449500D01*
X141474264Y-95451894D01*
X141474263Y-95451895D01*
X141401750Y-95486816D01*
X141401748Y-95486817D01*
X141396776Y-95489212D01*
X141393335Y-95493526D01*
X141393332Y-95493529D01*
X141343154Y-95556450D01*
X141339710Y-95560769D01*
X141319344Y-95650000D01*
X139930656Y-95650000D01*
X139910290Y-95560769D01*
X139853224Y-95489212D01*
X139770763Y-95449500D01*
X139679237Y-95449500D01*
X139674264Y-95451894D01*
X139674263Y-95451895D01*
X139601750Y-95486816D01*
X139601748Y-95486817D01*
X139596776Y-95489212D01*
X139593335Y-95493526D01*
X139593332Y-95493529D01*
X139543154Y-95556450D01*
X139539710Y-95560769D01*
X139519344Y-95650000D01*
X139330656Y-95650000D01*
X139310290Y-95560769D01*
X139253224Y-95489212D01*
X139170763Y-95449500D01*
X139079237Y-95449500D01*
X139074264Y-95451894D01*
X139074263Y-95451895D01*
X139001750Y-95486816D01*
X139001748Y-95486817D01*
X138996776Y-95489212D01*
X138993335Y-95493526D01*
X138993332Y-95493529D01*
X138943154Y-95556450D01*
X138939710Y-95560769D01*
X138919344Y-95650000D01*
X137425500Y-95650000D01*
X137425500Y-94980000D01*
X138669344Y-94980000D01*
X138689710Y-95069231D01*
X138746776Y-95140788D01*
X138829237Y-95180500D01*
X138915243Y-95180500D01*
X138920763Y-95180500D01*
X139003224Y-95140788D01*
X139051702Y-95080000D01*
X145469344Y-95080000D01*
X145489710Y-95169231D01*
X145546776Y-95240788D01*
X145629237Y-95280500D01*
X145715243Y-95280500D01*
X145720763Y-95280500D01*
X145803224Y-95240788D01*
X145860290Y-95169231D01*
X145870271Y-95125500D01*
X146119344Y-95125500D01*
X146139710Y-95214731D01*
X146196776Y-95286288D01*
X146279237Y-95326000D01*
X146365243Y-95326000D01*
X146370763Y-95326000D01*
X146453224Y-95286288D01*
X146510290Y-95214731D01*
X146530656Y-95125500D01*
X146510290Y-95036269D01*
X146453224Y-94964712D01*
X146370763Y-94925000D01*
X146279237Y-94925000D01*
X146274264Y-94927394D01*
X146274263Y-94927395D01*
X146201750Y-94962316D01*
X146201748Y-94962317D01*
X146196776Y-94964712D01*
X146193335Y-94969026D01*
X146193332Y-94969029D01*
X146143154Y-95031950D01*
X146139710Y-95036269D01*
X146138481Y-95041650D01*
X146138481Y-95041652D01*
X146132187Y-95069231D01*
X146119344Y-95125500D01*
X145870271Y-95125500D01*
X145880656Y-95080000D01*
X145860290Y-94990769D01*
X145803224Y-94919212D01*
X145720763Y-94879500D01*
X145629237Y-94879500D01*
X145624264Y-94881894D01*
X145624263Y-94881895D01*
X145551750Y-94916816D01*
X145551748Y-94916817D01*
X145546776Y-94919212D01*
X145543335Y-94923526D01*
X145543332Y-94923529D01*
X145493154Y-94986450D01*
X145489710Y-94990769D01*
X145488481Y-94996150D01*
X145488481Y-94996152D01*
X145473428Y-95062105D01*
X145469344Y-95080000D01*
X139051702Y-95080000D01*
X139060290Y-95069231D01*
X139080656Y-94980000D01*
X139060290Y-94890769D01*
X139003224Y-94819212D01*
X138920763Y-94779500D01*
X138829237Y-94779500D01*
X138824264Y-94781894D01*
X138824263Y-94781895D01*
X138751750Y-94816816D01*
X138751748Y-94816817D01*
X138746776Y-94819212D01*
X138743335Y-94823526D01*
X138743332Y-94823529D01*
X138696787Y-94881895D01*
X138689710Y-94890769D01*
X138688481Y-94896150D01*
X138688481Y-94896152D01*
X138673428Y-94962105D01*
X138669344Y-94980000D01*
X137425500Y-94980000D01*
X137425500Y-93710000D01*
X139299344Y-93710000D01*
X139300572Y-93715380D01*
X139317778Y-93790769D01*
X139319710Y-93799231D01*
X139376776Y-93870788D01*
X139459237Y-93910500D01*
X139545243Y-93910500D01*
X139550763Y-93910500D01*
X139614096Y-93880000D01*
X142999344Y-93880000D01*
X143019710Y-93969231D01*
X143027466Y-93978956D01*
X143066562Y-94027981D01*
X143076776Y-94040788D01*
X143159237Y-94080500D01*
X143245243Y-94080500D01*
X143250763Y-94080500D01*
X143333224Y-94040788D01*
X143386825Y-93973576D01*
X145862920Y-93973576D01*
X145883286Y-94062807D01*
X145940352Y-94134364D01*
X146022813Y-94174076D01*
X146108819Y-94174076D01*
X146114339Y-94174076D01*
X146196800Y-94134364D01*
X146253866Y-94062807D01*
X146274232Y-93973576D01*
X146253866Y-93884345D01*
X146196800Y-93812788D01*
X146177615Y-93803549D01*
X146119312Y-93775471D01*
X146114339Y-93773076D01*
X146022813Y-93773076D01*
X146017840Y-93775470D01*
X146017839Y-93775471D01*
X145945326Y-93810392D01*
X145945324Y-93810393D01*
X145940352Y-93812788D01*
X145936911Y-93817102D01*
X145936908Y-93817105D01*
X145887881Y-93878583D01*
X145883286Y-93884345D01*
X145862920Y-93973576D01*
X143386825Y-93973576D01*
X143390290Y-93969231D01*
X143410656Y-93880000D01*
X143390290Y-93790769D01*
X143333224Y-93719212D01*
X143250763Y-93679500D01*
X143159237Y-93679500D01*
X143154264Y-93681894D01*
X143154263Y-93681895D01*
X143081750Y-93716816D01*
X143081748Y-93716817D01*
X143076776Y-93719212D01*
X143073335Y-93723526D01*
X143073332Y-93723529D01*
X143023154Y-93786450D01*
X143019710Y-93790769D01*
X143018481Y-93796150D01*
X143018481Y-93796152D01*
X143016793Y-93803549D01*
X142999344Y-93880000D01*
X139614096Y-93880000D01*
X139633224Y-93870788D01*
X139690290Y-93799231D01*
X139710656Y-93710000D01*
X139690290Y-93620769D01*
X139633852Y-93550000D01*
X146149344Y-93550000D01*
X146169710Y-93639231D01*
X146226776Y-93710788D01*
X146309237Y-93750500D01*
X146395243Y-93750500D01*
X146400763Y-93750500D01*
X146483224Y-93710788D01*
X146540290Y-93639231D01*
X146560656Y-93550000D01*
X146540290Y-93460769D01*
X146483224Y-93389212D01*
X146400763Y-93349500D01*
X146309237Y-93349500D01*
X146304264Y-93351894D01*
X146304263Y-93351895D01*
X146231750Y-93386816D01*
X146231748Y-93386817D01*
X146226776Y-93389212D01*
X146223335Y-93393526D01*
X146223332Y-93393529D01*
X146173154Y-93456450D01*
X146169710Y-93460769D01*
X146149344Y-93550000D01*
X139633852Y-93550000D01*
X139633224Y-93549212D01*
X139550763Y-93509500D01*
X139459237Y-93509500D01*
X139454264Y-93511894D01*
X139454263Y-93511895D01*
X139381750Y-93546816D01*
X139381748Y-93546817D01*
X139376776Y-93549212D01*
X139373335Y-93553526D01*
X139373332Y-93553529D01*
X139336720Y-93599439D01*
X139319710Y-93620769D01*
X139318481Y-93626150D01*
X139318481Y-93626152D01*
X139306305Y-93679500D01*
X139299344Y-93710000D01*
X137425500Y-93710000D01*
X137425500Y-93150000D01*
X139819344Y-93150000D01*
X139839710Y-93239231D01*
X139896776Y-93310788D01*
X139979237Y-93350500D01*
X140065243Y-93350500D01*
X140070763Y-93350500D01*
X140153224Y-93310788D01*
X140210290Y-93239231D01*
X140230656Y-93150000D01*
X140419344Y-93150000D01*
X140439710Y-93239231D01*
X140496776Y-93310788D01*
X140579237Y-93350500D01*
X140665243Y-93350500D01*
X140670763Y-93350500D01*
X140753224Y-93310788D01*
X140810290Y-93239231D01*
X140830656Y-93150000D01*
X141019344Y-93150000D01*
X141039710Y-93239231D01*
X141096776Y-93310788D01*
X141179237Y-93350500D01*
X141265243Y-93350500D01*
X141270763Y-93350500D01*
X141353224Y-93310788D01*
X141410290Y-93239231D01*
X141430656Y-93150000D01*
X141619344Y-93150000D01*
X141639710Y-93239231D01*
X141696776Y-93310788D01*
X141779237Y-93350500D01*
X141865243Y-93350500D01*
X141870763Y-93350500D01*
X141953224Y-93310788D01*
X142010290Y-93239231D01*
X142030656Y-93150000D01*
X142219344Y-93150000D01*
X142239710Y-93239231D01*
X142296776Y-93310788D01*
X142379237Y-93350500D01*
X142465243Y-93350500D01*
X142470763Y-93350500D01*
X142553224Y-93310788D01*
X142610290Y-93239231D01*
X142630656Y-93150000D01*
X142819344Y-93150000D01*
X142839710Y-93239231D01*
X142896776Y-93310788D01*
X142979237Y-93350500D01*
X143065243Y-93350500D01*
X143070763Y-93350500D01*
X143153224Y-93310788D01*
X143210290Y-93239231D01*
X143230656Y-93150000D01*
X143419344Y-93150000D01*
X143439710Y-93239231D01*
X143496776Y-93310788D01*
X143579237Y-93350500D01*
X143665243Y-93350500D01*
X143670763Y-93350500D01*
X143753224Y-93310788D01*
X143810290Y-93239231D01*
X143830656Y-93150000D01*
X144019344Y-93150000D01*
X144039710Y-93239231D01*
X144096776Y-93310788D01*
X144179237Y-93350500D01*
X144265243Y-93350500D01*
X144270763Y-93350500D01*
X144353224Y-93310788D01*
X144410290Y-93239231D01*
X144430656Y-93150000D01*
X144619344Y-93150000D01*
X144639710Y-93239231D01*
X144696776Y-93310788D01*
X144779237Y-93350500D01*
X144865243Y-93350500D01*
X144870763Y-93350500D01*
X144953224Y-93310788D01*
X145010290Y-93239231D01*
X145030656Y-93150000D01*
X145010290Y-93060769D01*
X144953224Y-92989212D01*
X144870763Y-92949500D01*
X144779237Y-92949500D01*
X144774264Y-92951894D01*
X144774263Y-92951895D01*
X144701750Y-92986816D01*
X144701748Y-92986817D01*
X144696776Y-92989212D01*
X144693335Y-92993526D01*
X144693332Y-92993529D01*
X144644512Y-93054747D01*
X144639710Y-93060769D01*
X144619344Y-93150000D01*
X144430656Y-93150000D01*
X144410290Y-93060769D01*
X144353224Y-92989212D01*
X144270763Y-92949500D01*
X144179237Y-92949500D01*
X144174264Y-92951894D01*
X144174263Y-92951895D01*
X144101750Y-92986816D01*
X144101748Y-92986817D01*
X144096776Y-92989212D01*
X144093335Y-92993526D01*
X144093332Y-92993529D01*
X144044512Y-93054747D01*
X144039710Y-93060769D01*
X144019344Y-93150000D01*
X143830656Y-93150000D01*
X143810290Y-93060769D01*
X143753224Y-92989212D01*
X143670763Y-92949500D01*
X143579237Y-92949500D01*
X143574264Y-92951894D01*
X143574263Y-92951895D01*
X143501750Y-92986816D01*
X143501748Y-92986817D01*
X143496776Y-92989212D01*
X143493335Y-92993526D01*
X143493332Y-92993529D01*
X143444512Y-93054747D01*
X143439710Y-93060769D01*
X143419344Y-93150000D01*
X143230656Y-93150000D01*
X143210290Y-93060769D01*
X143153224Y-92989212D01*
X143070763Y-92949500D01*
X142979237Y-92949500D01*
X142974264Y-92951894D01*
X142974263Y-92951895D01*
X142901750Y-92986816D01*
X142901748Y-92986817D01*
X142896776Y-92989212D01*
X142893335Y-92993526D01*
X142893332Y-92993529D01*
X142844512Y-93054747D01*
X142839710Y-93060769D01*
X142819344Y-93150000D01*
X142630656Y-93150000D01*
X142610290Y-93060769D01*
X142553224Y-92989212D01*
X142470763Y-92949500D01*
X142379237Y-92949500D01*
X142374264Y-92951894D01*
X142374263Y-92951895D01*
X142301750Y-92986816D01*
X142301748Y-92986817D01*
X142296776Y-92989212D01*
X142293335Y-92993526D01*
X142293332Y-92993529D01*
X142244512Y-93054747D01*
X142239710Y-93060769D01*
X142219344Y-93150000D01*
X142030656Y-93150000D01*
X142010290Y-93060769D01*
X141953224Y-92989212D01*
X141870763Y-92949500D01*
X141779237Y-92949500D01*
X141774264Y-92951894D01*
X141774263Y-92951895D01*
X141701750Y-92986816D01*
X141701748Y-92986817D01*
X141696776Y-92989212D01*
X141693335Y-92993526D01*
X141693332Y-92993529D01*
X141644512Y-93054747D01*
X141639710Y-93060769D01*
X141619344Y-93150000D01*
X141430656Y-93150000D01*
X141410290Y-93060769D01*
X141353224Y-92989212D01*
X141270763Y-92949500D01*
X141179237Y-92949500D01*
X141174264Y-92951894D01*
X141174263Y-92951895D01*
X141101750Y-92986816D01*
X141101748Y-92986817D01*
X141096776Y-92989212D01*
X141093335Y-92993526D01*
X141093332Y-92993529D01*
X141044512Y-93054747D01*
X141039710Y-93060769D01*
X141019344Y-93150000D01*
X140830656Y-93150000D01*
X140810290Y-93060769D01*
X140753224Y-92989212D01*
X140670763Y-92949500D01*
X140579237Y-92949500D01*
X140574264Y-92951894D01*
X140574263Y-92951895D01*
X140501750Y-92986816D01*
X140501748Y-92986817D01*
X140496776Y-92989212D01*
X140493335Y-92993526D01*
X140493332Y-92993529D01*
X140444512Y-93054747D01*
X140439710Y-93060769D01*
X140419344Y-93150000D01*
X140230656Y-93150000D01*
X140210290Y-93060769D01*
X140153224Y-92989212D01*
X140070763Y-92949500D01*
X139979237Y-92949500D01*
X139974264Y-92951894D01*
X139974263Y-92951895D01*
X139901750Y-92986816D01*
X139901748Y-92986817D01*
X139896776Y-92989212D01*
X139893335Y-92993526D01*
X139893332Y-92993529D01*
X139844512Y-93054747D01*
X139839710Y-93060769D01*
X139819344Y-93150000D01*
X137425500Y-93150000D01*
X137425500Y-92527730D01*
X137941939Y-92527730D01*
X137943167Y-92533110D01*
X137960782Y-92610291D01*
X137962305Y-92616961D01*
X138019371Y-92688518D01*
X138101832Y-92728230D01*
X138187838Y-92728230D01*
X138193358Y-92728230D01*
X138275819Y-92688518D01*
X138324877Y-92627003D01*
X138779701Y-92627003D01*
X138786562Y-92657066D01*
X138794350Y-92691188D01*
X138800067Y-92716234D01*
X138857133Y-92787791D01*
X138939594Y-92827503D01*
X139025600Y-92827503D01*
X139031120Y-92827503D01*
X139113581Y-92787791D01*
X139170647Y-92716234D01*
X139173681Y-92702940D01*
X143119344Y-92702940D01*
X143139710Y-92792171D01*
X143196776Y-92863728D01*
X143279237Y-92903440D01*
X143365243Y-92903440D01*
X143370763Y-92903440D01*
X143453224Y-92863728D01*
X143510290Y-92792171D01*
X143530656Y-92702940D01*
X143510290Y-92613709D01*
X143453224Y-92542152D01*
X143370763Y-92502440D01*
X143279237Y-92502440D01*
X143274264Y-92504834D01*
X143274263Y-92504835D01*
X143201750Y-92539756D01*
X143201748Y-92539757D01*
X143196776Y-92542152D01*
X143193335Y-92546466D01*
X143193332Y-92546469D01*
X143143154Y-92609390D01*
X143139710Y-92613709D01*
X143138481Y-92619090D01*
X143138481Y-92619092D01*
X143135448Y-92632383D01*
X143119344Y-92702940D01*
X139173681Y-92702940D01*
X139191013Y-92627003D01*
X139170647Y-92537772D01*
X139113581Y-92466215D01*
X139090050Y-92454883D01*
X139078879Y-92449503D01*
X139278035Y-92449503D01*
X139281849Y-92466215D01*
X139294661Y-92522350D01*
X139298401Y-92538734D01*
X139326934Y-92574512D01*
X139351329Y-92605103D01*
X139355467Y-92610291D01*
X139437928Y-92650003D01*
X139523934Y-92650003D01*
X139529454Y-92650003D01*
X139611915Y-92610291D01*
X139668981Y-92538734D01*
X139689347Y-92449503D01*
X139668981Y-92360272D01*
X139611915Y-92288715D01*
X139529454Y-92249003D01*
X139437928Y-92249003D01*
X139432955Y-92251397D01*
X139432954Y-92251398D01*
X139360441Y-92286319D01*
X139360439Y-92286320D01*
X139355467Y-92288715D01*
X139352026Y-92293029D01*
X139352023Y-92293032D01*
X139301845Y-92355953D01*
X139298401Y-92360272D01*
X139297172Y-92365653D01*
X139297172Y-92365655D01*
X139295893Y-92371259D01*
X139278035Y-92449503D01*
X139078879Y-92449503D01*
X139036093Y-92428898D01*
X139031120Y-92426503D01*
X138939594Y-92426503D01*
X138934621Y-92428897D01*
X138934620Y-92428898D01*
X138862107Y-92463819D01*
X138862105Y-92463820D01*
X138857133Y-92466215D01*
X138853692Y-92470529D01*
X138853689Y-92470532D01*
X138803511Y-92533453D01*
X138800067Y-92537772D01*
X138798838Y-92543153D01*
X138798838Y-92543155D01*
X138784699Y-92605103D01*
X138779701Y-92627003D01*
X138324877Y-92627003D01*
X138332885Y-92616961D01*
X138353251Y-92527730D01*
X138332885Y-92438499D01*
X138275819Y-92366942D01*
X138193358Y-92327230D01*
X138101832Y-92327230D01*
X138096859Y-92329624D01*
X138096858Y-92329625D01*
X138024345Y-92364546D01*
X138024343Y-92364547D01*
X138019371Y-92366942D01*
X138015930Y-92371256D01*
X138015927Y-92371259D01*
X137965749Y-92434180D01*
X137962305Y-92438499D01*
X137961076Y-92443880D01*
X137961076Y-92443882D01*
X137956526Y-92463819D01*
X137941939Y-92527730D01*
X137425500Y-92527730D01*
X137425500Y-91650500D01*
X144069344Y-91650500D01*
X144089710Y-91739731D01*
X144093154Y-91744049D01*
X144130158Y-91790451D01*
X144146776Y-91811288D01*
X144229237Y-91851000D01*
X144315243Y-91851000D01*
X144320763Y-91851000D01*
X144403224Y-91811288D01*
X144460290Y-91739731D01*
X144480656Y-91650500D01*
X144467383Y-91592347D01*
X145669844Y-91592347D01*
X145690210Y-91681578D01*
X145702699Y-91697238D01*
X145733569Y-91735948D01*
X145747276Y-91753135D01*
X145829737Y-91792847D01*
X145915743Y-91792847D01*
X145921263Y-91792847D01*
X146003724Y-91753135D01*
X146060790Y-91681578D01*
X146081156Y-91592347D01*
X146060790Y-91503116D01*
X146003724Y-91431559D01*
X145921263Y-91391847D01*
X145829737Y-91391847D01*
X145824764Y-91394241D01*
X145824763Y-91394242D01*
X145752250Y-91429163D01*
X145752248Y-91429164D01*
X145747276Y-91431559D01*
X145743835Y-91435873D01*
X145743832Y-91435876D01*
X145693654Y-91498797D01*
X145690210Y-91503116D01*
X145688981Y-91508497D01*
X145688981Y-91508499D01*
X145682753Y-91535788D01*
X145669844Y-91592347D01*
X144467383Y-91592347D01*
X144460290Y-91561269D01*
X144403224Y-91489712D01*
X144320763Y-91450000D01*
X144229237Y-91450000D01*
X144224264Y-91452394D01*
X144224263Y-91452395D01*
X144151750Y-91487316D01*
X144151748Y-91487317D01*
X144146776Y-91489712D01*
X144143335Y-91494026D01*
X144143332Y-91494029D01*
X144101996Y-91545863D01*
X144089710Y-91561269D01*
X144088481Y-91566650D01*
X144088481Y-91566652D01*
X144075091Y-91625322D01*
X144069344Y-91650500D01*
X137425500Y-91650500D01*
X137425500Y-91375000D01*
X138364344Y-91375000D01*
X138365572Y-91380380D01*
X138382008Y-91452395D01*
X138384710Y-91464231D01*
X138402788Y-91486899D01*
X138426773Y-91516976D01*
X138441776Y-91535788D01*
X138524237Y-91575500D01*
X138610243Y-91575500D01*
X138615763Y-91575500D01*
X138698224Y-91535788D01*
X138755290Y-91464231D01*
X138773356Y-91385075D01*
X144869344Y-91385075D01*
X144889710Y-91474306D01*
X144901996Y-91489712D01*
X144935297Y-91531470D01*
X144946776Y-91545863D01*
X145029237Y-91585575D01*
X145115243Y-91585575D01*
X145120763Y-91585575D01*
X145203224Y-91545863D01*
X145260290Y-91474306D01*
X145280656Y-91385075D01*
X145260290Y-91295844D01*
X145203224Y-91224287D01*
X145120763Y-91184575D01*
X145029237Y-91184575D01*
X145024264Y-91186969D01*
X145024263Y-91186970D01*
X144951750Y-91221891D01*
X144951748Y-91221892D01*
X144946776Y-91224287D01*
X144943335Y-91228601D01*
X144943332Y-91228604D01*
X144893154Y-91291525D01*
X144889710Y-91295844D01*
X144888481Y-91301225D01*
X144888481Y-91301227D01*
X144884889Y-91316966D01*
X144869344Y-91385075D01*
X138773356Y-91385075D01*
X138775656Y-91375000D01*
X138755290Y-91285769D01*
X138713831Y-91233782D01*
X138701667Y-91218529D01*
X138701666Y-91218528D01*
X138698224Y-91214212D01*
X138615763Y-91174500D01*
X138524237Y-91174500D01*
X138519264Y-91176894D01*
X138519263Y-91176895D01*
X138446750Y-91211816D01*
X138446748Y-91211817D01*
X138441776Y-91214212D01*
X138438335Y-91218526D01*
X138438332Y-91218529D01*
X138388154Y-91281450D01*
X138384710Y-91285769D01*
X138383481Y-91291150D01*
X138383481Y-91291152D01*
X138369951Y-91350435D01*
X138364344Y-91375000D01*
X137425500Y-91375000D01*
X137425500Y-91016076D01*
X138778844Y-91016076D01*
X138785705Y-91046139D01*
X138792803Y-91077238D01*
X138799210Y-91105307D01*
X138802654Y-91109625D01*
X138842159Y-91159163D01*
X138856276Y-91176864D01*
X138938737Y-91216576D01*
X139024743Y-91216576D01*
X139030263Y-91216576D01*
X139112724Y-91176864D01*
X139134200Y-91149935D01*
X144249409Y-91149935D01*
X144250637Y-91155315D01*
X144264079Y-91214212D01*
X144269775Y-91239166D01*
X144326841Y-91310723D01*
X144409302Y-91350435D01*
X144495308Y-91350435D01*
X144500828Y-91350435D01*
X144583289Y-91310723D01*
X144640355Y-91239166D01*
X144659843Y-91153783D01*
X145333666Y-91153783D01*
X145334894Y-91159163D01*
X145348443Y-91218529D01*
X145354032Y-91243014D01*
X145357476Y-91247332D01*
X145404585Y-91306405D01*
X145411098Y-91314571D01*
X145493559Y-91354283D01*
X145579565Y-91354283D01*
X145585085Y-91354283D01*
X145667546Y-91314571D01*
X145724612Y-91243014D01*
X145744978Y-91153783D01*
X145724612Y-91064552D01*
X145667546Y-90992995D01*
X145654580Y-90986751D01*
X145590058Y-90955678D01*
X145585085Y-90953283D01*
X145493559Y-90953283D01*
X145488586Y-90955677D01*
X145488585Y-90955678D01*
X145416072Y-90990599D01*
X145416070Y-90990600D01*
X145411098Y-90992995D01*
X145407657Y-90997309D01*
X145407654Y-90997312D01*
X145360545Y-91056385D01*
X145354032Y-91064552D01*
X145352803Y-91069933D01*
X145352803Y-91069935D01*
X145337750Y-91135888D01*
X145333666Y-91153783D01*
X144659843Y-91153783D01*
X144660721Y-91149935D01*
X144640355Y-91060704D01*
X144583289Y-90989147D01*
X144570292Y-90982888D01*
X144524572Y-90960870D01*
X144500828Y-90949435D01*
X144409302Y-90949435D01*
X144404329Y-90951829D01*
X144404328Y-90951830D01*
X144331815Y-90986751D01*
X144331813Y-90986752D01*
X144326841Y-90989147D01*
X144323400Y-90993461D01*
X144323397Y-90993464D01*
X144273219Y-91056385D01*
X144269775Y-91060704D01*
X144249409Y-91149935D01*
X139134200Y-91149935D01*
X139169790Y-91105307D01*
X139190156Y-91016076D01*
X139169790Y-90926845D01*
X139112724Y-90855288D01*
X139030263Y-90815576D01*
X138938737Y-90815576D01*
X138933764Y-90817970D01*
X138933763Y-90817971D01*
X138861250Y-90852892D01*
X138861248Y-90852893D01*
X138856276Y-90855288D01*
X138852835Y-90859602D01*
X138852832Y-90859605D01*
X138806022Y-90918303D01*
X138799210Y-90926845D01*
X138797981Y-90932226D01*
X138797981Y-90932228D01*
X138791444Y-90960870D01*
X138778844Y-91016076D01*
X137425500Y-91016076D01*
X137425500Y-90790000D01*
X140419344Y-90790000D01*
X140420572Y-90795380D01*
X140437582Y-90869910D01*
X140439710Y-90879231D01*
X140457283Y-90901266D01*
X140481974Y-90932228D01*
X140496776Y-90950788D01*
X140579237Y-90990500D01*
X140665243Y-90990500D01*
X140670763Y-90990500D01*
X140753224Y-90950788D01*
X140810290Y-90879231D01*
X140830656Y-90790000D01*
X140810290Y-90700769D01*
X140753224Y-90629212D01*
X140670763Y-90589500D01*
X140579237Y-90589500D01*
X140574264Y-90591894D01*
X140574263Y-90591895D01*
X140501750Y-90626816D01*
X140501748Y-90626817D01*
X140496776Y-90629212D01*
X140493335Y-90633526D01*
X140493332Y-90633529D01*
X140446113Y-90692740D01*
X140439710Y-90700769D01*
X140438481Y-90706150D01*
X140438481Y-90706152D01*
X140434093Y-90725380D01*
X140419344Y-90790000D01*
X137425500Y-90790000D01*
X137425500Y-90210000D01*
X141419344Y-90210000D01*
X141439710Y-90299231D01*
X141461179Y-90326152D01*
X141489539Y-90361714D01*
X141496776Y-90370788D01*
X141579237Y-90410500D01*
X141665243Y-90410500D01*
X141670763Y-90410500D01*
X141753224Y-90370788D01*
X141810290Y-90299231D01*
X141830656Y-90210000D01*
X141810290Y-90120769D01*
X141767403Y-90066991D01*
X141756667Y-90053529D01*
X141756666Y-90053528D01*
X141753224Y-90049212D01*
X141670763Y-90009500D01*
X141579237Y-90009500D01*
X141574264Y-90011894D01*
X141574263Y-90011895D01*
X141501750Y-90046816D01*
X141501748Y-90046817D01*
X141496776Y-90049212D01*
X141493335Y-90053526D01*
X141493332Y-90053529D01*
X141443154Y-90116450D01*
X141439710Y-90120769D01*
X141438481Y-90126150D01*
X141438481Y-90126152D01*
X141423795Y-90190500D01*
X141419344Y-90210000D01*
X137425500Y-90210000D01*
X137425500Y-89990000D01*
X138009344Y-89990000D01*
X138029710Y-90079231D01*
X138086776Y-90150788D01*
X138169237Y-90190500D01*
X138255243Y-90190500D01*
X138260763Y-90190500D01*
X138343224Y-90150788D01*
X138400290Y-90079231D01*
X138419292Y-89995974D01*
X141916722Y-89995974D01*
X141937088Y-90085205D01*
X141994154Y-90156762D01*
X142009043Y-90163932D01*
X142031928Y-90186817D01*
X142035553Y-90218981D01*
X142019344Y-90290000D01*
X142020572Y-90295380D01*
X142038329Y-90373183D01*
X142039710Y-90379231D01*
X142096776Y-90450788D01*
X142179237Y-90490500D01*
X142265243Y-90490500D01*
X142270763Y-90490500D01*
X142353224Y-90450788D01*
X142385752Y-90410000D01*
X145568845Y-90410000D01*
X145589211Y-90499231D01*
X145646277Y-90570788D01*
X145651254Y-90573185D01*
X145655059Y-90576219D01*
X145672279Y-90603625D01*
X145669233Y-90630660D01*
X145669710Y-90630769D01*
X145668483Y-90636144D01*
X145668481Y-90636149D01*
X145656646Y-90688007D01*
X145649344Y-90720000D01*
X145669710Y-90809231D01*
X145687794Y-90831907D01*
X145721240Y-90873847D01*
X145726776Y-90880788D01*
X145809237Y-90920500D01*
X145895243Y-90920500D01*
X145900763Y-90920500D01*
X145983224Y-90880788D01*
X146040290Y-90809231D01*
X146060656Y-90720000D01*
X146040290Y-90630769D01*
X145983224Y-90559212D01*
X145978249Y-90556816D01*
X145974441Y-90553779D01*
X145957221Y-90526372D01*
X145960268Y-90499339D01*
X145959791Y-90499231D01*
X145960241Y-90497260D01*
X145980157Y-90410000D01*
X145959791Y-90320769D01*
X145917493Y-90267730D01*
X145906939Y-90240841D01*
X145913367Y-90212679D01*
X145934542Y-90193032D01*
X145944775Y-90188104D01*
X145999374Y-90161810D01*
X146056440Y-90090253D01*
X146076806Y-90001022D01*
X146075645Y-89995936D01*
X146084092Y-89968551D01*
X146106677Y-89950541D01*
X146134927Y-89948424D01*
X146139237Y-89950500D01*
X146225243Y-89950500D01*
X146230763Y-89950500D01*
X146313224Y-89910788D01*
X146370290Y-89839231D01*
X146390656Y-89750000D01*
X146370290Y-89660769D01*
X146327211Y-89606751D01*
X146316667Y-89593529D01*
X146316666Y-89593528D01*
X146313224Y-89589212D01*
X146230763Y-89549500D01*
X146139237Y-89549500D01*
X146134266Y-89551893D01*
X146134265Y-89551894D01*
X146062826Y-89586298D01*
X146030663Y-89589922D01*
X146003257Y-89572701D01*
X145951897Y-89508299D01*
X145951896Y-89508298D01*
X145948454Y-89503982D01*
X145865993Y-89464270D01*
X145774467Y-89464270D01*
X145769494Y-89466664D01*
X145769493Y-89466665D01*
X145696980Y-89501586D01*
X145696978Y-89501587D01*
X145692006Y-89503982D01*
X145688565Y-89508296D01*
X145688562Y-89508299D01*
X145638384Y-89571220D01*
X145634940Y-89575539D01*
X145633711Y-89580920D01*
X145633711Y-89580922D01*
X145627816Y-89606751D01*
X145614574Y-89664770D01*
X145634940Y-89754001D01*
X145692006Y-89825558D01*
X145693749Y-89826397D01*
X145710881Y-89857396D01*
X145700500Y-89893432D01*
X145689300Y-89907477D01*
X145685860Y-89911791D01*
X145684633Y-89917166D01*
X145684632Y-89917169D01*
X145669519Y-89983389D01*
X145665494Y-90001022D01*
X145666722Y-90006402D01*
X145682115Y-90073847D01*
X145685860Y-90090253D01*
X145728158Y-90143292D01*
X145738711Y-90170180D01*
X145732284Y-90198341D01*
X145711109Y-90217989D01*
X145663659Y-90240841D01*
X145646277Y-90249212D01*
X145642836Y-90253526D01*
X145642833Y-90253529D01*
X145599626Y-90307709D01*
X145589211Y-90320769D01*
X145587982Y-90326150D01*
X145587982Y-90326152D01*
X145575868Y-90379231D01*
X145568845Y-90410000D01*
X142385752Y-90410000D01*
X142410290Y-90379231D01*
X142430656Y-90290000D01*
X142410290Y-90200769D01*
X142353224Y-90129212D01*
X142338334Y-90122041D01*
X142315449Y-90099155D01*
X142311825Y-90066991D01*
X142326806Y-90001357D01*
X142326806Y-90001354D01*
X142328034Y-89995974D01*
X142307668Y-89906743D01*
X142260301Y-89847348D01*
X142254045Y-89839503D01*
X142254044Y-89839502D01*
X142250602Y-89835186D01*
X142228566Y-89824574D01*
X142173114Y-89797869D01*
X142168141Y-89795474D01*
X142076615Y-89795474D01*
X142071642Y-89797868D01*
X142071641Y-89797869D01*
X141999128Y-89832790D01*
X141999126Y-89832791D01*
X141994154Y-89835186D01*
X141990713Y-89839500D01*
X141990710Y-89839503D01*
X141940532Y-89902424D01*
X141937088Y-89906743D01*
X141935859Y-89912124D01*
X141935859Y-89912126D01*
X141922981Y-89968551D01*
X141916722Y-89995974D01*
X138419292Y-89995974D01*
X138420656Y-89990000D01*
X138400290Y-89900769D01*
X138347988Y-89835186D01*
X138346667Y-89833529D01*
X138346666Y-89833528D01*
X138343224Y-89829212D01*
X138333593Y-89824574D01*
X138265736Y-89791895D01*
X138260763Y-89789500D01*
X138169237Y-89789500D01*
X138164264Y-89791894D01*
X138164263Y-89791895D01*
X138091750Y-89826816D01*
X138091748Y-89826817D01*
X138086776Y-89829212D01*
X138083335Y-89833526D01*
X138083332Y-89833529D01*
X138040590Y-89887126D01*
X138029710Y-89900769D01*
X138028481Y-89906150D01*
X138028481Y-89906152D01*
X138018359Y-89950500D01*
X138009344Y-89990000D01*
X137425500Y-89990000D01*
X137425500Y-89672090D01*
X141028405Y-89672090D01*
X141048771Y-89761321D01*
X141076008Y-89795474D01*
X141101002Y-89826816D01*
X141105837Y-89832878D01*
X141188298Y-89872590D01*
X141274304Y-89872590D01*
X141279824Y-89872590D01*
X141362285Y-89832878D01*
X141419351Y-89761321D01*
X141439717Y-89672090D01*
X141419351Y-89582859D01*
X141362285Y-89511302D01*
X141356049Y-89508299D01*
X141284797Y-89473985D01*
X141279824Y-89471590D01*
X141188298Y-89471590D01*
X141183325Y-89473984D01*
X141183324Y-89473985D01*
X141110811Y-89508906D01*
X141110809Y-89508907D01*
X141105837Y-89511302D01*
X141102396Y-89515616D01*
X141102393Y-89515619D01*
X141052215Y-89578540D01*
X141048771Y-89582859D01*
X141047542Y-89588240D01*
X141047542Y-89588242D01*
X141036610Y-89636139D01*
X141028405Y-89672090D01*
X137425500Y-89672090D01*
X137425500Y-89250000D01*
X138819344Y-89250000D01*
X138839710Y-89339231D01*
X138896776Y-89410788D01*
X138979237Y-89450500D01*
X139065243Y-89450500D01*
X139070763Y-89450500D01*
X139153224Y-89410788D01*
X139210290Y-89339231D01*
X139230656Y-89250000D01*
X139210290Y-89160769D01*
X139201702Y-89150000D01*
X141419344Y-89150000D01*
X141420572Y-89155380D01*
X141437427Y-89229231D01*
X141439710Y-89239231D01*
X141448724Y-89250534D01*
X141486467Y-89297862D01*
X141496776Y-89310788D01*
X141579237Y-89350500D01*
X141665243Y-89350500D01*
X141670763Y-89350500D01*
X141724751Y-89324500D01*
X142029344Y-89324500D01*
X142049710Y-89413731D01*
X142106776Y-89485288D01*
X142189237Y-89525000D01*
X142275243Y-89525000D01*
X142280763Y-89525000D01*
X142363224Y-89485288D01*
X142420290Y-89413731D01*
X142440656Y-89324500D01*
X142420290Y-89235269D01*
X142374303Y-89177604D01*
X142366667Y-89168029D01*
X142366666Y-89168028D01*
X142363224Y-89163712D01*
X142352401Y-89158500D01*
X142285736Y-89126395D01*
X142280763Y-89124000D01*
X142189237Y-89124000D01*
X142184264Y-89126394D01*
X142184263Y-89126395D01*
X142111750Y-89161316D01*
X142111748Y-89161317D01*
X142106776Y-89163712D01*
X142103335Y-89168026D01*
X142103332Y-89168029D01*
X142054525Y-89229231D01*
X142049710Y-89235269D01*
X142048481Y-89240650D01*
X142048481Y-89240652D01*
X142035424Y-89297862D01*
X142029344Y-89324500D01*
X141724751Y-89324500D01*
X141753224Y-89310788D01*
X141810290Y-89239231D01*
X141830656Y-89150000D01*
X141810290Y-89060769D01*
X141753224Y-88989212D01*
X141741423Y-88983529D01*
X141733057Y-88979500D01*
X145568845Y-88979500D01*
X145570073Y-88984880D01*
X145584125Y-89046450D01*
X145589211Y-89068731D01*
X145608987Y-89093529D01*
X145641756Y-89134620D01*
X145646277Y-89140288D01*
X145728738Y-89180000D01*
X145814744Y-89180000D01*
X145820264Y-89180000D01*
X145902725Y-89140288D01*
X145902955Y-89140000D01*
X146199344Y-89140000D01*
X146219710Y-89229231D01*
X146231983Y-89244620D01*
X146269535Y-89291709D01*
X146276776Y-89300788D01*
X146359237Y-89340500D01*
X146445243Y-89340500D01*
X146450763Y-89340500D01*
X146533224Y-89300788D01*
X146590290Y-89229231D01*
X146610656Y-89140000D01*
X146590290Y-89050769D01*
X146533224Y-88979212D01*
X146468374Y-88947981D01*
X146456202Y-88942119D01*
X146434577Y-88921674D01*
X146428771Y-88892485D01*
X146440927Y-88865320D01*
X146466049Y-88850502D01*
X146470763Y-88850502D01*
X146553224Y-88810790D01*
X146610290Y-88739233D01*
X146630656Y-88650002D01*
X146610290Y-88560771D01*
X146553224Y-88489214D01*
X146470763Y-88449502D01*
X146379237Y-88449502D01*
X146374264Y-88451896D01*
X146374263Y-88451897D01*
X146301750Y-88486818D01*
X146301748Y-88486819D01*
X146296776Y-88489214D01*
X146293335Y-88493528D01*
X146293332Y-88493531D01*
X146243154Y-88556452D01*
X146239710Y-88560771D01*
X146219344Y-88650002D01*
X146239710Y-88739233D01*
X146243154Y-88743551D01*
X146285888Y-88797138D01*
X146296776Y-88810790D01*
X146373797Y-88847882D01*
X146395422Y-88868326D01*
X146401228Y-88897514D01*
X146389074Y-88924679D01*
X146363951Y-88939500D01*
X146359237Y-88939500D01*
X146354265Y-88941894D01*
X146354262Y-88941895D01*
X146281750Y-88976816D01*
X146281748Y-88976817D01*
X146276776Y-88979212D01*
X146273335Y-88983526D01*
X146273332Y-88983529D01*
X146233012Y-89034089D01*
X146219710Y-89050769D01*
X146218481Y-89056150D01*
X146218481Y-89056152D01*
X146210936Y-89089212D01*
X146199344Y-89140000D01*
X145902955Y-89140000D01*
X145959791Y-89068731D01*
X145980157Y-88979500D01*
X145959791Y-88890269D01*
X145902725Y-88818712D01*
X145891248Y-88813185D01*
X145825237Y-88781395D01*
X145820264Y-88779000D01*
X145728738Y-88779000D01*
X145723765Y-88781394D01*
X145723764Y-88781395D01*
X145651251Y-88816316D01*
X145651249Y-88816317D01*
X145646277Y-88818712D01*
X145642836Y-88823026D01*
X145642833Y-88823029D01*
X145599685Y-88877135D01*
X145589211Y-88890269D01*
X145587982Y-88895650D01*
X145587982Y-88895652D01*
X145572929Y-88961605D01*
X145568845Y-88979500D01*
X141733057Y-88979500D01*
X141675736Y-88951895D01*
X141670763Y-88949500D01*
X141579237Y-88949500D01*
X141574264Y-88951894D01*
X141574263Y-88951895D01*
X141501750Y-88986816D01*
X141501748Y-88986817D01*
X141496776Y-88989212D01*
X141493335Y-88993526D01*
X141493332Y-88993529D01*
X141446787Y-89051895D01*
X141439710Y-89060769D01*
X141438481Y-89066150D01*
X141438481Y-89066152D01*
X141425278Y-89124000D01*
X141419344Y-89150000D01*
X139201702Y-89150000D01*
X139153224Y-89089212D01*
X139070763Y-89049500D01*
X138979237Y-89049500D01*
X138974264Y-89051894D01*
X138974263Y-89051895D01*
X138901750Y-89086816D01*
X138901748Y-89086817D01*
X138896776Y-89089212D01*
X138893335Y-89093526D01*
X138893332Y-89093529D01*
X138843886Y-89155532D01*
X138839710Y-89160769D01*
X138838481Y-89166150D01*
X138838481Y-89166152D01*
X138825313Y-89223847D01*
X138819344Y-89250000D01*
X137425500Y-89250000D01*
X137425500Y-88099352D01*
X138414634Y-88099352D01*
X138415862Y-88104732D01*
X138426818Y-88152737D01*
X138435000Y-88188583D01*
X138492066Y-88260140D01*
X138574527Y-88299852D01*
X138660533Y-88299852D01*
X138666053Y-88299852D01*
X138748514Y-88260140D01*
X138805580Y-88188583D01*
X138825946Y-88099352D01*
X138816779Y-88059188D01*
X141971606Y-88059188D01*
X141972834Y-88064568D01*
X141990164Y-88140500D01*
X141991972Y-88148419D01*
X142049038Y-88219976D01*
X142131499Y-88259688D01*
X142217505Y-88259688D01*
X142223025Y-88259688D01*
X142305486Y-88219976D01*
X142362552Y-88148419D01*
X142382918Y-88059188D01*
X142362552Y-87969957D01*
X142338662Y-87940000D01*
X145689344Y-87940000D01*
X145690572Y-87945380D01*
X145704362Y-88005802D01*
X145709710Y-88029231D01*
X145713154Y-88033549D01*
X145760185Y-88092524D01*
X145766776Y-88100788D01*
X145849237Y-88140500D01*
X145935243Y-88140500D01*
X145940763Y-88140500D01*
X146023224Y-88100788D01*
X146080290Y-88029231D01*
X146100656Y-87940000D01*
X146080290Y-87850769D01*
X146023224Y-87779212D01*
X145940763Y-87739500D01*
X145849237Y-87739500D01*
X145844264Y-87741894D01*
X145844263Y-87741895D01*
X145771750Y-87776816D01*
X145771748Y-87776817D01*
X145766776Y-87779212D01*
X145763335Y-87783526D01*
X145763332Y-87783529D01*
X145713154Y-87846450D01*
X145709710Y-87850769D01*
X145708481Y-87856150D01*
X145708481Y-87856152D01*
X145698189Y-87901247D01*
X145689344Y-87940000D01*
X142338662Y-87940000D01*
X142305486Y-87898400D01*
X142223025Y-87858688D01*
X142131499Y-87858688D01*
X142126526Y-87861082D01*
X142126525Y-87861083D01*
X142054012Y-87896004D01*
X142054010Y-87896005D01*
X142049038Y-87898400D01*
X142045597Y-87902714D01*
X142045594Y-87902717D01*
X141995416Y-87965638D01*
X141991972Y-87969957D01*
X141990743Y-87975338D01*
X141990743Y-87975340D01*
X141983791Y-88005802D01*
X141971606Y-88059188D01*
X138816779Y-88059188D01*
X138805580Y-88010121D01*
X138748514Y-87938564D01*
X138740324Y-87934620D01*
X138700257Y-87915324D01*
X138666053Y-87898852D01*
X138574527Y-87898852D01*
X138569554Y-87901246D01*
X138569553Y-87901247D01*
X138497040Y-87936168D01*
X138497038Y-87936169D01*
X138492066Y-87938564D01*
X138488625Y-87942878D01*
X138488622Y-87942881D01*
X138438444Y-88005802D01*
X138435000Y-88010121D01*
X138414634Y-88099352D01*
X137425500Y-88099352D01*
X137425500Y-87370000D01*
X138489344Y-87370000D01*
X138490572Y-87375380D01*
X138508149Y-87452394D01*
X138509710Y-87459231D01*
X138566776Y-87530788D01*
X138649237Y-87570500D01*
X138735243Y-87570500D01*
X138740763Y-87570500D01*
X138823224Y-87530788D01*
X138855752Y-87490000D01*
X139989344Y-87490000D01*
X140009710Y-87579231D01*
X140066776Y-87650788D01*
X140149237Y-87690500D01*
X140235243Y-87690500D01*
X140240763Y-87690500D01*
X140323224Y-87650788D01*
X140323852Y-87650000D01*
X141419344Y-87650000D01*
X141439710Y-87739231D01*
X141496776Y-87810788D01*
X141579237Y-87850500D01*
X141665243Y-87850500D01*
X141670763Y-87850500D01*
X141753224Y-87810788D01*
X141810290Y-87739231D01*
X141830542Y-87650499D01*
X142969594Y-87650499D01*
X142989960Y-87739730D01*
X142993404Y-87744048D01*
X143021446Y-87779212D01*
X143047026Y-87811287D01*
X143129487Y-87850999D01*
X143215493Y-87850999D01*
X143221013Y-87850999D01*
X143303474Y-87811287D01*
X143360540Y-87739730D01*
X143380906Y-87650499D01*
X144639344Y-87650499D01*
X144659710Y-87739730D01*
X144663154Y-87744048D01*
X144691196Y-87779212D01*
X144716776Y-87811287D01*
X144799237Y-87850999D01*
X144885243Y-87850999D01*
X144890763Y-87850999D01*
X144973224Y-87811287D01*
X145030290Y-87739730D01*
X145050656Y-87650499D01*
X145030290Y-87561268D01*
X144973224Y-87489711D01*
X144937369Y-87472444D01*
X144895736Y-87452394D01*
X144890763Y-87449999D01*
X144799237Y-87449999D01*
X144794264Y-87452393D01*
X144794263Y-87452394D01*
X144721750Y-87487315D01*
X144721748Y-87487316D01*
X144716776Y-87489711D01*
X144713335Y-87494025D01*
X144713332Y-87494028D01*
X144663552Y-87556450D01*
X144659710Y-87561268D01*
X144658481Y-87566649D01*
X144658481Y-87566651D01*
X144643428Y-87632604D01*
X144639344Y-87650499D01*
X143380906Y-87650499D01*
X143360540Y-87561268D01*
X143303474Y-87489711D01*
X143267619Y-87472444D01*
X143225986Y-87452394D01*
X143221013Y-87449999D01*
X143129487Y-87449999D01*
X143124514Y-87452393D01*
X143124513Y-87452394D01*
X143052000Y-87487315D01*
X143051998Y-87487316D01*
X143047026Y-87489711D01*
X143043585Y-87494025D01*
X143043582Y-87494028D01*
X142993802Y-87556450D01*
X142989960Y-87561268D01*
X142988731Y-87566649D01*
X142988731Y-87566651D01*
X142973678Y-87632604D01*
X142969594Y-87650499D01*
X141830542Y-87650499D01*
X141830656Y-87650000D01*
X141810290Y-87560769D01*
X141753224Y-87489212D01*
X141670763Y-87449500D01*
X141579237Y-87449500D01*
X141574264Y-87451894D01*
X141574263Y-87451895D01*
X141501750Y-87486816D01*
X141501748Y-87486817D01*
X141496776Y-87489212D01*
X141493335Y-87493526D01*
X141493332Y-87493529D01*
X141443154Y-87556450D01*
X141439710Y-87560769D01*
X141438481Y-87566150D01*
X141438481Y-87566152D01*
X141423428Y-87632105D01*
X141419344Y-87650000D01*
X140323852Y-87650000D01*
X140380290Y-87579231D01*
X140400656Y-87490000D01*
X140380290Y-87400769D01*
X140323224Y-87329212D01*
X140317530Y-87326470D01*
X140245736Y-87291895D01*
X140240763Y-87289500D01*
X140149237Y-87289500D01*
X140144264Y-87291894D01*
X140144263Y-87291895D01*
X140071750Y-87326816D01*
X140071748Y-87326817D01*
X140066776Y-87329212D01*
X140063335Y-87333526D01*
X140063332Y-87333529D01*
X140033849Y-87370500D01*
X140009710Y-87400769D01*
X140008481Y-87406150D01*
X140008481Y-87406152D01*
X139996367Y-87459231D01*
X139989344Y-87490000D01*
X138855752Y-87490000D01*
X138880290Y-87459231D01*
X138900656Y-87370000D01*
X138880290Y-87280769D01*
X138823224Y-87209212D01*
X138740763Y-87169500D01*
X138649237Y-87169500D01*
X138644264Y-87171894D01*
X138644263Y-87171895D01*
X138571750Y-87206816D01*
X138571748Y-87206817D01*
X138566776Y-87209212D01*
X138563335Y-87213526D01*
X138563332Y-87213529D01*
X138513154Y-87276450D01*
X138509710Y-87280769D01*
X138508481Y-87286150D01*
X138508481Y-87286152D01*
X138501509Y-87316699D01*
X138489344Y-87370000D01*
X137425500Y-87370000D01*
X137425500Y-86905860D01*
X137425500Y-86903719D01*
X137424929Y-86900481D01*
X137424982Y-86900000D01*
X140519592Y-86900000D01*
X140520534Y-86904736D01*
X140538092Y-86993007D01*
X140538093Y-86993009D01*
X140539034Y-86997740D01*
X140541713Y-87001750D01*
X140541714Y-87001751D01*
X140588280Y-87071444D01*
X140594399Y-87080601D01*
X140677260Y-87135966D01*
X140775000Y-87155408D01*
X140872740Y-87135966D01*
X140955601Y-87080601D01*
X141010966Y-86997740D01*
X141030408Y-86900000D01*
X141029332Y-86894593D01*
X141020462Y-86850000D01*
X145769844Y-86850000D01*
X145790210Y-86939231D01*
X145793654Y-86943549D01*
X145838672Y-87000000D01*
X145847276Y-87010788D01*
X145880834Y-87026949D01*
X145924759Y-87048103D01*
X145924760Y-87048103D01*
X145929737Y-87050500D01*
X145932307Y-87050500D01*
X145958028Y-87066662D01*
X145968719Y-87097213D01*
X145958029Y-87127764D01*
X145917650Y-87178396D01*
X145917648Y-87178398D01*
X145914208Y-87182713D01*
X145912979Y-87188094D01*
X145912979Y-87188096D01*
X145905522Y-87220768D01*
X145893842Y-87271944D01*
X145914208Y-87361175D01*
X145942339Y-87396450D01*
X145963702Y-87423238D01*
X145971274Y-87432732D01*
X146053735Y-87472444D01*
X146139741Y-87472444D01*
X146145261Y-87472444D01*
X146227722Y-87432732D01*
X146284788Y-87361175D01*
X146305154Y-87271944D01*
X146284788Y-87182713D01*
X146274650Y-87170000D01*
X146449344Y-87170000D01*
X146469710Y-87259231D01*
X146526776Y-87330788D01*
X146609237Y-87370500D01*
X146695243Y-87370500D01*
X146700763Y-87370500D01*
X146783224Y-87330788D01*
X146840290Y-87259231D01*
X146860656Y-87170000D01*
X146840290Y-87080769D01*
X146783224Y-87009212D01*
X146777530Y-87006470D01*
X146705736Y-86971895D01*
X146700763Y-86969500D01*
X146609237Y-86969500D01*
X146604264Y-86971894D01*
X146604263Y-86971895D01*
X146531750Y-87006816D01*
X146531748Y-87006817D01*
X146526776Y-87009212D01*
X146523335Y-87013526D01*
X146523332Y-87013529D01*
X146473154Y-87076450D01*
X146469710Y-87080769D01*
X146449344Y-87170000D01*
X146274650Y-87170000D01*
X146227722Y-87111156D01*
X146175802Y-87086152D01*
X146150235Y-87073839D01*
X146150233Y-87073838D01*
X146145261Y-87071444D01*
X146142690Y-87071444D01*
X146116967Y-87055279D01*
X146106278Y-87024729D01*
X146116967Y-86994180D01*
X146160790Y-86939231D01*
X146181156Y-86850000D01*
X146160790Y-86760769D01*
X146110138Y-86697255D01*
X146107167Y-86693529D01*
X146107166Y-86693528D01*
X146103724Y-86689212D01*
X146067406Y-86671722D01*
X146049486Y-86663092D01*
X146021263Y-86649500D01*
X145929737Y-86649500D01*
X145924764Y-86651894D01*
X145924763Y-86651895D01*
X145852250Y-86686816D01*
X145852248Y-86686817D01*
X145847276Y-86689212D01*
X145843835Y-86693526D01*
X145843832Y-86693529D01*
X145793654Y-86756450D01*
X145790210Y-86760769D01*
X145788981Y-86766150D01*
X145788981Y-86766152D01*
X145787247Y-86773751D01*
X145769844Y-86850000D01*
X141020462Y-86850000D01*
X141011907Y-86806992D01*
X141010966Y-86802260D01*
X140955601Y-86719399D01*
X140929851Y-86702194D01*
X140876751Y-86666714D01*
X140876750Y-86666713D01*
X140872740Y-86664034D01*
X140868009Y-86663093D01*
X140868007Y-86663092D01*
X140779736Y-86645534D01*
X140775000Y-86644592D01*
X140770264Y-86645534D01*
X140681992Y-86663092D01*
X140681988Y-86663093D01*
X140677260Y-86664034D01*
X140673250Y-86666712D01*
X140673248Y-86666714D01*
X140598410Y-86716718D01*
X140598407Y-86716720D01*
X140594399Y-86719399D01*
X140591720Y-86723407D01*
X140591718Y-86723410D01*
X140541714Y-86798248D01*
X140541712Y-86798250D01*
X140539034Y-86802260D01*
X140538093Y-86806988D01*
X140538092Y-86806992D01*
X140520534Y-86895264D01*
X140519592Y-86900000D01*
X137424982Y-86900000D01*
X137424985Y-86899970D01*
X137424942Y-86899478D01*
X137425040Y-86899469D01*
X137426079Y-86890000D01*
X137425000Y-86890000D01*
X137425000Y-86420000D01*
X138539344Y-86420000D01*
X138559710Y-86509231D01*
X138616776Y-86580788D01*
X138699237Y-86620500D01*
X138785243Y-86620500D01*
X138790763Y-86620500D01*
X138873224Y-86580788D01*
X138930290Y-86509231D01*
X138950656Y-86420000D01*
X138946091Y-86400000D01*
X140119592Y-86400000D01*
X140120534Y-86404736D01*
X140138092Y-86493007D01*
X140138093Y-86493009D01*
X140139034Y-86497740D01*
X140141713Y-86501750D01*
X140141714Y-86501751D01*
X140191638Y-86576470D01*
X140194399Y-86580601D01*
X140277260Y-86635966D01*
X140375000Y-86655408D01*
X140472740Y-86635966D01*
X140507167Y-86612963D01*
X142952307Y-86612963D01*
X142972673Y-86702194D01*
X142976117Y-86706512D01*
X143023678Y-86766152D01*
X143029739Y-86773751D01*
X143112200Y-86813463D01*
X143198206Y-86813463D01*
X143203726Y-86813463D01*
X143286187Y-86773751D01*
X143343253Y-86702194D01*
X143363619Y-86612963D01*
X143343253Y-86523732D01*
X143286187Y-86452175D01*
X143280632Y-86449500D01*
X144219344Y-86449500D01*
X144239710Y-86538731D01*
X144296776Y-86610288D01*
X144379237Y-86650000D01*
X144465243Y-86650000D01*
X144470763Y-86650000D01*
X144553224Y-86610288D01*
X144610290Y-86538731D01*
X144630656Y-86449500D01*
X144610290Y-86360269D01*
X144566302Y-86305111D01*
X144556667Y-86293029D01*
X144556666Y-86293028D01*
X144553224Y-86288712D01*
X144470763Y-86249000D01*
X144379237Y-86249000D01*
X144374264Y-86251394D01*
X144374263Y-86251395D01*
X144301750Y-86286316D01*
X144301748Y-86286317D01*
X144296776Y-86288712D01*
X144293335Y-86293026D01*
X144293332Y-86293029D01*
X144252039Y-86344809D01*
X144239710Y-86360269D01*
X144238481Y-86365650D01*
X144238481Y-86365652D01*
X144231723Y-86395264D01*
X144219344Y-86449500D01*
X143280632Y-86449500D01*
X143208699Y-86414858D01*
X143203726Y-86412463D01*
X143112200Y-86412463D01*
X143107227Y-86414857D01*
X143107226Y-86414858D01*
X143034713Y-86449779D01*
X143034711Y-86449780D01*
X143029739Y-86452175D01*
X143026298Y-86456489D01*
X143026295Y-86456492D01*
X142976117Y-86519413D01*
X142972673Y-86523732D01*
X142971444Y-86529113D01*
X142971444Y-86529115D01*
X142968264Y-86543049D01*
X142952307Y-86612963D01*
X140507167Y-86612963D01*
X140555601Y-86580601D01*
X140610966Y-86497740D01*
X140630408Y-86400000D01*
X140610966Y-86302260D01*
X140555601Y-86219399D01*
X140550340Y-86215884D01*
X140476751Y-86166714D01*
X140476750Y-86166713D01*
X140472740Y-86164034D01*
X140468009Y-86163093D01*
X140468007Y-86163092D01*
X140379736Y-86145534D01*
X140375000Y-86144592D01*
X140370264Y-86145534D01*
X140281992Y-86163092D01*
X140281988Y-86163093D01*
X140277260Y-86164034D01*
X140273250Y-86166712D01*
X140273248Y-86166714D01*
X140198410Y-86216718D01*
X140198407Y-86216720D01*
X140194399Y-86219399D01*
X140191720Y-86223407D01*
X140191718Y-86223410D01*
X140141714Y-86298248D01*
X140141712Y-86298250D01*
X140139034Y-86302260D01*
X140138093Y-86306988D01*
X140138092Y-86306992D01*
X140122686Y-86384447D01*
X140119592Y-86400000D01*
X138946091Y-86400000D01*
X138930290Y-86330769D01*
X138873224Y-86259212D01*
X138867530Y-86256470D01*
X138795736Y-86221895D01*
X138790763Y-86219500D01*
X138699237Y-86219500D01*
X138694264Y-86221894D01*
X138694263Y-86221895D01*
X138621750Y-86256816D01*
X138621748Y-86256817D01*
X138616776Y-86259212D01*
X138613335Y-86263526D01*
X138613332Y-86263529D01*
X138563154Y-86326450D01*
X138559710Y-86330769D01*
X138558481Y-86336150D01*
X138558481Y-86336152D01*
X138547442Y-86384521D01*
X138539344Y-86420000D01*
X137425000Y-86420000D01*
X137425000Y-85933418D01*
X137425744Y-85924909D01*
X137429392Y-85904220D01*
X137429392Y-85904219D01*
X137430136Y-85900000D01*
X137428373Y-85890001D01*
X137869591Y-85890001D01*
X137870533Y-85894737D01*
X137888091Y-85983008D01*
X137888092Y-85983010D01*
X137889033Y-85987741D01*
X137891712Y-85991751D01*
X137891713Y-85991752D01*
X137940516Y-86064793D01*
X137944398Y-86070602D01*
X138027259Y-86125967D01*
X138124999Y-86145409D01*
X138222739Y-86125967D01*
X138305600Y-86070602D01*
X138360965Y-85987741D01*
X138378842Y-85897870D01*
X138379465Y-85894737D01*
X138380407Y-85890001D01*
X138360965Y-85792261D01*
X138305600Y-85709400D01*
X138291532Y-85700000D01*
X144709344Y-85700000D01*
X144729710Y-85789231D01*
X144754207Y-85819949D01*
X144781491Y-85854162D01*
X144786776Y-85860788D01*
X144869237Y-85900500D01*
X144874757Y-85900500D01*
X144875898Y-85900500D01*
X144877484Y-85901122D01*
X144880141Y-85901729D01*
X144880049Y-85902129D01*
X144909227Y-85913581D01*
X144924761Y-85945838D01*
X144914208Y-85980049D01*
X144889710Y-86010769D01*
X144888481Y-86016150D01*
X144888481Y-86016152D01*
X144887412Y-86020837D01*
X144869344Y-86100000D01*
X144889710Y-86189231D01*
X144946776Y-86260788D01*
X145029237Y-86300500D01*
X145115243Y-86300500D01*
X145120763Y-86300500D01*
X145203224Y-86260788D01*
X145260290Y-86189231D01*
X145261479Y-86184021D01*
X145651502Y-86184021D01*
X145652730Y-86189401D01*
X145668663Y-86259212D01*
X145671868Y-86273252D01*
X145728934Y-86344809D01*
X145811395Y-86384521D01*
X145897401Y-86384521D01*
X145902921Y-86384521D01*
X145985382Y-86344809D01*
X146042448Y-86273252D01*
X146054314Y-86221264D01*
X146228612Y-86221264D01*
X146229840Y-86226644D01*
X146244991Y-86293029D01*
X146248978Y-86310495D01*
X146306044Y-86382052D01*
X146388505Y-86421764D01*
X146474511Y-86421764D01*
X146480031Y-86421764D01*
X146562492Y-86382052D01*
X146619558Y-86310495D01*
X146639924Y-86221264D01*
X146619558Y-86132033D01*
X146572705Y-86073282D01*
X146565935Y-86064793D01*
X146565934Y-86064792D01*
X146562492Y-86060476D01*
X146480031Y-86020764D01*
X146388505Y-86020764D01*
X146383532Y-86023158D01*
X146383531Y-86023159D01*
X146311018Y-86058080D01*
X146311016Y-86058081D01*
X146306044Y-86060476D01*
X146302603Y-86064790D01*
X146302600Y-86064793D01*
X146253065Y-86126908D01*
X146248978Y-86132033D01*
X146247749Y-86137414D01*
X146247749Y-86137416D01*
X146241889Y-86163092D01*
X146228612Y-86221264D01*
X146054314Y-86221264D01*
X146062814Y-86184021D01*
X146042448Y-86094790D01*
X145985382Y-86023233D01*
X145970678Y-86016152D01*
X145907894Y-85985916D01*
X145902921Y-85983521D01*
X145811395Y-85983521D01*
X145806422Y-85985915D01*
X145806421Y-85985916D01*
X145733908Y-86020837D01*
X145733906Y-86020838D01*
X145728934Y-86023233D01*
X145725493Y-86027547D01*
X145725490Y-86027550D01*
X145689020Y-86073282D01*
X145671868Y-86094790D01*
X145670639Y-86100171D01*
X145670639Y-86100173D01*
X145662139Y-86137416D01*
X145651502Y-86184021D01*
X145261479Y-86184021D01*
X145280656Y-86100000D01*
X145260290Y-86010769D01*
X145203224Y-85939212D01*
X145120763Y-85899500D01*
X145114102Y-85899500D01*
X145112515Y-85898877D01*
X145109859Y-85898271D01*
X145109950Y-85897870D01*
X145080773Y-85886419D01*
X145065239Y-85854162D01*
X145075791Y-85819950D01*
X145100290Y-85789231D01*
X145120656Y-85700000D01*
X145100290Y-85610769D01*
X145043224Y-85539212D01*
X145037530Y-85536470D01*
X144965736Y-85501895D01*
X144960763Y-85499500D01*
X144869237Y-85499500D01*
X144864264Y-85501894D01*
X144864263Y-85501895D01*
X144791750Y-85536816D01*
X144791748Y-85536817D01*
X144786776Y-85539212D01*
X144783335Y-85543526D01*
X144783332Y-85543529D01*
X144753849Y-85580500D01*
X144729710Y-85610769D01*
X144728481Y-85616150D01*
X144728481Y-85616152D01*
X144724272Y-85634593D01*
X144709344Y-85700000D01*
X138291532Y-85700000D01*
X138222739Y-85654035D01*
X138218008Y-85653094D01*
X138218006Y-85653093D01*
X138129735Y-85635535D01*
X138124999Y-85634593D01*
X138120263Y-85635535D01*
X138031991Y-85653093D01*
X138031987Y-85653094D01*
X138027259Y-85654035D01*
X138023249Y-85656713D01*
X138023247Y-85656715D01*
X137948409Y-85706719D01*
X137948406Y-85706721D01*
X137944398Y-85709400D01*
X137941719Y-85713408D01*
X137941717Y-85713411D01*
X137891713Y-85788249D01*
X137891711Y-85788251D01*
X137889033Y-85792261D01*
X137888092Y-85796989D01*
X137888091Y-85796993D01*
X137874249Y-85866582D01*
X137869591Y-85890001D01*
X137428373Y-85890001D01*
X137425744Y-85875091D01*
X137425000Y-85866582D01*
X137425000Y-85475200D01*
X138434763Y-85475200D01*
X138455129Y-85564431D01*
X138512195Y-85635988D01*
X138594656Y-85675700D01*
X138680662Y-85675700D01*
X138686182Y-85675700D01*
X138768643Y-85635988D01*
X138825709Y-85564431D01*
X138846075Y-85475200D01*
X138825709Y-85385969D01*
X138820949Y-85380000D01*
X143819344Y-85380000D01*
X143839710Y-85469231D01*
X143896776Y-85540788D01*
X143979237Y-85580500D01*
X144065243Y-85580500D01*
X144070763Y-85580500D01*
X144153224Y-85540788D01*
X144210290Y-85469231D01*
X144230656Y-85380000D01*
X144210290Y-85290769D01*
X144153224Y-85219212D01*
X144070763Y-85179500D01*
X143979237Y-85179500D01*
X143974264Y-85181894D01*
X143974263Y-85181895D01*
X143901750Y-85216816D01*
X143901748Y-85216817D01*
X143896776Y-85219212D01*
X143893335Y-85223526D01*
X143893332Y-85223529D01*
X143843154Y-85286450D01*
X143839710Y-85290769D01*
X143838481Y-85296150D01*
X143838481Y-85296152D01*
X143833328Y-85318729D01*
X143819344Y-85380000D01*
X138820949Y-85380000D01*
X138768643Y-85314412D01*
X138686182Y-85274700D01*
X138594656Y-85274700D01*
X138589683Y-85277094D01*
X138589682Y-85277095D01*
X138517169Y-85312016D01*
X138517167Y-85312017D01*
X138512195Y-85314412D01*
X138508754Y-85318726D01*
X138508751Y-85318729D01*
X138459889Y-85380000D01*
X138455129Y-85385969D01*
X138434763Y-85475200D01*
X137425000Y-85475200D01*
X137425000Y-84655700D01*
X137716132Y-84655700D01*
X137717360Y-84661080D01*
X137730833Y-84720113D01*
X137736498Y-84744931D01*
X137751054Y-84763183D01*
X137784940Y-84805675D01*
X137793564Y-84816488D01*
X137876025Y-84856200D01*
X137962031Y-84856200D01*
X137967551Y-84856200D01*
X138050012Y-84816488D01*
X138107078Y-84744931D01*
X138108307Y-84739545D01*
X138110703Y-84734572D01*
X138111526Y-84734968D01*
X138128421Y-84710182D01*
X138163329Y-84702211D01*
X138194338Y-84720113D01*
X138217573Y-84749249D01*
X138226776Y-84760788D01*
X138309237Y-84800500D01*
X138395243Y-84800500D01*
X138400763Y-84800500D01*
X138473693Y-84765377D01*
X138502255Y-84761072D01*
X138528280Y-84773605D01*
X138542723Y-84798621D01*
X138544056Y-84804459D01*
X138546801Y-84816488D01*
X138549710Y-84829231D01*
X138553154Y-84833549D01*
X138595357Y-84886470D01*
X138606776Y-84900788D01*
X138689237Y-84940500D01*
X138775243Y-84940500D01*
X138780763Y-84940500D01*
X138863224Y-84900788D01*
X138875677Y-84885172D01*
X138899543Y-84868899D01*
X138928431Y-84868899D01*
X138952298Y-84885173D01*
X138956776Y-84890788D01*
X139039237Y-84930500D01*
X139125243Y-84930500D01*
X139130763Y-84930500D01*
X139213224Y-84890788D01*
X139221690Y-84880171D01*
X139245557Y-84863900D01*
X139274443Y-84863900D01*
X139298309Y-84880171D01*
X139306776Y-84890788D01*
X139389237Y-84930500D01*
X139475243Y-84930500D01*
X139480763Y-84930500D01*
X139563224Y-84890788D01*
X139620290Y-84819231D01*
X139640656Y-84730000D01*
X139620290Y-84640769D01*
X139563224Y-84569212D01*
X139557370Y-84566393D01*
X139493400Y-84535586D01*
X139480763Y-84529500D01*
X139389237Y-84529500D01*
X139384264Y-84531894D01*
X139384263Y-84531895D01*
X139311750Y-84566816D01*
X139311748Y-84566817D01*
X139306776Y-84569212D01*
X139303335Y-84573526D01*
X139303332Y-84573529D01*
X139298309Y-84579829D01*
X139274443Y-84596101D01*
X139245557Y-84596101D01*
X139221691Y-84579829D01*
X139216667Y-84573529D01*
X139216666Y-84573528D01*
X139213224Y-84569212D01*
X139207370Y-84566393D01*
X139143400Y-84535586D01*
X139130763Y-84529500D01*
X139039237Y-84529500D01*
X139034264Y-84531894D01*
X139034263Y-84531895D01*
X138961750Y-84566816D01*
X138961748Y-84566817D01*
X138956776Y-84569212D01*
X138953335Y-84573526D01*
X138953332Y-84573529D01*
X138944320Y-84584829D01*
X138920453Y-84601100D01*
X138891569Y-84601099D01*
X138867703Y-84584828D01*
X138866667Y-84583529D01*
X138866666Y-84583528D01*
X138863224Y-84579212D01*
X138851423Y-84573529D01*
X138785736Y-84541895D01*
X138780763Y-84539500D01*
X138689237Y-84539500D01*
X138684266Y-84541893D01*
X138684261Y-84541895D01*
X138616307Y-84574621D01*
X138587743Y-84578927D01*
X138561718Y-84566393D01*
X138547276Y-84541378D01*
X138540290Y-84510769D01*
X138511765Y-84475000D01*
X142269592Y-84475000D01*
X142270534Y-84479736D01*
X142288092Y-84568007D01*
X142288093Y-84568009D01*
X142289034Y-84572740D01*
X142291713Y-84576750D01*
X142291714Y-84576751D01*
X142341512Y-84651281D01*
X142344399Y-84655601D01*
X142427260Y-84710966D01*
X142525000Y-84730408D01*
X142622740Y-84710966D01*
X142705601Y-84655601D01*
X142760966Y-84572740D01*
X142780408Y-84475000D01*
X142760966Y-84377260D01*
X142705601Y-84294399D01*
X142622740Y-84239034D01*
X142618009Y-84238093D01*
X142618007Y-84238092D01*
X142529736Y-84220534D01*
X142525000Y-84219592D01*
X142520264Y-84220534D01*
X142431992Y-84238092D01*
X142431988Y-84238093D01*
X142427260Y-84239034D01*
X142423250Y-84241712D01*
X142423248Y-84241714D01*
X142348410Y-84291718D01*
X142348407Y-84291720D01*
X142344399Y-84294399D01*
X142341720Y-84298407D01*
X142341718Y-84298410D01*
X142291714Y-84373248D01*
X142291712Y-84373250D01*
X142289034Y-84377260D01*
X142288093Y-84381988D01*
X142288092Y-84381992D01*
X142273054Y-84457595D01*
X142269592Y-84475000D01*
X138511765Y-84475000D01*
X138483224Y-84439212D01*
X138400763Y-84399500D01*
X138309237Y-84399500D01*
X138304264Y-84401894D01*
X138304263Y-84401895D01*
X138231750Y-84436816D01*
X138231748Y-84436817D01*
X138226776Y-84439212D01*
X138223335Y-84443526D01*
X138223332Y-84443529D01*
X138173154Y-84506450D01*
X138169710Y-84510769D01*
X138168481Y-84516152D01*
X138166085Y-84521128D01*
X138165261Y-84520731D01*
X138148360Y-84545521D01*
X138113455Y-84553488D01*
X138082449Y-84535586D01*
X138079505Y-84531895D01*
X138062658Y-84510769D01*
X138053455Y-84499229D01*
X138053454Y-84499228D01*
X138050012Y-84494912D01*
X137967551Y-84455200D01*
X137876025Y-84455200D01*
X137871052Y-84457594D01*
X137871051Y-84457595D01*
X137798538Y-84492516D01*
X137798536Y-84492517D01*
X137793564Y-84494912D01*
X137790123Y-84499226D01*
X137790120Y-84499229D01*
X137746850Y-84553488D01*
X137736498Y-84566469D01*
X137735269Y-84571850D01*
X137735269Y-84571852D01*
X137729735Y-84596101D01*
X137716132Y-84655700D01*
X137425000Y-84655700D01*
X137425000Y-84533418D01*
X137425744Y-84524909D01*
X137429392Y-84504220D01*
X137429392Y-84504219D01*
X137430136Y-84500000D01*
X137425744Y-84475091D01*
X137425000Y-84466582D01*
X137425000Y-83501999D01*
X137425166Y-83498170D01*
X137425500Y-83496281D01*
X137425500Y-83400000D01*
X137425500Y-83373071D01*
X137425500Y-82752407D01*
X137425736Y-82747604D01*
X137439428Y-82608582D01*
X137441302Y-82599161D01*
X137470456Y-82503053D01*
X137481153Y-82467790D01*
X137484822Y-82458930D01*
X137549542Y-82337850D01*
X137554871Y-82329874D01*
X137641961Y-82223753D01*
X137648754Y-82216961D01*
X137681382Y-82190184D01*
X137754874Y-82129871D01*
X137762850Y-82124542D01*
X137883930Y-82059822D01*
X137892790Y-82056153D01*
X138024162Y-82016301D01*
X138033581Y-82014428D01*
X138172603Y-82000736D01*
X138177407Y-82000500D01*
X140404328Y-82000500D01*
X140437657Y-82013581D01*
X140453191Y-82045839D01*
X140442637Y-82080049D01*
X140431794Y-82093647D01*
X140418152Y-82110752D01*
X140418150Y-82110754D01*
X140414710Y-82115069D01*
X140413481Y-82120450D01*
X140413481Y-82120452D01*
X140398428Y-82186405D01*
X140394344Y-82204300D01*
X140414710Y-82293531D01*
X140471776Y-82365088D01*
X140554237Y-82404800D01*
X140640243Y-82404800D01*
X140645763Y-82404800D01*
X140728224Y-82365088D01*
X140785290Y-82293531D01*
X140805656Y-82204300D01*
X140785290Y-82115069D01*
X140757362Y-82080049D01*
X140746809Y-82045839D01*
X140762343Y-82013581D01*
X140795672Y-82000500D01*
X141917929Y-82000500D01*
X141921144Y-82000500D01*
X142010288Y-81976614D01*
X142090212Y-81930469D01*
X142106329Y-81914352D01*
X142140977Y-81900000D01*
X142909023Y-81900000D01*
X142943671Y-81914352D01*
G37*
%TD.AperFunction*%
%TA.AperFunction,Conductor*%
G36*
X159885148Y-65114852D02*
G01*
X159899500Y-65149500D01*
X159899500Y-124850500D01*
X159885148Y-124885148D01*
X159850500Y-124899500D01*
X100149500Y-124899500D01*
X100114852Y-124885148D01*
X100100500Y-124850500D01*
X100100500Y-93056945D01*
X115382018Y-93056945D01*
X115382312Y-93059122D01*
X115382313Y-93059124D01*
X115412268Y-93280263D01*
X115412269Y-93280268D01*
X115412563Y-93282437D01*
X115413238Y-93284514D01*
X115413240Y-93284523D01*
X115448659Y-93393529D01*
X115482880Y-93498851D01*
X115483917Y-93500779D01*
X115483921Y-93500787D01*
X115589670Y-93697301D01*
X115589674Y-93697308D01*
X115590710Y-93699232D01*
X115592075Y-93700944D01*
X115592076Y-93700945D01*
X115724077Y-93866470D01*
X115732585Y-93877138D01*
X115903948Y-94026853D01*
X116099289Y-94143564D01*
X116312330Y-94223520D01*
X116536224Y-94264150D01*
X116705671Y-94264150D01*
X116706775Y-94264150D01*
X116876635Y-94248862D01*
X117095986Y-94188325D01*
X117301003Y-94089595D01*
X117485095Y-93955843D01*
X117642347Y-93791371D01*
X117767705Y-93601463D01*
X117857138Y-93392223D01*
X117907773Y-93170377D01*
X117912867Y-93056945D01*
X118557018Y-93056945D01*
X118557312Y-93059122D01*
X118557313Y-93059124D01*
X118587268Y-93280263D01*
X118587269Y-93280268D01*
X118587563Y-93282437D01*
X118588238Y-93284514D01*
X118588240Y-93284523D01*
X118623659Y-93393529D01*
X118657880Y-93498851D01*
X118658917Y-93500779D01*
X118658921Y-93500787D01*
X118764670Y-93697301D01*
X118764674Y-93697308D01*
X118765710Y-93699232D01*
X118767075Y-93700944D01*
X118767076Y-93700945D01*
X118899077Y-93866470D01*
X118907585Y-93877138D01*
X119078948Y-94026853D01*
X119274289Y-94143564D01*
X119487330Y-94223520D01*
X119711224Y-94264150D01*
X119880671Y-94264150D01*
X119881775Y-94264150D01*
X120051635Y-94248862D01*
X120270986Y-94188325D01*
X120476003Y-94089595D01*
X120660095Y-93955843D01*
X120817347Y-93791371D01*
X120942705Y-93601463D01*
X121032138Y-93392223D01*
X121082773Y-93170377D01*
X121092982Y-92943055D01*
X121062437Y-92717563D01*
X120992120Y-92501149D01*
X120991078Y-92499212D01*
X120885329Y-92302698D01*
X120885326Y-92302694D01*
X120884290Y-92300768D01*
X120742415Y-92122862D01*
X120571052Y-91973147D01*
X120375711Y-91856436D01*
X120261797Y-91813683D01*
X120164736Y-91777255D01*
X120164732Y-91777253D01*
X120162670Y-91776480D01*
X120160510Y-91776088D01*
X120160503Y-91776086D01*
X119940938Y-91736242D01*
X119940934Y-91736241D01*
X119938776Y-91735850D01*
X119768225Y-91735850D01*
X119767144Y-91735947D01*
X119767128Y-91735948D01*
X119600552Y-91750941D01*
X119600550Y-91750941D01*
X119598365Y-91751138D01*
X119596256Y-91751719D01*
X119596245Y-91751722D01*
X119381131Y-91811090D01*
X119381123Y-91811092D01*
X119379014Y-91811675D01*
X119377046Y-91812622D01*
X119377037Y-91812626D01*
X119175976Y-91909451D01*
X119175967Y-91909456D01*
X119173997Y-91910405D01*
X119172228Y-91911690D01*
X119172220Y-91911695D01*
X118991683Y-92042864D01*
X118991674Y-92042871D01*
X118989905Y-92044157D01*
X118988388Y-92045743D01*
X118988383Y-92045748D01*
X118834175Y-92207036D01*
X118834169Y-92207042D01*
X118832653Y-92208629D01*
X118831443Y-92210461D01*
X118831439Y-92210467D01*
X118708507Y-92396699D01*
X118708501Y-92396709D01*
X118707295Y-92398537D01*
X118706435Y-92400547D01*
X118706429Y-92400560D01*
X118618725Y-92605756D01*
X118618722Y-92605763D01*
X118617862Y-92607777D01*
X118617374Y-92609910D01*
X118617372Y-92609920D01*
X118567717Y-92827475D01*
X118567227Y-92829623D01*
X118567128Y-92831814D01*
X118567128Y-92831819D01*
X118557116Y-93054747D01*
X118557116Y-93054754D01*
X118557018Y-93056945D01*
X117912867Y-93056945D01*
X117917982Y-92943055D01*
X117887437Y-92717563D01*
X117817120Y-92501149D01*
X117816078Y-92499212D01*
X117710329Y-92302698D01*
X117710326Y-92302694D01*
X117709290Y-92300768D01*
X117567415Y-92122862D01*
X117396052Y-91973147D01*
X117200711Y-91856436D01*
X117086797Y-91813683D01*
X116989736Y-91777255D01*
X116989732Y-91777253D01*
X116987670Y-91776480D01*
X116985510Y-91776088D01*
X116985503Y-91776086D01*
X116765938Y-91736242D01*
X116765934Y-91736241D01*
X116763776Y-91735850D01*
X116593225Y-91735850D01*
X116592144Y-91735947D01*
X116592128Y-91735948D01*
X116425552Y-91750941D01*
X116425550Y-91750941D01*
X116423365Y-91751138D01*
X116421256Y-91751719D01*
X116421245Y-91751722D01*
X116206131Y-91811090D01*
X116206123Y-91811092D01*
X116204014Y-91811675D01*
X116202046Y-91812622D01*
X116202037Y-91812626D01*
X116000976Y-91909451D01*
X116000967Y-91909456D01*
X115998997Y-91910405D01*
X115997228Y-91911690D01*
X115997220Y-91911695D01*
X115816683Y-92042864D01*
X115816674Y-92042871D01*
X115814905Y-92044157D01*
X115813388Y-92045743D01*
X115813383Y-92045748D01*
X115659175Y-92207036D01*
X115659169Y-92207042D01*
X115657653Y-92208629D01*
X115656443Y-92210461D01*
X115656439Y-92210467D01*
X115533507Y-92396699D01*
X115533501Y-92396709D01*
X115532295Y-92398537D01*
X115531435Y-92400547D01*
X115531429Y-92400560D01*
X115443725Y-92605756D01*
X115443722Y-92605763D01*
X115442862Y-92607777D01*
X115442374Y-92609910D01*
X115442372Y-92609920D01*
X115392717Y-92827475D01*
X115392227Y-92829623D01*
X115392128Y-92831814D01*
X115392128Y-92831819D01*
X115382116Y-93054747D01*
X115382116Y-93054754D01*
X115382018Y-93056945D01*
X100100500Y-93056945D01*
X100100500Y-91476000D01*
X114168064Y-91476000D01*
X114168483Y-91479183D01*
X114187303Y-91622137D01*
X114187304Y-91622141D01*
X114187723Y-91625322D01*
X114188951Y-91628287D01*
X114188952Y-91628290D01*
X114240079Y-91751722D01*
X114245359Y-91764468D01*
X114247311Y-91767012D01*
X114247314Y-91767017D01*
X114315334Y-91855661D01*
X114337045Y-91883955D01*
X114339593Y-91885910D01*
X114453982Y-91973685D01*
X114453985Y-91973687D01*
X114456532Y-91975641D01*
X114595678Y-92033277D01*
X114707508Y-92048000D01*
X114780892Y-92048000D01*
X114782492Y-92048000D01*
X114894322Y-92033277D01*
X115033468Y-91975641D01*
X115152955Y-91883955D01*
X115244641Y-91764468D01*
X115284806Y-91667500D01*
X117602092Y-91667500D01*
X117603034Y-91672236D01*
X117620592Y-91760507D01*
X117620593Y-91760509D01*
X117621534Y-91765240D01*
X117624213Y-91769250D01*
X117624214Y-91769251D01*
X117649416Y-91806970D01*
X117676899Y-91848101D01*
X117759760Y-91903466D01*
X117857500Y-91922908D01*
X117955240Y-91903466D01*
X118038101Y-91848101D01*
X118093466Y-91765240D01*
X118112908Y-91667500D01*
X118093466Y-91569760D01*
X118038101Y-91486899D01*
X118025716Y-91478624D01*
X117959251Y-91434214D01*
X117959250Y-91434213D01*
X117955240Y-91431534D01*
X117950509Y-91430593D01*
X117950507Y-91430592D01*
X117862236Y-91413034D01*
X117857500Y-91412092D01*
X117852764Y-91413034D01*
X117764492Y-91430592D01*
X117764488Y-91430593D01*
X117759760Y-91431534D01*
X117755750Y-91434212D01*
X117755748Y-91434214D01*
X117680910Y-91484218D01*
X117680907Y-91484220D01*
X117676899Y-91486899D01*
X117674220Y-91490907D01*
X117674218Y-91490910D01*
X117624214Y-91565748D01*
X117624212Y-91565750D01*
X117621534Y-91569760D01*
X117620593Y-91574488D01*
X117620592Y-91574492D01*
X117604403Y-91655880D01*
X117602092Y-91667500D01*
X115284806Y-91667500D01*
X115302277Y-91625322D01*
X115321936Y-91476000D01*
X115302277Y-91326678D01*
X115244641Y-91187532D01*
X115242687Y-91184985D01*
X115242685Y-91184982D01*
X115154910Y-91070593D01*
X115152955Y-91068045D01*
X115142774Y-91060233D01*
X115036017Y-90978314D01*
X115036012Y-90978311D01*
X115033468Y-90976359D01*
X115030499Y-90975129D01*
X114897290Y-90919952D01*
X114897287Y-90919951D01*
X114894322Y-90918723D01*
X114891141Y-90918304D01*
X114891137Y-90918303D01*
X114784076Y-90904208D01*
X114784067Y-90904207D01*
X114782492Y-90904000D01*
X114707508Y-90904000D01*
X114705933Y-90904207D01*
X114705923Y-90904208D01*
X114598862Y-90918303D01*
X114598856Y-90918304D01*
X114595678Y-90918723D01*
X114592714Y-90919950D01*
X114592709Y-90919952D01*
X114459500Y-90975129D01*
X114459496Y-90975131D01*
X114456532Y-90976359D01*
X114453990Y-90978308D01*
X114453982Y-90978314D01*
X114339593Y-91066089D01*
X114339589Y-91066092D01*
X114337045Y-91068045D01*
X114335092Y-91070589D01*
X114335089Y-91070593D01*
X114247314Y-91184982D01*
X114247308Y-91184990D01*
X114245359Y-91187532D01*
X114244131Y-91190496D01*
X114244129Y-91190500D01*
X114188952Y-91323709D01*
X114188950Y-91323714D01*
X114187723Y-91326678D01*
X114187304Y-91329856D01*
X114187303Y-91329862D01*
X114171487Y-91450000D01*
X114168064Y-91476000D01*
X100100500Y-91476000D01*
X100100500Y-90460000D01*
X119248064Y-90460000D01*
X119248483Y-90463183D01*
X119267303Y-90606137D01*
X119267304Y-90606141D01*
X119267723Y-90609322D01*
X119268951Y-90612287D01*
X119268952Y-90612290D01*
X119324129Y-90745499D01*
X119325359Y-90748468D01*
X119327311Y-90751012D01*
X119327314Y-90751017D01*
X119405487Y-90852892D01*
X119417045Y-90867955D01*
X119419593Y-90869910D01*
X119533982Y-90957685D01*
X119533985Y-90957687D01*
X119536532Y-90959641D01*
X119675678Y-91017277D01*
X119787508Y-91032000D01*
X119860892Y-91032000D01*
X119862492Y-91032000D01*
X119974322Y-91017277D01*
X120113468Y-90959641D01*
X120232955Y-90867955D01*
X120324641Y-90748468D01*
X120382277Y-90609322D01*
X120384163Y-90595000D01*
X124999592Y-90595000D01*
X125000534Y-90599736D01*
X125018092Y-90688007D01*
X125018093Y-90688009D01*
X125019034Y-90692740D01*
X125021713Y-90696750D01*
X125021714Y-90696751D01*
X125056269Y-90748468D01*
X125074399Y-90775601D01*
X125157260Y-90830966D01*
X125255000Y-90850408D01*
X125352740Y-90830966D01*
X125435601Y-90775601D01*
X125490966Y-90692740D01*
X125510408Y-90595000D01*
X125490966Y-90497260D01*
X125435601Y-90414399D01*
X125429017Y-90410000D01*
X125356751Y-90361714D01*
X125356750Y-90361713D01*
X125352740Y-90359034D01*
X125348009Y-90358093D01*
X125348007Y-90358092D01*
X125259736Y-90340534D01*
X125255000Y-90339592D01*
X125250264Y-90340534D01*
X125161992Y-90358092D01*
X125161988Y-90358093D01*
X125157260Y-90359034D01*
X125153250Y-90361712D01*
X125153248Y-90361714D01*
X125078410Y-90411718D01*
X125078407Y-90411720D01*
X125074399Y-90414399D01*
X125071720Y-90418407D01*
X125071718Y-90418410D01*
X125021714Y-90493248D01*
X125021712Y-90493250D01*
X125019034Y-90497260D01*
X125018093Y-90501988D01*
X125018092Y-90501992D01*
X125005852Y-90563529D01*
X124999592Y-90595000D01*
X120384163Y-90595000D01*
X120401936Y-90460000D01*
X120382277Y-90310678D01*
X120324641Y-90171532D01*
X120322687Y-90168985D01*
X120322685Y-90168982D01*
X120249684Y-90073847D01*
X120232955Y-90052045D01*
X120226664Y-90047218D01*
X120116017Y-89962314D01*
X120116012Y-89962311D01*
X120113468Y-89960359D01*
X120110499Y-89959129D01*
X119977290Y-89903952D01*
X119977287Y-89903951D01*
X119974322Y-89902723D01*
X119971141Y-89902304D01*
X119971137Y-89902303D01*
X119864076Y-89888208D01*
X119864067Y-89888207D01*
X119862492Y-89888000D01*
X119787508Y-89888000D01*
X119785933Y-89888207D01*
X119785923Y-89888208D01*
X119678862Y-89902303D01*
X119678856Y-89902304D01*
X119675678Y-89902723D01*
X119672714Y-89903950D01*
X119672709Y-89903952D01*
X119539500Y-89959129D01*
X119539496Y-89959131D01*
X119536532Y-89960359D01*
X119533990Y-89962308D01*
X119533982Y-89962314D01*
X119419593Y-90050089D01*
X119419589Y-90050092D01*
X119417045Y-90052045D01*
X119415092Y-90054589D01*
X119415089Y-90054593D01*
X119327314Y-90168982D01*
X119327308Y-90168990D01*
X119325359Y-90171532D01*
X119324131Y-90174496D01*
X119324129Y-90174500D01*
X119268952Y-90307709D01*
X119268950Y-90307714D01*
X119267723Y-90310678D01*
X119267304Y-90313856D01*
X119267303Y-90313862D01*
X119249845Y-90446470D01*
X119248064Y-90460000D01*
X100100500Y-90460000D01*
X100100500Y-89444000D01*
X114168064Y-89444000D01*
X114168483Y-89447183D01*
X114187303Y-89590137D01*
X114187304Y-89590141D01*
X114187723Y-89593322D01*
X114188951Y-89596287D01*
X114188952Y-89596290D01*
X114222578Y-89677470D01*
X114245359Y-89732468D01*
X114247311Y-89735012D01*
X114247314Y-89735017D01*
X114324244Y-89835273D01*
X114337045Y-89851955D01*
X114339593Y-89853910D01*
X114453982Y-89941685D01*
X114453985Y-89941687D01*
X114456532Y-89943641D01*
X114595678Y-90001277D01*
X114707508Y-90016000D01*
X114780892Y-90016000D01*
X114782492Y-90016000D01*
X114894322Y-90001277D01*
X115033468Y-89943641D01*
X115152955Y-89851955D01*
X115244641Y-89732468D01*
X115302277Y-89593322D01*
X115313905Y-89505000D01*
X120689592Y-89505000D01*
X120690534Y-89509736D01*
X120708092Y-89598007D01*
X120708093Y-89598009D01*
X120709034Y-89602740D01*
X120711713Y-89606750D01*
X120711714Y-89606751D01*
X120751776Y-89666710D01*
X120764399Y-89685601D01*
X120847260Y-89740966D01*
X120945000Y-89760408D01*
X121042740Y-89740966D01*
X121125601Y-89685601D01*
X121180966Y-89602740D01*
X121200408Y-89505000D01*
X121180966Y-89407260D01*
X121125601Y-89324399D01*
X121117700Y-89319120D01*
X121046751Y-89271714D01*
X121046750Y-89271713D01*
X121042740Y-89269034D01*
X121038009Y-89268093D01*
X121038007Y-89268092D01*
X120949736Y-89250534D01*
X120945000Y-89249592D01*
X120940264Y-89250534D01*
X120851992Y-89268092D01*
X120851988Y-89268093D01*
X120847260Y-89269034D01*
X120843250Y-89271712D01*
X120843248Y-89271714D01*
X120768410Y-89321718D01*
X120768407Y-89321720D01*
X120764399Y-89324399D01*
X120761720Y-89328407D01*
X120761718Y-89328410D01*
X120711714Y-89403248D01*
X120711712Y-89403250D01*
X120709034Y-89407260D01*
X120708093Y-89411988D01*
X120708092Y-89411992D01*
X120690534Y-89500264D01*
X120689592Y-89505000D01*
X115313905Y-89505000D01*
X115321936Y-89444000D01*
X115302277Y-89294678D01*
X115244641Y-89155532D01*
X115242687Y-89152985D01*
X115242685Y-89152982D01*
X115154910Y-89038593D01*
X115152955Y-89036045D01*
X115118485Y-89009595D01*
X115036017Y-88946314D01*
X115036012Y-88946311D01*
X115033468Y-88944359D01*
X115030499Y-88943129D01*
X114897290Y-88887952D01*
X114897287Y-88887951D01*
X114894322Y-88886723D01*
X114891141Y-88886304D01*
X114891137Y-88886303D01*
X114784076Y-88872208D01*
X114784067Y-88872207D01*
X114782492Y-88872000D01*
X114707508Y-88872000D01*
X114705933Y-88872207D01*
X114705923Y-88872208D01*
X114598862Y-88886303D01*
X114598856Y-88886304D01*
X114595678Y-88886723D01*
X114592714Y-88887950D01*
X114592709Y-88887952D01*
X114459500Y-88943129D01*
X114459496Y-88943131D01*
X114456532Y-88944359D01*
X114453990Y-88946308D01*
X114453982Y-88946314D01*
X114339593Y-89034089D01*
X114339589Y-89034092D01*
X114337045Y-89036045D01*
X114335092Y-89038589D01*
X114335089Y-89038593D01*
X114247314Y-89152982D01*
X114247308Y-89152990D01*
X114245359Y-89155532D01*
X114244131Y-89158496D01*
X114244129Y-89158500D01*
X114188952Y-89291709D01*
X114188950Y-89291714D01*
X114187723Y-89294678D01*
X114187304Y-89297856D01*
X114187303Y-89297862D01*
X114168483Y-89440817D01*
X114168064Y-89444000D01*
X100100500Y-89444000D01*
X100100500Y-87976945D01*
X115382018Y-87976945D01*
X115382312Y-87979122D01*
X115382313Y-87979124D01*
X115412268Y-88200263D01*
X115412269Y-88200268D01*
X115412563Y-88202437D01*
X115413238Y-88204514D01*
X115413240Y-88204523D01*
X115448891Y-88314243D01*
X115482880Y-88418851D01*
X115483917Y-88420779D01*
X115483921Y-88420787D01*
X115589670Y-88617301D01*
X115589674Y-88617308D01*
X115590710Y-88619232D01*
X115732585Y-88797138D01*
X115903948Y-88946853D01*
X116099289Y-89063564D01*
X116312330Y-89143520D01*
X116536224Y-89184150D01*
X116705671Y-89184150D01*
X116706775Y-89184150D01*
X116876635Y-89168862D01*
X117095986Y-89108325D01*
X117301003Y-89009595D01*
X117485095Y-88875843D01*
X117642347Y-88711371D01*
X117767705Y-88521463D01*
X117857138Y-88312223D01*
X117907773Y-88090377D01*
X117912867Y-87976945D01*
X118557018Y-87976945D01*
X118557312Y-87979122D01*
X118557313Y-87979124D01*
X118587268Y-88200263D01*
X118587269Y-88200268D01*
X118587563Y-88202437D01*
X118588238Y-88204514D01*
X118588240Y-88204523D01*
X118623891Y-88314243D01*
X118657880Y-88418851D01*
X118658917Y-88420779D01*
X118658921Y-88420787D01*
X118764670Y-88617301D01*
X118764674Y-88617308D01*
X118765710Y-88619232D01*
X118907585Y-88797138D01*
X119078948Y-88946853D01*
X119274289Y-89063564D01*
X119487330Y-89143520D01*
X119711224Y-89184150D01*
X119880671Y-89184150D01*
X119881775Y-89184150D01*
X120051635Y-89168862D01*
X120270986Y-89108325D01*
X120476003Y-89009595D01*
X120660095Y-88875843D01*
X120817347Y-88711371D01*
X120942705Y-88521463D01*
X121032138Y-88312223D01*
X121082773Y-88090377D01*
X121092982Y-87863055D01*
X121062437Y-87637563D01*
X120992120Y-87421149D01*
X120964865Y-87370500D01*
X120885329Y-87222698D01*
X120885326Y-87222694D01*
X120884290Y-87220768D01*
X120742415Y-87042862D01*
X120571052Y-86893147D01*
X120565785Y-86890000D01*
X134705000Y-86890000D01*
X134709037Y-86890000D01*
X134715622Y-86905896D01*
X134714186Y-86906490D01*
X134719749Y-86924812D01*
X134719749Y-86984106D01*
X134719742Y-86984128D01*
X134719749Y-86999894D01*
X134719749Y-87000000D01*
X134719749Y-87026929D01*
X134719761Y-87026949D01*
X134724500Y-97700000D01*
X134724500Y-97796281D01*
X134724870Y-97798384D01*
X134724871Y-97798386D01*
X134757566Y-97983813D01*
X134757568Y-97983822D01*
X134757938Y-97985918D01*
X134758667Y-97987921D01*
X134758669Y-97987928D01*
X134823067Y-98164860D01*
X134823798Y-98166868D01*
X134920079Y-98333632D01*
X135043856Y-98481144D01*
X135191368Y-98604921D01*
X135358132Y-98701202D01*
X135539082Y-98767062D01*
X135728719Y-98800500D01*
X135809083Y-98800500D01*
X135825000Y-98800500D01*
X135851929Y-98800500D01*
X148998071Y-98800500D01*
X149040917Y-98800500D01*
X149119140Y-98800500D01*
X149121281Y-98800500D01*
X149310918Y-98767062D01*
X149491868Y-98701202D01*
X149658632Y-98604921D01*
X149806144Y-98481144D01*
X149929921Y-98333632D01*
X150026202Y-98166868D01*
X150092062Y-97985918D01*
X150125500Y-97796281D01*
X150125500Y-97700000D01*
X150125500Y-97673071D01*
X150125500Y-92691190D01*
X150125495Y-92691175D01*
X150125493Y-92691143D01*
X150125493Y-92684200D01*
X150125494Y-92610827D01*
X150115743Y-92555530D01*
X150115000Y-92547022D01*
X150115000Y-91697238D01*
X150115744Y-91688729D01*
X150129392Y-91611326D01*
X150130136Y-91607107D01*
X150115744Y-91525485D01*
X150115000Y-91516976D01*
X150115000Y-91077238D01*
X150115744Y-91068729D01*
X150129392Y-90991326D01*
X150130136Y-90987107D01*
X150118749Y-90922526D01*
X150115744Y-90905485D01*
X150115000Y-90896976D01*
X150115000Y-90047218D01*
X150115745Y-90038709D01*
X150120473Y-90011895D01*
X150125500Y-89983389D01*
X150125500Y-89887108D01*
X150125500Y-89860179D01*
X150125500Y-80384083D01*
X150125500Y-80303719D01*
X150092062Y-80114082D01*
X150026202Y-79933132D01*
X149929921Y-79766368D01*
X149806144Y-79618856D01*
X149658632Y-79495079D01*
X149491868Y-79398798D01*
X149489860Y-79398067D01*
X149312928Y-79333669D01*
X149312921Y-79333667D01*
X149310918Y-79332938D01*
X149308822Y-79332568D01*
X149308813Y-79332566D01*
X149123386Y-79299871D01*
X149123384Y-79299870D01*
X149121281Y-79299500D01*
X149119140Y-79299500D01*
X142990132Y-79299500D01*
X142980309Y-79298505D01*
X142975086Y-79297436D01*
X142975084Y-79297436D01*
X142968766Y-79296143D01*
X142962648Y-79298181D01*
X142962644Y-79298182D01*
X142943770Y-79304473D01*
X142943422Y-79304588D01*
X142913592Y-79314281D01*
X142913590Y-79314281D01*
X142912888Y-79314510D01*
X142912735Y-79314719D01*
X142912696Y-79314740D01*
X142893037Y-79321234D01*
X142893032Y-79321236D01*
X142889891Y-79322273D01*
X142889766Y-79321895D01*
X142857114Y-79324764D01*
X142829056Y-79303630D01*
X142822351Y-79269149D01*
X142829392Y-79229219D01*
X142830136Y-79225000D01*
X142811734Y-79120637D01*
X142758748Y-79028862D01*
X142755464Y-79026106D01*
X142755463Y-79026105D01*
X142680850Y-78963498D01*
X142677568Y-78960744D01*
X142673542Y-78959278D01*
X142673541Y-78959278D01*
X142620314Y-78939905D01*
X142577986Y-78924500D01*
X142472014Y-78924500D01*
X142467983Y-78925966D01*
X142467983Y-78925967D01*
X142376458Y-78959278D01*
X142376454Y-78959279D01*
X142372432Y-78960744D01*
X142369151Y-78963496D01*
X142369149Y-78963498D01*
X142294536Y-79026105D01*
X142294532Y-79026109D01*
X142291252Y-79028862D01*
X142289109Y-79032573D01*
X142289107Y-79032576D01*
X142240409Y-79116925D01*
X142238266Y-79120637D01*
X142219864Y-79225000D01*
X142220608Y-79229219D01*
X142227649Y-79269151D01*
X142220943Y-79303633D01*
X142192883Y-79324767D01*
X142160233Y-79321896D01*
X142160108Y-79322275D01*
X142158499Y-79321743D01*
X142158497Y-79321742D01*
X142156957Y-79321234D01*
X142156955Y-79321233D01*
X142137305Y-79314742D01*
X142137265Y-79314721D01*
X142137112Y-79314511D01*
X142106658Y-79304615D01*
X142106306Y-79304499D01*
X142087354Y-79298182D01*
X142087350Y-79298181D01*
X142081234Y-79296143D01*
X142074917Y-79297435D01*
X142074914Y-79297435D01*
X142069682Y-79298506D01*
X142059862Y-79299500D01*
X135851929Y-79299500D01*
X135825000Y-79299500D01*
X135728719Y-79299500D01*
X135726616Y-79299870D01*
X135726613Y-79299871D01*
X135541186Y-79332566D01*
X135541174Y-79332568D01*
X135539082Y-79332938D01*
X135537080Y-79333666D01*
X135537071Y-79333669D01*
X135360139Y-79398067D01*
X135360133Y-79398069D01*
X135358132Y-79398798D01*
X135356282Y-79399865D01*
X135356280Y-79399867D01*
X135193219Y-79494010D01*
X135193216Y-79494011D01*
X135191368Y-79495079D01*
X135189735Y-79496448D01*
X135189731Y-79496452D01*
X135045490Y-79617484D01*
X135045484Y-79617489D01*
X135043856Y-79618856D01*
X135042489Y-79620484D01*
X135042484Y-79620490D01*
X134921452Y-79764731D01*
X134921448Y-79764735D01*
X134920079Y-79766368D01*
X134919011Y-79768216D01*
X134919010Y-79768219D01*
X134824867Y-79931280D01*
X134823798Y-79933132D01*
X134823069Y-79935133D01*
X134823067Y-79935139D01*
X134758669Y-80112071D01*
X134758666Y-80112080D01*
X134757938Y-80114082D01*
X134757568Y-80116174D01*
X134757566Y-80116186D01*
X134724871Y-80301613D01*
X134724500Y-80303719D01*
X134724500Y-80305860D01*
X134724500Y-80399790D01*
X134719819Y-83355236D01*
X134714248Y-83373535D01*
X134715622Y-83374104D01*
X134709037Y-83390000D01*
X134705000Y-83390000D01*
X134705000Y-86890000D01*
X120565785Y-86890000D01*
X120437684Y-86813463D01*
X120377601Y-86777565D01*
X120377599Y-86777564D01*
X120375711Y-86776436D01*
X120322459Y-86756450D01*
X120164736Y-86697255D01*
X120164732Y-86697253D01*
X120162670Y-86696480D01*
X120160510Y-86696088D01*
X120160503Y-86696086D01*
X119940938Y-86656242D01*
X119940934Y-86656241D01*
X119938776Y-86655850D01*
X119768225Y-86655850D01*
X119767144Y-86655947D01*
X119767128Y-86655948D01*
X119600552Y-86670941D01*
X119600550Y-86670941D01*
X119598365Y-86671138D01*
X119596256Y-86671719D01*
X119596245Y-86671722D01*
X119381131Y-86731090D01*
X119381123Y-86731092D01*
X119379014Y-86731675D01*
X119377046Y-86732622D01*
X119377037Y-86732626D01*
X119175976Y-86829451D01*
X119175967Y-86829456D01*
X119173997Y-86830405D01*
X119172228Y-86831690D01*
X119172220Y-86831695D01*
X118991683Y-86962864D01*
X118991674Y-86962871D01*
X118989905Y-86964157D01*
X118988388Y-86965743D01*
X118988383Y-86965748D01*
X118834175Y-87127036D01*
X118834169Y-87127042D01*
X118832653Y-87128629D01*
X118831443Y-87130461D01*
X118831439Y-87130467D01*
X118708507Y-87316699D01*
X118708501Y-87316709D01*
X118707295Y-87318537D01*
X118706435Y-87320547D01*
X118706429Y-87320560D01*
X118618725Y-87525756D01*
X118618722Y-87525763D01*
X118617862Y-87527777D01*
X118617374Y-87529910D01*
X118617372Y-87529920D01*
X118569485Y-87739730D01*
X118567227Y-87749623D01*
X118567128Y-87751814D01*
X118567128Y-87751819D01*
X118557116Y-87974747D01*
X118557116Y-87974754D01*
X118557018Y-87976945D01*
X117912867Y-87976945D01*
X117917982Y-87863055D01*
X117887437Y-87637563D01*
X117817120Y-87421149D01*
X117789865Y-87370500D01*
X117710329Y-87222698D01*
X117710326Y-87222694D01*
X117709290Y-87220768D01*
X117567415Y-87042862D01*
X117396052Y-86893147D01*
X117262684Y-86813463D01*
X117202601Y-86777565D01*
X117202599Y-86777564D01*
X117200711Y-86776436D01*
X117147459Y-86756450D01*
X116989736Y-86697255D01*
X116989732Y-86697253D01*
X116987670Y-86696480D01*
X116985510Y-86696088D01*
X116985503Y-86696086D01*
X116765938Y-86656242D01*
X116765934Y-86656241D01*
X116763776Y-86655850D01*
X116593225Y-86655850D01*
X116592144Y-86655947D01*
X116592128Y-86655948D01*
X116425552Y-86670941D01*
X116425550Y-86670941D01*
X116423365Y-86671138D01*
X116421256Y-86671719D01*
X116421245Y-86671722D01*
X116206131Y-86731090D01*
X116206123Y-86731092D01*
X116204014Y-86731675D01*
X116202046Y-86732622D01*
X116202037Y-86732626D01*
X116000976Y-86829451D01*
X116000967Y-86829456D01*
X115998997Y-86830405D01*
X115997228Y-86831690D01*
X115997220Y-86831695D01*
X115816683Y-86962864D01*
X115816674Y-86962871D01*
X115814905Y-86964157D01*
X115813388Y-86965743D01*
X115813383Y-86965748D01*
X115659175Y-87127036D01*
X115659169Y-87127042D01*
X115657653Y-87128629D01*
X115656443Y-87130461D01*
X115656439Y-87130467D01*
X115533507Y-87316699D01*
X115533501Y-87316709D01*
X115532295Y-87318537D01*
X115531435Y-87320547D01*
X115531429Y-87320560D01*
X115443725Y-87525756D01*
X115443722Y-87525763D01*
X115442862Y-87527777D01*
X115442374Y-87529910D01*
X115442372Y-87529920D01*
X115394485Y-87739730D01*
X115392227Y-87749623D01*
X115392128Y-87751814D01*
X115392128Y-87751819D01*
X115382116Y-87974747D01*
X115382116Y-87974754D01*
X115382018Y-87976945D01*
X100100500Y-87976945D01*
X100100500Y-65149500D01*
X100114852Y-65114852D01*
X100149500Y-65100500D01*
X159850500Y-65100500D01*
X159885148Y-65114852D01*
G37*
%TD.AperFunction*%
%TD*%
M02*
