%TF.GenerationSoftware,KiCad,Pcbnew,(7.0.0)*%
%TF.CreationDate,2023-09-15T12:14:05-04:00*%
%TF.ProjectId,headstage-neuropix2e,68656164-7374-4616-9765-2d6e6575726f,A*%
%TF.SameCoordinates,Original*%
%TF.FileFunction,Soldermask,Top*%
%TF.FilePolarity,Negative*%
%FSLAX46Y46*%
G04 Gerber Fmt 4.6, Leading zero omitted, Abs format (unit mm)*
G04 Created by KiCad (PCBNEW (7.0.0)) date 2023-09-15 12:14:05*
%MOMM*%
%LPD*%
G01*
G04 APERTURE LIST*
G04 Aperture macros list*
%AMRoundRect*
0 Rectangle with rounded corners*
0 $1 Rounding radius*
0 $2 $3 $4 $5 $6 $7 $8 $9 X,Y pos of 4 corners*
0 Add a 4 corners polygon primitive as box body*
4,1,4,$2,$3,$4,$5,$6,$7,$8,$9,$2,$3,0*
0 Add four circle primitives for the rounded corners*
1,1,$1+$1,$2,$3*
1,1,$1+$1,$4,$5*
1,1,$1+$1,$6,$7*
1,1,$1+$1,$8,$9*
0 Add four rect primitives between the rounded corners*
20,1,$1+$1,$2,$3,$4,$5,0*
20,1,$1+$1,$4,$5,$6,$7,0*
20,1,$1+$1,$6,$7,$8,$9,0*
20,1,$1+$1,$8,$9,$2,$3,0*%
G04 Aperture macros list end*
%ADD10R,1.300000X1.700000*%
%ADD11R,0.500000X0.650000*%
%ADD12R,0.600000X1.500000*%
%ADD13R,0.500000X0.550000*%
%ADD14RoundRect,0.100000X-0.100000X0.130000X-0.100000X-0.130000X0.100000X-0.130000X0.100000X0.130000X0*%
%ADD15C,2.374900*%
%ADD16C,0.990600*%
%ADD17C,0.787400*%
%ADD18O,1.400000X2.600000*%
%ADD19RoundRect,0.009000X-0.081000X-0.233500X0.081000X-0.233500X0.081000X0.233500X-0.081000X0.233500X0*%
%ADD20RoundRect,0.011500X-0.103500X-0.256000X0.103500X-0.256000X0.103500X0.256000X-0.103500X0.256000X0*%
%ADD21R,0.254000X0.675000*%
%ADD22R,0.675000X0.254000*%
%ADD23RoundRect,0.140000X-0.140000X-0.170000X0.140000X-0.170000X0.140000X0.170000X-0.140000X0.170000X0*%
%ADD24R,0.250000X0.450000*%
%ADD25R,0.450000X0.250000*%
%ADD26RoundRect,0.100000X0.130000X0.100000X-0.130000X0.100000X-0.130000X-0.100000X0.130000X-0.100000X0*%
%ADD27RoundRect,0.100000X0.100000X-0.130000X0.100000X0.130000X-0.100000X0.130000X-0.100000X-0.130000X0*%
%ADD28RoundRect,0.100000X-0.130000X-0.100000X0.130000X-0.100000X0.130000X0.100000X-0.130000X0.100000X0*%
%ADD29RoundRect,0.012500X-0.187500X-0.112500X0.187500X-0.112500X0.187500X0.112500X-0.187500X0.112500X0*%
%ADD30R,0.500000X1.400000*%
%ADD31R,0.300000X0.800000*%
%ADD32R,0.300000X0.650000*%
%ADD33R,0.400000X0.950000*%
%ADD34RoundRect,0.140000X-0.170000X0.140000X-0.170000X-0.140000X0.170000X-0.140000X0.170000X0.140000X0*%
%ADD35RoundRect,0.250000X-0.600000X0.600000X-0.600000X-0.600000X0.600000X-0.600000X0.600000X0.600000X0*%
%ADD36C,1.700000*%
G04 APERTURE END LIST*
%TO.C,G\u002A\u002A\u002A*%
G36*
X134805391Y-117710773D02*
G01*
X134805391Y-116947319D01*
X135193177Y-116947319D01*
X135193177Y-117710773D01*
X135226069Y-117777424D01*
X135282661Y-117870159D01*
X135351738Y-117942855D01*
X135435265Y-117997309D01*
X135493710Y-118022177D01*
X135570174Y-118039183D01*
X135656261Y-118041618D01*
X135742615Y-118029984D01*
X135819880Y-118004782D01*
X135820128Y-118004668D01*
X135896299Y-117958202D01*
X135966108Y-117893800D01*
X136023234Y-117817761D01*
X136042192Y-117783329D01*
X136077815Y-117710773D01*
X136077815Y-116947319D01*
X136077815Y-116183865D01*
X136042192Y-116111310D01*
X135991930Y-116031646D01*
X135925905Y-115960836D01*
X135850555Y-115905317D01*
X135820128Y-115889246D01*
X135782556Y-115873215D01*
X135748136Y-115863427D01*
X135708596Y-115858423D01*
X135655667Y-115856744D01*
X135635496Y-115856670D01*
X135576809Y-115857623D01*
X135534045Y-115861453D01*
X135498935Y-115869620D01*
X135463208Y-115883583D01*
X135450864Y-115889246D01*
X135377471Y-115934411D01*
X135308772Y-115996305D01*
X135252125Y-116067568D01*
X135225754Y-116114357D01*
X135193177Y-116183865D01*
X135193177Y-116947319D01*
X134805391Y-116947319D01*
X134805391Y-116159628D01*
X134833771Y-116068741D01*
X134875697Y-115955506D01*
X134927146Y-115858443D01*
X134992618Y-115770012D01*
X135047459Y-115710952D01*
X135134327Y-115633368D01*
X135224699Y-115572871D01*
X135326114Y-115524959D01*
X135405248Y-115497263D01*
X135501161Y-115476295D01*
X135609006Y-115467642D01*
X135719905Y-115471203D01*
X135824976Y-115486873D01*
X135883922Y-115502831D01*
X136010199Y-115554904D01*
X136121844Y-115623761D01*
X136223049Y-115711436D01*
X136310618Y-115812520D01*
X136379043Y-115922976D01*
X136431929Y-116048639D01*
X136432586Y-116050563D01*
X136465601Y-116147510D01*
X136465601Y-116947319D01*
X136465601Y-117747128D01*
X136432586Y-117844075D01*
X136379724Y-117969948D01*
X136310678Y-118081223D01*
X136223158Y-118182577D01*
X136115234Y-118275634D01*
X135997986Y-118346344D01*
X135871013Y-118394883D01*
X135733911Y-118421425D01*
X135665792Y-118426354D01*
X135607021Y-118427131D01*
X135550958Y-118425526D01*
X135506223Y-118421880D01*
X135490987Y-118419439D01*
X135355802Y-118381705D01*
X135236406Y-118328028D01*
X135128602Y-118256177D01*
X135047459Y-118183686D01*
X134969875Y-118096819D01*
X134909378Y-118006447D01*
X134861466Y-117905031D01*
X134833771Y-117825897D01*
X134805391Y-117735010D01*
X134805391Y-117710773D01*
G37*
G36*
X139180105Y-116147510D02*
G01*
X139213120Y-116050563D01*
X139263471Y-115929171D01*
X139328373Y-115821920D01*
X139412277Y-115721671D01*
X139428531Y-115705032D01*
X139516368Y-115627614D01*
X139611125Y-115566543D01*
X139719367Y-115517939D01*
X139779962Y-115497297D01*
X139874414Y-115476529D01*
X139980729Y-115467497D01*
X140089562Y-115470201D01*
X140191571Y-115484642D01*
X140240458Y-115497297D01*
X140357806Y-115541166D01*
X140458418Y-115595580D01*
X140548860Y-115664421D01*
X140591889Y-115705032D01*
X140679392Y-115804769D01*
X140747079Y-115910197D01*
X140799336Y-116028355D01*
X140807118Y-116050563D01*
X140839952Y-116147510D01*
X140840133Y-116585888D01*
X140840134Y-116700673D01*
X140839945Y-116793731D01*
X140839433Y-116867573D01*
X140838466Y-116924707D01*
X140836913Y-116967643D01*
X140834642Y-116998892D01*
X140831520Y-117020964D01*
X140827416Y-117036367D01*
X140822198Y-117047613D01*
X140815735Y-117057210D01*
X140815329Y-117057754D01*
X140786479Y-117090115D01*
X140756890Y-117116227D01*
X140748509Y-117121978D01*
X140738688Y-117126789D01*
X140725289Y-117130759D01*
X140706172Y-117133985D01*
X140679200Y-117136567D01*
X140642232Y-117138603D01*
X140593132Y-117140191D01*
X140529759Y-117141432D01*
X140449976Y-117142422D01*
X140351643Y-117143260D01*
X140232622Y-117144046D01*
X140141832Y-117144582D01*
X139560227Y-117147953D01*
X139564059Y-117429363D01*
X139567891Y-117710773D01*
X139606079Y-117791375D01*
X139659939Y-117880504D01*
X139729285Y-117951570D01*
X139816341Y-118006795D01*
X139826602Y-118011766D01*
X139871355Y-118031393D01*
X139908988Y-118042869D01*
X139949568Y-118048275D01*
X140003162Y-118049690D01*
X140010210Y-118049691D01*
X140100185Y-118042602D01*
X140178426Y-118019770D01*
X140252046Y-117978481D01*
X140304347Y-117937396D01*
X140371482Y-117890310D01*
X140436361Y-117867122D01*
X140498626Y-117867854D01*
X140557920Y-117892526D01*
X140593846Y-117920612D01*
X140636976Y-117973916D01*
X140656714Y-118030422D01*
X140653545Y-118089158D01*
X140627952Y-118149148D01*
X140580417Y-118209420D01*
X140511424Y-118269000D01*
X140421456Y-118326914D01*
X140381558Y-118348442D01*
X140275454Y-118391374D01*
X140156584Y-118419338D01*
X140031768Y-118431641D01*
X139907826Y-118427592D01*
X139796596Y-118407834D01*
X139662375Y-118360663D01*
X139541263Y-118293572D01*
X139434573Y-118207812D01*
X139343619Y-118104634D01*
X139269712Y-117985291D01*
X139214904Y-117853294D01*
X139180105Y-117747128D01*
X139180105Y-116947319D01*
X139180105Y-116759485D01*
X139559910Y-116759485D01*
X140010210Y-116759485D01*
X140460510Y-116759485D01*
X140456478Y-116471675D01*
X140452447Y-116183865D01*
X140416974Y-116111419D01*
X140366945Y-116032002D01*
X140301086Y-115961260D01*
X140225886Y-115905684D01*
X140194842Y-115889246D01*
X140157270Y-115873215D01*
X140122849Y-115863427D01*
X140083310Y-115858423D01*
X140030381Y-115856744D01*
X140010210Y-115856670D01*
X139951522Y-115857623D01*
X139908759Y-115861453D01*
X139873649Y-115869620D01*
X139837922Y-115883583D01*
X139825578Y-115889246D01*
X139748467Y-115936992D01*
X139678118Y-116002483D01*
X139621020Y-116079230D01*
X139603446Y-116111419D01*
X139567973Y-116183865D01*
X139563941Y-116471675D01*
X139559910Y-116759485D01*
X139180105Y-116759485D01*
X139180105Y-116147510D01*
G37*
G36*
X144487929Y-116147510D02*
G01*
X144520945Y-116050563D01*
X144571296Y-115929171D01*
X144636198Y-115821920D01*
X144720102Y-115721671D01*
X144736355Y-115705032D01*
X144824192Y-115627614D01*
X144918949Y-115566543D01*
X145027191Y-115517939D01*
X145087786Y-115497297D01*
X145182239Y-115476529D01*
X145288553Y-115467497D01*
X145397387Y-115470201D01*
X145499396Y-115484642D01*
X145548282Y-115497297D01*
X145665631Y-115541166D01*
X145766242Y-115595580D01*
X145856684Y-115664421D01*
X145899714Y-115705032D01*
X145987216Y-115804769D01*
X146054904Y-115910197D01*
X146107160Y-116028355D01*
X146114942Y-116050563D01*
X146147776Y-116147510D01*
X146147958Y-116585888D01*
X146147959Y-116700673D01*
X146147769Y-116793731D01*
X146147257Y-116867573D01*
X146146290Y-116924707D01*
X146144738Y-116967643D01*
X146142466Y-116998892D01*
X146139345Y-117020964D01*
X146135241Y-117036367D01*
X146130023Y-117047613D01*
X146123559Y-117057210D01*
X146123154Y-117057754D01*
X146094304Y-117090115D01*
X146064715Y-117116227D01*
X146056334Y-117121978D01*
X146046513Y-117126789D01*
X146033113Y-117130759D01*
X146013997Y-117133985D01*
X145987024Y-117136567D01*
X145950057Y-117138603D01*
X145900956Y-117140191D01*
X145837584Y-117141432D01*
X145757800Y-117142422D01*
X145659467Y-117143260D01*
X145540446Y-117144046D01*
X145449656Y-117144582D01*
X144868051Y-117147953D01*
X144871883Y-117429363D01*
X144875716Y-117710773D01*
X144913903Y-117791375D01*
X144967763Y-117880504D01*
X145037109Y-117951570D01*
X145124166Y-118006795D01*
X145134427Y-118011766D01*
X145179179Y-118031393D01*
X145216812Y-118042869D01*
X145257392Y-118048275D01*
X145310987Y-118049690D01*
X145318034Y-118049691D01*
X145408009Y-118042602D01*
X145486250Y-118019770D01*
X145559871Y-117978481D01*
X145612171Y-117937396D01*
X145679306Y-117890310D01*
X145744185Y-117867122D01*
X145806451Y-117867854D01*
X145865744Y-117892526D01*
X145901671Y-117920612D01*
X145944800Y-117973916D01*
X145964539Y-118030422D01*
X145961370Y-118089158D01*
X145935776Y-118149148D01*
X145888242Y-118209420D01*
X145819249Y-118269000D01*
X145729281Y-118326914D01*
X145689382Y-118348442D01*
X145583278Y-118391374D01*
X145464408Y-118419338D01*
X145339592Y-118431641D01*
X145215650Y-118427592D01*
X145104421Y-118407834D01*
X144970200Y-118360663D01*
X144849088Y-118293572D01*
X144742398Y-118207812D01*
X144651443Y-118104634D01*
X144577536Y-117985291D01*
X144522728Y-117853294D01*
X144487929Y-117747128D01*
X144487929Y-116947319D01*
X144487929Y-116759485D01*
X144867734Y-116759485D01*
X145318034Y-116759485D01*
X145768335Y-116759485D01*
X145764303Y-116471675D01*
X145760271Y-116183865D01*
X145724798Y-116111419D01*
X145674770Y-116032002D01*
X145608911Y-115961260D01*
X145533710Y-115905684D01*
X145502666Y-115889246D01*
X145465094Y-115873215D01*
X145430674Y-115863427D01*
X145391134Y-115858423D01*
X145338205Y-115856744D01*
X145318034Y-115856670D01*
X145259347Y-115857623D01*
X145216584Y-115861453D01*
X145181474Y-115869620D01*
X145145746Y-115883583D01*
X145133402Y-115889246D01*
X145056291Y-115936992D01*
X144985942Y-116002483D01*
X144928845Y-116079230D01*
X144911270Y-116111419D01*
X144875798Y-116183865D01*
X144871766Y-116471675D01*
X144867734Y-116759485D01*
X144487929Y-116759485D01*
X144487929Y-116147510D01*
G37*
G36*
X142449158Y-115531108D02*
G01*
X142550179Y-115572085D01*
X142635146Y-115618428D01*
X142712241Y-115675233D01*
X142778331Y-115736188D01*
X142866347Y-115837270D01*
X142934769Y-115946956D01*
X142987452Y-116071455D01*
X142988597Y-116074800D01*
X143021613Y-116171747D01*
X143021613Y-117240295D01*
X143021605Y-117425560D01*
X143021557Y-117588125D01*
X143021436Y-117729528D01*
X143021205Y-117851306D01*
X143020831Y-117954997D01*
X143020278Y-118042137D01*
X143019511Y-118114265D01*
X143018497Y-118172916D01*
X143017198Y-118219629D01*
X143015582Y-118255941D01*
X143013613Y-118283389D01*
X143011256Y-118303511D01*
X143008476Y-118317842D01*
X143005238Y-118327922D01*
X143001509Y-118335287D01*
X142997252Y-118341475D01*
X142996627Y-118342314D01*
X142954874Y-118388489D01*
X142910244Y-118414805D01*
X142855110Y-118425169D01*
X142833779Y-118425754D01*
X142773627Y-118419714D01*
X142726440Y-118398989D01*
X142684588Y-118359670D01*
X142670930Y-118342328D01*
X142666561Y-118336074D01*
X142662721Y-118328728D01*
X142659369Y-118318741D01*
X142656457Y-118304560D01*
X142653943Y-118284633D01*
X142651782Y-118257410D01*
X142649929Y-118221339D01*
X142648340Y-118174869D01*
X142646970Y-118116448D01*
X142645775Y-118044524D01*
X142644711Y-117957547D01*
X142643733Y-117853965D01*
X142642797Y-117732227D01*
X142641858Y-117590781D01*
X142640871Y-117428075D01*
X142639885Y-117258487D01*
X142633826Y-116208101D01*
X142598313Y-116135656D01*
X142543336Y-116049665D01*
X142470499Y-115975823D01*
X142385189Y-115919515D01*
X142379077Y-115916461D01*
X142306632Y-115880989D01*
X142018993Y-115876959D01*
X141731355Y-115872929D01*
X141728154Y-117090894D01*
X141727625Y-117289469D01*
X141727124Y-117465241D01*
X141726618Y-117619646D01*
X141726075Y-117754118D01*
X141725463Y-117870091D01*
X141724750Y-117969000D01*
X141723902Y-118052279D01*
X141722888Y-118121362D01*
X141721675Y-118177684D01*
X141720232Y-118222680D01*
X141718525Y-118257783D01*
X141716523Y-118284429D01*
X141714193Y-118304052D01*
X141711503Y-118318086D01*
X141708420Y-118327965D01*
X141704913Y-118335125D01*
X141700948Y-118340999D01*
X141699967Y-118342321D01*
X141671895Y-118374026D01*
X141643308Y-118399431D01*
X141602652Y-118418180D01*
X141550154Y-118427306D01*
X141496592Y-118425881D01*
X141457748Y-118415439D01*
X141413953Y-118385818D01*
X141376542Y-118343296D01*
X141352748Y-118296704D01*
X141349301Y-118283007D01*
X141348391Y-118265825D01*
X141347579Y-118226024D01*
X141346869Y-118165224D01*
X141346264Y-118085042D01*
X141345771Y-117987097D01*
X141345391Y-117873008D01*
X141345131Y-117744392D01*
X141344993Y-117602868D01*
X141344982Y-117450055D01*
X141345103Y-117287570D01*
X141345359Y-117117033D01*
X141345755Y-116940061D01*
X141345790Y-116926998D01*
X141346345Y-116720052D01*
X141346867Y-116535966D01*
X141347386Y-116373364D01*
X141347931Y-116230868D01*
X141348531Y-116107102D01*
X141349215Y-116000690D01*
X141350012Y-115910254D01*
X141350950Y-115834418D01*
X141352059Y-115771806D01*
X141353369Y-115721041D01*
X141354907Y-115680746D01*
X141356703Y-115649545D01*
X141358787Y-115626060D01*
X141361186Y-115608916D01*
X141363931Y-115596736D01*
X141367050Y-115588143D01*
X141370572Y-115581760D01*
X141374270Y-115576554D01*
X141403130Y-115544214D01*
X141432751Y-115518106D01*
X141442337Y-115511567D01*
X141453438Y-115506281D01*
X141468566Y-115502113D01*
X141490228Y-115498932D01*
X141520936Y-115496605D01*
X141563200Y-115494999D01*
X141619528Y-115493980D01*
X141692432Y-115493416D01*
X141784420Y-115493174D01*
X141898004Y-115493121D01*
X141904616Y-115493121D01*
X142342987Y-115493121D01*
X142449158Y-115531108D01*
G37*
G36*
X149134864Y-114178263D02*
G01*
X149182051Y-114198988D01*
X149223903Y-114238305D01*
X149237562Y-114255649D01*
X149243241Y-114263914D01*
X149248003Y-114273596D01*
X149251944Y-114286802D01*
X149255158Y-114305637D01*
X149257739Y-114332207D01*
X149259783Y-114368619D01*
X149261383Y-114416978D01*
X149262635Y-114479391D01*
X149263632Y-114557964D01*
X149264469Y-114654802D01*
X149265242Y-114772012D01*
X149265905Y-114887016D01*
X149269263Y-115484929D01*
X149574923Y-115489753D01*
X149669783Y-115491358D01*
X149744152Y-115493047D01*
X149801772Y-115495165D01*
X149846388Y-115498056D01*
X149881743Y-115502067D01*
X149911581Y-115507541D01*
X149939645Y-115514825D01*
X149969679Y-115524263D01*
X149977529Y-115526864D01*
X150103757Y-115579087D01*
X150215205Y-115647820D01*
X150316656Y-115735673D01*
X150404225Y-115836757D01*
X150472650Y-115947213D01*
X150525535Y-116072876D01*
X150526193Y-116074800D01*
X150559208Y-116171747D01*
X150559208Y-117240295D01*
X150559200Y-117425560D01*
X150559153Y-117588125D01*
X150559031Y-117729528D01*
X150558801Y-117851306D01*
X150558426Y-117954997D01*
X150557873Y-118042137D01*
X150557107Y-118114265D01*
X150556092Y-118172916D01*
X150554794Y-118219629D01*
X150553177Y-118255941D01*
X150551208Y-118283389D01*
X150548851Y-118303511D01*
X150546071Y-118317842D01*
X150542834Y-118327922D01*
X150539104Y-118335287D01*
X150534847Y-118341475D01*
X150534223Y-118342314D01*
X150492470Y-118388489D01*
X150447839Y-118414805D01*
X150392705Y-118425169D01*
X150371374Y-118425754D01*
X150311223Y-118419714D01*
X150264035Y-118398989D01*
X150222183Y-118359670D01*
X150208525Y-118342328D01*
X150204156Y-118336074D01*
X150200317Y-118328728D01*
X150196964Y-118318741D01*
X150194053Y-118304560D01*
X150191539Y-118284633D01*
X150189377Y-118257410D01*
X150187524Y-118221339D01*
X150185935Y-118174869D01*
X150184565Y-118116448D01*
X150183371Y-118044524D01*
X150182306Y-117957547D01*
X150181328Y-117853965D01*
X150180392Y-117732227D01*
X150179453Y-117590781D01*
X150178467Y-117428075D01*
X150177481Y-117258487D01*
X150171422Y-116208101D01*
X150135908Y-116135656D01*
X150080931Y-116049665D01*
X150008094Y-115975823D01*
X149922785Y-115919515D01*
X149916673Y-115916461D01*
X149844227Y-115880989D01*
X149556589Y-115876959D01*
X149268950Y-115872929D01*
X149265749Y-117090894D01*
X149265220Y-117289469D01*
X149264719Y-117465241D01*
X149264214Y-117619646D01*
X149263671Y-117754118D01*
X149263059Y-117870091D01*
X149262345Y-117969000D01*
X149261497Y-118052279D01*
X149260483Y-118121362D01*
X149259271Y-118177684D01*
X149257827Y-118222680D01*
X149256120Y-118257783D01*
X149254118Y-118284429D01*
X149251788Y-118304052D01*
X149249098Y-118318086D01*
X149246016Y-118327965D01*
X149242508Y-118335125D01*
X149238544Y-118340999D01*
X149237562Y-118342321D01*
X149209491Y-118374026D01*
X149180903Y-118399431D01*
X149140248Y-118418180D01*
X149087749Y-118427306D01*
X149034187Y-118425881D01*
X148995344Y-118415439D01*
X148951557Y-118385827D01*
X148914159Y-118343323D01*
X148890377Y-118296752D01*
X148886923Y-118283007D01*
X148886177Y-118266758D01*
X148885495Y-118227576D01*
X148884879Y-118166765D01*
X148884331Y-118085628D01*
X148883855Y-117985469D01*
X148883451Y-117867593D01*
X148883123Y-117733302D01*
X148882873Y-117583901D01*
X148882703Y-117420693D01*
X148882615Y-117244982D01*
X148882611Y-117058071D01*
X148882694Y-116861264D01*
X148882866Y-116655866D01*
X148883130Y-116443179D01*
X148883412Y-116266551D01*
X148883863Y-116010360D01*
X148884289Y-115777291D01*
X148884703Y-115566231D01*
X148885123Y-115376066D01*
X148885563Y-115205681D01*
X148886041Y-115053963D01*
X148886570Y-114919798D01*
X148887167Y-114802071D01*
X148887849Y-114699669D01*
X148888630Y-114611478D01*
X148889526Y-114536384D01*
X148890554Y-114473272D01*
X148891729Y-114421029D01*
X148893066Y-114378541D01*
X148894581Y-114344694D01*
X148896291Y-114318374D01*
X148898211Y-114298466D01*
X148900357Y-114283858D01*
X148902744Y-114273434D01*
X148905388Y-114266081D01*
X148908306Y-114260685D01*
X148911512Y-114256132D01*
X148911865Y-114255658D01*
X148953620Y-114209486D01*
X148998249Y-114183172D01*
X149053379Y-114172809D01*
X149074714Y-114172224D01*
X149134864Y-114178263D01*
G37*
G36*
X153909924Y-115469524D02*
G01*
X153973879Y-115470442D01*
X154021639Y-115473382D01*
X154061231Y-115479653D01*
X154100686Y-115490564D01*
X154148033Y-115507422D01*
X154152290Y-115509025D01*
X154271959Y-115564692D01*
X154380146Y-115636020D01*
X154473143Y-115720039D01*
X154547242Y-115813781D01*
X154561323Y-115836578D01*
X154588183Y-115902277D01*
X154593333Y-115966957D01*
X154577747Y-116026721D01*
X154542401Y-116077676D01*
X154491788Y-116114185D01*
X154424946Y-116136343D01*
X154360536Y-116135630D01*
X154301992Y-116113011D01*
X154252749Y-116069452D01*
X154233554Y-116041609D01*
X154177319Y-115965964D01*
X154108749Y-115910659D01*
X154026860Y-115875154D01*
X153930669Y-115858911D01*
X153897805Y-115857703D01*
X153815141Y-115862140D01*
X153747490Y-115879087D01*
X153687639Y-115911387D01*
X153628375Y-115961889D01*
X153624824Y-115965416D01*
X153567794Y-116037812D01*
X153530141Y-116119013D01*
X153512099Y-116204968D01*
X153513901Y-116291625D01*
X153535779Y-116374932D01*
X153577964Y-116450836D01*
X153595708Y-116472807D01*
X153619191Y-116494991D01*
X153660389Y-116528916D01*
X153716920Y-116572781D01*
X153786404Y-116624780D01*
X153866455Y-116683111D01*
X153954694Y-116745970D01*
X153980700Y-116764246D01*
X154063818Y-116823056D01*
X154143327Y-116880384D01*
X154216299Y-116934038D01*
X154279805Y-116981828D01*
X154330917Y-117021560D01*
X154366707Y-117051042D01*
X154379422Y-117062714D01*
X154463237Y-117160018D01*
X154527908Y-117266571D01*
X154569351Y-117364866D01*
X154584543Y-117409474D01*
X154594889Y-117446869D01*
X154601321Y-117483767D01*
X154604772Y-117526885D01*
X154606174Y-117582939D01*
X154606432Y-117632004D01*
X154603355Y-117737229D01*
X154592540Y-117825498D01*
X154572241Y-117903343D01*
X154540712Y-117977292D01*
X154496208Y-118053875D01*
X154491781Y-118060698D01*
X154407717Y-118168615D01*
X154308931Y-118259566D01*
X154198151Y-118332467D01*
X154078100Y-118386231D01*
X153951505Y-118419772D01*
X153821091Y-118432003D01*
X153689582Y-118421839D01*
X153621865Y-118407394D01*
X153499443Y-118364139D01*
X153384130Y-118301695D01*
X153280391Y-118223189D01*
X153192689Y-118131748D01*
X153155073Y-118080382D01*
X153118033Y-118008633D01*
X153102328Y-117940394D01*
X153107257Y-117878214D01*
X153132120Y-117824640D01*
X153176218Y-117782221D01*
X153238850Y-117753504D01*
X153245396Y-117751672D01*
X153312512Y-117743784D01*
X153371327Y-117758585D01*
X153423002Y-117796457D01*
X153439970Y-117815674D01*
X153492247Y-117878882D01*
X153535455Y-117925801D01*
X153573842Y-117960389D01*
X153611656Y-117986608D01*
X153639800Y-118001972D01*
X153678040Y-118019536D01*
X153712049Y-118030140D01*
X153750543Y-118035512D01*
X153802240Y-118037379D01*
X153819036Y-118037504D01*
X153875008Y-118036824D01*
X153915296Y-118033120D01*
X153948414Y-118024751D01*
X153982875Y-118010074D01*
X153996633Y-118003242D01*
X154075680Y-117951531D01*
X154143569Y-117884258D01*
X154190657Y-117813779D01*
X154203875Y-117784998D01*
X154212268Y-117755823D01*
X154216871Y-117719596D01*
X154218721Y-117669658D01*
X154218941Y-117632004D01*
X154218438Y-117573331D01*
X154216073Y-117532009D01*
X154210557Y-117501159D01*
X154200603Y-117473901D01*
X154184923Y-117443356D01*
X154182972Y-117439822D01*
X154170672Y-117418304D01*
X154158006Y-117398797D01*
X154143007Y-117379687D01*
X154123708Y-117359359D01*
X154098140Y-117336199D01*
X154064338Y-117308592D01*
X154020332Y-117274924D01*
X153964155Y-117233580D01*
X153893841Y-117182946D01*
X153807421Y-117121408D01*
X153715685Y-117056384D01*
X153618091Y-116986563D01*
X153530611Y-116922566D01*
X153455216Y-116865902D01*
X153393877Y-116818079D01*
X153348565Y-116780605D01*
X153321251Y-116754989D01*
X153319840Y-116753426D01*
X153245757Y-116653023D01*
X153186121Y-116537151D01*
X153156719Y-116456527D01*
X153136402Y-116364230D01*
X153127360Y-116261315D01*
X153129626Y-116156838D01*
X153143230Y-116059856D01*
X153155169Y-116014208D01*
X153206363Y-115891805D01*
X153277896Y-115779792D01*
X153367166Y-115680734D01*
X153471575Y-115597194D01*
X153588523Y-115531735D01*
X153679676Y-115497039D01*
X153729104Y-115483440D01*
X153776420Y-115474981D01*
X153829966Y-115470663D01*
X153898086Y-115469491D01*
X153909924Y-115469524D01*
G37*
G36*
X152730300Y-115486672D02*
G01*
X152781428Y-115519272D01*
X152819637Y-115565975D01*
X152840714Y-115623608D01*
X152843511Y-115655273D01*
X152840110Y-115669859D01*
X152830211Y-115706113D01*
X152814274Y-115762485D01*
X152792759Y-115837427D01*
X152766124Y-115929389D01*
X152734830Y-116036822D01*
X152699336Y-116158176D01*
X152660100Y-116291903D01*
X152617583Y-116436454D01*
X152572243Y-116590279D01*
X152524541Y-116751829D01*
X152474935Y-116919555D01*
X152423884Y-117091908D01*
X152371849Y-117267339D01*
X152319288Y-117444298D01*
X152266662Y-117621237D01*
X152214428Y-117796605D01*
X152163047Y-117968855D01*
X152112978Y-118136436D01*
X152064680Y-118297800D01*
X152018613Y-118451397D01*
X151975236Y-118595679D01*
X151935009Y-118729096D01*
X151898390Y-118850099D01*
X151865839Y-118957139D01*
X151837816Y-119048666D01*
X151824367Y-119092262D01*
X151787143Y-119199892D01*
X151746728Y-119289274D01*
X151699723Y-119366391D01*
X151642729Y-119437232D01*
X151607602Y-119473989D01*
X151496614Y-119568708D01*
X151376017Y-119641712D01*
X151247033Y-119692436D01*
X151110887Y-119720311D01*
X151068177Y-119724176D01*
X151016292Y-119726545D01*
X150980044Y-119724767D01*
X150951012Y-119717611D01*
X150920771Y-119703848D01*
X150917595Y-119702186D01*
X150864873Y-119662102D01*
X150832043Y-119608406D01*
X150819818Y-119542307D01*
X150819752Y-119536601D01*
X150827824Y-119470555D01*
X150852907Y-119418898D01*
X150896297Y-119380471D01*
X150959293Y-119354116D01*
X151041366Y-119338879D01*
X151150763Y-119316736D01*
X151243984Y-119276568D01*
X151321111Y-119218322D01*
X151382228Y-119141945D01*
X151398037Y-119114390D01*
X151412275Y-119082317D01*
X151431144Y-119032170D01*
X151453664Y-118967237D01*
X151478856Y-118890810D01*
X151505740Y-118806178D01*
X151533336Y-118716631D01*
X151560665Y-118625459D01*
X151586748Y-118535952D01*
X151610604Y-118451401D01*
X151631254Y-118375095D01*
X151647719Y-118310325D01*
X151659018Y-118260379D01*
X151664174Y-118228550D01*
X151664162Y-118220577D01*
X151659866Y-118204024D01*
X151649067Y-118165852D01*
X151632235Y-118107652D01*
X151609842Y-118031017D01*
X151582357Y-117937538D01*
X151550252Y-117828807D01*
X151513998Y-117706418D01*
X151474064Y-117571961D01*
X151430922Y-117427028D01*
X151385043Y-117273213D01*
X151336897Y-117112106D01*
X151298452Y-116983674D01*
X151248664Y-116817389D01*
X151200608Y-116656738D01*
X151154771Y-116503357D01*
X151111640Y-116358883D01*
X151071702Y-116224951D01*
X151035444Y-116103198D01*
X151003353Y-115995261D01*
X150975916Y-115902775D01*
X150953621Y-115827378D01*
X150936953Y-115770704D01*
X150926401Y-115734392D01*
X150922806Y-115721555D01*
X150913826Y-115649357D01*
X150927148Y-115586349D01*
X150962936Y-115531851D01*
X150970905Y-115523732D01*
X151022729Y-115488446D01*
X151081385Y-115472398D01*
X151141455Y-115474801D01*
X151197522Y-115494868D01*
X151244168Y-115531810D01*
X151268130Y-115566928D01*
X151274300Y-115583806D01*
X151286798Y-115622147D01*
X151305082Y-115680171D01*
X151328610Y-115756100D01*
X151356839Y-115848153D01*
X151389227Y-115954551D01*
X151425231Y-116073515D01*
X151464310Y-116203265D01*
X151505920Y-116342023D01*
X151549520Y-116488007D01*
X151577147Y-116580809D01*
X151621382Y-116729345D01*
X151663711Y-116871022D01*
X151703619Y-117004144D01*
X151740591Y-117127016D01*
X151774113Y-117237942D01*
X151803670Y-117335226D01*
X151828747Y-117417172D01*
X151848829Y-117482084D01*
X151863403Y-117528267D01*
X151871953Y-117554026D01*
X151874046Y-117559014D01*
X151878398Y-117547704D01*
X151889170Y-117514919D01*
X151905824Y-117462400D01*
X151927825Y-117391890D01*
X151954638Y-117305131D01*
X151985726Y-117203864D01*
X152020554Y-117089832D01*
X152058586Y-116964776D01*
X152099287Y-116830438D01*
X152142119Y-116688561D01*
X152158203Y-116635159D01*
X152202276Y-116488751D01*
X152244771Y-116347602D01*
X152285106Y-116213648D01*
X152322698Y-116088824D01*
X152356963Y-115975067D01*
X152387318Y-115874312D01*
X152413181Y-115788495D01*
X152433968Y-115719550D01*
X152449096Y-115669415D01*
X152457982Y-115640023D01*
X152459247Y-115635858D01*
X152489911Y-115564290D01*
X152532481Y-115513326D01*
X152587881Y-115481962D01*
X152606140Y-115476475D01*
X152670466Y-115471348D01*
X152730300Y-115486672D01*
G37*
G36*
X138122917Y-115531108D02*
G01*
X138223939Y-115572085D01*
X138308906Y-115618428D01*
X138386001Y-115675233D01*
X138452090Y-115736188D01*
X138540107Y-115837270D01*
X138608528Y-115946956D01*
X138661212Y-116071455D01*
X138662357Y-116074800D01*
X138695372Y-116171747D01*
X138695372Y-116947319D01*
X138695372Y-117722892D01*
X138662357Y-117819838D01*
X138610016Y-117944785D01*
X138542034Y-118054765D01*
X138454553Y-118155986D01*
X138452090Y-118158450D01*
X138374445Y-118228936D01*
X138296000Y-118284216D01*
X138208479Y-118329432D01*
X138122917Y-118363039D01*
X138089863Y-118374551D01*
X138061441Y-118383474D01*
X138033895Y-118390193D01*
X138003470Y-118395093D01*
X137966409Y-118398560D01*
X137918956Y-118400979D01*
X137857355Y-118402734D01*
X137777851Y-118404211D01*
X137711086Y-118405262D01*
X137405427Y-118409987D01*
X137402069Y-119007761D01*
X137401279Y-119143578D01*
X137400502Y-119257266D01*
X137399644Y-119350929D01*
X137398612Y-119426675D01*
X137397309Y-119486610D01*
X137395641Y-119532840D01*
X137393515Y-119567472D01*
X137390835Y-119592611D01*
X137387506Y-119610365D01*
X137383435Y-119622840D01*
X137378526Y-119632141D01*
X137373726Y-119638989D01*
X137345652Y-119670692D01*
X137317067Y-119696092D01*
X137276412Y-119714840D01*
X137223913Y-119723966D01*
X137170352Y-119722541D01*
X137131508Y-119712099D01*
X137087721Y-119682487D01*
X137050323Y-119639983D01*
X137026541Y-119593412D01*
X137023087Y-119579667D01*
X137022339Y-119563405D01*
X137021654Y-119524215D01*
X137021037Y-119463404D01*
X137020489Y-119382279D01*
X137020012Y-119282151D01*
X137019608Y-119164325D01*
X137019281Y-119030110D01*
X137019032Y-118880814D01*
X137018863Y-118717745D01*
X137018777Y-118542211D01*
X137018776Y-118355520D01*
X137018863Y-118158979D01*
X137019039Y-117953897D01*
X137019307Y-117741582D01*
X137019575Y-117575329D01*
X137020029Y-117319960D01*
X137020455Y-117087710D01*
X137020871Y-116877462D01*
X137021292Y-116688097D01*
X137021735Y-116518499D01*
X137022214Y-116367550D01*
X137022747Y-116234132D01*
X137023348Y-116117128D01*
X137024034Y-116015421D01*
X137024821Y-115927892D01*
X137025464Y-115874848D01*
X137404771Y-115874848D01*
X137404771Y-116947319D01*
X137404771Y-118019790D01*
X137664235Y-118019790D01*
X137755010Y-118019486D01*
X137825518Y-118018395D01*
X137879724Y-118016249D01*
X137921593Y-118012780D01*
X137955089Y-118007720D01*
X137984177Y-118000802D01*
X137995662Y-117997393D01*
X138091140Y-117956301D01*
X138171679Y-117896722D01*
X138238264Y-117817776D01*
X138281677Y-117741069D01*
X138287011Y-117729388D01*
X138291558Y-117717262D01*
X138295380Y-117702765D01*
X138298541Y-117683971D01*
X138301103Y-117658953D01*
X138303129Y-117625786D01*
X138304681Y-117582543D01*
X138305824Y-117527299D01*
X138306619Y-117458127D01*
X138307130Y-117373102D01*
X138307419Y-117270297D01*
X138307550Y-117147787D01*
X138307585Y-117003645D01*
X138307586Y-116947319D01*
X138307570Y-116795093D01*
X138307480Y-116665177D01*
X138307254Y-116555646D01*
X138306829Y-116464573D01*
X138306141Y-116390033D01*
X138305128Y-116330100D01*
X138303727Y-116282846D01*
X138301875Y-116246347D01*
X138299509Y-116218677D01*
X138296567Y-116197908D01*
X138292985Y-116182116D01*
X138288700Y-116169374D01*
X138283651Y-116157756D01*
X138281677Y-116153569D01*
X138225429Y-116058686D01*
X138156004Y-115983868D01*
X138072418Y-115928233D01*
X137995662Y-115897245D01*
X137967232Y-115889493D01*
X137936008Y-115883710D01*
X137898025Y-115879626D01*
X137849317Y-115876974D01*
X137785921Y-115875486D01*
X137703871Y-115874894D01*
X137664235Y-115874848D01*
X137404771Y-115874848D01*
X137025464Y-115874848D01*
X137025724Y-115853425D01*
X137026760Y-115790902D01*
X137027945Y-115739204D01*
X137029293Y-115697216D01*
X137030822Y-115663818D01*
X137032548Y-115637894D01*
X137034485Y-115618327D01*
X137036650Y-115603998D01*
X137039059Y-115593790D01*
X137041728Y-115586585D01*
X137044673Y-115581267D01*
X137047909Y-115576717D01*
X137048029Y-115576555D01*
X137076890Y-115544214D01*
X137106510Y-115518106D01*
X137116096Y-115511567D01*
X137127198Y-115506281D01*
X137142325Y-115502113D01*
X137163988Y-115498932D01*
X137194696Y-115496605D01*
X137236959Y-115494999D01*
X137293288Y-115493980D01*
X137366191Y-115493416D01*
X137458180Y-115493174D01*
X137571763Y-115493121D01*
X137578376Y-115493121D01*
X138016746Y-115493121D01*
X138122917Y-115531108D01*
G37*
G36*
X147769101Y-115531108D02*
G01*
X147870122Y-115572085D01*
X147955089Y-115618428D01*
X148032184Y-115675233D01*
X148098273Y-115736188D01*
X148186290Y-115837270D01*
X148254712Y-115946956D01*
X148307395Y-116071455D01*
X148308540Y-116074800D01*
X148341555Y-116171747D01*
X148341555Y-116947319D01*
X148341555Y-117722892D01*
X148308540Y-117819838D01*
X148256200Y-117944785D01*
X148188217Y-118054765D01*
X148100736Y-118155986D01*
X148098273Y-118158450D01*
X148020628Y-118228936D01*
X147942183Y-118284216D01*
X147854662Y-118329432D01*
X147769101Y-118363039D01*
X147736046Y-118374551D01*
X147707624Y-118383474D01*
X147680079Y-118390193D01*
X147649653Y-118395093D01*
X147612592Y-118398560D01*
X147565139Y-118400979D01*
X147503538Y-118402734D01*
X147424034Y-118404211D01*
X147357270Y-118405262D01*
X147051610Y-118409987D01*
X147048253Y-119007761D01*
X147047462Y-119143578D01*
X147046685Y-119257266D01*
X147045828Y-119350929D01*
X147044795Y-119426675D01*
X147043492Y-119486610D01*
X147041824Y-119532840D01*
X147039698Y-119567472D01*
X147037018Y-119592611D01*
X147033689Y-119610365D01*
X147029618Y-119622840D01*
X147024709Y-119632141D01*
X147019910Y-119638989D01*
X146991835Y-119670692D01*
X146963250Y-119696092D01*
X146922595Y-119714840D01*
X146870096Y-119723966D01*
X146816535Y-119722541D01*
X146777691Y-119712099D01*
X146733904Y-119682487D01*
X146696506Y-119639983D01*
X146672724Y-119593412D01*
X146669270Y-119579667D01*
X146668522Y-119563405D01*
X146667838Y-119524215D01*
X146667220Y-119463404D01*
X146666672Y-119382279D01*
X146666195Y-119282151D01*
X146665791Y-119164325D01*
X146665464Y-119030110D01*
X146665215Y-118880814D01*
X146665046Y-118717745D01*
X146664960Y-118542211D01*
X146664959Y-118355520D01*
X146665046Y-118158979D01*
X146665222Y-117953897D01*
X146665490Y-117741582D01*
X146665759Y-117575329D01*
X146666212Y-117319960D01*
X146666638Y-117087710D01*
X146667054Y-116877462D01*
X146667476Y-116688097D01*
X146667918Y-116518499D01*
X146668397Y-116367550D01*
X146668930Y-116234132D01*
X146669531Y-116117128D01*
X146670217Y-116015421D01*
X146671004Y-115927892D01*
X146671647Y-115874848D01*
X147050954Y-115874848D01*
X147050954Y-116947319D01*
X147050954Y-118019790D01*
X147310418Y-118019790D01*
X147401193Y-118019486D01*
X147471701Y-118018395D01*
X147525907Y-118016249D01*
X147567776Y-118012780D01*
X147601272Y-118007720D01*
X147630360Y-118000802D01*
X147641845Y-117997393D01*
X147737323Y-117956301D01*
X147817862Y-117896722D01*
X147884447Y-117817776D01*
X147927860Y-117741069D01*
X147933194Y-117729388D01*
X147937741Y-117717262D01*
X147941563Y-117702765D01*
X147944724Y-117683971D01*
X147947286Y-117658953D01*
X147949312Y-117625786D01*
X147950865Y-117582543D01*
X147952007Y-117527299D01*
X147952803Y-117458127D01*
X147953313Y-117373102D01*
X147953603Y-117270297D01*
X147953733Y-117147787D01*
X147953768Y-117003645D01*
X147953769Y-116947319D01*
X147953753Y-116795093D01*
X147953664Y-116665177D01*
X147953437Y-116555646D01*
X147953012Y-116464573D01*
X147952324Y-116390033D01*
X147951311Y-116330100D01*
X147949910Y-116282846D01*
X147948058Y-116246347D01*
X147945692Y-116218677D01*
X147942750Y-116197908D01*
X147939168Y-116182116D01*
X147934884Y-116169374D01*
X147929834Y-116157756D01*
X147927860Y-116153569D01*
X147871613Y-116058686D01*
X147802187Y-115983868D01*
X147718601Y-115928233D01*
X147641845Y-115897245D01*
X147613416Y-115889493D01*
X147582192Y-115883710D01*
X147544208Y-115879626D01*
X147495500Y-115876974D01*
X147432104Y-115875486D01*
X147350054Y-115874894D01*
X147310418Y-115874848D01*
X147050954Y-115874848D01*
X146671647Y-115874848D01*
X146671907Y-115853425D01*
X146672943Y-115790902D01*
X146674128Y-115739204D01*
X146675477Y-115697216D01*
X146677006Y-115663818D01*
X146678731Y-115637894D01*
X146680668Y-115618327D01*
X146682833Y-115603998D01*
X146685242Y-115593790D01*
X146687911Y-115586585D01*
X146690856Y-115581267D01*
X146694092Y-115576717D01*
X146694212Y-115576555D01*
X146723073Y-115544214D01*
X146752693Y-115518106D01*
X146762279Y-115511567D01*
X146773381Y-115506281D01*
X146788508Y-115502113D01*
X146810171Y-115498932D01*
X146840879Y-115496605D01*
X146883143Y-115494999D01*
X146939471Y-115493980D01*
X147012375Y-115493416D01*
X147104363Y-115493174D01*
X147217946Y-115493121D01*
X147224559Y-115493121D01*
X147662929Y-115493121D01*
X147769101Y-115531108D01*
G37*
G36*
X145398454Y-110258006D02*
G01*
X146008779Y-110258006D01*
X146014838Y-110264065D01*
X146020897Y-110258006D01*
X146014838Y-110251947D01*
X146008779Y-110258006D01*
X145398454Y-110258006D01*
X145389167Y-110209536D01*
X145362037Y-110068328D01*
X145332320Y-109914011D01*
X145300274Y-109747920D01*
X145266154Y-109571391D01*
X145230216Y-109385758D01*
X145192717Y-109192357D01*
X145158159Y-109014374D01*
X145104315Y-108736702D01*
X145055290Y-108482719D01*
X145011072Y-108252364D01*
X144971648Y-108045576D01*
X144937009Y-107862293D01*
X144907142Y-107702455D01*
X144882036Y-107565999D01*
X144861679Y-107452865D01*
X144846061Y-107362991D01*
X144835169Y-107296316D01*
X144828994Y-107252779D01*
X144827440Y-107234485D01*
X144837139Y-107148940D01*
X144866970Y-107076627D01*
X144917342Y-107016696D01*
X144940915Y-106997745D01*
X145017875Y-106954823D01*
X145097413Y-106935948D01*
X145178670Y-106941175D01*
X145260789Y-106970560D01*
X145271954Y-106976413D01*
X145326138Y-107013436D01*
X145368853Y-107061320D01*
X145404327Y-107125423D01*
X145420437Y-107164614D01*
X145427567Y-107182667D01*
X145443295Y-107221927D01*
X145467113Y-107281141D01*
X145498513Y-107359055D01*
X145536988Y-107454415D01*
X145582030Y-107565967D01*
X145633132Y-107692458D01*
X145689784Y-107832633D01*
X145751481Y-107985239D01*
X145817714Y-108149022D01*
X145887975Y-108322729D01*
X145961757Y-108505104D01*
X146038552Y-108694896D01*
X146117853Y-108890849D01*
X146199151Y-109091711D01*
X146281939Y-109296226D01*
X146365710Y-109503142D01*
X146449955Y-109711205D01*
X146534168Y-109919161D01*
X146617839Y-110125756D01*
X146700463Y-110329736D01*
X146781530Y-110529848D01*
X146860533Y-110724837D01*
X146936965Y-110913450D01*
X147010318Y-111094433D01*
X147080084Y-111266533D01*
X147145755Y-111428495D01*
X147206824Y-111579066D01*
X147262783Y-111716991D01*
X147313125Y-111841018D01*
X147357341Y-111949892D01*
X147394925Y-112042360D01*
X147425367Y-112117167D01*
X147448162Y-112173060D01*
X147462800Y-112208786D01*
X147467944Y-112221174D01*
X147493334Y-112303947D01*
X147496526Y-112384033D01*
X147477752Y-112467932D01*
X147476799Y-112470732D01*
X147470889Y-112489668D01*
X147458808Y-112529845D01*
X147441151Y-112589230D01*
X147418510Y-112665791D01*
X147391481Y-112757495D01*
X147360656Y-112862310D01*
X147326630Y-112978203D01*
X147289997Y-113103141D01*
X147251349Y-113235092D01*
X147211282Y-113372023D01*
X147170388Y-113511902D01*
X147129263Y-113652696D01*
X147088498Y-113792373D01*
X147048689Y-113928899D01*
X147010430Y-114060243D01*
X146974313Y-114184371D01*
X146940933Y-114299252D01*
X146910883Y-114402852D01*
X146884758Y-114493139D01*
X146863152Y-114568080D01*
X146846657Y-114625643D01*
X146835869Y-114663796D01*
X146832465Y-114676208D01*
X146802836Y-114743004D01*
X146754641Y-114800241D01*
X146692533Y-114845309D01*
X146621167Y-114875596D01*
X146545195Y-114888493D01*
X146469271Y-114881390D01*
X146467470Y-114880948D01*
X146426614Y-114867666D01*
X146383247Y-114849247D01*
X146376582Y-114845928D01*
X146361782Y-114839428D01*
X146325448Y-114824019D01*
X146268442Y-114800058D01*
X146191624Y-114767902D01*
X146095857Y-114727911D01*
X145982001Y-114680441D01*
X145850918Y-114625850D01*
X145703469Y-114564497D01*
X145540515Y-114496738D01*
X145362917Y-114422932D01*
X145171537Y-114343436D01*
X144967236Y-114258609D01*
X144750875Y-114168807D01*
X144523315Y-114074390D01*
X144285418Y-113975714D01*
X144038045Y-113873137D01*
X143782057Y-113767017D01*
X143518316Y-113657713D01*
X143247682Y-113545581D01*
X142971017Y-113430979D01*
X142815601Y-113366615D01*
X142536004Y-113250828D01*
X142261973Y-113137341D01*
X141994368Y-113026510D01*
X141734048Y-112918693D01*
X141481876Y-112814246D01*
X141238711Y-112713524D01*
X141005414Y-112616886D01*
X140782845Y-112524687D01*
X140571865Y-112437283D01*
X140373334Y-112355032D01*
X140188113Y-112278290D01*
X140017063Y-112207413D01*
X139861043Y-112142758D01*
X139784893Y-112111198D01*
X141370419Y-112111198D01*
X141381044Y-112116088D01*
X141412748Y-112129691D01*
X141464213Y-112151459D01*
X141534121Y-112180847D01*
X141621152Y-112217306D01*
X141723989Y-112260291D01*
X141841313Y-112309253D01*
X141971805Y-112363648D01*
X142114147Y-112422927D01*
X142267020Y-112486544D01*
X142429106Y-112553952D01*
X142599085Y-112624604D01*
X142775640Y-112697954D01*
X142957452Y-112773454D01*
X143143202Y-112850559D01*
X143331571Y-112928720D01*
X143521242Y-113007391D01*
X143710896Y-113086026D01*
X143899213Y-113164077D01*
X144084876Y-113240998D01*
X144266566Y-113316242D01*
X144442964Y-113389262D01*
X144612751Y-113459512D01*
X144774610Y-113526443D01*
X144927222Y-113589511D01*
X145069267Y-113648167D01*
X145199428Y-113701865D01*
X145316386Y-113750058D01*
X145418822Y-113792200D01*
X145505418Y-113827743D01*
X145574855Y-113856141D01*
X145625815Y-113876847D01*
X145656978Y-113889314D01*
X145667043Y-113893033D01*
X145660729Y-113883008D01*
X145641318Y-113854859D01*
X145609900Y-113810113D01*
X145567561Y-113750300D01*
X145515392Y-113676947D01*
X145454480Y-113591581D01*
X145385915Y-113495730D01*
X145310785Y-113390923D01*
X145230178Y-113278686D01*
X145145184Y-113160549D01*
X145140840Y-113154516D01*
X145055323Y-113035946D01*
X144973741Y-112923178D01*
X144897220Y-112817750D01*
X144826888Y-112721200D01*
X144763873Y-112635065D01*
X144709303Y-112560882D01*
X144664306Y-112500189D01*
X144661607Y-112496596D01*
X145420300Y-112496596D01*
X145425764Y-112507458D01*
X145443999Y-112535803D01*
X145473531Y-112579503D01*
X145512885Y-112636433D01*
X145560588Y-112704465D01*
X145615165Y-112781473D01*
X145675144Y-112865331D01*
X145694794Y-112892649D01*
X145756374Y-112977926D01*
X145813473Y-113056573D01*
X145864566Y-113126522D01*
X145908128Y-113185702D01*
X145942633Y-113232046D01*
X145966555Y-113263482D01*
X145978369Y-113277943D01*
X145979341Y-113278649D01*
X145978056Y-113266273D01*
X145972614Y-113233020D01*
X145963542Y-113181790D01*
X145951371Y-113115486D01*
X145936627Y-113037010D01*
X145919840Y-112949263D01*
X145911679Y-112907113D01*
X145893848Y-112815997D01*
X145877318Y-112732778D01*
X145862690Y-112660375D01*
X145850562Y-112601707D01*
X145849269Y-112595689D01*
X146472447Y-112595689D01*
X146472893Y-112608731D01*
X146477481Y-112641722D01*
X146485517Y-112691025D01*
X146496309Y-112753005D01*
X146509164Y-112824028D01*
X146523388Y-112900458D01*
X146538288Y-112978659D01*
X146553172Y-113054997D01*
X146567347Y-113125835D01*
X146580118Y-113187540D01*
X146590793Y-113236474D01*
X146598680Y-113269004D01*
X146603084Y-113281494D01*
X146603207Y-113281527D01*
X146608400Y-113270369D01*
X146619303Y-113238880D01*
X146634981Y-113190036D01*
X146654502Y-113126816D01*
X146676932Y-113052196D01*
X146701337Y-112969154D01*
X146703579Y-112961438D01*
X146727923Y-112877155D01*
X146749883Y-112800361D01*
X146768588Y-112734166D01*
X146783165Y-112681682D01*
X146792744Y-112646018D01*
X146796452Y-112630283D01*
X146796469Y-112630005D01*
X146785278Y-112625258D01*
X146755297Y-112619433D01*
X146711917Y-112613100D01*
X146660531Y-112606830D01*
X146606528Y-112601194D01*
X146555301Y-112596763D01*
X146512239Y-112594107D01*
X146482735Y-112593799D01*
X146472447Y-112595689D01*
X145849269Y-112595689D01*
X145841534Y-112559694D01*
X145836203Y-112537253D01*
X145835172Y-112534320D01*
X145821490Y-112531042D01*
X145788662Y-112526481D01*
X145741549Y-112521078D01*
X145685015Y-112515275D01*
X145623921Y-112509516D01*
X145563129Y-112504241D01*
X145507500Y-112499893D01*
X145461898Y-112496915D01*
X145431182Y-112495747D01*
X145420300Y-112496596D01*
X144661607Y-112496596D01*
X144630008Y-112454523D01*
X144607539Y-112425422D01*
X144598025Y-112414424D01*
X144597937Y-112414384D01*
X144584332Y-112412669D01*
X144548410Y-112408890D01*
X144491877Y-112403206D01*
X144416438Y-112395779D01*
X144323802Y-112386768D01*
X144215673Y-112376335D01*
X144093759Y-112364638D01*
X143959765Y-112351838D01*
X143815398Y-112338097D01*
X143662366Y-112323573D01*
X143502373Y-112308428D01*
X143337126Y-112292821D01*
X143168332Y-112276913D01*
X142997697Y-112260864D01*
X142826927Y-112244835D01*
X142657729Y-112228986D01*
X142491810Y-112213476D01*
X142330875Y-112198467D01*
X142176631Y-112184119D01*
X142030784Y-112170592D01*
X141895042Y-112158045D01*
X141771109Y-112146641D01*
X141660693Y-112136538D01*
X141565499Y-112127897D01*
X141487235Y-112120879D01*
X141427607Y-112115644D01*
X141388320Y-112112351D01*
X141371082Y-112111162D01*
X141370419Y-112111198D01*
X139784893Y-112111198D01*
X139720914Y-112084682D01*
X139597537Y-112033540D01*
X139491773Y-111989690D01*
X139404481Y-111953488D01*
X139336522Y-111925290D01*
X139288757Y-111905453D01*
X139262046Y-111894334D01*
X139256620Y-111892055D01*
X139188230Y-111850198D01*
X139135366Y-111792323D01*
X139099773Y-111722350D01*
X139083197Y-111644199D01*
X139087384Y-111561788D01*
X139095050Y-111529241D01*
X139105885Y-111496316D01*
X139119281Y-111468713D01*
X139139020Y-111441307D01*
X139168883Y-111408974D01*
X139201531Y-111377360D01*
X140101665Y-111377360D01*
X140101668Y-111377502D01*
X140114249Y-111379344D01*
X140149701Y-111383338D01*
X140206763Y-111389358D01*
X140284177Y-111397283D01*
X140380683Y-111406988D01*
X140495022Y-111418351D01*
X140625934Y-111431248D01*
X140772159Y-111445556D01*
X140932439Y-111461152D01*
X141105514Y-111477912D01*
X141290124Y-111495714D01*
X141485010Y-111514434D01*
X141688913Y-111533949D01*
X141900573Y-111554135D01*
X142110258Y-111574065D01*
X142328246Y-111594753D01*
X142539726Y-111614828D01*
X142743436Y-111634170D01*
X142938112Y-111652658D01*
X143122494Y-111670174D01*
X143295318Y-111686596D01*
X143455323Y-111701804D01*
X143601246Y-111715680D01*
X143731825Y-111728102D01*
X143845797Y-111738951D01*
X143941901Y-111748106D01*
X144018874Y-111755448D01*
X144075454Y-111760857D01*
X144110379Y-111764212D01*
X144122360Y-111765390D01*
X144129167Y-111758357D01*
X144128419Y-111754792D01*
X144120953Y-111743614D01*
X144100185Y-111713994D01*
X144066989Y-111667152D01*
X144022237Y-111604305D01*
X143966803Y-111526673D01*
X143901557Y-111435473D01*
X143827375Y-111331924D01*
X143745127Y-111217245D01*
X143655688Y-111092653D01*
X143559929Y-110959369D01*
X143458725Y-110818609D01*
X143352946Y-110671593D01*
X143276097Y-110564849D01*
X143166905Y-110413211D01*
X143061173Y-110266372D01*
X143029631Y-110222564D01*
X143781037Y-110222564D01*
X143783041Y-110229014D01*
X143797572Y-110252409D01*
X143822856Y-110290127D01*
X143857116Y-110339547D01*
X143898578Y-110398046D01*
X143921078Y-110429359D01*
X143957784Y-110480269D01*
X144006722Y-110548213D01*
X144065982Y-110630538D01*
X144133657Y-110724593D01*
X144207839Y-110827725D01*
X144286621Y-110937282D01*
X144368095Y-111050612D01*
X144450353Y-111165064D01*
X144499550Y-111233531D01*
X144575630Y-111339392D01*
X144647558Y-111439421D01*
X144714080Y-111531878D01*
X144773943Y-111615022D01*
X144825892Y-111687115D01*
X144868674Y-111746416D01*
X144901035Y-111791184D01*
X144921721Y-111819681D01*
X144929437Y-111830119D01*
X144942444Y-111832999D01*
X144976042Y-111837817D01*
X145026696Y-111844196D01*
X145090870Y-111851760D01*
X145165029Y-111860132D01*
X145245639Y-111868935D01*
X145329164Y-111877792D01*
X145412069Y-111886326D01*
X145490819Y-111894160D01*
X145561879Y-111900917D01*
X145621713Y-111906221D01*
X145666787Y-111909694D01*
X145685927Y-111910769D01*
X145710040Y-111909141D01*
X145716268Y-111897788D01*
X145714114Y-111884891D01*
X145709113Y-111860978D01*
X145701268Y-111820397D01*
X145691956Y-111770343D01*
X145687999Y-111748560D01*
X145678584Y-111697743D01*
X145670102Y-111654462D01*
X145663886Y-111625417D01*
X145662219Y-111618898D01*
X145652139Y-111609932D01*
X145624162Y-111587816D01*
X145579919Y-111553757D01*
X145521038Y-111508966D01*
X145449149Y-111454650D01*
X145365880Y-111392021D01*
X145272860Y-111322285D01*
X145171718Y-111246653D01*
X145064083Y-111166333D01*
X144951583Y-111082535D01*
X144835849Y-110996468D01*
X144718508Y-110909341D01*
X144601189Y-110822362D01*
X144485522Y-110736742D01*
X144373136Y-110653688D01*
X144265658Y-110574411D01*
X144164719Y-110500118D01*
X144071947Y-110432021D01*
X143988971Y-110371326D01*
X143917420Y-110319244D01*
X143858923Y-110276984D01*
X143815109Y-110245754D01*
X143787606Y-110226764D01*
X143781037Y-110222564D01*
X143029631Y-110222564D01*
X142959820Y-110125607D01*
X142863765Y-109992193D01*
X142773926Y-109867405D01*
X142691222Y-109752519D01*
X142616570Y-109648811D01*
X142550890Y-109557558D01*
X142495099Y-109480034D01*
X142450117Y-109417517D01*
X142416862Y-109371281D01*
X142396252Y-109342604D01*
X142390055Y-109333960D01*
X142352295Y-109281069D01*
X141223689Y-110325993D01*
X141083631Y-110455763D01*
X140948680Y-110580994D01*
X140819886Y-110700700D01*
X140698299Y-110813899D01*
X140584969Y-110919604D01*
X140480948Y-111016831D01*
X140387285Y-111104597D01*
X140305031Y-111181916D01*
X140235237Y-111247805D01*
X140178953Y-111301278D01*
X140137229Y-111341351D01*
X140111116Y-111367040D01*
X140101665Y-111377360D01*
X139201531Y-111377360D01*
X139212652Y-111366591D01*
X139220658Y-111359043D01*
X139241651Y-111339432D01*
X139279361Y-111304366D01*
X139332712Y-111254842D01*
X139400624Y-111191860D01*
X139482020Y-111116417D01*
X139575822Y-111029511D01*
X139680952Y-110932141D01*
X139796331Y-110825305D01*
X139920883Y-110710001D01*
X140053529Y-110587228D01*
X140193190Y-110457983D01*
X140338790Y-110323266D01*
X140489250Y-110184073D01*
X140643492Y-110041405D01*
X140658540Y-110027487D01*
X140813198Y-109884415D01*
X140964232Y-109744635D01*
X141110559Y-109609152D01*
X141251095Y-109478971D01*
X141384758Y-109355097D01*
X141510465Y-109238535D01*
X141627132Y-109130292D01*
X141733677Y-109031370D01*
X141829017Y-108942777D01*
X141912068Y-108865517D01*
X141981748Y-108800596D01*
X142036973Y-108749018D01*
X142076661Y-108711788D01*
X142099728Y-108689913D01*
X142100943Y-108688740D01*
X142165782Y-108628425D01*
X142219828Y-108584662D01*
X142267437Y-108555086D01*
X142312965Y-108537331D01*
X142360768Y-108529032D01*
X142397685Y-108527581D01*
X142429955Y-108528168D01*
X142458220Y-108531024D01*
X142485579Y-108537794D01*
X142515134Y-108550121D01*
X142549982Y-108569650D01*
X142593223Y-108598024D01*
X142647959Y-108636887D01*
X142717287Y-108687884D01*
X142760474Y-108719997D01*
X142822746Y-108766267D01*
X142899057Y-108822790D01*
X142988077Y-108888589D01*
X143088477Y-108962690D01*
X143198927Y-109044116D01*
X143318096Y-109131893D01*
X143444655Y-109225044D01*
X143577274Y-109322594D01*
X143714623Y-109423567D01*
X143855371Y-109526988D01*
X143998190Y-109631881D01*
X144141749Y-109737270D01*
X144284719Y-109842180D01*
X144425768Y-109945635D01*
X144563569Y-110046660D01*
X144696789Y-110144278D01*
X144824100Y-110237515D01*
X144944172Y-110325395D01*
X145055674Y-110406941D01*
X145157278Y-110481179D01*
X145247652Y-110547133D01*
X145325467Y-110603827D01*
X145389393Y-110650285D01*
X145438100Y-110685532D01*
X145470259Y-110708593D01*
X145484538Y-110718491D01*
X145485155Y-110718802D01*
X145483299Y-110706737D01*
X145477064Y-110672218D01*
X145466706Y-110616580D01*
X145452481Y-110541157D01*
X145434645Y-110447286D01*
X145413455Y-110336300D01*
X145402952Y-110281480D01*
X146023680Y-110281480D01*
X146024815Y-110294058D01*
X146030131Y-110327892D01*
X146039169Y-110380445D01*
X146051475Y-110449186D01*
X146066592Y-110531578D01*
X146084063Y-110625087D01*
X146103433Y-110727181D01*
X146111460Y-110769073D01*
X146134593Y-110889171D01*
X146153781Y-110987723D01*
X146169585Y-111066998D01*
X146182564Y-111129262D01*
X146193281Y-111176785D01*
X146202294Y-111211835D01*
X146210166Y-111236679D01*
X146217455Y-111253586D01*
X146224724Y-111264824D01*
X146232531Y-111272661D01*
X146236721Y-111275945D01*
X146259385Y-111292859D01*
X146296128Y-111320307D01*
X146341619Y-111354305D01*
X146384407Y-111386294D01*
X146429519Y-111419424D01*
X146467175Y-111445943D01*
X146493434Y-111463153D01*
X146504350Y-111468362D01*
X146500853Y-111456695D01*
X146489042Y-111424663D01*
X146469738Y-111374352D01*
X146443761Y-111307846D01*
X146411933Y-111227230D01*
X146375074Y-111134588D01*
X146334006Y-111032005D01*
X146289550Y-110921567D01*
X146268883Y-110870420D01*
X146223040Y-110757410D01*
X146179880Y-110651623D01*
X146140256Y-110555108D01*
X146105022Y-110469914D01*
X146075028Y-110398088D01*
X146051130Y-110341680D01*
X146034179Y-110302737D01*
X146025028Y-110283308D01*
X146023680Y-110281480D01*
X145402952Y-110281480D01*
X145398454Y-110258006D01*
G37*
%TD*%
D10*
%TO.C,TP4*%
X146719999Y-95169999D03*
%TD*%
D11*
%TO.C,J1*%
X142529999Y-84374999D03*
D12*
X141529999Y-83399999D03*
D13*
X142529999Y-82374999D03*
D12*
X143529999Y-83399999D03*
%TD*%
D14*
%TO.C,R7*%
X141705000Y-86210000D03*
X141705000Y-86850000D03*
%TD*%
D15*
%TO.C,J5*%
X119830000Y-98440000D03*
D16*
X119830000Y-95900000D03*
D15*
X119830000Y-93360000D03*
X116655000Y-98440000D03*
X116655000Y-93360000D03*
D16*
X114750000Y-96916000D03*
X114750000Y-94884000D03*
D17*
X118560000Y-95265000D03*
X118560000Y-96535000D03*
X117290000Y-95265000D03*
X117290000Y-96535000D03*
X116020000Y-95265000D03*
X116020000Y-96535000D03*
%TD*%
D18*
%TO.C,TP2*%
X146574999Y-83299999D03*
%TD*%
D14*
%TO.C,C13*%
X143105000Y-86210000D03*
X143105000Y-86850000D03*
%TD*%
D19*
%TO.C,J6*%
X138735000Y-84190000D03*
X138735000Y-82370000D03*
X139085000Y-84190000D03*
X139085000Y-82370000D03*
X139435000Y-84190000D03*
X139435000Y-82370000D03*
D20*
X138360000Y-84045000D03*
X138360000Y-82515000D03*
X139810000Y-84045000D03*
X139810000Y-82515000D03*
%TD*%
D21*
%TO.C,U7*%
X138324999Y-87824999D03*
D22*
X138187499Y-88737499D03*
X138187499Y-89237499D03*
X138187499Y-89737499D03*
X138187499Y-90237499D03*
D21*
X138324999Y-91149999D03*
X138824999Y-91149999D03*
X139324999Y-91149999D03*
X139824999Y-91149999D03*
X140324999Y-91149999D03*
X140824999Y-91149999D03*
X141324999Y-91149999D03*
X141824999Y-91149999D03*
X142324999Y-91149999D03*
X142824999Y-91149999D03*
D22*
X142962499Y-90237499D03*
X142962499Y-89737499D03*
X142962499Y-89237499D03*
X142962499Y-88737499D03*
D21*
X142824999Y-87824999D03*
X142324999Y-87824999D03*
X141824999Y-87824999D03*
X141324999Y-87824999D03*
X140824999Y-87824999D03*
X140324999Y-87824999D03*
X139824999Y-87824999D03*
X139324999Y-87824999D03*
X138824999Y-87824999D03*
%TD*%
D23*
%TO.C,C15*%
X141795000Y-85360000D03*
X142755000Y-85360000D03*
%TD*%
D18*
%TO.C,TP1*%
X144954999Y-83299999D03*
%TD*%
D24*
%TO.C,U4*%
X145123999Y-89796999D03*
X145523999Y-89796999D03*
X145923999Y-89796999D03*
D25*
X146448999Y-89671999D03*
X146448999Y-89271999D03*
X146448999Y-88871999D03*
D24*
X145923999Y-88746999D03*
X145523999Y-88746999D03*
X145123999Y-88746999D03*
D25*
X144598999Y-88871999D03*
X144598999Y-89271999D03*
X144598999Y-89671999D03*
%TD*%
D26*
%TO.C,R3*%
X138820000Y-84850000D03*
X138180000Y-84850000D03*
%TD*%
D14*
%TO.C,C17*%
X143914000Y-86751000D03*
X143914000Y-87391000D03*
%TD*%
%TO.C,C14*%
X142405000Y-86210000D03*
X142405000Y-86850000D03*
%TD*%
D27*
%TO.C,C22*%
X143914000Y-89465000D03*
X143914000Y-88825000D03*
%TD*%
%TO.C,C9*%
X144695000Y-90560000D03*
X144695000Y-91200000D03*
%TD*%
D28*
%TO.C,C7*%
X145803000Y-90636000D03*
X146443000Y-90636000D03*
%TD*%
D26*
%TO.C,C2*%
X140345000Y-84850000D03*
X139705000Y-84850000D03*
%TD*%
D29*
%TO.C,U1*%
X138975000Y-85725000D03*
X138975000Y-86225000D03*
X138975000Y-86725000D03*
X140275000Y-86725000D03*
X140275000Y-86225000D03*
X140275000Y-85725000D03*
D30*
X139624999Y-86224999D03*
%TD*%
D27*
%TO.C,L4*%
X146335000Y-87248000D03*
X146335000Y-86608000D03*
%TD*%
D31*
%TO.C,J2*%
X144824999Y-95669999D03*
D32*
X144524999Y-92794999D03*
D31*
X144224999Y-95669999D03*
D32*
X143924999Y-92794999D03*
D31*
X143624999Y-95669999D03*
D32*
X143324999Y-92794999D03*
D31*
X143024999Y-95669999D03*
D32*
X142724999Y-92794999D03*
D31*
X142424999Y-95669999D03*
D32*
X142124999Y-92794999D03*
D31*
X141824999Y-95669999D03*
D32*
X141524999Y-92794999D03*
D31*
X141224999Y-95669999D03*
D32*
X140924999Y-92794999D03*
D31*
X140624999Y-95669999D03*
D32*
X140324999Y-92794999D03*
D31*
X140024999Y-95669999D03*
D33*
X139324999Y-95394999D03*
X145524999Y-95394999D03*
%TD*%
D27*
%TO.C,C19*%
X144511000Y-85990000D03*
X144511000Y-85350000D03*
%TD*%
D28*
%TO.C,C6*%
X145803000Y-91336000D03*
X146443000Y-91336000D03*
%TD*%
D14*
%TO.C,R11*%
X138556000Y-92203000D03*
X138556000Y-92843000D03*
%TD*%
%TO.C,C16*%
X144676000Y-86754000D03*
X144676000Y-87394000D03*
%TD*%
D34*
%TO.C,C3*%
X138100000Y-85795000D03*
X138100000Y-86755000D03*
%TD*%
D14*
%TO.C,C1*%
X140995000Y-85970000D03*
X140995000Y-86610000D03*
%TD*%
D10*
%TO.C,TP3*%
X138139999Y-95169999D03*
%TD*%
D27*
%TO.C,C8*%
X143965000Y-90560000D03*
X143965000Y-91200000D03*
%TD*%
D34*
%TO.C,C18*%
X145500000Y-86525000D03*
X145500000Y-87485000D03*
%TD*%
D14*
%TO.C,R8*%
X143808000Y-85347000D03*
X143808000Y-85987000D03*
%TD*%
D35*
%TO.C,J4*%
X123080000Y-76447500D03*
D36*
X123080000Y-78987500D03*
X120540000Y-76447500D03*
X120540000Y-78987500D03*
X118000000Y-76447500D03*
X118000000Y-78987500D03*
X115460000Y-76447500D03*
X115460000Y-78987500D03*
X112920000Y-76447500D03*
X112920000Y-78987500D03*
%TD*%
D26*
%TO.C,R2*%
X145887000Y-85750000D03*
X145247000Y-85750000D03*
%TD*%
D14*
%TO.C,R9*%
X146410000Y-92320000D03*
X146410000Y-92960000D03*
%TD*%
D27*
%TO.C,R5*%
X146664000Y-85787000D03*
X146664000Y-85147000D03*
%TD*%
D26*
%TO.C,R1*%
X145897000Y-85050000D03*
X145257000Y-85050000D03*
%TD*%
M02*
