%TF.GenerationSoftware,KiCad,Pcbnew,(7.0.0)*%
%TF.CreationDate,2023-11-09T16:41:47-05:00*%
%TF.ProjectId,headstage-neuropix2e,68656164-7374-4616-9765-2d6e6575726f,B*%
%TF.SameCoordinates,Original*%
%TF.FileFunction,AssemblyDrawing,Bot*%
%FSLAX46Y46*%
G04 Gerber Fmt 4.6, Leading zero omitted, Abs format (unit mm)*
G04 Created by KiCad (PCBNEW (7.0.0)) date 2023-11-09 16:41:47*
%MOMM*%
%LPD*%
G01*
G04 APERTURE LIST*
%ADD10C,0.040000*%
%ADD11C,0.100000*%
G04 APERTURE END LIST*
D10*
%TO.C,L2*%
X142429166Y-82991845D02*
X142548214Y-82991845D01*
X142548214Y-82991845D02*
X142548214Y-82741845D01*
X142357737Y-82765654D02*
X142345833Y-82753750D01*
X142345833Y-82753750D02*
X142322023Y-82741845D01*
X142322023Y-82741845D02*
X142262499Y-82741845D01*
X142262499Y-82741845D02*
X142238690Y-82753750D01*
X142238690Y-82753750D02*
X142226785Y-82765654D01*
X142226785Y-82765654D02*
X142214880Y-82789464D01*
X142214880Y-82789464D02*
X142214880Y-82813273D01*
X142214880Y-82813273D02*
X142226785Y-82848988D01*
X142226785Y-82848988D02*
X142369642Y-82991845D01*
X142369642Y-82991845D02*
X142214880Y-82991845D01*
%TO.C,U6*%
X145215476Y-85141845D02*
X145215476Y-85344226D01*
X145215476Y-85344226D02*
X145203571Y-85368035D01*
X145203571Y-85368035D02*
X145191666Y-85379940D01*
X145191666Y-85379940D02*
X145167857Y-85391845D01*
X145167857Y-85391845D02*
X145120238Y-85391845D01*
X145120238Y-85391845D02*
X145096428Y-85379940D01*
X145096428Y-85379940D02*
X145084523Y-85368035D01*
X145084523Y-85368035D02*
X145072619Y-85344226D01*
X145072619Y-85344226D02*
X145072619Y-85141845D01*
X144846428Y-85141845D02*
X144894047Y-85141845D01*
X144894047Y-85141845D02*
X144917856Y-85153750D01*
X144917856Y-85153750D02*
X144929761Y-85165654D01*
X144929761Y-85165654D02*
X144953571Y-85201369D01*
X144953571Y-85201369D02*
X144965475Y-85248988D01*
X144965475Y-85248988D02*
X144965475Y-85344226D01*
X144965475Y-85344226D02*
X144953571Y-85368035D01*
X144953571Y-85368035D02*
X144941666Y-85379940D01*
X144941666Y-85379940D02*
X144917856Y-85391845D01*
X144917856Y-85391845D02*
X144870237Y-85391845D01*
X144870237Y-85391845D02*
X144846428Y-85379940D01*
X144846428Y-85379940D02*
X144834523Y-85368035D01*
X144834523Y-85368035D02*
X144822618Y-85344226D01*
X144822618Y-85344226D02*
X144822618Y-85284702D01*
X144822618Y-85284702D02*
X144834523Y-85260892D01*
X144834523Y-85260892D02*
X144846428Y-85248988D01*
X144846428Y-85248988D02*
X144870237Y-85237083D01*
X144870237Y-85237083D02*
X144917856Y-85237083D01*
X144917856Y-85237083D02*
X144941666Y-85248988D01*
X144941666Y-85248988D02*
X144953571Y-85260892D01*
X144953571Y-85260892D02*
X144965475Y-85284702D01*
%TO.C,C25*%
X146600714Y-84918035D02*
X146612618Y-84929940D01*
X146612618Y-84929940D02*
X146648333Y-84941845D01*
X146648333Y-84941845D02*
X146672142Y-84941845D01*
X146672142Y-84941845D02*
X146707856Y-84929940D01*
X146707856Y-84929940D02*
X146731666Y-84906130D01*
X146731666Y-84906130D02*
X146743571Y-84882321D01*
X146743571Y-84882321D02*
X146755475Y-84834702D01*
X146755475Y-84834702D02*
X146755475Y-84798988D01*
X146755475Y-84798988D02*
X146743571Y-84751369D01*
X146743571Y-84751369D02*
X146731666Y-84727559D01*
X146731666Y-84727559D02*
X146707856Y-84703750D01*
X146707856Y-84703750D02*
X146672142Y-84691845D01*
X146672142Y-84691845D02*
X146648333Y-84691845D01*
X146648333Y-84691845D02*
X146612618Y-84703750D01*
X146612618Y-84703750D02*
X146600714Y-84715654D01*
X146505475Y-84715654D02*
X146493571Y-84703750D01*
X146493571Y-84703750D02*
X146469761Y-84691845D01*
X146469761Y-84691845D02*
X146410237Y-84691845D01*
X146410237Y-84691845D02*
X146386428Y-84703750D01*
X146386428Y-84703750D02*
X146374523Y-84715654D01*
X146374523Y-84715654D02*
X146362618Y-84739464D01*
X146362618Y-84739464D02*
X146362618Y-84763273D01*
X146362618Y-84763273D02*
X146374523Y-84798988D01*
X146374523Y-84798988D02*
X146517380Y-84941845D01*
X146517380Y-84941845D02*
X146362618Y-84941845D01*
X146136428Y-84691845D02*
X146255476Y-84691845D01*
X146255476Y-84691845D02*
X146267380Y-84810892D01*
X146267380Y-84810892D02*
X146255476Y-84798988D01*
X146255476Y-84798988D02*
X146231666Y-84787083D01*
X146231666Y-84787083D02*
X146172142Y-84787083D01*
X146172142Y-84787083D02*
X146148333Y-84798988D01*
X146148333Y-84798988D02*
X146136428Y-84810892D01*
X146136428Y-84810892D02*
X146124523Y-84834702D01*
X146124523Y-84834702D02*
X146124523Y-84894226D01*
X146124523Y-84894226D02*
X146136428Y-84918035D01*
X146136428Y-84918035D02*
X146148333Y-84929940D01*
X146148333Y-84929940D02*
X146172142Y-84941845D01*
X146172142Y-84941845D02*
X146231666Y-84941845D01*
X146231666Y-84941845D02*
X146255476Y-84929940D01*
X146255476Y-84929940D02*
X146267380Y-84918035D01*
%TO.C,R10*%
X146582714Y-92210845D02*
X146666047Y-92091797D01*
X146725571Y-92210845D02*
X146725571Y-91960845D01*
X146725571Y-91960845D02*
X146630333Y-91960845D01*
X146630333Y-91960845D02*
X146606523Y-91972750D01*
X146606523Y-91972750D02*
X146594618Y-91984654D01*
X146594618Y-91984654D02*
X146582714Y-92008464D01*
X146582714Y-92008464D02*
X146582714Y-92044178D01*
X146582714Y-92044178D02*
X146594618Y-92067988D01*
X146594618Y-92067988D02*
X146606523Y-92079892D01*
X146606523Y-92079892D02*
X146630333Y-92091797D01*
X146630333Y-92091797D02*
X146725571Y-92091797D01*
X146344618Y-92210845D02*
X146487475Y-92210845D01*
X146416047Y-92210845D02*
X146416047Y-91960845D01*
X146416047Y-91960845D02*
X146439856Y-91996559D01*
X146439856Y-91996559D02*
X146463666Y-92020369D01*
X146463666Y-92020369D02*
X146487475Y-92032273D01*
X146189857Y-91960845D02*
X146166047Y-91960845D01*
X146166047Y-91960845D02*
X146142238Y-91972750D01*
X146142238Y-91972750D02*
X146130333Y-91984654D01*
X146130333Y-91984654D02*
X146118428Y-92008464D01*
X146118428Y-92008464D02*
X146106523Y-92056083D01*
X146106523Y-92056083D02*
X146106523Y-92115607D01*
X146106523Y-92115607D02*
X146118428Y-92163226D01*
X146118428Y-92163226D02*
X146130333Y-92187035D01*
X146130333Y-92187035D02*
X146142238Y-92198940D01*
X146142238Y-92198940D02*
X146166047Y-92210845D01*
X146166047Y-92210845D02*
X146189857Y-92210845D01*
X146189857Y-92210845D02*
X146213666Y-92198940D01*
X146213666Y-92198940D02*
X146225571Y-92187035D01*
X146225571Y-92187035D02*
X146237476Y-92163226D01*
X146237476Y-92163226D02*
X146249380Y-92115607D01*
X146249380Y-92115607D02*
X146249380Y-92056083D01*
X146249380Y-92056083D02*
X146237476Y-92008464D01*
X146237476Y-92008464D02*
X146225571Y-91984654D01*
X146225571Y-91984654D02*
X146213666Y-91972750D01*
X146213666Y-91972750D02*
X146189857Y-91960845D01*
%TO.C,U2*%
X139240476Y-91031845D02*
X139240476Y-91234226D01*
X139240476Y-91234226D02*
X139228571Y-91258035D01*
X139228571Y-91258035D02*
X139216666Y-91269940D01*
X139216666Y-91269940D02*
X139192857Y-91281845D01*
X139192857Y-91281845D02*
X139145238Y-91281845D01*
X139145238Y-91281845D02*
X139121428Y-91269940D01*
X139121428Y-91269940D02*
X139109523Y-91258035D01*
X139109523Y-91258035D02*
X139097619Y-91234226D01*
X139097619Y-91234226D02*
X139097619Y-91031845D01*
X138990475Y-91055654D02*
X138978571Y-91043750D01*
X138978571Y-91043750D02*
X138954761Y-91031845D01*
X138954761Y-91031845D02*
X138895237Y-91031845D01*
X138895237Y-91031845D02*
X138871428Y-91043750D01*
X138871428Y-91043750D02*
X138859523Y-91055654D01*
X138859523Y-91055654D02*
X138847618Y-91079464D01*
X138847618Y-91079464D02*
X138847618Y-91103273D01*
X138847618Y-91103273D02*
X138859523Y-91138988D01*
X138859523Y-91138988D02*
X139002380Y-91281845D01*
X139002380Y-91281845D02*
X138847618Y-91281845D01*
%TO.C,R6*%
X138386666Y-86841845D02*
X138469999Y-86722797D01*
X138529523Y-86841845D02*
X138529523Y-86591845D01*
X138529523Y-86591845D02*
X138434285Y-86591845D01*
X138434285Y-86591845D02*
X138410475Y-86603750D01*
X138410475Y-86603750D02*
X138398570Y-86615654D01*
X138398570Y-86615654D02*
X138386666Y-86639464D01*
X138386666Y-86639464D02*
X138386666Y-86675178D01*
X138386666Y-86675178D02*
X138398570Y-86698988D01*
X138398570Y-86698988D02*
X138410475Y-86710892D01*
X138410475Y-86710892D02*
X138434285Y-86722797D01*
X138434285Y-86722797D02*
X138529523Y-86722797D01*
X138172380Y-86591845D02*
X138219999Y-86591845D01*
X138219999Y-86591845D02*
X138243808Y-86603750D01*
X138243808Y-86603750D02*
X138255713Y-86615654D01*
X138255713Y-86615654D02*
X138279523Y-86651369D01*
X138279523Y-86651369D02*
X138291427Y-86698988D01*
X138291427Y-86698988D02*
X138291427Y-86794226D01*
X138291427Y-86794226D02*
X138279523Y-86818035D01*
X138279523Y-86818035D02*
X138267618Y-86829940D01*
X138267618Y-86829940D02*
X138243808Y-86841845D01*
X138243808Y-86841845D02*
X138196189Y-86841845D01*
X138196189Y-86841845D02*
X138172380Y-86829940D01*
X138172380Y-86829940D02*
X138160475Y-86818035D01*
X138160475Y-86818035D02*
X138148570Y-86794226D01*
X138148570Y-86794226D02*
X138148570Y-86734702D01*
X138148570Y-86734702D02*
X138160475Y-86710892D01*
X138160475Y-86710892D02*
X138172380Y-86698988D01*
X138172380Y-86698988D02*
X138196189Y-86687083D01*
X138196189Y-86687083D02*
X138243808Y-86687083D01*
X138243808Y-86687083D02*
X138267618Y-86698988D01*
X138267618Y-86698988D02*
X138279523Y-86710892D01*
X138279523Y-86710892D02*
X138291427Y-86734702D01*
%TO.C,C28*%
X141105714Y-91168035D02*
X141117618Y-91179940D01*
X141117618Y-91179940D02*
X141153333Y-91191845D01*
X141153333Y-91191845D02*
X141177142Y-91191845D01*
X141177142Y-91191845D02*
X141212856Y-91179940D01*
X141212856Y-91179940D02*
X141236666Y-91156130D01*
X141236666Y-91156130D02*
X141248571Y-91132321D01*
X141248571Y-91132321D02*
X141260475Y-91084702D01*
X141260475Y-91084702D02*
X141260475Y-91048988D01*
X141260475Y-91048988D02*
X141248571Y-91001369D01*
X141248571Y-91001369D02*
X141236666Y-90977559D01*
X141236666Y-90977559D02*
X141212856Y-90953750D01*
X141212856Y-90953750D02*
X141177142Y-90941845D01*
X141177142Y-90941845D02*
X141153333Y-90941845D01*
X141153333Y-90941845D02*
X141117618Y-90953750D01*
X141117618Y-90953750D02*
X141105714Y-90965654D01*
X141010475Y-90965654D02*
X140998571Y-90953750D01*
X140998571Y-90953750D02*
X140974761Y-90941845D01*
X140974761Y-90941845D02*
X140915237Y-90941845D01*
X140915237Y-90941845D02*
X140891428Y-90953750D01*
X140891428Y-90953750D02*
X140879523Y-90965654D01*
X140879523Y-90965654D02*
X140867618Y-90989464D01*
X140867618Y-90989464D02*
X140867618Y-91013273D01*
X140867618Y-91013273D02*
X140879523Y-91048988D01*
X140879523Y-91048988D02*
X141022380Y-91191845D01*
X141022380Y-91191845D02*
X140867618Y-91191845D01*
X140724761Y-91048988D02*
X140748571Y-91037083D01*
X140748571Y-91037083D02*
X140760476Y-91025178D01*
X140760476Y-91025178D02*
X140772380Y-91001369D01*
X140772380Y-91001369D02*
X140772380Y-90989464D01*
X140772380Y-90989464D02*
X140760476Y-90965654D01*
X140760476Y-90965654D02*
X140748571Y-90953750D01*
X140748571Y-90953750D02*
X140724761Y-90941845D01*
X140724761Y-90941845D02*
X140677142Y-90941845D01*
X140677142Y-90941845D02*
X140653333Y-90953750D01*
X140653333Y-90953750D02*
X140641428Y-90965654D01*
X140641428Y-90965654D02*
X140629523Y-90989464D01*
X140629523Y-90989464D02*
X140629523Y-91001369D01*
X140629523Y-91001369D02*
X140641428Y-91025178D01*
X140641428Y-91025178D02*
X140653333Y-91037083D01*
X140653333Y-91037083D02*
X140677142Y-91048988D01*
X140677142Y-91048988D02*
X140724761Y-91048988D01*
X140724761Y-91048988D02*
X140748571Y-91060892D01*
X140748571Y-91060892D02*
X140760476Y-91072797D01*
X140760476Y-91072797D02*
X140772380Y-91096607D01*
X140772380Y-91096607D02*
X140772380Y-91144226D01*
X140772380Y-91144226D02*
X140760476Y-91168035D01*
X140760476Y-91168035D02*
X140748571Y-91179940D01*
X140748571Y-91179940D02*
X140724761Y-91191845D01*
X140724761Y-91191845D02*
X140677142Y-91191845D01*
X140677142Y-91191845D02*
X140653333Y-91179940D01*
X140653333Y-91179940D02*
X140641428Y-91168035D01*
X140641428Y-91168035D02*
X140629523Y-91144226D01*
X140629523Y-91144226D02*
X140629523Y-91096607D01*
X140629523Y-91096607D02*
X140641428Y-91072797D01*
X140641428Y-91072797D02*
X140653333Y-91060892D01*
X140653333Y-91060892D02*
X140677142Y-91048988D01*
%TO.C,C12*%
X141883035Y-84779285D02*
X141894940Y-84767381D01*
X141894940Y-84767381D02*
X141906845Y-84731666D01*
X141906845Y-84731666D02*
X141906845Y-84707857D01*
X141906845Y-84707857D02*
X141894940Y-84672143D01*
X141894940Y-84672143D02*
X141871130Y-84648333D01*
X141871130Y-84648333D02*
X141847321Y-84636428D01*
X141847321Y-84636428D02*
X141799702Y-84624524D01*
X141799702Y-84624524D02*
X141763988Y-84624524D01*
X141763988Y-84624524D02*
X141716369Y-84636428D01*
X141716369Y-84636428D02*
X141692559Y-84648333D01*
X141692559Y-84648333D02*
X141668750Y-84672143D01*
X141668750Y-84672143D02*
X141656845Y-84707857D01*
X141656845Y-84707857D02*
X141656845Y-84731666D01*
X141656845Y-84731666D02*
X141668750Y-84767381D01*
X141668750Y-84767381D02*
X141680654Y-84779285D01*
X141906845Y-85017381D02*
X141906845Y-84874524D01*
X141906845Y-84945952D02*
X141656845Y-84945952D01*
X141656845Y-84945952D02*
X141692559Y-84922143D01*
X141692559Y-84922143D02*
X141716369Y-84898333D01*
X141716369Y-84898333D02*
X141728273Y-84874524D01*
X141680654Y-85112619D02*
X141668750Y-85124523D01*
X141668750Y-85124523D02*
X141656845Y-85148333D01*
X141656845Y-85148333D02*
X141656845Y-85207857D01*
X141656845Y-85207857D02*
X141668750Y-85231666D01*
X141668750Y-85231666D02*
X141680654Y-85243571D01*
X141680654Y-85243571D02*
X141704464Y-85255476D01*
X141704464Y-85255476D02*
X141728273Y-85255476D01*
X141728273Y-85255476D02*
X141763988Y-85243571D01*
X141763988Y-85243571D02*
X141906845Y-85100714D01*
X141906845Y-85100714D02*
X141906845Y-85255476D01*
%TO.C,C11*%
X143440714Y-84758035D02*
X143452618Y-84769940D01*
X143452618Y-84769940D02*
X143488333Y-84781845D01*
X143488333Y-84781845D02*
X143512142Y-84781845D01*
X143512142Y-84781845D02*
X143547856Y-84769940D01*
X143547856Y-84769940D02*
X143571666Y-84746130D01*
X143571666Y-84746130D02*
X143583571Y-84722321D01*
X143583571Y-84722321D02*
X143595475Y-84674702D01*
X143595475Y-84674702D02*
X143595475Y-84638988D01*
X143595475Y-84638988D02*
X143583571Y-84591369D01*
X143583571Y-84591369D02*
X143571666Y-84567559D01*
X143571666Y-84567559D02*
X143547856Y-84543750D01*
X143547856Y-84543750D02*
X143512142Y-84531845D01*
X143512142Y-84531845D02*
X143488333Y-84531845D01*
X143488333Y-84531845D02*
X143452618Y-84543750D01*
X143452618Y-84543750D02*
X143440714Y-84555654D01*
X143202618Y-84781845D02*
X143345475Y-84781845D01*
X143274047Y-84781845D02*
X143274047Y-84531845D01*
X143274047Y-84531845D02*
X143297856Y-84567559D01*
X143297856Y-84567559D02*
X143321666Y-84591369D01*
X143321666Y-84591369D02*
X143345475Y-84603273D01*
X142964523Y-84781845D02*
X143107380Y-84781845D01*
X143035952Y-84781845D02*
X143035952Y-84531845D01*
X143035952Y-84531845D02*
X143059761Y-84567559D01*
X143059761Y-84567559D02*
X143083571Y-84591369D01*
X143083571Y-84591369D02*
X143107380Y-84603273D01*
%TO.C,L3*%
X141070845Y-84162333D02*
X141070845Y-84043285D01*
X141070845Y-84043285D02*
X140820845Y-84043285D01*
X140820845Y-84221857D02*
X140820845Y-84376619D01*
X140820845Y-84376619D02*
X140916083Y-84293285D01*
X140916083Y-84293285D02*
X140916083Y-84329000D01*
X140916083Y-84329000D02*
X140927988Y-84352809D01*
X140927988Y-84352809D02*
X140939892Y-84364714D01*
X140939892Y-84364714D02*
X140963702Y-84376619D01*
X140963702Y-84376619D02*
X141023226Y-84376619D01*
X141023226Y-84376619D02*
X141047035Y-84364714D01*
X141047035Y-84364714D02*
X141058940Y-84352809D01*
X141058940Y-84352809D02*
X141070845Y-84329000D01*
X141070845Y-84329000D02*
X141070845Y-84257571D01*
X141070845Y-84257571D02*
X141058940Y-84233762D01*
X141058940Y-84233762D02*
X141047035Y-84221857D01*
%TO.C,C4*%
X138601666Y-91978035D02*
X138613570Y-91989940D01*
X138613570Y-91989940D02*
X138649285Y-92001845D01*
X138649285Y-92001845D02*
X138673094Y-92001845D01*
X138673094Y-92001845D02*
X138708808Y-91989940D01*
X138708808Y-91989940D02*
X138732618Y-91966130D01*
X138732618Y-91966130D02*
X138744523Y-91942321D01*
X138744523Y-91942321D02*
X138756427Y-91894702D01*
X138756427Y-91894702D02*
X138756427Y-91858988D01*
X138756427Y-91858988D02*
X138744523Y-91811369D01*
X138744523Y-91811369D02*
X138732618Y-91787559D01*
X138732618Y-91787559D02*
X138708808Y-91763750D01*
X138708808Y-91763750D02*
X138673094Y-91751845D01*
X138673094Y-91751845D02*
X138649285Y-91751845D01*
X138649285Y-91751845D02*
X138613570Y-91763750D01*
X138613570Y-91763750D02*
X138601666Y-91775654D01*
X138387380Y-91835178D02*
X138387380Y-92001845D01*
X138446904Y-91739940D02*
X138506427Y-91918511D01*
X138506427Y-91918511D02*
X138351666Y-91918511D01*
%TO.C,R13*%
X141129714Y-89772845D02*
X141213047Y-89653797D01*
X141272571Y-89772845D02*
X141272571Y-89522845D01*
X141272571Y-89522845D02*
X141177333Y-89522845D01*
X141177333Y-89522845D02*
X141153523Y-89534750D01*
X141153523Y-89534750D02*
X141141618Y-89546654D01*
X141141618Y-89546654D02*
X141129714Y-89570464D01*
X141129714Y-89570464D02*
X141129714Y-89606178D01*
X141129714Y-89606178D02*
X141141618Y-89629988D01*
X141141618Y-89629988D02*
X141153523Y-89641892D01*
X141153523Y-89641892D02*
X141177333Y-89653797D01*
X141177333Y-89653797D02*
X141272571Y-89653797D01*
X140891618Y-89772845D02*
X141034475Y-89772845D01*
X140963047Y-89772845D02*
X140963047Y-89522845D01*
X140963047Y-89522845D02*
X140986856Y-89558559D01*
X140986856Y-89558559D02*
X141010666Y-89582369D01*
X141010666Y-89582369D02*
X141034475Y-89594273D01*
X140808285Y-89522845D02*
X140653523Y-89522845D01*
X140653523Y-89522845D02*
X140736857Y-89618083D01*
X140736857Y-89618083D02*
X140701142Y-89618083D01*
X140701142Y-89618083D02*
X140677333Y-89629988D01*
X140677333Y-89629988D02*
X140665428Y-89641892D01*
X140665428Y-89641892D02*
X140653523Y-89665702D01*
X140653523Y-89665702D02*
X140653523Y-89725226D01*
X140653523Y-89725226D02*
X140665428Y-89749035D01*
X140665428Y-89749035D02*
X140677333Y-89760940D01*
X140677333Y-89760940D02*
X140701142Y-89772845D01*
X140701142Y-89772845D02*
X140772571Y-89772845D01*
X140772571Y-89772845D02*
X140796380Y-89760940D01*
X140796380Y-89760940D02*
X140808285Y-89749035D01*
%TO.C,C21*%
X140090714Y-86838035D02*
X140102618Y-86849940D01*
X140102618Y-86849940D02*
X140138333Y-86861845D01*
X140138333Y-86861845D02*
X140162142Y-86861845D01*
X140162142Y-86861845D02*
X140197856Y-86849940D01*
X140197856Y-86849940D02*
X140221666Y-86826130D01*
X140221666Y-86826130D02*
X140233571Y-86802321D01*
X140233571Y-86802321D02*
X140245475Y-86754702D01*
X140245475Y-86754702D02*
X140245475Y-86718988D01*
X140245475Y-86718988D02*
X140233571Y-86671369D01*
X140233571Y-86671369D02*
X140221666Y-86647559D01*
X140221666Y-86647559D02*
X140197856Y-86623750D01*
X140197856Y-86623750D02*
X140162142Y-86611845D01*
X140162142Y-86611845D02*
X140138333Y-86611845D01*
X140138333Y-86611845D02*
X140102618Y-86623750D01*
X140102618Y-86623750D02*
X140090714Y-86635654D01*
X139995475Y-86635654D02*
X139983571Y-86623750D01*
X139983571Y-86623750D02*
X139959761Y-86611845D01*
X139959761Y-86611845D02*
X139900237Y-86611845D01*
X139900237Y-86611845D02*
X139876428Y-86623750D01*
X139876428Y-86623750D02*
X139864523Y-86635654D01*
X139864523Y-86635654D02*
X139852618Y-86659464D01*
X139852618Y-86659464D02*
X139852618Y-86683273D01*
X139852618Y-86683273D02*
X139864523Y-86718988D01*
X139864523Y-86718988D02*
X140007380Y-86861845D01*
X140007380Y-86861845D02*
X139852618Y-86861845D01*
X139614523Y-86861845D02*
X139757380Y-86861845D01*
X139685952Y-86861845D02*
X139685952Y-86611845D01*
X139685952Y-86611845D02*
X139709761Y-86647559D01*
X139709761Y-86647559D02*
X139733571Y-86671369D01*
X139733571Y-86671369D02*
X139757380Y-86683273D01*
%TO.C,U5*%
X140050476Y-88271845D02*
X140050476Y-88474226D01*
X140050476Y-88474226D02*
X140038571Y-88498035D01*
X140038571Y-88498035D02*
X140026666Y-88509940D01*
X140026666Y-88509940D02*
X140002857Y-88521845D01*
X140002857Y-88521845D02*
X139955238Y-88521845D01*
X139955238Y-88521845D02*
X139931428Y-88509940D01*
X139931428Y-88509940D02*
X139919523Y-88498035D01*
X139919523Y-88498035D02*
X139907619Y-88474226D01*
X139907619Y-88474226D02*
X139907619Y-88271845D01*
X139669523Y-88271845D02*
X139788571Y-88271845D01*
X139788571Y-88271845D02*
X139800475Y-88390892D01*
X139800475Y-88390892D02*
X139788571Y-88378988D01*
X139788571Y-88378988D02*
X139764761Y-88367083D01*
X139764761Y-88367083D02*
X139705237Y-88367083D01*
X139705237Y-88367083D02*
X139681428Y-88378988D01*
X139681428Y-88378988D02*
X139669523Y-88390892D01*
X139669523Y-88390892D02*
X139657618Y-88414702D01*
X139657618Y-88414702D02*
X139657618Y-88474226D01*
X139657618Y-88474226D02*
X139669523Y-88498035D01*
X139669523Y-88498035D02*
X139681428Y-88509940D01*
X139681428Y-88509940D02*
X139705237Y-88521845D01*
X139705237Y-88521845D02*
X139764761Y-88521845D01*
X139764761Y-88521845D02*
X139788571Y-88509940D01*
X139788571Y-88509940D02*
X139800475Y-88498035D01*
%TO.C,C27*%
X139189714Y-89610035D02*
X139201618Y-89621940D01*
X139201618Y-89621940D02*
X139237333Y-89633845D01*
X139237333Y-89633845D02*
X139261142Y-89633845D01*
X139261142Y-89633845D02*
X139296856Y-89621940D01*
X139296856Y-89621940D02*
X139320666Y-89598130D01*
X139320666Y-89598130D02*
X139332571Y-89574321D01*
X139332571Y-89574321D02*
X139344475Y-89526702D01*
X139344475Y-89526702D02*
X139344475Y-89490988D01*
X139344475Y-89490988D02*
X139332571Y-89443369D01*
X139332571Y-89443369D02*
X139320666Y-89419559D01*
X139320666Y-89419559D02*
X139296856Y-89395750D01*
X139296856Y-89395750D02*
X139261142Y-89383845D01*
X139261142Y-89383845D02*
X139237333Y-89383845D01*
X139237333Y-89383845D02*
X139201618Y-89395750D01*
X139201618Y-89395750D02*
X139189714Y-89407654D01*
X139094475Y-89407654D02*
X139082571Y-89395750D01*
X139082571Y-89395750D02*
X139058761Y-89383845D01*
X139058761Y-89383845D02*
X138999237Y-89383845D01*
X138999237Y-89383845D02*
X138975428Y-89395750D01*
X138975428Y-89395750D02*
X138963523Y-89407654D01*
X138963523Y-89407654D02*
X138951618Y-89431464D01*
X138951618Y-89431464D02*
X138951618Y-89455273D01*
X138951618Y-89455273D02*
X138963523Y-89490988D01*
X138963523Y-89490988D02*
X139106380Y-89633845D01*
X139106380Y-89633845D02*
X138951618Y-89633845D01*
X138868285Y-89383845D02*
X138701619Y-89383845D01*
X138701619Y-89383845D02*
X138808761Y-89633845D01*
%TO.C,C24*%
X141141714Y-90439035D02*
X141153618Y-90450940D01*
X141153618Y-90450940D02*
X141189333Y-90462845D01*
X141189333Y-90462845D02*
X141213142Y-90462845D01*
X141213142Y-90462845D02*
X141248856Y-90450940D01*
X141248856Y-90450940D02*
X141272666Y-90427130D01*
X141272666Y-90427130D02*
X141284571Y-90403321D01*
X141284571Y-90403321D02*
X141296475Y-90355702D01*
X141296475Y-90355702D02*
X141296475Y-90319988D01*
X141296475Y-90319988D02*
X141284571Y-90272369D01*
X141284571Y-90272369D02*
X141272666Y-90248559D01*
X141272666Y-90248559D02*
X141248856Y-90224750D01*
X141248856Y-90224750D02*
X141213142Y-90212845D01*
X141213142Y-90212845D02*
X141189333Y-90212845D01*
X141189333Y-90212845D02*
X141153618Y-90224750D01*
X141153618Y-90224750D02*
X141141714Y-90236654D01*
X141046475Y-90236654D02*
X141034571Y-90224750D01*
X141034571Y-90224750D02*
X141010761Y-90212845D01*
X141010761Y-90212845D02*
X140951237Y-90212845D01*
X140951237Y-90212845D02*
X140927428Y-90224750D01*
X140927428Y-90224750D02*
X140915523Y-90236654D01*
X140915523Y-90236654D02*
X140903618Y-90260464D01*
X140903618Y-90260464D02*
X140903618Y-90284273D01*
X140903618Y-90284273D02*
X140915523Y-90319988D01*
X140915523Y-90319988D02*
X141058380Y-90462845D01*
X141058380Y-90462845D02*
X140903618Y-90462845D01*
X140689333Y-90296178D02*
X140689333Y-90462845D01*
X140748857Y-90200940D02*
X140808380Y-90379511D01*
X140808380Y-90379511D02*
X140653619Y-90379511D01*
%TO.C,R4*%
X142971666Y-83841845D02*
X143054999Y-83722797D01*
X143114523Y-83841845D02*
X143114523Y-83591845D01*
X143114523Y-83591845D02*
X143019285Y-83591845D01*
X143019285Y-83591845D02*
X142995475Y-83603750D01*
X142995475Y-83603750D02*
X142983570Y-83615654D01*
X142983570Y-83615654D02*
X142971666Y-83639464D01*
X142971666Y-83639464D02*
X142971666Y-83675178D01*
X142971666Y-83675178D02*
X142983570Y-83698988D01*
X142983570Y-83698988D02*
X142995475Y-83710892D01*
X142995475Y-83710892D02*
X143019285Y-83722797D01*
X143019285Y-83722797D02*
X143114523Y-83722797D01*
X142757380Y-83675178D02*
X142757380Y-83841845D01*
X142816904Y-83579940D02*
X142876427Y-83758511D01*
X142876427Y-83758511D02*
X142721666Y-83758511D01*
%TO.C,C5*%
X138329666Y-90656035D02*
X138341570Y-90667940D01*
X138341570Y-90667940D02*
X138377285Y-90679845D01*
X138377285Y-90679845D02*
X138401094Y-90679845D01*
X138401094Y-90679845D02*
X138436808Y-90667940D01*
X138436808Y-90667940D02*
X138460618Y-90644130D01*
X138460618Y-90644130D02*
X138472523Y-90620321D01*
X138472523Y-90620321D02*
X138484427Y-90572702D01*
X138484427Y-90572702D02*
X138484427Y-90536988D01*
X138484427Y-90536988D02*
X138472523Y-90489369D01*
X138472523Y-90489369D02*
X138460618Y-90465559D01*
X138460618Y-90465559D02*
X138436808Y-90441750D01*
X138436808Y-90441750D02*
X138401094Y-90429845D01*
X138401094Y-90429845D02*
X138377285Y-90429845D01*
X138377285Y-90429845D02*
X138341570Y-90441750D01*
X138341570Y-90441750D02*
X138329666Y-90453654D01*
X138103475Y-90429845D02*
X138222523Y-90429845D01*
X138222523Y-90429845D02*
X138234427Y-90548892D01*
X138234427Y-90548892D02*
X138222523Y-90536988D01*
X138222523Y-90536988D02*
X138198713Y-90525083D01*
X138198713Y-90525083D02*
X138139189Y-90525083D01*
X138139189Y-90525083D02*
X138115380Y-90536988D01*
X138115380Y-90536988D02*
X138103475Y-90548892D01*
X138103475Y-90548892D02*
X138091570Y-90572702D01*
X138091570Y-90572702D02*
X138091570Y-90632226D01*
X138091570Y-90632226D02*
X138103475Y-90656035D01*
X138103475Y-90656035D02*
X138115380Y-90667940D01*
X138115380Y-90667940D02*
X138139189Y-90679845D01*
X138139189Y-90679845D02*
X138198713Y-90679845D01*
X138198713Y-90679845D02*
X138222523Y-90667940D01*
X138222523Y-90667940D02*
X138234427Y-90656035D01*
%TO.C,C26*%
X138465714Y-89218035D02*
X138477618Y-89229940D01*
X138477618Y-89229940D02*
X138513333Y-89241845D01*
X138513333Y-89241845D02*
X138537142Y-89241845D01*
X138537142Y-89241845D02*
X138572856Y-89229940D01*
X138572856Y-89229940D02*
X138596666Y-89206130D01*
X138596666Y-89206130D02*
X138608571Y-89182321D01*
X138608571Y-89182321D02*
X138620475Y-89134702D01*
X138620475Y-89134702D02*
X138620475Y-89098988D01*
X138620475Y-89098988D02*
X138608571Y-89051369D01*
X138608571Y-89051369D02*
X138596666Y-89027559D01*
X138596666Y-89027559D02*
X138572856Y-89003750D01*
X138572856Y-89003750D02*
X138537142Y-88991845D01*
X138537142Y-88991845D02*
X138513333Y-88991845D01*
X138513333Y-88991845D02*
X138477618Y-89003750D01*
X138477618Y-89003750D02*
X138465714Y-89015654D01*
X138370475Y-89015654D02*
X138358571Y-89003750D01*
X138358571Y-89003750D02*
X138334761Y-88991845D01*
X138334761Y-88991845D02*
X138275237Y-88991845D01*
X138275237Y-88991845D02*
X138251428Y-89003750D01*
X138251428Y-89003750D02*
X138239523Y-89015654D01*
X138239523Y-89015654D02*
X138227618Y-89039464D01*
X138227618Y-89039464D02*
X138227618Y-89063273D01*
X138227618Y-89063273D02*
X138239523Y-89098988D01*
X138239523Y-89098988D02*
X138382380Y-89241845D01*
X138382380Y-89241845D02*
X138227618Y-89241845D01*
X138013333Y-88991845D02*
X138060952Y-88991845D01*
X138060952Y-88991845D02*
X138084761Y-89003750D01*
X138084761Y-89003750D02*
X138096666Y-89015654D01*
X138096666Y-89015654D02*
X138120476Y-89051369D01*
X138120476Y-89051369D02*
X138132380Y-89098988D01*
X138132380Y-89098988D02*
X138132380Y-89194226D01*
X138132380Y-89194226D02*
X138120476Y-89218035D01*
X138120476Y-89218035D02*
X138108571Y-89229940D01*
X138108571Y-89229940D02*
X138084761Y-89241845D01*
X138084761Y-89241845D02*
X138037142Y-89241845D01*
X138037142Y-89241845D02*
X138013333Y-89229940D01*
X138013333Y-89229940D02*
X138001428Y-89218035D01*
X138001428Y-89218035D02*
X137989523Y-89194226D01*
X137989523Y-89194226D02*
X137989523Y-89134702D01*
X137989523Y-89134702D02*
X138001428Y-89110892D01*
X138001428Y-89110892D02*
X138013333Y-89098988D01*
X138013333Y-89098988D02*
X138037142Y-89087083D01*
X138037142Y-89087083D02*
X138084761Y-89087083D01*
X138084761Y-89087083D02*
X138108571Y-89098988D01*
X138108571Y-89098988D02*
X138120476Y-89110892D01*
X138120476Y-89110892D02*
X138132380Y-89134702D01*
%TO.C,C10*%
X142690714Y-84738035D02*
X142702618Y-84749940D01*
X142702618Y-84749940D02*
X142738333Y-84761845D01*
X142738333Y-84761845D02*
X142762142Y-84761845D01*
X142762142Y-84761845D02*
X142797856Y-84749940D01*
X142797856Y-84749940D02*
X142821666Y-84726130D01*
X142821666Y-84726130D02*
X142833571Y-84702321D01*
X142833571Y-84702321D02*
X142845475Y-84654702D01*
X142845475Y-84654702D02*
X142845475Y-84618988D01*
X142845475Y-84618988D02*
X142833571Y-84571369D01*
X142833571Y-84571369D02*
X142821666Y-84547559D01*
X142821666Y-84547559D02*
X142797856Y-84523750D01*
X142797856Y-84523750D02*
X142762142Y-84511845D01*
X142762142Y-84511845D02*
X142738333Y-84511845D01*
X142738333Y-84511845D02*
X142702618Y-84523750D01*
X142702618Y-84523750D02*
X142690714Y-84535654D01*
X142452618Y-84761845D02*
X142595475Y-84761845D01*
X142524047Y-84761845D02*
X142524047Y-84511845D01*
X142524047Y-84511845D02*
X142547856Y-84547559D01*
X142547856Y-84547559D02*
X142571666Y-84571369D01*
X142571666Y-84571369D02*
X142595475Y-84583273D01*
X142297857Y-84511845D02*
X142274047Y-84511845D01*
X142274047Y-84511845D02*
X142250238Y-84523750D01*
X142250238Y-84523750D02*
X142238333Y-84535654D01*
X142238333Y-84535654D02*
X142226428Y-84559464D01*
X142226428Y-84559464D02*
X142214523Y-84607083D01*
X142214523Y-84607083D02*
X142214523Y-84666607D01*
X142214523Y-84666607D02*
X142226428Y-84714226D01*
X142226428Y-84714226D02*
X142238333Y-84738035D01*
X142238333Y-84738035D02*
X142250238Y-84749940D01*
X142250238Y-84749940D02*
X142274047Y-84761845D01*
X142274047Y-84761845D02*
X142297857Y-84761845D01*
X142297857Y-84761845D02*
X142321666Y-84749940D01*
X142321666Y-84749940D02*
X142333571Y-84738035D01*
X142333571Y-84738035D02*
X142345476Y-84714226D01*
X142345476Y-84714226D02*
X142357380Y-84666607D01*
X142357380Y-84666607D02*
X142357380Y-84607083D01*
X142357380Y-84607083D02*
X142345476Y-84559464D01*
X142345476Y-84559464D02*
X142333571Y-84535654D01*
X142333571Y-84535654D02*
X142321666Y-84523750D01*
X142321666Y-84523750D02*
X142297857Y-84511845D01*
%TO.C,U3*%
X144115476Y-88641845D02*
X144115476Y-88844226D01*
X144115476Y-88844226D02*
X144103571Y-88868035D01*
X144103571Y-88868035D02*
X144091666Y-88879940D01*
X144091666Y-88879940D02*
X144067857Y-88891845D01*
X144067857Y-88891845D02*
X144020238Y-88891845D01*
X144020238Y-88891845D02*
X143996428Y-88879940D01*
X143996428Y-88879940D02*
X143984523Y-88868035D01*
X143984523Y-88868035D02*
X143972619Y-88844226D01*
X143972619Y-88844226D02*
X143972619Y-88641845D01*
X143877380Y-88641845D02*
X143722618Y-88641845D01*
X143722618Y-88641845D02*
X143805952Y-88737083D01*
X143805952Y-88737083D02*
X143770237Y-88737083D01*
X143770237Y-88737083D02*
X143746428Y-88748988D01*
X143746428Y-88748988D02*
X143734523Y-88760892D01*
X143734523Y-88760892D02*
X143722618Y-88784702D01*
X143722618Y-88784702D02*
X143722618Y-88844226D01*
X143722618Y-88844226D02*
X143734523Y-88868035D01*
X143734523Y-88868035D02*
X143746428Y-88879940D01*
X143746428Y-88879940D02*
X143770237Y-88891845D01*
X143770237Y-88891845D02*
X143841666Y-88891845D01*
X143841666Y-88891845D02*
X143865475Y-88879940D01*
X143865475Y-88879940D02*
X143877380Y-88868035D01*
%TO.C,L1*%
X139086666Y-84551845D02*
X139205714Y-84551845D01*
X139205714Y-84551845D02*
X139205714Y-84301845D01*
X138872380Y-84551845D02*
X139015237Y-84551845D01*
X138943809Y-84551845D02*
X138943809Y-84301845D01*
X138943809Y-84301845D02*
X138967618Y-84337559D01*
X138967618Y-84337559D02*
X138991428Y-84361369D01*
X138991428Y-84361369D02*
X139015237Y-84373273D01*
%TO.C,C23*%
X138455714Y-87818035D02*
X138467618Y-87829940D01*
X138467618Y-87829940D02*
X138503333Y-87841845D01*
X138503333Y-87841845D02*
X138527142Y-87841845D01*
X138527142Y-87841845D02*
X138562856Y-87829940D01*
X138562856Y-87829940D02*
X138586666Y-87806130D01*
X138586666Y-87806130D02*
X138598571Y-87782321D01*
X138598571Y-87782321D02*
X138610475Y-87734702D01*
X138610475Y-87734702D02*
X138610475Y-87698988D01*
X138610475Y-87698988D02*
X138598571Y-87651369D01*
X138598571Y-87651369D02*
X138586666Y-87627559D01*
X138586666Y-87627559D02*
X138562856Y-87603750D01*
X138562856Y-87603750D02*
X138527142Y-87591845D01*
X138527142Y-87591845D02*
X138503333Y-87591845D01*
X138503333Y-87591845D02*
X138467618Y-87603750D01*
X138467618Y-87603750D02*
X138455714Y-87615654D01*
X138360475Y-87615654D02*
X138348571Y-87603750D01*
X138348571Y-87603750D02*
X138324761Y-87591845D01*
X138324761Y-87591845D02*
X138265237Y-87591845D01*
X138265237Y-87591845D02*
X138241428Y-87603750D01*
X138241428Y-87603750D02*
X138229523Y-87615654D01*
X138229523Y-87615654D02*
X138217618Y-87639464D01*
X138217618Y-87639464D02*
X138217618Y-87663273D01*
X138217618Y-87663273D02*
X138229523Y-87698988D01*
X138229523Y-87698988D02*
X138372380Y-87841845D01*
X138372380Y-87841845D02*
X138217618Y-87841845D01*
X138134285Y-87591845D02*
X137979523Y-87591845D01*
X137979523Y-87591845D02*
X138062857Y-87687083D01*
X138062857Y-87687083D02*
X138027142Y-87687083D01*
X138027142Y-87687083D02*
X138003333Y-87698988D01*
X138003333Y-87698988D02*
X137991428Y-87710892D01*
X137991428Y-87710892D02*
X137979523Y-87734702D01*
X137979523Y-87734702D02*
X137979523Y-87794226D01*
X137979523Y-87794226D02*
X137991428Y-87818035D01*
X137991428Y-87818035D02*
X138003333Y-87829940D01*
X138003333Y-87829940D02*
X138027142Y-87841845D01*
X138027142Y-87841845D02*
X138098571Y-87841845D01*
X138098571Y-87841845D02*
X138122380Y-87829940D01*
X138122380Y-87829940D02*
X138134285Y-87818035D01*
%TO.C,R12*%
X138700714Y-93425845D02*
X138784047Y-93306797D01*
X138843571Y-93425845D02*
X138843571Y-93175845D01*
X138843571Y-93175845D02*
X138748333Y-93175845D01*
X138748333Y-93175845D02*
X138724523Y-93187750D01*
X138724523Y-93187750D02*
X138712618Y-93199654D01*
X138712618Y-93199654D02*
X138700714Y-93223464D01*
X138700714Y-93223464D02*
X138700714Y-93259178D01*
X138700714Y-93259178D02*
X138712618Y-93282988D01*
X138712618Y-93282988D02*
X138724523Y-93294892D01*
X138724523Y-93294892D02*
X138748333Y-93306797D01*
X138748333Y-93306797D02*
X138843571Y-93306797D01*
X138462618Y-93425845D02*
X138605475Y-93425845D01*
X138534047Y-93425845D02*
X138534047Y-93175845D01*
X138534047Y-93175845D02*
X138557856Y-93211559D01*
X138557856Y-93211559D02*
X138581666Y-93235369D01*
X138581666Y-93235369D02*
X138605475Y-93247273D01*
X138367380Y-93199654D02*
X138355476Y-93187750D01*
X138355476Y-93187750D02*
X138331666Y-93175845D01*
X138331666Y-93175845D02*
X138272142Y-93175845D01*
X138272142Y-93175845D02*
X138248333Y-93187750D01*
X138248333Y-93187750D02*
X138236428Y-93199654D01*
X138236428Y-93199654D02*
X138224523Y-93223464D01*
X138224523Y-93223464D02*
X138224523Y-93247273D01*
X138224523Y-93247273D02*
X138236428Y-93282988D01*
X138236428Y-93282988D02*
X138379285Y-93425845D01*
X138379285Y-93425845D02*
X138224523Y-93425845D01*
%TO.C,C20*%
X144330714Y-84718035D02*
X144342618Y-84729940D01*
X144342618Y-84729940D02*
X144378333Y-84741845D01*
X144378333Y-84741845D02*
X144402142Y-84741845D01*
X144402142Y-84741845D02*
X144437856Y-84729940D01*
X144437856Y-84729940D02*
X144461666Y-84706130D01*
X144461666Y-84706130D02*
X144473571Y-84682321D01*
X144473571Y-84682321D02*
X144485475Y-84634702D01*
X144485475Y-84634702D02*
X144485475Y-84598988D01*
X144485475Y-84598988D02*
X144473571Y-84551369D01*
X144473571Y-84551369D02*
X144461666Y-84527559D01*
X144461666Y-84527559D02*
X144437856Y-84503750D01*
X144437856Y-84503750D02*
X144402142Y-84491845D01*
X144402142Y-84491845D02*
X144378333Y-84491845D01*
X144378333Y-84491845D02*
X144342618Y-84503750D01*
X144342618Y-84503750D02*
X144330714Y-84515654D01*
X144235475Y-84515654D02*
X144223571Y-84503750D01*
X144223571Y-84503750D02*
X144199761Y-84491845D01*
X144199761Y-84491845D02*
X144140237Y-84491845D01*
X144140237Y-84491845D02*
X144116428Y-84503750D01*
X144116428Y-84503750D02*
X144104523Y-84515654D01*
X144104523Y-84515654D02*
X144092618Y-84539464D01*
X144092618Y-84539464D02*
X144092618Y-84563273D01*
X144092618Y-84563273D02*
X144104523Y-84598988D01*
X144104523Y-84598988D02*
X144247380Y-84741845D01*
X144247380Y-84741845D02*
X144092618Y-84741845D01*
X143937857Y-84491845D02*
X143914047Y-84491845D01*
X143914047Y-84491845D02*
X143890238Y-84503750D01*
X143890238Y-84503750D02*
X143878333Y-84515654D01*
X143878333Y-84515654D02*
X143866428Y-84539464D01*
X143866428Y-84539464D02*
X143854523Y-84587083D01*
X143854523Y-84587083D02*
X143854523Y-84646607D01*
X143854523Y-84646607D02*
X143866428Y-84694226D01*
X143866428Y-84694226D02*
X143878333Y-84718035D01*
X143878333Y-84718035D02*
X143890238Y-84729940D01*
X143890238Y-84729940D02*
X143914047Y-84741845D01*
X143914047Y-84741845D02*
X143937857Y-84741845D01*
X143937857Y-84741845D02*
X143961666Y-84729940D01*
X143961666Y-84729940D02*
X143973571Y-84718035D01*
X143973571Y-84718035D02*
X143985476Y-84694226D01*
X143985476Y-84694226D02*
X143997380Y-84646607D01*
X143997380Y-84646607D02*
X143997380Y-84587083D01*
X143997380Y-84587083D02*
X143985476Y-84539464D01*
X143985476Y-84539464D02*
X143973571Y-84515654D01*
X143973571Y-84515654D02*
X143961666Y-84503750D01*
X143961666Y-84503750D02*
X143937857Y-84491845D01*
%TO.C,J3*%
X142508332Y-94111845D02*
X142508332Y-94290416D01*
X142508332Y-94290416D02*
X142520237Y-94326130D01*
X142520237Y-94326130D02*
X142544046Y-94349940D01*
X142544046Y-94349940D02*
X142579761Y-94361845D01*
X142579761Y-94361845D02*
X142603570Y-94361845D01*
X142413094Y-94111845D02*
X142258332Y-94111845D01*
X142258332Y-94111845D02*
X142341666Y-94207083D01*
X142341666Y-94207083D02*
X142305951Y-94207083D01*
X142305951Y-94207083D02*
X142282142Y-94218988D01*
X142282142Y-94218988D02*
X142270237Y-94230892D01*
X142270237Y-94230892D02*
X142258332Y-94254702D01*
X142258332Y-94254702D02*
X142258332Y-94314226D01*
X142258332Y-94314226D02*
X142270237Y-94338035D01*
X142270237Y-94338035D02*
X142282142Y-94349940D01*
X142282142Y-94349940D02*
X142305951Y-94361845D01*
X142305951Y-94361845D02*
X142377380Y-94361845D01*
X142377380Y-94361845D02*
X142401189Y-94349940D01*
X142401189Y-94349940D02*
X142413094Y-94338035D01*
D11*
%TO.C,L2*%
X143387500Y-83350000D02*
X143387500Y-82450000D01*
X143387500Y-82450000D02*
X141387500Y-82450000D01*
X141387500Y-83350000D02*
X143387500Y-83350000D01*
X141387500Y-82450000D02*
X141387500Y-83350000D01*
%TO.C,U6*%
X145525000Y-85800000D02*
X145525000Y-85050000D01*
X145525000Y-85050000D02*
X145275000Y-84800000D01*
X145275000Y-84800000D02*
X144525000Y-84800000D01*
X144525000Y-85800000D02*
X145525000Y-85800000D01*
X144525000Y-84800000D02*
X144525000Y-85800000D01*
%TO.C,C25*%
X146725000Y-85400000D02*
X146725000Y-85100000D01*
X146725000Y-85100000D02*
X146125000Y-85100000D01*
X146125000Y-85400000D02*
X146725000Y-85400000D01*
X146125000Y-85100000D02*
X146125000Y-85400000D01*
%TO.C,R10*%
X146560000Y-92340000D02*
X146260000Y-92340000D01*
X146260000Y-92340000D02*
X146260000Y-92940000D01*
X146560000Y-92940000D02*
X146560000Y-92340000D01*
X146260000Y-92940000D02*
X146560000Y-92940000D01*
%TO.C,U2*%
X139345000Y-91420000D02*
X138705000Y-91420000D01*
X138705000Y-91050000D01*
X138975000Y-90780000D01*
X139345000Y-90780000D01*
X139345000Y-91420000D01*
%TO.C,R6*%
X138050000Y-86980000D02*
X138050000Y-87280000D01*
X138050000Y-87280000D02*
X138650000Y-87280000D01*
X138650000Y-86980000D02*
X138050000Y-86980000D01*
X138650000Y-87280000D02*
X138650000Y-86980000D01*
%TO.C,C28*%
X140470000Y-91260000D02*
X140470000Y-90960000D01*
X140470000Y-90960000D02*
X139870000Y-90960000D01*
X139870000Y-91260000D02*
X140470000Y-91260000D01*
X139870000Y-90960000D02*
X139870000Y-91260000D01*
%TO.C,C12*%
X141550000Y-85430000D02*
X142050000Y-85430000D01*
X142050000Y-85430000D02*
X142050000Y-84430000D01*
X141550000Y-84430000D02*
X141550000Y-85430000D01*
X142050000Y-84430000D02*
X141550000Y-84430000D01*
%TO.C,C11*%
X143175000Y-85500000D02*
X143475000Y-85500000D01*
X143475000Y-85500000D02*
X143475000Y-84900000D01*
X143175000Y-84900000D02*
X143175000Y-85500000D01*
X143475000Y-84900000D02*
X143175000Y-84900000D01*
%TO.C,L3*%
X141134000Y-84544000D02*
X140834000Y-84544000D01*
X140834000Y-84544000D02*
X140834000Y-85144000D01*
X141134000Y-85144000D02*
X141134000Y-84544000D01*
X140834000Y-85144000D02*
X141134000Y-85144000D01*
%TO.C,C4*%
X138703000Y-92219000D02*
X138403000Y-92219000D01*
X138403000Y-92219000D02*
X138403000Y-92819000D01*
X138703000Y-92819000D02*
X138703000Y-92219000D01*
X138403000Y-92819000D02*
X138703000Y-92819000D01*
%TO.C,R13*%
X140554000Y-89831000D02*
X140554000Y-89531000D01*
X140554000Y-89531000D02*
X139954000Y-89531000D01*
X139954000Y-89831000D02*
X140554000Y-89831000D01*
X139954000Y-89531000D02*
X139954000Y-89831000D01*
%TO.C,C21*%
X139635000Y-86980000D02*
X139635000Y-87280000D01*
X139635000Y-87280000D02*
X140235000Y-87280000D01*
X140235000Y-86980000D02*
X139635000Y-86980000D01*
X140235000Y-87280000D02*
X140235000Y-86980000D01*
%TO.C,U5*%
X140860000Y-87630000D02*
X139385000Y-87630000D01*
X138860000Y-88155000D02*
X139385000Y-87630000D01*
X138860000Y-88155000D02*
X138860000Y-89230000D01*
X140860000Y-89230000D02*
X140860000Y-87630000D01*
X138860000Y-89230000D02*
X140860000Y-89230000D01*
%TO.C,C27*%
X138884000Y-90332000D02*
X139184000Y-90332000D01*
X139184000Y-90332000D02*
X139184000Y-89732000D01*
X138884000Y-89732000D02*
X138884000Y-90332000D01*
X139184000Y-89732000D02*
X138884000Y-89732000D01*
%TO.C,C24*%
X140556000Y-90531000D02*
X140556000Y-90231000D01*
X140556000Y-90231000D02*
X139956000Y-90231000D01*
X139956000Y-90531000D02*
X140556000Y-90531000D01*
X139956000Y-90231000D02*
X139956000Y-90531000D01*
%TO.C,R4*%
X142660000Y-83960000D02*
X142660000Y-84260000D01*
X142660000Y-84260000D02*
X143260000Y-84260000D01*
X143260000Y-83960000D02*
X142660000Y-83960000D01*
X143260000Y-84260000D02*
X143260000Y-83960000D01*
%TO.C,C5*%
X138433000Y-90788000D02*
X138133000Y-90788000D01*
X138133000Y-90788000D02*
X138133000Y-91388000D01*
X138433000Y-91388000D02*
X138433000Y-90788000D01*
X138133000Y-91388000D02*
X138433000Y-91388000D01*
%TO.C,C26*%
X138450000Y-89370000D02*
X138150000Y-89370000D01*
X138150000Y-89370000D02*
X138150000Y-89970000D01*
X138450000Y-89970000D02*
X138450000Y-89370000D01*
X138150000Y-89970000D02*
X138450000Y-89970000D01*
%TO.C,C10*%
X142475000Y-85475000D02*
X142775000Y-85475000D01*
X142775000Y-85475000D02*
X142775000Y-84875000D01*
X142475000Y-84875000D02*
X142475000Y-85475000D01*
X142775000Y-84875000D02*
X142475000Y-84875000D01*
%TO.C,U3*%
X141375000Y-86250000D02*
X141375000Y-90300000D01*
X141375000Y-86250000D02*
X146475000Y-86250000D01*
X141375000Y-90300000D02*
X142425000Y-91350000D01*
X142425000Y-91350000D02*
X146475000Y-91350000D01*
X146475000Y-86250000D02*
X146475000Y-91350000D01*
%TO.C,L1*%
X137800000Y-86060000D02*
X140300000Y-86060000D01*
X140300000Y-86060000D02*
X140300000Y-82860000D01*
X137800000Y-82860000D02*
X137800000Y-86060000D01*
X140300000Y-82860000D02*
X137800000Y-82860000D01*
%TO.C,C23*%
X138150000Y-88550000D02*
X138450000Y-88550000D01*
X138450000Y-88550000D02*
X138450000Y-87950000D01*
X138150000Y-87950000D02*
X138150000Y-88550000D01*
X138450000Y-87950000D02*
X138150000Y-87950000D01*
%TO.C,R12*%
X138700000Y-93620000D02*
X138400000Y-93620000D01*
X138400000Y-93620000D02*
X138400000Y-94220000D01*
X138700000Y-94220000D02*
X138700000Y-93620000D01*
X138400000Y-94220000D02*
X138700000Y-94220000D01*
%TO.C,C20*%
X143890000Y-85490000D02*
X144190000Y-85490000D01*
X144190000Y-85490000D02*
X144190000Y-84890000D01*
X143890000Y-84890000D02*
X143890000Y-85490000D01*
X144190000Y-84890000D02*
X143890000Y-84890000D01*
%TO.C,J3*%
X145725000Y-94970000D02*
X145375000Y-94970000D01*
X145725000Y-92770000D02*
X145725000Y-94970000D01*
X145375000Y-95870000D02*
X139525000Y-95870000D01*
X145375000Y-94970000D02*
X145375000Y-95870000D01*
X139525000Y-95870000D02*
X139525000Y-94970000D01*
X139525000Y-94970000D02*
X139125000Y-94970000D01*
X139475000Y-92770000D02*
X145725000Y-92770000D01*
X139125000Y-94970000D02*
X139125000Y-93120000D01*
X139125000Y-93120000D02*
X139475000Y-92770000D01*
%TD*%
M02*
