%TF.GenerationSoftware,KiCad,Pcbnew,(7.0.0)*%
%TF.CreationDate,2023-02-26T18:00:26-05:00*%
%TF.ProjectId,headstage-neuropix2e,68656164-7374-4616-9765-2d6e6575726f,A*%
%TF.SameCoordinates,Original*%
%TF.FileFunction,Legend,Top*%
%TF.FilePolarity,Positive*%
%FSLAX46Y46*%
G04 Gerber Fmt 4.6, Leading zero omitted, Abs format (unit mm)*
G04 Created by KiCad (PCBNEW (7.0.0)) date 2023-02-26 18:00:26*
%MOMM*%
%LPD*%
G01*
G04 APERTURE LIST*
%ADD10C,0.150000*%
%ADD11C,0.200000*%
%ADD12C,0.300000*%
%ADD13C,0.120000*%
%ADD14C,0.127000*%
G04 APERTURE END LIST*
D10*
X121825000Y-84000000D02*
X120825000Y-86000000D01*
X111825000Y-96000000D02*
X114825000Y-93000000D01*
X111825000Y-84000000D02*
X114825000Y-88000000D01*
X116825000Y-96000000D02*
X116825000Y-95000000D01*
X116825000Y-84275000D02*
X116825000Y-86000000D01*
X122825000Y-96000000D02*
X120825000Y-94000000D01*
D11*
X107680952Y-115447595D02*
X107680952Y-116376166D01*
X107680952Y-116376166D02*
X107619047Y-116561880D01*
X107619047Y-116561880D02*
X107495238Y-116685690D01*
X107495238Y-116685690D02*
X107309523Y-116747595D01*
X107309523Y-116747595D02*
X107185714Y-116747595D01*
X108299999Y-116747595D02*
X108299999Y-115447595D01*
X108299999Y-115447595D02*
X108795237Y-115447595D01*
X108795237Y-115447595D02*
X108919047Y-115509500D01*
X108919047Y-115509500D02*
X108980952Y-115571404D01*
X108980952Y-115571404D02*
X109042856Y-115695214D01*
X109042856Y-115695214D02*
X109042856Y-115880928D01*
X109042856Y-115880928D02*
X108980952Y-116004738D01*
X108980952Y-116004738D02*
X108919047Y-116066642D01*
X108919047Y-116066642D02*
X108795237Y-116128547D01*
X108795237Y-116128547D02*
X108299999Y-116128547D01*
X109599999Y-116747595D02*
X109599999Y-115447595D01*
X109599999Y-115447595D02*
X110342856Y-116747595D01*
X110342856Y-116747595D02*
X110342856Y-115447595D01*
X111023809Y-116685690D02*
X111023809Y-116747595D01*
X111023809Y-116747595D02*
X110961904Y-116871404D01*
X110961904Y-116871404D02*
X110900000Y-116933309D01*
X112608571Y-115447595D02*
X112856190Y-115447595D01*
X112856190Y-115447595D02*
X112980000Y-115509500D01*
X112980000Y-115509500D02*
X113103809Y-115633309D01*
X113103809Y-115633309D02*
X113165714Y-115880928D01*
X113165714Y-115880928D02*
X113165714Y-116314261D01*
X113165714Y-116314261D02*
X113103809Y-116561880D01*
X113103809Y-116561880D02*
X112980000Y-116685690D01*
X112980000Y-116685690D02*
X112856190Y-116747595D01*
X112856190Y-116747595D02*
X112608571Y-116747595D01*
X112608571Y-116747595D02*
X112484762Y-116685690D01*
X112484762Y-116685690D02*
X112360952Y-116561880D01*
X112360952Y-116561880D02*
X112299048Y-116314261D01*
X112299048Y-116314261D02*
X112299048Y-115880928D01*
X112299048Y-115880928D02*
X112360952Y-115633309D01*
X112360952Y-115633309D02*
X112484762Y-115509500D01*
X112484762Y-115509500D02*
X112608571Y-115447595D01*
X113722857Y-115880928D02*
X113722857Y-117180928D01*
X113722857Y-115942833D02*
X113846667Y-115880928D01*
X113846667Y-115880928D02*
X114094286Y-115880928D01*
X114094286Y-115880928D02*
X114218095Y-115942833D01*
X114218095Y-115942833D02*
X114280000Y-116004738D01*
X114280000Y-116004738D02*
X114341905Y-116128547D01*
X114341905Y-116128547D02*
X114341905Y-116499976D01*
X114341905Y-116499976D02*
X114280000Y-116623785D01*
X114280000Y-116623785D02*
X114218095Y-116685690D01*
X114218095Y-116685690D02*
X114094286Y-116747595D01*
X114094286Y-116747595D02*
X113846667Y-116747595D01*
X113846667Y-116747595D02*
X113722857Y-116685690D01*
X115394285Y-116685690D02*
X115270476Y-116747595D01*
X115270476Y-116747595D02*
X115022857Y-116747595D01*
X115022857Y-116747595D02*
X114899047Y-116685690D01*
X114899047Y-116685690D02*
X114837143Y-116561880D01*
X114837143Y-116561880D02*
X114837143Y-116066642D01*
X114837143Y-116066642D02*
X114899047Y-115942833D01*
X114899047Y-115942833D02*
X115022857Y-115880928D01*
X115022857Y-115880928D02*
X115270476Y-115880928D01*
X115270476Y-115880928D02*
X115394285Y-115942833D01*
X115394285Y-115942833D02*
X115456190Y-116066642D01*
X115456190Y-116066642D02*
X115456190Y-116190452D01*
X115456190Y-116190452D02*
X114837143Y-116314261D01*
X116013333Y-115880928D02*
X116013333Y-116747595D01*
X116013333Y-116004738D02*
X116075238Y-115942833D01*
X116075238Y-115942833D02*
X116199048Y-115880928D01*
X116199048Y-115880928D02*
X116384762Y-115880928D01*
X116384762Y-115880928D02*
X116508571Y-115942833D01*
X116508571Y-115942833D02*
X116570476Y-116066642D01*
X116570476Y-116066642D02*
X116570476Y-116747595D01*
X117969523Y-116066642D02*
X118402857Y-116066642D01*
X118588571Y-116747595D02*
X117969523Y-116747595D01*
X117969523Y-116747595D02*
X117969523Y-115447595D01*
X117969523Y-115447595D02*
X118588571Y-115447595D01*
X119145713Y-115880928D02*
X119145713Y-117180928D01*
X119145713Y-115942833D02*
X119269523Y-115880928D01*
X119269523Y-115880928D02*
X119517142Y-115880928D01*
X119517142Y-115880928D02*
X119640951Y-115942833D01*
X119640951Y-115942833D02*
X119702856Y-116004738D01*
X119702856Y-116004738D02*
X119764761Y-116128547D01*
X119764761Y-116128547D02*
X119764761Y-116499976D01*
X119764761Y-116499976D02*
X119702856Y-116623785D01*
X119702856Y-116623785D02*
X119640951Y-116685690D01*
X119640951Y-116685690D02*
X119517142Y-116747595D01*
X119517142Y-116747595D02*
X119269523Y-116747595D01*
X119269523Y-116747595D02*
X119145713Y-116685690D01*
X120321903Y-116747595D02*
X120321903Y-115447595D01*
X120879046Y-116747595D02*
X120879046Y-116066642D01*
X120879046Y-116066642D02*
X120817141Y-115942833D01*
X120817141Y-115942833D02*
X120693332Y-115880928D01*
X120693332Y-115880928D02*
X120507618Y-115880928D01*
X120507618Y-115880928D02*
X120383808Y-115942833D01*
X120383808Y-115942833D02*
X120321903Y-116004738D01*
X121374284Y-115880928D02*
X121683808Y-116747595D01*
X121993331Y-115880928D02*
X121683808Y-116747595D01*
X121683808Y-116747595D02*
X121559998Y-117057119D01*
X121559998Y-117057119D02*
X121498093Y-117119023D01*
X121498093Y-117119023D02*
X121374284Y-117180928D01*
X122426665Y-116685690D02*
X122550474Y-116747595D01*
X122550474Y-116747595D02*
X122798093Y-116747595D01*
X122798093Y-116747595D02*
X122921903Y-116685690D01*
X122921903Y-116685690D02*
X122983807Y-116561880D01*
X122983807Y-116561880D02*
X122983807Y-116499976D01*
X122983807Y-116499976D02*
X122921903Y-116376166D01*
X122921903Y-116376166D02*
X122798093Y-116314261D01*
X122798093Y-116314261D02*
X122612379Y-116314261D01*
X122612379Y-116314261D02*
X122488569Y-116252357D01*
X122488569Y-116252357D02*
X122426665Y-116128547D01*
X122426665Y-116128547D02*
X122426665Y-116066642D01*
X122426665Y-116066642D02*
X122488569Y-115942833D01*
X122488569Y-115942833D02*
X122612379Y-115880928D01*
X122612379Y-115880928D02*
X122798093Y-115880928D01*
X122798093Y-115880928D02*
X122921903Y-115942833D01*
X124320950Y-116747595D02*
X124320950Y-115447595D01*
X124939998Y-115880928D02*
X124939998Y-116747595D01*
X124939998Y-116004738D02*
X125001903Y-115942833D01*
X125001903Y-115942833D02*
X125125713Y-115880928D01*
X125125713Y-115880928D02*
X125311427Y-115880928D01*
X125311427Y-115880928D02*
X125435236Y-115942833D01*
X125435236Y-115942833D02*
X125497141Y-116066642D01*
X125497141Y-116066642D02*
X125497141Y-116747595D01*
X126673331Y-116685690D02*
X126549522Y-116747595D01*
X126549522Y-116747595D02*
X126301903Y-116747595D01*
X126301903Y-116747595D02*
X126178093Y-116685690D01*
X126178093Y-116685690D02*
X126116188Y-116623785D01*
X126116188Y-116623785D02*
X126054284Y-116499976D01*
X126054284Y-116499976D02*
X126054284Y-116128547D01*
X126054284Y-116128547D02*
X126116188Y-116004738D01*
X126116188Y-116004738D02*
X126178093Y-115942833D01*
X126178093Y-115942833D02*
X126301903Y-115880928D01*
X126301903Y-115880928D02*
X126549522Y-115880928D01*
X126549522Y-115880928D02*
X126673331Y-115942833D01*
X127230474Y-116623785D02*
X127292379Y-116685690D01*
X127292379Y-116685690D02*
X127230474Y-116747595D01*
X127230474Y-116747595D02*
X127168570Y-116685690D01*
X127168570Y-116685690D02*
X127230474Y-116623785D01*
X127230474Y-116623785D02*
X127230474Y-116747595D01*
X127911427Y-116685690D02*
X127911427Y-116747595D01*
X127911427Y-116747595D02*
X127849522Y-116871404D01*
X127849522Y-116871404D02*
X127787618Y-116933309D01*
X129310475Y-115447595D02*
X129186666Y-115695214D01*
X129805714Y-115571404D02*
X129867618Y-115509500D01*
X129867618Y-115509500D02*
X129991428Y-115447595D01*
X129991428Y-115447595D02*
X130300952Y-115447595D01*
X130300952Y-115447595D02*
X130424761Y-115509500D01*
X130424761Y-115509500D02*
X130486666Y-115571404D01*
X130486666Y-115571404D02*
X130548571Y-115695214D01*
X130548571Y-115695214D02*
X130548571Y-115819023D01*
X130548571Y-115819023D02*
X130486666Y-116004738D01*
X130486666Y-116004738D02*
X129743809Y-116747595D01*
X129743809Y-116747595D02*
X130548571Y-116747595D01*
X130981904Y-115447595D02*
X131786666Y-115447595D01*
X131786666Y-115447595D02*
X131353332Y-115942833D01*
X131353332Y-115942833D02*
X131539047Y-115942833D01*
X131539047Y-115942833D02*
X131662856Y-116004738D01*
X131662856Y-116004738D02*
X131724761Y-116066642D01*
X131724761Y-116066642D02*
X131786666Y-116190452D01*
X131786666Y-116190452D02*
X131786666Y-116499976D01*
X131786666Y-116499976D02*
X131724761Y-116623785D01*
X131724761Y-116623785D02*
X131662856Y-116685690D01*
X131662856Y-116685690D02*
X131539047Y-116747595D01*
X131539047Y-116747595D02*
X131167618Y-116747595D01*
X131167618Y-116747595D02*
X131043809Y-116685690D01*
X131043809Y-116685690D02*
X130981904Y-116623785D01*
D10*
X145276190Y-91605904D02*
X145733333Y-91605904D01*
X145504761Y-92405904D02*
X145504761Y-91605904D01*
D11*
X123046857Y-83690476D02*
X123046857Y-82700000D01*
X123542095Y-83195238D02*
X122551619Y-83195238D01*
X122242095Y-81461904D02*
X122242095Y-82080952D01*
X122242095Y-82080952D02*
X122861142Y-82142856D01*
X122861142Y-82142856D02*
X122799238Y-82080952D01*
X122799238Y-82080952D02*
X122737333Y-81957142D01*
X122737333Y-81957142D02*
X122737333Y-81647618D01*
X122737333Y-81647618D02*
X122799238Y-81523809D01*
X122799238Y-81523809D02*
X122861142Y-81461904D01*
X122861142Y-81461904D02*
X122984952Y-81399999D01*
X122984952Y-81399999D02*
X123294476Y-81399999D01*
X123294476Y-81399999D02*
X123418285Y-81461904D01*
X123418285Y-81461904D02*
X123480190Y-81523809D01*
X123480190Y-81523809D02*
X123542095Y-81647618D01*
X123542095Y-81647618D02*
X123542095Y-81957142D01*
X123542095Y-81957142D02*
X123480190Y-82080952D01*
X123480190Y-82080952D02*
X123418285Y-82142856D01*
X122242095Y-81028571D02*
X123542095Y-80595238D01*
X123542095Y-80595238D02*
X122242095Y-80161904D01*
X111542095Y-98583334D02*
X110242095Y-98583334D01*
X110242095Y-98583334D02*
X111542095Y-97840477D01*
X111542095Y-97840477D02*
X110242095Y-97840477D01*
X111418285Y-96478572D02*
X111480190Y-96540476D01*
X111480190Y-96540476D02*
X111542095Y-96726191D01*
X111542095Y-96726191D02*
X111542095Y-96850000D01*
X111542095Y-96850000D02*
X111480190Y-97035714D01*
X111480190Y-97035714D02*
X111356380Y-97159524D01*
X111356380Y-97159524D02*
X111232571Y-97221429D01*
X111232571Y-97221429D02*
X110984952Y-97283333D01*
X110984952Y-97283333D02*
X110799238Y-97283333D01*
X110799238Y-97283333D02*
X110551619Y-97221429D01*
X110551619Y-97221429D02*
X110427809Y-97159524D01*
X110427809Y-97159524D02*
X110304000Y-97035714D01*
X110304000Y-97035714D02*
X110242095Y-96850000D01*
X110242095Y-96850000D02*
X110242095Y-96726191D01*
X110242095Y-96726191D02*
X110304000Y-96540476D01*
X110304000Y-96540476D02*
X110365904Y-96478572D01*
X144955000Y-84868095D02*
X144907380Y-84963333D01*
X144907380Y-84963333D02*
X144907380Y-85106190D01*
X144907380Y-85106190D02*
X144955000Y-85249047D01*
X144955000Y-85249047D02*
X145050238Y-85344285D01*
X145050238Y-85344285D02*
X145145476Y-85391904D01*
X145145476Y-85391904D02*
X145335952Y-85439523D01*
X145335952Y-85439523D02*
X145478809Y-85439523D01*
X145478809Y-85439523D02*
X145669285Y-85391904D01*
X145669285Y-85391904D02*
X145764523Y-85344285D01*
X145764523Y-85344285D02*
X145859761Y-85249047D01*
X145859761Y-85249047D02*
X145907380Y-85106190D01*
X145907380Y-85106190D02*
X145907380Y-85010952D01*
X145907380Y-85010952D02*
X145859761Y-84868095D01*
X145859761Y-84868095D02*
X145812142Y-84820476D01*
X145812142Y-84820476D02*
X145478809Y-84820476D01*
X145478809Y-84820476D02*
X145478809Y-85010952D01*
D12*
X107728571Y-105640548D02*
X108052380Y-105640548D01*
X108052380Y-105640548D02*
X108214285Y-105721501D01*
X108214285Y-105721501D02*
X108376190Y-105883405D01*
X108376190Y-105883405D02*
X108457142Y-106207215D01*
X108457142Y-106207215D02*
X108457142Y-106773881D01*
X108457142Y-106773881D02*
X108376190Y-107097691D01*
X108376190Y-107097691D02*
X108214285Y-107259596D01*
X108214285Y-107259596D02*
X108052380Y-107340548D01*
X108052380Y-107340548D02*
X107728571Y-107340548D01*
X107728571Y-107340548D02*
X107566666Y-107259596D01*
X107566666Y-107259596D02*
X107404761Y-107097691D01*
X107404761Y-107097691D02*
X107323809Y-106773881D01*
X107323809Y-106773881D02*
X107323809Y-106207215D01*
X107323809Y-106207215D02*
X107404761Y-105883405D01*
X107404761Y-105883405D02*
X107566666Y-105721501D01*
X107566666Y-105721501D02*
X107728571Y-105640548D01*
X109185713Y-107340548D02*
X109185713Y-105640548D01*
X109185713Y-105640548D02*
X110157142Y-107340548D01*
X110157142Y-107340548D02*
X110157142Y-105640548D01*
X110966665Y-107340548D02*
X110966665Y-105640548D01*
X111614285Y-105640548D02*
X112747618Y-107340548D01*
X112747618Y-105640548D02*
X111614285Y-107340548D01*
X114415237Y-107340548D02*
X114415237Y-105640548D01*
X114415237Y-106450072D02*
X115386666Y-106450072D01*
X115386666Y-107340548D02*
X115386666Y-105640548D01*
X116843808Y-107259596D02*
X116681904Y-107340548D01*
X116681904Y-107340548D02*
X116358094Y-107340548D01*
X116358094Y-107340548D02*
X116196189Y-107259596D01*
X116196189Y-107259596D02*
X116115237Y-107097691D01*
X116115237Y-107097691D02*
X116115237Y-106450072D01*
X116115237Y-106450072D02*
X116196189Y-106288167D01*
X116196189Y-106288167D02*
X116358094Y-106207215D01*
X116358094Y-106207215D02*
X116681904Y-106207215D01*
X116681904Y-106207215D02*
X116843808Y-106288167D01*
X116843808Y-106288167D02*
X116924761Y-106450072D01*
X116924761Y-106450072D02*
X116924761Y-106611977D01*
X116924761Y-106611977D02*
X116115237Y-106773881D01*
X118381904Y-107340548D02*
X118381904Y-106450072D01*
X118381904Y-106450072D02*
X118300951Y-106288167D01*
X118300951Y-106288167D02*
X118139047Y-106207215D01*
X118139047Y-106207215D02*
X117815237Y-106207215D01*
X117815237Y-106207215D02*
X117653332Y-106288167D01*
X118381904Y-107259596D02*
X118219999Y-107340548D01*
X118219999Y-107340548D02*
X117815237Y-107340548D01*
X117815237Y-107340548D02*
X117653332Y-107259596D01*
X117653332Y-107259596D02*
X117572380Y-107097691D01*
X117572380Y-107097691D02*
X117572380Y-106935786D01*
X117572380Y-106935786D02*
X117653332Y-106773881D01*
X117653332Y-106773881D02*
X117815237Y-106692929D01*
X117815237Y-106692929D02*
X118219999Y-106692929D01*
X118219999Y-106692929D02*
X118381904Y-106611977D01*
X119919999Y-107340548D02*
X119919999Y-105640548D01*
X119919999Y-107259596D02*
X119758094Y-107340548D01*
X119758094Y-107340548D02*
X119434285Y-107340548D01*
X119434285Y-107340548D02*
X119272380Y-107259596D01*
X119272380Y-107259596D02*
X119191427Y-107178643D01*
X119191427Y-107178643D02*
X119110475Y-107016739D01*
X119110475Y-107016739D02*
X119110475Y-106531024D01*
X119110475Y-106531024D02*
X119191427Y-106369120D01*
X119191427Y-106369120D02*
X119272380Y-106288167D01*
X119272380Y-106288167D02*
X119434285Y-106207215D01*
X119434285Y-106207215D02*
X119758094Y-106207215D01*
X119758094Y-106207215D02*
X119919999Y-106288167D01*
X120648570Y-107259596D02*
X120810475Y-107340548D01*
X120810475Y-107340548D02*
X121134284Y-107340548D01*
X121134284Y-107340548D02*
X121296189Y-107259596D01*
X121296189Y-107259596D02*
X121377141Y-107097691D01*
X121377141Y-107097691D02*
X121377141Y-107016739D01*
X121377141Y-107016739D02*
X121296189Y-106854834D01*
X121296189Y-106854834D02*
X121134284Y-106773881D01*
X121134284Y-106773881D02*
X120891427Y-106773881D01*
X120891427Y-106773881D02*
X120729522Y-106692929D01*
X120729522Y-106692929D02*
X120648570Y-106531024D01*
X120648570Y-106531024D02*
X120648570Y-106450072D01*
X120648570Y-106450072D02*
X120729522Y-106288167D01*
X120729522Y-106288167D02*
X120891427Y-106207215D01*
X120891427Y-106207215D02*
X121134284Y-106207215D01*
X121134284Y-106207215D02*
X121296189Y-106288167D01*
X121862855Y-106207215D02*
X122510474Y-106207215D01*
X122105712Y-105640548D02*
X122105712Y-107097691D01*
X122105712Y-107097691D02*
X122186665Y-107259596D01*
X122186665Y-107259596D02*
X122348570Y-107340548D01*
X122348570Y-107340548D02*
X122510474Y-107340548D01*
X123805713Y-107340548D02*
X123805713Y-106450072D01*
X123805713Y-106450072D02*
X123724760Y-106288167D01*
X123724760Y-106288167D02*
X123562856Y-106207215D01*
X123562856Y-106207215D02*
X123239046Y-106207215D01*
X123239046Y-106207215D02*
X123077141Y-106288167D01*
X123805713Y-107259596D02*
X123643808Y-107340548D01*
X123643808Y-107340548D02*
X123239046Y-107340548D01*
X123239046Y-107340548D02*
X123077141Y-107259596D01*
X123077141Y-107259596D02*
X122996189Y-107097691D01*
X122996189Y-107097691D02*
X122996189Y-106935786D01*
X122996189Y-106935786D02*
X123077141Y-106773881D01*
X123077141Y-106773881D02*
X123239046Y-106692929D01*
X123239046Y-106692929D02*
X123643808Y-106692929D01*
X123643808Y-106692929D02*
X123805713Y-106611977D01*
X125343808Y-106207215D02*
X125343808Y-107583405D01*
X125343808Y-107583405D02*
X125262855Y-107745310D01*
X125262855Y-107745310D02*
X125181903Y-107826262D01*
X125181903Y-107826262D02*
X125019998Y-107907215D01*
X125019998Y-107907215D02*
X124777141Y-107907215D01*
X124777141Y-107907215D02*
X124615236Y-107826262D01*
X125343808Y-107259596D02*
X125181903Y-107340548D01*
X125181903Y-107340548D02*
X124858094Y-107340548D01*
X124858094Y-107340548D02*
X124696189Y-107259596D01*
X124696189Y-107259596D02*
X124615236Y-107178643D01*
X124615236Y-107178643D02*
X124534284Y-107016739D01*
X124534284Y-107016739D02*
X124534284Y-106531024D01*
X124534284Y-106531024D02*
X124615236Y-106369120D01*
X124615236Y-106369120D02*
X124696189Y-106288167D01*
X124696189Y-106288167D02*
X124858094Y-106207215D01*
X124858094Y-106207215D02*
X125181903Y-106207215D01*
X125181903Y-106207215D02*
X125343808Y-106288167D01*
X126800950Y-107259596D02*
X126639046Y-107340548D01*
X126639046Y-107340548D02*
X126315236Y-107340548D01*
X126315236Y-107340548D02*
X126153331Y-107259596D01*
X126153331Y-107259596D02*
X126072379Y-107097691D01*
X126072379Y-107097691D02*
X126072379Y-106450072D01*
X126072379Y-106450072D02*
X126153331Y-106288167D01*
X126153331Y-106288167D02*
X126315236Y-106207215D01*
X126315236Y-106207215D02*
X126639046Y-106207215D01*
X126639046Y-106207215D02*
X126800950Y-106288167D01*
X126800950Y-106288167D02*
X126881903Y-106450072D01*
X126881903Y-106450072D02*
X126881903Y-106611977D01*
X126881903Y-106611977D02*
X126072379Y-106773881D01*
X107404761Y-110094548D02*
X107404761Y-108394548D01*
X107404761Y-108394548D02*
X108376190Y-110094548D01*
X108376190Y-110094548D02*
X108376190Y-108394548D01*
X109833332Y-110013596D02*
X109671428Y-110094548D01*
X109671428Y-110094548D02*
X109347618Y-110094548D01*
X109347618Y-110094548D02*
X109185713Y-110013596D01*
X109185713Y-110013596D02*
X109104761Y-109851691D01*
X109104761Y-109851691D02*
X109104761Y-109204072D01*
X109104761Y-109204072D02*
X109185713Y-109042167D01*
X109185713Y-109042167D02*
X109347618Y-108961215D01*
X109347618Y-108961215D02*
X109671428Y-108961215D01*
X109671428Y-108961215D02*
X109833332Y-109042167D01*
X109833332Y-109042167D02*
X109914285Y-109204072D01*
X109914285Y-109204072D02*
X109914285Y-109365977D01*
X109914285Y-109365977D02*
X109104761Y-109527881D01*
X111371428Y-108961215D02*
X111371428Y-110094548D01*
X110642856Y-108961215D02*
X110642856Y-109851691D01*
X110642856Y-109851691D02*
X110723809Y-110013596D01*
X110723809Y-110013596D02*
X110885714Y-110094548D01*
X110885714Y-110094548D02*
X111128571Y-110094548D01*
X111128571Y-110094548D02*
X111290475Y-110013596D01*
X111290475Y-110013596D02*
X111371428Y-109932643D01*
X112180951Y-110094548D02*
X112180951Y-108961215D01*
X112180951Y-109285024D02*
X112261904Y-109123120D01*
X112261904Y-109123120D02*
X112342856Y-109042167D01*
X112342856Y-109042167D02*
X112504761Y-108961215D01*
X112504761Y-108961215D02*
X112666666Y-108961215D01*
X113476190Y-110094548D02*
X113314285Y-110013596D01*
X113314285Y-110013596D02*
X113233332Y-109932643D01*
X113233332Y-109932643D02*
X113152380Y-109770739D01*
X113152380Y-109770739D02*
X113152380Y-109285024D01*
X113152380Y-109285024D02*
X113233332Y-109123120D01*
X113233332Y-109123120D02*
X113314285Y-109042167D01*
X113314285Y-109042167D02*
X113476190Y-108961215D01*
X113476190Y-108961215D02*
X113719047Y-108961215D01*
X113719047Y-108961215D02*
X113880951Y-109042167D01*
X113880951Y-109042167D02*
X113961904Y-109123120D01*
X113961904Y-109123120D02*
X114042856Y-109285024D01*
X114042856Y-109285024D02*
X114042856Y-109770739D01*
X114042856Y-109770739D02*
X113961904Y-109932643D01*
X113961904Y-109932643D02*
X113880951Y-110013596D01*
X113880951Y-110013596D02*
X113719047Y-110094548D01*
X113719047Y-110094548D02*
X113476190Y-110094548D01*
X114771427Y-108961215D02*
X114771427Y-110661215D01*
X114771427Y-109042167D02*
X114933332Y-108961215D01*
X114933332Y-108961215D02*
X115257142Y-108961215D01*
X115257142Y-108961215D02*
X115419046Y-109042167D01*
X115419046Y-109042167D02*
X115499999Y-109123120D01*
X115499999Y-109123120D02*
X115580951Y-109285024D01*
X115580951Y-109285024D02*
X115580951Y-109770739D01*
X115580951Y-109770739D02*
X115499999Y-109932643D01*
X115499999Y-109932643D02*
X115419046Y-110013596D01*
X115419046Y-110013596D02*
X115257142Y-110094548D01*
X115257142Y-110094548D02*
X114933332Y-110094548D01*
X114933332Y-110094548D02*
X114771427Y-110013596D01*
X116309522Y-110094548D02*
X116309522Y-108961215D01*
X116309522Y-108394548D02*
X116228570Y-108475501D01*
X116228570Y-108475501D02*
X116309522Y-108556453D01*
X116309522Y-108556453D02*
X116390475Y-108475501D01*
X116390475Y-108475501D02*
X116309522Y-108394548D01*
X116309522Y-108394548D02*
X116309522Y-108556453D01*
X116957142Y-110094548D02*
X117847618Y-108961215D01*
X116957142Y-108961215D02*
X117847618Y-110094548D01*
X118495236Y-109446929D02*
X119790475Y-109446929D01*
X120519046Y-108556453D02*
X120599998Y-108475501D01*
X120599998Y-108475501D02*
X120761903Y-108394548D01*
X120761903Y-108394548D02*
X121166665Y-108394548D01*
X121166665Y-108394548D02*
X121328570Y-108475501D01*
X121328570Y-108475501D02*
X121409522Y-108556453D01*
X121409522Y-108556453D02*
X121490475Y-108718358D01*
X121490475Y-108718358D02*
X121490475Y-108880262D01*
X121490475Y-108880262D02*
X121409522Y-109123120D01*
X121409522Y-109123120D02*
X120438094Y-110094548D01*
X120438094Y-110094548D02*
X121490475Y-110094548D01*
X122219046Y-109932643D02*
X122299999Y-110013596D01*
X122299999Y-110013596D02*
X122219046Y-110094548D01*
X122219046Y-110094548D02*
X122138094Y-110013596D01*
X122138094Y-110013596D02*
X122219046Y-109932643D01*
X122219046Y-109932643D02*
X122219046Y-110094548D01*
X123352380Y-108394548D02*
X123514285Y-108394548D01*
X123514285Y-108394548D02*
X123676189Y-108475501D01*
X123676189Y-108475501D02*
X123757142Y-108556453D01*
X123757142Y-108556453D02*
X123838094Y-108718358D01*
X123838094Y-108718358D02*
X123919047Y-109042167D01*
X123919047Y-109042167D02*
X123919047Y-109446929D01*
X123919047Y-109446929D02*
X123838094Y-109770739D01*
X123838094Y-109770739D02*
X123757142Y-109932643D01*
X123757142Y-109932643D02*
X123676189Y-110013596D01*
X123676189Y-110013596D02*
X123514285Y-110094548D01*
X123514285Y-110094548D02*
X123352380Y-110094548D01*
X123352380Y-110094548D02*
X123190475Y-110013596D01*
X123190475Y-110013596D02*
X123109523Y-109932643D01*
X123109523Y-109932643D02*
X123028570Y-109770739D01*
X123028570Y-109770739D02*
X122947618Y-109446929D01*
X122947618Y-109446929D02*
X122947618Y-109042167D01*
X122947618Y-109042167D02*
X123028570Y-108718358D01*
X123028570Y-108718358D02*
X123109523Y-108556453D01*
X123109523Y-108556453D02*
X123190475Y-108475501D01*
X123190475Y-108475501D02*
X123352380Y-108394548D01*
X125295237Y-110013596D02*
X125133333Y-110094548D01*
X125133333Y-110094548D02*
X124809523Y-110094548D01*
X124809523Y-110094548D02*
X124647618Y-110013596D01*
X124647618Y-110013596D02*
X124566666Y-109851691D01*
X124566666Y-109851691D02*
X124566666Y-109204072D01*
X124566666Y-109204072D02*
X124647618Y-109042167D01*
X124647618Y-109042167D02*
X124809523Y-108961215D01*
X124809523Y-108961215D02*
X125133333Y-108961215D01*
X125133333Y-108961215D02*
X125295237Y-109042167D01*
X125295237Y-109042167D02*
X125376190Y-109204072D01*
X125376190Y-109204072D02*
X125376190Y-109365977D01*
X125376190Y-109365977D02*
X124566666Y-109527881D01*
X107971428Y-111958072D02*
X108214285Y-112039024D01*
X108214285Y-112039024D02*
X108295238Y-112119977D01*
X108295238Y-112119977D02*
X108376190Y-112281881D01*
X108376190Y-112281881D02*
X108376190Y-112524739D01*
X108376190Y-112524739D02*
X108295238Y-112686643D01*
X108295238Y-112686643D02*
X108214285Y-112767596D01*
X108214285Y-112767596D02*
X108052380Y-112848548D01*
X108052380Y-112848548D02*
X107404761Y-112848548D01*
X107404761Y-112848548D02*
X107404761Y-111148548D01*
X107404761Y-111148548D02*
X107971428Y-111148548D01*
X107971428Y-111148548D02*
X108133333Y-111229501D01*
X108133333Y-111229501D02*
X108214285Y-111310453D01*
X108214285Y-111310453D02*
X108295238Y-111472358D01*
X108295238Y-111472358D02*
X108295238Y-111634262D01*
X108295238Y-111634262D02*
X108214285Y-111796167D01*
X108214285Y-111796167D02*
X108133333Y-111877120D01*
X108133333Y-111877120D02*
X107971428Y-111958072D01*
X107971428Y-111958072D02*
X107404761Y-111958072D01*
X109347619Y-112848548D02*
X109185714Y-112767596D01*
X109185714Y-112767596D02*
X109104761Y-112686643D01*
X109104761Y-112686643D02*
X109023809Y-112524739D01*
X109023809Y-112524739D02*
X109023809Y-112039024D01*
X109023809Y-112039024D02*
X109104761Y-111877120D01*
X109104761Y-111877120D02*
X109185714Y-111796167D01*
X109185714Y-111796167D02*
X109347619Y-111715215D01*
X109347619Y-111715215D02*
X109590476Y-111715215D01*
X109590476Y-111715215D02*
X109752380Y-111796167D01*
X109752380Y-111796167D02*
X109833333Y-111877120D01*
X109833333Y-111877120D02*
X109914285Y-112039024D01*
X109914285Y-112039024D02*
X109914285Y-112524739D01*
X109914285Y-112524739D02*
X109833333Y-112686643D01*
X109833333Y-112686643D02*
X109752380Y-112767596D01*
X109752380Y-112767596D02*
X109590476Y-112848548D01*
X109590476Y-112848548D02*
X109347619Y-112848548D01*
X111371428Y-112848548D02*
X111371428Y-111958072D01*
X111371428Y-111958072D02*
X111290475Y-111796167D01*
X111290475Y-111796167D02*
X111128571Y-111715215D01*
X111128571Y-111715215D02*
X110804761Y-111715215D01*
X110804761Y-111715215D02*
X110642856Y-111796167D01*
X111371428Y-112767596D02*
X111209523Y-112848548D01*
X111209523Y-112848548D02*
X110804761Y-112848548D01*
X110804761Y-112848548D02*
X110642856Y-112767596D01*
X110642856Y-112767596D02*
X110561904Y-112605691D01*
X110561904Y-112605691D02*
X110561904Y-112443786D01*
X110561904Y-112443786D02*
X110642856Y-112281881D01*
X110642856Y-112281881D02*
X110804761Y-112200929D01*
X110804761Y-112200929D02*
X111209523Y-112200929D01*
X111209523Y-112200929D02*
X111371428Y-112119977D01*
X112180951Y-112848548D02*
X112180951Y-111715215D01*
X112180951Y-112039024D02*
X112261904Y-111877120D01*
X112261904Y-111877120D02*
X112342856Y-111796167D01*
X112342856Y-111796167D02*
X112504761Y-111715215D01*
X112504761Y-111715215D02*
X112666666Y-111715215D01*
X113961904Y-112848548D02*
X113961904Y-111148548D01*
X113961904Y-112767596D02*
X113799999Y-112848548D01*
X113799999Y-112848548D02*
X113476190Y-112848548D01*
X113476190Y-112848548D02*
X113314285Y-112767596D01*
X113314285Y-112767596D02*
X113233332Y-112686643D01*
X113233332Y-112686643D02*
X113152380Y-112524739D01*
X113152380Y-112524739D02*
X113152380Y-112039024D01*
X113152380Y-112039024D02*
X113233332Y-111877120D01*
X113233332Y-111877120D02*
X113314285Y-111796167D01*
X113314285Y-111796167D02*
X113476190Y-111715215D01*
X113476190Y-111715215D02*
X113799999Y-111715215D01*
X113799999Y-111715215D02*
X113961904Y-111796167D01*
X116762856Y-112848548D02*
X116196189Y-112039024D01*
X115791427Y-112848548D02*
X115791427Y-111148548D01*
X115791427Y-111148548D02*
X116439046Y-111148548D01*
X116439046Y-111148548D02*
X116600951Y-111229501D01*
X116600951Y-111229501D02*
X116681904Y-111310453D01*
X116681904Y-111310453D02*
X116762856Y-111472358D01*
X116762856Y-111472358D02*
X116762856Y-111715215D01*
X116762856Y-111715215D02*
X116681904Y-111877120D01*
X116681904Y-111877120D02*
X116600951Y-111958072D01*
X116600951Y-111958072D02*
X116439046Y-112039024D01*
X116439046Y-112039024D02*
X115791427Y-112039024D01*
X118139046Y-112767596D02*
X117977142Y-112848548D01*
X117977142Y-112848548D02*
X117653332Y-112848548D01*
X117653332Y-112848548D02*
X117491427Y-112767596D01*
X117491427Y-112767596D02*
X117410475Y-112605691D01*
X117410475Y-112605691D02*
X117410475Y-111958072D01*
X117410475Y-111958072D02*
X117491427Y-111796167D01*
X117491427Y-111796167D02*
X117653332Y-111715215D01*
X117653332Y-111715215D02*
X117977142Y-111715215D01*
X117977142Y-111715215D02*
X118139046Y-111796167D01*
X118139046Y-111796167D02*
X118219999Y-111958072D01*
X118219999Y-111958072D02*
X118219999Y-112119977D01*
X118219999Y-112119977D02*
X117410475Y-112281881D01*
X118786666Y-111715215D02*
X119191428Y-112848548D01*
X119191428Y-112848548D02*
X119596189Y-111715215D01*
X120243808Y-112686643D02*
X120324761Y-112767596D01*
X120324761Y-112767596D02*
X120243808Y-112848548D01*
X120243808Y-112848548D02*
X120162856Y-112767596D01*
X120162856Y-112767596D02*
X120243808Y-112686643D01*
X120243808Y-112686643D02*
X120243808Y-112848548D01*
X121992380Y-112362834D02*
X122801904Y-112362834D01*
X121830475Y-112848548D02*
X122397142Y-111148548D01*
X122397142Y-111148548D02*
X122963809Y-112848548D01*
D11*
X117480190Y-99716666D02*
X117542095Y-99530952D01*
X117542095Y-99530952D02*
X117542095Y-99221428D01*
X117542095Y-99221428D02*
X117480190Y-99097619D01*
X117480190Y-99097619D02*
X117418285Y-99035714D01*
X117418285Y-99035714D02*
X117294476Y-98973809D01*
X117294476Y-98973809D02*
X117170666Y-98973809D01*
X117170666Y-98973809D02*
X117046857Y-99035714D01*
X117046857Y-99035714D02*
X116984952Y-99097619D01*
X116984952Y-99097619D02*
X116923047Y-99221428D01*
X116923047Y-99221428D02*
X116861142Y-99469047D01*
X116861142Y-99469047D02*
X116799238Y-99592857D01*
X116799238Y-99592857D02*
X116737333Y-99654762D01*
X116737333Y-99654762D02*
X116613523Y-99716666D01*
X116613523Y-99716666D02*
X116489714Y-99716666D01*
X116489714Y-99716666D02*
X116365904Y-99654762D01*
X116365904Y-99654762D02*
X116304000Y-99592857D01*
X116304000Y-99592857D02*
X116242095Y-99469047D01*
X116242095Y-99469047D02*
X116242095Y-99159524D01*
X116242095Y-99159524D02*
X116304000Y-98973809D01*
X117418285Y-97673810D02*
X117480190Y-97735714D01*
X117480190Y-97735714D02*
X117542095Y-97921429D01*
X117542095Y-97921429D02*
X117542095Y-98045238D01*
X117542095Y-98045238D02*
X117480190Y-98230952D01*
X117480190Y-98230952D02*
X117356380Y-98354762D01*
X117356380Y-98354762D02*
X117232571Y-98416667D01*
X117232571Y-98416667D02*
X116984952Y-98478571D01*
X116984952Y-98478571D02*
X116799238Y-98478571D01*
X116799238Y-98478571D02*
X116551619Y-98416667D01*
X116551619Y-98416667D02*
X116427809Y-98354762D01*
X116427809Y-98354762D02*
X116304000Y-98230952D01*
X116304000Y-98230952D02*
X116242095Y-98045238D01*
X116242095Y-98045238D02*
X116242095Y-97921429D01*
X116242095Y-97921429D02*
X116304000Y-97735714D01*
X116304000Y-97735714D02*
X116365904Y-97673810D01*
X117542095Y-96497619D02*
X117542095Y-97116667D01*
X117542095Y-97116667D02*
X116242095Y-97116667D01*
X123480190Y-99788094D02*
X123542095Y-99602380D01*
X123542095Y-99602380D02*
X123542095Y-99292856D01*
X123542095Y-99292856D02*
X123480190Y-99169047D01*
X123480190Y-99169047D02*
X123418285Y-99107142D01*
X123418285Y-99107142D02*
X123294476Y-99045237D01*
X123294476Y-99045237D02*
X123170666Y-99045237D01*
X123170666Y-99045237D02*
X123046857Y-99107142D01*
X123046857Y-99107142D02*
X122984952Y-99169047D01*
X122984952Y-99169047D02*
X122923047Y-99292856D01*
X122923047Y-99292856D02*
X122861142Y-99540475D01*
X122861142Y-99540475D02*
X122799238Y-99664285D01*
X122799238Y-99664285D02*
X122737333Y-99726190D01*
X122737333Y-99726190D02*
X122613523Y-99788094D01*
X122613523Y-99788094D02*
X122489714Y-99788094D01*
X122489714Y-99788094D02*
X122365904Y-99726190D01*
X122365904Y-99726190D02*
X122304000Y-99664285D01*
X122304000Y-99664285D02*
X122242095Y-99540475D01*
X122242095Y-99540475D02*
X122242095Y-99230952D01*
X122242095Y-99230952D02*
X122304000Y-99045237D01*
X123542095Y-98488095D02*
X122242095Y-98488095D01*
X122242095Y-98488095D02*
X122242095Y-98178571D01*
X122242095Y-98178571D02*
X122304000Y-97992857D01*
X122304000Y-97992857D02*
X122427809Y-97869047D01*
X122427809Y-97869047D02*
X122551619Y-97807142D01*
X122551619Y-97807142D02*
X122799238Y-97745238D01*
X122799238Y-97745238D02*
X122984952Y-97745238D01*
X122984952Y-97745238D02*
X123232571Y-97807142D01*
X123232571Y-97807142D02*
X123356380Y-97869047D01*
X123356380Y-97869047D02*
X123480190Y-97992857D01*
X123480190Y-97992857D02*
X123542095Y-98178571D01*
X123542095Y-98178571D02*
X123542095Y-98488095D01*
X123170666Y-97249999D02*
X123170666Y-96630952D01*
X123542095Y-97373809D02*
X122242095Y-96940476D01*
X122242095Y-96940476D02*
X123542095Y-96507142D01*
X117542095Y-83690476D02*
X116242095Y-83690476D01*
X116242095Y-83690476D02*
X117542095Y-82947619D01*
X117542095Y-82947619D02*
X116242095Y-82947619D01*
X117418285Y-81585714D02*
X117480190Y-81647618D01*
X117480190Y-81647618D02*
X117542095Y-81833333D01*
X117542095Y-81833333D02*
X117542095Y-81957142D01*
X117542095Y-81957142D02*
X117480190Y-82142856D01*
X117480190Y-82142856D02*
X117356380Y-82266666D01*
X117356380Y-82266666D02*
X117232571Y-82328571D01*
X117232571Y-82328571D02*
X116984952Y-82390475D01*
X116984952Y-82390475D02*
X116799238Y-82390475D01*
X116799238Y-82390475D02*
X116551619Y-82328571D01*
X116551619Y-82328571D02*
X116427809Y-82266666D01*
X116427809Y-82266666D02*
X116304000Y-82142856D01*
X116304000Y-82142856D02*
X116242095Y-81957142D01*
X116242095Y-81957142D02*
X116242095Y-81833333D01*
X116242095Y-81833333D02*
X116304000Y-81647618D01*
X116304000Y-81647618D02*
X116365904Y-81585714D01*
X110304000Y-83009523D02*
X110242095Y-83133333D01*
X110242095Y-83133333D02*
X110242095Y-83319047D01*
X110242095Y-83319047D02*
X110304000Y-83504761D01*
X110304000Y-83504761D02*
X110427809Y-83628571D01*
X110427809Y-83628571D02*
X110551619Y-83690476D01*
X110551619Y-83690476D02*
X110799238Y-83752380D01*
X110799238Y-83752380D02*
X110984952Y-83752380D01*
X110984952Y-83752380D02*
X111232571Y-83690476D01*
X111232571Y-83690476D02*
X111356380Y-83628571D01*
X111356380Y-83628571D02*
X111480190Y-83504761D01*
X111480190Y-83504761D02*
X111542095Y-83319047D01*
X111542095Y-83319047D02*
X111542095Y-83195238D01*
X111542095Y-83195238D02*
X111480190Y-83009523D01*
X111480190Y-83009523D02*
X111418285Y-82947619D01*
X111418285Y-82947619D02*
X110984952Y-82947619D01*
X110984952Y-82947619D02*
X110984952Y-83195238D01*
X111542095Y-82390476D02*
X110242095Y-82390476D01*
X110242095Y-82390476D02*
X111542095Y-81647619D01*
X111542095Y-81647619D02*
X110242095Y-81647619D01*
X111542095Y-81028571D02*
X110242095Y-81028571D01*
X110242095Y-81028571D02*
X110242095Y-80719047D01*
X110242095Y-80719047D02*
X110304000Y-80533333D01*
X110304000Y-80533333D02*
X110427809Y-80409523D01*
X110427809Y-80409523D02*
X110551619Y-80347618D01*
X110551619Y-80347618D02*
X110799238Y-80285714D01*
X110799238Y-80285714D02*
X110984952Y-80285714D01*
X110984952Y-80285714D02*
X111232571Y-80347618D01*
X111232571Y-80347618D02*
X111356380Y-80409523D01*
X111356380Y-80409523D02*
X111480190Y-80533333D01*
X111480190Y-80533333D02*
X111542095Y-80719047D01*
X111542095Y-80719047D02*
X111542095Y-81028571D01*
X147137380Y-84855714D02*
X147137380Y-85331904D01*
X147137380Y-85331904D02*
X146137380Y-85331904D01*
D10*
%TO.C,J5*%
X140208333Y-84133904D02*
X140208333Y-84705333D01*
X140208333Y-84705333D02*
X140170238Y-84819619D01*
X140170238Y-84819619D02*
X140094047Y-84895809D01*
X140094047Y-84895809D02*
X139979762Y-84933904D01*
X139979762Y-84933904D02*
X139903571Y-84933904D01*
X140970238Y-84133904D02*
X140589286Y-84133904D01*
X140589286Y-84133904D02*
X140551190Y-84514857D01*
X140551190Y-84514857D02*
X140589286Y-84476761D01*
X140589286Y-84476761D02*
X140665476Y-84438666D01*
X140665476Y-84438666D02*
X140855952Y-84438666D01*
X140855952Y-84438666D02*
X140932143Y-84476761D01*
X140932143Y-84476761D02*
X140970238Y-84514857D01*
X140970238Y-84514857D02*
X141008333Y-84591047D01*
X141008333Y-84591047D02*
X141008333Y-84781523D01*
X141008333Y-84781523D02*
X140970238Y-84857714D01*
X140970238Y-84857714D02*
X140932143Y-84895809D01*
X140932143Y-84895809D02*
X140855952Y-84933904D01*
X140855952Y-84933904D02*
X140665476Y-84933904D01*
X140665476Y-84933904D02*
X140589286Y-84895809D01*
X140589286Y-84895809D02*
X140551190Y-84857714D01*
%TO.C,J4*%
X111891666Y-89867380D02*
X111891666Y-90581666D01*
X111891666Y-90581666D02*
X111844047Y-90724523D01*
X111844047Y-90724523D02*
X111748809Y-90819761D01*
X111748809Y-90819761D02*
X111605952Y-90867380D01*
X111605952Y-90867380D02*
X111510714Y-90867380D01*
X112796428Y-90200714D02*
X112796428Y-90867380D01*
X112558333Y-89819761D02*
X112320238Y-90534047D01*
X112320238Y-90534047D02*
X112939285Y-90534047D01*
D13*
%TO.C,U7*%
X137902500Y-92260000D02*
X137902500Y-92000000D01*
X143322500Y-92260000D02*
X143322500Y-92000000D01*
X137902500Y-88240000D02*
X138162500Y-88240000D01*
X143322500Y-88240000D02*
X143062500Y-88240000D01*
X143322500Y-88240000D02*
X143322500Y-88500000D01*
X143322500Y-92260000D02*
X143062500Y-92260000D01*
X137902500Y-92260000D02*
X138162500Y-92260000D01*
D14*
%TO.C,J1*%
X141425000Y-82400000D02*
X142025000Y-82400000D01*
X142020000Y-84500000D02*
X141430000Y-84500000D01*
X143025000Y-82400000D02*
X143625000Y-82400000D01*
D13*
%TO.C,C15*%
X142485000Y-86357836D02*
X142485000Y-86142164D01*
X141765000Y-86357836D02*
X141765000Y-86142164D01*
%TO.C,J4*%
X118555000Y-89190000D02*
X119190000Y-89190000D01*
X119190000Y-89190000D02*
X119190000Y-89825000D01*
%TO.C,U1*%
X138925000Y-87810000D02*
X140525000Y-87810000D01*
X139725000Y-85990000D02*
X140525000Y-85990000D01*
%TO.C,C3*%
X137765000Y-86792164D02*
X137765000Y-87007836D01*
X138485000Y-86792164D02*
X138485000Y-87007836D01*
%TO.C,TP3*%
X146755000Y-92140000D02*
G75*
G03*
X146755000Y-92140000I-400000J0D01*
G01*
%TO.C,C18*%
X145362836Y-88110000D02*
X145147164Y-88110000D01*
X145362836Y-88830000D02*
X145147164Y-88830000D01*
%TO.C,U4*%
X144445000Y-91000000D02*
X144445000Y-89660000D01*
X144915000Y-89220000D02*
X145685000Y-89220000D01*
X145435000Y-89220000D02*
X145685000Y-89220000D01*
X145435000Y-89220000D02*
X145685000Y-89220000D01*
X145685000Y-91000000D02*
X144445000Y-91000000D01*
X145685000Y-91000000D02*
X145685000Y-89220000D01*
%TO.C,D1*%
X145075000Y-86250000D02*
X145075000Y-87050000D01*
%TD*%
M02*
