%TF.GenerationSoftware,KiCad,Pcbnew,(7.0.0)*%
%TF.CreationDate,2023-03-01T11:35:52-05:00*%
%TF.ProjectId,headstage-neuropix2e,68656164-7374-4616-9765-2d6e6575726f,A*%
%TF.SameCoordinates,Original*%
%TF.FileFunction,Legend,Top*%
%TF.FilePolarity,Positive*%
%FSLAX46Y46*%
G04 Gerber Fmt 4.6, Leading zero omitted, Abs format (unit mm)*
G04 Created by KiCad (PCBNEW (7.0.0)) date 2023-03-01 11:35:52*
%MOMM*%
%LPD*%
G01*
G04 APERTURE LIST*
%ADD10C,0.150000*%
%ADD11C,0.200000*%
%ADD12C,0.300000*%
%ADD13C,0.120000*%
%ADD14C,0.127000*%
G04 APERTURE END LIST*
D10*
X122500000Y-94440000D02*
X119500000Y-94947500D01*
X113100000Y-100240000D02*
X115200000Y-97640000D01*
X113100000Y-92140000D02*
X115300000Y-94240000D01*
X118000000Y-99240000D02*
X118300000Y-100540000D01*
X118800000Y-91640000D02*
X118200000Y-92940000D01*
X122600000Y-97340000D02*
X119500000Y-96800000D01*
D11*
X119874809Y-83595119D02*
X119812904Y-83780833D01*
X119812904Y-83780833D02*
X119812904Y-84090357D01*
X119812904Y-84090357D02*
X119874809Y-84214166D01*
X119874809Y-84214166D02*
X119936714Y-84276071D01*
X119936714Y-84276071D02*
X120060523Y-84337976D01*
X120060523Y-84337976D02*
X120184333Y-84337976D01*
X120184333Y-84337976D02*
X120308142Y-84276071D01*
X120308142Y-84276071D02*
X120370047Y-84214166D01*
X120370047Y-84214166D02*
X120431952Y-84090357D01*
X120431952Y-84090357D02*
X120493857Y-83842738D01*
X120493857Y-83842738D02*
X120555761Y-83718928D01*
X120555761Y-83718928D02*
X120617666Y-83657023D01*
X120617666Y-83657023D02*
X120741476Y-83595119D01*
X120741476Y-83595119D02*
X120865285Y-83595119D01*
X120865285Y-83595119D02*
X120989095Y-83657023D01*
X120989095Y-83657023D02*
X121051000Y-83718928D01*
X121051000Y-83718928D02*
X121112904Y-83842738D01*
X121112904Y-83842738D02*
X121112904Y-84152261D01*
X121112904Y-84152261D02*
X121051000Y-84337976D01*
X119936714Y-85637975D02*
X119874809Y-85576071D01*
X119874809Y-85576071D02*
X119812904Y-85390356D01*
X119812904Y-85390356D02*
X119812904Y-85266547D01*
X119812904Y-85266547D02*
X119874809Y-85080833D01*
X119874809Y-85080833D02*
X119998619Y-84957023D01*
X119998619Y-84957023D02*
X120122428Y-84895118D01*
X120122428Y-84895118D02*
X120370047Y-84833214D01*
X120370047Y-84833214D02*
X120555761Y-84833214D01*
X120555761Y-84833214D02*
X120803380Y-84895118D01*
X120803380Y-84895118D02*
X120927190Y-84957023D01*
X120927190Y-84957023D02*
X121051000Y-85080833D01*
X121051000Y-85080833D02*
X121112904Y-85266547D01*
X121112904Y-85266547D02*
X121112904Y-85390356D01*
X121112904Y-85390356D02*
X121051000Y-85576071D01*
X121051000Y-85576071D02*
X120989095Y-85637975D01*
X119812904Y-86814166D02*
X119812904Y-86195118D01*
X119812904Y-86195118D02*
X121112904Y-86195118D01*
X107380952Y-117077595D02*
X107380952Y-118006166D01*
X107380952Y-118006166D02*
X107319047Y-118191880D01*
X107319047Y-118191880D02*
X107195238Y-118315690D01*
X107195238Y-118315690D02*
X107009523Y-118377595D01*
X107009523Y-118377595D02*
X106885714Y-118377595D01*
X107999999Y-118377595D02*
X107999999Y-117077595D01*
X107999999Y-117077595D02*
X108495237Y-117077595D01*
X108495237Y-117077595D02*
X108619047Y-117139500D01*
X108619047Y-117139500D02*
X108680952Y-117201404D01*
X108680952Y-117201404D02*
X108742856Y-117325214D01*
X108742856Y-117325214D02*
X108742856Y-117510928D01*
X108742856Y-117510928D02*
X108680952Y-117634738D01*
X108680952Y-117634738D02*
X108619047Y-117696642D01*
X108619047Y-117696642D02*
X108495237Y-117758547D01*
X108495237Y-117758547D02*
X107999999Y-117758547D01*
X109299999Y-118377595D02*
X109299999Y-117077595D01*
X109299999Y-117077595D02*
X110042856Y-118377595D01*
X110042856Y-118377595D02*
X110042856Y-117077595D01*
X110723809Y-118315690D02*
X110723809Y-118377595D01*
X110723809Y-118377595D02*
X110661904Y-118501404D01*
X110661904Y-118501404D02*
X110600000Y-118563309D01*
X112308571Y-117077595D02*
X112556190Y-117077595D01*
X112556190Y-117077595D02*
X112680000Y-117139500D01*
X112680000Y-117139500D02*
X112803809Y-117263309D01*
X112803809Y-117263309D02*
X112865714Y-117510928D01*
X112865714Y-117510928D02*
X112865714Y-117944261D01*
X112865714Y-117944261D02*
X112803809Y-118191880D01*
X112803809Y-118191880D02*
X112680000Y-118315690D01*
X112680000Y-118315690D02*
X112556190Y-118377595D01*
X112556190Y-118377595D02*
X112308571Y-118377595D01*
X112308571Y-118377595D02*
X112184762Y-118315690D01*
X112184762Y-118315690D02*
X112060952Y-118191880D01*
X112060952Y-118191880D02*
X111999048Y-117944261D01*
X111999048Y-117944261D02*
X111999048Y-117510928D01*
X111999048Y-117510928D02*
X112060952Y-117263309D01*
X112060952Y-117263309D02*
X112184762Y-117139500D01*
X112184762Y-117139500D02*
X112308571Y-117077595D01*
X113422857Y-117510928D02*
X113422857Y-118810928D01*
X113422857Y-117572833D02*
X113546667Y-117510928D01*
X113546667Y-117510928D02*
X113794286Y-117510928D01*
X113794286Y-117510928D02*
X113918095Y-117572833D01*
X113918095Y-117572833D02*
X113980000Y-117634738D01*
X113980000Y-117634738D02*
X114041905Y-117758547D01*
X114041905Y-117758547D02*
X114041905Y-118129976D01*
X114041905Y-118129976D02*
X113980000Y-118253785D01*
X113980000Y-118253785D02*
X113918095Y-118315690D01*
X113918095Y-118315690D02*
X113794286Y-118377595D01*
X113794286Y-118377595D02*
X113546667Y-118377595D01*
X113546667Y-118377595D02*
X113422857Y-118315690D01*
X115094285Y-118315690D02*
X114970476Y-118377595D01*
X114970476Y-118377595D02*
X114722857Y-118377595D01*
X114722857Y-118377595D02*
X114599047Y-118315690D01*
X114599047Y-118315690D02*
X114537143Y-118191880D01*
X114537143Y-118191880D02*
X114537143Y-117696642D01*
X114537143Y-117696642D02*
X114599047Y-117572833D01*
X114599047Y-117572833D02*
X114722857Y-117510928D01*
X114722857Y-117510928D02*
X114970476Y-117510928D01*
X114970476Y-117510928D02*
X115094285Y-117572833D01*
X115094285Y-117572833D02*
X115156190Y-117696642D01*
X115156190Y-117696642D02*
X115156190Y-117820452D01*
X115156190Y-117820452D02*
X114537143Y-117944261D01*
X115713333Y-117510928D02*
X115713333Y-118377595D01*
X115713333Y-117634738D02*
X115775238Y-117572833D01*
X115775238Y-117572833D02*
X115899048Y-117510928D01*
X115899048Y-117510928D02*
X116084762Y-117510928D01*
X116084762Y-117510928D02*
X116208571Y-117572833D01*
X116208571Y-117572833D02*
X116270476Y-117696642D01*
X116270476Y-117696642D02*
X116270476Y-118377595D01*
X117669523Y-117696642D02*
X118102857Y-117696642D01*
X118288571Y-118377595D02*
X117669523Y-118377595D01*
X117669523Y-118377595D02*
X117669523Y-117077595D01*
X117669523Y-117077595D02*
X118288571Y-117077595D01*
X118845713Y-117510928D02*
X118845713Y-118810928D01*
X118845713Y-117572833D02*
X118969523Y-117510928D01*
X118969523Y-117510928D02*
X119217142Y-117510928D01*
X119217142Y-117510928D02*
X119340951Y-117572833D01*
X119340951Y-117572833D02*
X119402856Y-117634738D01*
X119402856Y-117634738D02*
X119464761Y-117758547D01*
X119464761Y-117758547D02*
X119464761Y-118129976D01*
X119464761Y-118129976D02*
X119402856Y-118253785D01*
X119402856Y-118253785D02*
X119340951Y-118315690D01*
X119340951Y-118315690D02*
X119217142Y-118377595D01*
X119217142Y-118377595D02*
X118969523Y-118377595D01*
X118969523Y-118377595D02*
X118845713Y-118315690D01*
X120021903Y-118377595D02*
X120021903Y-117077595D01*
X120579046Y-118377595D02*
X120579046Y-117696642D01*
X120579046Y-117696642D02*
X120517141Y-117572833D01*
X120517141Y-117572833D02*
X120393332Y-117510928D01*
X120393332Y-117510928D02*
X120207618Y-117510928D01*
X120207618Y-117510928D02*
X120083808Y-117572833D01*
X120083808Y-117572833D02*
X120021903Y-117634738D01*
X121074284Y-117510928D02*
X121383808Y-118377595D01*
X121693331Y-117510928D02*
X121383808Y-118377595D01*
X121383808Y-118377595D02*
X121259998Y-118687119D01*
X121259998Y-118687119D02*
X121198093Y-118749023D01*
X121198093Y-118749023D02*
X121074284Y-118810928D01*
X122126665Y-118315690D02*
X122250474Y-118377595D01*
X122250474Y-118377595D02*
X122498093Y-118377595D01*
X122498093Y-118377595D02*
X122621903Y-118315690D01*
X122621903Y-118315690D02*
X122683807Y-118191880D01*
X122683807Y-118191880D02*
X122683807Y-118129976D01*
X122683807Y-118129976D02*
X122621903Y-118006166D01*
X122621903Y-118006166D02*
X122498093Y-117944261D01*
X122498093Y-117944261D02*
X122312379Y-117944261D01*
X122312379Y-117944261D02*
X122188569Y-117882357D01*
X122188569Y-117882357D02*
X122126665Y-117758547D01*
X122126665Y-117758547D02*
X122126665Y-117696642D01*
X122126665Y-117696642D02*
X122188569Y-117572833D01*
X122188569Y-117572833D02*
X122312379Y-117510928D01*
X122312379Y-117510928D02*
X122498093Y-117510928D01*
X122498093Y-117510928D02*
X122621903Y-117572833D01*
X124020950Y-118377595D02*
X124020950Y-117077595D01*
X124639998Y-117510928D02*
X124639998Y-118377595D01*
X124639998Y-117634738D02*
X124701903Y-117572833D01*
X124701903Y-117572833D02*
X124825713Y-117510928D01*
X124825713Y-117510928D02*
X125011427Y-117510928D01*
X125011427Y-117510928D02*
X125135236Y-117572833D01*
X125135236Y-117572833D02*
X125197141Y-117696642D01*
X125197141Y-117696642D02*
X125197141Y-118377595D01*
X126373331Y-118315690D02*
X126249522Y-118377595D01*
X126249522Y-118377595D02*
X126001903Y-118377595D01*
X126001903Y-118377595D02*
X125878093Y-118315690D01*
X125878093Y-118315690D02*
X125816188Y-118253785D01*
X125816188Y-118253785D02*
X125754284Y-118129976D01*
X125754284Y-118129976D02*
X125754284Y-117758547D01*
X125754284Y-117758547D02*
X125816188Y-117634738D01*
X125816188Y-117634738D02*
X125878093Y-117572833D01*
X125878093Y-117572833D02*
X126001903Y-117510928D01*
X126001903Y-117510928D02*
X126249522Y-117510928D01*
X126249522Y-117510928D02*
X126373331Y-117572833D01*
X126930474Y-118253785D02*
X126992379Y-118315690D01*
X126992379Y-118315690D02*
X126930474Y-118377595D01*
X126930474Y-118377595D02*
X126868570Y-118315690D01*
X126868570Y-118315690D02*
X126930474Y-118253785D01*
X126930474Y-118253785D02*
X126930474Y-118377595D01*
X127611427Y-118315690D02*
X127611427Y-118377595D01*
X127611427Y-118377595D02*
X127549522Y-118501404D01*
X127549522Y-118501404D02*
X127487618Y-118563309D01*
X129010475Y-117077595D02*
X128886666Y-117325214D01*
X129505714Y-117201404D02*
X129567618Y-117139500D01*
X129567618Y-117139500D02*
X129691428Y-117077595D01*
X129691428Y-117077595D02*
X130000952Y-117077595D01*
X130000952Y-117077595D02*
X130124761Y-117139500D01*
X130124761Y-117139500D02*
X130186666Y-117201404D01*
X130186666Y-117201404D02*
X130248571Y-117325214D01*
X130248571Y-117325214D02*
X130248571Y-117449023D01*
X130248571Y-117449023D02*
X130186666Y-117634738D01*
X130186666Y-117634738D02*
X129443809Y-118377595D01*
X129443809Y-118377595D02*
X130248571Y-118377595D01*
X130681904Y-117077595D02*
X131486666Y-117077595D01*
X131486666Y-117077595D02*
X131053332Y-117572833D01*
X131053332Y-117572833D02*
X131239047Y-117572833D01*
X131239047Y-117572833D02*
X131362856Y-117634738D01*
X131362856Y-117634738D02*
X131424761Y-117696642D01*
X131424761Y-117696642D02*
X131486666Y-117820452D01*
X131486666Y-117820452D02*
X131486666Y-118129976D01*
X131486666Y-118129976D02*
X131424761Y-118253785D01*
X131424761Y-118253785D02*
X131362856Y-118315690D01*
X131362856Y-118315690D02*
X131239047Y-118377595D01*
X131239047Y-118377595D02*
X130867618Y-118377595D01*
X130867618Y-118377595D02*
X130743809Y-118315690D01*
X130743809Y-118315690D02*
X130681904Y-118253785D01*
X112459000Y-70757023D02*
X112397095Y-70880833D01*
X112397095Y-70880833D02*
X112397095Y-71066547D01*
X112397095Y-71066547D02*
X112459000Y-71252261D01*
X112459000Y-71252261D02*
X112582809Y-71376071D01*
X112582809Y-71376071D02*
X112706619Y-71437976D01*
X112706619Y-71437976D02*
X112954238Y-71499880D01*
X112954238Y-71499880D02*
X113139952Y-71499880D01*
X113139952Y-71499880D02*
X113387571Y-71437976D01*
X113387571Y-71437976D02*
X113511380Y-71376071D01*
X113511380Y-71376071D02*
X113635190Y-71252261D01*
X113635190Y-71252261D02*
X113697095Y-71066547D01*
X113697095Y-71066547D02*
X113697095Y-70942738D01*
X113697095Y-70942738D02*
X113635190Y-70757023D01*
X113635190Y-70757023D02*
X113573285Y-70695119D01*
X113573285Y-70695119D02*
X113139952Y-70695119D01*
X113139952Y-70695119D02*
X113139952Y-70942738D01*
X113697095Y-70137976D02*
X112397095Y-70137976D01*
X112397095Y-70137976D02*
X113697095Y-69395119D01*
X113697095Y-69395119D02*
X112397095Y-69395119D01*
X113697095Y-68776071D02*
X112397095Y-68776071D01*
X112397095Y-68776071D02*
X112397095Y-68466547D01*
X112397095Y-68466547D02*
X112459000Y-68280833D01*
X112459000Y-68280833D02*
X112582809Y-68157023D01*
X112582809Y-68157023D02*
X112706619Y-68095118D01*
X112706619Y-68095118D02*
X112954238Y-68033214D01*
X112954238Y-68033214D02*
X113139952Y-68033214D01*
X113139952Y-68033214D02*
X113387571Y-68095118D01*
X113387571Y-68095118D02*
X113511380Y-68157023D01*
X113511380Y-68157023D02*
X113635190Y-68280833D01*
X113635190Y-68280833D02*
X113697095Y-68466547D01*
X113697095Y-68466547D02*
X113697095Y-68776071D01*
D10*
X145276190Y-91605904D02*
X145733333Y-91605904D01*
X145504761Y-92405904D02*
X145504761Y-91605904D01*
D11*
X113401000Y-84137976D02*
X113462904Y-84014166D01*
X113462904Y-84014166D02*
X113462904Y-83828452D01*
X113462904Y-83828452D02*
X113401000Y-83642738D01*
X113401000Y-83642738D02*
X113277190Y-83518928D01*
X113277190Y-83518928D02*
X113153380Y-83457023D01*
X113153380Y-83457023D02*
X112905761Y-83395119D01*
X112905761Y-83395119D02*
X112720047Y-83395119D01*
X112720047Y-83395119D02*
X112472428Y-83457023D01*
X112472428Y-83457023D02*
X112348619Y-83518928D01*
X112348619Y-83518928D02*
X112224809Y-83642738D01*
X112224809Y-83642738D02*
X112162904Y-83828452D01*
X112162904Y-83828452D02*
X112162904Y-83952261D01*
X112162904Y-83952261D02*
X112224809Y-84137976D01*
X112224809Y-84137976D02*
X112286714Y-84199880D01*
X112286714Y-84199880D02*
X112720047Y-84199880D01*
X112720047Y-84199880D02*
X112720047Y-83952261D01*
X112162904Y-84757023D02*
X113462904Y-84757023D01*
X113462904Y-84757023D02*
X112162904Y-85499880D01*
X112162904Y-85499880D02*
X113462904Y-85499880D01*
X112162904Y-86118928D02*
X113462904Y-86118928D01*
X113462904Y-86118928D02*
X113462904Y-86428452D01*
X113462904Y-86428452D02*
X113401000Y-86614166D01*
X113401000Y-86614166D02*
X113277190Y-86737976D01*
X113277190Y-86737976D02*
X113153380Y-86799881D01*
X113153380Y-86799881D02*
X112905761Y-86861785D01*
X112905761Y-86861785D02*
X112720047Y-86861785D01*
X112720047Y-86861785D02*
X112472428Y-86799881D01*
X112472428Y-86799881D02*
X112348619Y-86737976D01*
X112348619Y-86737976D02*
X112224809Y-86614166D01*
X112224809Y-86614166D02*
X112162904Y-86428452D01*
X112162904Y-86428452D02*
X112162904Y-86118928D01*
X115034000Y-70757023D02*
X114972095Y-70880833D01*
X114972095Y-70880833D02*
X114972095Y-71066547D01*
X114972095Y-71066547D02*
X115034000Y-71252261D01*
X115034000Y-71252261D02*
X115157809Y-71376071D01*
X115157809Y-71376071D02*
X115281619Y-71437976D01*
X115281619Y-71437976D02*
X115529238Y-71499880D01*
X115529238Y-71499880D02*
X115714952Y-71499880D01*
X115714952Y-71499880D02*
X115962571Y-71437976D01*
X115962571Y-71437976D02*
X116086380Y-71376071D01*
X116086380Y-71376071D02*
X116210190Y-71252261D01*
X116210190Y-71252261D02*
X116272095Y-71066547D01*
X116272095Y-71066547D02*
X116272095Y-70942738D01*
X116272095Y-70942738D02*
X116210190Y-70757023D01*
X116210190Y-70757023D02*
X116148285Y-70695119D01*
X116148285Y-70695119D02*
X115714952Y-70695119D01*
X115714952Y-70695119D02*
X115714952Y-70942738D01*
X116272095Y-70137976D02*
X114972095Y-70137976D01*
X114972095Y-70137976D02*
X116272095Y-69395119D01*
X116272095Y-69395119D02*
X114972095Y-69395119D01*
X116272095Y-68776071D02*
X114972095Y-68776071D01*
X114972095Y-68776071D02*
X114972095Y-68466547D01*
X114972095Y-68466547D02*
X115034000Y-68280833D01*
X115034000Y-68280833D02*
X115157809Y-68157023D01*
X115157809Y-68157023D02*
X115281619Y-68095118D01*
X115281619Y-68095118D02*
X115529238Y-68033214D01*
X115529238Y-68033214D02*
X115714952Y-68033214D01*
X115714952Y-68033214D02*
X115962571Y-68095118D01*
X115962571Y-68095118D02*
X116086380Y-68157023D01*
X116086380Y-68157023D02*
X116210190Y-68280833D01*
X116210190Y-68280833D02*
X116272095Y-68466547D01*
X116272095Y-68466547D02*
X116272095Y-68776071D01*
X122909523Y-94261857D02*
X123900000Y-94261857D01*
X123404761Y-94757095D02*
X123404761Y-93766619D01*
X125138095Y-93457095D02*
X124519047Y-93457095D01*
X124519047Y-93457095D02*
X124457143Y-94076142D01*
X124457143Y-94076142D02*
X124519047Y-94014238D01*
X124519047Y-94014238D02*
X124642857Y-93952333D01*
X124642857Y-93952333D02*
X124952381Y-93952333D01*
X124952381Y-93952333D02*
X125076190Y-94014238D01*
X125076190Y-94014238D02*
X125138095Y-94076142D01*
X125138095Y-94076142D02*
X125200000Y-94199952D01*
X125200000Y-94199952D02*
X125200000Y-94509476D01*
X125200000Y-94509476D02*
X125138095Y-94633285D01*
X125138095Y-94633285D02*
X125076190Y-94695190D01*
X125076190Y-94695190D02*
X124952381Y-94757095D01*
X124952381Y-94757095D02*
X124642857Y-94757095D01*
X124642857Y-94757095D02*
X124519047Y-94695190D01*
X124519047Y-94695190D02*
X124457143Y-94633285D01*
X125571428Y-93457095D02*
X126004761Y-94757095D01*
X126004761Y-94757095D02*
X126438095Y-93457095D01*
X110609523Y-100957095D02*
X110609523Y-99657095D01*
X110609523Y-99657095D02*
X111352380Y-100957095D01*
X111352380Y-100957095D02*
X111352380Y-99657095D01*
X112714285Y-100833285D02*
X112652381Y-100895190D01*
X112652381Y-100895190D02*
X112466666Y-100957095D01*
X112466666Y-100957095D02*
X112342857Y-100957095D01*
X112342857Y-100957095D02*
X112157143Y-100895190D01*
X112157143Y-100895190D02*
X112033333Y-100771380D01*
X112033333Y-100771380D02*
X111971428Y-100647571D01*
X111971428Y-100647571D02*
X111909524Y-100399952D01*
X111909524Y-100399952D02*
X111909524Y-100214238D01*
X111909524Y-100214238D02*
X111971428Y-99966619D01*
X111971428Y-99966619D02*
X112033333Y-99842809D01*
X112033333Y-99842809D02*
X112157143Y-99719000D01*
X112157143Y-99719000D02*
X112342857Y-99657095D01*
X112342857Y-99657095D02*
X112466666Y-99657095D01*
X112466666Y-99657095D02*
X112652381Y-99719000D01*
X112652381Y-99719000D02*
X112714285Y-99780904D01*
X144955000Y-84868095D02*
X144907380Y-84963333D01*
X144907380Y-84963333D02*
X144907380Y-85106190D01*
X144907380Y-85106190D02*
X144955000Y-85249047D01*
X144955000Y-85249047D02*
X145050238Y-85344285D01*
X145050238Y-85344285D02*
X145145476Y-85391904D01*
X145145476Y-85391904D02*
X145335952Y-85439523D01*
X145335952Y-85439523D02*
X145478809Y-85439523D01*
X145478809Y-85439523D02*
X145669285Y-85391904D01*
X145669285Y-85391904D02*
X145764523Y-85344285D01*
X145764523Y-85344285D02*
X145859761Y-85249047D01*
X145859761Y-85249047D02*
X145907380Y-85106190D01*
X145907380Y-85106190D02*
X145907380Y-85010952D01*
X145907380Y-85010952D02*
X145859761Y-84868095D01*
X145859761Y-84868095D02*
X145812142Y-84820476D01*
X145812142Y-84820476D02*
X145478809Y-84820476D01*
X145478809Y-84820476D02*
X145478809Y-85010952D01*
D12*
X107428571Y-107270548D02*
X107752380Y-107270548D01*
X107752380Y-107270548D02*
X107914285Y-107351501D01*
X107914285Y-107351501D02*
X108076190Y-107513405D01*
X108076190Y-107513405D02*
X108157142Y-107837215D01*
X108157142Y-107837215D02*
X108157142Y-108403881D01*
X108157142Y-108403881D02*
X108076190Y-108727691D01*
X108076190Y-108727691D02*
X107914285Y-108889596D01*
X107914285Y-108889596D02*
X107752380Y-108970548D01*
X107752380Y-108970548D02*
X107428571Y-108970548D01*
X107428571Y-108970548D02*
X107266666Y-108889596D01*
X107266666Y-108889596D02*
X107104761Y-108727691D01*
X107104761Y-108727691D02*
X107023809Y-108403881D01*
X107023809Y-108403881D02*
X107023809Y-107837215D01*
X107023809Y-107837215D02*
X107104761Y-107513405D01*
X107104761Y-107513405D02*
X107266666Y-107351501D01*
X107266666Y-107351501D02*
X107428571Y-107270548D01*
X108885713Y-108970548D02*
X108885713Y-107270548D01*
X108885713Y-107270548D02*
X109857142Y-108970548D01*
X109857142Y-108970548D02*
X109857142Y-107270548D01*
X110666665Y-108970548D02*
X110666665Y-107270548D01*
X111314285Y-107270548D02*
X112447618Y-108970548D01*
X112447618Y-107270548D02*
X111314285Y-108970548D01*
X114115237Y-108970548D02*
X114115237Y-107270548D01*
X114115237Y-108080072D02*
X115086666Y-108080072D01*
X115086666Y-108970548D02*
X115086666Y-107270548D01*
X116543808Y-108889596D02*
X116381904Y-108970548D01*
X116381904Y-108970548D02*
X116058094Y-108970548D01*
X116058094Y-108970548D02*
X115896189Y-108889596D01*
X115896189Y-108889596D02*
X115815237Y-108727691D01*
X115815237Y-108727691D02*
X115815237Y-108080072D01*
X115815237Y-108080072D02*
X115896189Y-107918167D01*
X115896189Y-107918167D02*
X116058094Y-107837215D01*
X116058094Y-107837215D02*
X116381904Y-107837215D01*
X116381904Y-107837215D02*
X116543808Y-107918167D01*
X116543808Y-107918167D02*
X116624761Y-108080072D01*
X116624761Y-108080072D02*
X116624761Y-108241977D01*
X116624761Y-108241977D02*
X115815237Y-108403881D01*
X118081904Y-108970548D02*
X118081904Y-108080072D01*
X118081904Y-108080072D02*
X118000951Y-107918167D01*
X118000951Y-107918167D02*
X117839047Y-107837215D01*
X117839047Y-107837215D02*
X117515237Y-107837215D01*
X117515237Y-107837215D02*
X117353332Y-107918167D01*
X118081904Y-108889596D02*
X117919999Y-108970548D01*
X117919999Y-108970548D02*
X117515237Y-108970548D01*
X117515237Y-108970548D02*
X117353332Y-108889596D01*
X117353332Y-108889596D02*
X117272380Y-108727691D01*
X117272380Y-108727691D02*
X117272380Y-108565786D01*
X117272380Y-108565786D02*
X117353332Y-108403881D01*
X117353332Y-108403881D02*
X117515237Y-108322929D01*
X117515237Y-108322929D02*
X117919999Y-108322929D01*
X117919999Y-108322929D02*
X118081904Y-108241977D01*
X119619999Y-108970548D02*
X119619999Y-107270548D01*
X119619999Y-108889596D02*
X119458094Y-108970548D01*
X119458094Y-108970548D02*
X119134285Y-108970548D01*
X119134285Y-108970548D02*
X118972380Y-108889596D01*
X118972380Y-108889596D02*
X118891427Y-108808643D01*
X118891427Y-108808643D02*
X118810475Y-108646739D01*
X118810475Y-108646739D02*
X118810475Y-108161024D01*
X118810475Y-108161024D02*
X118891427Y-107999120D01*
X118891427Y-107999120D02*
X118972380Y-107918167D01*
X118972380Y-107918167D02*
X119134285Y-107837215D01*
X119134285Y-107837215D02*
X119458094Y-107837215D01*
X119458094Y-107837215D02*
X119619999Y-107918167D01*
X120348570Y-108889596D02*
X120510475Y-108970548D01*
X120510475Y-108970548D02*
X120834284Y-108970548D01*
X120834284Y-108970548D02*
X120996189Y-108889596D01*
X120996189Y-108889596D02*
X121077141Y-108727691D01*
X121077141Y-108727691D02*
X121077141Y-108646739D01*
X121077141Y-108646739D02*
X120996189Y-108484834D01*
X120996189Y-108484834D02*
X120834284Y-108403881D01*
X120834284Y-108403881D02*
X120591427Y-108403881D01*
X120591427Y-108403881D02*
X120429522Y-108322929D01*
X120429522Y-108322929D02*
X120348570Y-108161024D01*
X120348570Y-108161024D02*
X120348570Y-108080072D01*
X120348570Y-108080072D02*
X120429522Y-107918167D01*
X120429522Y-107918167D02*
X120591427Y-107837215D01*
X120591427Y-107837215D02*
X120834284Y-107837215D01*
X120834284Y-107837215D02*
X120996189Y-107918167D01*
X121562855Y-107837215D02*
X122210474Y-107837215D01*
X121805712Y-107270548D02*
X121805712Y-108727691D01*
X121805712Y-108727691D02*
X121886665Y-108889596D01*
X121886665Y-108889596D02*
X122048570Y-108970548D01*
X122048570Y-108970548D02*
X122210474Y-108970548D01*
X123505713Y-108970548D02*
X123505713Y-108080072D01*
X123505713Y-108080072D02*
X123424760Y-107918167D01*
X123424760Y-107918167D02*
X123262856Y-107837215D01*
X123262856Y-107837215D02*
X122939046Y-107837215D01*
X122939046Y-107837215D02*
X122777141Y-107918167D01*
X123505713Y-108889596D02*
X123343808Y-108970548D01*
X123343808Y-108970548D02*
X122939046Y-108970548D01*
X122939046Y-108970548D02*
X122777141Y-108889596D01*
X122777141Y-108889596D02*
X122696189Y-108727691D01*
X122696189Y-108727691D02*
X122696189Y-108565786D01*
X122696189Y-108565786D02*
X122777141Y-108403881D01*
X122777141Y-108403881D02*
X122939046Y-108322929D01*
X122939046Y-108322929D02*
X123343808Y-108322929D01*
X123343808Y-108322929D02*
X123505713Y-108241977D01*
X125043808Y-107837215D02*
X125043808Y-109213405D01*
X125043808Y-109213405D02*
X124962855Y-109375310D01*
X124962855Y-109375310D02*
X124881903Y-109456262D01*
X124881903Y-109456262D02*
X124719998Y-109537215D01*
X124719998Y-109537215D02*
X124477141Y-109537215D01*
X124477141Y-109537215D02*
X124315236Y-109456262D01*
X125043808Y-108889596D02*
X124881903Y-108970548D01*
X124881903Y-108970548D02*
X124558094Y-108970548D01*
X124558094Y-108970548D02*
X124396189Y-108889596D01*
X124396189Y-108889596D02*
X124315236Y-108808643D01*
X124315236Y-108808643D02*
X124234284Y-108646739D01*
X124234284Y-108646739D02*
X124234284Y-108161024D01*
X124234284Y-108161024D02*
X124315236Y-107999120D01*
X124315236Y-107999120D02*
X124396189Y-107918167D01*
X124396189Y-107918167D02*
X124558094Y-107837215D01*
X124558094Y-107837215D02*
X124881903Y-107837215D01*
X124881903Y-107837215D02*
X125043808Y-107918167D01*
X126500950Y-108889596D02*
X126339046Y-108970548D01*
X126339046Y-108970548D02*
X126015236Y-108970548D01*
X126015236Y-108970548D02*
X125853331Y-108889596D01*
X125853331Y-108889596D02*
X125772379Y-108727691D01*
X125772379Y-108727691D02*
X125772379Y-108080072D01*
X125772379Y-108080072D02*
X125853331Y-107918167D01*
X125853331Y-107918167D02*
X126015236Y-107837215D01*
X126015236Y-107837215D02*
X126339046Y-107837215D01*
X126339046Y-107837215D02*
X126500950Y-107918167D01*
X126500950Y-107918167D02*
X126581903Y-108080072D01*
X126581903Y-108080072D02*
X126581903Y-108241977D01*
X126581903Y-108241977D02*
X125772379Y-108403881D01*
X107104761Y-111724548D02*
X107104761Y-110024548D01*
X107104761Y-110024548D02*
X108076190Y-111724548D01*
X108076190Y-111724548D02*
X108076190Y-110024548D01*
X109533332Y-111643596D02*
X109371428Y-111724548D01*
X109371428Y-111724548D02*
X109047618Y-111724548D01*
X109047618Y-111724548D02*
X108885713Y-111643596D01*
X108885713Y-111643596D02*
X108804761Y-111481691D01*
X108804761Y-111481691D02*
X108804761Y-110834072D01*
X108804761Y-110834072D02*
X108885713Y-110672167D01*
X108885713Y-110672167D02*
X109047618Y-110591215D01*
X109047618Y-110591215D02*
X109371428Y-110591215D01*
X109371428Y-110591215D02*
X109533332Y-110672167D01*
X109533332Y-110672167D02*
X109614285Y-110834072D01*
X109614285Y-110834072D02*
X109614285Y-110995977D01*
X109614285Y-110995977D02*
X108804761Y-111157881D01*
X111071428Y-110591215D02*
X111071428Y-111724548D01*
X110342856Y-110591215D02*
X110342856Y-111481691D01*
X110342856Y-111481691D02*
X110423809Y-111643596D01*
X110423809Y-111643596D02*
X110585714Y-111724548D01*
X110585714Y-111724548D02*
X110828571Y-111724548D01*
X110828571Y-111724548D02*
X110990475Y-111643596D01*
X110990475Y-111643596D02*
X111071428Y-111562643D01*
X111880951Y-111724548D02*
X111880951Y-110591215D01*
X111880951Y-110915024D02*
X111961904Y-110753120D01*
X111961904Y-110753120D02*
X112042856Y-110672167D01*
X112042856Y-110672167D02*
X112204761Y-110591215D01*
X112204761Y-110591215D02*
X112366666Y-110591215D01*
X113176190Y-111724548D02*
X113014285Y-111643596D01*
X113014285Y-111643596D02*
X112933332Y-111562643D01*
X112933332Y-111562643D02*
X112852380Y-111400739D01*
X112852380Y-111400739D02*
X112852380Y-110915024D01*
X112852380Y-110915024D02*
X112933332Y-110753120D01*
X112933332Y-110753120D02*
X113014285Y-110672167D01*
X113014285Y-110672167D02*
X113176190Y-110591215D01*
X113176190Y-110591215D02*
X113419047Y-110591215D01*
X113419047Y-110591215D02*
X113580951Y-110672167D01*
X113580951Y-110672167D02*
X113661904Y-110753120D01*
X113661904Y-110753120D02*
X113742856Y-110915024D01*
X113742856Y-110915024D02*
X113742856Y-111400739D01*
X113742856Y-111400739D02*
X113661904Y-111562643D01*
X113661904Y-111562643D02*
X113580951Y-111643596D01*
X113580951Y-111643596D02*
X113419047Y-111724548D01*
X113419047Y-111724548D02*
X113176190Y-111724548D01*
X114471427Y-110591215D02*
X114471427Y-112291215D01*
X114471427Y-110672167D02*
X114633332Y-110591215D01*
X114633332Y-110591215D02*
X114957142Y-110591215D01*
X114957142Y-110591215D02*
X115119046Y-110672167D01*
X115119046Y-110672167D02*
X115199999Y-110753120D01*
X115199999Y-110753120D02*
X115280951Y-110915024D01*
X115280951Y-110915024D02*
X115280951Y-111400739D01*
X115280951Y-111400739D02*
X115199999Y-111562643D01*
X115199999Y-111562643D02*
X115119046Y-111643596D01*
X115119046Y-111643596D02*
X114957142Y-111724548D01*
X114957142Y-111724548D02*
X114633332Y-111724548D01*
X114633332Y-111724548D02*
X114471427Y-111643596D01*
X116009522Y-111724548D02*
X116009522Y-110591215D01*
X116009522Y-110024548D02*
X115928570Y-110105501D01*
X115928570Y-110105501D02*
X116009522Y-110186453D01*
X116009522Y-110186453D02*
X116090475Y-110105501D01*
X116090475Y-110105501D02*
X116009522Y-110024548D01*
X116009522Y-110024548D02*
X116009522Y-110186453D01*
X116657142Y-111724548D02*
X117547618Y-110591215D01*
X116657142Y-110591215D02*
X117547618Y-111724548D01*
X118195236Y-111076929D02*
X119490475Y-111076929D01*
X120219046Y-110186453D02*
X120299998Y-110105501D01*
X120299998Y-110105501D02*
X120461903Y-110024548D01*
X120461903Y-110024548D02*
X120866665Y-110024548D01*
X120866665Y-110024548D02*
X121028570Y-110105501D01*
X121028570Y-110105501D02*
X121109522Y-110186453D01*
X121109522Y-110186453D02*
X121190475Y-110348358D01*
X121190475Y-110348358D02*
X121190475Y-110510262D01*
X121190475Y-110510262D02*
X121109522Y-110753120D01*
X121109522Y-110753120D02*
X120138094Y-111724548D01*
X120138094Y-111724548D02*
X121190475Y-111724548D01*
X121919046Y-111562643D02*
X121999999Y-111643596D01*
X121999999Y-111643596D02*
X121919046Y-111724548D01*
X121919046Y-111724548D02*
X121838094Y-111643596D01*
X121838094Y-111643596D02*
X121919046Y-111562643D01*
X121919046Y-111562643D02*
X121919046Y-111724548D01*
X123052380Y-110024548D02*
X123214285Y-110024548D01*
X123214285Y-110024548D02*
X123376189Y-110105501D01*
X123376189Y-110105501D02*
X123457142Y-110186453D01*
X123457142Y-110186453D02*
X123538094Y-110348358D01*
X123538094Y-110348358D02*
X123619047Y-110672167D01*
X123619047Y-110672167D02*
X123619047Y-111076929D01*
X123619047Y-111076929D02*
X123538094Y-111400739D01*
X123538094Y-111400739D02*
X123457142Y-111562643D01*
X123457142Y-111562643D02*
X123376189Y-111643596D01*
X123376189Y-111643596D02*
X123214285Y-111724548D01*
X123214285Y-111724548D02*
X123052380Y-111724548D01*
X123052380Y-111724548D02*
X122890475Y-111643596D01*
X122890475Y-111643596D02*
X122809523Y-111562643D01*
X122809523Y-111562643D02*
X122728570Y-111400739D01*
X122728570Y-111400739D02*
X122647618Y-111076929D01*
X122647618Y-111076929D02*
X122647618Y-110672167D01*
X122647618Y-110672167D02*
X122728570Y-110348358D01*
X122728570Y-110348358D02*
X122809523Y-110186453D01*
X122809523Y-110186453D02*
X122890475Y-110105501D01*
X122890475Y-110105501D02*
X123052380Y-110024548D01*
X124995237Y-111643596D02*
X124833333Y-111724548D01*
X124833333Y-111724548D02*
X124509523Y-111724548D01*
X124509523Y-111724548D02*
X124347618Y-111643596D01*
X124347618Y-111643596D02*
X124266666Y-111481691D01*
X124266666Y-111481691D02*
X124266666Y-110834072D01*
X124266666Y-110834072D02*
X124347618Y-110672167D01*
X124347618Y-110672167D02*
X124509523Y-110591215D01*
X124509523Y-110591215D02*
X124833333Y-110591215D01*
X124833333Y-110591215D02*
X124995237Y-110672167D01*
X124995237Y-110672167D02*
X125076190Y-110834072D01*
X125076190Y-110834072D02*
X125076190Y-110995977D01*
X125076190Y-110995977D02*
X124266666Y-111157881D01*
X107671428Y-113588072D02*
X107914285Y-113669024D01*
X107914285Y-113669024D02*
X107995238Y-113749977D01*
X107995238Y-113749977D02*
X108076190Y-113911881D01*
X108076190Y-113911881D02*
X108076190Y-114154739D01*
X108076190Y-114154739D02*
X107995238Y-114316643D01*
X107995238Y-114316643D02*
X107914285Y-114397596D01*
X107914285Y-114397596D02*
X107752380Y-114478548D01*
X107752380Y-114478548D02*
X107104761Y-114478548D01*
X107104761Y-114478548D02*
X107104761Y-112778548D01*
X107104761Y-112778548D02*
X107671428Y-112778548D01*
X107671428Y-112778548D02*
X107833333Y-112859501D01*
X107833333Y-112859501D02*
X107914285Y-112940453D01*
X107914285Y-112940453D02*
X107995238Y-113102358D01*
X107995238Y-113102358D02*
X107995238Y-113264262D01*
X107995238Y-113264262D02*
X107914285Y-113426167D01*
X107914285Y-113426167D02*
X107833333Y-113507120D01*
X107833333Y-113507120D02*
X107671428Y-113588072D01*
X107671428Y-113588072D02*
X107104761Y-113588072D01*
X109047619Y-114478548D02*
X108885714Y-114397596D01*
X108885714Y-114397596D02*
X108804761Y-114316643D01*
X108804761Y-114316643D02*
X108723809Y-114154739D01*
X108723809Y-114154739D02*
X108723809Y-113669024D01*
X108723809Y-113669024D02*
X108804761Y-113507120D01*
X108804761Y-113507120D02*
X108885714Y-113426167D01*
X108885714Y-113426167D02*
X109047619Y-113345215D01*
X109047619Y-113345215D02*
X109290476Y-113345215D01*
X109290476Y-113345215D02*
X109452380Y-113426167D01*
X109452380Y-113426167D02*
X109533333Y-113507120D01*
X109533333Y-113507120D02*
X109614285Y-113669024D01*
X109614285Y-113669024D02*
X109614285Y-114154739D01*
X109614285Y-114154739D02*
X109533333Y-114316643D01*
X109533333Y-114316643D02*
X109452380Y-114397596D01*
X109452380Y-114397596D02*
X109290476Y-114478548D01*
X109290476Y-114478548D02*
X109047619Y-114478548D01*
X111071428Y-114478548D02*
X111071428Y-113588072D01*
X111071428Y-113588072D02*
X110990475Y-113426167D01*
X110990475Y-113426167D02*
X110828571Y-113345215D01*
X110828571Y-113345215D02*
X110504761Y-113345215D01*
X110504761Y-113345215D02*
X110342856Y-113426167D01*
X111071428Y-114397596D02*
X110909523Y-114478548D01*
X110909523Y-114478548D02*
X110504761Y-114478548D01*
X110504761Y-114478548D02*
X110342856Y-114397596D01*
X110342856Y-114397596D02*
X110261904Y-114235691D01*
X110261904Y-114235691D02*
X110261904Y-114073786D01*
X110261904Y-114073786D02*
X110342856Y-113911881D01*
X110342856Y-113911881D02*
X110504761Y-113830929D01*
X110504761Y-113830929D02*
X110909523Y-113830929D01*
X110909523Y-113830929D02*
X111071428Y-113749977D01*
X111880951Y-114478548D02*
X111880951Y-113345215D01*
X111880951Y-113669024D02*
X111961904Y-113507120D01*
X111961904Y-113507120D02*
X112042856Y-113426167D01*
X112042856Y-113426167D02*
X112204761Y-113345215D01*
X112204761Y-113345215D02*
X112366666Y-113345215D01*
X113661904Y-114478548D02*
X113661904Y-112778548D01*
X113661904Y-114397596D02*
X113499999Y-114478548D01*
X113499999Y-114478548D02*
X113176190Y-114478548D01*
X113176190Y-114478548D02*
X113014285Y-114397596D01*
X113014285Y-114397596D02*
X112933332Y-114316643D01*
X112933332Y-114316643D02*
X112852380Y-114154739D01*
X112852380Y-114154739D02*
X112852380Y-113669024D01*
X112852380Y-113669024D02*
X112933332Y-113507120D01*
X112933332Y-113507120D02*
X113014285Y-113426167D01*
X113014285Y-113426167D02*
X113176190Y-113345215D01*
X113176190Y-113345215D02*
X113499999Y-113345215D01*
X113499999Y-113345215D02*
X113661904Y-113426167D01*
X116462856Y-114478548D02*
X115896189Y-113669024D01*
X115491427Y-114478548D02*
X115491427Y-112778548D01*
X115491427Y-112778548D02*
X116139046Y-112778548D01*
X116139046Y-112778548D02*
X116300951Y-112859501D01*
X116300951Y-112859501D02*
X116381904Y-112940453D01*
X116381904Y-112940453D02*
X116462856Y-113102358D01*
X116462856Y-113102358D02*
X116462856Y-113345215D01*
X116462856Y-113345215D02*
X116381904Y-113507120D01*
X116381904Y-113507120D02*
X116300951Y-113588072D01*
X116300951Y-113588072D02*
X116139046Y-113669024D01*
X116139046Y-113669024D02*
X115491427Y-113669024D01*
X117839046Y-114397596D02*
X117677142Y-114478548D01*
X117677142Y-114478548D02*
X117353332Y-114478548D01*
X117353332Y-114478548D02*
X117191427Y-114397596D01*
X117191427Y-114397596D02*
X117110475Y-114235691D01*
X117110475Y-114235691D02*
X117110475Y-113588072D01*
X117110475Y-113588072D02*
X117191427Y-113426167D01*
X117191427Y-113426167D02*
X117353332Y-113345215D01*
X117353332Y-113345215D02*
X117677142Y-113345215D01*
X117677142Y-113345215D02*
X117839046Y-113426167D01*
X117839046Y-113426167D02*
X117919999Y-113588072D01*
X117919999Y-113588072D02*
X117919999Y-113749977D01*
X117919999Y-113749977D02*
X117110475Y-113911881D01*
X118486666Y-113345215D02*
X118891428Y-114478548D01*
X118891428Y-114478548D02*
X119296189Y-113345215D01*
X119943808Y-114316643D02*
X120024761Y-114397596D01*
X120024761Y-114397596D02*
X119943808Y-114478548D01*
X119943808Y-114478548D02*
X119862856Y-114397596D01*
X119862856Y-114397596D02*
X119943808Y-114316643D01*
X119943808Y-114316643D02*
X119943808Y-114478548D01*
X121692380Y-113992834D02*
X122501904Y-113992834D01*
X121530475Y-114478548D02*
X122097142Y-112778548D01*
X122097142Y-112778548D02*
X122663809Y-114478548D01*
D11*
X117247619Y-102295190D02*
X117433333Y-102357095D01*
X117433333Y-102357095D02*
X117742857Y-102357095D01*
X117742857Y-102357095D02*
X117866666Y-102295190D01*
X117866666Y-102295190D02*
X117928571Y-102233285D01*
X117928571Y-102233285D02*
X117990476Y-102109476D01*
X117990476Y-102109476D02*
X117990476Y-101985666D01*
X117990476Y-101985666D02*
X117928571Y-101861857D01*
X117928571Y-101861857D02*
X117866666Y-101799952D01*
X117866666Y-101799952D02*
X117742857Y-101738047D01*
X117742857Y-101738047D02*
X117495238Y-101676142D01*
X117495238Y-101676142D02*
X117371428Y-101614238D01*
X117371428Y-101614238D02*
X117309523Y-101552333D01*
X117309523Y-101552333D02*
X117247619Y-101428523D01*
X117247619Y-101428523D02*
X117247619Y-101304714D01*
X117247619Y-101304714D02*
X117309523Y-101180904D01*
X117309523Y-101180904D02*
X117371428Y-101119000D01*
X117371428Y-101119000D02*
X117495238Y-101057095D01*
X117495238Y-101057095D02*
X117804761Y-101057095D01*
X117804761Y-101057095D02*
X117990476Y-101119000D01*
X119290475Y-102233285D02*
X119228571Y-102295190D01*
X119228571Y-102295190D02*
X119042856Y-102357095D01*
X119042856Y-102357095D02*
X118919047Y-102357095D01*
X118919047Y-102357095D02*
X118733333Y-102295190D01*
X118733333Y-102295190D02*
X118609523Y-102171380D01*
X118609523Y-102171380D02*
X118547618Y-102047571D01*
X118547618Y-102047571D02*
X118485714Y-101799952D01*
X118485714Y-101799952D02*
X118485714Y-101614238D01*
X118485714Y-101614238D02*
X118547618Y-101366619D01*
X118547618Y-101366619D02*
X118609523Y-101242809D01*
X118609523Y-101242809D02*
X118733333Y-101119000D01*
X118733333Y-101119000D02*
X118919047Y-101057095D01*
X118919047Y-101057095D02*
X119042856Y-101057095D01*
X119042856Y-101057095D02*
X119228571Y-101119000D01*
X119228571Y-101119000D02*
X119290475Y-101180904D01*
X120466666Y-102357095D02*
X119847618Y-102357095D01*
X119847618Y-102357095D02*
X119847618Y-101057095D01*
X118785190Y-71499880D02*
X118847095Y-71314166D01*
X118847095Y-71314166D02*
X118847095Y-71004642D01*
X118847095Y-71004642D02*
X118785190Y-70880833D01*
X118785190Y-70880833D02*
X118723285Y-70818928D01*
X118723285Y-70818928D02*
X118599476Y-70757023D01*
X118599476Y-70757023D02*
X118475666Y-70757023D01*
X118475666Y-70757023D02*
X118351857Y-70818928D01*
X118351857Y-70818928D02*
X118289952Y-70880833D01*
X118289952Y-70880833D02*
X118228047Y-71004642D01*
X118228047Y-71004642D02*
X118166142Y-71252261D01*
X118166142Y-71252261D02*
X118104238Y-71376071D01*
X118104238Y-71376071D02*
X118042333Y-71437976D01*
X118042333Y-71437976D02*
X117918523Y-71499880D01*
X117918523Y-71499880D02*
X117794714Y-71499880D01*
X117794714Y-71499880D02*
X117670904Y-71437976D01*
X117670904Y-71437976D02*
X117609000Y-71376071D01*
X117609000Y-71376071D02*
X117547095Y-71252261D01*
X117547095Y-71252261D02*
X117547095Y-70942738D01*
X117547095Y-70942738D02*
X117609000Y-70757023D01*
X118847095Y-70199881D02*
X117547095Y-70199881D01*
X117547095Y-70199881D02*
X117547095Y-69890357D01*
X117547095Y-69890357D02*
X117609000Y-69704643D01*
X117609000Y-69704643D02*
X117732809Y-69580833D01*
X117732809Y-69580833D02*
X117856619Y-69518928D01*
X117856619Y-69518928D02*
X118104238Y-69457024D01*
X118104238Y-69457024D02*
X118289952Y-69457024D01*
X118289952Y-69457024D02*
X118537571Y-69518928D01*
X118537571Y-69518928D02*
X118661380Y-69580833D01*
X118661380Y-69580833D02*
X118785190Y-69704643D01*
X118785190Y-69704643D02*
X118847095Y-69890357D01*
X118847095Y-69890357D02*
X118847095Y-70199881D01*
X118475666Y-68961785D02*
X118475666Y-68342738D01*
X118847095Y-69085595D02*
X117547095Y-68652262D01*
X117547095Y-68652262D02*
X118847095Y-68218928D01*
X123047619Y-97895190D02*
X123233333Y-97957095D01*
X123233333Y-97957095D02*
X123542857Y-97957095D01*
X123542857Y-97957095D02*
X123666666Y-97895190D01*
X123666666Y-97895190D02*
X123728571Y-97833285D01*
X123728571Y-97833285D02*
X123790476Y-97709476D01*
X123790476Y-97709476D02*
X123790476Y-97585666D01*
X123790476Y-97585666D02*
X123728571Y-97461857D01*
X123728571Y-97461857D02*
X123666666Y-97399952D01*
X123666666Y-97399952D02*
X123542857Y-97338047D01*
X123542857Y-97338047D02*
X123295238Y-97276142D01*
X123295238Y-97276142D02*
X123171428Y-97214238D01*
X123171428Y-97214238D02*
X123109523Y-97152333D01*
X123109523Y-97152333D02*
X123047619Y-97028523D01*
X123047619Y-97028523D02*
X123047619Y-96904714D01*
X123047619Y-96904714D02*
X123109523Y-96780904D01*
X123109523Y-96780904D02*
X123171428Y-96719000D01*
X123171428Y-96719000D02*
X123295238Y-96657095D01*
X123295238Y-96657095D02*
X123604761Y-96657095D01*
X123604761Y-96657095D02*
X123790476Y-96719000D01*
X124347618Y-97957095D02*
X124347618Y-96657095D01*
X124347618Y-96657095D02*
X124657142Y-96657095D01*
X124657142Y-96657095D02*
X124842856Y-96719000D01*
X124842856Y-96719000D02*
X124966666Y-96842809D01*
X124966666Y-96842809D02*
X125028571Y-96966619D01*
X125028571Y-96966619D02*
X125090475Y-97214238D01*
X125090475Y-97214238D02*
X125090475Y-97399952D01*
X125090475Y-97399952D02*
X125028571Y-97647571D01*
X125028571Y-97647571D02*
X124966666Y-97771380D01*
X124966666Y-97771380D02*
X124842856Y-97895190D01*
X124842856Y-97895190D02*
X124657142Y-97957095D01*
X124657142Y-97957095D02*
X124347618Y-97957095D01*
X125585714Y-97585666D02*
X126204761Y-97585666D01*
X125461904Y-97957095D02*
X125895237Y-96657095D01*
X125895237Y-96657095D02*
X126328571Y-97957095D01*
X117909523Y-91257095D02*
X117909523Y-89957095D01*
X117909523Y-89957095D02*
X118652380Y-91257095D01*
X118652380Y-91257095D02*
X118652380Y-89957095D01*
X120014285Y-91133285D02*
X119952381Y-91195190D01*
X119952381Y-91195190D02*
X119766666Y-91257095D01*
X119766666Y-91257095D02*
X119642857Y-91257095D01*
X119642857Y-91257095D02*
X119457143Y-91195190D01*
X119457143Y-91195190D02*
X119333333Y-91071380D01*
X119333333Y-91071380D02*
X119271428Y-90947571D01*
X119271428Y-90947571D02*
X119209524Y-90699952D01*
X119209524Y-90699952D02*
X119209524Y-90514238D01*
X119209524Y-90514238D02*
X119271428Y-90266619D01*
X119271428Y-90266619D02*
X119333333Y-90142809D01*
X119333333Y-90142809D02*
X119457143Y-90019000D01*
X119457143Y-90019000D02*
X119642857Y-89957095D01*
X119642857Y-89957095D02*
X119766666Y-89957095D01*
X119766666Y-89957095D02*
X119952381Y-90019000D01*
X119952381Y-90019000D02*
X120014285Y-90080904D01*
X110390476Y-90619000D02*
X110266666Y-90557095D01*
X110266666Y-90557095D02*
X110080952Y-90557095D01*
X110080952Y-90557095D02*
X109895238Y-90619000D01*
X109895238Y-90619000D02*
X109771428Y-90742809D01*
X109771428Y-90742809D02*
X109709523Y-90866619D01*
X109709523Y-90866619D02*
X109647619Y-91114238D01*
X109647619Y-91114238D02*
X109647619Y-91299952D01*
X109647619Y-91299952D02*
X109709523Y-91547571D01*
X109709523Y-91547571D02*
X109771428Y-91671380D01*
X109771428Y-91671380D02*
X109895238Y-91795190D01*
X109895238Y-91795190D02*
X110080952Y-91857095D01*
X110080952Y-91857095D02*
X110204761Y-91857095D01*
X110204761Y-91857095D02*
X110390476Y-91795190D01*
X110390476Y-91795190D02*
X110452380Y-91733285D01*
X110452380Y-91733285D02*
X110452380Y-91299952D01*
X110452380Y-91299952D02*
X110204761Y-91299952D01*
X111009523Y-91857095D02*
X111009523Y-90557095D01*
X111009523Y-90557095D02*
X111752380Y-91857095D01*
X111752380Y-91857095D02*
X111752380Y-90557095D01*
X112371428Y-91857095D02*
X112371428Y-90557095D01*
X112371428Y-90557095D02*
X112680952Y-90557095D01*
X112680952Y-90557095D02*
X112866666Y-90619000D01*
X112866666Y-90619000D02*
X112990476Y-90742809D01*
X112990476Y-90742809D02*
X113052381Y-90866619D01*
X113052381Y-90866619D02*
X113114285Y-91114238D01*
X113114285Y-91114238D02*
X113114285Y-91299952D01*
X113114285Y-91299952D02*
X113052381Y-91547571D01*
X113052381Y-91547571D02*
X112990476Y-91671380D01*
X112990476Y-91671380D02*
X112866666Y-91795190D01*
X112866666Y-91795190D02*
X112680952Y-91857095D01*
X112680952Y-91857095D02*
X112371428Y-91857095D01*
X147137380Y-84855714D02*
X147137380Y-85331904D01*
X147137380Y-85331904D02*
X146137380Y-85331904D01*
X123501857Y-71437976D02*
X123501857Y-70447500D01*
X123997095Y-70942738D02*
X123006619Y-70942738D01*
X122697095Y-69209404D02*
X122697095Y-69828452D01*
X122697095Y-69828452D02*
X123316142Y-69890356D01*
X123316142Y-69890356D02*
X123254238Y-69828452D01*
X123254238Y-69828452D02*
X123192333Y-69704642D01*
X123192333Y-69704642D02*
X123192333Y-69395118D01*
X123192333Y-69395118D02*
X123254238Y-69271309D01*
X123254238Y-69271309D02*
X123316142Y-69209404D01*
X123316142Y-69209404D02*
X123439952Y-69147499D01*
X123439952Y-69147499D02*
X123749476Y-69147499D01*
X123749476Y-69147499D02*
X123873285Y-69209404D01*
X123873285Y-69209404D02*
X123935190Y-69271309D01*
X123935190Y-69271309D02*
X123997095Y-69395118D01*
X123997095Y-69395118D02*
X123997095Y-69704642D01*
X123997095Y-69704642D02*
X123935190Y-69828452D01*
X123935190Y-69828452D02*
X123873285Y-69890356D01*
X122697095Y-68776071D02*
X123997095Y-68342738D01*
X123997095Y-68342738D02*
X122697095Y-67909404D01*
X117324809Y-83395119D02*
X117262904Y-83580833D01*
X117262904Y-83580833D02*
X117262904Y-83890357D01*
X117262904Y-83890357D02*
X117324809Y-84014166D01*
X117324809Y-84014166D02*
X117386714Y-84076071D01*
X117386714Y-84076071D02*
X117510523Y-84137976D01*
X117510523Y-84137976D02*
X117634333Y-84137976D01*
X117634333Y-84137976D02*
X117758142Y-84076071D01*
X117758142Y-84076071D02*
X117820047Y-84014166D01*
X117820047Y-84014166D02*
X117881952Y-83890357D01*
X117881952Y-83890357D02*
X117943857Y-83642738D01*
X117943857Y-83642738D02*
X118005761Y-83518928D01*
X118005761Y-83518928D02*
X118067666Y-83457023D01*
X118067666Y-83457023D02*
X118191476Y-83395119D01*
X118191476Y-83395119D02*
X118315285Y-83395119D01*
X118315285Y-83395119D02*
X118439095Y-83457023D01*
X118439095Y-83457023D02*
X118501000Y-83518928D01*
X118501000Y-83518928D02*
X118562904Y-83642738D01*
X118562904Y-83642738D02*
X118562904Y-83952261D01*
X118562904Y-83952261D02*
X118501000Y-84137976D01*
X117262904Y-84695118D02*
X118562904Y-84695118D01*
X118562904Y-84695118D02*
X118562904Y-85004642D01*
X118562904Y-85004642D02*
X118501000Y-85190356D01*
X118501000Y-85190356D02*
X118377190Y-85314166D01*
X118377190Y-85314166D02*
X118253380Y-85376071D01*
X118253380Y-85376071D02*
X118005761Y-85437975D01*
X118005761Y-85437975D02*
X117820047Y-85437975D01*
X117820047Y-85437975D02*
X117572428Y-85376071D01*
X117572428Y-85376071D02*
X117448619Y-85314166D01*
X117448619Y-85314166D02*
X117324809Y-85190356D01*
X117324809Y-85190356D02*
X117262904Y-85004642D01*
X117262904Y-85004642D02*
X117262904Y-84695118D01*
X117634333Y-85933214D02*
X117634333Y-86552261D01*
X117262904Y-85809404D02*
X118562904Y-86242737D01*
X118562904Y-86242737D02*
X117262904Y-86676071D01*
X115951000Y-84037976D02*
X116012904Y-83914166D01*
X116012904Y-83914166D02*
X116012904Y-83728452D01*
X116012904Y-83728452D02*
X115951000Y-83542738D01*
X115951000Y-83542738D02*
X115827190Y-83418928D01*
X115827190Y-83418928D02*
X115703380Y-83357023D01*
X115703380Y-83357023D02*
X115455761Y-83295119D01*
X115455761Y-83295119D02*
X115270047Y-83295119D01*
X115270047Y-83295119D02*
X115022428Y-83357023D01*
X115022428Y-83357023D02*
X114898619Y-83418928D01*
X114898619Y-83418928D02*
X114774809Y-83542738D01*
X114774809Y-83542738D02*
X114712904Y-83728452D01*
X114712904Y-83728452D02*
X114712904Y-83852261D01*
X114712904Y-83852261D02*
X114774809Y-84037976D01*
X114774809Y-84037976D02*
X114836714Y-84099880D01*
X114836714Y-84099880D02*
X115270047Y-84099880D01*
X115270047Y-84099880D02*
X115270047Y-83852261D01*
X114712904Y-84657023D02*
X116012904Y-84657023D01*
X116012904Y-84657023D02*
X114712904Y-85399880D01*
X114712904Y-85399880D02*
X116012904Y-85399880D01*
X114712904Y-86018928D02*
X116012904Y-86018928D01*
X116012904Y-86018928D02*
X116012904Y-86328452D01*
X116012904Y-86328452D02*
X115951000Y-86514166D01*
X115951000Y-86514166D02*
X115827190Y-86637976D01*
X115827190Y-86637976D02*
X115703380Y-86699881D01*
X115703380Y-86699881D02*
X115455761Y-86761785D01*
X115455761Y-86761785D02*
X115270047Y-86761785D01*
X115270047Y-86761785D02*
X115022428Y-86699881D01*
X115022428Y-86699881D02*
X114898619Y-86637976D01*
X114898619Y-86637976D02*
X114774809Y-86514166D01*
X114774809Y-86514166D02*
X114712904Y-86328452D01*
X114712904Y-86328452D02*
X114712904Y-86018928D01*
X122858142Y-83357023D02*
X122858142Y-84347500D01*
X122362904Y-83852261D02*
X123353380Y-83852261D01*
X123662904Y-85585595D02*
X123662904Y-84966547D01*
X123662904Y-84966547D02*
X123043857Y-84904643D01*
X123043857Y-84904643D02*
X123105761Y-84966547D01*
X123105761Y-84966547D02*
X123167666Y-85090357D01*
X123167666Y-85090357D02*
X123167666Y-85399881D01*
X123167666Y-85399881D02*
X123105761Y-85523690D01*
X123105761Y-85523690D02*
X123043857Y-85585595D01*
X123043857Y-85585595D02*
X122920047Y-85647500D01*
X122920047Y-85647500D02*
X122610523Y-85647500D01*
X122610523Y-85647500D02*
X122486714Y-85585595D01*
X122486714Y-85585595D02*
X122424809Y-85523690D01*
X122424809Y-85523690D02*
X122362904Y-85399881D01*
X122362904Y-85399881D02*
X122362904Y-85090357D01*
X122362904Y-85090357D02*
X122424809Y-84966547D01*
X122424809Y-84966547D02*
X122486714Y-84904643D01*
X123662904Y-86018928D02*
X122362904Y-86452261D01*
X122362904Y-86452261D02*
X123662904Y-86885595D01*
X121360190Y-71499880D02*
X121422095Y-71314166D01*
X121422095Y-71314166D02*
X121422095Y-71004642D01*
X121422095Y-71004642D02*
X121360190Y-70880833D01*
X121360190Y-70880833D02*
X121298285Y-70818928D01*
X121298285Y-70818928D02*
X121174476Y-70757023D01*
X121174476Y-70757023D02*
X121050666Y-70757023D01*
X121050666Y-70757023D02*
X120926857Y-70818928D01*
X120926857Y-70818928D02*
X120864952Y-70880833D01*
X120864952Y-70880833D02*
X120803047Y-71004642D01*
X120803047Y-71004642D02*
X120741142Y-71252261D01*
X120741142Y-71252261D02*
X120679238Y-71376071D01*
X120679238Y-71376071D02*
X120617333Y-71437976D01*
X120617333Y-71437976D02*
X120493523Y-71499880D01*
X120493523Y-71499880D02*
X120369714Y-71499880D01*
X120369714Y-71499880D02*
X120245904Y-71437976D01*
X120245904Y-71437976D02*
X120184000Y-71376071D01*
X120184000Y-71376071D02*
X120122095Y-71252261D01*
X120122095Y-71252261D02*
X120122095Y-70942738D01*
X120122095Y-70942738D02*
X120184000Y-70757023D01*
X121298285Y-69457024D02*
X121360190Y-69518928D01*
X121360190Y-69518928D02*
X121422095Y-69704643D01*
X121422095Y-69704643D02*
X121422095Y-69828452D01*
X121422095Y-69828452D02*
X121360190Y-70014166D01*
X121360190Y-70014166D02*
X121236380Y-70137976D01*
X121236380Y-70137976D02*
X121112571Y-70199881D01*
X121112571Y-70199881D02*
X120864952Y-70261785D01*
X120864952Y-70261785D02*
X120679238Y-70261785D01*
X120679238Y-70261785D02*
X120431619Y-70199881D01*
X120431619Y-70199881D02*
X120307809Y-70137976D01*
X120307809Y-70137976D02*
X120184000Y-70014166D01*
X120184000Y-70014166D02*
X120122095Y-69828452D01*
X120122095Y-69828452D02*
X120122095Y-69704643D01*
X120122095Y-69704643D02*
X120184000Y-69518928D01*
X120184000Y-69518928D02*
X120245904Y-69457024D01*
X121422095Y-68280833D02*
X121422095Y-68899881D01*
X121422095Y-68899881D02*
X120122095Y-68899881D01*
D10*
%TO.C,J5*%
X112066666Y-95207380D02*
X112066666Y-95921666D01*
X112066666Y-95921666D02*
X112019047Y-96064523D01*
X112019047Y-96064523D02*
X111923809Y-96159761D01*
X111923809Y-96159761D02*
X111780952Y-96207380D01*
X111780952Y-96207380D02*
X111685714Y-96207380D01*
X113019047Y-95207380D02*
X112542857Y-95207380D01*
X112542857Y-95207380D02*
X112495238Y-95683571D01*
X112495238Y-95683571D02*
X112542857Y-95635952D01*
X112542857Y-95635952D02*
X112638095Y-95588333D01*
X112638095Y-95588333D02*
X112876190Y-95588333D01*
X112876190Y-95588333D02*
X112971428Y-95635952D01*
X112971428Y-95635952D02*
X113019047Y-95683571D01*
X113019047Y-95683571D02*
X113066666Y-95778809D01*
X113066666Y-95778809D02*
X113066666Y-96016904D01*
X113066666Y-96016904D02*
X113019047Y-96112142D01*
X113019047Y-96112142D02*
X112971428Y-96159761D01*
X112971428Y-96159761D02*
X112876190Y-96207380D01*
X112876190Y-96207380D02*
X112638095Y-96207380D01*
X112638095Y-96207380D02*
X112542857Y-96159761D01*
X112542857Y-96159761D02*
X112495238Y-96112142D01*
%TO.C,J6*%
X140208333Y-84133904D02*
X140208333Y-84705333D01*
X140208333Y-84705333D02*
X140170238Y-84819619D01*
X140170238Y-84819619D02*
X140094047Y-84895809D01*
X140094047Y-84895809D02*
X139979762Y-84933904D01*
X139979762Y-84933904D02*
X139903571Y-84933904D01*
X140932143Y-84133904D02*
X140779762Y-84133904D01*
X140779762Y-84133904D02*
X140703571Y-84172000D01*
X140703571Y-84172000D02*
X140665476Y-84210095D01*
X140665476Y-84210095D02*
X140589286Y-84324380D01*
X140589286Y-84324380D02*
X140551190Y-84476761D01*
X140551190Y-84476761D02*
X140551190Y-84781523D01*
X140551190Y-84781523D02*
X140589286Y-84857714D01*
X140589286Y-84857714D02*
X140627381Y-84895809D01*
X140627381Y-84895809D02*
X140703571Y-84933904D01*
X140703571Y-84933904D02*
X140855952Y-84933904D01*
X140855952Y-84933904D02*
X140932143Y-84895809D01*
X140932143Y-84895809D02*
X140970238Y-84857714D01*
X140970238Y-84857714D02*
X141008333Y-84781523D01*
X141008333Y-84781523D02*
X141008333Y-84591047D01*
X141008333Y-84591047D02*
X140970238Y-84514857D01*
X140970238Y-84514857D02*
X140932143Y-84476761D01*
X140932143Y-84476761D02*
X140855952Y-84438666D01*
X140855952Y-84438666D02*
X140703571Y-84438666D01*
X140703571Y-84438666D02*
X140627381Y-84476761D01*
X140627381Y-84476761D02*
X140589286Y-84514857D01*
X140589286Y-84514857D02*
X140551190Y-84591047D01*
%TO.C,J4*%
X105846666Y-76914880D02*
X105846666Y-77629166D01*
X105846666Y-77629166D02*
X105799047Y-77772023D01*
X105799047Y-77772023D02*
X105703809Y-77867261D01*
X105703809Y-77867261D02*
X105560952Y-77914880D01*
X105560952Y-77914880D02*
X105465714Y-77914880D01*
X106751428Y-77248214D02*
X106751428Y-77914880D01*
X106513333Y-76867261D02*
X106275238Y-77581547D01*
X106275238Y-77581547D02*
X106894285Y-77581547D01*
D13*
%TO.C,J5*%
X119195000Y-94630000D02*
X119195000Y-95265000D01*
X118560000Y-94630000D02*
X119195000Y-94630000D01*
%TO.C,U7*%
X137902500Y-88240000D02*
X138162500Y-88240000D01*
X137902500Y-92260000D02*
X137902500Y-92000000D01*
X137902500Y-92260000D02*
X138162500Y-92260000D01*
X143322500Y-88240000D02*
X143062500Y-88240000D01*
X143322500Y-88240000D02*
X143322500Y-88500000D01*
X143322500Y-92260000D02*
X143062500Y-92260000D01*
X143322500Y-92260000D02*
X143322500Y-92000000D01*
D14*
%TO.C,J1*%
X141425000Y-82400000D02*
X142025000Y-82400000D01*
X142020000Y-84500000D02*
X141430000Y-84500000D01*
X143025000Y-82400000D02*
X143625000Y-82400000D01*
D13*
%TO.C,C15*%
X141765000Y-86357836D02*
X141765000Y-86142164D01*
X142485000Y-86357836D02*
X142485000Y-86142164D01*
%TO.C,U1*%
X138925000Y-87810000D02*
X140525000Y-87810000D01*
X139725000Y-85990000D02*
X140525000Y-85990000D01*
%TO.C,C3*%
X138485000Y-86792164D02*
X138485000Y-87007836D01*
X137765000Y-86792164D02*
X137765000Y-87007836D01*
%TO.C,TP3*%
X146755000Y-92140000D02*
G75*
G03*
X146755000Y-92140000I-400000J0D01*
G01*
%TO.C,C18*%
X145362836Y-88830000D02*
X145147164Y-88830000D01*
X145362836Y-88110000D02*
X145147164Y-88110000D01*
%TO.C,J4*%
X123580000Y-71767500D02*
X122580000Y-71767500D01*
X122580000Y-71767500D02*
X123080000Y-72767500D01*
X123080000Y-72767500D02*
X123580000Y-71767500D01*
X128290000Y-73157500D02*
X128290000Y-82277500D01*
X120050000Y-73157500D02*
X120050000Y-74467500D01*
X107710000Y-73157500D02*
X128290000Y-73157500D01*
X126990000Y-74467500D02*
X126990000Y-80967500D01*
X120050000Y-74467500D02*
X126990000Y-74467500D01*
X115950000Y-74467500D02*
X115950000Y-73157500D01*
X115950000Y-74467500D02*
X115950000Y-74467500D01*
X109010000Y-74467500D02*
X115950000Y-74467500D01*
X126990000Y-80967500D02*
X109010000Y-80967500D01*
X109010000Y-80967500D02*
X109010000Y-74467500D01*
X128290000Y-82277500D02*
X107710000Y-82277500D01*
X107710000Y-82277500D02*
X107710000Y-73157500D01*
%TO.C,U4*%
X144445000Y-91000000D02*
X144445000Y-89660000D01*
X144915000Y-89220000D02*
X145685000Y-89220000D01*
X145435000Y-89220000D02*
X145685000Y-89220000D01*
X145435000Y-89220000D02*
X145685000Y-89220000D01*
X145685000Y-91000000D02*
X144445000Y-91000000D01*
X145685000Y-91000000D02*
X145685000Y-89220000D01*
%TO.C,D1*%
X145075000Y-86250000D02*
X145075000Y-87050000D01*
%TD*%
M02*
