%TF.GenerationSoftware,KiCad,Pcbnew,(7.0.0)*%
%TF.CreationDate,2023-02-26T18:00:26-05:00*%
%TF.ProjectId,headstage-neuropix2e,68656164-7374-4616-9765-2d6e6575726f,A*%
%TF.SameCoordinates,Original*%
%TF.FileFunction,Copper,L3,Inr*%
%TF.FilePolarity,Positive*%
%FSLAX46Y46*%
G04 Gerber Fmt 4.6, Leading zero omitted, Abs format (unit mm)*
G04 Created by KiCad (PCBNEW (7.0.0)) date 2023-02-26 18:00:26*
%MOMM*%
%LPD*%
G01*
G04 APERTURE LIST*
%TA.AperFunction,ComponentPad*%
%ADD10O,1.400000X2.600000*%
%TD*%
%TA.AperFunction,ViaPad*%
%ADD11C,0.200000*%
%TD*%
%TA.AperFunction,ViaPad*%
%ADD12C,0.300000*%
%TD*%
%TA.AperFunction,Conductor*%
%ADD13C,0.200000*%
%TD*%
%TA.AperFunction,Conductor*%
%ADD14C,0.100000*%
%TD*%
G04 APERTURE END LIST*
D10*
%TO.N,/Neuropixels 2.0/NP_{TP0}*%
%TO.C,TP2*%
X146634999Y-83419999D03*
%TD*%
%TO.N,GND*%
%TO.C,TP1*%
X144954999Y-83419999D03*
%TD*%
D11*
%TO.N,GND*%
X146915000Y-84930000D03*
X138835000Y-83649300D03*
X137898663Y-88881316D03*
X142125000Y-95650000D03*
X142735000Y-94830000D03*
X142125000Y-94830000D03*
X139611259Y-88091963D03*
X141615000Y-84550000D03*
X145475000Y-87550000D03*
X143995000Y-94810000D03*
X146785000Y-95970000D03*
X139445000Y-90900000D03*
X145625000Y-94100000D03*
X144005000Y-91150000D03*
X139415000Y-83640000D03*
X142574999Y-82474998D03*
X137915500Y-87943311D03*
X139585000Y-89160000D03*
D12*
X130100000Y-79400000D03*
D11*
X144455000Y-90760000D03*
X143185000Y-84540000D03*
X137925000Y-95200000D03*
X146925000Y-95200000D03*
X141705000Y-93720000D03*
X140005000Y-83700000D03*
X145315000Y-94840000D03*
X146025000Y-85130000D03*
X140200498Y-88500500D03*
X143225000Y-85400000D03*
X147035000Y-85460000D03*
X144755000Y-88270000D03*
X138306076Y-91856076D03*
X139025000Y-90250000D03*
X141607409Y-88089070D03*
X144465000Y-89370000D03*
X144525000Y-95650000D03*
X143025000Y-90500000D03*
X143925000Y-95650000D03*
X140305000Y-94850000D03*
X139165000Y-86900000D03*
X140925000Y-95650000D03*
X143025000Y-90000000D03*
X140225000Y-92510000D03*
X141975000Y-82620000D03*
X143845000Y-93830000D03*
X140675000Y-93720500D03*
X137785000Y-89620000D03*
X137810700Y-83680000D03*
X139925000Y-90200000D03*
X144755000Y-88610000D03*
X140325000Y-95650000D03*
X138525000Y-95050000D03*
D12*
X127600000Y-70300000D03*
X155800000Y-87500000D03*
D11*
X141225000Y-84830000D03*
X143725000Y-87600000D03*
X144565000Y-93780000D03*
X144815000Y-90110000D03*
X142775000Y-85400000D03*
X141395000Y-84090000D03*
X140165000Y-88090000D03*
X143705000Y-84520000D03*
X139695000Y-87470500D03*
X147015000Y-94060000D03*
X143565000Y-84070000D03*
X142475000Y-85050000D03*
X143285000Y-88250000D03*
X144185000Y-87630000D03*
X147135000Y-86480000D03*
D12*
X107600000Y-101500000D03*
D11*
X142595000Y-93710000D03*
X139455000Y-90190000D03*
X143025000Y-91150500D03*
X140905000Y-94840000D03*
X143880840Y-88220500D03*
X143385000Y-88770000D03*
X145125000Y-85330000D03*
X139107347Y-94319500D03*
X142165000Y-90630000D03*
D12*
X112100000Y-75100000D03*
D11*
X142725000Y-95650000D03*
X137955000Y-94170000D03*
X142355000Y-91170000D03*
D12*
X145200000Y-72300000D03*
D11*
X137975000Y-87440000D03*
D12*
X154200000Y-101500000D03*
D11*
X141625000Y-87249500D03*
D12*
X103900000Y-84800000D03*
X130200000Y-99700000D03*
D11*
X142025000Y-85450000D03*
X137781392Y-91260865D03*
X137915000Y-93180000D03*
X139725000Y-86450000D03*
%TO.N,+1V8*%
X145875500Y-91592347D03*
X139435000Y-84730000D03*
X139025000Y-89250000D03*
X146434268Y-86221264D03*
X138620290Y-88099352D03*
X144275000Y-91650500D03*
X143157963Y-86612963D03*
D12*
X140775000Y-86900000D03*
D11*
X138147595Y-92527730D03*
X146655000Y-87170000D03*
X145820230Y-89664770D03*
X138984500Y-91016076D03*
%TO.N,/Neuropixels 2.0/PCLK*%
X141625000Y-90210000D03*
X142425000Y-93150000D03*
%TO.N,/Neuropixels 2.0/SDA_{A}*%
X138985357Y-92627003D03*
X142122378Y-89995974D03*
%TO.N,+4V*%
X138640419Y-85475200D03*
D12*
X138124999Y-85890001D03*
X120945000Y-89505000D03*
D11*
X138695000Y-87370000D03*
X140195000Y-87490000D03*
X138745000Y-86420000D03*
X138355000Y-84600000D03*
D12*
%TO.N,/Neuropixels 2.0/SCL*%
X117857500Y-91667500D03*
D11*
X140625000Y-90790000D03*
X142235000Y-89324500D03*
X145075000Y-86100000D03*
X138735000Y-84740000D03*
X139505000Y-93710000D03*
X141234061Y-89672090D03*
%TO.N,/Neuropixels 2.0/SYNC*%
X139725000Y-95650000D03*
X145125000Y-95650000D03*
%TO.N,/Neuropixels 2.0/D7*%
X144455065Y-91149935D03*
X140025000Y-93150000D03*
%TO.N,Net-(L1-Pad2)*%
X137921788Y-84655700D03*
%TO.N,/Neuropixels 2.0/D6*%
X145075000Y-91385075D03*
X140625000Y-93150000D03*
%TO.N,/Neuropixels 2.0/D5*%
X141225000Y-93150000D03*
X145539322Y-91153783D03*
%TO.N,/Neuropixels 2.0/D4*%
X141825000Y-93150000D03*
X145855000Y-90720000D03*
%TO.N,/Neuropixels 2.0/D3*%
X143025000Y-93150000D03*
X145871150Y-90001022D03*
%TO.N,/Neuropixels 2.0/D2*%
X146185000Y-89750000D03*
X143625000Y-93150000D03*
%TO.N,/Neuropixels 2.0/D1*%
X146405000Y-89140000D03*
X144225000Y-93150000D03*
%TO.N,/Neuropixels 2.0/D0*%
X146425000Y-88650002D03*
X144825000Y-93150000D03*
D12*
%TO.N,/DC Tap & Regulation/RF+DC*%
X142525000Y-84475000D03*
D11*
%TO.N,/Neuropixels 2.0/NP_{TP0}*%
X138875000Y-94980000D03*
X146325000Y-95125500D03*
%TO.N,/Neuropixels 2.0/SDA_{B}*%
X146068576Y-93973576D03*
%TO.N,/Neuropixels 2.0/SDA*%
X142225000Y-90290000D03*
X143175250Y-87650499D03*
X145774501Y-90410000D03*
X142177262Y-88059188D03*
X141625000Y-89150000D03*
X139085000Y-84730000D03*
X144915000Y-85700000D03*
D12*
X125255000Y-90595000D03*
D11*
%TO.N,/Perpherials/GPIO*%
X140600000Y-82204300D03*
X146099498Y-87271944D03*
%TO.N,/Neuropixels 2.0/NP_{Select}*%
X145975500Y-86850000D03*
X145774501Y-88979500D03*
D12*
%TO.N,+2V5*%
X140375000Y-86400000D03*
D11*
X138215000Y-89990000D03*
%TO.N,Net-(U3-VDDCML)*%
X144845000Y-87650499D03*
%TO.N,Net-(U3-DOUTP)*%
X144425000Y-86449500D03*
%TO.N,Net-(U7-CAP)*%
X139483691Y-92449503D03*
%TO.N,Net-(U3-GPIO3{slash}CLKIN)*%
X145857158Y-86184021D03*
X145895000Y-87940000D03*
%TO.N,Net-(U3-MODE)*%
X141625000Y-87650000D03*
%TO.N,/Neuropixels 2.0/NP_{RESET}*%
X145725000Y-95650000D03*
X139125000Y-95650000D03*
X145675000Y-95080000D03*
%TO.N,+1.8VA*%
X143205000Y-93880000D03*
X141525000Y-95650000D03*
X138570000Y-91375000D03*
X143325000Y-95650000D03*
X143325000Y-92702940D03*
%TO.N,/Neuropixels 2.0/NP_{TP1}*%
X146355000Y-93550000D03*
%TO.N,/Serializer/Dout-*%
X144025000Y-85380000D03*
%TD*%
D13*
%TO.N,+1V8*%
X140775000Y-88790000D02*
X141435000Y-89450000D01*
X146655000Y-87990000D02*
X146655000Y-87170000D01*
X140775000Y-88790000D02*
X140775000Y-86900000D01*
X145795000Y-89690000D02*
X145820230Y-89664770D01*
D14*
X138984500Y-91016076D02*
X138715000Y-90746576D01*
D13*
X140765000Y-88800000D02*
X140775000Y-88790000D01*
X141901396Y-89450000D02*
X141952845Y-89501449D01*
X141952845Y-89501449D02*
X142141396Y-89690000D01*
X145820230Y-89664770D02*
X146074501Y-89410499D01*
D14*
X138715000Y-89560000D02*
X139025000Y-89250000D01*
D13*
X140775000Y-86070000D02*
X140775000Y-86900000D01*
X146074501Y-89410499D02*
X146074501Y-88570499D01*
D14*
X138715000Y-90746576D02*
X138715000Y-89560000D01*
D13*
X139320938Y-88800000D02*
X139025000Y-89095938D01*
X141952845Y-89501449D02*
X141952845Y-89497845D01*
X139320938Y-88800000D02*
X140765000Y-88800000D01*
X139435000Y-84730000D02*
X140775000Y-86070000D01*
X146074501Y-88570499D02*
X146655000Y-87990000D01*
X142141396Y-89690000D02*
X145795000Y-89690000D01*
D14*
X138984500Y-91530500D02*
X138984500Y-91016076D01*
X138147595Y-92367405D02*
X138984500Y-91530500D01*
D13*
X138620290Y-88099352D02*
X139320938Y-88800000D01*
X139025000Y-89095938D02*
X139025000Y-89250000D01*
X141435000Y-89450000D02*
X141901396Y-89450000D01*
D14*
X138147595Y-92527730D02*
X138147595Y-92367405D01*
%TO.N,/Neuropixels 2.0/PCLK*%
X140175000Y-91820000D02*
X140415000Y-91820000D01*
X139840000Y-92480000D02*
X139840000Y-92155000D01*
X139645000Y-93350000D02*
X139760000Y-93465000D01*
X139760000Y-93465000D02*
X142110000Y-93465000D01*
X141625000Y-90610000D02*
X141625000Y-90210000D01*
X139840000Y-92480000D02*
X139840000Y-92515000D01*
X140415000Y-91820000D02*
X141625000Y-90610000D01*
X139840000Y-92515000D02*
X139645000Y-92710000D01*
X139840000Y-92155000D02*
X140175000Y-91820000D01*
X139645000Y-92710000D02*
X139645000Y-93350000D01*
X142425000Y-93150000D02*
X142110000Y-93465000D01*
%TO.N,/Neuropixels 2.0/SDA_{A}*%
X140139640Y-91440000D02*
X138985357Y-92594283D01*
X141185000Y-90190000D02*
X141185000Y-90670000D01*
X141185000Y-90670000D02*
X140415000Y-91440000D01*
X138985357Y-92594283D02*
X138985357Y-92627003D01*
X142122378Y-89995974D02*
X142093816Y-89995974D01*
X142093816Y-89995974D02*
X142057842Y-89960000D01*
X141415000Y-89960000D02*
X141185000Y-90190000D01*
X140415000Y-91440000D02*
X140139640Y-91440000D01*
X142057842Y-89960000D02*
X141415000Y-89960000D01*
%TO.N,+4V*%
X138695000Y-87370000D02*
X138745000Y-87320000D01*
X139125000Y-87800000D02*
X138695000Y-87370000D01*
X139885000Y-87800000D02*
X139125000Y-87800000D01*
X138745000Y-87320000D02*
X138745000Y-86420000D01*
X140195000Y-87490000D02*
X139885000Y-87800000D01*
%TO.N,/Neuropixels 2.0/SCL*%
X140305000Y-90790000D02*
X138665000Y-92430000D01*
X140065000Y-84180000D02*
X142655000Y-86770000D01*
X144128554Y-88520000D02*
X143158554Y-88520000D01*
X142655000Y-88070000D02*
X142708554Y-88070000D01*
D13*
X129025000Y-84800000D02*
X133625000Y-84800000D01*
D14*
X138665000Y-92430000D02*
X138665000Y-93370000D01*
X138735000Y-84740000D02*
X138375000Y-85100000D01*
X141234061Y-89672090D02*
X140625000Y-90281151D01*
X145165000Y-87820000D02*
X144983223Y-88001777D01*
X145165000Y-86190000D02*
X145165000Y-87820000D01*
D13*
X122425000Y-91400000D02*
X129025000Y-84800000D01*
D14*
X140625000Y-90790000D02*
X140305000Y-90790000D01*
X138665000Y-93370000D02*
X139005000Y-93710000D01*
X140625000Y-90281151D02*
X140625000Y-90790000D01*
X138375000Y-85100000D02*
X133925000Y-85100000D01*
X133925000Y-85100000D02*
X133625000Y-84800000D01*
X144646777Y-88001777D02*
X144128554Y-88520000D01*
X139005000Y-93710000D02*
X139505000Y-93710000D01*
X139145000Y-84180000D02*
X140065000Y-84180000D01*
X142655000Y-86770000D02*
X142655000Y-88070000D01*
D13*
X117857500Y-91667500D02*
X118125000Y-91400000D01*
D14*
X142235000Y-89324500D02*
X142235000Y-88490000D01*
X145075000Y-86100000D02*
X145165000Y-86190000D01*
X142235000Y-88490000D02*
X142655000Y-88070000D01*
X138735000Y-84740000D02*
X138735000Y-84590000D01*
D13*
X118125000Y-91400000D02*
X122425000Y-91400000D01*
D14*
X138735000Y-84590000D02*
X139145000Y-84180000D01*
X142708554Y-88070000D02*
X143158554Y-88520000D01*
X144983223Y-88001777D02*
X144646777Y-88001777D01*
%TO.N,/Neuropixels 2.0/D7*%
X141535000Y-91395000D02*
X141270000Y-91395000D01*
X143215000Y-90900500D02*
X142029500Y-90900500D01*
X143815500Y-90960000D02*
X143274500Y-90960000D01*
X143274500Y-90960000D02*
X143215000Y-90900500D01*
X143875000Y-90900500D02*
X143815500Y-90960000D01*
X140825000Y-92330000D02*
X141015000Y-92140000D01*
X140825000Y-92330000D02*
X140025000Y-93130000D01*
X144205630Y-90900500D02*
X143875000Y-90900500D01*
X140025000Y-93130000D02*
X140025000Y-93150000D01*
X141270000Y-91395000D02*
X141015000Y-91650000D01*
X141015000Y-92140000D02*
X141015000Y-91860000D01*
X141015000Y-91650000D02*
X141015000Y-91860000D01*
X144455065Y-91149935D02*
X144205630Y-90900500D01*
X142029500Y-90900500D02*
X141535000Y-91395000D01*
%TO.N,/Neuropixels 2.0/D6*%
X141625000Y-91690000D02*
X141350000Y-91965000D01*
X144595000Y-91400000D02*
X142505000Y-91400000D01*
X144735000Y-91260000D02*
X144595000Y-91400000D01*
X140815000Y-92720000D02*
X140625000Y-92910000D01*
X144985000Y-91030000D02*
X145065000Y-91110000D01*
X144735000Y-91240000D02*
X144735000Y-91130000D01*
X141350000Y-92425000D02*
X141055000Y-92720000D01*
X144835000Y-91030000D02*
X144985000Y-91030000D01*
X145065000Y-91110000D02*
X145065000Y-91230000D01*
X145065000Y-91375075D02*
X145065000Y-91230000D01*
X142215000Y-91690000D02*
X141625000Y-91690000D01*
X144735000Y-91130000D02*
X144835000Y-91030000D01*
X142505000Y-91400000D02*
X142215000Y-91690000D01*
X145075000Y-91385075D02*
X145065000Y-91375075D01*
X141055000Y-92720000D02*
X140815000Y-92720000D01*
X140625000Y-92910000D02*
X140625000Y-93150000D01*
X141350000Y-91965000D02*
X141350000Y-92425000D01*
%TO.N,/Neuropixels 2.0/D5*%
X142450000Y-92345000D02*
X142295000Y-92500000D01*
X141225000Y-92890000D02*
X141225000Y-93150000D01*
X141445000Y-92670000D02*
X141225000Y-92890000D01*
X145510587Y-91153783D02*
X145325000Y-91339370D01*
X145265000Y-91660000D02*
X144875000Y-91660000D01*
X143865000Y-91900000D02*
X143790000Y-91825000D01*
X143790000Y-91825000D02*
X142625000Y-91825000D01*
X142450000Y-92000000D02*
X142450000Y-92345000D01*
X144635000Y-91900000D02*
X143865000Y-91900000D01*
X145539322Y-91153783D02*
X145510587Y-91153783D01*
X144875000Y-91660000D02*
X144635000Y-91900000D01*
X141875000Y-92500000D02*
X141705000Y-92670000D01*
X145325000Y-91600000D02*
X145265000Y-91660000D01*
X142625000Y-91825000D02*
X142450000Y-92000000D01*
X145325000Y-91339370D02*
X145325000Y-91600000D01*
X141705000Y-92670000D02*
X141445000Y-92670000D01*
X142295000Y-92500000D02*
X141875000Y-92500000D01*
%TO.N,/Neuropixels 2.0/D4*%
X145555000Y-92000000D02*
X145555000Y-91560000D01*
X145860512Y-91110000D02*
X145860512Y-91254488D01*
X142915000Y-92120000D02*
X142815000Y-92220000D01*
X145725000Y-90730000D02*
X145845000Y-90730000D01*
X145435000Y-92120000D02*
X142915000Y-92120000D01*
X145860512Y-91254488D02*
X145555000Y-91560000D01*
X142495000Y-92770000D02*
X142815000Y-92450000D01*
X142205000Y-92770000D02*
X142495000Y-92770000D01*
X145665000Y-90910000D02*
X145665000Y-90790000D01*
X145665000Y-90790000D02*
X145725000Y-90730000D01*
X142815000Y-92450000D02*
X142815000Y-92220000D01*
X145555000Y-92000000D02*
X145435000Y-92120000D01*
X145860512Y-91110000D02*
X145662756Y-90912244D01*
X141825000Y-93150000D02*
X142205000Y-92770000D01*
X145845000Y-90730000D02*
X145855000Y-90720000D01*
X145662756Y-90912244D02*
X145665000Y-90910000D01*
%TO.N,/Neuropixels 2.0/D3*%
X143245000Y-92340000D02*
X143835000Y-92340000D01*
X143025000Y-93150000D02*
X142935000Y-93060000D01*
X143835000Y-92340000D02*
X145575000Y-92340000D01*
X145575000Y-92340000D02*
X146125000Y-91790000D01*
X142935000Y-93060000D02*
X142935000Y-92650000D01*
X146125000Y-90254872D02*
X145871150Y-90001022D01*
X146125000Y-91790000D02*
X146125000Y-90254872D01*
X142935000Y-92650000D02*
X143245000Y-92340000D01*
%TO.N,/Neuropixels 2.0/D2*%
X143805000Y-92630000D02*
X143745000Y-92690000D01*
X145675000Y-92630000D02*
X143805000Y-92630000D01*
X143715000Y-93430000D02*
X143625000Y-93340000D01*
X145675000Y-92630000D02*
X146385000Y-91920000D01*
X143745000Y-92870000D02*
X143975000Y-93100000D01*
X146385000Y-91920000D02*
X146385000Y-89990000D01*
X143625000Y-93340000D02*
X143625000Y-93150000D01*
X143975000Y-93360000D02*
X143905000Y-93430000D01*
X143745000Y-92690000D02*
X143745000Y-92870000D01*
X143905000Y-93430000D02*
X143715000Y-93430000D01*
X143975000Y-93100000D02*
X143975000Y-93360000D01*
X146185000Y-89750000D02*
X146385000Y-89950000D01*
X146385000Y-89950000D02*
X146385000Y-89990000D01*
%TO.N,/Neuropixels 2.0/D1*%
X146675000Y-89720000D02*
X146625000Y-89770000D01*
X144442500Y-93415000D02*
X144310000Y-93415000D01*
X144545000Y-93312500D02*
X144442500Y-93415000D01*
X146005000Y-92880000D02*
X146625000Y-92260000D01*
X146625000Y-89770000D02*
X146625000Y-92260000D01*
X146005000Y-92880000D02*
X144715000Y-92880000D01*
X146555000Y-89140000D02*
X146675000Y-89260000D01*
X146675000Y-89260000D02*
X146675000Y-89720000D01*
X144225000Y-93330000D02*
X144225000Y-93150000D01*
X144545000Y-93050000D02*
X144545000Y-93312500D01*
X144310000Y-93415000D02*
X144225000Y-93330000D01*
X146405000Y-89140000D02*
X146555000Y-89140000D01*
X144715000Y-92880000D02*
X144545000Y-93050000D01*
%TO.N,/Neuropixels 2.0/D0*%
X146395000Y-93150000D02*
X146875000Y-92670000D01*
X145245000Y-93290000D02*
X145385000Y-93150000D01*
X144965000Y-93290000D02*
X145005000Y-93330000D01*
X146875000Y-89100002D02*
X146425000Y-88650002D01*
X144825000Y-93150000D02*
X144965000Y-93290000D01*
X145005000Y-93330000D02*
X145205000Y-93330000D01*
X145205000Y-93330000D02*
X145245000Y-93290000D01*
X145385000Y-93150000D02*
X146395000Y-93150000D01*
X146875000Y-92670000D02*
X146875000Y-89100002D01*
%TO.N,/Neuropixels 2.0/NP_{TP0}*%
X147065000Y-88650000D02*
X147105000Y-88690000D01*
X147105000Y-88690000D02*
X147105000Y-93374500D01*
X139315000Y-94540000D02*
X145939500Y-94540000D01*
X146885000Y-86583554D02*
X147065000Y-86763554D01*
X147065000Y-86763554D02*
X147065000Y-88650000D01*
X146885000Y-86080000D02*
X146885000Y-86583554D01*
X147105000Y-93374500D02*
X145939500Y-94540000D01*
X146635000Y-83420000D02*
X146635000Y-85830000D01*
X146325000Y-95125500D02*
X146325000Y-94925500D01*
X146635000Y-85830000D02*
X146885000Y-86080000D01*
X146325000Y-94925500D02*
X145939500Y-94540000D01*
X139315000Y-94540000D02*
X138875000Y-94980000D01*
D13*
%TO.N,/Neuropixels 2.0/SDA*%
X125255000Y-90595000D02*
X130350000Y-85500000D01*
D14*
X139815000Y-84470000D02*
X142177262Y-86832262D01*
X142325000Y-90250000D02*
X143435000Y-90250000D01*
X133525000Y-85300000D02*
X138462065Y-85300000D01*
X144825000Y-86250000D02*
X144945000Y-86370000D01*
X142177262Y-88059188D02*
X141900725Y-88335725D01*
X144915000Y-85700000D02*
X144825000Y-85790000D01*
X142285000Y-90290000D02*
X142325000Y-90250000D01*
X142225000Y-90290000D02*
X142285000Y-90290000D01*
X138809800Y-85225200D02*
X139085000Y-84950000D01*
X139315000Y-84470000D02*
X139815000Y-84470000D01*
X144945000Y-86370000D02*
X144945000Y-87150000D01*
X141665000Y-89150000D02*
X141625000Y-89150000D01*
X139085000Y-84730000D02*
X139085000Y-84700000D01*
X145774501Y-90410000D02*
X143595000Y-90410000D01*
X139085000Y-84700000D02*
X139315000Y-84470000D01*
X133325000Y-85500000D02*
X133525000Y-85300000D01*
X144825000Y-85790000D02*
X144825000Y-86250000D01*
X143464751Y-87940000D02*
X143175250Y-87650499D01*
D13*
X130350000Y-85500000D02*
X133325000Y-85500000D01*
D14*
X143595000Y-90410000D02*
X143435000Y-90250000D01*
X138462065Y-85300000D02*
X138536865Y-85225200D01*
X144435000Y-87733554D02*
X144228554Y-87940000D01*
X138536865Y-85225200D02*
X138809800Y-85225200D01*
X141900725Y-88914275D02*
X141665000Y-89150000D01*
X142177262Y-86832262D02*
X142177262Y-88059188D01*
X144435000Y-87733554D02*
X144435000Y-87660000D01*
X144435000Y-87660000D02*
X144945000Y-87150000D01*
X141900725Y-88335725D02*
X141900725Y-88914275D01*
X139085000Y-84950000D02*
X139085000Y-84730000D01*
X144228554Y-87940000D02*
X143464751Y-87940000D01*
%TO.N,/Perpherials/GPIO*%
X144645000Y-85050000D02*
X145305000Y-85050000D01*
X143675000Y-82180000D02*
X144005000Y-82510000D01*
X146043890Y-87271944D02*
X146099498Y-87271944D01*
X145725500Y-86953554D02*
X146043890Y-87271944D01*
X140600000Y-82204300D02*
X140624300Y-82180000D01*
X146185000Y-86210500D02*
X145725500Y-86670000D01*
X145305000Y-85050000D02*
X146185000Y-85930000D01*
X146185000Y-85930000D02*
X146185000Y-86210500D01*
X144005000Y-82510000D02*
X144005000Y-84410000D01*
X140624300Y-82180000D02*
X143675000Y-82180000D01*
X144005000Y-84410000D02*
X144645000Y-85050000D01*
X145725500Y-86670000D02*
X145725500Y-86953554D01*
%TO.N,/Neuropixels 2.0/NP_{Select}*%
X146155000Y-88100000D02*
X146155000Y-87690000D01*
X145774501Y-88979500D02*
X145774501Y-88480499D01*
X146355000Y-87490000D02*
X146355000Y-87080000D01*
X146155000Y-87690000D02*
X146355000Y-87490000D01*
X145774501Y-88480499D02*
X146155000Y-88100000D01*
X146355000Y-87080000D02*
X146125000Y-86850000D01*
X146125000Y-86850000D02*
X145975500Y-86850000D01*
D13*
%TO.N,+2V5*%
X140375000Y-86400000D02*
X140010000Y-86035000D01*
X138215000Y-87850000D02*
X138315000Y-87750000D01*
X138215000Y-89990000D02*
X138215000Y-87850000D01*
X138315000Y-86380000D02*
X138660000Y-86035000D01*
X138315000Y-87750000D02*
X138315000Y-86380000D01*
X140010000Y-86035000D02*
X138660000Y-86035000D01*
D14*
%TO.N,Net-(U3-GPIO3{slash}CLKIN)*%
X145525500Y-86515679D02*
X145525500Y-87110500D01*
X145895000Y-87480000D02*
X145895000Y-87940000D01*
X145857158Y-86184021D02*
X145525500Y-86515679D01*
X145525500Y-87110500D02*
X145895000Y-87480000D01*
%TO.N,/Neuropixels 2.0/NP_{RESET}*%
X139655000Y-95120000D02*
X139125000Y-95650000D01*
X145635000Y-95120000D02*
X139655000Y-95120000D01*
X145675000Y-95080000D02*
X145635000Y-95120000D01*
%TO.N,+1.8VA*%
X143325000Y-92702940D02*
X143325000Y-93770000D01*
X143325000Y-93770000D02*
X143215000Y-93880000D01*
X143215000Y-93880000D02*
X143205000Y-93880000D01*
%TD*%
%TA.AperFunction,Conductor*%
%TO.N,GND*%
G36*
X147414652Y-84408744D02*
G01*
X147424500Y-84438209D01*
X147424500Y-89887091D01*
X147424497Y-89887108D01*
X147424493Y-89887108D01*
X147424493Y-89983389D01*
X147424830Y-89985301D01*
X147425000Y-89989180D01*
X147425000Y-90953689D01*
X147424255Y-90962198D01*
X147419864Y-90987107D01*
X147420608Y-90991326D01*
X147420608Y-90991327D01*
X147424256Y-91012016D01*
X147425000Y-91020525D01*
X147425000Y-91573689D01*
X147424256Y-91582198D01*
X147421366Y-91598591D01*
X147419864Y-91607107D01*
X147420608Y-91611326D01*
X147420608Y-91611327D01*
X147424256Y-91632016D01*
X147425000Y-91640525D01*
X147425000Y-92605103D01*
X147424832Y-92608936D01*
X147424499Y-92610826D01*
X147424499Y-92691190D01*
X147424500Y-92691190D01*
X147424500Y-92691192D01*
X147424500Y-96050500D01*
X147410148Y-96085148D01*
X147375500Y-96099500D01*
X137474500Y-96099500D01*
X137439852Y-96085148D01*
X137425500Y-96050500D01*
X137425500Y-95650000D01*
X138919344Y-95650000D01*
X138939710Y-95739231D01*
X138996776Y-95810788D01*
X139079237Y-95850500D01*
X139165243Y-95850500D01*
X139170763Y-95850500D01*
X139253224Y-95810788D01*
X139310290Y-95739231D01*
X139325390Y-95673066D01*
X139338512Y-95649325D01*
X139452756Y-95535081D01*
X139480554Y-95521211D01*
X139511106Y-95526844D01*
X139532130Y-95549716D01*
X139535176Y-95580633D01*
X139519344Y-95650000D01*
X139539710Y-95739231D01*
X139596776Y-95810788D01*
X139679237Y-95850500D01*
X139765243Y-95850500D01*
X139770763Y-95850500D01*
X139853224Y-95810788D01*
X139910290Y-95739231D01*
X139930656Y-95650000D01*
X141319344Y-95650000D01*
X141339710Y-95739231D01*
X141396776Y-95810788D01*
X141479237Y-95850500D01*
X141565243Y-95850500D01*
X141570763Y-95850500D01*
X141653224Y-95810788D01*
X141710290Y-95739231D01*
X141730656Y-95650000D01*
X143119344Y-95650000D01*
X143139710Y-95739231D01*
X143196776Y-95810788D01*
X143279237Y-95850500D01*
X143365243Y-95850500D01*
X143370763Y-95850500D01*
X143453224Y-95810788D01*
X143510290Y-95739231D01*
X143530656Y-95650000D01*
X144919344Y-95650000D01*
X144939710Y-95739231D01*
X144996776Y-95810788D01*
X145079237Y-95850500D01*
X145165243Y-95850500D01*
X145170763Y-95850500D01*
X145253224Y-95810788D01*
X145310290Y-95739231D01*
X145330656Y-95650000D01*
X145519344Y-95650000D01*
X145539710Y-95739231D01*
X145596776Y-95810788D01*
X145679237Y-95850500D01*
X145765243Y-95850500D01*
X145770763Y-95850500D01*
X145853224Y-95810788D01*
X145910290Y-95739231D01*
X145930656Y-95650000D01*
X145910290Y-95560769D01*
X145853224Y-95489212D01*
X145770763Y-95449500D01*
X145679237Y-95449500D01*
X145674264Y-95451894D01*
X145674263Y-95451895D01*
X145601750Y-95486816D01*
X145601748Y-95486817D01*
X145596776Y-95489212D01*
X145593335Y-95493526D01*
X145593332Y-95493529D01*
X145543154Y-95556450D01*
X145539710Y-95560769D01*
X145519344Y-95650000D01*
X145330656Y-95650000D01*
X145310290Y-95560769D01*
X145253224Y-95489212D01*
X145170763Y-95449500D01*
X145079237Y-95449500D01*
X145074264Y-95451894D01*
X145074263Y-95451895D01*
X145001750Y-95486816D01*
X145001748Y-95486817D01*
X144996776Y-95489212D01*
X144993335Y-95493526D01*
X144993332Y-95493529D01*
X144943154Y-95556450D01*
X144939710Y-95560769D01*
X144919344Y-95650000D01*
X143530656Y-95650000D01*
X143510290Y-95560769D01*
X143453224Y-95489212D01*
X143370763Y-95449500D01*
X143279237Y-95449500D01*
X143274264Y-95451894D01*
X143274263Y-95451895D01*
X143201750Y-95486816D01*
X143201748Y-95486817D01*
X143196776Y-95489212D01*
X143193335Y-95493526D01*
X143193332Y-95493529D01*
X143143154Y-95556450D01*
X143139710Y-95560769D01*
X143119344Y-95650000D01*
X141730656Y-95650000D01*
X141710290Y-95560769D01*
X141653224Y-95489212D01*
X141570763Y-95449500D01*
X141479237Y-95449500D01*
X141474264Y-95451894D01*
X141474263Y-95451895D01*
X141401750Y-95486816D01*
X141401748Y-95486817D01*
X141396776Y-95489212D01*
X141393335Y-95493526D01*
X141393332Y-95493529D01*
X141343154Y-95556450D01*
X141339710Y-95560769D01*
X141319344Y-95650000D01*
X139930656Y-95650000D01*
X139910290Y-95560769D01*
X139853224Y-95489212D01*
X139770763Y-95449500D01*
X139679237Y-95449500D01*
X139674265Y-95451894D01*
X139674262Y-95451895D01*
X139667286Y-95455255D01*
X139633787Y-95458554D01*
X139606064Y-95439461D01*
X139597200Y-95406988D01*
X139611378Y-95376460D01*
X139702986Y-95284852D01*
X139737635Y-95270500D01*
X145594673Y-95270500D01*
X145597289Y-95270500D01*
X145618545Y-95275351D01*
X145629237Y-95280500D01*
X145715243Y-95280500D01*
X145720763Y-95280500D01*
X145803224Y-95240788D01*
X145860290Y-95169231D01*
X145880656Y-95080000D01*
X145860290Y-94990769D01*
X145803224Y-94919212D01*
X145720763Y-94879500D01*
X145629237Y-94879500D01*
X145624264Y-94881894D01*
X145624263Y-94881895D01*
X145551750Y-94916816D01*
X145551748Y-94916817D01*
X145546776Y-94919212D01*
X145521382Y-94951053D01*
X145504336Y-94964648D01*
X145483076Y-94969500D01*
X139695327Y-94969500D01*
X139614673Y-94969500D01*
X139609088Y-94972723D01*
X139609085Y-94972725D01*
X139602492Y-94976532D01*
X139590679Y-94981425D01*
X139577096Y-94985065D01*
X139572538Y-94989622D01*
X139572536Y-94989624D01*
X139537954Y-95024206D01*
X139520065Y-95042095D01*
X139520064Y-95042096D01*
X139318978Y-95243183D01*
X139127013Y-95435148D01*
X139111117Y-95445770D01*
X139092365Y-95449500D01*
X139079237Y-95449500D01*
X139074264Y-95451894D01*
X139074263Y-95451895D01*
X139001750Y-95486816D01*
X139001748Y-95486817D01*
X138996776Y-95489212D01*
X138993335Y-95493526D01*
X138993332Y-95493529D01*
X138943154Y-95556450D01*
X138939710Y-95560769D01*
X138919344Y-95650000D01*
X137425500Y-95650000D01*
X137425500Y-86905860D01*
X137425500Y-86903719D01*
X137424929Y-86900481D01*
X137424985Y-86899970D01*
X137424942Y-86899478D01*
X137425040Y-86899469D01*
X137426079Y-86890000D01*
X137425000Y-86890000D01*
X137425000Y-85933418D01*
X137425744Y-85924909D01*
X137429392Y-85904220D01*
X137429392Y-85904219D01*
X137430136Y-85900000D01*
X137427195Y-85883323D01*
X137425744Y-85875091D01*
X137425000Y-85866582D01*
X137425000Y-85499500D01*
X137439352Y-85464852D01*
X137474000Y-85450500D01*
X138390049Y-85450500D01*
X138420600Y-85461190D01*
X138437820Y-85488596D01*
X138455129Y-85564431D01*
X138458573Y-85568749D01*
X138502035Y-85623249D01*
X138512195Y-85635988D01*
X138594656Y-85675700D01*
X138680662Y-85675700D01*
X138686182Y-85675700D01*
X138768643Y-85635988D01*
X138825709Y-85564431D01*
X138846075Y-85475200D01*
X138844847Y-85469820D01*
X138844847Y-85469817D01*
X138834528Y-85424609D01*
X138837387Y-85394112D01*
X138857796Y-85371272D01*
X138862302Y-85368670D01*
X138874121Y-85363773D01*
X138887704Y-85360135D01*
X138944735Y-85303105D01*
X138944735Y-85303103D01*
X139205430Y-85042409D01*
X139205430Y-85042408D01*
X139219935Y-85027904D01*
X139223573Y-85014321D01*
X139228467Y-85002505D01*
X139235500Y-84990327D01*
X139235500Y-84934123D01*
X139248580Y-84900797D01*
X139280838Y-84885262D01*
X139305732Y-84892940D01*
X139306770Y-84890785D01*
X139306775Y-84890787D01*
X139306776Y-84890788D01*
X139309807Y-84892247D01*
X139314670Y-84895698D01*
X139315050Y-84895815D01*
X139316067Y-84896626D01*
X139316035Y-84896665D01*
X139323200Y-84901749D01*
X140499260Y-86077809D01*
X140513082Y-86105267D01*
X140507826Y-86135556D01*
X140485562Y-86156753D01*
X140455052Y-86160515D01*
X140424705Y-86154478D01*
X140399617Y-86141068D01*
X140181749Y-85923200D01*
X140176666Y-85916035D01*
X140176626Y-85916068D01*
X140173184Y-85911751D01*
X140170788Y-85906776D01*
X140166470Y-85903332D01*
X140166469Y-85903331D01*
X140145964Y-85886979D01*
X140141867Y-85883318D01*
X140137748Y-85879199D01*
X140135801Y-85877252D01*
X140133467Y-85875785D01*
X140133466Y-85875784D01*
X140128534Y-85872684D01*
X140124056Y-85869507D01*
X140116997Y-85863878D01*
X140099231Y-85849710D01*
X140093850Y-85848481D01*
X140088876Y-85846086D01*
X140088897Y-85846041D01*
X140087826Y-85845597D01*
X140087810Y-85845644D01*
X140082596Y-85843819D01*
X140077924Y-85840884D01*
X140072440Y-85840266D01*
X140046371Y-85837329D01*
X140040955Y-85836409D01*
X140035270Y-85835111D01*
X140035264Y-85835110D01*
X140032590Y-85834500D01*
X140029839Y-85834500D01*
X140024007Y-85834500D01*
X140018522Y-85834192D01*
X139992460Y-85831256D01*
X139986974Y-85830638D01*
X139981761Y-85832461D01*
X139976277Y-85833080D01*
X139976271Y-85833028D01*
X139967612Y-85834500D01*
X138702390Y-85834500D01*
X138693727Y-85833028D01*
X138693722Y-85833079D01*
X138688238Y-85832461D01*
X138683026Y-85830637D01*
X138677539Y-85831255D01*
X138651473Y-85834192D01*
X138645987Y-85834500D01*
X138637410Y-85834500D01*
X138634731Y-85835111D01*
X138634724Y-85835112D01*
X138629045Y-85836408D01*
X138623637Y-85837327D01*
X138597558Y-85840266D01*
X138597556Y-85840266D01*
X138592076Y-85840884D01*
X138587404Y-85843819D01*
X138582192Y-85845643D01*
X138582175Y-85845597D01*
X138581103Y-85846041D01*
X138581125Y-85846086D01*
X138576150Y-85848481D01*
X138570769Y-85849710D01*
X138566453Y-85853151D01*
X138566450Y-85853153D01*
X138545947Y-85869503D01*
X138541476Y-85872676D01*
X138536529Y-85875785D01*
X138536519Y-85875792D01*
X138534199Y-85877251D01*
X138532260Y-85879189D01*
X138532257Y-85879192D01*
X138528126Y-85883323D01*
X138524036Y-85886977D01*
X138503528Y-85903333D01*
X138503526Y-85903335D01*
X138499212Y-85906776D01*
X138496817Y-85911747D01*
X138493375Y-85916064D01*
X138493335Y-85916032D01*
X138488250Y-85923198D01*
X138459605Y-85951843D01*
X138432147Y-85965665D01*
X138401858Y-85960409D01*
X138380661Y-85938145D01*
X138376899Y-85907635D01*
X138377579Y-85904220D01*
X138380407Y-85890001D01*
X138360965Y-85792261D01*
X138305600Y-85709400D01*
X138264360Y-85681845D01*
X138226750Y-85656715D01*
X138226749Y-85656714D01*
X138222739Y-85654035D01*
X138218008Y-85653094D01*
X138218006Y-85653093D01*
X138129735Y-85635535D01*
X138124999Y-85634593D01*
X138120263Y-85635535D01*
X138031991Y-85653093D01*
X138031987Y-85653094D01*
X138027259Y-85654035D01*
X138023249Y-85656713D01*
X138023247Y-85656715D01*
X137948409Y-85706719D01*
X137948406Y-85706721D01*
X137944398Y-85709400D01*
X137941719Y-85713408D01*
X137941717Y-85713411D01*
X137891713Y-85788249D01*
X137891711Y-85788251D01*
X137889033Y-85792261D01*
X137888092Y-85796989D01*
X137888091Y-85796993D01*
X137872557Y-85875091D01*
X137869591Y-85890001D01*
X137870533Y-85894736D01*
X137870533Y-85894737D01*
X137888091Y-85983008D01*
X137888092Y-85983010D01*
X137889033Y-85987741D01*
X137891712Y-85991751D01*
X137891713Y-85991752D01*
X137938301Y-86061478D01*
X137944398Y-86070602D01*
X138027259Y-86125967D01*
X138124999Y-86145409D01*
X138136972Y-86143027D01*
X138166231Y-86146219D01*
X138188383Y-86165600D01*
X138195434Y-86194176D01*
X138184841Y-86221637D01*
X138166974Y-86244040D01*
X138163319Y-86248131D01*
X138159197Y-86252253D01*
X138159194Y-86252256D01*
X138157252Y-86254199D01*
X138155787Y-86256529D01*
X138155786Y-86256531D01*
X138152685Y-86261465D01*
X138149512Y-86265936D01*
X138133261Y-86286316D01*
X138129710Y-86290769D01*
X138128481Y-86296151D01*
X138126086Y-86301125D01*
X138126041Y-86301103D01*
X138125597Y-86302174D01*
X138125644Y-86302191D01*
X138123820Y-86307402D01*
X138120884Y-86312076D01*
X138120266Y-86317556D01*
X138120265Y-86317561D01*
X138117328Y-86343631D01*
X138116409Y-86349038D01*
X138115112Y-86354721D01*
X138115110Y-86354734D01*
X138114500Y-86357410D01*
X138114500Y-86360161D01*
X138114500Y-86365993D01*
X138114192Y-86371478D01*
X138111594Y-86394544D01*
X138110638Y-86403026D01*
X138112461Y-86408238D01*
X138113080Y-86413723D01*
X138113028Y-86413728D01*
X138114500Y-86422388D01*
X138114500Y-87645076D01*
X138109648Y-87666336D01*
X138096052Y-87683385D01*
X138091747Y-87686817D01*
X138086776Y-87689212D01*
X138083335Y-87693526D01*
X138083333Y-87693528D01*
X138066973Y-87714041D01*
X138063319Y-87718131D01*
X138059197Y-87722253D01*
X138059194Y-87722256D01*
X138057252Y-87724199D01*
X138055787Y-87726529D01*
X138055786Y-87726531D01*
X138052685Y-87731465D01*
X138049512Y-87735936D01*
X138040311Y-87747475D01*
X138029710Y-87760769D01*
X138028481Y-87766151D01*
X138026086Y-87771125D01*
X138026041Y-87771103D01*
X138025597Y-87772174D01*
X138025644Y-87772191D01*
X138023820Y-87777402D01*
X138020884Y-87782076D01*
X138020266Y-87787556D01*
X138020265Y-87787561D01*
X138017328Y-87813631D01*
X138016409Y-87819038D01*
X138015112Y-87824721D01*
X138015110Y-87824734D01*
X138014500Y-87827410D01*
X138014500Y-87830161D01*
X138014500Y-87835993D01*
X138014192Y-87841478D01*
X138011335Y-87866842D01*
X138010638Y-87873026D01*
X138012461Y-87878238D01*
X138013080Y-87883723D01*
X138013028Y-87883728D01*
X138014500Y-87892388D01*
X138014500Y-89961892D01*
X138013271Y-89972796D01*
X138010572Y-89984617D01*
X138010572Y-89984620D01*
X138009344Y-89990000D01*
X138010572Y-89995380D01*
X138010572Y-89995381D01*
X138024086Y-90054593D01*
X138029710Y-90079231D01*
X138054053Y-90109756D01*
X138083129Y-90146216D01*
X138086776Y-90150788D01*
X138169237Y-90190500D01*
X138255243Y-90190500D01*
X138260763Y-90190500D01*
X138343224Y-90150788D01*
X138400290Y-90079231D01*
X138420656Y-89990000D01*
X138416728Y-89972793D01*
X138415500Y-89961892D01*
X138415500Y-88299258D01*
X138428581Y-88265929D01*
X138460839Y-88250395D01*
X138491947Y-88259991D01*
X138492066Y-88260140D01*
X138497042Y-88262536D01*
X138501359Y-88265979D01*
X138501326Y-88266019D01*
X138508489Y-88271100D01*
X139002740Y-88765352D01*
X139017092Y-88799999D01*
X139002740Y-88834647D01*
X138913199Y-88924188D01*
X138906033Y-88929274D01*
X138906064Y-88929313D01*
X138901745Y-88932756D01*
X138896776Y-88935150D01*
X138893338Y-88939460D01*
X138893334Y-88939464D01*
X138876973Y-88959979D01*
X138873319Y-88964069D01*
X138869197Y-88968191D01*
X138869194Y-88968194D01*
X138867252Y-88970137D01*
X138865787Y-88972467D01*
X138865786Y-88972469D01*
X138862685Y-88977403D01*
X138859512Y-88981874D01*
X138843153Y-89002389D01*
X138839710Y-89006707D01*
X138838481Y-89012089D01*
X138836086Y-89017063D01*
X138836041Y-89017041D01*
X138835597Y-89018112D01*
X138835644Y-89018129D01*
X138833820Y-89023340D01*
X138830884Y-89028014D01*
X138830266Y-89033494D01*
X138830265Y-89033499D01*
X138827328Y-89059569D01*
X138826409Y-89064976D01*
X138825112Y-89070659D01*
X138825110Y-89070672D01*
X138824500Y-89073348D01*
X138824500Y-89076099D01*
X138824500Y-89081931D01*
X138824192Y-89087416D01*
X138821837Y-89108325D01*
X138820638Y-89118964D01*
X138822461Y-89124176D01*
X138823080Y-89129661D01*
X138823028Y-89129666D01*
X138824500Y-89138326D01*
X138824500Y-89217364D01*
X138810148Y-89252012D01*
X138637096Y-89425065D01*
X138584626Y-89477534D01*
X138584624Y-89477536D01*
X138580065Y-89482096D01*
X138578396Y-89488323D01*
X138578395Y-89488326D01*
X138576425Y-89495680D01*
X138571532Y-89507492D01*
X138567725Y-89514085D01*
X138567723Y-89514088D01*
X138564500Y-89519673D01*
X138564499Y-89526119D01*
X138564499Y-89526123D01*
X138564499Y-89572205D01*
X138564499Y-89600326D01*
X138564500Y-89600328D01*
X138564500Y-90706249D01*
X138564500Y-90786903D01*
X138567724Y-90792487D01*
X138567725Y-90792490D01*
X138571531Y-90799082D01*
X138576426Y-90810899D01*
X138578395Y-90818250D01*
X138578396Y-90818252D01*
X138580065Y-90824480D01*
X138584624Y-90829039D01*
X138637094Y-90881510D01*
X138637100Y-90881515D01*
X138770986Y-91015401D01*
X138784109Y-91039145D01*
X138797672Y-91098571D01*
X138799210Y-91105307D01*
X138809120Y-91117734D01*
X138823309Y-91135525D01*
X138834000Y-91166077D01*
X138834000Y-91244435D01*
X138824963Y-91272790D01*
X138801184Y-91290685D01*
X138771436Y-91291520D01*
X138746691Y-91274987D01*
X138744939Y-91272790D01*
X138698224Y-91214212D01*
X138691639Y-91211041D01*
X138620736Y-91176895D01*
X138615763Y-91174500D01*
X138524237Y-91174500D01*
X138519264Y-91176894D01*
X138519263Y-91176895D01*
X138446750Y-91211816D01*
X138446748Y-91211817D01*
X138441776Y-91214212D01*
X138438335Y-91218526D01*
X138438332Y-91218529D01*
X138393180Y-91275148D01*
X138384710Y-91285769D01*
X138383481Y-91291150D01*
X138383481Y-91291152D01*
X138375373Y-91326678D01*
X138364344Y-91375000D01*
X138365572Y-91380380D01*
X138382797Y-91455852D01*
X138384710Y-91464231D01*
X138402788Y-91486899D01*
X138438150Y-91531242D01*
X138441776Y-91535788D01*
X138524237Y-91575500D01*
X138529757Y-91575500D01*
X138608365Y-91575500D01*
X138643013Y-91589852D01*
X138657365Y-91624500D01*
X138643013Y-91659148D01*
X138017221Y-92284939D01*
X138017219Y-92284941D01*
X138012660Y-92289501D01*
X138010991Y-92295728D01*
X138010990Y-92295731D01*
X138009020Y-92303085D01*
X138004127Y-92314897D01*
X138000320Y-92321490D01*
X138000318Y-92321493D01*
X137997095Y-92327078D01*
X137997094Y-92333524D01*
X137997094Y-92333528D01*
X137997094Y-92377729D01*
X137986404Y-92408278D01*
X137965746Y-92434182D01*
X137965743Y-92434187D01*
X137962305Y-92438499D01*
X137961078Y-92443874D01*
X137961077Y-92443877D01*
X137949394Y-92495065D01*
X137941939Y-92527730D01*
X137943167Y-92533110D01*
X137960782Y-92610291D01*
X137962305Y-92616961D01*
X137988656Y-92650003D01*
X138005353Y-92670941D01*
X138019371Y-92688518D01*
X138101832Y-92728230D01*
X138187838Y-92728230D01*
X138193358Y-92728230D01*
X138275819Y-92688518D01*
X138332885Y-92616961D01*
X138353251Y-92527730D01*
X138332885Y-92438499D01*
X138332408Y-92437901D01*
X138328734Y-92411885D01*
X138342392Y-92385445D01*
X139104930Y-91622909D01*
X139119435Y-91608404D01*
X139123073Y-91594821D01*
X139127967Y-91583005D01*
X139135000Y-91570827D01*
X139135000Y-91490174D01*
X139135000Y-91166077D01*
X139145691Y-91135525D01*
X139169790Y-91105307D01*
X139190156Y-91016076D01*
X139169790Y-90926845D01*
X139129419Y-90876223D01*
X139116167Y-90859605D01*
X139116166Y-90859604D01*
X139112724Y-90855288D01*
X139030263Y-90815576D01*
X139024743Y-90815576D01*
X139017135Y-90815576D01*
X138982487Y-90801224D01*
X138879852Y-90698589D01*
X138865500Y-90663941D01*
X138865500Y-89642635D01*
X138879852Y-89607987D01*
X139022987Y-89464852D01*
X139057635Y-89450500D01*
X139065243Y-89450500D01*
X139070763Y-89450500D01*
X139153224Y-89410788D01*
X139210290Y-89339231D01*
X139225500Y-89272590D01*
X139227470Y-89263957D01*
X139229427Y-89255385D01*
X139230656Y-89250000D01*
X139226728Y-89232793D01*
X139225500Y-89221892D01*
X139225500Y-89199283D01*
X139229230Y-89180531D01*
X139239852Y-89164635D01*
X139389636Y-89014852D01*
X139424284Y-89000500D01*
X140681655Y-89000500D01*
X140716303Y-89014852D01*
X141129168Y-89427717D01*
X141142972Y-89455060D01*
X141137843Y-89485258D01*
X141115785Y-89506510D01*
X141110813Y-89508904D01*
X141110807Y-89508908D01*
X141105837Y-89511302D01*
X141102396Y-89515616D01*
X141102393Y-89515619D01*
X141052214Y-89578541D01*
X141052213Y-89578542D01*
X141048771Y-89582859D01*
X141047542Y-89588240D01*
X141047542Y-89588242D01*
X141033670Y-89649019D01*
X141020547Y-89672763D01*
X140547096Y-90146216D01*
X140494626Y-90198685D01*
X140494624Y-90198687D01*
X140490065Y-90203247D01*
X140488396Y-90209474D01*
X140488395Y-90209477D01*
X140486425Y-90216831D01*
X140481532Y-90228643D01*
X140477725Y-90235236D01*
X140477723Y-90235239D01*
X140474500Y-90240824D01*
X140474499Y-90247270D01*
X140474499Y-90247274D01*
X140474499Y-90284620D01*
X140474499Y-90321477D01*
X140474500Y-90321478D01*
X140474500Y-90321479D01*
X140474500Y-90590500D01*
X140460148Y-90625148D01*
X140425500Y-90639500D01*
X140345327Y-90639500D01*
X140264673Y-90639500D01*
X140259088Y-90642723D01*
X140259085Y-90642725D01*
X140252492Y-90646532D01*
X140240679Y-90651425D01*
X140227096Y-90655065D01*
X140222538Y-90659622D01*
X140222536Y-90659624D01*
X138587096Y-92295064D01*
X138587096Y-92295065D01*
X138534626Y-92347534D01*
X138534624Y-92347536D01*
X138530065Y-92352096D01*
X138528396Y-92358323D01*
X138528395Y-92358326D01*
X138526425Y-92365680D01*
X138521532Y-92377492D01*
X138517725Y-92384085D01*
X138517723Y-92384088D01*
X138514500Y-92389673D01*
X138514499Y-92396119D01*
X138514499Y-92396123D01*
X138514499Y-92434182D01*
X138514499Y-92470326D01*
X138514500Y-92470328D01*
X138514500Y-93329673D01*
X138514500Y-93410327D01*
X138517724Y-93415911D01*
X138517725Y-93415914D01*
X138521531Y-93422506D01*
X138526426Y-93434323D01*
X138528395Y-93441674D01*
X138528396Y-93441676D01*
X138530065Y-93447904D01*
X138562660Y-93480500D01*
X138587094Y-93504934D01*
X138587100Y-93504939D01*
X138870065Y-93787903D01*
X138870065Y-93787904D01*
X138927096Y-93844935D01*
X138940677Y-93848573D01*
X138952497Y-93853469D01*
X138964673Y-93860500D01*
X139045327Y-93860501D01*
X139045329Y-93860500D01*
X139348700Y-93860500D01*
X139376263Y-93870145D01*
X139376776Y-93870788D01*
X139459237Y-93910500D01*
X139545243Y-93910500D01*
X139550763Y-93910500D01*
X139633224Y-93870788D01*
X139690290Y-93799231D01*
X139710656Y-93710000D01*
X139709428Y-93704620D01*
X139709428Y-93704617D01*
X139702760Y-93675404D01*
X139704918Y-93646598D01*
X139722929Y-93624014D01*
X139750530Y-93615500D01*
X139800327Y-93615501D01*
X139800329Y-93615500D01*
X142069673Y-93615500D01*
X142129814Y-93615500D01*
X142150327Y-93615500D01*
X142162505Y-93608467D01*
X142174321Y-93603573D01*
X142187904Y-93599935D01*
X142244935Y-93542905D01*
X142244935Y-93542903D01*
X142422986Y-93364852D01*
X142457635Y-93350500D01*
X142465243Y-93350500D01*
X142470763Y-93350500D01*
X142553224Y-93310788D01*
X142610290Y-93239231D01*
X142630656Y-93150000D01*
X142610290Y-93060769D01*
X142553224Y-92989212D01*
X142552134Y-92988687D01*
X142535676Y-92960585D01*
X142542876Y-92926091D01*
X142562305Y-92911942D01*
X142561086Y-92909830D01*
X142566674Y-92906603D01*
X142572904Y-92904935D01*
X142629935Y-92847905D01*
X142629935Y-92847903D01*
X142700852Y-92776985D01*
X142735500Y-92762634D01*
X142770148Y-92776986D01*
X142784500Y-92811634D01*
X142784500Y-93019673D01*
X142784500Y-93100327D01*
X142787724Y-93105911D01*
X142787725Y-93105914D01*
X142791531Y-93112506D01*
X142796426Y-93124323D01*
X142797124Y-93126930D01*
X142800065Y-93137904D01*
X142804626Y-93142464D01*
X142804626Y-93142465D01*
X142811486Y-93149325D01*
X142824609Y-93173069D01*
X142835175Y-93219364D01*
X142839710Y-93239231D01*
X142843152Y-93243547D01*
X142880391Y-93290243D01*
X142896776Y-93310788D01*
X142979237Y-93350500D01*
X143065243Y-93350500D01*
X143070763Y-93350500D01*
X143104240Y-93334377D01*
X143136403Y-93330753D01*
X143163810Y-93347974D01*
X143174500Y-93378525D01*
X143174500Y-93641361D01*
X143166990Y-93667430D01*
X143146761Y-93685508D01*
X143081750Y-93716816D01*
X143081748Y-93716817D01*
X143076776Y-93719212D01*
X143073335Y-93723526D01*
X143073332Y-93723529D01*
X143023154Y-93786450D01*
X143019710Y-93790769D01*
X143018481Y-93796150D01*
X143018481Y-93796152D01*
X143006517Y-93848573D01*
X142999344Y-93880000D01*
X143019710Y-93969231D01*
X143027466Y-93978956D01*
X143066562Y-94027981D01*
X143076776Y-94040788D01*
X143159237Y-94080500D01*
X143245243Y-94080500D01*
X143250763Y-94080500D01*
X143333224Y-94040788D01*
X143390290Y-93969231D01*
X143402433Y-93916026D01*
X143415557Y-93892281D01*
X143427813Y-93880026D01*
X143445430Y-93862409D01*
X143459935Y-93847904D01*
X143463573Y-93834321D01*
X143468467Y-93822505D01*
X143475500Y-93810327D01*
X143475500Y-93729674D01*
X143475500Y-93521636D01*
X143489851Y-93486988D01*
X143524499Y-93472636D01*
X143559147Y-93486987D01*
X143580064Y-93507903D01*
X143580065Y-93507904D01*
X143637096Y-93564935D01*
X143650677Y-93568573D01*
X143662497Y-93573469D01*
X143674673Y-93580500D01*
X143695186Y-93580500D01*
X143755326Y-93580500D01*
X143864673Y-93580500D01*
X143924814Y-93580500D01*
X143938876Y-93580500D01*
X143945327Y-93580500D01*
X143957505Y-93573467D01*
X143969321Y-93568573D01*
X143982904Y-93564935D01*
X144039935Y-93507905D01*
X144039935Y-93507903D01*
X144080353Y-93467485D01*
X144115000Y-93453135D01*
X144149648Y-93467487D01*
X144175065Y-93492904D01*
X144232096Y-93549935D01*
X144245677Y-93553573D01*
X144257497Y-93558469D01*
X144269673Y-93565500D01*
X144290186Y-93565500D01*
X144350326Y-93565500D01*
X144402173Y-93565500D01*
X144462314Y-93565500D01*
X144476376Y-93565500D01*
X144482827Y-93565500D01*
X144495005Y-93558467D01*
X144506821Y-93553573D01*
X144520404Y-93549935D01*
X144577435Y-93492905D01*
X144577435Y-93492903D01*
X144665430Y-93404909D01*
X144679935Y-93390404D01*
X144683573Y-93376821D01*
X144688466Y-93365007D01*
X144692036Y-93358824D01*
X144720027Y-93336504D01*
X144755730Y-93339180D01*
X144774261Y-93348104D01*
X144774262Y-93348104D01*
X144779237Y-93350500D01*
X144792365Y-93350500D01*
X144827013Y-93364852D01*
X144844570Y-93382409D01*
X144912591Y-93450431D01*
X144912593Y-93450432D01*
X144927096Y-93464935D01*
X144933327Y-93466604D01*
X144933328Y-93466605D01*
X144934478Y-93466913D01*
X144940676Y-93468573D01*
X144952492Y-93473467D01*
X144964673Y-93480500D01*
X145045327Y-93480501D01*
X145045329Y-93480500D01*
X145164673Y-93480500D01*
X145224814Y-93480500D01*
X145245327Y-93480500D01*
X145257505Y-93473467D01*
X145269321Y-93468573D01*
X145282904Y-93464935D01*
X145339935Y-93407905D01*
X145339935Y-93407904D01*
X145365431Y-93382409D01*
X145365432Y-93382406D01*
X145432988Y-93314850D01*
X145467635Y-93300500D01*
X146199954Y-93300500D01*
X146228309Y-93309537D01*
X146246204Y-93333316D01*
X146247039Y-93363064D01*
X146230893Y-93387229D01*
X146226776Y-93389212D01*
X146223335Y-93393526D01*
X146223332Y-93393529D01*
X146176381Y-93452404D01*
X146169710Y-93460769D01*
X146168481Y-93466150D01*
X146168481Y-93466152D01*
X146158588Y-93509500D01*
X146149344Y-93550000D01*
X146169710Y-93639231D01*
X146198242Y-93675009D01*
X146221854Y-93704617D01*
X146226776Y-93710788D01*
X146309237Y-93750500D01*
X146314757Y-93750500D01*
X146397864Y-93750500D01*
X146425087Y-93758758D01*
X146443134Y-93780749D01*
X146445922Y-93809060D01*
X146432512Y-93834148D01*
X146340426Y-93926233D01*
X146309439Y-93940448D01*
X146276679Y-93931009D01*
X146258006Y-93902486D01*
X146257955Y-93902264D01*
X146253866Y-93884345D01*
X146196800Y-93812788D01*
X146178294Y-93803876D01*
X146119312Y-93775471D01*
X146114339Y-93773076D01*
X146022813Y-93773076D01*
X146017840Y-93775470D01*
X146017839Y-93775471D01*
X145945326Y-93810392D01*
X145945324Y-93810393D01*
X145940352Y-93812788D01*
X145936911Y-93817102D01*
X145936908Y-93817105D01*
X145887881Y-93878583D01*
X145883286Y-93884345D01*
X145882057Y-93889726D01*
X145882057Y-93889728D01*
X145872635Y-93931009D01*
X145862920Y-93973576D01*
X145883286Y-94062807D01*
X145940352Y-94134364D01*
X145959456Y-94143564D01*
X146007686Y-94166791D01*
X146029748Y-94188042D01*
X146034879Y-94218241D01*
X146021074Y-94245586D01*
X145891513Y-94375148D01*
X145875617Y-94385770D01*
X145856865Y-94389500D01*
X139355327Y-94389500D01*
X139274673Y-94389500D01*
X139269088Y-94392723D01*
X139269085Y-94392725D01*
X139262492Y-94396532D01*
X139250679Y-94401425D01*
X139237096Y-94405065D01*
X139232538Y-94409622D01*
X139232536Y-94409624D01*
X139180064Y-94462096D01*
X138877013Y-94765148D01*
X138861117Y-94775770D01*
X138842365Y-94779500D01*
X138829237Y-94779500D01*
X138824264Y-94781894D01*
X138824263Y-94781895D01*
X138751750Y-94816816D01*
X138751748Y-94816817D01*
X138746776Y-94819212D01*
X138743335Y-94823526D01*
X138743332Y-94823529D01*
X138693154Y-94886450D01*
X138689710Y-94890769D01*
X138669344Y-94980000D01*
X138670572Y-94985380D01*
X138683516Y-95042095D01*
X138689710Y-95069231D01*
X138746776Y-95140788D01*
X138829237Y-95180500D01*
X138915243Y-95180500D01*
X138920763Y-95180500D01*
X139003224Y-95140788D01*
X139060290Y-95069231D01*
X139075390Y-95003066D01*
X139088512Y-94979325D01*
X139362986Y-94704852D01*
X139397635Y-94690500D01*
X145856865Y-94690500D01*
X145891513Y-94704852D01*
X146145668Y-94959007D01*
X146159943Y-94990907D01*
X146149330Y-95024206D01*
X146143151Y-95031953D01*
X146143149Y-95031956D01*
X146139710Y-95036269D01*
X146138482Y-95041646D01*
X146138481Y-95041650D01*
X146128501Y-95085380D01*
X146119344Y-95125500D01*
X146139710Y-95214731D01*
X146143154Y-95219049D01*
X146188054Y-95275352D01*
X146196776Y-95286288D01*
X146279237Y-95326000D01*
X146365243Y-95326000D01*
X146370763Y-95326000D01*
X146453224Y-95286288D01*
X146510290Y-95214731D01*
X146530656Y-95125500D01*
X146510290Y-95036269D01*
X146486190Y-95006050D01*
X146475500Y-94975499D01*
X146475500Y-94891624D01*
X146475500Y-94885173D01*
X146468469Y-94872997D01*
X146463573Y-94861176D01*
X146459935Y-94847596D01*
X146455376Y-94843037D01*
X146455375Y-94843035D01*
X146402905Y-94790565D01*
X146402903Y-94790564D01*
X146186987Y-94574647D01*
X146172635Y-94540000D01*
X146186987Y-94505352D01*
X146694335Y-93998004D01*
X147225430Y-93466909D01*
X147225430Y-93466908D01*
X147239935Y-93452404D01*
X147243573Y-93438821D01*
X147248467Y-93427005D01*
X147255500Y-93414827D01*
X147255501Y-93334174D01*
X147255500Y-93334172D01*
X147255500Y-88670186D01*
X147255500Y-88649673D01*
X147248467Y-88637492D01*
X147243573Y-88625675D01*
X147241604Y-88618326D01*
X147239935Y-88612096D01*
X147229849Y-88602009D01*
X147215500Y-88567364D01*
X147215500Y-86729678D01*
X147215500Y-86723227D01*
X147208469Y-86711051D01*
X147203573Y-86699230D01*
X147199935Y-86685650D01*
X147195376Y-86681091D01*
X147195375Y-86681089D01*
X147142905Y-86628619D01*
X147142903Y-86628618D01*
X147049852Y-86535567D01*
X147035500Y-86500919D01*
X147035500Y-86046124D01*
X147035500Y-86039673D01*
X147028469Y-86027497D01*
X147023573Y-86015676D01*
X147019935Y-86002096D01*
X147015376Y-85997537D01*
X147015375Y-85997535D01*
X146962905Y-85945065D01*
X146962903Y-85945064D01*
X146799852Y-85782013D01*
X146785500Y-85747365D01*
X146785500Y-84850197D01*
X146794538Y-84821842D01*
X146818316Y-84803947D01*
X146835014Y-84798104D01*
X146984522Y-84745789D01*
X147137262Y-84649816D01*
X147264816Y-84522262D01*
X147334010Y-84412139D01*
X147358026Y-84392431D01*
X147389065Y-84391124D01*
X147414652Y-84408744D01*
G37*
%TD.AperFunction*%
%TA.AperFunction,Conductor*%
G36*
X140850148Y-91666986D02*
G01*
X140864500Y-91701634D01*
X140864500Y-92057365D01*
X140860770Y-92076117D01*
X140850148Y-92092013D01*
X140732590Y-92209570D01*
X140004980Y-92937180D01*
X139982692Y-92949500D01*
X139979237Y-92949500D01*
X139974266Y-92951893D01*
X139974261Y-92951895D01*
X139901750Y-92986816D01*
X139901748Y-92986817D01*
X139896776Y-92989212D01*
X139882807Y-93006727D01*
X139858065Y-93023260D01*
X139828316Y-93022425D01*
X139804538Y-93004530D01*
X139795500Y-92976175D01*
X139795500Y-92792635D01*
X139809852Y-92757987D01*
X139883639Y-92684200D01*
X139960430Y-92607409D01*
X139960430Y-92607408D01*
X139974935Y-92592904D01*
X139978573Y-92579321D01*
X139983467Y-92567505D01*
X139990500Y-92555327D01*
X139990501Y-92474673D01*
X139990500Y-92474671D01*
X139990500Y-92460186D01*
X139990500Y-92237635D01*
X139994230Y-92218883D01*
X140004852Y-92202987D01*
X140222988Y-91984852D01*
X140257636Y-91970500D01*
X140448876Y-91970500D01*
X140455327Y-91970500D01*
X140467505Y-91963467D01*
X140479321Y-91958573D01*
X140492904Y-91954935D01*
X140549935Y-91897905D01*
X140549935Y-91897903D01*
X140780852Y-91666985D01*
X140815500Y-91652634D01*
X140850148Y-91666986D01*
G37*
%TD.AperFunction*%
%TA.AperFunction,Conductor*%
G36*
X143167013Y-91065352D02*
G01*
X143196596Y-91094935D01*
X143210177Y-91098573D01*
X143221997Y-91103469D01*
X143234173Y-91110500D01*
X143314827Y-91110501D01*
X143314829Y-91110500D01*
X143775173Y-91110500D01*
X143835314Y-91110500D01*
X143855827Y-91110500D01*
X143868005Y-91103467D01*
X143879821Y-91098573D01*
X143893404Y-91094935D01*
X143922988Y-91065351D01*
X143957637Y-91051000D01*
X144122995Y-91051000D01*
X144157643Y-91065352D01*
X144241551Y-91149260D01*
X144254674Y-91173005D01*
X144258461Y-91189597D01*
X144256303Y-91218402D01*
X144238293Y-91240986D01*
X144210690Y-91249500D01*
X142545327Y-91249500D01*
X142464673Y-91249500D01*
X142459088Y-91252723D01*
X142459085Y-91252725D01*
X142452492Y-91256532D01*
X142440679Y-91261425D01*
X142427096Y-91265065D01*
X142422538Y-91269622D01*
X142422536Y-91269624D01*
X142396316Y-91295844D01*
X142370065Y-91322095D01*
X142370064Y-91322096D01*
X142261569Y-91430592D01*
X142167013Y-91525148D01*
X142151117Y-91535770D01*
X142132365Y-91539500D01*
X141721634Y-91539500D01*
X141694411Y-91531242D01*
X141676364Y-91509251D01*
X141673576Y-91480941D01*
X141686986Y-91455852D01*
X141881414Y-91261425D01*
X142077486Y-91065352D01*
X142112135Y-91051000D01*
X143132365Y-91051000D01*
X143167013Y-91065352D01*
G37*
%TD.AperFunction*%
%TA.AperFunction,Conductor*%
G36*
X141954924Y-90115353D02*
G01*
X141971974Y-90128949D01*
X141989389Y-90150788D01*
X141994154Y-90156762D01*
X142009043Y-90163932D01*
X142031928Y-90186817D01*
X142035553Y-90218981D01*
X142030568Y-90240824D01*
X142019344Y-90290000D01*
X142020572Y-90295380D01*
X142032257Y-90346579D01*
X142039710Y-90379231D01*
X142056672Y-90400500D01*
X142084013Y-90434785D01*
X142096776Y-90450788D01*
X142179237Y-90490500D01*
X142265243Y-90490500D01*
X142270763Y-90490500D01*
X142353224Y-90450788D01*
X142378617Y-90418946D01*
X142395664Y-90405352D01*
X142416924Y-90400500D01*
X143352365Y-90400500D01*
X143387013Y-90414852D01*
X143425345Y-90453183D01*
X143460065Y-90487903D01*
X143460065Y-90487904D01*
X143517096Y-90544935D01*
X143530677Y-90548573D01*
X143542497Y-90553469D01*
X143554673Y-90560500D01*
X143575186Y-90560500D01*
X143635326Y-90560500D01*
X145563363Y-90560500D01*
X145598011Y-90574852D01*
X145612363Y-90609500D01*
X145598011Y-90644148D01*
X145590065Y-90652094D01*
X145590065Y-90652095D01*
X145590064Y-90652096D01*
X145587096Y-90655065D01*
X145587090Y-90655071D01*
X145534626Y-90707534D01*
X145534624Y-90707536D01*
X145530065Y-90712096D01*
X145528396Y-90718323D01*
X145528395Y-90718326D01*
X145526425Y-90725680D01*
X145521532Y-90737492D01*
X145517725Y-90744085D01*
X145517723Y-90744088D01*
X145514500Y-90749673D01*
X145514499Y-90756119D01*
X145514499Y-90756123D01*
X145514499Y-90790000D01*
X145514499Y-90830326D01*
X145514500Y-90830330D01*
X145514500Y-90863541D01*
X145513734Y-90869356D01*
X145512256Y-90871917D01*
X145512255Y-90878361D01*
X145512255Y-90878365D01*
X145512255Y-90913491D01*
X145504744Y-90939560D01*
X145484516Y-90957637D01*
X145423324Y-90987107D01*
X145411098Y-90992995D01*
X145407657Y-90997309D01*
X145407654Y-90997312D01*
X145357475Y-91060234D01*
X145357474Y-91060235D01*
X145354032Y-91064552D01*
X145352803Y-91069933D01*
X145352803Y-91069935D01*
X145347429Y-91093479D01*
X145334307Y-91117223D01*
X145299146Y-91152383D01*
X145274060Y-91165792D01*
X145245749Y-91163004D01*
X145223758Y-91144957D01*
X145215500Y-91117734D01*
X145215500Y-91076124D01*
X145215500Y-91069673D01*
X145208469Y-91057497D01*
X145203573Y-91045676D01*
X145201823Y-91039145D01*
X145199935Y-91032096D01*
X145195376Y-91027537D01*
X145195375Y-91027535D01*
X145142905Y-90975065D01*
X145142903Y-90975064D01*
X145077409Y-90909570D01*
X145077409Y-90909569D01*
X145062904Y-90895065D01*
X145049323Y-90891426D01*
X145037506Y-90886531D01*
X145030914Y-90882725D01*
X145030911Y-90882724D01*
X145025327Y-90879500D01*
X145018879Y-90879499D01*
X145018876Y-90879499D01*
X144944679Y-90879499D01*
X144944678Y-90879499D01*
X144944674Y-90879499D01*
X144944672Y-90879499D01*
X144944671Y-90879500D01*
X144875327Y-90879500D01*
X144794673Y-90879500D01*
X144789088Y-90882723D01*
X144789085Y-90882725D01*
X144782492Y-90886532D01*
X144770680Y-90891425D01*
X144767002Y-90892410D01*
X144757096Y-90895065D01*
X144752538Y-90899622D01*
X144752536Y-90899624D01*
X144725315Y-90926845D01*
X144700065Y-90952095D01*
X144700064Y-90952096D01*
X144677096Y-90975064D01*
X144657430Y-90994730D01*
X144633684Y-91007853D01*
X144606595Y-91006330D01*
X144591865Y-90995877D01*
X144591046Y-90996905D01*
X144586732Y-90993464D01*
X144583289Y-90989147D01*
X144570292Y-90982888D01*
X144524572Y-90960870D01*
X144500828Y-90949435D01*
X144495308Y-90949435D01*
X144487700Y-90949435D01*
X144453052Y-90935083D01*
X144298039Y-90780070D01*
X144298039Y-90780069D01*
X144283534Y-90765565D01*
X144269953Y-90761926D01*
X144258136Y-90757031D01*
X144251544Y-90753225D01*
X144251541Y-90753224D01*
X144245957Y-90750000D01*
X144239509Y-90749999D01*
X144239506Y-90749999D01*
X144165309Y-90749999D01*
X144165308Y-90749999D01*
X144165304Y-90749999D01*
X144165302Y-90749999D01*
X144165301Y-90750000D01*
X143915327Y-90750000D01*
X143834673Y-90750000D01*
X143829088Y-90753223D01*
X143829085Y-90753225D01*
X143822492Y-90757032D01*
X143810680Y-90761925D01*
X143807002Y-90762910D01*
X143797096Y-90765565D01*
X143792539Y-90770121D01*
X143792535Y-90770124D01*
X143767511Y-90795149D01*
X143732863Y-90809500D01*
X143357135Y-90809500D01*
X143322487Y-90795148D01*
X143307409Y-90780070D01*
X143307409Y-90780069D01*
X143292904Y-90765565D01*
X143279323Y-90761926D01*
X143267506Y-90757031D01*
X143260914Y-90753225D01*
X143260911Y-90753224D01*
X143255327Y-90750000D01*
X143248879Y-90749999D01*
X143248876Y-90749999D01*
X143174679Y-90749999D01*
X143174678Y-90749999D01*
X143174674Y-90749999D01*
X143174672Y-90749999D01*
X143174671Y-90750000D01*
X142069827Y-90750000D01*
X141989173Y-90750000D01*
X141983588Y-90753223D01*
X141983585Y-90753225D01*
X141976992Y-90757032D01*
X141965180Y-90761925D01*
X141961502Y-90762910D01*
X141951596Y-90765565D01*
X141947038Y-90770122D01*
X141947036Y-90770124D01*
X141922012Y-90795148D01*
X141894565Y-90822595D01*
X141894564Y-90822596D01*
X141683661Y-91033500D01*
X141487013Y-91230148D01*
X141471117Y-91240770D01*
X141452365Y-91244500D01*
X141321635Y-91244500D01*
X141286987Y-91230148D01*
X141272635Y-91195500D01*
X141286987Y-91160852D01*
X141520994Y-90926845D01*
X141745430Y-90702409D01*
X141759935Y-90687904D01*
X141763573Y-90674321D01*
X141768467Y-90662505D01*
X141775500Y-90650327D01*
X141775500Y-90569674D01*
X141775500Y-90360001D01*
X141786191Y-90329449D01*
X141792547Y-90321479D01*
X141810290Y-90299231D01*
X141830656Y-90210000D01*
X141829428Y-90204620D01*
X141829428Y-90204617D01*
X141821619Y-90170404D01*
X141823777Y-90141598D01*
X141841787Y-90119014D01*
X141869390Y-90110500D01*
X141933664Y-90110500D01*
X141954924Y-90115353D01*
G37*
%TD.AperFunction*%
%TA.AperFunction,Conductor*%
G36*
X145656878Y-89899014D02*
G01*
X145674888Y-89921598D01*
X145677047Y-89950403D01*
X145669519Y-89983389D01*
X145665494Y-90001022D01*
X145666722Y-90006402D01*
X145682115Y-90073847D01*
X145685860Y-90090253D01*
X145728158Y-90143292D01*
X145738711Y-90170180D01*
X145732284Y-90198341D01*
X145711109Y-90217989D01*
X145651251Y-90246816D01*
X145651249Y-90246817D01*
X145646277Y-90249212D01*
X145645764Y-90249854D01*
X145618201Y-90259500D01*
X143677635Y-90259500D01*
X143642987Y-90245148D01*
X143517465Y-90119626D01*
X143512904Y-90115065D01*
X143506672Y-90113395D01*
X143499323Y-90111426D01*
X143487506Y-90106531D01*
X143480914Y-90102725D01*
X143480911Y-90102724D01*
X143475327Y-90099500D01*
X143468879Y-90099499D01*
X143468876Y-90099499D01*
X143394679Y-90099499D01*
X143394678Y-90099499D01*
X143394674Y-90099499D01*
X143394672Y-90099499D01*
X143394671Y-90099500D01*
X142365850Y-90099500D01*
X142338248Y-90090986D01*
X142320237Y-90068402D01*
X142318078Y-90039597D01*
X142326806Y-90001355D01*
X142326806Y-90001354D01*
X142328034Y-89995974D01*
X142321515Y-89967410D01*
X142317633Y-89950403D01*
X142319792Y-89921598D01*
X142337802Y-89899014D01*
X142365405Y-89890500D01*
X145629275Y-89890500D01*
X145656878Y-89899014D01*
G37*
%TD.AperFunction*%
%TA.AperFunction,Conductor*%
G36*
X145399148Y-87196987D02*
G01*
X145424858Y-87222698D01*
X145447594Y-87245434D01*
X145447600Y-87245439D01*
X145730148Y-87527987D01*
X145744500Y-87562635D01*
X145744500Y-87789999D01*
X145733809Y-87820550D01*
X145709710Y-87850769D01*
X145708482Y-87856146D01*
X145708481Y-87856150D01*
X145694853Y-87915862D01*
X145689344Y-87940000D01*
X145690572Y-87945380D01*
X145708432Y-88023634D01*
X145709710Y-88029231D01*
X145733600Y-88059188D01*
X145762681Y-88095654D01*
X145766776Y-88100788D01*
X145819560Y-88126208D01*
X145822401Y-88127576D01*
X145844463Y-88148827D01*
X145849594Y-88179026D01*
X145835789Y-88206371D01*
X145696597Y-88345564D01*
X145644127Y-88398033D01*
X145644125Y-88398035D01*
X145639566Y-88402595D01*
X145637897Y-88408822D01*
X145637896Y-88408825D01*
X145635926Y-88416179D01*
X145631033Y-88427991D01*
X145627226Y-88434584D01*
X145627224Y-88434587D01*
X145624001Y-88440172D01*
X145624000Y-88446618D01*
X145624000Y-88446622D01*
X145624000Y-88482156D01*
X145624000Y-88520825D01*
X145624001Y-88520826D01*
X145624001Y-88520827D01*
X145624001Y-88829499D01*
X145613310Y-88860050D01*
X145589211Y-88890269D01*
X145587983Y-88895646D01*
X145587982Y-88895650D01*
X145574528Y-88954602D01*
X145568845Y-88979500D01*
X145589211Y-89068731D01*
X145592655Y-89073049D01*
X145621252Y-89108909D01*
X145646277Y-89140288D01*
X145728738Y-89180000D01*
X145734258Y-89180000D01*
X145820264Y-89180000D01*
X145820264Y-89180609D01*
X145842904Y-89182307D01*
X145865487Y-89200317D01*
X145874001Y-89227919D01*
X145874001Y-89307153D01*
X145859649Y-89341801D01*
X145726303Y-89475148D01*
X145710407Y-89485770D01*
X145691655Y-89489500D01*
X142460421Y-89489500D01*
X142429870Y-89478810D01*
X142412649Y-89451403D01*
X142416274Y-89419239D01*
X142416847Y-89418047D01*
X142420290Y-89413731D01*
X142440656Y-89324500D01*
X142420290Y-89235269D01*
X142396190Y-89205050D01*
X142385500Y-89174499D01*
X142385500Y-88572635D01*
X142399852Y-88537987D01*
X142521660Y-88416179D01*
X142647131Y-88290707D01*
X142669095Y-88278027D01*
X142694459Y-88278027D01*
X142716422Y-88290707D01*
X143023619Y-88597903D01*
X143023619Y-88597904D01*
X143080650Y-88654935D01*
X143094231Y-88658573D01*
X143106051Y-88663469D01*
X143118227Y-88670500D01*
X143198880Y-88670501D01*
X143198882Y-88670500D01*
X144088227Y-88670500D01*
X144148368Y-88670500D01*
X144168881Y-88670500D01*
X144181059Y-88663467D01*
X144192875Y-88658573D01*
X144206458Y-88654935D01*
X144263489Y-88597905D01*
X144263489Y-88597903D01*
X144694763Y-88166629D01*
X144729412Y-88152277D01*
X145017099Y-88152277D01*
X145023550Y-88152277D01*
X145035728Y-88145244D01*
X145047544Y-88140350D01*
X145061127Y-88136712D01*
X145118158Y-88079682D01*
X145118158Y-88079680D01*
X145285430Y-87912409D01*
X145285429Y-87912409D01*
X145299935Y-87897904D01*
X145303573Y-87884321D01*
X145308467Y-87872505D01*
X145315500Y-87860327D01*
X145315500Y-87779674D01*
X145315500Y-87231636D01*
X145323758Y-87204413D01*
X145345749Y-87186366D01*
X145374060Y-87183578D01*
X145399148Y-87196987D01*
G37*
%TD.AperFunction*%
%TA.AperFunction,Conductor*%
G36*
X139767013Y-84634852D02*
G01*
X140976146Y-85843985D01*
X140976164Y-85844028D01*
X140976208Y-85844047D01*
X142012410Y-86880249D01*
X142026762Y-86914897D01*
X142026762Y-87909187D01*
X142016071Y-87939738D01*
X142010062Y-87947274D01*
X141995495Y-87965540D01*
X141991972Y-87969957D01*
X141990744Y-87975334D01*
X141990743Y-87975338D01*
X141976871Y-88036117D01*
X141963748Y-88059861D01*
X141822821Y-88200790D01*
X141770351Y-88253259D01*
X141770349Y-88253261D01*
X141765790Y-88257821D01*
X141764121Y-88264048D01*
X141764120Y-88264051D01*
X141762150Y-88271405D01*
X141757257Y-88283217D01*
X141753450Y-88289810D01*
X141753448Y-88289813D01*
X141750225Y-88295398D01*
X141750224Y-88301844D01*
X141750224Y-88301848D01*
X141750224Y-88345564D01*
X141750224Y-88376051D01*
X141750225Y-88376052D01*
X141750225Y-88376053D01*
X141750225Y-88831640D01*
X141735873Y-88866288D01*
X141667013Y-88935148D01*
X141632365Y-88949500D01*
X141579237Y-88949500D01*
X141574264Y-88951894D01*
X141574263Y-88951895D01*
X141501750Y-88986816D01*
X141501748Y-88986817D01*
X141496776Y-88989212D01*
X141493335Y-88993526D01*
X141493332Y-88993529D01*
X141459427Y-89036045D01*
X141439710Y-89060769D01*
X141438481Y-89066152D01*
X141436085Y-89071128D01*
X141434801Y-89070509D01*
X141420245Y-89092736D01*
X141387487Y-89102170D01*
X141356504Y-89087955D01*
X140989852Y-88721303D01*
X140975500Y-88686655D01*
X140975500Y-87650000D01*
X141419344Y-87650000D01*
X141420572Y-87655380D01*
X141438164Y-87732460D01*
X141439710Y-87739231D01*
X141496776Y-87810788D01*
X141579237Y-87850500D01*
X141665243Y-87850500D01*
X141670763Y-87850500D01*
X141753224Y-87810788D01*
X141810290Y-87739231D01*
X141830656Y-87650000D01*
X141810290Y-87560769D01*
X141753224Y-87489212D01*
X141735532Y-87480692D01*
X141675736Y-87451895D01*
X141670763Y-87449500D01*
X141579237Y-87449500D01*
X141574264Y-87451894D01*
X141574263Y-87451895D01*
X141501750Y-87486816D01*
X141501748Y-87486817D01*
X141496776Y-87489212D01*
X141493335Y-87493526D01*
X141493332Y-87493529D01*
X141445485Y-87553527D01*
X141439710Y-87560769D01*
X141438481Y-87566150D01*
X141438481Y-87566152D01*
X141434390Y-87584078D01*
X141419344Y-87650000D01*
X140975500Y-87650000D01*
X140975500Y-87065683D01*
X140983758Y-87038461D01*
X140987756Y-87032476D01*
X141010966Y-86997740D01*
X141030408Y-86900000D01*
X141029332Y-86894593D01*
X141016949Y-86832339D01*
X141010966Y-86802260D01*
X140983758Y-86761539D01*
X140975500Y-86734317D01*
X140975500Y-86112388D01*
X140976971Y-86103728D01*
X140976920Y-86103723D01*
X140977537Y-86098239D01*
X140979362Y-86093026D01*
X140975808Y-86061478D01*
X140975500Y-86055993D01*
X140975500Y-86050165D01*
X140975500Y-86047410D01*
X140973587Y-86039033D01*
X140972671Y-86033637D01*
X140969116Y-86002076D01*
X140966178Y-85997401D01*
X140964355Y-85992190D01*
X140964403Y-85992173D01*
X140963960Y-85991103D01*
X140963914Y-85991126D01*
X140961518Y-85986150D01*
X140960290Y-85980769D01*
X140947663Y-85964935D01*
X140940486Y-85955935D01*
X140937316Y-85951468D01*
X140932748Y-85944199D01*
X140926681Y-85938132D01*
X140923020Y-85934035D01*
X140906667Y-85913529D01*
X140906666Y-85913528D01*
X140903224Y-85909212D01*
X140898249Y-85906816D01*
X140893933Y-85903374D01*
X140893964Y-85903334D01*
X140886798Y-85898249D01*
X139692697Y-84704148D01*
X139678345Y-84669500D01*
X139692697Y-84634852D01*
X139727345Y-84620500D01*
X139732365Y-84620500D01*
X139767013Y-84634852D01*
G37*
%TD.AperFunction*%
%TA.AperFunction,Conductor*%
G36*
X139941303Y-86249852D02*
G01*
X140116068Y-86424617D01*
X140129478Y-86449704D01*
X140138092Y-86493007D01*
X140139034Y-86497740D01*
X140141713Y-86501750D01*
X140141714Y-86501751D01*
X140166902Y-86539449D01*
X140194399Y-86580601D01*
X140277260Y-86635966D01*
X140375000Y-86655408D01*
X140472740Y-86635966D01*
X140498277Y-86618902D01*
X140531896Y-86611064D01*
X140562340Y-86627337D01*
X140574500Y-86659645D01*
X140574500Y-86734317D01*
X140566242Y-86761539D01*
X140541716Y-86798245D01*
X140541714Y-86798247D01*
X140539034Y-86802260D01*
X140538092Y-86806994D01*
X140538092Y-86806995D01*
X140520666Y-86894601D01*
X140519592Y-86900000D01*
X140539034Y-86997740D01*
X140541716Y-87001754D01*
X140566242Y-87038461D01*
X140574500Y-87065683D01*
X140574500Y-88550500D01*
X140560148Y-88585148D01*
X140525500Y-88599500D01*
X139424284Y-88599500D01*
X139389636Y-88585148D01*
X138771971Y-87967484D01*
X138768318Y-87963397D01*
X138748514Y-87938564D01*
X138719905Y-87924786D01*
X138715099Y-87922129D01*
X138699631Y-87912410D01*
X138688214Y-87905236D01*
X138682726Y-87904617D01*
X138677516Y-87902794D01*
X138677532Y-87902747D01*
X138676420Y-87902426D01*
X138676409Y-87902476D01*
X138671028Y-87901248D01*
X138666053Y-87898852D01*
X138660530Y-87898852D01*
X138634297Y-87898852D01*
X138628812Y-87898544D01*
X138602750Y-87895608D01*
X138597264Y-87894990D01*
X138592051Y-87896813D01*
X138586567Y-87897432D01*
X138586561Y-87897380D01*
X138585418Y-87897574D01*
X138585430Y-87897624D01*
X138580049Y-87898852D01*
X138574527Y-87898852D01*
X138569553Y-87901246D01*
X138569549Y-87901248D01*
X138564882Y-87903496D01*
X138535414Y-87907656D01*
X138508975Y-87893996D01*
X138495315Y-87867556D01*
X138499103Y-87840718D01*
X138500290Y-87839231D01*
X138501519Y-87833842D01*
X138503914Y-87828870D01*
X138503961Y-87828892D01*
X138504402Y-87827828D01*
X138504352Y-87827811D01*
X138506174Y-87822603D01*
X138509115Y-87817924D01*
X138512670Y-87786364D01*
X138513586Y-87780973D01*
X138515500Y-87772590D01*
X138515500Y-87764004D01*
X138515808Y-87758518D01*
X138518744Y-87732460D01*
X138518743Y-87732459D01*
X138519362Y-87726974D01*
X138517538Y-87721761D01*
X138516920Y-87716277D01*
X138516971Y-87716271D01*
X138515500Y-87707612D01*
X138515500Y-87584078D01*
X138526190Y-87553527D01*
X138553597Y-87536306D01*
X138585761Y-87539931D01*
X138649237Y-87570500D01*
X138662365Y-87570500D01*
X138697013Y-87584852D01*
X138990065Y-87877904D01*
X139047096Y-87934935D01*
X139060677Y-87938573D01*
X139072497Y-87943469D01*
X139084673Y-87950500D01*
X139165326Y-87950501D01*
X139165328Y-87950500D01*
X139844673Y-87950500D01*
X139904814Y-87950500D01*
X139925327Y-87950500D01*
X139937505Y-87943467D01*
X139949321Y-87938573D01*
X139962904Y-87934935D01*
X140019935Y-87877905D01*
X140019935Y-87877903D01*
X140192986Y-87704852D01*
X140227635Y-87690500D01*
X140235243Y-87690500D01*
X140240763Y-87690500D01*
X140323224Y-87650788D01*
X140380290Y-87579231D01*
X140400656Y-87490000D01*
X140380290Y-87400769D01*
X140323224Y-87329212D01*
X140240763Y-87289500D01*
X140149237Y-87289500D01*
X140144264Y-87291894D01*
X140144263Y-87291895D01*
X140071750Y-87326816D01*
X140071748Y-87326817D01*
X140066776Y-87329212D01*
X140063335Y-87333526D01*
X140063332Y-87333529D01*
X140013153Y-87396451D01*
X140013152Y-87396452D01*
X140009710Y-87400769D01*
X140008481Y-87406150D01*
X140008481Y-87406152D01*
X139994609Y-87466929D01*
X139981486Y-87490673D01*
X139837013Y-87635148D01*
X139821117Y-87645770D01*
X139802365Y-87649500D01*
X139207635Y-87649500D01*
X139172987Y-87635148D01*
X138909852Y-87372013D01*
X138899230Y-87356116D01*
X138895500Y-87337364D01*
X138895500Y-87316699D01*
X138895501Y-87279673D01*
X138895500Y-87279671D01*
X138895500Y-86570001D01*
X138906191Y-86539449D01*
X138909287Y-86535567D01*
X138930290Y-86509231D01*
X138950656Y-86420000D01*
X138930290Y-86330769D01*
X138917754Y-86315050D01*
X138907201Y-86280839D01*
X138922735Y-86248581D01*
X138956064Y-86235500D01*
X139906655Y-86235500D01*
X139941303Y-86249852D01*
G37*
%TD.AperFunction*%
%TA.AperFunction,Conductor*%
G36*
X140437657Y-82013581D02*
G01*
X140453191Y-82045839D01*
X140442637Y-82080049D01*
X140431794Y-82093647D01*
X140418152Y-82110752D01*
X140418150Y-82110754D01*
X140414710Y-82115069D01*
X140413481Y-82120450D01*
X140413481Y-82120452D01*
X140398428Y-82186405D01*
X140394344Y-82204300D01*
X140414710Y-82293531D01*
X140434015Y-82317738D01*
X140458904Y-82348948D01*
X140471776Y-82365088D01*
X140554237Y-82404800D01*
X140640243Y-82404800D01*
X140645763Y-82404800D01*
X140728224Y-82365088D01*
X140741095Y-82348948D01*
X140758145Y-82335352D01*
X140779405Y-82330500D01*
X143592365Y-82330500D01*
X143627013Y-82344852D01*
X143840148Y-82557987D01*
X143854500Y-82592635D01*
X143854500Y-84369673D01*
X143854500Y-84450327D01*
X143857724Y-84455911D01*
X143857725Y-84455914D01*
X143861531Y-84462506D01*
X143866426Y-84474323D01*
X143868395Y-84481674D01*
X143868396Y-84481676D01*
X143870065Y-84487904D01*
X143901275Y-84519115D01*
X143927094Y-84544934D01*
X143927100Y-84544939D01*
X144510065Y-85127904D01*
X144567096Y-85184935D01*
X144580677Y-85188573D01*
X144592497Y-85193469D01*
X144604673Y-85200500D01*
X144685327Y-85200501D01*
X144685329Y-85200500D01*
X145222365Y-85200500D01*
X145257013Y-85214852D01*
X145943354Y-85901193D01*
X145957225Y-85928990D01*
X145951593Y-85959542D01*
X145928722Y-85980566D01*
X145902921Y-85983109D01*
X145902921Y-85983521D01*
X145811395Y-85983521D01*
X145806422Y-85985915D01*
X145806421Y-85985916D01*
X145733908Y-86020837D01*
X145733906Y-86020838D01*
X145728934Y-86023233D01*
X145725493Y-86027547D01*
X145725490Y-86027550D01*
X145675311Y-86090472D01*
X145675310Y-86090473D01*
X145671868Y-86094790D01*
X145670639Y-86100171D01*
X145670639Y-86100173D01*
X145656767Y-86160950D01*
X145643644Y-86184694D01*
X145447596Y-86380744D01*
X145399148Y-86429192D01*
X145364500Y-86443544D01*
X145329852Y-86429192D01*
X145315500Y-86394544D01*
X145315500Y-86156124D01*
X145315500Y-86149673D01*
X145308469Y-86137497D01*
X145303573Y-86125676D01*
X145301604Y-86118326D01*
X145299935Y-86112096D01*
X145288514Y-86100675D01*
X145275390Y-86076930D01*
X145271635Y-86060476D01*
X145260290Y-86010769D01*
X145203224Y-85939212D01*
X145169975Y-85923200D01*
X145130564Y-85904220D01*
X145120763Y-85899500D01*
X145114102Y-85899500D01*
X145112515Y-85898877D01*
X145109859Y-85898271D01*
X145109950Y-85897870D01*
X145080773Y-85886419D01*
X145065239Y-85854162D01*
X145075791Y-85819950D01*
X145100290Y-85789231D01*
X145120656Y-85700000D01*
X145100290Y-85610769D01*
X145052414Y-85550736D01*
X145046667Y-85543529D01*
X145046666Y-85543528D01*
X145043224Y-85539212D01*
X145037530Y-85536470D01*
X144965736Y-85501895D01*
X144960763Y-85499500D01*
X144869237Y-85499500D01*
X144864264Y-85501894D01*
X144864263Y-85501895D01*
X144791750Y-85536816D01*
X144791748Y-85536817D01*
X144786776Y-85539212D01*
X144783335Y-85543526D01*
X144783332Y-85543529D01*
X144733153Y-85606451D01*
X144733152Y-85606452D01*
X144729710Y-85610769D01*
X144728481Y-85616150D01*
X144728481Y-85616152D01*
X144714608Y-85676930D01*
X144701488Y-85700671D01*
X144694628Y-85707531D01*
X144694625Y-85707535D01*
X144690065Y-85712096D01*
X144688395Y-85718325D01*
X144688395Y-85718327D01*
X144686425Y-85725680D01*
X144681532Y-85737492D01*
X144677725Y-85744085D01*
X144677723Y-85744088D01*
X144674500Y-85749673D01*
X144674499Y-85756119D01*
X144674499Y-85756123D01*
X144674499Y-85792261D01*
X144674499Y-85830326D01*
X144674500Y-85830328D01*
X144674500Y-86209673D01*
X144674500Y-86290327D01*
X144676941Y-86294555D01*
X144674606Y-86323862D01*
X144697392Y-86335231D01*
X144722321Y-86360161D01*
X144747094Y-86384934D01*
X144747100Y-86384939D01*
X144780148Y-86417987D01*
X144794500Y-86452635D01*
X144794500Y-87067365D01*
X144780148Y-87102013D01*
X144304626Y-87577534D01*
X144304624Y-87577536D01*
X144300065Y-87582096D01*
X144298396Y-87588323D01*
X144298395Y-87588326D01*
X144296425Y-87595680D01*
X144291532Y-87607492D01*
X144287725Y-87614085D01*
X144287723Y-87614088D01*
X144284500Y-87619673D01*
X144284499Y-87626119D01*
X144284499Y-87626123D01*
X144284499Y-87650920D01*
X144270147Y-87685566D01*
X144180564Y-87775150D01*
X144164671Y-87785770D01*
X144145919Y-87789500D01*
X143547386Y-87789500D01*
X143512738Y-87775148D01*
X143388764Y-87651174D01*
X143375640Y-87627429D01*
X143373870Y-87619673D01*
X143360540Y-87561268D01*
X143303474Y-87489711D01*
X143267619Y-87472444D01*
X143225986Y-87452394D01*
X143221013Y-87449999D01*
X143129487Y-87449999D01*
X143124514Y-87452393D01*
X143124513Y-87452394D01*
X143052000Y-87487315D01*
X143051998Y-87487316D01*
X143047026Y-87489711D01*
X143043585Y-87494025D01*
X143043582Y-87494028D01*
X142993802Y-87556450D01*
X142989960Y-87561268D01*
X142988731Y-87566649D01*
X142988731Y-87566651D01*
X142984754Y-87584078D01*
X142969594Y-87650499D01*
X142970822Y-87655879D01*
X142988073Y-87731465D01*
X142989960Y-87739730D01*
X143014980Y-87771103D01*
X143023730Y-87782076D01*
X143047026Y-87811287D01*
X143129487Y-87850999D01*
X143142615Y-87850999D01*
X143177263Y-87865351D01*
X143329816Y-88017904D01*
X143386847Y-88074935D01*
X143400428Y-88078573D01*
X143412248Y-88083469D01*
X143424424Y-88090500D01*
X143430875Y-88090500D01*
X144226919Y-88090500D01*
X144261567Y-88104852D01*
X144275919Y-88139500D01*
X144261567Y-88174148D01*
X144080567Y-88355148D01*
X144045919Y-88369500D01*
X143241189Y-88369500D01*
X143206541Y-88355148D01*
X142819852Y-87968459D01*
X142805500Y-87933811D01*
X142805500Y-86736124D01*
X142805500Y-86729673D01*
X142798469Y-86717497D01*
X142793573Y-86705676D01*
X142793516Y-86705463D01*
X142789935Y-86692096D01*
X142785376Y-86687537D01*
X142785375Y-86687535D01*
X142732905Y-86635065D01*
X142732903Y-86635064D01*
X142710802Y-86612963D01*
X142952307Y-86612963D01*
X142953535Y-86618343D01*
X142961953Y-86655228D01*
X142972673Y-86702194D01*
X142986575Y-86719626D01*
X143005805Y-86743740D01*
X143029739Y-86773751D01*
X143112200Y-86813463D01*
X143198206Y-86813463D01*
X143203726Y-86813463D01*
X143286187Y-86773751D01*
X143343253Y-86702194D01*
X143363619Y-86612963D01*
X143343253Y-86523732D01*
X143286187Y-86452175D01*
X143280632Y-86449500D01*
X144219344Y-86449500D01*
X144220572Y-86454880D01*
X144231748Y-86503849D01*
X144239710Y-86538731D01*
X144296776Y-86610288D01*
X144379237Y-86650000D01*
X144465243Y-86650000D01*
X144470763Y-86650000D01*
X144553224Y-86610288D01*
X144610290Y-86538731D01*
X144630656Y-86449500D01*
X144629428Y-86444120D01*
X144629428Y-86444115D01*
X144614973Y-86380783D01*
X144617714Y-86352944D01*
X144591399Y-86336581D01*
X144553224Y-86288712D01*
X144470763Y-86249000D01*
X144379237Y-86249000D01*
X144374264Y-86251394D01*
X144374263Y-86251395D01*
X144301750Y-86286316D01*
X144301748Y-86286317D01*
X144296776Y-86288712D01*
X144293335Y-86293026D01*
X144293332Y-86293029D01*
X144244134Y-86354721D01*
X144239710Y-86360269D01*
X144238481Y-86365650D01*
X144238481Y-86365652D01*
X144227432Y-86414063D01*
X144219344Y-86449500D01*
X143280632Y-86449500D01*
X143208699Y-86414858D01*
X143203726Y-86412463D01*
X143112200Y-86412463D01*
X143107227Y-86414857D01*
X143107226Y-86414858D01*
X143034713Y-86449779D01*
X143034711Y-86449780D01*
X143029739Y-86452175D01*
X143026298Y-86456489D01*
X143026295Y-86456492D01*
X142988529Y-86503849D01*
X142972673Y-86523732D01*
X142971444Y-86529113D01*
X142971444Y-86529115D01*
X142960609Y-86576589D01*
X142952307Y-86612963D01*
X142710802Y-86612963D01*
X141477839Y-85380000D01*
X143819344Y-85380000D01*
X143820572Y-85385380D01*
X143829525Y-85424609D01*
X143839710Y-85469231D01*
X143896776Y-85540788D01*
X143979237Y-85580500D01*
X144065243Y-85580500D01*
X144070763Y-85580500D01*
X144153224Y-85540788D01*
X144210290Y-85469231D01*
X144230656Y-85380000D01*
X144210290Y-85290769D01*
X144153224Y-85219212D01*
X144070763Y-85179500D01*
X143979237Y-85179500D01*
X143974264Y-85181894D01*
X143974263Y-85181895D01*
X143901750Y-85216816D01*
X143901748Y-85216817D01*
X143896776Y-85219212D01*
X143893335Y-85223526D01*
X143893332Y-85223529D01*
X143843154Y-85286450D01*
X143839710Y-85290769D01*
X143838481Y-85296150D01*
X143838481Y-85296152D01*
X143827516Y-85344197D01*
X143819344Y-85380000D01*
X141477839Y-85380000D01*
X140572839Y-84475000D01*
X142269592Y-84475000D01*
X142270534Y-84479736D01*
X142288092Y-84568007D01*
X142288093Y-84568009D01*
X142289034Y-84572740D01*
X142291713Y-84576750D01*
X142291714Y-84576751D01*
X142341512Y-84651281D01*
X142344399Y-84655601D01*
X142427260Y-84710966D01*
X142525000Y-84730408D01*
X142622740Y-84710966D01*
X142705601Y-84655601D01*
X142760966Y-84572740D01*
X142780408Y-84475000D01*
X142779033Y-84468090D01*
X142774148Y-84443529D01*
X142760966Y-84377260D01*
X142705601Y-84294399D01*
X142622740Y-84239034D01*
X142618009Y-84238093D01*
X142618007Y-84238092D01*
X142529736Y-84220534D01*
X142525000Y-84219592D01*
X142520264Y-84220534D01*
X142431992Y-84238092D01*
X142431988Y-84238093D01*
X142427260Y-84239034D01*
X142423250Y-84241712D01*
X142423248Y-84241714D01*
X142348410Y-84291718D01*
X142348407Y-84291720D01*
X142344399Y-84294399D01*
X142341720Y-84298407D01*
X142341718Y-84298410D01*
X142291714Y-84373248D01*
X142291712Y-84373250D01*
X142289034Y-84377260D01*
X142288093Y-84381988D01*
X142288092Y-84381992D01*
X142270534Y-84470264D01*
X142269592Y-84475000D01*
X140572839Y-84475000D01*
X140157409Y-84059570D01*
X140142904Y-84045065D01*
X140136672Y-84043395D01*
X140129323Y-84041426D01*
X140117506Y-84036531D01*
X140110914Y-84032725D01*
X140110911Y-84032724D01*
X140105327Y-84029500D01*
X140098879Y-84029499D01*
X140098876Y-84029499D01*
X140024679Y-84029499D01*
X140024678Y-84029499D01*
X140024674Y-84029499D01*
X140024672Y-84029499D01*
X140024671Y-84029500D01*
X139185327Y-84029500D01*
X139104673Y-84029500D01*
X139099088Y-84032723D01*
X139099085Y-84032725D01*
X139092492Y-84036532D01*
X139080680Y-84041425D01*
X139077002Y-84042410D01*
X139067096Y-84045065D01*
X139062538Y-84049622D01*
X139062536Y-84049624D01*
X139010065Y-84102095D01*
X138657100Y-84455059D01*
X138657098Y-84455061D01*
X138657096Y-84455064D01*
X138657096Y-84455065D01*
X138630487Y-84481674D01*
X138606169Y-84505992D01*
X138582424Y-84519115D01*
X138555337Y-84517593D01*
X138533213Y-84501896D01*
X138483224Y-84439212D01*
X138400763Y-84399500D01*
X138309237Y-84399500D01*
X138304264Y-84401894D01*
X138304263Y-84401895D01*
X138231750Y-84436816D01*
X138231748Y-84436817D01*
X138226776Y-84439212D01*
X138223335Y-84443526D01*
X138223332Y-84443529D01*
X138173154Y-84506450D01*
X138169710Y-84510769D01*
X138168481Y-84516152D01*
X138166085Y-84521128D01*
X138165261Y-84520731D01*
X138148360Y-84545521D01*
X138113455Y-84553488D01*
X138082449Y-84535586D01*
X138053455Y-84499229D01*
X138053454Y-84499228D01*
X138050012Y-84494912D01*
X137967551Y-84455200D01*
X137876025Y-84455200D01*
X137871052Y-84457594D01*
X137871051Y-84457595D01*
X137798538Y-84492516D01*
X137798536Y-84492517D01*
X137793564Y-84494912D01*
X137790123Y-84499226D01*
X137790120Y-84499229D01*
X137739942Y-84562150D01*
X137736498Y-84566469D01*
X137735269Y-84571850D01*
X137735269Y-84571852D01*
X137724702Y-84618153D01*
X137716132Y-84655700D01*
X137717360Y-84661080D01*
X137730833Y-84720113D01*
X137736498Y-84744931D01*
X137748322Y-84759757D01*
X137787279Y-84808608D01*
X137793564Y-84816488D01*
X137876025Y-84856200D01*
X137874931Y-84858469D01*
X137895399Y-84872148D01*
X137904126Y-84905989D01*
X137888084Y-84937037D01*
X137855434Y-84949500D01*
X137474000Y-84949500D01*
X137439352Y-84935148D01*
X137425000Y-84900500D01*
X137425000Y-84533418D01*
X137425744Y-84524909D01*
X137429392Y-84504220D01*
X137429392Y-84504219D01*
X137430136Y-84500000D01*
X137425744Y-84475091D01*
X137425000Y-84466582D01*
X137425000Y-83501999D01*
X137425166Y-83498170D01*
X137425500Y-83496281D01*
X137425500Y-83400000D01*
X137425500Y-83373071D01*
X137425500Y-82752407D01*
X137425736Y-82747604D01*
X137439428Y-82608582D01*
X137441302Y-82599161D01*
X137443282Y-82592635D01*
X137481153Y-82467790D01*
X137484822Y-82458930D01*
X137549542Y-82337850D01*
X137554871Y-82329874D01*
X137641961Y-82223753D01*
X137648754Y-82216961D01*
X137681382Y-82190184D01*
X137754874Y-82129871D01*
X137762850Y-82124542D01*
X137883930Y-82059822D01*
X137892790Y-82056153D01*
X138024162Y-82016301D01*
X138033581Y-82014428D01*
X138172603Y-82000736D01*
X138177407Y-82000500D01*
X140404328Y-82000500D01*
X140437657Y-82013581D01*
G37*
%TD.AperFunction*%
%TA.AperFunction,Conductor*%
G36*
X146296649Y-82011190D02*
G01*
X146313869Y-82038596D01*
X146310246Y-82070759D01*
X146287505Y-82093501D01*
X146285478Y-82094211D01*
X146283147Y-82095675D01*
X146283144Y-82095677D01*
X146135069Y-82188718D01*
X146135061Y-82188724D01*
X146132738Y-82190184D01*
X146130794Y-82192127D01*
X146130790Y-82192131D01*
X146007131Y-82315790D01*
X146007127Y-82315794D01*
X146005184Y-82317738D01*
X146003724Y-82320061D01*
X146003718Y-82320069D01*
X145910675Y-82468147D01*
X145910672Y-82468151D01*
X145909211Y-82470478D01*
X145908302Y-82473072D01*
X145908302Y-82473075D01*
X145850540Y-82638147D01*
X145850537Y-82638155D01*
X145849632Y-82640745D01*
X145849324Y-82643477D01*
X145849324Y-82643478D01*
X145834653Y-82773679D01*
X145834651Y-82773696D01*
X145834500Y-82775046D01*
X145834500Y-84064954D01*
X145834652Y-84066303D01*
X145834653Y-84066320D01*
X145845500Y-84162582D01*
X145849632Y-84199255D01*
X145850538Y-84201846D01*
X145850540Y-84201852D01*
X145902229Y-84349570D01*
X145909211Y-84369522D01*
X145910674Y-84371851D01*
X145910675Y-84371852D01*
X146003718Y-84519930D01*
X146003721Y-84519934D01*
X146005184Y-84522262D01*
X146132738Y-84649816D01*
X146135067Y-84651279D01*
X146135069Y-84651281D01*
X146209107Y-84697802D01*
X146285478Y-84745789D01*
X146434986Y-84798104D01*
X146451684Y-84803947D01*
X146475462Y-84821842D01*
X146484500Y-84850197D01*
X146484500Y-85789673D01*
X146484500Y-85870327D01*
X146487724Y-85875911D01*
X146487725Y-85875914D01*
X146491531Y-85882506D01*
X146496426Y-85894323D01*
X146498395Y-85901674D01*
X146498396Y-85901676D01*
X146500065Y-85907904D01*
X146504622Y-85912461D01*
X146504624Y-85912464D01*
X146533593Y-85941433D01*
X146547463Y-85969232D01*
X146541830Y-85999784D01*
X146518957Y-86020808D01*
X146488040Y-86023852D01*
X146485004Y-86023159D01*
X146480031Y-86020764D01*
X146388505Y-86020764D01*
X146388505Y-86019933D01*
X146366597Y-86018290D01*
X146344014Y-86000280D01*
X146335500Y-85972678D01*
X146335500Y-85896124D01*
X146335500Y-85889673D01*
X146328469Y-85877497D01*
X146323573Y-85865676D01*
X146323091Y-85863878D01*
X146319935Y-85852096D01*
X146315376Y-85847537D01*
X146315375Y-85847535D01*
X146262905Y-85795065D01*
X146262903Y-85795064D01*
X145397409Y-84929570D01*
X145397409Y-84929569D01*
X145382904Y-84915065D01*
X145369323Y-84911426D01*
X145357506Y-84906531D01*
X145350914Y-84902725D01*
X145350911Y-84902724D01*
X145345327Y-84899500D01*
X145338879Y-84899499D01*
X145338876Y-84899499D01*
X145264679Y-84899499D01*
X145264678Y-84899499D01*
X145264674Y-84899499D01*
X145264672Y-84899499D01*
X145264671Y-84899500D01*
X144727635Y-84899500D01*
X144692987Y-84885148D01*
X144169852Y-84362013D01*
X144155500Y-84327365D01*
X144155500Y-82476124D01*
X144155500Y-82469673D01*
X144148469Y-82457497D01*
X144143573Y-82445676D01*
X144139935Y-82432096D01*
X144135376Y-82427537D01*
X144135375Y-82427535D01*
X144082905Y-82375065D01*
X144082903Y-82375064D01*
X143791987Y-82084148D01*
X143777635Y-82049500D01*
X143791987Y-82014852D01*
X143826635Y-82000500D01*
X146266098Y-82000500D01*
X146296649Y-82011190D01*
G37*
%TD.AperFunction*%
%TA.AperFunction,Conductor*%
G36*
X159885148Y-65114852D02*
G01*
X159899500Y-65149500D01*
X159899500Y-124850500D01*
X159885148Y-124885148D01*
X159850500Y-124899500D01*
X100149500Y-124899500D01*
X100114852Y-124885148D01*
X100100500Y-124850500D01*
X100100500Y-93056945D01*
X115382018Y-93056945D01*
X115382312Y-93059122D01*
X115382313Y-93059124D01*
X115412268Y-93280263D01*
X115412269Y-93280268D01*
X115412563Y-93282437D01*
X115413238Y-93284514D01*
X115413240Y-93284523D01*
X115462459Y-93436002D01*
X115482880Y-93498851D01*
X115483917Y-93500779D01*
X115483921Y-93500787D01*
X115589670Y-93697301D01*
X115589674Y-93697308D01*
X115590710Y-93699232D01*
X115592075Y-93700944D01*
X115592076Y-93700945D01*
X115724077Y-93866470D01*
X115732585Y-93877138D01*
X115903948Y-94026853D01*
X116099289Y-94143564D01*
X116312330Y-94223520D01*
X116536224Y-94264150D01*
X116705671Y-94264150D01*
X116706775Y-94264150D01*
X116876635Y-94248862D01*
X117095986Y-94188325D01*
X117301003Y-94089595D01*
X117485095Y-93955843D01*
X117642347Y-93791371D01*
X117767705Y-93601463D01*
X117857138Y-93392223D01*
X117907773Y-93170377D01*
X117912867Y-93056945D01*
X118557018Y-93056945D01*
X118557312Y-93059122D01*
X118557313Y-93059124D01*
X118587268Y-93280263D01*
X118587269Y-93280268D01*
X118587563Y-93282437D01*
X118588238Y-93284514D01*
X118588240Y-93284523D01*
X118637459Y-93436002D01*
X118657880Y-93498851D01*
X118658917Y-93500779D01*
X118658921Y-93500787D01*
X118764670Y-93697301D01*
X118764674Y-93697308D01*
X118765710Y-93699232D01*
X118767075Y-93700944D01*
X118767076Y-93700945D01*
X118899077Y-93866470D01*
X118907585Y-93877138D01*
X119078948Y-94026853D01*
X119274289Y-94143564D01*
X119487330Y-94223520D01*
X119711224Y-94264150D01*
X119880671Y-94264150D01*
X119881775Y-94264150D01*
X120051635Y-94248862D01*
X120270986Y-94188325D01*
X120476003Y-94089595D01*
X120660095Y-93955843D01*
X120817347Y-93791371D01*
X120942705Y-93601463D01*
X121032138Y-93392223D01*
X121082773Y-93170377D01*
X121092982Y-92943055D01*
X121062437Y-92717563D01*
X120992120Y-92501149D01*
X120987379Y-92492339D01*
X120885329Y-92302698D01*
X120885326Y-92302694D01*
X120884290Y-92300768D01*
X120742415Y-92122862D01*
X120571052Y-91973147D01*
X120394003Y-91867365D01*
X120377601Y-91857565D01*
X120377599Y-91857564D01*
X120375711Y-91856436D01*
X120314681Y-91833531D01*
X120164736Y-91777255D01*
X120164732Y-91777253D01*
X120162670Y-91776480D01*
X120160510Y-91776088D01*
X120160503Y-91776086D01*
X119940938Y-91736242D01*
X119940934Y-91736241D01*
X119938776Y-91735850D01*
X119768225Y-91735850D01*
X119767144Y-91735947D01*
X119767128Y-91735948D01*
X119600552Y-91750941D01*
X119600550Y-91750941D01*
X119598365Y-91751138D01*
X119596256Y-91751719D01*
X119596245Y-91751722D01*
X119381131Y-91811090D01*
X119381123Y-91811092D01*
X119379014Y-91811675D01*
X119377046Y-91812622D01*
X119377037Y-91812626D01*
X119175976Y-91909451D01*
X119175967Y-91909456D01*
X119173997Y-91910405D01*
X119172228Y-91911690D01*
X119172220Y-91911695D01*
X118991683Y-92042864D01*
X118991674Y-92042871D01*
X118989905Y-92044157D01*
X118988388Y-92045743D01*
X118988383Y-92045748D01*
X118834175Y-92207036D01*
X118834169Y-92207042D01*
X118832653Y-92208629D01*
X118831443Y-92210461D01*
X118831439Y-92210467D01*
X118708507Y-92396699D01*
X118708501Y-92396709D01*
X118707295Y-92398537D01*
X118706435Y-92400547D01*
X118706429Y-92400560D01*
X118618725Y-92605756D01*
X118618722Y-92605763D01*
X118617862Y-92607777D01*
X118617374Y-92609910D01*
X118617372Y-92609920D01*
X118567915Y-92826609D01*
X118567227Y-92829623D01*
X118567128Y-92831814D01*
X118567128Y-92831819D01*
X118557116Y-93054747D01*
X118557116Y-93054754D01*
X118557018Y-93056945D01*
X117912867Y-93056945D01*
X117917982Y-92943055D01*
X117887437Y-92717563D01*
X117817120Y-92501149D01*
X117812379Y-92492339D01*
X117710329Y-92302698D01*
X117710326Y-92302694D01*
X117709290Y-92300768D01*
X117567415Y-92122862D01*
X117396052Y-91973147D01*
X117219003Y-91867365D01*
X117202601Y-91857565D01*
X117202599Y-91857564D01*
X117200711Y-91856436D01*
X117139681Y-91833531D01*
X116989736Y-91777255D01*
X116989732Y-91777253D01*
X116987670Y-91776480D01*
X116985510Y-91776088D01*
X116985503Y-91776086D01*
X116765938Y-91736242D01*
X116765934Y-91736241D01*
X116763776Y-91735850D01*
X116593225Y-91735850D01*
X116592144Y-91735947D01*
X116592128Y-91735948D01*
X116425552Y-91750941D01*
X116425550Y-91750941D01*
X116423365Y-91751138D01*
X116421256Y-91751719D01*
X116421245Y-91751722D01*
X116206131Y-91811090D01*
X116206123Y-91811092D01*
X116204014Y-91811675D01*
X116202046Y-91812622D01*
X116202037Y-91812626D01*
X116000976Y-91909451D01*
X116000967Y-91909456D01*
X115998997Y-91910405D01*
X115997228Y-91911690D01*
X115997220Y-91911695D01*
X115816683Y-92042864D01*
X115816674Y-92042871D01*
X115814905Y-92044157D01*
X115813388Y-92045743D01*
X115813383Y-92045748D01*
X115659175Y-92207036D01*
X115659169Y-92207042D01*
X115657653Y-92208629D01*
X115656443Y-92210461D01*
X115656439Y-92210467D01*
X115533507Y-92396699D01*
X115533501Y-92396709D01*
X115532295Y-92398537D01*
X115531435Y-92400547D01*
X115531429Y-92400560D01*
X115443725Y-92605756D01*
X115443722Y-92605763D01*
X115442862Y-92607777D01*
X115442374Y-92609910D01*
X115442372Y-92609920D01*
X115392915Y-92826609D01*
X115392227Y-92829623D01*
X115392128Y-92831814D01*
X115392128Y-92831819D01*
X115382116Y-93054747D01*
X115382116Y-93054754D01*
X115382018Y-93056945D01*
X100100500Y-93056945D01*
X100100500Y-91476000D01*
X114168064Y-91476000D01*
X114168483Y-91479183D01*
X114187303Y-91622137D01*
X114187304Y-91622141D01*
X114187723Y-91625322D01*
X114188951Y-91628287D01*
X114188952Y-91628290D01*
X114240079Y-91751722D01*
X114245359Y-91764468D01*
X114247311Y-91767012D01*
X114247314Y-91767017D01*
X114313302Y-91853013D01*
X114337045Y-91883955D01*
X114355213Y-91897896D01*
X114453982Y-91973685D01*
X114453985Y-91973687D01*
X114456532Y-91975641D01*
X114595678Y-92033277D01*
X114707508Y-92048000D01*
X114780892Y-92048000D01*
X114782492Y-92048000D01*
X114894322Y-92033277D01*
X115033468Y-91975641D01*
X115152955Y-91883955D01*
X115244641Y-91764468D01*
X115284806Y-91667500D01*
X117602092Y-91667500D01*
X117603034Y-91672236D01*
X117620592Y-91760507D01*
X117620593Y-91760509D01*
X117621534Y-91765240D01*
X117624213Y-91769250D01*
X117624214Y-91769251D01*
X117673015Y-91842289D01*
X117676899Y-91848101D01*
X117759760Y-91903466D01*
X117857500Y-91922908D01*
X117955240Y-91903466D01*
X118038101Y-91848101D01*
X118093466Y-91765240D01*
X118103020Y-91717203D01*
X118116428Y-91692119D01*
X118193698Y-91614850D01*
X118228345Y-91600500D01*
X122382612Y-91600500D01*
X122391271Y-91601971D01*
X122391277Y-91601920D01*
X122396760Y-91602537D01*
X122401974Y-91604362D01*
X122433521Y-91600808D01*
X122439007Y-91600500D01*
X122444836Y-91600500D01*
X122447590Y-91600500D01*
X122455960Y-91598589D01*
X122461367Y-91597670D01*
X122492924Y-91594116D01*
X122497598Y-91591178D01*
X122502812Y-91589354D01*
X122502829Y-91589402D01*
X122503894Y-91588961D01*
X122503872Y-91588914D01*
X122508844Y-91586519D01*
X122514231Y-91585290D01*
X122539064Y-91565485D01*
X122543537Y-91562312D01*
X122550801Y-91557748D01*
X122556877Y-91551671D01*
X122560946Y-91548033D01*
X122585788Y-91528224D01*
X122588183Y-91523249D01*
X122591626Y-91518932D01*
X122591665Y-91518963D01*
X122596747Y-91511800D01*
X129093697Y-85014852D01*
X129128346Y-85000500D01*
X133592365Y-85000500D01*
X133627013Y-85014852D01*
X133678013Y-85065852D01*
X133692365Y-85100500D01*
X133678013Y-85135148D01*
X133643365Y-85149500D01*
X133565327Y-85149500D01*
X133484673Y-85149500D01*
X133479088Y-85152723D01*
X133479085Y-85152725D01*
X133472492Y-85156532D01*
X133460679Y-85161425D01*
X133447096Y-85165065D01*
X133442538Y-85169622D01*
X133442536Y-85169624D01*
X133414887Y-85197273D01*
X133390065Y-85222095D01*
X133390064Y-85222096D01*
X133327010Y-85285150D01*
X133311117Y-85295770D01*
X133292365Y-85299500D01*
X130392388Y-85299500D01*
X130383728Y-85298028D01*
X130383723Y-85298080D01*
X130378238Y-85297461D01*
X130373026Y-85295638D01*
X130367539Y-85296256D01*
X130341478Y-85299192D01*
X130335993Y-85299500D01*
X130327410Y-85299500D01*
X130324734Y-85300110D01*
X130324721Y-85300112D01*
X130319038Y-85301409D01*
X130313631Y-85302328D01*
X130287561Y-85305265D01*
X130287556Y-85305266D01*
X130282076Y-85305884D01*
X130277402Y-85308820D01*
X130272191Y-85310644D01*
X130272174Y-85310597D01*
X130271103Y-85311041D01*
X130271125Y-85311086D01*
X130266151Y-85313481D01*
X130260769Y-85314710D01*
X130256452Y-85318152D01*
X130256451Y-85318153D01*
X130235936Y-85334512D01*
X130231465Y-85337685D01*
X130226531Y-85340786D01*
X130226529Y-85340787D01*
X130224199Y-85342252D01*
X130222256Y-85344194D01*
X130222253Y-85344197D01*
X130218131Y-85348319D01*
X130214041Y-85351973D01*
X130193526Y-85368334D01*
X130193522Y-85368338D01*
X130189212Y-85371776D01*
X130186818Y-85376745D01*
X130183375Y-85381064D01*
X130183336Y-85381033D01*
X130178250Y-85388199D01*
X125230381Y-90336068D01*
X125205294Y-90349478D01*
X125161992Y-90358092D01*
X125161988Y-90358093D01*
X125157260Y-90359034D01*
X125153250Y-90361712D01*
X125153248Y-90361714D01*
X125078410Y-90411718D01*
X125078407Y-90411720D01*
X125074399Y-90414399D01*
X125071720Y-90418407D01*
X125071718Y-90418410D01*
X125021714Y-90493248D01*
X125021712Y-90493250D01*
X125019034Y-90497260D01*
X125018093Y-90501988D01*
X125018092Y-90501992D01*
X125004890Y-90568365D01*
X124999592Y-90595000D01*
X125000534Y-90599736D01*
X125018092Y-90688007D01*
X125018093Y-90688009D01*
X125019034Y-90692740D01*
X125021713Y-90696750D01*
X125021714Y-90696751D01*
X125057292Y-90749999D01*
X125074399Y-90775601D01*
X125157260Y-90830966D01*
X125255000Y-90850408D01*
X125352740Y-90830966D01*
X125435601Y-90775601D01*
X125490966Y-90692740D01*
X125500520Y-90644703D01*
X125513929Y-90619618D01*
X130418696Y-85714852D01*
X130453345Y-85700500D01*
X133344841Y-85700500D01*
X133347590Y-85700500D01*
X133414231Y-85685290D01*
X133485788Y-85628224D01*
X133525500Y-85545763D01*
X133525500Y-85532635D01*
X133539852Y-85497987D01*
X133572987Y-85464852D01*
X133607635Y-85450500D01*
X134656000Y-85450500D01*
X134690648Y-85464852D01*
X134705000Y-85499500D01*
X134705000Y-86890000D01*
X134709037Y-86890000D01*
X134715622Y-86905896D01*
X134714186Y-86906490D01*
X134719749Y-86924812D01*
X134719749Y-86984106D01*
X134719742Y-86984128D01*
X134719749Y-86999500D01*
X134719749Y-87000000D01*
X134719749Y-87026929D01*
X134719761Y-87026949D01*
X134724500Y-97700000D01*
X134724500Y-97796281D01*
X134724870Y-97798384D01*
X134724871Y-97798386D01*
X134757566Y-97983813D01*
X134757568Y-97983822D01*
X134757938Y-97985918D01*
X134758667Y-97987921D01*
X134758669Y-97987928D01*
X134823067Y-98164860D01*
X134823798Y-98166868D01*
X134920079Y-98333632D01*
X135043856Y-98481144D01*
X135191368Y-98604921D01*
X135358132Y-98701202D01*
X135539082Y-98767062D01*
X135728719Y-98800500D01*
X135809083Y-98800500D01*
X135825000Y-98800500D01*
X135851929Y-98800500D01*
X148998071Y-98800500D01*
X149040917Y-98800500D01*
X149119140Y-98800500D01*
X149121281Y-98800500D01*
X149310918Y-98767062D01*
X149491868Y-98701202D01*
X149658632Y-98604921D01*
X149806144Y-98481144D01*
X149929921Y-98333632D01*
X150026202Y-98166868D01*
X150092062Y-97985918D01*
X150125500Y-97796281D01*
X150125500Y-97700000D01*
X150125500Y-97673071D01*
X150125500Y-92691190D01*
X150125495Y-92691175D01*
X150125493Y-92691143D01*
X150125493Y-92651909D01*
X150125494Y-92610827D01*
X150115743Y-92555530D01*
X150115000Y-92547022D01*
X150115000Y-91697238D01*
X150115744Y-91688729D01*
X150127486Y-91622137D01*
X150130136Y-91607107D01*
X150117410Y-91534935D01*
X150115744Y-91525485D01*
X150115000Y-91516976D01*
X150115000Y-91077238D01*
X150115744Y-91068729D01*
X150129392Y-90991326D01*
X150130136Y-90987107D01*
X150118749Y-90922526D01*
X150115744Y-90905485D01*
X150115000Y-90896976D01*
X150115000Y-90047218D01*
X150115745Y-90038709D01*
X150122332Y-90001355D01*
X150125500Y-89983389D01*
X150125500Y-89887108D01*
X150125500Y-89860179D01*
X150125500Y-80384083D01*
X150125500Y-80303719D01*
X150092062Y-80114082D01*
X150026202Y-79933132D01*
X149929921Y-79766368D01*
X149806144Y-79618856D01*
X149658632Y-79495079D01*
X149491868Y-79398798D01*
X149489860Y-79398067D01*
X149312928Y-79333669D01*
X149312921Y-79333667D01*
X149310918Y-79332938D01*
X149308822Y-79332568D01*
X149308813Y-79332566D01*
X149123386Y-79299871D01*
X149123384Y-79299870D01*
X149121281Y-79299500D01*
X149119140Y-79299500D01*
X142990132Y-79299500D01*
X142980309Y-79298505D01*
X142975086Y-79297436D01*
X142975084Y-79297436D01*
X142968766Y-79296143D01*
X142962648Y-79298181D01*
X142962644Y-79298182D01*
X142943770Y-79304473D01*
X142943422Y-79304588D01*
X142913592Y-79314281D01*
X142913590Y-79314281D01*
X142912888Y-79314510D01*
X142912735Y-79314719D01*
X142912696Y-79314740D01*
X142893037Y-79321234D01*
X142893032Y-79321236D01*
X142889891Y-79322273D01*
X142889766Y-79321895D01*
X142857114Y-79324764D01*
X142829056Y-79303630D01*
X142822351Y-79269149D01*
X142829392Y-79229219D01*
X142830136Y-79225000D01*
X142811734Y-79120637D01*
X142758748Y-79028862D01*
X142755464Y-79026106D01*
X142755463Y-79026105D01*
X142680850Y-78963498D01*
X142677568Y-78960744D01*
X142673542Y-78959278D01*
X142673541Y-78959278D01*
X142620314Y-78939905D01*
X142577986Y-78924500D01*
X142472014Y-78924500D01*
X142467983Y-78925966D01*
X142467983Y-78925967D01*
X142376458Y-78959278D01*
X142376454Y-78959279D01*
X142372432Y-78960744D01*
X142369151Y-78963496D01*
X142369149Y-78963498D01*
X142294536Y-79026105D01*
X142294532Y-79026109D01*
X142291252Y-79028862D01*
X142289109Y-79032573D01*
X142289107Y-79032576D01*
X142240409Y-79116925D01*
X142238266Y-79120637D01*
X142219864Y-79225000D01*
X142220608Y-79229219D01*
X142227649Y-79269151D01*
X142220943Y-79303633D01*
X142192883Y-79324767D01*
X142160233Y-79321896D01*
X142160108Y-79322275D01*
X142158499Y-79321743D01*
X142158497Y-79321742D01*
X142156957Y-79321234D01*
X142156955Y-79321233D01*
X142137305Y-79314742D01*
X142137265Y-79314721D01*
X142137112Y-79314511D01*
X142106658Y-79304615D01*
X142106306Y-79304499D01*
X142087354Y-79298182D01*
X142087350Y-79298181D01*
X142081234Y-79296143D01*
X142074917Y-79297435D01*
X142074914Y-79297435D01*
X142069682Y-79298506D01*
X142059862Y-79299500D01*
X135851929Y-79299500D01*
X135825000Y-79299500D01*
X135728719Y-79299500D01*
X135726616Y-79299870D01*
X135726613Y-79299871D01*
X135541186Y-79332566D01*
X135541174Y-79332568D01*
X135539082Y-79332938D01*
X135537080Y-79333666D01*
X135537071Y-79333669D01*
X135360139Y-79398067D01*
X135360133Y-79398069D01*
X135358132Y-79398798D01*
X135356282Y-79399865D01*
X135356280Y-79399867D01*
X135193219Y-79494010D01*
X135193216Y-79494011D01*
X135191368Y-79495079D01*
X135189735Y-79496448D01*
X135189731Y-79496452D01*
X135045490Y-79617484D01*
X135045484Y-79617489D01*
X135043856Y-79618856D01*
X135042489Y-79620484D01*
X135042484Y-79620490D01*
X134921452Y-79764731D01*
X134921448Y-79764735D01*
X134920079Y-79766368D01*
X134919011Y-79768216D01*
X134919010Y-79768219D01*
X134824867Y-79931280D01*
X134823798Y-79933132D01*
X134823069Y-79935133D01*
X134823067Y-79935139D01*
X134758669Y-80112071D01*
X134758666Y-80112080D01*
X134757938Y-80114082D01*
X134757568Y-80116174D01*
X134757566Y-80116186D01*
X134724871Y-80301613D01*
X134724500Y-80303719D01*
X134724500Y-80305860D01*
X134724500Y-80399790D01*
X134719819Y-83355236D01*
X134714248Y-83373535D01*
X134715622Y-83374104D01*
X134709037Y-83390000D01*
X134705000Y-83390000D01*
X134705000Y-83399747D01*
X134705000Y-84900500D01*
X134690648Y-84935148D01*
X134656000Y-84949500D01*
X134007635Y-84949500D01*
X133972987Y-84935148D01*
X133839852Y-84802013D01*
X133825500Y-84767365D01*
X133825500Y-84759757D01*
X133825500Y-84754237D01*
X133785788Y-84671776D01*
X133781470Y-84668333D01*
X133781470Y-84668332D01*
X133736271Y-84632287D01*
X133714231Y-84614710D01*
X133708847Y-84613481D01*
X133650268Y-84600111D01*
X133650266Y-84600110D01*
X133647590Y-84599500D01*
X133644841Y-84599500D01*
X129067391Y-84599500D01*
X129058728Y-84598028D01*
X129058723Y-84598079D01*
X129053239Y-84597461D01*
X129048027Y-84595637D01*
X129042540Y-84596255D01*
X129016474Y-84599192D01*
X129010988Y-84599500D01*
X129002410Y-84599500D01*
X128999731Y-84600111D01*
X128999724Y-84600112D01*
X128994045Y-84601408D01*
X128988637Y-84602327D01*
X128962558Y-84605266D01*
X128962556Y-84605266D01*
X128957076Y-84605884D01*
X128952404Y-84608819D01*
X128947192Y-84610643D01*
X128947175Y-84610597D01*
X128946103Y-84611041D01*
X128946125Y-84611086D01*
X128941150Y-84613481D01*
X128935769Y-84614710D01*
X128931453Y-84618151D01*
X128931450Y-84618153D01*
X128910947Y-84634503D01*
X128906476Y-84637676D01*
X128901529Y-84640785D01*
X128901519Y-84640792D01*
X128899199Y-84642251D01*
X128897260Y-84644189D01*
X128897257Y-84644192D01*
X128893126Y-84648323D01*
X128889036Y-84651977D01*
X128868527Y-84668333D01*
X128868523Y-84668337D01*
X128864212Y-84671776D01*
X128861817Y-84676748D01*
X128858376Y-84681064D01*
X128858336Y-84681032D01*
X128853252Y-84688196D01*
X122356303Y-91185148D01*
X122340406Y-91195770D01*
X122321655Y-91199500D01*
X118167388Y-91199500D01*
X118158728Y-91198028D01*
X118158723Y-91198080D01*
X118153238Y-91197461D01*
X118148026Y-91195638D01*
X118142539Y-91196256D01*
X118116478Y-91199192D01*
X118110993Y-91199500D01*
X118102410Y-91199500D01*
X118099734Y-91200110D01*
X118099721Y-91200112D01*
X118094038Y-91201409D01*
X118088631Y-91202328D01*
X118062561Y-91205265D01*
X118062556Y-91205266D01*
X118057076Y-91205884D01*
X118052402Y-91208820D01*
X118047191Y-91210644D01*
X118047174Y-91210597D01*
X118046103Y-91211041D01*
X118046125Y-91211086D01*
X118041151Y-91213481D01*
X118035769Y-91214710D01*
X118031452Y-91218152D01*
X118031451Y-91218153D01*
X118010936Y-91234512D01*
X118006465Y-91237685D01*
X118001531Y-91240786D01*
X118001529Y-91240787D01*
X117999199Y-91242252D01*
X117997256Y-91244194D01*
X117997253Y-91244197D01*
X117993131Y-91248319D01*
X117989041Y-91251973D01*
X117968526Y-91268334D01*
X117968522Y-91268338D01*
X117964212Y-91271776D01*
X117961818Y-91276745D01*
X117958375Y-91281064D01*
X117958336Y-91281033D01*
X117953250Y-91288199D01*
X117832881Y-91408568D01*
X117807794Y-91421978D01*
X117764492Y-91430592D01*
X117764488Y-91430593D01*
X117759760Y-91431534D01*
X117755750Y-91434212D01*
X117755748Y-91434214D01*
X117680910Y-91484218D01*
X117680907Y-91484220D01*
X117676899Y-91486899D01*
X117674220Y-91490907D01*
X117674218Y-91490910D01*
X117624214Y-91565748D01*
X117624212Y-91565750D01*
X117621534Y-91569760D01*
X117620593Y-91574488D01*
X117620592Y-91574492D01*
X117605049Y-91652634D01*
X117602092Y-91667500D01*
X115284806Y-91667500D01*
X115302277Y-91625322D01*
X115320854Y-91484218D01*
X115321517Y-91479183D01*
X115321936Y-91476000D01*
X115302277Y-91326678D01*
X115244641Y-91187532D01*
X115242687Y-91184985D01*
X115242685Y-91184982D01*
X115154910Y-91070593D01*
X115152955Y-91068045D01*
X115150406Y-91066089D01*
X115036017Y-90978314D01*
X115036012Y-90978311D01*
X115033468Y-90976359D01*
X115030342Y-90975064D01*
X114897290Y-90919952D01*
X114897287Y-90919951D01*
X114894322Y-90918723D01*
X114891141Y-90918304D01*
X114891137Y-90918303D01*
X114784076Y-90904208D01*
X114784067Y-90904207D01*
X114782492Y-90904000D01*
X114707508Y-90904000D01*
X114705933Y-90904207D01*
X114705923Y-90904208D01*
X114598862Y-90918303D01*
X114598856Y-90918304D01*
X114595678Y-90918723D01*
X114592714Y-90919950D01*
X114592709Y-90919952D01*
X114459500Y-90975129D01*
X114459496Y-90975131D01*
X114456532Y-90976359D01*
X114453990Y-90978308D01*
X114453982Y-90978314D01*
X114339593Y-91066089D01*
X114339589Y-91066092D01*
X114337045Y-91068045D01*
X114335092Y-91070589D01*
X114335089Y-91070593D01*
X114247314Y-91184982D01*
X114247308Y-91184990D01*
X114245359Y-91187532D01*
X114244131Y-91190496D01*
X114244129Y-91190500D01*
X114188952Y-91323709D01*
X114188950Y-91323714D01*
X114187723Y-91326678D01*
X114187304Y-91329856D01*
X114187303Y-91329862D01*
X114170322Y-91458847D01*
X114168064Y-91476000D01*
X100100500Y-91476000D01*
X100100500Y-90460000D01*
X119248064Y-90460000D01*
X119248483Y-90463183D01*
X119267303Y-90606137D01*
X119267304Y-90606141D01*
X119267723Y-90609322D01*
X119268951Y-90612287D01*
X119268952Y-90612290D01*
X119323847Y-90744817D01*
X119325359Y-90748468D01*
X119327311Y-90751012D01*
X119327314Y-90751017D01*
X119405487Y-90852892D01*
X119417045Y-90867955D01*
X119434717Y-90881515D01*
X119533982Y-90957685D01*
X119533985Y-90957687D01*
X119536532Y-90959641D01*
X119675678Y-91017277D01*
X119787508Y-91032000D01*
X119860892Y-91032000D01*
X119862492Y-91032000D01*
X119974322Y-91017277D01*
X120113468Y-90959641D01*
X120232955Y-90867955D01*
X120324641Y-90748468D01*
X120382277Y-90609322D01*
X120401936Y-90460000D01*
X120382277Y-90310678D01*
X120324641Y-90171532D01*
X120322687Y-90168985D01*
X120322685Y-90168982D01*
X120234910Y-90054593D01*
X120232955Y-90052045D01*
X120226664Y-90047218D01*
X120116017Y-89962314D01*
X120116012Y-89962311D01*
X120113468Y-89960359D01*
X120110499Y-89959129D01*
X119977290Y-89903952D01*
X119977287Y-89903951D01*
X119974322Y-89902723D01*
X119971141Y-89902304D01*
X119971137Y-89902303D01*
X119864076Y-89888208D01*
X119864067Y-89888207D01*
X119862492Y-89888000D01*
X119787508Y-89888000D01*
X119785933Y-89888207D01*
X119785923Y-89888208D01*
X119678862Y-89902303D01*
X119678856Y-89902304D01*
X119675678Y-89902723D01*
X119672714Y-89903950D01*
X119672709Y-89903952D01*
X119539500Y-89959129D01*
X119539496Y-89959131D01*
X119536532Y-89960359D01*
X119533990Y-89962308D01*
X119533982Y-89962314D01*
X119419593Y-90050089D01*
X119419589Y-90050092D01*
X119417045Y-90052045D01*
X119415092Y-90054589D01*
X119415089Y-90054593D01*
X119327314Y-90168982D01*
X119327308Y-90168990D01*
X119325359Y-90171532D01*
X119324131Y-90174496D01*
X119324129Y-90174500D01*
X119268952Y-90307709D01*
X119268950Y-90307714D01*
X119267723Y-90310678D01*
X119267304Y-90313856D01*
X119267303Y-90313862D01*
X119251384Y-90434785D01*
X119248064Y-90460000D01*
X100100500Y-90460000D01*
X100100500Y-89444000D01*
X114168064Y-89444000D01*
X114168483Y-89447183D01*
X114187303Y-89590137D01*
X114187304Y-89590141D01*
X114187723Y-89593322D01*
X114188951Y-89596287D01*
X114188952Y-89596290D01*
X114244129Y-89729499D01*
X114245359Y-89732468D01*
X114247311Y-89735012D01*
X114247314Y-89735017D01*
X114305103Y-89810328D01*
X114337045Y-89851955D01*
X114339593Y-89853910D01*
X114453982Y-89941685D01*
X114453985Y-89941687D01*
X114456532Y-89943641D01*
X114595678Y-90001277D01*
X114707508Y-90016000D01*
X114780892Y-90016000D01*
X114782492Y-90016000D01*
X114894322Y-90001277D01*
X115033468Y-89943641D01*
X115152955Y-89851955D01*
X115244641Y-89732468D01*
X115302277Y-89593322D01*
X115313905Y-89505000D01*
X120689592Y-89505000D01*
X120690534Y-89509736D01*
X120708092Y-89598007D01*
X120708093Y-89598009D01*
X120709034Y-89602740D01*
X120711713Y-89606750D01*
X120711714Y-89606751D01*
X120756111Y-89673198D01*
X120764399Y-89685601D01*
X120847260Y-89740966D01*
X120945000Y-89760408D01*
X121042740Y-89740966D01*
X121125601Y-89685601D01*
X121180966Y-89602740D01*
X121200408Y-89505000D01*
X121197091Y-89488327D01*
X121189567Y-89450500D01*
X121180966Y-89407260D01*
X121125601Y-89324399D01*
X121117700Y-89319120D01*
X121046751Y-89271714D01*
X121046750Y-89271713D01*
X121042740Y-89269034D01*
X121038009Y-89268093D01*
X121038007Y-89268092D01*
X120949736Y-89250534D01*
X120945000Y-89249592D01*
X120940264Y-89250534D01*
X120851992Y-89268092D01*
X120851988Y-89268093D01*
X120847260Y-89269034D01*
X120843250Y-89271712D01*
X120843248Y-89271714D01*
X120768410Y-89321718D01*
X120768407Y-89321720D01*
X120764399Y-89324399D01*
X120761720Y-89328407D01*
X120761718Y-89328410D01*
X120711714Y-89403248D01*
X120711712Y-89403250D01*
X120709034Y-89407260D01*
X120708093Y-89411988D01*
X120708092Y-89411992D01*
X120692701Y-89489369D01*
X120689592Y-89505000D01*
X115313905Y-89505000D01*
X115321936Y-89444000D01*
X115302277Y-89294678D01*
X115244641Y-89155532D01*
X115242687Y-89152985D01*
X115242685Y-89152982D01*
X115154910Y-89038593D01*
X115152955Y-89036045D01*
X115142489Y-89028014D01*
X115036017Y-88946314D01*
X115036012Y-88946311D01*
X115033468Y-88944359D01*
X115030499Y-88943129D01*
X114897290Y-88887952D01*
X114897287Y-88887951D01*
X114894322Y-88886723D01*
X114891141Y-88886304D01*
X114891137Y-88886303D01*
X114784076Y-88872208D01*
X114784067Y-88872207D01*
X114782492Y-88872000D01*
X114707508Y-88872000D01*
X114705933Y-88872207D01*
X114705923Y-88872208D01*
X114598862Y-88886303D01*
X114598856Y-88886304D01*
X114595678Y-88886723D01*
X114592714Y-88887950D01*
X114592709Y-88887952D01*
X114459500Y-88943129D01*
X114459496Y-88943131D01*
X114456532Y-88944359D01*
X114453990Y-88946308D01*
X114453982Y-88946314D01*
X114339593Y-89034089D01*
X114339589Y-89034092D01*
X114337045Y-89036045D01*
X114335092Y-89038589D01*
X114335089Y-89038593D01*
X114247314Y-89152982D01*
X114247308Y-89152990D01*
X114245359Y-89155532D01*
X114244131Y-89158496D01*
X114244129Y-89158500D01*
X114188952Y-89291709D01*
X114188950Y-89291714D01*
X114187723Y-89294678D01*
X114187304Y-89297856D01*
X114187303Y-89297862D01*
X114172278Y-89411992D01*
X114168064Y-89444000D01*
X100100500Y-89444000D01*
X100100500Y-87976945D01*
X115382018Y-87976945D01*
X115382312Y-87979122D01*
X115382313Y-87979124D01*
X115412268Y-88200263D01*
X115412269Y-88200268D01*
X115412563Y-88202437D01*
X115413238Y-88204514D01*
X115413240Y-88204523D01*
X115462155Y-88355065D01*
X115482880Y-88418851D01*
X115483917Y-88420779D01*
X115483921Y-88420787D01*
X115589670Y-88617301D01*
X115589674Y-88617308D01*
X115590710Y-88619232D01*
X115592075Y-88620944D01*
X115592076Y-88620945D01*
X115713044Y-88772635D01*
X115732585Y-88797138D01*
X115903948Y-88946853D01*
X116099289Y-89063564D01*
X116312330Y-89143520D01*
X116536224Y-89184150D01*
X116705671Y-89184150D01*
X116706775Y-89184150D01*
X116876635Y-89168862D01*
X117095986Y-89108325D01*
X117301003Y-89009595D01*
X117485095Y-88875843D01*
X117642347Y-88711371D01*
X117767705Y-88521463D01*
X117857138Y-88312223D01*
X117907773Y-88090377D01*
X117912867Y-87976945D01*
X118557018Y-87976945D01*
X118557312Y-87979122D01*
X118557313Y-87979124D01*
X118587268Y-88200263D01*
X118587269Y-88200268D01*
X118587563Y-88202437D01*
X118588238Y-88204514D01*
X118588240Y-88204523D01*
X118637155Y-88355065D01*
X118657880Y-88418851D01*
X118658917Y-88420779D01*
X118658921Y-88420787D01*
X118764670Y-88617301D01*
X118764674Y-88617308D01*
X118765710Y-88619232D01*
X118767075Y-88620944D01*
X118767076Y-88620945D01*
X118888044Y-88772635D01*
X118907585Y-88797138D01*
X119078948Y-88946853D01*
X119274289Y-89063564D01*
X119487330Y-89143520D01*
X119711224Y-89184150D01*
X119880671Y-89184150D01*
X119881775Y-89184150D01*
X120051635Y-89168862D01*
X120270986Y-89108325D01*
X120476003Y-89009595D01*
X120660095Y-88875843D01*
X120817347Y-88711371D01*
X120942705Y-88521463D01*
X121032138Y-88312223D01*
X121082773Y-88090377D01*
X121092982Y-87863055D01*
X121062437Y-87637563D01*
X120992120Y-87421149D01*
X120981153Y-87400769D01*
X120885329Y-87222698D01*
X120885326Y-87222694D01*
X120884290Y-87220768D01*
X120742415Y-87042862D01*
X120571052Y-86893147D01*
X120434467Y-86811541D01*
X120377601Y-86777565D01*
X120377599Y-86777564D01*
X120375711Y-86776436D01*
X120316885Y-86754358D01*
X120164736Y-86697255D01*
X120164732Y-86697253D01*
X120162670Y-86696480D01*
X120160510Y-86696088D01*
X120160503Y-86696086D01*
X119940938Y-86656242D01*
X119940934Y-86656241D01*
X119938776Y-86655850D01*
X119768225Y-86655850D01*
X119767144Y-86655947D01*
X119767128Y-86655948D01*
X119600552Y-86670941D01*
X119600550Y-86670941D01*
X119598365Y-86671138D01*
X119596256Y-86671719D01*
X119596245Y-86671722D01*
X119381131Y-86731090D01*
X119381123Y-86731092D01*
X119379014Y-86731675D01*
X119377046Y-86732622D01*
X119377037Y-86732626D01*
X119175976Y-86829451D01*
X119175967Y-86829456D01*
X119173997Y-86830405D01*
X119172228Y-86831690D01*
X119172220Y-86831695D01*
X118991683Y-86962864D01*
X118991674Y-86962871D01*
X118989905Y-86964157D01*
X118988388Y-86965743D01*
X118988383Y-86965748D01*
X118834175Y-87127036D01*
X118834169Y-87127042D01*
X118832653Y-87128629D01*
X118831443Y-87130461D01*
X118831439Y-87130467D01*
X118708507Y-87316699D01*
X118708501Y-87316709D01*
X118707295Y-87318537D01*
X118706435Y-87320547D01*
X118706429Y-87320560D01*
X118618725Y-87525756D01*
X118618722Y-87525763D01*
X118617862Y-87527777D01*
X118617374Y-87529910D01*
X118617372Y-87529920D01*
X118570714Y-87734346D01*
X118567227Y-87749623D01*
X118567128Y-87751814D01*
X118567128Y-87751819D01*
X118557116Y-87974747D01*
X118557116Y-87974754D01*
X118557018Y-87976945D01*
X117912867Y-87976945D01*
X117917982Y-87863055D01*
X117887437Y-87637563D01*
X117817120Y-87421149D01*
X117806153Y-87400769D01*
X117710329Y-87222698D01*
X117710326Y-87222694D01*
X117709290Y-87220768D01*
X117567415Y-87042862D01*
X117396052Y-86893147D01*
X117259467Y-86811541D01*
X117202601Y-86777565D01*
X117202599Y-86777564D01*
X117200711Y-86776436D01*
X117141885Y-86754358D01*
X116989736Y-86697255D01*
X116989732Y-86697253D01*
X116987670Y-86696480D01*
X116985510Y-86696088D01*
X116985503Y-86696086D01*
X116765938Y-86656242D01*
X116765934Y-86656241D01*
X116763776Y-86655850D01*
X116593225Y-86655850D01*
X116592144Y-86655947D01*
X116592128Y-86655948D01*
X116425552Y-86670941D01*
X116425550Y-86670941D01*
X116423365Y-86671138D01*
X116421256Y-86671719D01*
X116421245Y-86671722D01*
X116206131Y-86731090D01*
X116206123Y-86731092D01*
X116204014Y-86731675D01*
X116202046Y-86732622D01*
X116202037Y-86732626D01*
X116000976Y-86829451D01*
X116000967Y-86829456D01*
X115998997Y-86830405D01*
X115997228Y-86831690D01*
X115997220Y-86831695D01*
X115816683Y-86962864D01*
X115816674Y-86962871D01*
X115814905Y-86964157D01*
X115813388Y-86965743D01*
X115813383Y-86965748D01*
X115659175Y-87127036D01*
X115659169Y-87127042D01*
X115657653Y-87128629D01*
X115656443Y-87130461D01*
X115656439Y-87130467D01*
X115533507Y-87316699D01*
X115533501Y-87316709D01*
X115532295Y-87318537D01*
X115531435Y-87320547D01*
X115531429Y-87320560D01*
X115443725Y-87525756D01*
X115443722Y-87525763D01*
X115442862Y-87527777D01*
X115442374Y-87529910D01*
X115442372Y-87529920D01*
X115395714Y-87734346D01*
X115392227Y-87749623D01*
X115392128Y-87751814D01*
X115392128Y-87751819D01*
X115382116Y-87974747D01*
X115382116Y-87974754D01*
X115382018Y-87976945D01*
X100100500Y-87976945D01*
X100100500Y-65149500D01*
X100114852Y-65114852D01*
X100149500Y-65100500D01*
X159850500Y-65100500D01*
X159885148Y-65114852D01*
G37*
%TD.AperFunction*%
%TD*%
M02*
