%TF.GenerationSoftware,KiCad,Pcbnew,(7.0.0)*%
%TF.CreationDate,2023-03-01T10:29:47-05:00*%
%TF.ProjectId,headstage-neuropix2e,68656164-7374-4616-9765-2d6e6575726f,A*%
%TF.SameCoordinates,Original*%
%TF.FileFunction,Component,L4,Bot*%
%TF.FilePolarity,Positive*%
%FSLAX46Y46*%
G04 Gerber Fmt 4.6, Leading zero omitted, Abs format (unit mm)*
G04 Created by KiCad (PCBNEW (7.0.0)) date 2023-03-01 10:29:47*
%MOMM*%
%LPD*%
G01*
G04 APERTURE LIST*
%TA.AperFunction,ComponentMain*%
%ADD10C,0.300000*%
%TD*%
%TA.AperFunction,ComponentOutline,Courtyard*%
%ADD11C,0.100000*%
%TD*%
%TA.AperFunction,ComponentPin*%
%ADD12P,0.360000X4X0.000000*%
%TD*%
%TA.AperFunction,ComponentPin*%
%ADD13C,0.000000*%
%TD*%
G04 APERTURE END LIST*
D10*
%TO.C,"L2"*%
%TO.CFtp,"L_0805_2012Metric"*%
%TO.CVal,"CIG21L4R7MNE"*%
%TO.CLbN,"Inductor_SMD"*%
%TO.CMnt,SMD*%
%TO.CRot,0*%
X142387500Y-82900000D03*
D11*
X144137499Y-83749999D02*
X140637501Y-83749999D01*
X140637501Y-82050001D01*
X144137499Y-82050001D01*
X144137499Y-83749999D01*
D12*
%TO.P,"L2","1","1"*%
X143450000Y-82900000D03*
D13*
%TO.P,"L2","2","2"*%
X141325000Y-82900000D03*
%TD*%
D10*
%TO.C,"J3"*%
%TO.CFtp,"TE_2013496-9"*%
%TO.CVal,"2013496-9"*%
%TO.CLbN,"jonnew"*%
%TO.CMnt,SMD*%
%TO.CRot,0*%
X142425000Y-94400000D03*
D11*
X147624999Y-96125399D02*
X137225001Y-96125399D01*
X137225001Y-92700001D01*
X147624999Y-92700001D01*
X147624999Y-96125399D01*
D12*
%TO.P,"J3","1","Pin_1"*%
X146325000Y-95650000D03*
D13*
%TO.P,"J3","2","Pin_2"*%
X146025000Y-93150000D03*
%TO.P,"J3","3","Pin_3"*%
X145725000Y-95650000D03*
%TO.P,"J3","4","Pin_4"*%
X145425000Y-93150000D03*
%TO.P,"J3","5","Pin_5"*%
X145125000Y-95650000D03*
%TO.P,"J3","6","Pin_6"*%
X144825000Y-93150000D03*
%TO.P,"J3","7","Pin_7"*%
X144525000Y-95650000D03*
%TO.P,"J3","8","Pin_8"*%
X144225000Y-93150000D03*
%TO.P,"J3","9","Pin_9"*%
X143925000Y-95650000D03*
%TO.P,"J3","10","Pin_10"*%
X143625000Y-93150000D03*
%TO.P,"J3","11","Pin_11"*%
X143325000Y-95650000D03*
%TO.P,"J3","12","Pin_12"*%
X143025000Y-93150000D03*
%TO.P,"J3","13","Pin_13"*%
X142725000Y-95650000D03*
%TO.P,"J3","14","Pin_14"*%
X142425000Y-93150000D03*
%TO.P,"J3","15","Pin_15"*%
X142125000Y-95650000D03*
%TO.P,"J3","16","Pin_16"*%
X141825000Y-93150000D03*
%TO.P,"J3","17","Pin_17"*%
X141525000Y-95650000D03*
%TO.P,"J3","18","Pin_18"*%
X141225000Y-93150000D03*
%TO.P,"J3","19","Pin_19"*%
X140925000Y-95650000D03*
%TO.P,"J3","20","Pin_20"*%
X140625000Y-93150000D03*
%TO.P,"J3","21","Pin_21"*%
X140325000Y-95650000D03*
%TO.P,"J3","22","Pin_22"*%
X140025000Y-93150000D03*
%TO.P,"J3","23","Pin_23"*%
X139725000Y-95650000D03*
%TO.P,"J3","24","Pin_24"*%
X139425000Y-93150000D03*
%TO.P,"J3","25","Pin_25"*%
X139125000Y-95650000D03*
%TO.P,"J3","26","Pin_26"*%
X138825000Y-93150000D03*
%TO.P,"J3","27","Pin_27"*%
X138525000Y-95650000D03*
%TO.P,"J3","MP","MountPin"*%
X146925000Y-95175000D03*
X137925000Y-95175000D03*
%TD*%
D10*
%TO.C,"U6"*%
%TO.CFtp,"ONSEMI_567JZ_WLCSP4-0.84x0.86"*%
%TO.CVal,"CAT24Cxx"*%
%TO.CLbN,"jonnew"*%
%TO.CMnt,SMD*%
%TO.CRot,-90*%
X145275000Y-85900000D03*
D11*
X145725399Y-86374999D02*
X144825001Y-86374999D01*
X144825001Y-85425001D01*
X145725399Y-85425001D01*
X145725399Y-86374999D01*
D12*
%TO.P,"U6","A1","VCC"*%
X145475000Y-86100000D03*
D13*
%TO.P,"U6","A2","VSS"*%
X145475000Y-85700000D03*
%TO.P,"U6","B1","SCL"*%
X145075000Y-86100000D03*
%TO.P,"U6","B2","SDA"*%
X145075000Y-85700000D03*
%TD*%
D10*
%TO.C,"C25"*%
%TO.CFtp,"C_0201_0603Metric"*%
%TO.CVal,"0.1uF"*%
%TO.CLbN,"Capacitor_SMD"*%
%TO.CMnt,SMD*%
%TO.CRot,0*%
X146575000Y-85950000D03*
D11*
X147274999Y-86299999D02*
X145875001Y-86299999D01*
X145875001Y-85600001D01*
X147274999Y-85600001D01*
X147274999Y-86299999D01*
D12*
%TO.P,"C25","1"*%
X146895000Y-85950000D03*
D13*
%TO.P,"C25","2"*%
X146255000Y-85950000D03*
%TD*%
D10*
%TO.C,"U2"*%
%TO.CFtp,"ONSEMI_567JZ_WLCSP4-0.64x0.64"*%
%TO.CVal,"NCP163AFCT180T2G"*%
%TO.CLbN,"jonnew"*%
%TO.CMnt,SMD*%
%TO.CRot,90*%
X138745000Y-91200000D03*
D11*
X139094999Y-91549999D02*
X138395001Y-91549999D01*
X138395001Y-90850001D01*
X139094999Y-90850001D01*
X139094999Y-91549999D01*
D12*
%TO.P,"U2","A1","VIN"*%
X138570000Y-91025000D03*
D13*
%TO.P,"U2","A2","VOUT"*%
X138570000Y-91375000D03*
%TO.P,"U2","B1","EN"*%
X138920000Y-91025000D03*
%TO.P,"U2","B2","GND"*%
X138920000Y-91375000D03*
%TD*%
D10*
%TO.C,"R5"*%
%TO.CFtp,"R_0201_0603Metric"*%
%TO.CVal,"10k"*%
%TO.CLbN,"Resistor_SMD"*%
%TO.CMnt,SMD*%
%TO.CRot,180*%
X138375000Y-86900000D03*
D11*
X139074999Y-87249999D02*
X137675001Y-87249999D01*
X137675001Y-86550001D01*
X139074999Y-86550001D01*
X139074999Y-87249999D01*
D12*
%TO.P,"R5","1"*%
X138055000Y-86900000D03*
D13*
%TO.P,"R5","2"*%
X138695000Y-86900000D03*
%TD*%
D10*
%TO.C,"C28"*%
%TO.CFtp,"C_0201_0603Metric"*%
%TO.CVal,"0.1uF"*%
%TO.CLbN,"Capacitor_SMD"*%
%TO.CMnt,SMD*%
%TO.CRot,0*%
X139745000Y-92300000D03*
D11*
X140444999Y-92649999D02*
X139045001Y-92649999D01*
X139045001Y-91950001D01*
X140444999Y-91950001D01*
X140444999Y-92649999D01*
D12*
%TO.P,"C28","1"*%
X140065000Y-92300000D03*
D13*
%TO.P,"C28","2"*%
X139425000Y-92300000D03*
%TD*%
D10*
%TO.C,"C12"*%
%TO.CFtp,"C_0402_1005Metric"*%
%TO.CVal,"10uF"*%
%TO.CLbN,"Capacitor_SMD"*%
%TO.CMnt,SMD*%
%TO.CRot,-90*%
X141925000Y-85500000D03*
D11*
X142384999Y-86409999D02*
X141465001Y-86409999D01*
X141465001Y-84590001D01*
X142384999Y-84590001D01*
X142384999Y-86409999D01*
D12*
%TO.P,"C12","1"*%
X141925000Y-85980000D03*
D13*
%TO.P,"C12","2"*%
X141925000Y-85020000D03*
%TD*%
D10*
%TO.C,"C11"*%
%TO.CFtp,"C_0201_0603Metric"*%
%TO.CVal,"0.1uF"*%
%TO.CLbN,"Capacitor_SMD"*%
%TO.CMnt,SMD*%
%TO.CRot,-90*%
X143475000Y-85720000D03*
D11*
X143824999Y-86419999D02*
X143125001Y-86419999D01*
X143125001Y-85020001D01*
X143824999Y-85020001D01*
X143824999Y-86419999D01*
D12*
%TO.P,"C11","1"*%
X143475000Y-86040000D03*
D13*
%TO.P,"C11","2"*%
X143475000Y-85400000D03*
%TD*%
D10*
%TO.C,"R11"*%
%TO.CFtp,"R_0201_0603Metric"*%
%TO.CVal,"1k"*%
%TO.CLbN,"Resistor_SMD"*%
%TO.CMnt,SMD*%
%TO.CRot,-90*%
X140165000Y-91250000D03*
D11*
X140514999Y-91949999D02*
X139815001Y-91949999D01*
X139815001Y-90550001D01*
X140514999Y-90550001D01*
X140514999Y-91949999D01*
D12*
%TO.P,"R11","1"*%
X140165000Y-91570000D03*
D13*
%TO.P,"R11","2"*%
X140165000Y-90930000D03*
%TD*%
D10*
%TO.C,"L3"*%
%TO.CFtp,"L_0201_0603Metric"*%
%TO.CVal,"BLF03RD501GZED"*%
%TO.CLbN,"Inductor_SMD"*%
%TO.CMnt,SMD*%
%TO.CRot,90*%
X141055000Y-85780000D03*
D11*
X141404999Y-86479999D02*
X140705001Y-86479999D01*
X140705001Y-85080001D01*
X141404999Y-85080001D01*
X141404999Y-86479999D01*
D12*
%TO.P,"L3","1","1"*%
X141055000Y-85460000D03*
D13*
%TO.P,"L3","2","2"*%
X141055000Y-86100000D03*
%TD*%
D10*
%TO.C,"C4"*%
%TO.CFtp,"C_0201_0603Metric"*%
%TO.CVal,"1uF"*%
%TO.CLbN,"Capacitor_SMD"*%
%TO.CMnt,SMD*%
%TO.CRot,-90*%
X139445000Y-91250000D03*
D11*
X139794999Y-91949999D02*
X139095001Y-91949999D01*
X139095001Y-90550001D01*
X139794999Y-90550001D01*
X139794999Y-91949999D01*
D12*
%TO.P,"C4","1"*%
X139445000Y-91570000D03*
D13*
%TO.P,"C4","2"*%
X139445000Y-90930000D03*
%TD*%
D10*
%TO.C,"R12"*%
%TO.CFtp,"R_0201_0603Metric"*%
%TO.CVal,"22"*%
%TO.CLbN,"Resistor_SMD"*%
%TO.CMnt,SMD*%
%TO.CRot,0*%
X140225000Y-89500000D03*
D11*
X140924999Y-89849999D02*
X139525001Y-89849999D01*
X139525001Y-89150001D01*
X140924999Y-89150001D01*
X140924999Y-89849999D01*
D12*
%TO.P,"R12","1"*%
X140545000Y-89500000D03*
D13*
%TO.P,"R12","2"*%
X139905000Y-89500000D03*
%TD*%
D10*
%TO.C,"C21"*%
%TO.CFtp,"C_0201_0603Metric"*%
%TO.CVal,"1uF"*%
%TO.CLbN,"Capacitor_SMD"*%
%TO.CMnt,SMD*%
%TO.CRot,180*%
X139935000Y-86860000D03*
D11*
X140634999Y-87209999D02*
X139235001Y-87209999D01*
X139235001Y-86510001D01*
X140634999Y-86510001D01*
X140634999Y-87209999D01*
D12*
%TO.P,"C21","1"*%
X139615000Y-86860000D03*
D13*
%TO.P,"C21","2"*%
X140255000Y-86860000D03*
%TD*%
D10*
%TO.C,"U5"*%
%TO.CFtp,"MICROCHIP_VFLGA4-2.0x1.6"*%
%TO.CVal,"DSC6011JI1A-048.0000"*%
%TO.CLbN,"jonnew"*%
%TO.CMnt,SMD*%
%TO.CRot,90*%
X139825000Y-88200000D03*
D11*
X140924999Y-89099999D02*
X138725001Y-89099999D01*
X138725001Y-87300001D01*
X140924999Y-87300001D01*
X140924999Y-89099999D01*
D12*
%TO.P,"U5","1","EN"*%
X139100000Y-87725000D03*
D13*
%TO.P,"U5","2","GND"*%
X140600000Y-87725000D03*
%TO.P,"U5","3","OUT"*%
X140600000Y-88675000D03*
%TO.P,"U5","4","VCC"*%
X139050000Y-88675000D03*
%TD*%
D10*
%TO.C,"C27"*%
%TO.CFtp,"C_0201_0603Metric"*%
%TO.CVal,"0.1uF"*%
%TO.CLbN,"Capacitor_SMD"*%
%TO.CMnt,SMD*%
%TO.CRot,-90*%
X139055000Y-89840000D03*
D11*
X139404999Y-90539999D02*
X138705001Y-90539999D01*
X138705001Y-89140001D01*
X139404999Y-89140001D01*
X139404999Y-90539999D01*
D12*
%TO.P,"C27","1"*%
X139055000Y-90160000D03*
D13*
%TO.P,"C27","2"*%
X139055000Y-89520000D03*
%TD*%
D10*
%TO.C,"C24"*%
%TO.CFtp,"C_0201_0603Metric"*%
%TO.CVal,"27pF"*%
%TO.CLbN,"Capacitor_SMD"*%
%TO.CMnt,SMD*%
%TO.CRot,0*%
X140225000Y-90200000D03*
D11*
X140924999Y-90549999D02*
X139525001Y-90549999D01*
X139525001Y-89850001D01*
X140924999Y-89850001D01*
X140924999Y-90549999D01*
D12*
%TO.P,"C24","1"*%
X140545000Y-90200000D03*
D13*
%TO.P,"C24","2"*%
X139905000Y-90200000D03*
%TD*%
D10*
%TO.C,"R8"*%
%TO.CFtp,"R_0201_0603Metric"*%
%TO.CVal,"10k"*%
%TO.CLbN,"Resistor_SMD"*%
%TO.CMnt,SMD*%
%TO.CRot,180*%
X138335000Y-92300000D03*
D11*
X139034999Y-92649999D02*
X137635001Y-92649999D01*
X137635001Y-91950001D01*
X139034999Y-91950001D01*
X139034999Y-92649999D01*
D12*
%TO.P,"R8","1"*%
X138015000Y-92300000D03*
D13*
%TO.P,"R8","2"*%
X138655000Y-92300000D03*
%TD*%
D10*
%TO.C,"R2"*%
%TO.CFtp,"R_0201_0603Metric"*%
%TO.CVal,"2k"*%
%TO.CLbN,"Resistor_SMD"*%
%TO.CMnt,SMD*%
%TO.CRot,180*%
X142325000Y-84100000D03*
D11*
X143024999Y-84449999D02*
X141625001Y-84449999D01*
X141625001Y-83750001D01*
X143024999Y-83750001D01*
X143024999Y-84449999D01*
D12*
%TO.P,"R2","1"*%
X142005000Y-84100000D03*
D13*
%TO.P,"R2","2"*%
X142645000Y-84100000D03*
%TD*%
D10*
%TO.C,"C5"*%
%TO.CFtp,"C_0201_0603Metric"*%
%TO.CVal,"1uF"*%
%TO.CLbN,"Capacitor_SMD"*%
%TO.CMnt,SMD*%
%TO.CRot,90*%
X138045000Y-91200000D03*
D11*
X138394999Y-91899999D02*
X137695001Y-91899999D01*
X137695001Y-90500001D01*
X138394999Y-90500001D01*
X138394999Y-91899999D01*
D12*
%TO.P,"C5","1"*%
X138045000Y-90880000D03*
D13*
%TO.P,"C5","2"*%
X138045000Y-91520000D03*
%TD*%
D10*
%TO.C,"C26"*%
%TO.CFtp,"C_0201_0603Metric"*%
%TO.CVal,"0.1uF"*%
%TO.CLbN,"Capacitor_SMD"*%
%TO.CMnt,SMD*%
%TO.CRot,90*%
X138125000Y-89620000D03*
D11*
X138474999Y-90319999D02*
X137775001Y-90319999D01*
X137775001Y-88920001D01*
X138474999Y-88920001D01*
X138474999Y-90319999D01*
D12*
%TO.P,"C26","1"*%
X138125000Y-89300000D03*
D13*
%TO.P,"C26","2"*%
X138125000Y-89940000D03*
%TD*%
D10*
%TO.C,"C10"*%
%TO.CFtp,"C_0201_0603Metric"*%
%TO.CVal,"10nF"*%
%TO.CLbN,"Capacitor_SMD"*%
%TO.CMnt,SMD*%
%TO.CRot,-90*%
X142775000Y-85700000D03*
D11*
X143124999Y-86399999D02*
X142425001Y-86399999D01*
X142425001Y-85000001D01*
X143124999Y-85000001D01*
X143124999Y-86399999D01*
D12*
%TO.P,"C10","1"*%
X142775000Y-86020000D03*
D13*
%TO.P,"C10","2"*%
X142775000Y-85380000D03*
%TD*%
D10*
%TO.C,"U3"*%
%TO.CFtp,"TI_RTV0032A"*%
%TO.CVal,"DS90UB9x3"*%
%TO.CLbN,"jonnew"*%
%TO.CMnt,SMD*%
%TO.CRot,180*%
X144025000Y-89400000D03*
D11*
X146924999Y-92299999D02*
X141125001Y-92299999D01*
X141125001Y-86500001D01*
X146924999Y-86500001D01*
X146924999Y-92299999D01*
D12*
%TO.P,"U3","1","HSYNC"*%
X141625000Y-91149999D03*
D13*
%TO.P,"U3","2","VSYNC"*%
X141625000Y-90650000D03*
%TO.P,"U3","3","PCLK"*%
X141625000Y-90150001D03*
%TO.P,"U3","4","SCL"*%
X141625000Y-89650000D03*
%TO.P,"U3","5","SDA"*%
X141625000Y-89150000D03*
%TO.P,"U3","6","ID[X]"*%
X141625000Y-88650002D03*
%TO.P,"U3","7","RES"*%
X141625000Y-88150000D03*
%TO.P,"U3","8","MODE"*%
X141625000Y-87650001D03*
%TO.P,"U3","9","PDB"*%
X142275001Y-87000000D03*
%TO.P,"U3","10","VDDPLL"*%
X142775000Y-87000000D03*
%TO.P,"U3","11","VDDT"*%
X143274999Y-87000000D03*
%TO.P,"U3","12","DOUTN"*%
X143775000Y-87000000D03*
%TO.P,"U3","13","DOUTP"*%
X144275000Y-87000000D03*
%TO.P,"U3","14","VDDCML"*%
X144774998Y-87000000D03*
%TO.P,"U3","15","GPIO0"*%
X145275000Y-87000000D03*
%TO.P,"U3","16","GPIO1"*%
X145774999Y-87000000D03*
%TO.P,"U3","17","GPIO2/CLK0"*%
X146425000Y-87650001D03*
%TO.P,"U3","18","GPIO3/CLKIN"*%
X146425000Y-88150000D03*
%TO.P,"U3","19","DIN_0"*%
X146425000Y-88650002D03*
%TO.P,"U3","20","DIN_1"*%
X146425000Y-89150000D03*
%TO.P,"U3","21","DIN_2"*%
X146425000Y-89650000D03*
%TO.P,"U3","22","DIN_3"*%
X146425000Y-90150001D03*
%TO.P,"U3","23","DIN_4"*%
X146425000Y-90650000D03*
%TO.P,"U3","24","DIN_5"*%
X146425000Y-91149999D03*
%TO.P,"U3","25","VDDIO"*%
X145774999Y-91800000D03*
%TO.P,"U3","26","DIN_6"*%
X145275000Y-91800000D03*
%TO.P,"U3","27","DIN_7"*%
X144774998Y-91800000D03*
%TO.P,"U3","28","VDDD"*%
X144275000Y-91800000D03*
%TO.P,"U3","29","DIN_8"*%
X143775000Y-91800000D03*
%TO.P,"U3","30","DIN_9"*%
X143274999Y-91800000D03*
%TO.P,"U3","31","DIN_10"*%
X142775000Y-91800000D03*
%TO.P,"U3","32","DIN_11"*%
X142275001Y-91800000D03*
%TO.P,"U3","33","GND(DAP)"*%
X144025000Y-89400000D03*
%TD*%
D10*
%TO.C,"L1"*%
%TO.CFtp,"L_1210_3225Metric"*%
%TO.CVal,"CBC3225T101MR"*%
%TO.CLbN,"Inductor_SMD"*%
%TO.CMnt,SMD*%
%TO.CRot,-90*%
X139025000Y-84200000D03*
D11*
X140604999Y-86479999D02*
X137445001Y-86479999D01*
X137445001Y-81920001D01*
X140604999Y-81920001D01*
X140604999Y-86479999D01*
D12*
%TO.P,"L1","1","1"*%
X139025000Y-85600000D03*
D13*
%TO.P,"L1","2","2"*%
X139025000Y-82800000D03*
%TD*%
D10*
%TO.C,"C23"*%
%TO.CFtp,"C_0201_0603Metric"*%
%TO.CVal,"10nF"*%
%TO.CLbN,"Capacitor_SMD"*%
%TO.CMnt,SMD*%
%TO.CRot,-90*%
X138145000Y-88170000D03*
D11*
X138494999Y-88869999D02*
X137795001Y-88869999D01*
X137795001Y-87470001D01*
X138494999Y-87470001D01*
X138494999Y-88869999D01*
D12*
%TO.P,"C23","1"*%
X138145000Y-88490000D03*
D13*
%TO.P,"C23","2"*%
X138145000Y-87850000D03*
%TD*%
D10*
%TO.C,"C20"*%
%TO.CFtp,"C_0201_0603Metric"*%
%TO.CVal,"47nF"*%
%TO.CLbN,"Capacitor_SMD"*%
%TO.CMnt,SMD*%
%TO.CRot,-90*%
X144325000Y-85700000D03*
D11*
X144674999Y-86399999D02*
X143975001Y-86399999D01*
X143975001Y-85000001D01*
X144674999Y-85000001D01*
X144674999Y-86399999D01*
D12*
%TO.P,"C20","1"*%
X144325000Y-86020000D03*
D13*
%TO.P,"C20","2"*%
X144325000Y-85380000D03*
%TD*%
M02*
