%TF.GenerationSoftware,KiCad,Pcbnew,(7.0.0)*%
%TF.CreationDate,2023-09-15T12:27:41-04:00*%
%TF.ProjectId,headstage-neuropix2e,68656164-7374-4616-9765-2d6e6575726f,A*%
%TF.SameCoordinates,Original*%
%TF.FileFunction,Paste,Top*%
%TF.FilePolarity,Positive*%
%FSLAX46Y46*%
G04 Gerber Fmt 4.6, Leading zero omitted, Abs format (unit mm)*
G04 Created by KiCad (PCBNEW (7.0.0)) date 2023-09-15 12:27:41*
%MOMM*%
%LPD*%
G01*
G04 APERTURE LIST*
G04 Aperture macros list*
%AMRoundRect*
0 Rectangle with rounded corners*
0 $1 Rounding radius*
0 $2 $3 $4 $5 $6 $7 $8 $9 X,Y pos of 4 corners*
0 Add a 4 corners polygon primitive as box body*
4,1,4,$2,$3,$4,$5,$6,$7,$8,$9,$2,$3,0*
0 Add four circle primitives for the rounded corners*
1,1,$1+$1,$2,$3*
1,1,$1+$1,$4,$5*
1,1,$1+$1,$6,$7*
1,1,$1+$1,$8,$9*
0 Add four rect primitives between the rounded corners*
20,1,$1+$1,$2,$3,$4,$5,0*
20,1,$1+$1,$4,$5,$6,$7,0*
20,1,$1+$1,$6,$7,$8,$9,0*
20,1,$1+$1,$8,$9,$2,$3,0*%
G04 Aperture macros list end*
%ADD10R,0.500000X0.650000*%
%ADD11R,0.600000X1.500000*%
%ADD12R,0.500000X0.550000*%
%ADD13RoundRect,0.079500X-0.100500X0.079500X-0.100500X-0.079500X0.100500X-0.079500X0.100500X0.079500X0*%
%ADD14RoundRect,0.009000X-0.081000X-0.233500X0.081000X-0.233500X0.081000X0.233500X-0.081000X0.233500X0*%
%ADD15RoundRect,0.011500X-0.103500X-0.256000X0.103500X-0.256000X0.103500X0.256000X-0.103500X0.256000X0*%
%ADD16R,0.254000X0.675000*%
%ADD17R,0.675000X0.254000*%
%ADD18RoundRect,0.140000X-0.140000X-0.170000X0.140000X-0.170000X0.140000X0.170000X-0.140000X0.170000X0*%
%ADD19R,0.250000X0.450000*%
%ADD20R,0.450000X0.250000*%
%ADD21RoundRect,0.079500X0.079500X0.100500X-0.079500X0.100500X-0.079500X-0.100500X0.079500X-0.100500X0*%
%ADD22RoundRect,0.079500X0.100500X-0.079500X0.100500X0.079500X-0.100500X0.079500X-0.100500X-0.079500X0*%
%ADD23RoundRect,0.079500X-0.079500X-0.100500X0.079500X-0.100500X0.079500X0.100500X-0.079500X0.100500X0*%
%ADD24RoundRect,0.017500X-0.157500X-0.257500X0.157500X-0.257500X0.157500X0.257500X-0.157500X0.257500X0*%
%ADD25RoundRect,0.012500X-0.187500X-0.112500X0.187500X-0.112500X0.187500X0.112500X-0.187500X0.112500X0*%
%ADD26RoundRect,0.140000X-0.170000X0.140000X-0.170000X-0.140000X0.170000X-0.140000X0.170000X0.140000X0*%
G04 APERTURE END LIST*
%TO.C,J2*%
G36*
X139125000Y-95170000D02*
G01*
X139425000Y-95170000D01*
X139425000Y-95870000D01*
X139125000Y-95870000D01*
X139125000Y-95170000D01*
G37*
G36*
X139900000Y-95420000D02*
G01*
X140150000Y-95420000D01*
X140150000Y-96070000D01*
X139900000Y-96070000D01*
X139900000Y-95420000D01*
G37*
G36*
X140200000Y-92470000D02*
G01*
X140450000Y-92470000D01*
X140450000Y-93020000D01*
X140200000Y-93020000D01*
X140200000Y-92470000D01*
G37*
G36*
X140500000Y-95420000D02*
G01*
X140750000Y-95420000D01*
X140750000Y-96070000D01*
X140500000Y-96070000D01*
X140500000Y-95420000D01*
G37*
G36*
X140800000Y-92470000D02*
G01*
X141050000Y-92470000D01*
X141050000Y-93020000D01*
X140800000Y-93020000D01*
X140800000Y-92470000D01*
G37*
G36*
X141100000Y-95420000D02*
G01*
X141350000Y-95420000D01*
X141350000Y-96070000D01*
X141100000Y-96070000D01*
X141100000Y-95420000D01*
G37*
G36*
X141400000Y-92470000D02*
G01*
X141650000Y-92470000D01*
X141650000Y-93020000D01*
X141400000Y-93020000D01*
X141400000Y-92470000D01*
G37*
G36*
X141700000Y-95420000D02*
G01*
X141950000Y-95420000D01*
X141950000Y-96070000D01*
X141700000Y-96070000D01*
X141700000Y-95420000D01*
G37*
G36*
X142000000Y-92470000D02*
G01*
X142250000Y-92470000D01*
X142250000Y-93020000D01*
X142000000Y-93020000D01*
X142000000Y-92470000D01*
G37*
G36*
X142300000Y-95420000D02*
G01*
X142550000Y-95420000D01*
X142550000Y-96070000D01*
X142300000Y-96070000D01*
X142300000Y-95420000D01*
G37*
G36*
X142600000Y-92470000D02*
G01*
X142850000Y-92470000D01*
X142850000Y-93020000D01*
X142600000Y-93020000D01*
X142600000Y-92470000D01*
G37*
G36*
X142900000Y-95420000D02*
G01*
X143150000Y-95420000D01*
X143150000Y-96070000D01*
X142900000Y-96070000D01*
X142900000Y-95420000D01*
G37*
G36*
X143200000Y-92470000D02*
G01*
X143450000Y-92470000D01*
X143450000Y-93020000D01*
X143200000Y-93020000D01*
X143200000Y-92470000D01*
G37*
G36*
X143500000Y-95420000D02*
G01*
X143750000Y-95420000D01*
X143750000Y-96070000D01*
X143500000Y-96070000D01*
X143500000Y-95420000D01*
G37*
G36*
X143800000Y-92470000D02*
G01*
X144050000Y-92470000D01*
X144050000Y-93020000D01*
X143800000Y-93020000D01*
X143800000Y-92470000D01*
G37*
G36*
X144100000Y-95420000D02*
G01*
X144350000Y-95420000D01*
X144350000Y-96070000D01*
X144100000Y-96070000D01*
X144100000Y-95420000D01*
G37*
G36*
X144400000Y-92470000D02*
G01*
X144650000Y-92470000D01*
X144650000Y-93020000D01*
X144400000Y-93020000D01*
X144400000Y-92470000D01*
G37*
G36*
X144700000Y-95420000D02*
G01*
X144950000Y-95420000D01*
X144950000Y-96070000D01*
X144700000Y-96070000D01*
X144700000Y-95420000D01*
G37*
G36*
X145425000Y-95170000D02*
G01*
X145725000Y-95170000D01*
X145725000Y-95870000D01*
X145425000Y-95870000D01*
X145425000Y-95170000D01*
G37*
%TD*%
D10*
%TO.C,J1*%
X142529999Y-84374999D03*
D11*
X141529999Y-83399999D03*
D12*
X142529999Y-82374999D03*
D11*
X143529999Y-83399999D03*
%TD*%
D13*
%TO.C,R7*%
X141705000Y-86185000D03*
X141705000Y-86875000D03*
%TD*%
%TO.C,C13*%
X143105000Y-86185000D03*
X143105000Y-86875000D03*
%TD*%
D14*
%TO.C,J6*%
X138735000Y-84190000D03*
X138735000Y-82370000D03*
X139085000Y-84190000D03*
X139085000Y-82370000D03*
X139435000Y-84190000D03*
X139435000Y-82370000D03*
D15*
X138360000Y-84045000D03*
X138360000Y-82515000D03*
X139810000Y-84045000D03*
X139810000Y-82515000D03*
%TD*%
D16*
%TO.C,U7*%
X138324999Y-87824999D03*
D17*
X138187499Y-88737499D03*
X138187499Y-89237499D03*
X138187499Y-89737499D03*
X138187499Y-90237499D03*
D16*
X138324999Y-91149999D03*
X138824999Y-91149999D03*
X139324999Y-91149999D03*
X139824999Y-91149999D03*
X140324999Y-91149999D03*
X140824999Y-91149999D03*
X141324999Y-91149999D03*
X141824999Y-91149999D03*
X142324999Y-91149999D03*
X142824999Y-91149999D03*
D17*
X142962499Y-90237499D03*
X142962499Y-89737499D03*
X142962499Y-89237499D03*
X142962499Y-88737499D03*
D16*
X142824999Y-87824999D03*
X142324999Y-87824999D03*
X141824999Y-87824999D03*
X141324999Y-87824999D03*
X140824999Y-87824999D03*
X140324999Y-87824999D03*
X139824999Y-87824999D03*
X139324999Y-87824999D03*
X138824999Y-87824999D03*
%TD*%
D18*
%TO.C,C15*%
X141795000Y-85360000D03*
X142755000Y-85360000D03*
%TD*%
D19*
%TO.C,U4*%
X145123999Y-89796999D03*
X145523999Y-89796999D03*
X145923999Y-89796999D03*
D20*
X146448999Y-89671999D03*
X146448999Y-89271999D03*
X146448999Y-88871999D03*
D19*
X145923999Y-88746999D03*
X145523999Y-88746999D03*
X145123999Y-88746999D03*
D20*
X144598999Y-88871999D03*
X144598999Y-89271999D03*
X144598999Y-89671999D03*
%TD*%
D21*
%TO.C,R3*%
X138845000Y-84850000D03*
X138155000Y-84850000D03*
%TD*%
D13*
%TO.C,C17*%
X143914000Y-86726000D03*
X143914000Y-87416000D03*
%TD*%
%TO.C,C14*%
X142405000Y-86185000D03*
X142405000Y-86875000D03*
%TD*%
D22*
%TO.C,C22*%
X143914000Y-89490000D03*
X143914000Y-88800000D03*
%TD*%
%TO.C,C9*%
X144695000Y-90535000D03*
X144695000Y-91225000D03*
%TD*%
D23*
%TO.C,C7*%
X145778000Y-90636000D03*
X146468000Y-90636000D03*
%TD*%
D21*
%TO.C,C2*%
X140370000Y-84850000D03*
X139680000Y-84850000D03*
%TD*%
D24*
%TO.C,U1*%
X139625000Y-85875000D03*
X139625000Y-86575000D03*
D25*
X138975000Y-85725000D03*
X138975000Y-86225000D03*
X138975000Y-86725000D03*
X140275000Y-86725000D03*
X140275000Y-86225000D03*
X140275000Y-85725000D03*
%TD*%
D22*
%TO.C,L4*%
X146335000Y-87273000D03*
X146335000Y-86583000D03*
%TD*%
%TO.C,C19*%
X144511000Y-86015000D03*
X144511000Y-85325000D03*
%TD*%
D23*
%TO.C,C6*%
X145778000Y-91336000D03*
X146468000Y-91336000D03*
%TD*%
D13*
%TO.C,R11*%
X138556000Y-92178000D03*
X138556000Y-92868000D03*
%TD*%
%TO.C,C16*%
X144676000Y-86729000D03*
X144676000Y-87419000D03*
%TD*%
D26*
%TO.C,C3*%
X138100000Y-85795000D03*
X138100000Y-86755000D03*
%TD*%
D13*
%TO.C,C1*%
X140995000Y-85945000D03*
X140995000Y-86635000D03*
%TD*%
D22*
%TO.C,C8*%
X143965000Y-90535000D03*
X143965000Y-91225000D03*
%TD*%
D26*
%TO.C,C18*%
X145500000Y-86525000D03*
X145500000Y-87485000D03*
%TD*%
D13*
%TO.C,R8*%
X143808000Y-85322000D03*
X143808000Y-86012000D03*
%TD*%
D21*
%TO.C,R2*%
X145912000Y-85750000D03*
X145222000Y-85750000D03*
%TD*%
D13*
%TO.C,R9*%
X146410000Y-92295000D03*
X146410000Y-92985000D03*
%TD*%
D22*
%TO.C,R5*%
X146664000Y-85812000D03*
X146664000Y-85122000D03*
%TD*%
D21*
%TO.C,R1*%
X145922000Y-85050000D03*
X145232000Y-85050000D03*
%TD*%
M02*
