%TF.GenerationSoftware,KiCad,Pcbnew,(7.0.0)*%
%TF.CreationDate,2023-11-09T16:41:47-05:00*%
%TF.ProjectId,headstage-neuropix2e,68656164-7374-4616-9765-2d6e6575726f,B*%
%TF.SameCoordinates,Original*%
%TF.FileFunction,Profile,NP*%
%FSLAX46Y46*%
G04 Gerber Fmt 4.6, Leading zero omitted, Abs format (unit mm)*
G04 Created by KiCad (PCBNEW (7.0.0)) date 2023-11-09 16:41:47*
%MOMM*%
%LPD*%
G01*
G04 APERTURE LIST*
%TA.AperFunction,Profile*%
%ADD10C,0.050000*%
%TD*%
G04 APERTURE END LIST*
D10*
X143025000Y-78000000D02*
G75*
G03*
X143025000Y-78000000I-500000J0D01*
G01*
X135175000Y-84850000D02*
G75*
G03*
X135175000Y-84850000I-175000J0D01*
G01*
X141800000Y-80450000D02*
X141800000Y-80700000D01*
X144800000Y-79070000D02*
X149025000Y-79070000D01*
X150025000Y-80070000D02*
G75*
G03*
X149025000Y-79070000I-1000000J0D01*
G01*
X146675000Y-81900000D02*
X143325000Y-81900000D01*
X144150000Y-98700000D02*
X149025000Y-98700000D01*
X150000000Y-90987107D02*
G75*
G03*
X150000000Y-90987107I-175000J0D01*
G01*
X141875000Y-80700000D02*
X141800000Y-80700000D01*
X137325000Y-82750000D02*
X137325000Y-83350000D01*
X135825000Y-84350000D02*
X136325000Y-84350000D01*
X134825000Y-97700000D02*
G75*
G03*
X135825000Y-98700000I1000000J0D01*
G01*
X150024993Y-92707107D02*
G75*
G03*
X149025000Y-91707107I-999993J7D01*
G01*
X142925000Y-81500000D02*
G75*
G03*
X143325000Y-81900000I400000J0D01*
G01*
X147900000Y-90987107D02*
G75*
G03*
X147900000Y-90987107I-175000J0D01*
G01*
X135825000Y-79070000D02*
G75*
G03*
X134825000Y-80070000I0J-1000000D01*
G01*
X142330000Y-97200000D02*
G75*
G03*
X141330000Y-96200000I-1000000J0D01*
G01*
X150025000Y-80070000D02*
X150025000Y-89887107D01*
X134825000Y-80070000D02*
X134825000Y-83350000D01*
X141725000Y-81900000D02*
G75*
G03*
X142125000Y-81500000I0J400000D01*
G01*
X142231313Y-79560212D02*
X141800000Y-80450000D01*
X143175000Y-80700000D02*
X143250000Y-80700000D01*
X143175000Y-80700000D02*
G75*
G03*
X142925000Y-80950000I0J-250000D01*
G01*
X143150000Y-97200000D02*
X143150000Y-97700000D01*
X150025000Y-97700000D02*
X150025000Y-92707107D01*
X144150000Y-96200000D02*
G75*
G03*
X143150000Y-97200000I0J-1000000D01*
G01*
X137325000Y-96200000D02*
X141330000Y-96200000D01*
X150000000Y-91607107D02*
G75*
G03*
X150000000Y-91607107I-175000J0D01*
G01*
X134825000Y-83350000D02*
G75*
G03*
X135825000Y-84350000I1000000J0D01*
G01*
X147525000Y-96200000D02*
X147525000Y-92707107D01*
X143250000Y-80700000D02*
X143250000Y-80450000D01*
X149025000Y-90887100D02*
G75*
G03*
X150025000Y-89887107I0J1000000D01*
G01*
X141725000Y-81900000D02*
X138175000Y-81900000D01*
X142700000Y-78925000D02*
G75*
G03*
X142700000Y-78925000I-175000J0D01*
G01*
X143150000Y-97700000D02*
G75*
G03*
X144150000Y-98700000I1000000J0D01*
G01*
X142231312Y-79560212D02*
G75*
G03*
X140300001Y-79070000I-955299J285909D01*
G01*
X149025000Y-98700000D02*
G75*
G03*
X150025000Y-97700000I0J1000000D01*
G01*
X136325000Y-85300000D02*
X135825000Y-85300000D01*
X141330000Y-98700000D02*
G75*
G03*
X142330000Y-97700000I0J1000000D01*
G01*
X142330000Y-97700000D02*
X142330000Y-97200000D01*
X138175000Y-81900000D02*
G75*
G03*
X137325000Y-82750000I0J-850000D01*
G01*
X137300000Y-84850000D02*
G75*
G03*
X137300000Y-84850000I-175000J0D01*
G01*
X142605000Y-96400000D02*
G75*
G03*
X142605000Y-96400000I-175000J0D01*
G01*
X137325000Y-86300000D02*
X137325000Y-96200000D01*
X147524993Y-89887107D02*
G75*
G03*
X148525000Y-90887107I1000007J7D01*
G01*
X148525000Y-91707100D02*
G75*
G03*
X147525000Y-92707107I0J-1000000D01*
G01*
X147525000Y-82750000D02*
G75*
G03*
X146675000Y-81900000I-850000J0D01*
G01*
X134825000Y-86300000D02*
X134825000Y-97700000D01*
X140300000Y-79070000D02*
X135825000Y-79070000D01*
X142925000Y-81500000D02*
X142925000Y-80950000D01*
X143225000Y-96400000D02*
G75*
G03*
X143225000Y-96400000I-175000J0D01*
G01*
X148525000Y-90887107D02*
X149025000Y-90887107D01*
X143250000Y-80450000D02*
X142818687Y-79560212D01*
X144150000Y-96200000D02*
X147525000Y-96200000D01*
X136325000Y-84350000D02*
G75*
G03*
X137325000Y-83350000I0J1000000D01*
G01*
X147900000Y-91607107D02*
G75*
G03*
X147900000Y-91607107I-175000J0D01*
G01*
X135825000Y-85300000D02*
G75*
G03*
X134825000Y-86300000I0J-1000000D01*
G01*
X135825000Y-98700000D02*
X141330000Y-98700000D01*
X143225000Y-98500000D02*
G75*
G03*
X143225000Y-98500000I-175000J0D01*
G01*
X142125000Y-80950000D02*
X142125000Y-81500000D01*
X142605000Y-98500000D02*
G75*
G03*
X142605000Y-98500000I-175000J0D01*
G01*
X147525000Y-89887107D02*
X147525000Y-82750000D01*
X144800017Y-79069997D02*
G75*
G03*
X142818687Y-79560212I-1002517J-197203D01*
G01*
X142125000Y-80950000D02*
G75*
G03*
X141875000Y-80700000I-250000J0D01*
G01*
X149025000Y-91707107D02*
X148525000Y-91707107D01*
X137325000Y-86300000D02*
G75*
G03*
X136325000Y-85300000I-1000000J0D01*
G01*
X100000000Y-65000000D02*
X160000000Y-65000000D01*
X160000000Y-65000000D02*
X160000000Y-125000000D01*
X160000000Y-125000000D02*
X100000000Y-125000000D01*
X100000000Y-125000000D02*
X100000000Y-65000000D01*
M02*
